<?xml version="1.0" encoding="UTF-8"?>
<svg id="Layer_1" xmlns="http://www.w3.org/2000/svg" version="1.1" viewBox="0 0 300 300">
  <!-- Generator: Adobe Illustrator 29.6.0, SVG Export Plug-In . SVG Version: 2.1.1 Build 207)  -->
  <defs>
    <style>
      .st0 {
        fill: #461615;
      }

      .st1 {
        fill: #4988a9;
      }

      .st2 {
        fill: #185a7a;
      }

      .st3 {
        fill: #fffeff;
      }

      .st4 {
        fill: #ee4a58;
      }

      .st5 {
        fill: #2b6a86;
      }

      .st6 {
        fill: #240707;
      }

      .st7 {
        fill: #e18558;
      }

      .st8 {
        fill: #101417;
      }

      .st9 {
        fill: #f0a174;
      }

      .st10 {
        fill: #fecfac;
      }

      .st11 {
        fill: #924a43;
      }

      .st12 {
        fill: #722c2b;
      }
    </style>
  </defs>
  <g id="Generative_Object">
    <g>
      <path class="st3" d="M141.1,194.4c2.5,1.3,5.9,2.6,8.2,4s0,0,.2.2c-1.5,1.6-3.1,3.2-4.6,4.8-4,4.1-7.8,8.5-12.1,12.4-6.8-6.6-12.9-13.8-19-21-.3-.3-.5-.9-1-.8.5-.2,1-.2,1.4-.6l18.9,18.9,12.5-13.1-4.4-4.7Z"/>
      <path class="st3" d="M186.3,194.2l-19.8,21.8c-3.9-4.3-7.8-8.5-11.9-12.6s-2.6-3.4-4.4-4.6c2.3-1.9,5.6-2.9,8.2-4.2l-4.4,4.5,12.5,13.1,18.9-18.7c.5,0,.9.6.9.6Z"/>
    </g>
    <g>
      <path class="st1" d="M202.8,260.8l-2-32.1-1.4,32.1c-16.6,0-33.2,0-49.7,0v-56.9c.7,0,1.4,0,2.1,0l14.6,15.5c1.1,0,13.9-14.5,15.4-16.5s4.8-6.1,5-6.9,0-1.1-.2-1.6c27.3,7.9,44,7.4,42.8,41.9-.3,8.1-1.6,16.3-2.3,24.3-8.1.2-16.2,0-24.3.1Z"/>
      <path class="st2" d="M186.7,194.4c.1.5.3,1,.2,1.6-.2.8-4.2,5.9-5,6.9-1.5,2-14.3,16.5-15.4,16.5l-14.6-15.5c0,0,.1,0,.2,0,.8,0,1.7-.3,2.5-.4,4.1,4.1,8,8.3,11.9,12.6l19.8-21.8c.4.1.4.2.4.2Z"/>
      <path class="st2" d="M202.8,260.8c-1.1,0-2.2,0-3.4,0l1.4-32.1,2,32.1Z"/>
      <path class="st2" d="M113.9,194.9c6.1,7.2,12.2,14.4,19,21,4.2-3.9,8-8.3,12.1-12.4,1.1,0,2.1.4,3.1.4-5.7,3.6-10.1,11.2-15.2,15.5-7.5-7.2-14.6-15.1-20.5-23.8.3-1.1.5-.9,1.5-.7Z"/>
      <g>
        <path class="st5" d="M113.9,194.9c-.9-.2-1.2-.4-1.5.7,5.9,8.7,12.9,16.7,20.5,23.8,5.1-4.3,9.6-11.9,15.2-15.5.6,0,1.1,0,1.7,0v56.9c-25.9,0-51.8,0-77.7-.1-.9-11.6-3.2-24.3-2.3-35.9,1.8-23.4,25.5-25,43-30.7.6,0,.8.5,1,.8Z"/>
        <path class="st2" d="M98.4,228.4c1.6,0,1.2,29.5,1.2,31.8h-2.6c0,.1,1.5-31.8,1.5-31.8Z"/>
      </g>
    </g>
    <path class="st10" d="M152.1,203.9c0,0-.1,0-.2,0-.7,0-1.4,0-2.1,0s-1.1,0-1.7,0c1.8-1.2.9-.3,1.6-.4s.2-.7.4-.6c.3,0,1.4,1,2,1Z"/>
    <path class="st9" d="M150.2,198.8c1.8,1.2,2.9,3.1,4.4,4.6-.8,0-1.7.4-2.5.4-.6,0-1.7-1-2-1s-.4.6-.4.6c-.7,0,.3-.8-1.6.4-1.1,0-2.1-.4-3.1-.4,1.6-1.6,3.1-3.2,4.6-4.8,0,0,.4,0,.6.2Z"/>
    <g>
      <g>
        <path class="st0" d="M176.6,62.6c-1.6,3-5,6-7.6,8.3l2.8-.5c-.1.3-.4.8-.5,1-4.8,7.6-30.8,13-39.5,15.3l.3-.6c-.3-.2-1.6.7-1.3-.2,11.3-3.8,23.6-8.8,33.6-15.3,5.2-3.4,10.7-7.7,13.6-13.2.6.3-1.2,4.6-1.6,5.2Z"/>
        <path class="st0" d="M200.3,108.6c-.2,0-.5,0-.6.1-.1.1-.5,3.1-.6,3.7-1.1,4.3-2.6,8.4-3.8,12.7s-.3.9-.6.7c.9-5.8.2-10.8.6-16.4s.8-1,.8-1.4c.3-2.4.6-4-1.7-4.7.4-.5,0-1.3-.2-1.8-1.9-4-6.5-10.5-9.2-14.2l-9.2-16.2c2.8,2.1,5.4,5.2,7.6,7.9,7,8.6,13.2,19,17,29.5Z"/>
        <path class="st11" d="M176.6,62.6c7.7-5,14.9,2,14.1,10.2l-5.7-5.5c2.3,2.2,3.9,5.3,3.9,8.5-3.6-3.8-7.7-7.1-12.7-8.9,2.1-1.2,4.8-1,7.1-.8l-6.7-3.5Z"/>
        <path class="st0" d="M105,103.3c-2.5.9-1.8,4.1-.4,5.9l.3,16.8c-1.6-4.4-2.9-8.9-4.1-13.4s-.7-2.6-.8-3.9l-.3-.3c-.5.3-1.2.3-1.8.4-.5.2-.3-.6-.2-.7,1.2-3.2,4.4-5.8,7.5-7.2v2.5Z"/>
        <g>
          <path class="st12" d="M203.7,109.4c-.4-.2-2.9-.9-3.4-.8-3.8-10.5-10-20.8-17-29.5-2.2-2.7-4.8-5.8-7.6-7.9s0-.5-.3-.6l.3.6,9.2,16.2c-3.5-4.8-7.9-9.9-12-14.3-.5-.6-1-1.3-1.7-1.7.1-.2.4-.8.5-1l-2.8.5c2.5-2.3,5.9-5.3,7.6-8.3l6.7,3.5c-2.3-.1-5-.4-7.1.8,5,1.8,9.1,5.1,12.7,8.9,0-3.2-1.6-6.3-3.9-8.5l5.7,5.5c.8-8.2-6.3-15.1-14.1-10.2.4-.7,2.2-4.9,1.6-5.2-3,5.5-8.4,9.8-13.6,13.2-10,6.5-22.3,11.5-33.6,15.3-.3.9.9,0,1.3.2l-.3.6c-8,2.2-16.3,4-22,10.7s-1.7,2.8-2.3,5.5c-.9.1-1.7.1-2.5.4v-2.5c-3,1.4-6.1,4-7.3,7.2s-.3.9.2.7c-.1,0-1.5.6-1.7.6-4.5-23.8,4-48.9,26.1-60.4s38.8-10.5,52.5.4c1.7,1.4,3.8,4.4,5,5.2s3.4,1.2,4.6,1.9c19.6,11.4,21.9,32,19.2,52.9Z"/>
          <g>
            <path class="st0" d="M150.5,51.9c.2,0,.5,0,.5.1-5.3,3.1-9.8,7.3-14.8,10.8s-11,6.8-15.7,11.1c-6.9,6.4-13.2,15.4-17.3,23.8.3-7.8,5.3-15.3,10.1-21.2s12.7-13.1,21.3-17.7,13.7-6.8,16-6.9Z"/>
            <path class="st11" d="M143.3,48.6c1.5-.1,6.7-.2,8,.2s1,.3.6.6c-12.7,2.6-24.4,8.4-35.2,15.4,5.2-8.4,16.7-15.4,26.6-16.3Z"/>
            <path class="st11" d="M164.5,61.6l-10.5,10.5c-5.2,3-11.2,8.8-16.6,11.1s-.9.6-1.2.1l14.2-14.4,14.1-7.3Z"/>
            <path class="st11" d="M151.5,60.5c.2,0,.5,0,.5.1-9,4.8-18.1,9.9-27.5,14.1,3.1-2.5,8.1-8.2,11.6-9.8s14.5-4.3,15.3-4.4Z"/>
            <path class="st0" d="M175.8,71.2l-.3-.6c.3.1.3.6.3.6Z"/>
          </g>
        </g>
      </g>
      <g>
        <path class="st10" d="M195.3,109.4c-.5,5.6.2,10.6-.6,16.4s0,.4,0,.6c-.4,2.3-1,4.7-1.7,6.9s-1.1,3.7-1.7,5.2c-1.8,4.4-5.4,10.4-8.4,14.1s-4.1,4.6-6.5,6.5-7.5,5.8-9.9,7.1c-4.1,2.4-12.3,5.1-17,5l.2-17c8.1,0,12-5.7,16.4-11.4-3.2,1.2-6.4.1-9.6.1s-4.7.4-6.8.4v-5.5c1.9.1,6.9-3.5,4.5-4.4s-3.6-.2-4.5-.2v-21.9l-2.5.9c5.4-5.4,8.2,6.5,10.5,9.8,8,11.8,29.4,12,33.8-3.4.8-2.9.3-8.1,3.8-9.3Z"/>
        <path class="st9" d="M119.5,129.8c.1.7.6.2.2,1.2-1.1,2.5-6.9,1.3-7.1,1.9,4.8,13.5,13.1,26.1,25.5,33.7s5.1,2.5,7.8,3.8.6.2.3.6c-5.6-.9-11-3.6-15.7-6.5-5.4-3.3-10.1-7.4-14.1-12.4s-6.2-9.2-8-13.4-1.4-3.9-1.9-5.7-1-4.1-1.5-6.2c-.6-.6-.8,2.5-3.7.7-4.8-2.9-8.7-14-.5-14.9,1.2,4.5,2.5,9,4.1,13.4l-.3-16.8c3.7,4.8,2.2,4.6,3.8,10s4.7,9.3,11.1,10.6Z"/>
        <path class="st10" d="M176.4,159.2l-7.6,5.8c0,3.3,0,6.7,0,10,.1,4.6-.6,9,3.6,12.2-4.4,2-9.5,5.3-14.1,7.6s-5.9,2.3-8.2,4.2c-.2-.2-.6-.2-.6-.2-.2-.1-.2-.2-.2-.2l.2-19.5c6.9-.7,14.7-5.8,17-12.6,2.3-1.4,8-5.6,9.9-7.1Z"/>
        <path class="st9" d="M149.5,178.9l-.2,19.5c-2.3-1.4-5.7-2.7-8.2-4-4.5-2.3-9.7-5.3-14.3-7.3,4.1-2.4,3.9-7.6,4-11.8,5.8,1.9,12.4,4.2,18.7,3.6Z"/>
        <path class="st10" d="M100.8,112.6c-8.2.9-4.3,12,.5,14.9s3-1.3,3.7-.7c.5,2,.8,4.2,1.5,6.2-8.5,0-15-9.9-14.1-17.7s1.8-4.8,3.8-5.8,1.5-.6,1.7-.6c.6-.1,1.3-.1,1.8-.4l.3.3c.2,1.3.5,2.6.8,3.9Z"/>
        <path class="st10" d="M185,87.4c2.7,3.7,7.3,10.2,9.2,14.2s.6,1.3.2,1.8c-2.2-.7-6.6-1-9-1.3-4.6-3.8-9-6.4-15.2-5.5s-11.5,3.2-6.1,5,6.1-2.2,8.8-2.5,8.4,1.4,11.4,3.1c-9.7-.7-16.1-.4-25.7,1.3-3.8.7-5.4,1.9-9.8,1.7l.8-.5-.2-17.9c8.3-2.7,17.8-6.9,23.5-13.6,4.1,4.4,8.4,9.5,12,14.3Z"/>
        <path class="st10" d="M149.5,86.8l.2,17.9-.8.5c-3.5-.2-6.7-1.5-10.2-2.1-8.6-1.4-14.7-1.5-23.4-.8.6-.6,2.1-1.2,2.8-1.5,2.5-.9,5.9-2,8.6-1.7s6.7,3.2,8.6,2.7,1.8-1.3,1.8-1.4c.6-2.1-7.7-4-9.1-4.1-5.3-.4-10.1,2.5-14,5.9-2.2.2-4.3.3-6.5.6.6-2.7.6-3.5,2.3-5.5l12.5-4c9-2.3,18.3-3.8,27.2-6.7Z"/>
        <path class="st9" d="M173,73.1c-5.7,6.7-15.2,10.9-23.5,13.6s-18.2,4.4-27.2,6.7l-12.5,4c5.8-6.7,14-8.5,22-10.7s34.7-7.8,39.5-15.3c.7.4,1.1,1.1,1.7,1.7Z"/>
        <path class="st10" d="M149.7,133.4c-.8,0-4.5,0-4.6.9s3.5,3.6,4.6,3.7v5.5c-.5,0-1.5-.4-1.8-.4-4.8,0-9.5.9-14.2-.1,4.1,5.6,8.2,11.4,16,11.4l-.2,17c-1.1,0-2.3-.2-3.4-.4.3-.4,0-.5-.3-.6-2.6-1.3-5.3-2.2-7.8-3.8-12.4-7.6-20.7-20.2-25.5-33.7.2-.6,6,.7,7.1-1.9s-.1-.5-.2-1.2c9,1.8,17.4,0,22.7-7.9s3-7.5,5-9.6l2.5-.9v21.9Z"/>
        <path class="st7" d="M146.2,170.9c1.1.2,2.3.4,3.4.4,4.7,0,12.9-2.6,17-5-2.3,6.8-10.1,11.8-17,12.6-6.2.7-12.9-1.7-18.7-3.6,0-2.8,0-7.5-.2-10.3s0-.4-.2-.6c4.7,2.9,10.2,5.6,15.7,6.5Z"/>
        <g>
          <path class="st10" d="M200.3,108.6c.5,0,2.9.6,3.4.8,7.5,4,2.2,17.7-3.7,21.4s-4.6,1.5-7,2.5c.7-2.2,1.3-4.6,1.7-6.9,1.9,3.5,5.2.1,6.7-2,2.9-4,4-10.8-2.3-12.1.1-.5.5-3.5.6-3.7.1-.2.4,0,.6-.1Z"/>
          <path class="st9" d="M194.7,126.4c0-.2,0-.4,0-.6.4.1.6-.5.6-.7,1.2-4.3,2.7-8.4,3.8-12.7,6.3,1.2,5.2,8,2.3,12.1s-4.8,5.5-6.7,2Z"/>
        </g>
        <path class="st9" d="M149.7,133.4c.9,0,3.8,0,4.5.2,2.4.9-2.6,4.5-4.5,4.4s-4.7-2.6-4.6-3.7,3.8-.9,4.6-.9Z"/>
        <g>
          <path class="st0" d="M116.4,152c.9,9.4,5.5,19,14.1,23.6l.2-10.6c.2,2.8.3,7.5.2,10.3-.1,4.2.1,9.3-4,11.8-2-.9-5-1.3-7.2-2.3-19.4-8.4-23.4-29.6-11.2-46.2,1.7,4.2,5.1,9.8,8,13.4Z"/>
          <path class="st0" d="M191.9,139.6v14.4c-1,13.3-4.1,21.7-13.9,30.6-.3.3-.5.3-.2.7-1.8.8-3.9,1-5.5,1.7-4.2-3.1-3.5-7.6-3.6-12.2,8.2-4.2,13.1-13.3,14.1-22.2,3-3.7,6.6-9.7,8.4-14.1.1.4.4.7.6,1Z"/>
          <path class="st12" d="M177.9,185.4c-.3-.4,0-.5.2-.7,9.7-9,12.9-17.3,13.9-30.6v-14.4c11.8,19.4,6.8,36.9-14.1,45.8Z"/>
          <path class="st6" d="M168.8,174.9c0-3.3,0-6.7,0-10l7.6-5.8c2.4-1.9,4.6-4.1,6.5-6.5-1,9-5.8,18-14.1,22.2Z"/>
          <path class="st6" d="M130.4,164.4c.1.3.2.3.2.6l-.2,10.6c-8.5-4.6-13.2-14.2-14.1-23.6,3.9,5,8.7,9.1,14.1,12.4Z"/>
        </g>
        <path class="st12" d="M185.4,102.1c0,0-.5.2-1,.2-3.1-1.8-7.8-3.6-11.4-3.1s-6.4,3.4-8.8,2.5c-5.5-1.9,4.5-4.8,6.1-5,6.2-.9,10.6,1.7,15.2,5.5Z"/>
        <path class="st12" d="M115.3,102.3c-.4,0-.8,0-1.3,0,3.9-3.4,8.7-6.3,14-5.9s9.7,2,9.1,4.1-1.7,1.3-1.8,1.4c-1.9.5-6.3-2.4-8.6-2.7s-6.1.8-8.6,1.7-2.3.9-2.8,1.5Z"/>
        <g>
          <path class="st4" d="M149.7,143.4c2.1,0,4.5-.4,6.8-.4s6.3,1.1,9.6-.1c-4.3,5.8-8.3,11.5-16.4,11.4-7.8,0-11.8-5.8-16-11.4,4.6,1,9.4,0,14.2.1s1.2.4,1.8.4Z"/>
          <path class="st3" d="M136.6,144.1c6.1,2.5,13.2,2.8,19.7,1.9l6.8-1.4c-7,7.4-20.1,7.7-26.6-.5Z"/>
        </g>
        <g>
          <path class="st8" d="M148.9,105.2c4.3.3,6-1,9.8-1.7,9.6-1.6,16-2,25.7-1.3s1-.2,1-.2c2.4.2,6.8.6,9,1.3s2,2.3,1.7,4.7-.8.8-.8,1.4c-3.4,1.2-2.9,6.4-3.8,9.3-4.4,15.4-25.8,15.1-33.8,3.4-2.3-3.3-5.1-15.2-10.5-9.8s-3.2,6.8-5,9.6c-5.3,7.8-13.7,9.7-22.7,7.9-6.4-1.3-9.3-4.5-11.1-10.6s0-5.1-3.8-10-2.1-5,.4-5.9,1.7-.3,2.5-.4c2.2-.3,4.3-.4,6.5-.6s.8,0,1.3,0c8.7-.6,14.8-.6,23.4.8s6.7,1.9,10.2,2.1Z"/>
          <g>
            <path class="st10" d="M119.2,104c4.9-.4,23.6-.1,24.7,6.2s-6.7,16-13.1,17.5c-9.9,2.3-19.3-.8-20.9-11.6s.8-11.5,9.3-12.1Z"/>
            <g>
              <path class="st0" d="M128.4,107.7c7.5-.8,6.6,14.5-.6,12.2s-2.4-3.7-3.3-4.9-2.8-2.2-3.1-4c.2-.5,2.1-.3,2.8-.5,1.2-.4,2.4-2.5,4.2-2.7Z"/>
              <path class="st3" d="M130.5,109.6c2.7-.5,2.5,4.2.4,4.2s-2.3-3.8-.4-4.2Z"/>
            </g>
          </g>
          <g>
            <path class="st10" d="M171.9,104c11.6-.7,20.9-1.1,17.7,13.5-3.1,14.3-23.4,13.7-30.4,2.9-8.7-13.2,1.1-15.8,12.7-16.5Z"/>
            <g>
              <path class="st0" d="M170,107.7c3.5-.5,5.1,3.8,8.7,3-.2,1.8-2.8,3.3-3.4,4.2-.9,1.5-1,4.9-3.9,5.4-6.8,1.1-7.1-11.8-1.5-12.6Z"/>
              <path class="st3" d="M172.3,110.3c2.1-.2,2.6,3.8.6,4.2s-2.6-4-.6-4.2Z"/>
            </g>
          </g>
        </g>
      </g>
    </g>
  </g>
</svg>