<?xml version="1.0" encoding="UTF-8"?>
<svg id="Layer_1" data-name="Layer 1" xmlns="http://www.w3.org/2000/svg" xmlns:xlink="http://www.w3.org/1999/xlink" viewBox="0 0 216.48 284.55">
  <defs>
    <style>
      .cls-1 {
        fill: #302430;
      }

      .cls-2 {
        fill: #c7e3f4;
      }

      .cls-3 {
        fill: #3f3443;
      }

      .cls-4 {
        fill: url(#linear-gradient-2);
      }

      .cls-5 {
        fill: #ad583c;
      }

      .cls-6 {
        fill: #acc2dc;
      }

      .cls-7 {
        fill: #645662;
      }

      .cls-8 {
        fill: #c86e4a;
      }

      .cls-9 {
        fill: url(#linear-gradient);
      }

      .cls-10 {
        fill: #e1483d;
      }

      .cls-11 {
        fill: #df8b65;
      }

      .cls-12 {
        fill: #fff;
      }

      .cls-13 {
        fill: #201d27;
      }

      .cls-14 {
        fill: #cbc9c9;
      }

      .cls-15 {
        fill: #633a28;
      }

      .cls-16 {
        fill: #2c120b;
      }

      .cls-17 {
        fill: #ae2220;
      }

      .cls-18 {
        fill: #544855;
      }

      .cls-19 {
        fill: #cb3631;
      }

      .cls-20 {
        fill: #e7a57d;
      }

      .cls-21 {
        fill: #8f1a17;
      }

      .cls-22 {
        fill: #661412;
      }

      .cls-23 {
        fill: #14060c;
      }

      .cls-24 {
        fill: #c88062;
      }

      .cls-25 {
        fill: #955138;
      }

      .cls-26 {
        fill: #432115;
      }
    </style>
    <linearGradient id="linear-gradient" x1="132.28" y1="110.96" x2="79.58" y2="119.32" gradientUnits="userSpaceOnUse">
      <stop offset="0" stop-color="#342b36"/>
      <stop offset="1" stop-color="#484451"/>
    </linearGradient>
    <linearGradient id="linear-gradient-2" x1="129" y1="61.61" x2="76.48" y2="111.03" gradientUnits="userSpaceOnUse">
      <stop offset="0" stop-color="#e18c64"/>
      <stop offset=".86" stop-color="#eaa37c"/>
    </linearGradient>
  </defs>
  <g id="Generative_Object" data-name="Generative Object">
    <g>
      <path class="cls-17" d="M183.79,258.4c.15-5.15-.48-10.4-1.12-15.52-1.65-13.3-3.93-31.45-10.49-43.09-7.03-12.48-20.27-20.17-31.59-28.24.64,5.74,1.54,11.41,1.9,17.19-.38.09-.05.53-.67.45-.94-5.88-1.39-11.9-2.46-17.75-.47-2.57-.89-6.23-1.79-8.6,12.4,4.25,26.26,7.19,38.29,12.28,11.13,4.71,11.49,9.61,13.73,20.87,4.01,20.13,4.47,41.59,5.58,62.07-.26.58-10.01.32-11.39.33Z"/>
      <path class="cls-19" d="M137.57,162.85c.9,2.37,1.32,6.03,1.79,8.6,1.06,5.85,1.52,11.87,2.46,17.75-1.74-.23-12.37-11.33-15.29-12.28l3.46,3.46-13.62,17.75c2.16-6.69,5.12-13.28,7.37-20.09,1.22-3.71,2.62-7.36,3.57-11.16.07-.3.18-.47.22-.67.61-2.52.9-5.05,1.34-7.59.35-2.07.89-4.15,1.12-6.25,2.55,2.16,6.42,7.41,7.59,10.49Z"/>
      <path class="cls-10" d="M87.12,158.83c.39,2.43,1,4.76,1.56,7.14.7,2.99,1.53,5.78,2.46,8.71.41,1.29.91,2.53,1.34,3.8,2.25,6.64,5.09,13.04,7.37,19.65l-13.84-17.97,3.68-3.46-15.29,12.17,3.8-25.79c2.82-4.02,4.41-7.89,8.26-11.16-.14,2.35.3,4.63.67,6.92Z"/>
      <path class="cls-17" d="M50.06,258.4c-3.42,0-6.85.01-10.27,0l7.03-49.56,3.24,49.56Z"/>
      <path class="cls-17" d="M175.98,258.4c-3.27.01-6.55,0-9.82,0l3.46-49.12,6.36,49.12Z"/>
      <path class="cls-17" d="M78.19,163.07l-3.8,25.79,15.29-12.17-3.68,3.46,13.84,17.97c.07.22.15.45.22.67.04.89-.05,1.8,0,2.68l-14.62-14.29-11.72,6.36c.25-6.72.51-13.45,1.56-20.09.55-3.47,2.1-6.82,1.79-10.38.32-.07.76.04,1.12,0Z"/>
      <path class="cls-17" d="M89.35,150.35c.7-.1.26,1.93.22,2.12-.42,2-1.18,4.74-2.46,6.36-.37-2.29-.81-4.57-.67-6.92.72-.62,2.65-1.32,2.9-1.56Z"/>
      <path class="cls-21" d="M129.98,152.35c-.22,2.1-.76,4.18-1.12,6.25-1.79-2.56-1.76-5.59-2.23-8.48,1.39.36,2.31,1.36,3.35,2.23Z"/>
      <g>
        <path class="cls-10" d="M100.07,201.47c1.17,18.89,2.04,37.8,2.9,56.71-17.63.34-35.28.27-52.91.22l-3.24-49.56-7.03,49.56c-6.25-.03-12.51.11-18.75-.11.85-20.13,1.45-41.14,5.13-60.95,3.58-19.24,5.59-19.4,23.33-25.56,7.59-2.64,20.06-7.2,27.57-8.71.32,3.57-1.24,6.91-1.79,10.38-1.05,6.64-1.31,13.37-1.56,20.09l11.72-6.36,14.62,14.29Z"/>
        <path class="cls-21" d="M96.83,226.92c2-.33,2.9,2.8,1.12,3.35-2.51.77-3.08-3.03-1.12-3.35Z"/>
        <path class="cls-21" d="M96.83,243.45c2.45-.51,2.72,3.02.89,3.35-2.04.37-2.93-2.92-.89-3.35Z"/>
        <path class="cls-21" d="M94.82,203.48c2.62-.81,3.02,3.1.89,3.35s-2.45-2.87-.89-3.35Z"/>
      </g>
      <path class="cls-17" d="M141.82,189.19c.62.08.29-.36.67-.45.05.79.61,4.81.11,4.91l-11.39-6.7-15.07,14.96c.05-.96-.04-1.94,0-2.9.09-.31.14-.62.22-.89l13.62-17.75-3.46-3.46c2.92.95,13.56,12.05,15.29,12.28Z"/>
      <g>
        <path class="cls-10" d="M183.79,258.4c-2.6.02-5.21-.01-7.81,0l-6.36-49.12-3.46,49.12c-17.49.04-34.99-.22-52.47-.22.55-18.77,1.48-37.52,2.46-56.26l15.07-14.96,11.39,6.7c.5-.1-.06-4.12-.11-4.91-.36-5.78-1.26-11.45-1.9-17.19,11.32,8.07,24.56,15.76,31.59,28.24,6.56,11.64,8.84,29.79,10.49,43.09.64,5.12,1.27,10.36,1.12,15.52Z"/>
        <path class="cls-21" d="M119.82,226.92c3.63-.66,2.39,5.6-.67,3.35-1.36-1-.65-3.11.67-3.35Z"/>
        <path class="cls-21" d="M118.71,243.22c2.63-.6,3.02,3.07,1.34,3.57-2.8.84-3.39-3.1-1.34-3.57Z"/>
      </g>
    </g>
    <g>
      <path class="cls-6" d="M105.2,254.16c.1,1.34-.2,2.87.22,4.24-.82.03-1.78-.24-2.46-.22-.86-18.91-1.73-37.82-2.9-56.71-.05-.88.04-1.79,0-2.68.45,1.32,1.32,2.59,1.56,4.13,2.41,15.39,2.39,35.24,3.57,51.24Z"/>
      <path class="cls-6" d="M116.14,201.92c-.98,18.74-1.9,37.5-2.46,56.26-1.42,0-3,.46-4.47.22.69-.09,1.59-.24,2.23-.56.31-.6-.27-3.07-.22-3.68,0-.07.44-1.14.45-1.23,1.12-15.04.44-40.52,4.47-53.92-.04.96.05,1.94,0,2.9Z"/>
      <path class="cls-6" d="M111.23,254.16c-.04.61.53,3.09.22,3.68-.65.32-1.54.46-2.23.56-1.11.15-2.61-.04-3.8,0-.42-1.37-.12-2.9-.22-4.24h6.03Z"/>
      <path class="cls-12" d="M124.63,167.31c.64.36.36,1.11.22,1.67-.47,1.97-1.48,4.24-2.23,6.14-1.96-.04-3.91.76-5.69.89-8.65.64-17.26.12-25.79-1.34-.92-2.93-1.76-5.72-2.46-8.71,1.14.85,3.33,1.44,4.8,1.79,10.04,2.35,21.15,1.75,31.14-.45Z"/>
      <path class="cls-14" d="M127.3,166.87c-.95,3.8-2.35,7.46-3.57,11.16.01-.33-.27-.18-.45-.22l1.12-2.34c-.19-.51-1.34-.33-1.79-.33.75-1.9,1.76-4.17,2.23-6.14.14-.56.42-1.31-.22-1.67.87-.19,1.77-.45,2.68-.45Z"/>
      <path class="cls-2" d="M123.29,177.81c.18.04.46-.11.45.22-2.25,6.81-5.21,13.4-7.37,20.09-.09.27-.13.58-.22.89-4.03,13.4-3.34,38.88-4.47,53.92,0,.09-.44,1.16-.45,1.23h-6.03c-1.18-16-1.16-35.85-3.57-51.24-.24-1.54-1.12-2.81-1.56-4.13-.07-.22-.15-.45-.22-.67-2.28-6.6-5.12-13.01-7.37-19.65,4.66-.12,8.74.92,13.51.89,3.25-.02,15.68-1.95,17.3-1.56Z"/>
      <path class="cls-6" d="M122.62,175.13c.44,0,1.59-.17,1.79.33l-1.12,2.34c-1.63-.39-14.06,1.55-17.3,1.56-4.77.02-8.85-1.02-13.51-.89-.43-1.27-.93-2.51-1.34-3.8,8.52,1.46,17.13,1.98,25.79,1.34,1.79-.13,3.73-.93,5.69-.89Z"/>
    </g>
    <g>
      <g>
        <path class="cls-7" d="M105.42,27.11c3.45.56,6.69,1.81,10.05,2.68,1.01.26,2.1.6,3.13.89,1.18.55,3.09,1.67,4.13,2.46.08.06,1.38,1.09.33,1.12-.16-.04-2.9-1.04-2.12-.22,2.05,2.16,8.39,4.06,10.72,6.47-2.14-.66-4-2.04-6.03-2.9-2.93-1.25-6.27-2.74-9.15-3.8s-6.4-2.1-9.15-2.46c2.88,1.02,5.7,2.64,8.15,4.47,2.27,1.69,4.22,4.31,6.25,6.03l-9.49-5.13c-1.03-.08,2.14,2.52,2.34,2.68,2.65,3.25,6.48,5.5,8.48,9.27-6.05-.4-12.04-3.53-17.08-6.81-.82.11.33.8.45.89,2.41,2.04,5.59,3.81,8.37,5.25-8.25-1.73-16.7-10.21-25.45-9.71-5.58.32-11.47,5.29-8.48,11.16.39.77,1.37,1.33,1.9,2.01-1-3.26-.07-6.92,3.13-8.48,7.77-3.81,17.67,5.43,24.56,8.48,3.2,1.42,6.63,2.03,9.82,3.13.31.11.7.28.33.67-6.39-1.06-26.33-9.21-29.81-8.71-2.2.32-4.87,3.69-5.92,5.58-.24.09-1.14.54-1.34.67.04-.25-.21-.21-.22-.22-1.59-1.73-7.4-3.79-9.71-3.13s-5.24,6.33-6.36,8.48c.97-3.46,2.41-5.16,3.57-8.04,2.07-2.51,5.79-2.07,8.6-1.12-3.77-11.8,6.1-13.63,15.4-13.17,6.08.3,11.93,2.34,17.64,4.24-1.08-1.36-3.68-2.57-5.36-3.35-6.32-2.91-21.23-6.32-27.46-3.13-4.13,2.12-6.54,8.38-4.8,12.61-3.09-4.9-2.45-12.32,3.01-15.52,7.56-4.42,19.19-4.71,27.57-3.35Z"/>
        <path class="cls-3" d="M145.83,53.9c-.57.45-.99.72-1.56,1.12-2.31,1.6-5.64,3.03-8.48,3.57-3.61.69-10.09.81-13.84.67-.1-.67.6-.43,1-.45,2.15-.06,5.16.29,7.14,0,.06,0,.97-.77.11-.67.88-.36.9-1.22,1.23-1.34,1.19-.44,4.89.03,6.03-1.56-5.97,1.06-10.95.98-16.86,0,.36-.39-.03-.56-.33-.67-3.19-1.09-6.63-1.71-9.82-3.13-6.88-3.06-16.79-12.3-24.56-8.48-3.19,1.57-4.12,5.22-3.13,8.48-.53-.68-1.51-1.24-1.9-2.01l.89-.11c-.83-3.29.74-6.96,3.46-8.82,1.14-.78,3.22-1.09,4.13-2.23,8.75-.5,17.2,7.99,25.45,9.71-2.78-1.44-5.96-3.2-8.37-5.25-.11-.09-1.27-.79-.45-.89,5.04,3.28,11.03,6.41,17.08,6.81-2-3.77-5.83-6.02-8.48-9.27,4.47,3.6,15.32,10.38,20.87,10.94.65.06,1.9.13,2.46-.22-5.6-1.55-11.73-4.49-16.19-8.26-2.03-1.72-3.98-4.33-6.25-6.03,1.19-.15,1.58.78,2.12,1.12,9.87,6.07,20.52,11.86,32.37,12.5.46.49-3.63,4.07-4.13,4.47Z"/>
        <path class="cls-1" d="M70.82,48.54c.18.81.46.21,0,1.34-1.16,2.87-2.61,4.58-3.57,8.04-.06.11-.5.34-.11.67.57-.36.06-.49.11-.67,1.13-2.16,3.97-7.8,6.36-8.48s8.12,1.4,9.71,3.13c-.82,1.14-2.06,1.83-3.13,2.68-7.33-4.3-11.27,2.64-12.84,8.71l2.34-4.13-1.67,11.05c1.84-4.24,3.15-9.07,6.92-12.06,1.21-.96,3.5-1.68,4.58-2.46-2.73,2.07-1.93,3.34-1.79,6.47-1.46,5.65-.45,10.07-1.12,15.29-.78,6.18-2.96,8.24-2.46,15.74h-.22c-.03-.22-.65-2.49-.67-2.79-.07-.9.5-2.34.45-2.46-1.12-2.31-1.82,4.4-1.79,4.91.03.34,1.19,1.48.45,1.45-.18-.57-.81-1.57-1.12-2.46-1.29-3.75-3-7.41-4.02-11.27-2.55-9.69-5.36-25.82,3.57-32.71Z"/>
        <path class="cls-3" d="M105.42,27.11c-8.38-1.36-20.02-1.07-27.57,3.35-5.47,3.2-6.1,10.62-3.01,15.52-1.74-4.23.67-10.5,4.8-12.61,6.23-3.19,21.15.22,27.46,3.13,1.68.77,4.28,1.99,5.36,3.35-5.71-1.9-11.56-3.94-17.64-4.24-9.3-.46-19.18,1.38-15.4,13.17-2.8-.96-6.52-1.4-8.6,1.12.46-1.13.18-.53,0-1.34-.55-2.42-3.53-5.84-1.56-8.6-.03,1.16.71,2.69,1.79,3.13-.7-16.94,22.15-19.13,34.38-15.96Z"/>
        <path class="cls-1" d="M143.16,92.3c-1.16,3.24-1.8,5.62-2.01,9.38-.2-3.73.84-7.35.45-11.05l-.89-.33c-.07-4.48-1.46-6.67-2.01-10.38-.47-3.19-.13-7.03-.45-10.38,1.51-.48,2.81-1.57,4.35-2.01,1.69-.48,4.05-.31,5.36-.67.67-.18.05-.71.56-.89.89,10.01-2.13,17.29-5.36,26.34Z"/>
        <path class="cls-1" d="M123.06,34.25c3.78.99,8.35,2.39,12.17,1.56-1.72-.39-3.38-.96-5.02-1.56l14.29,2.57-11.83,4.24c5.4,3.44,11.34,6.31,17.53,7.93l.33.56c-1.2,1.77-2.72,3.4-4.69,4.35.5-.4,4.59-3.98,4.13-4.47-11.86-.64-22.5-6.43-32.37-12.5-.54-.33-.93-1.27-2.12-1.12-2.45-1.83-5.27-3.44-8.15-4.47,2.75.35,6.36,1.43,9.15,2.46s6.22,2.55,9.15,3.8c2.03.87,3.89,2.24,6.03,2.9-2.33-2.42-8.66-4.31-10.72-6.47-.78-.82,1.96.18,2.12.22Z"/>
        <path class="cls-23" d="M148.51,65.95c-.51.19.12.71-.56.89-1.31.36-3.67.19-5.36.67-1.54.44-2.84,1.53-4.35,2.01-.36-3.79-.83-7.45-2.46-10.94,2.84-.54,6.17-1.97,8.48-3.57,2.9,2.68,3.9,7.09,4.24,10.94Z"/>
        <path class="cls-3" d="M130.21,34.25c1.64.6,3.31,1.18,5.02,1.56-3.82.83-8.39-.58-12.17-1.56,1.04-.03-.25-1.06-.33-1.12-1.04-.78-2.95-1.91-4.13-2.46,4.04,1.14,7.64,2.12,11.61,3.57Z"/>
        <path class="cls-1" d="M120.61,55.24c5.91.98,10.89,1.06,16.86,0-1.14,1.59-4.84,1.12-6.03,1.56-.33.12-.35.98-1.23,1.34-2.23.92-12.45-.19-15.29-.67-5.39-.91-24.66-8.02-28.13-6.7-.18.07-.87.79-.78,1.12-.27.05-.94.16-1.12.22,1.04-1.89,3.72-5.26,5.92-5.58,3.47-.5,23.41,7.65,29.81,8.71Z"/>
        <path class="cls-3" d="M121.72,41.84c4.45,3.78,10.59,6.71,16.19,8.26-.56.36-1.81.29-2.46.22-5.56-.56-16.41-7.34-20.87-10.94-.2-.16-3.38-2.76-2.34-2.68l9.49,5.13Z"/>
        <path class="cls-1" d="M89.35,38.27c-.91,1.15-2.99,1.45-4.13,2.23-2.72,1.86-4.29,5.53-3.46,8.82l-.89.11c-2.99-5.88,2.9-10.85,8.48-11.16Z"/>
        <path class="cls-1" d="M83.55,52.78c-2.57,1.69-5.04,7.11-5.8,10.05-.14-3.14-.94-4.4,1.79-6.47.58-.42.62-1.08.67-1.12,1.07-.85,2.31-1.54,3.13-2.68.01.01.26-.03.22.22Z"/>
        <path class="cls-23" d="M130.21,58.14c.86-.1-.05.66-.11.67-1.98.29-5-.06-7.14,0-.41.01-1.1-.22-1,.45-6.76-.25-13.5-1.79-19.98-3.57-5.14-1.41-9.54-4.27-15.07-3.8-.29.02-.63-.05-.89,0-.09-.33.6-1.05.78-1.12,3.47-1.32,22.74,5.78,28.13,6.7,2.84.48,13.06,1.59,15.29.67Z"/>
        <path class="cls-7" d="M80.2,55.24c-.05.04-.09.7-.67,1.12-1.08.78-3.37,1.5-4.58,2.46-3.77,2.98-5.08,7.82-6.92,12.06l1.67-11.05-2.34,4.13c1.57-6.07,5.51-13.01,12.84-8.71Z"/>
        <path class="cls-18" d="M67.25,57.92c-.05.18.46.31-.11.67-.39-.33.05-.56.11-.67Z"/>
      </g>
      <g>
        <path class="cls-9" d="M73.94,93.86c.04.35-.44,1.13-.22,1.67l.89,1.9c1.18,9.95,3.02,18.58,9.82,26.23,4.03,4.52,13.93,12.18,20.21,11.27.87-.13,2.54-1.32,2.79-1.34.93-.09,1.86,1.16,2.79,1.34,7,1.34,18.23-8.22,22.21-13.51,4.22-5.61,5.75-11.6,6.92-18.42.69-4.02,1.4-8.67,1.34-12.73l.89.33c.4,3.7-.65,7.32-.45,11.05v.22c-.53,1.79-.54,4.87-.89,6.92-.28,1.62-.38,3.28-.67,4.91-1.97,11.24-5.79,17.95-14.29,25.67-9.21,8.38-20.09,9.49-31.26,4.02-1.08-.96-2.32-2.11-3.35-3.13-8.85-8.69-13.26-14.06-15.63-26.57-.28-1.5-.41-3.15-.67-4.69-.15-.9-.08-2.02-.22-2.9-.6-3.6-.75-7.86-1.79-11.16.74.03-.42-1.12-.45-1.45-.04-.51.67-7.22,1.79-4.91.05.11-.51,1.56-.45,2.46.02.3.64,2.57.67,2.79Z"/>
        <g>
          <path class="cls-11" d="M94.04,143.42c3.38,3.02,8.56,7.44,12.84,8.93,6.17,2.14,11.16.72,16.97,5.13,4.82,3.66,3.03,3.56,1.67,9.04l2.01-.33c-.05.2-.15.37-.22.67-.91,0-1.8.25-2.68.45-10,2.2-21.1,2.79-31.14.45-1.47-.34-3.66-.94-4.8-1.79-.56-2.38-1.17-4.72-1.56-7.14,1.27-1.63,2.04-4.37,2.46-6.36.04-.19.48-2.23-.22-2.12,1.21-1.14.87-8.08,1.34-10.05,1.03,1.01,2.27,2.16,3.35,3.13Z"/>
          <path class="cls-5" d="M126.63,150.12c.47,2.89.45,5.93,2.23,8.48-.43,2.54-.73,5.08-1.34,7.59l-2.01.33c1.35-5.49,3.15-5.38-1.67-9.04-5.81-4.41-10.8-2.99-16.97-5.13-4.28-1.49-9.46-5.91-12.84-8.93,11.16,5.48,22.04,4.36,31.26-4.02.2,3.62.76,7.15,1.34,10.72Z"/>
        </g>
        <path class="cls-8" d="M121.95,59.26c3.75.14,10.24.02,13.84-.67,1.63,3.49,2.09,7.15,2.46,10.94.32,3.35-.03,7.19.45,10.38.55,3.71,1.94,5.9,2.01,10.38.06,4.06-.65,8.7-1.34,12.73-.93-3.18.82-6.97.45-10.38-.17-1.58-2.56-14.7-2.9-15.4-.25-.52-.32-.74-.89-.33-.58-3.25-1.72-11.84-2.68-14.4-.06-.16-.41-.69-.56-.78l-28.58-3.8-17.3-6.03c5.53-.47,9.93,2.38,15.07,3.8,6.48,1.78,13.22,3.33,19.98,3.57Z"/>
        <g>
          <path class="cls-20" d="M71.27,92.52c.3.88.94,1.89,1.12,2.46,1.04,3.3,1.19,7.56,1.79,11.16-1.12-1.77-1.45-4.07-2.46-5.92-.85-1.56-2.97-4.76-5.02-4.13-3.5,1.07,1.77,18.26,7.7,12.95.26,1.54.39,3.19.67,4.69-9.98,3.14-19.45-27.46-3.8-21.21Z"/>
          <path class="cls-11" d="M74.17,106.14c.15.88.07,2.01.22,2.9-5.93,5.31-11.2-11.88-7.7-12.95,2.05-.63,4.18,2.57,5.02,4.13,1.01,1.85,1.34,4.15,2.46,5.92Z"/>
        </g>
        <g>
          <path class="cls-11" d="M139.58,113.73c.29-1.63.39-3.29.67-4.91,2.11,3.45,5.74-1.68,6.7-3.91,1.49-3.47,2.64-13.28-3.13-7.37-.51.52-2.5,3.73-2.68,4.35v-.22c.21-3.75.85-6.13,2.01-9.38,14.98-5.33,5.77,23.5-3.57,21.43Z"/>
          <path class="cls-8" d="M140.25,108.82c.35-2.05.36-5.13.89-6.92.18-.62,2.17-3.83,2.68-4.35,5.76-5.91,4.62,3.9,3.13,7.37-.96,2.22-4.58,7.35-6.7,3.91Z"/>
        </g>
        <path class="cls-24" d="M98.95,116.63l-.33.45c6.66.81,14.4,1.75,21.1.67-.03.17-.15.29-.22.45-8.84,2.68-15.68,2.42-24.34-.45-.49-.16-1.27-.91-1.79-.33,1.19,1.66,2.53,2.98,4.02,4.35,6.8,6.28,14.04,5.86,20.76-.22,1.3-1.17,3.55-3.04,4.24-4.69.09-.21.21-.42.22-.45l.78.45c-2.56,5.3-7.3,12.43-13.73,13.17-1.18.14-3.07.02-4.24-.22-4.2-.87-7.76-5.15-10.27-8.37-1.66-2.13-1.62-4.48-4.47-4.8,1.62-1.62,5.76-.15,8.26,0Z"/>
        <path class="cls-3" d="M103.64,113.51c.72,0,1.66.45,2.01.45-.52,3.37,4.87,3.12,4.24,0,.59.01,1.19-.02,1.79,0,1.06.03,2.32-.26,3.46-.22,1.72.05,9.14.34,10.27.67,1.4.41.16,2.68,0,2.68-.17,0-.17-1.16-2.79-1.12-8.04.13-15.23,1.18-23.67.67-2.5-.15-6.64-1.62-8.26,0-.23-.03-.5.47-.56.45-.24-.1-1.34-2.49-.22-2.9,4.61.22,9.13-.73,13.73-.67Z"/>
        <path class="cls-13" d="M136.46,82.92c-6.27-4.13-15.47-2.41-22.33-.45.45-1.85-.42-3.88,1.9-4.91,2.11-.94,10.34-1.2,12.73-.89,3.77.48,5.66,3.45,7.7,6.25Z"/>
        <path class="cls-11" d="M116.14,110.16c0,3.07-1.72,1.85-3.46,2.23-5.44,1.2-4.91.65-10.05-.22-1.52-.26-2.92,1.33-3.46-1.79,2.26.06,4.56-.07,6.81,0,.37.01,1.21.77,2.46.67.6-.05,1.76-.88,1.9-.89,1.88-.15,3.9.12,5.8,0Z"/>
        <path class="cls-25" d="M111.68,113.95c-.59-.02-1.19.01-1.79,0-1.36-.03-2.86,0-4.24,0-.35,0-1.29-.44-2.01-.45-1.08-1.1-2.7-.34-3.91-.89-1.47-.67-1.66-2.75-.45-3.8.25.53-.22.92-.11,1.56.54,3.12,1.94,1.53,3.46,1.79,5.13.87,4.61,1.42,10.05.22,1.74-.38,3.47.83,3.46-2.23,0-.87-.55-1.64-.56-2.46,1.48,1.57,2.07,4.57-.67,5.13-1.12.23-2.67-.82-3.24,1.12Z"/>
        <path class="cls-1" d="M109.67,130.03c-.31,1.13-.77,3.06-2.23,3.13-.51-.9-1.92-1.99-2.01-3.35,1.17.24,3.07.36,4.24.22Z"/>
        <path class="cls-11" d="M122.62,115.96c-.02.14.04.35,0,.45,0,.02-.13.24-.22.45-.84.54-1.71.74-2.68.89-6.7,1.08-14.44.14-21.1-.67l.33-.45c8.43.51,15.63-.54,23.67-.67Z"/>
        <g>
          <path class="cls-11" d="M139.36,103.01c-1.17,6.82-2.7,12.81-6.92,18.42-3.98,5.29-15.22,14.84-22.21,13.51-.93-.18-1.86-1.43-2.79-1.34-.02-.14.04-.38,0-.45,1.47-.07,1.92-2,2.23-3.13,6.44-.75,11.17-7.87,13.73-13.17l-.78-.45c.04-.09-.02-.31,0-.45,2.62-.04,2.62,1.12,2.79,1.12.16,0,1.4-2.27,0-2.68-1.13-.33-8.55-.62-10.27-.67-1.14-.04-2.4.26-3.46.22.57-1.94,2.12-.89,3.24-1.12,2.74-.57,2.15-3.56.67-5.13,0,.82.56,1.59.56,2.46-1.9.12-3.93-.15-5.8,0,.44-.63,1-1.59,1.12-2.34.58-3.93-.48-9.15,0-13.62.42-3.91,1.75-7.91,2.68-11.72,6.86-1.96,16.06-3.68,22.33.45,1.12-.85-.23-4.81-.45-6.03.57-.41.64-.19.89.33.34.71,2.73,13.82,2.9,15.4.37,3.41-1.38,7.2-.45,10.38Z"/>
          <path class="cls-16" d="M131.32,92.74c2.03-1.82-.66-4.19-2.34-5.36-.07-.05-1.55-1.08-1.23,0-.59-.64-2.46-1.39-3.35-.56,3.47,1.34,2.79,6.73-1,6.36-1.03-.1-3.86-4.45-2.79-.45-.99-.08-.87-1.68-1.12-2.34,5.44,2.24,2.27-7.4-1.12-1.12-.68,1.27-.9,2.98-1.34,4.35-.05-.04-.35.1-.45-.11-.89-8.46,9.89-13.06,14.96-6.25,1.85,2.49,2.1,3.58-.22,5.47Z"/>
          <path class="cls-26" d="M127.75,87.39c2.41,2.61.13,7.35-3.35,7.59-.8.02-1.29-.15-2.01-.22-1.23-.78-1.5-.92-1.79-2.01-1.07-4,1.76.35,2.79.45,3.79.37,4.48-5.02,1-6.36.89-.83,2.76-.08,3.35.56Z"/>
          <path class="cls-12" d="M120.61,92.74c.29,1.09.55,1.23,1.79,2.01-1.21-.12-4.28-.25-5.36-1.12.44-1.38.66-3.08,1.34-4.35,3.38-6.29,6.56,3.36,1.12,1.12.25.67.12,2.26,1.12,2.34Z"/>
          <path class="cls-12" d="M131.32,92.74c-2.19,1.77-4.25,2.18-6.92,2.23,3.48-.24,5.76-4.99,3.35-7.59-.32-1.08,1.16-.05,1.23,0,1.68,1.17,4.38,3.53,2.34,5.36Z"/>
        </g>
        <path class="cls-12" d="M119.49,118.2c-.78,1.54-1.99,2.88-3.35,3.91l2.01-.56c-6.73,6.09-13.96,6.5-20.76.22l2.01.33-4.24-4.35c8.65,2.86,15.49,3.12,24.34.45Z"/>
        <path class="cls-22" d="M118.15,121.54l-2.01.56c1.36-1.03,2.57-2.37,3.35-3.91.08-.15.19-.28.22-.45.97-.16,1.84-.36,2.68-.89-.69,1.65-2.94,3.52-4.24,4.69Z"/>
        <path class="cls-22" d="M95.15,117.75l4.24,4.35-2.01-.33c-1.49-1.38-2.83-2.69-4.02-4.35.52-.58,1.3.17,1.79.33Z"/>
        <path class="cls-1" d="M109.89,113.95c.63,3.12-4.76,3.37-4.24,0,1.38,0,2.88-.03,4.24,0Z"/>
        <g>
          <path class="cls-4" d="M86,51.89c.27-.05.6.02.89,0l17.3,6.03,28.58,3.8c.15.09.5.63.56.78.96,2.56,2.1,11.15,2.68,14.4.22,1.22,1.57,5.18.45,6.03-2.04-2.8-3.93-5.77-7.7-6.25-2.39-.3-10.62-.05-12.73.89-2.31,1.03-1.45,3.06-1.9,4.91-.93,3.81-2.26,7.81-2.68,11.72-.48,4.47.58,9.69,0,13.62-.11.75-.68,1.71-1.12,2.34-.14.01-1.3.84-1.9.89-1.25.11-2.08-.66-2.46-.67-2.25-.07-4.55.06-6.81,0-.11-.64.37-1.03.11-1.56-1.21,1.05-1.02,3.12.45,3.8,1.21.55,2.83-.2,3.91.89-4.6-.06-9.12.89-13.73.67-1.12.42-.02,2.81.22,2.9.06.02.33-.47.56-.45,2.84.32,2.81,2.67,4.47,4.8,2.51,3.23,6.07,7.5,10.27,8.37.09,1.36,1.5,2.44,2.01,3.35.04.06-.02.31,0,.45-.25.02-1.92,1.21-2.79,1.34-6.28.91-16.18-6.75-20.21-11.27-6.81-7.65-8.64-16.28-9.82-26.23-.14-1.17-.37-2.4-.45-3.57-.5-7.5,1.67-9.56,2.46-15.74.66-5.22-.35-9.64,1.12-15.29.76-2.94,3.23-8.36,5.8-10.05.2-.13,1.1-.58,1.34-.67.18-.06.85-.18,1.12-.22Z"/>
          <g>
            <path class="cls-3" d="M74.61,97.43l-.89-1.9c-.21-.55.27-1.32.22-1.67h.22c.08,1.17.31,2.4.45,3.57Z"/>
            <g>
              <path class="cls-13" d="M100.74,82.25c-2.51-.8-5.42-1.34-8.04-1.56-4.77-.41-10.73-.83-14.4,2.68,1.8-3.09,3.99-6.21,7.81-6.7,2.36-.3,10.63-.02,12.73.89,2.63,1.14,1.49,2.83,1.9,4.69Z"/>
              <path class="cls-8" d="M100.74,82.25c.61,2.77,1.76,5.79,2.23,8.48-1.6-.62-3.25-.46-4.47.89-1.33-6.22-5.43-9-11.83-6.92.18-.3.16-.54.45-.78.02-.02-.02.63.45.22v-2.34c2.17-.25,4.31,1.48,5.13-1.12,2.62.22,5.52.77,8.04,1.56Z"/>
              <path class="cls-11" d="M102.97,90.73c.12.66.35,1.34.33,2.01-.41.47-3.89.06-4.58.22.16-.54-.14-.94-.22-1.34,1.22-1.36,2.87-1.51,4.47-.89Z"/>
              <path class="cls-11" d="M87.56,81.8v2.34c-.46.41-.43-.24-.45-.22-.28.25-.27.48-.45.78-.09.03-1.41.78-1.56.89-.29-1.35.99-3.63,2.46-3.8Z"/>
              <g>
                <path class="cls-16" d="M98.5,91.63c.08.4.38.8.22,1.34-.04,0,.29.21-.67.45-.09-1.48-1.12-4.21-2.01-5.36.8-.1-.92-1.54-1-1.56-.17-.05-3.69-.15-3.01.89-.87-.31-2.28-.48-2.9.22-1.34-1.44-2.96-.4-4.13.67s-2.56,2.55-1.67,4.02c-3.23-.87.26-5.61,1.79-6.7.16-.11,1.48-.87,1.56-.89,6.4-2.08,10.51.7,11.83,6.92Z"/>
                <path class="cls-12" d="M89.13,87.61c1.49,1.6-.93,4.8-2.57,2.46-.18.14-.15,1.06-.11,1.34.12.94,1.37,2.72,2.23,3.13-1.22.63-4.81-1.32-5.36-2.23-.88-1.47.53-2.97,1.67-4.02s2.79-2.11,4.13-.67Z"/>
                <path class="cls-26" d="M96.05,88.06c-.17-.21-.78-1.08-1.12-.78,1.73,2.67.89,6.59-2.46,7.48-1.27.34-2.62.33-3.8-.22-.87-.41-2.12-2.19-2.23-3.13,2.63-.92,2.42,2.79,5.58,1.56-.16,3.13,5.3-1.91,1.56-1.79.43-1.36-.08-3.27-1.56-3.8-.67-1.04,2.85-.94,3.01-.89.09.03,1.81,1.46,1,1.56Z"/>
                <path class="cls-12" d="M96.05,88.06c.89,1.15,1.92,3.88,2.01,5.36-1.44.36-3.82,2.21-5.58,1.34,3.34-.89,4.18-4.81,2.46-7.48.34-.3.95.57,1.12.78Z"/>
                <path class="cls-16" d="M92.03,87.39c1.48.53,2,2.43,1.56,3.8-.17.53-1.07,1.59-1.56,1.79-3.16,1.23-2.95-2.48-5.58-1.56-.03-.28-.07-1.2.11-1.34,1.63,2.35,4.06-.85,2.57-2.46.63-.71,2.03-.54,2.9-.22Z"/>
                <path class="cls-15" d="M92.03,92.97c.5-.19,1.39-1.26,1.56-1.79,3.73-.12-1.72,4.92-1.56,1.79Z"/>
              </g>
            </g>
          </g>
        </g>
      </g>
    </g>
  </g>
</svg>