<?xml version="1.0" encoding="UTF-8"?>
<svg id="Layer_1" data-name="Layer 1" xmlns="http://www.w3.org/2000/svg" viewBox="0 0 216.48 284.55">
  <defs>
    <style>
      .cls-1 {
        fill: #1c3957;
      }

      .cls-2 {
        fill: #e18a5c;
      }

      .cls-3 {
        fill: #441d1c;
      }

      .cls-4 {
        fill: #9a5e52;
      }

      .cls-5 {
        fill: #f1b38c;
      }

      .cls-6 {
        fill: #fefeff;
      }

      .cls-7 {
        fill: #ec5d38;
      }

      .cls-8 {
        fill: #121619;
      }

      .cls-9 {
        fill: #280d0d;
      }

      .cls-10 {
        fill: #bbcce2;
      }

      .cls-11 {
        fill: #325575;
      }

      .cls-12 {
        fill: #683531;
      }

      .cls-13 {
        fill: #ececf4;
      }

      .cls-14 {
        fill: #d5dfed;
      }

      .cls-15 {
        fill: #d53a1f;
      }

      .cls-16 {
        fill: #c86536;
      }

      .cls-17 {
        fill: #e37b58;
      }
    </style>
  </defs>
  <g id="Generative_Object" data-name="Generative Object">
    <g>
      <path class="cls-11" d="M72.16,179.9c-3.29,8.42-4.89,17.42-6.6,26.27l10.21,3.83-10.85,6.17c11.63,19.08,24.49,37.39,38.51,54.78h-58.08c-.78-16.31-2.43-32.57-4.79-48.72l-.32,48.72H14.29c.37-15.76.1-32.11,1.91-47.76,2.88-24.83,9.26-26.9,31.17-35,7.44-2.75,18-5.06,24.79-8.3Z"/>
      <path class="cls-11" d="M203.85,270.96h-25.96l-.11-50.63c-.95.39-.19,1.09-.32,2.02-2.24,16.12-4.31,32.3-4.68,48.61h-58.08c14.11-17.31,26.76-35.78,38.51-54.78l-10.85-6.17,10.21-3.83-6.17-26.27c8.8,3.3,17.92,5.81,26.7,9.15,21.89,8.32,26.24,10.91,28.83,35.21,1.64,15.35,1.37,31.26,1.91,46.7Z"/>
      <path class="cls-11" d="M82.37,175.43c0,.28-.01.57,0,.85.97,18.55,10.11,47.7,15.53,66.06.1.33.43,1.6.85,1.6,2,9.09,5.38,18.05,8.08,27.02h-1.7c-13.05-17.18-25.26-35-36.38-53.51.01-.34-.07-.64.11-.96.42-.75,10.26-5.68,11.59-6.91l-12.55-5.11c1.4-7.13,2.45-14.45,4.26-21.49.38-1.47.66-3.08,1.7-4.15,2.26-1.42,8.31-6.54,10.21-8.51-.86,2.45-1.7,2.41-1.7,5.11Z"/>
      <path class="cls-11" d="M146.2,179.9s-.36.4-.85.11l4.89,24.47-12.55,5.11,11.91,7.66c-11.34,18.43-23.46,36.37-36.38,53.72h-1.49l7.87-26.38c3.4-11.6,6.97-23.23,9.79-35,2.32-9.68,4.87-20.67,5.96-30.53.16-1.47.22-2.99.21-4.47.53-1.65-.49-2.73-1.49-4.26l12.13,9.57Z"/>
      <path class="cls-1" d="M73.86,178.83c-1.04,1.07-1.33,2.68-1.7,4.15-1.81,7.04-2.86,14.35-4.26,21.49l12.55,5.11c-1.33,1.23-11.18,6.16-11.59,6.91-.18.32-.1.62-.11.96,11.12,18.5,23.33,36.33,36.38,53.51h-1.7c-14.02-17.39-26.88-35.7-38.51-54.78l10.85-6.17-10.21-3.83c1.7-8.86,3.31-17.86,6.6-26.27.53-.25,1.18-.74,1.7-1.06Z"/>
      <path class="cls-1" d="M146.2,179.9c.07,0,.14,0,.21,0l6.17,26.27-10.21,3.83,10.85,6.17c-11.75,19-24.4,37.47-38.51,54.78h-1.49c12.92-17.35,25.04-35.29,36.38-53.72l-11.91-7.66,12.55-5.11-4.89-24.47c.49.29.81-.11.85-.11Z"/>
      <path class="cls-1" d="M177.9,270.96h-5.11c.37-16.31,2.44-32.49,4.68-48.61.13-.93-.63-1.63.32-2.02l.11,50.63Z"/>
      <path class="cls-1" d="M45.35,270.96h-5.11l.32-48.72c2.36,16.15,4,32.41,4.79,48.72Z"/>
    </g>
    <g>
      <path class="cls-12" d="M130.67,25.87c-.7.45-.86,1.81-.96,1.91-.25.26-5.97.38-7.23.64-3.49.72-7.65,3.3-10.11,5.85-3.15,3.28-6.09,8.73-5.21,13.3.89-6.3,5.35-12.25,11.28-14.68,1.43-.59,7.84-2.1,8.94-1.49.36.2-.63,1.45.53,1.6-5.99,1.44-12.35,3.65-15.74,9.15-2.69,4.36-5,13.28-1.81,17.76-10.39-9.31-8.77-23.25,3.4-30.21,2.56-1.46,5.59-2.05,7.98-3.83h8.94Z"/>
      <path class="cls-12" d="M116.41,25.87l-8.4,3.62c-5.74,3.31-9.39,8.45-10.53,15-.08.44-.11,5.22-.74,4.79-2.27-7.35.69-14.77,6.81-19.15l7.77-4.26h5.11Z"/>
      <path class="cls-12" d="M105.77,25.87l-6.81,5c-2.83,3.5-4.99,7.99-5.32,12.55-.05.72.44,6.72.11,6.7-4.1-7.35-.07-13.3,3.08-19.89l4.68-4.36h4.26Z"/>
      <path class="cls-4" d="M65.35,66.29c.03-.42-.04-.86,0-1.28,2.19.01,5.87-1.87,7.77-1.91,5.95-.14-6.29,5.51-7.77,3.19Z"/>
      <path class="cls-9" d="M153.43,74.59c-1.01,7.52-1.87,15.33-2.98,22.98-.31,2.12-.74,4.26-1.06,6.38-.7,4.65-1.16,9.46-1.91,14.04-.35,2.12-.65,4.27-1.06,6.38-2.49,12.74-8.95,22.09-18.51,30.64-.05.04-.38.17-.43.21,2.44-3.51,6.01-6.27,8.72-9.68,6.23-7.83,8.98-15.81,10.64-25.32-.21-1.23,1.12-7.77.85-8.3-.18-.36-.78.36-1.06-.32.44-3.7.83-8.03.64-11.7.51-1.45.1-2.81,0-4.26-.57-8.47-3.44-17.71-4.89-26.17,1.07.94,9.46-.95,9.15-2.02-2.98-.94-6.54-.69-9.15.96-.16-1.1.02-2.62-.21-3.51-.18-.71-3.6-4.11-4.04-5.21l7.23-3.72c-.88.04-4.35-1.27-4.79-1.17-.36.08-4.26,4.8-4.79,5.53-.55.19-.96.52-1.28.64-1.9.7-3.83,1.26-5.74,1.91.45-1.11,1.91-2.22,2.34-3.3.99-2.46.25-5.8,3.3-7.34,5.12-2.6,13.13,2.86,17.02,6.17,5.43,4.61,2.8,10.4,2.02,16.17Z"/>
      <path class="cls-9" d="M94.28,57.78c-2.8-.34-6.42-.15-9.15.64-2.45-2.55-3.5-8.3-3.19-11.81.33-3.81,3.3-6.53,5.64-9.25-2.82,5.19-2.52,11.34,1.17,16.06,1.48,1.9,3.82,3.32,5.53,4.36Z"/>
      <path class="cls-4" d="M75.78,69.27c-.06.55.02,1.15,0,1.7-7.65,1.75-7.28-2.18,0-1.7Z"/>
      <g>
        <path class="cls-3" d="M101.52,25.87l-4.68,4.36c-3.16,6.59-7.19,12.55-3.08,19.89.34.01-.16-5.98-.11-6.7.33-4.56,2.49-9.05,5.32-12.55l6.81-5h5.53l-7.77,4.26c-6.12,4.37-9.07,11.8-6.81,19.15.63.43.67-4.35.74-4.79,1.14-6.55,4.79-11.69,10.53-15l8.4-3.62h5.32c-2.39,1.78-5.42,2.36-7.98,3.83-12.17,6.96-13.79,20.91-3.4,30.21-3.19-4.49-.89-13.4,1.81-17.76,3.4-5.5,9.76-7.71,15.74-9.15-1.16-.14-.17-1.4-.53-1.6-1.1-.61-7.51.9-8.94,1.49-5.93,2.43-10.39,8.38-11.28,14.68-.87-4.57,2.07-10.02,5.21-13.3,2.45-2.55,6.61-5.13,10.11-5.85,1.26-.26,6.98-.38,7.23-.64.1-.11.25-1.47.96-1.91h.64c7.01,2.14,12.36,4.31,16.38,10.74,2.01,3.21,4.02,8.51,5.96,11.49.52.79,2.27,1.7,2.98,2.55,5.01,6.05,1.57,18.51-3.19,23.93.78-5.77,3.41-11.56-2.02-16.17-3.89-3.31-11.9-8.77-17.02-6.17-3.04,1.54-2.31,4.88-3.3,7.34-.44,1.08-1.89,2.19-2.34,3.3-11.9,4.05-12.25,2.93-23.62-.85-4.57-1.52-6.52-1.63-10.85-4.26-1.71-1.04-4.05-2.46-5.53-4.36-3.69-4.72-3.99-10.87-1.17-16.06-2.33,2.72-5.31,5.45-5.64,9.25-.31,3.51.74,9.26,3.19,11.81-4.03,1.16-6.7,4.78-8.3,8.51-.83.89-.95,1.21-1.06,2.34-7.28-.48-7.65,3.45,0,1.7-.29,6.88-1.26,8.51-2.55,14.79-2.14,10.38-2.77,16.6-1.06,27.23,2.24,13.96,9.32,26.21,19.25,36.06-.72-3.65-1.8-7.44-2.02-11.17-.18-2.92-.86-7.54,2.23-8.83,1.28-.54,7.94-2.04,9.36-2.13,1.63-.11,9.27.27,7.98,3.3-1.01,2.38-8.25,1.96-10.42,2.02-1.26.03-2.57-.09-3.83,0-.66.05-1.35-.03-2.02,0-.89.39-.34,11.92-.11,13.51.62,4.29,1.59,6.68,5.43,8.83,2.32,1.3,5.43,2.4,8.08,1.7s2.82-6.4,1.28-8.3l4.36.11c-.99,2.01-.77,7.68,1.81,8.19,3.33.67,9.26-1.87,11.17-4.57,2.83-4,4.02-15.15,2.02-19.68-1.39.12-2.75.23-4.15.21-.64,0-1.28.02-1.91,0-1.93-.05-9.95.38-10.42-2.23-.51-2.78,6.39-3.18,8.19-3.08,2.02.11,10.52,1.99,11.38,3.72,1.81,3.66-.05,13.28-.96,17.34,10.02-10.75,16-21.67,17.76-36.38.28.68.88-.04,1.06.32.26.53-1.06,7.07-.85,8.3-1.66,9.51-4.4,17.49-10.64,25.32-2.72,3.41-6.29,6.17-8.72,9.68-7.27,6.39-14.21,10.69-24.36,7.66-5.02-1.5-8.68-5.64-12.87-8.51-9.19-9.21-15.04-17.22-17.66-30.21-.45-2.21-.67-4.4-1.06-6.6-.7-3.89-1.24-7.8-1.91-11.7-.45-2.63-1.06-5.24-1.49-7.87-1.79-10.88-3.61-20.52-2.77-31.7,1.48,2.32,13.71-3.33,7.77-3.19-1.9.04-5.58,1.93-7.77,1.91,1.27-13.53,7.33-23.03,19.47-29.15,1.51-.76,4.35-1.24,5.53-1.91,1.03-.59,3.16-3.25,4.47-4.26,1.9-1.46,4.03-2.58,6.06-3.83h.64Z"/>
        <g>
          <path class="cls-9" d="M128.54,42.67c-1.55,1.21-1.89,1.53-2.98,3.19-2.66,4.06-3.16,9.64-1.06,14.15.43.92,1.49.97,1.38,2.02-16.17-10.71,2.18-30.31,17.23-24.25.74.3,5.46,2.99,5.21,3.51-6.19-3.38-14.19-2.99-19.79,1.38Z"/>
          <path class="cls-9" d="M111.84,29.06c.63,0-.12.56-.21.64-4.46,3.82-8.23,5.3-9.25,12.02-1.44,9.41,2.23,17.07,10.32,21.81l-4.26-.85-4.68-2.98c-1.62,1.43-5.31-1.01-6.81-2.13-2.05-1.52-5.07-5.4-5.85-7.77-.12-.37.02-1.55,0-1.91,0-.09-.87-.67,0-1.49,1.05,6.49,5.58,10.79,11.59,12.87l.11-.53c-4.8-4.34-4.46-8.68-2.77-14.47,1.88-6.42,5.83-12.16,11.81-15.21Z"/>
          <path class="cls-9" d="M115.99,51.18c-.3,2.86.23,4.59,1.7,7.02,1.88,3.11,4.78,4.46,8.3,5.21-6.58,2.31-14.64-3.05-14.68-10.42-.03-6.35,4.64-12.3,9.89-15.42.52-.31,2.88-1.63,3.08-.96-4.53,2.32-8.09,6.76-8.72,11.91-.06.45-.27,2.5.43,2.66Z"/>
          <path class="cls-12" d="M146.2,46.29c-7.41-.31-16.16,1.91-19.79,8.94-.93-4.98,3.91-10.71,8.62-11.28,4.05-.49,12.93-.95,16.38,2.34.25.24,1.02.7.43,1.06-1.76-.75-3.74-.98-5.64-1.06Z"/>
          <path class="cls-12" d="M117.69,58.2c-1.47-2.43-2-4.17-1.7-7.02.61-5.87,5.09-11.54,10.32-13.83.46-.2.09-.94.96-.32-8.93,4.56-11.96,15.62-5.74,23.62l-3.83-2.45Z"/>
          <path class="cls-12" d="M146.2,46.29l-.11,2.55c-8.16-1.46-15.46.5-18.93,8.51-.28.01-.68-1.81-.74-2.13,3.63-7.03,12.37-9.24,19.79-8.94Z"/>
          <path class="cls-4" d="M67.8,75.01c.79-.12,7.13-.16,7.13.74-.95,1.89-8.6,1.95-9.25,1.17-1-1.19,1.31-1.79,2.13-1.91Z"/>
          <path class="cls-12" d="M125.56,45.86c1.09-1.66,1.43-1.98,2.98-3.19.19.64.61.2.96,0,3.2-1.79,6.12-3.31,9.89-1.81-5.16.21-10.05,1.9-13.51,5.85l-.32-.85Z"/>
          <path class="cls-4" d="M67.37,72.67c.75-.12,5.14-.16,5.21.53-.49,1.87-6.75,1.18-7.02.64-.32-.65,1.37-1.1,1.81-1.17Z"/>
          <path class="cls-3" d="M143.54,41.4c.11,0,1.69.94,1.91,1.06.08.04,1.36-.04,1.38.74l-4.15-1.38c-.13-.15.8-.43.85-.43Z"/>
          <path class="cls-4" d="M71.84,67.35l3.72.11c-1.09.54-2.74.48-3.72-.11Z"/>
        </g>
      </g>
      <path class="cls-3" d="M138.11,59.69l-.53-.21c-.54.4-1.19.63-1.81.85.52-.74,4.43-5.45,4.79-5.53.43-.1,3.91,1.21,4.79,1.17l-7.23,3.72Z"/>
      <path class="cls-4" d="M142.37,69.48c-.13-.73.02-.94,0-1.06,2.61-1.65,6.17-1.9,9.15-.96.31,1.07-8.08,2.96-9.15,2.02Z"/>
    </g>
    <g>
      <g>
        <g>
          <path class="cls-13" d="M134.07,170.32c1,1.53,2.02,2.6,1.49,4.26-.49,1.53-2.53,4.68-3.4,6.38l-12.23,16.59c-.38,0-2.54-4.83-2.87-5.53-.95-2.01-3.82-9.91-5.85-10.42-.44-.11-3.19.04-3.62.21-1.5.61-5.49,8.99-6.49,10.85-.31.59-2.58,5.15-2.87,5.11-4.71-5.93-9.02-12.13-13.08-18.51-.82-1.28-1.46-2.94-2.77-3.83,0-2.7.84-2.66,1.7-5.11,1.02-1.06,3.81-5.64,4.15-5.74.67-.21,1.33,1.39,2.02,2.13,3.27,3.49,14.07,12.92,18.62,13.4,2.15.23,10.38-5.21,12.34-6.81,2.98-2.42,5.11-4.85,7.13-8.08.27-.43.36-.93.74-1.28,1.47,2.23,3.55,4.18,5,6.38Z"/>
          <g>
            <path class="cls-14" d="M85.14,179.26l13.51,23.62,4.79-7.23c2.47,4.45.92,4.26.21,8.62-1.49,9.17-2.93,18.3-3.83,27.55-2.42,1.75-2.95-1.99-3.62-3.94-5.51-16.1-8.99-33.85-12.98-50.42-.1-.41-.24-1.25-.85-1.17-.01-.28,0-.57,0-.85,1.31.89,1.95,2.55,2.77,3.83Z"/>
            <path class="cls-10" d="M99.82,231.81c-.39,4.03-.98,8.06-1.06,12.13-.42,0-.75-1.27-.85-1.6-5.42-18.36-14.56-47.51-15.53-66.06.61-.08.75.76.85,1.17,3.99,16.57,7.47,34.32,12.98,50.42.66,1.94,1.2,5.69,3.62,3.94Z"/>
            <path class="cls-14" d="M135.35,179.05l-.64-.53c-3.95,18.12-8.7,36.12-14.25,53.83l-4.89-24.15c-.32-2.24-1.71-6.7-1.7-8.62,0-1.25,1-2.79,1.49-3.94l4.15,6.81c4.45-7.03,8.85-14.09,12.66-21.49.87-1.7,2.91-4.86,3.4-6.38,0,1.48-.05,3-.21,4.47Z"/>
            <path class="cls-10" d="M135.35,179.05c-1.09,9.86-3.64,20.85-5.96,30.53-2.82,11.76-6.39,23.4-9.79,35-.73-12.2-2.3-24.3-4.04-36.38l4.89,24.15c5.55-17.7,10.3-35.71,14.25-53.83l.64.53Z"/>
            <path class="cls-10" d="M101.09,192.66c.85.7,1.55,1.63,2.13,2.55.08.12.14.3.21.43l-4.79,7.23-13.51-23.62c4.07,6.38,8.38,12.58,13.08,18.51.29.05,2.56-4.52,2.87-5.11Z"/>
            <path class="cls-10" d="M115.35,195.64c.15-.34.27-.95.43-1.28.38-.81.91-1.53,1.28-2.34.33.7,2.49,5.53,2.87,5.53l12.23-16.59c-3.8,7.4-8.21,14.45-12.66,21.49l-4.15-6.81Z"/>
          </g>
        </g>
        <g>
          <path class="cls-15" d="M117.05,192.02c-.37.81-.9,1.53-1.28,2.34l-6.28-10.85-6.28,11.7c-.58-.93-1.28-1.85-2.13-2.55,1-1.86,4.99-10.24,6.49-10.85.43-.17,3.17-.32,3.62-.21,2.03.51,4.9,8.41,5.85,10.42Z"/>
          <g>
            <path class="cls-7" d="M115.77,194.36c-.15.33-.28.93-.43,1.28-.49,1.15-1.48,2.69-1.49,3.94-.01,1.92,1.38,6.38,1.7,8.62,1.75,12.08,3.32,24.18,4.04,36.38l-7.87,26.38h-4.89c-2.7-8.97-6.08-17.93-8.08-27.02.08-4.06.67-8.09,1.06-12.13.9-9.25,2.34-18.38,3.83-27.55.71-4.35,2.26-4.17-.21-8.62-.07-.13-.14-.3-.21-.43l6.28-11.7,6.28,10.85Z"/>
            <path class="cls-15" d="M104.82,213.09c.06-.05.63-.04.74.11l-.96,18.83c-.81-2.05-.54-18.35.21-18.93Z"/>
          </g>
        </g>
      </g>
      <g>
        <path class="cls-2" d="M128.11,163.94c0,.36-.16,1.1.21,1.28-2.02,3.23-4.15,5.67-7.13,8.08-1.96,1.59-10.19,7.04-12.34,6.81-4.55-.48-15.35-9.91-18.62-13.4-.62-2.5.02-5.36,0-8.08,2.55.88,4.87,3.13,7.34,4.47,5.84,3.16,14.13,6.04,21.06,4.89,3.39-.56,6.38-2.69,9.47-4.04Z"/>
        <path class="cls-16" d="M127.47,155.22s.38-.17.43-.21c-.08,2.99.2,5.95.21,8.94-3.09,1.35-6.07,3.48-9.47,4.04-6.93,1.14-15.22-1.73-21.06-4.89-2.47-1.33-4.79-3.59-7.34-4.47,0-1.42,0-2.84,0-4.26,4.19,2.87,7.86,7.01,12.87,8.51,10.15,3.04,17.09-1.27,24.36-7.66Z"/>
        <path class="cls-2" d="M94.71,132.24c2.09,2.89,3.37,6.32,5.74,9.04,8.25,9.44,18.48,3.28,21.91-6.7.36-.5.72-1.08,1.06-1.6-.14-.25-1.3.21-1.49.32l.64-1.06c1.4.02,2.76-.09,4.15-.21,2,4.53.81,15.67-2.02,19.68-1.91,2.71-7.84,5.24-11.17,4.57-2.58-.52-2.79-6.18-1.81-8.19l-4.36-.11c1.54,1.9,1.34,7.61-1.28,8.3s-5.76-.41-8.08-1.7c-3.84-2.15-4.81-4.53-5.43-8.83-.23-1.59-.79-13.12.11-13.51.67-.03,1.36.05,2.02,0Z"/>
        <g>
          <path class="cls-2" d="M68.12,97.99c.43,2.63,1.04,5.24,1.49,7.87-.67-.05-.34-.89-.74-1.49-.2-.3-2.8-2.29-3.19-2.34-4.61-.56-.75,8.5.11,10.53.8,1.91,3.62,9.26,5.74,5,.39,2.2.62,4.39,1.06,6.6-4.74,1.95-8.96-5.4-10.42-9.04-2.4-5.94-5.56-22.05,5.96-17.13Z"/>
          <path class="cls-16" d="M69.61,105.86c.67,3.9,1.22,7.82,1.91,11.7-2.12,4.26-4.94-3.09-5.74-5-.85-2.03-4.71-11.09-.11-10.53.39.05,2.99,2.04,3.19,2.34.4.59.08,1.44.74,1.49Z"/>
        </g>
        <path class="cls-2" d="M94.28,57.78c4.33,2.62,6.28,2.73,10.85,4.26-.11.52-.86.27-1.17.21-9.57-1.84-19.54-3.47-27.13,4.68,1.6-3.73,4.27-7.35,8.3-8.51,2.73-.79,6.34-.98,9.15-.64Z"/>
        <path class="cls-2" d="M138.11,59.69c.44,1.1,3.86,4.51,4.04,5.21.23.89.05,2.41.21,3.51.02.13-.13.33,0,1.06,1.45,8.46,4.33,17.7,4.89,26.17-.76-.53-1.71-.58-2.55-.85-1.36-3.91-4.42-7.65-5.53-11.59-2.03-7.18-.31-15.91-4.68-22.23.32-.12.73-.44,1.28-.64.62-.22,1.27-.45,1.81-.85l.53.21Z"/>
        <g>
          <path class="cls-2" d="M146.41,124.37c.41-2.11.72-4.26,1.06-6.38.52.31,1.2.59,1.81.43,1.89-.52,6.44-13.18,5.43-15.42-1.15-2.54-3.89.45-5.32.96.32-2.12.75-4.26,1.06-6.38,1.86-1.14,5.12-.91,6.6,1.17,3.48,4.9-.56,17.18-3.83,21.7-1.41,1.95-4.23,4.87-6.81,3.94Z"/>
          <path class="cls-16" d="M147.47,117.99c.75-4.58,1.22-9.39,1.91-14.04,1.43-.51,4.17-3.5,5.32-.96,1.02,2.25-3.54,14.9-5.43,15.42-.61.17-1.29-.12-1.81-.43Z"/>
        </g>
        <path class="cls-8" d="M99.18,113.52l.85.32c-.21.66-3.23,1.14-3.62,2.02-.07.01-.14-.01-.21,0-1.95-.38-3.92.35-5.85.43-2.99.11-8.29,0-10.85-1.49-.49-.28-1.37-1.39-1.7-1.91l-.96-.21c-.11-.18-.3-.38-.43-.64.69.06.34-.4.21-.74-.58-1.51-1.72-5.44-.43-6.49.32,2.9,1.47,8.32,4.36,9.57,3.53,1.53,15.13.9,18.62-.85Z"/>
        <g>
          <path class="cls-2" d="M105.13,62.03c11.36,3.78,11.72,4.91,23.62.85,1.91-.65,3.84-1.22,5.74-1.91,4.37,6.32,2.65,15.05,4.68,22.23,1.11,3.94,4.17,7.69,5.53,11.59-3.78-1.23-8.67-3.01-12.66-3.19-7.15-.33-13.57,3.66-21.06,3.83-9.28.21-16.58-4.57-25.32-3.62-1.89.21-13.07,3.04-13.72,4.36-1.32,2.67.89,3.6,1.28,4.68,1.27,3.53,1.34,7.51,3.19,11.17.13.26.32.46.43.64,3.39,5.64,13.7,4.37,19.36,3.19.07-.01.15.01.21,0,5.39-1.18,6.65-2.85,8.51-7.98.52-1.44.84-4.88,1.49-5.96,1.16-1.91,6.07-1.71,7.02.21,1.52,3.07,1.01,7.72,4.04,11.06,3.32,3.67,16.13,4.18,20.74,3.08,6.5-1.55,6.59-9.97,7.98-15.21.04-.16.95-.84,1.06-1.17.2,3.67-.19,8-.64,11.7-1.77,14.71-7.74,25.63-17.76,36.38.91-4.06,2.77-13.68.96-17.34-.86-1.73-9.37-3.61-11.38-3.72-1.8-.1-8.7.3-8.19,3.08.48,2.61,8.49,2.19,10.42,2.23h-22.13c2.18-.06,9.41.35,10.42-2.02,1.29-3.03-6.35-3.4-7.98-3.3-1.42.09-8.08,1.59-9.36,2.13-3.09,1.29-2.41,5.91-2.23,8.83.22,3.73,1.3,7.52,2.02,11.17-9.94-9.85-17.02-22.11-19.25-36.06-1.7-10.63-1.07-16.85,1.06-27.23,1.29-6.27,2.26-7.91,2.55-14.79.02-.56-.06-1.16,0-1.7.12-1.13.23-1.45,1.06-2.34,7.58-8.15,17.56-6.52,27.13-4.68.31.06,1.06.31,1.17-.21Z"/>
          <g>
            <path class="cls-3" d="M126.94,84.8c6.05-.37,10.28,1.17,13.94,6.06-7.18-4.51-15.02-2.07-22.87-1.38-1.35-3.7,6.51-4.53,8.94-4.68Z"/>
            <path class="cls-3" d="M87.58,84.8c2.25-.22,11.57.58,12.87,2.23.25.32.88,2,.64,2.34-7.85-.35-15.45-3.19-22.66,1.38,1.86-3.05,5.56-5.6,9.15-5.96Z"/>
            <path class="cls-5" d="M110.13,105.43c1.06,2.85,1.97,16.38.53,18.19-.39.5-.95.72-1.6.53-1.73-.51-.2-4.66-.11-5.85.35-4.29.3-8.64,1.17-12.87Z"/>
            <path class="cls-16" d="M114.82,123.94c.34.05.49.11.21.43-3.23,3.17-7.34,3.08-10.53-.11,1.74.09,3.67.79,5.43.74.98-.02,4.52-1.11,4.89-1.06Z"/>
            <path class="cls-8" d="M96.2,115.86c-5.67,1.18-15.97,2.45-19.36-3.19l.96.21c.33.53,1.22,1.63,1.7,1.91,2.56,1.49,7.86,1.6,10.85,1.49,1.93-.07,3.9-.8,5.85-.43Z"/>
          </g>
        </g>
        <g>
          <path class="cls-17" d="M98.54,132.24h22.13c.64.02,1.28,0,1.91,0l-.64,1.06s-.17.47-.43.43c-7.95,1.75-16.1,1.67-24.04,0-.36-.25-1.57-1.25-1.91-.74,1.35,2.13,3.02,3.69,4.89,5,3.28,2.3,6.08,3.44,10.32,3.19,1.4-.08,7.94-1.76,7.98-3.4,1.11-.24,2.92-2.24,3.62-3.19-3.43,9.98-13.66,16.14-21.91,6.7-2.38-2.72-3.66-6.15-5.74-9.04,1.26-.09,2.57.03,3.83,0Z"/>
          <path class="cls-3" d="M122.37,134.58c-.69.95-2.51,2.95-3.62,3.19,0-.37-.3-.78-.64-.85l3.4-3.19c.26.04.4-.41.43-.43.19-.1,1.34-.57,1.49-.32-.35.52-.7,1.1-1.06,1.6Z"/>
          <path class="cls-13" d="M121.52,133.73l-3.4,3.19c-.52-.11-4.58.99-5.64,1.06-4.05.27-7.82,0-11.38-1.7-1.93-.92-2.12-1.52-3.62-2.55,7.94,1.67,16.09,1.75,24.04,0Z"/>
          <path class="cls-6" d="M118.11,136.92c.33.07.65.48.64.85-.04,1.64-6.58,3.32-7.98,3.4-4.24.24-7.03-.89-10.32-3.19l.64-1.7c3.56,1.7,7.34,1.98,11.38,1.7,1.06-.07,5.12-1.17,5.64-1.06Z"/>
          <path class="cls-9" d="M97.48,133.73c1.49,1.03,1.68,1.63,3.62,2.55l-.64,1.7c-1.87-1.31-3.54-2.87-4.89-5,.34-.5,1.56.5,1.91.74Z"/>
        </g>
        <g>
          <path class="cls-8" d="M144.71,94.8c.84.27,1.79.32,2.55.85.1,1.44.51,2.8,0,4.26-.11.33-1.02,1.01-1.06,1.17-1.39,5.25-1.48,13.66-7.98,15.21-4.61,1.1-17.42.58-20.74-3.08-3.03-3.35-2.52-7.99-4.04-11.06-.95-1.92-5.87-2.12-7.02-.21-.65,1.08-.97,4.52-1.49,5.96-1.86,5.13-3.12,6.8-8.51,7.98.39-.88,3.41-1.36,3.62-2.02l-.85-.32c3.56-1.79,5.81-10.87,4.26-14.15-2.34-4.94-26-7.51-27.44,1.06-.22,1.34.06,3.02.21,4.36-1.3,1.05-.15,4.98.43,6.49.13.35.48.8-.21.74-1.85-3.66-1.92-7.64-3.19-11.17-.39-1.08-2.59-2.01-1.28-4.68.65-1.32,11.83-4.15,13.72-4.36,8.74-.96,16.04,3.83,25.32,3.62,7.49-.17,13.92-4.16,21.06-3.83,3.98.18,8.88,1.96,12.66,3.19Z"/>
          <g>
            <path class="cls-2" d="M128.43,94.8c8.76-.64,16.69.68,15,11.17-.96,5.93-2.33,8.71-8.62,9.25-10.02.88-19.2-.7-19.25-12.66-.03-6.03,8.07-7.41,12.87-7.77Z"/>
            <path class="cls-9" d="M134.49,102.46c.56-2.08-5.02-5.59-6.17-3.72-.66,1.08.8,2.07,1.91,1.38.02.23,1.02,1.48.85,2.23-.33,1.49-1.98.1-2.45.11-3.01.02-4.15,1.32-5.85-2.55l-.53-.21c-1.44,1.13-2.58,2.54-3.3,4.26-.24-6.8,8.92-10.13,14.15-6.17,1.98,1.5,2.77,2.63,1.38,4.68Z"/>
            <path class="cls-3" d="M129.18,106.29c-1.48.74-2.71.32-4.26.21-2.47-.99-3.59-4.35-2.13-6.6,1.7,3.87,2.84,2.57,5.85,2.55.47,0,2.12,1.38,2.45-.11.17-.76-.84-2.01-.85-2.23,0-.14.39-.58.21-.96,1.72,1.56.8,6.09-1.28,7.13Z"/>
            <path class="cls-6" d="M134.49,102.46c-1.07,1.59-3.38,3.47-5.32,3.83,2.07-1.04,2.99-5.57,1.28-7.13.17.37-.22.82-.21.96-1.11.69-2.58-.3-1.91-1.38,1.15-1.86,6.73,1.64,6.17,3.72Z"/>
            <path class="cls-6" d="M122.79,99.9c-1.46,2.25-.34,5.6,2.13,6.6-1.28-.09-5.54-.61-6.17-1.81-.08-.16.23-.37.21-.74.72-1.71,1.86-3.13,3.3-4.26l.53.21Z"/>
          </g>
        </g>
        <g>
          <path class="cls-2" d="M99.18,113.52c-3.48,1.75-15.09,2.38-18.62.85-2.89-1.26-4.04-6.67-4.36-9.57-.15-1.34-.44-3.02-.21-4.36,1.44-8.58,25.11-6,27.44-1.06,1.55,3.28-.69,12.35-4.26,14.15Z"/>
          <path class="cls-9" d="M100.24,103.95c-.26-1.44-2.21-3.73-3.62-4.26-.09-.31.32-.57.11-.64-1.29-.05-.5,1.09-.53,1.17-2.12,4.39-4.51,1.49-8.08,2.87-.23-1.29-.22-2.26.21-3.51,3.7,3.01,3.77-3.06-.53-.96-1.09.53-2.41,2.31-3.3,3.19-.02-.04-.54.01-.64-.53-.25-1.34,2.18-3.56,3.3-4.15,5.59-2.95,12.86.22,13.08,6.81Z"/>
          <path class="cls-3" d="M96.62,99.69c.75,2.69.65,5.4-2.13,6.81-1.81.13-3.02.63-4.68-.43-1.06-.67-1.49-1.81-1.7-2.98,3.57-1.38,5.96,1.52,8.08-2.87.04-.08-.76-1.22.53-1.17.22.07-.19.32-.11.64Z"/>
          <path class="cls-6" d="M88.11,103.09c.21,1.16.64,2.31,1.7,2.98-2.22-.16-4.32-2.42-5.32-4.26.89-.88,2.21-2.66,3.3-3.19,4.3-2.1,4.23,3.96.53.96-.44,1.25-.44,2.22-.21,3.51Z"/>
          <path class="cls-6" d="M100.24,103.95c.37,2.06-4.11,2.43-5.74,2.55,2.78-1.4,2.88-4.12,2.13-6.81,1.4.52,3.36,2.82,3.62,4.26Z"/>
        </g>
      </g>
    </g>
  </g>
</svg>