<?xml version="1.0" encoding="UTF-8"?>
<svg id="Layer_1" xmlns="http://www.w3.org/2000/svg" version="1.1" viewBox="0 0 300 300">
  <!-- Generator: Adobe Illustrator 29.6.0, SVG Export Plug-In . SVG Version: 2.1.1 Build 207)  -->
  <defs>
    <style>
      .st0 {
        fill: #fcba82;
      }

      .st1 {
        fill: #27314c;
      }

      .st2 {
        fill: #f58e7a;
      }

      .st3 {
        fill: #565f79;
      }

      .st4 {
        fill: #cf5535;
      }

      .st5 {
        fill: #fff;
      }

      .st6 {
        fill: #df925e;
      }

      .st7 {
        fill: #f3744b;
      }

      .st8 {
        fill: #d05e58;
      }

      .st9 {
        fill: #1d2129;
      }
    </style>
  </defs>
  <g id="Generative_Object">
    <g>
      <path class="st7" d="M110.6,196.6c8.3,11.8,15.7,18.1,30.8,20.1s35.9-3.1,47.7-20.1c18.6,6.2,28.1,7.5,34.3,28.1s4.2,22.2,4.7,33.5c-6.7.6-13.4.3-20.1.3l-5.6-29.5-4.2,29.5c-32.2,0-64.4,0-96.7,0l-4.6-29.5-5.4,29.5c-6.7,0-13.4,0-20.1,0,.8-14.3,2.1-32.2,9.3-44.9s18.8-12.5,29.5-17c0,0,.4.2.4.2Z"/>
      <path class="st4" d="M101.6,258.4c-3.3,0-6.7,0-10,0l5.4-29.5,4.6,29.5Z"/>
      <path class="st4" d="M208.1,258.4c-3.3,0-6.6,0-9.8,0l4.2-29.5,5.6,29.5Z"/>
      <path class="st4" d="M116.1,194.8c0,0,.1,0,.2,0,12.7,22.6,54.1,22.6,66.9,0,1.8.6,3.7,1,5.5,1.6s.2.1.4.2c-11.9,17-26.7,22.8-47.7,20.1s-22.5-8.2-30.8-20.1c1.8-.8,3.7-1.2,5.5-1.8Z"/>
    </g>
    <g>
      <path class="st9" d="M188.8,196.4c-1.8-.6-3.7-1-5.5-1.6-3.2-1.1-13.5-3.7-15.6-5.1-3.5-2.3-3.4-7.8-3.4-11.4s0-4.1,0-6.1c7.5-3.6,15.2-11.3,19.7-18.2s2.1-4.5,3.1-5.8.5-.7.8-.5c0,15.7-.1,31.6-3.1,47l4.1,1.7Z"/>
      <path class="st9" d="M114.4,151.7c4.5,8,12.8,16.5,21.1,20.5,0,2,0,3.9,0,5.9,0,3.7.1,8.9-3.2,11.4s-12.8,4.4-15.8,5.3-.1,0-.2,0c-1.9.4-1.9-2.9-2.2-4.4-2.3-13.8-1.8-28.4-2.4-42.3.5-1.1,1.9,4.2,2.8,3.6Z"/>
      <g>
        <path class="st1" d="M189.2,196.6c-.2,0-.2-.1-.4-.2l-4.1-1.7c3-15.4,3.1-31.3,3.1-47-.3-.2-.7.4-.8.5l2.6-6.9c2,2.6,6.1.5,5.7-2.6,7.7-3.7,11.3-26.7-1.9-22.4-7.2,2.3-1.9,14.6-11.7,18.5-3.8,1.5-8.6,1.5-12.6,1.4-7.8-.2-9.9,0-13.4-7.2-1.6-3.4-1.9-9.3-6.8-8.6-3,.4-4.1,6.8-5.4,9.4-3.3,6.5-5.9,6.2-12.8,6.4-3.7,0-9.8.1-13.2-1.4-9.4-4.2-4-17.7-12.7-18.9s-7.8,19.3-.5,22.8c-.4,3.1,3.5,5.1,5.5,2.6,1.1,3.7,2.7,7.1,4.5,10.4-.9.6-2.3-4.8-2.8-3.6.5,13.9,0,28.5,2.4,42.3.3,1.5.3,4.8,2.2,4.4-1.8.6-3.8,1-5.5,1.8,0,0-.4-.2-.4-.2-20.6-29.7-24-79.7-8.7-112.3,20.4-43.3,81.6-40.9,98.4,4.3,12.4,33.4,9.8,78.7-10.8,108.2Z"/>
        <path class="st3" d="M153.6,65.3c-6.1,10.5-19.6,11.6-28.5,18.7s-6.2,6.6-9,10.1c4.3-18.9,25.2-18.3,37.5-28.8Z"/>
        <path class="st3" d="M141.2,64.3c.1,0,.4,0,.5,0-6.7,5.2-15,7.8-21.4,13.5s-8.2,10-11.5,15.5c2.3-11.9,10.2-19.5,20.8-24.5s10-4.4,11.6-4.5Z"/>
        <path class="st3" d="M158.2,69c-2,11.8-16.9,14.1-26,18.5s-5.1,3-7.6,4.6c9.3-10.1,25.2-11.9,33.6-23.1Z"/>
        <path class="st3" d="M182,75.9c2.1.9,4.9,3.3,5.8,5.4s1.6,4.9,0,5.4c-3.2,1.1-9.2-8.2-11.9-9.7l11.5,8c0-3.8-3.3-6.3-5.5-9.1Z"/>
        <g>
          <path class="st0" d="M163.9,77.3c6.8,13.1,17.8,23.2,25,36-8.3-.3-15.8-.9-24,.2s-8.8,2.2-12.6,2.6c-6.8.6-15.3-2.6-22.4-3.1s-12.7.5-19.2.3c11.8-19.5,44.4-13.2,53.2-35.9Z"/>
          <path class="st1" d="M124.3,107c2.5-.3,12.8.7,13.9,3.1s0,2.3-.5,2.5-9.8-2.2-11.8-2.4-5.8.4-8.4.3c1.9-1.7,4.1-3.1,6.8-3.4Z"/>
          <path class="st1" d="M170.4,107c4.4-.3,8.3.2,11.5,3.4-2.8,0-5.5-.5-8.4-.3s-11.1,2.5-11.6,2.4-.8-1.8-.7-2.3c.5-1.7,7.5-3.1,9.2-3.2Z"/>
        </g>
        <g>
          <path class="st0" d="M171,115.3c2.8-.2,13.8-.4,15.3,2.1s-.5,10.2-1.8,12.4c-3.1,5.2-11.3,5.1-16.6,4.8s-6.9-.3-9.2-3.8-4.8-11.2-1.5-13.1,11.5-2.2,13.8-2.4Z"/>
          <path class="st9" d="M177.2,122.3l-4.8-2.4c-.1,1,.5,1.8.3,3.1s-1.4,2.7-2.8,3.1-1.4.3-2.4,0c-2.8-.7-3.5-3.6-2.5-6.1-1.5,1-2.3,2.4-3.1,3.9,1-5.4,4.7-7.8,10.1-6.5s6.1,3.9,9.1,1.4c-.5,1.9-2.8,2.6-4,3.5Z"/>
          <path class="st5" d="M177.2,122.3c-2.2,1.7-4,4.2-7.3,3.7,1.3-.4,2.6-1.7,2.8-3.1s-.4-2-.3-3.1l4.8,2.4Z"/>
          <path class="st5" d="M167.5,126.1l-5.8-.2c-.3-.2.2-1.6.3-2,.8-1.6,1.6-3,3.1-3.9-1.1,2.5-.4,5.4,2.5,6.1Z"/>
        </g>
        <g>
          <path class="st0" d="M123.3,115.1c3.2,0,16.6,1.2,19.1,2.6s.2,10.2-1.3,12.7-3.4,3.6-6.6,4c-5.4.7-15.5.8-19-4s-3.5-10.7-2.2-13,8-2.2,9.9-2.3Z"/>
          <path class="st9" d="M137.4,123.7c-.6-1.6-1.5-2.8-2.9-3.7,1,2.3.3,5.3-2.3,6.1s-1.6.3-2.6,0c-2.8-.8-3.1-3.6-2.5-6.1l-4.8,2.4c-1.2-.9-3.6-1.5-4-3.5,3.1,2.7,6.5-1,9.6-1.6,5.1-.9,8.6,1.5,9.4,6.5Z"/>
          <path class="st5" d="M129.7,126.1c-3.3.4-5.1-2.1-7.3-3.7l4.8-2.4c-.6,2.5-.4,5.3,2.5,6.1Z"/>
          <path class="st5" d="M137.4,123.7c.1.3.8,2,.5,2.2l-5.6.2c2.6-.8,3.3-3.8,2.3-6.1,1.4,1,2.3,2.1,2.9,3.7Z"/>
        </g>
      </g>
      <g>
        <path class="st2" d="M130.7,136.1c.4,6.4-14,6-14,.7s1-1.5.8-2.1c3.4,1.5,9.5,1.5,13.2,1.4Z"/>
        <path class="st2" d="M169.1,136.1c4,0,8.8.1,12.6-1.4,3.7,4.9-3.7,6.5-7.4,6.1s-5-1.6-5.4-3.6,1-.4.2-1.1Z"/>
        <path class="st5" d="M193.7,136.3c.3.1,1.5,2,1.6,2.4.4,3.1-3.7,5.1-5.7,2.6s-.7-4.6,1.4-5.1,2.3,0,2.8.2Z"/>
        <path class="st5" d="M108.7,136.3c2.1.7,2.5,3.2,1.2,4.9-2.1,2.6-5.9.6-5.5-2.6s1.1-2.1,2-2.4,1.5-.3,2.4,0Z"/>
        <path class="st0" d="M164.2,178.3c0,3.7,0,9.1,3.4,11.4s12.4,4.1,15.6,5.1c-12.8,22.6-54.2,22.6-66.9,0,3-.9,14-3.9,15.8-5.3,3.4-2.5,3.2-7.7,3.2-11.4,8.9,6,19.7,5.8,28.7.2Z"/>
        <path class="st6" d="M164.2,172.2c0,2,0,4.1,0,6.1-9,5.6-19.9,5.8-28.7-.2,0-2,0-3.9,0-5.9,9.3,4.4,19.5,4.4,28.7,0Z"/>
        <path class="st6" d="M193.7,136.3c-.4-.2-2.3-.3-2.8-.2l1.2-14.5c9.6-4.1,7.1,11.6,1.6,14.7Z"/>
        <path class="st6" d="M108.7,136.3c-.9-.3-1.5-.3-2.4,0-6.1-2.3-8.5-18.9,1.2-14.7l1.2,14.7Z"/>
        <g>
          <path class="st0" d="M117.5,134.8c.2.6-.8,1.6-.8,2.1,0,5.3,14.3,5.7,14-.7,6.9-.2,9.5.1,12.8-6.4s2.4-8.9,5.4-9.4c4.9-.7,5.2,5.2,6.8,8.6,3.4,7.3,5.6,7,13.4,7.2.8.6-.4,0-.2,1.1.4,2,3.6,3.5,5.4,3.6,3.7.4,11.1-1.2,7.4-6.1,9.8-4,4.5-16.2,11.7-18.5,13.1-4.2,9.6,18.7,1.9,22.4,0-.4-1.3-2.2-1.6-2.4,5.6-3,8-18.8-1.6-14.7l-1.2,14.5c-2.1.5-2.7,3.5-1.4,5.1l-2.6,6.9c-1.1,1.3-2.1,4.2-3.1,5.8-4.5,6.9-12.2,14.7-19.7,18.2s-19.5,4.4-28.7,0-16.6-12.5-21.1-20.5-3.4-6.8-4.5-10.4c1.3-1.7.9-4.2-1.2-4.9l-1.2-14.7c-9.7-4.3-7.3,12.3-1.2,14.7-.9.3-1.9,1.5-2,2.4-7.3-3.6-11.7-24.4.5-22.8s3.3,14.7,12.7,18.9Z"/>
          <path class="st6" d="M148.5,137.5c2.5-.1,10.8.2,6.1,3.9s-5.7,2.2-8.7.6c-5.2-2.9-1.2-4.3,2.6-4.5Z"/>
          <g>
            <path class="st8" d="M135.7,149.1h28.1c1.2.6-2,4.7-2.7,5.4-6,6.6-14.9,7.3-21.6,1.3s-5.4-5.9-3.9-6.7Z"/>
            <path class="st5" d="M162.9,149.9c-4.9,5.6-13,7.3-20.1,4.5s-4.1-2.7-6.2-3.8l.5-.5c8,2.9,17.9,3,25.8-.2Z"/>
          </g>
        </g>
      </g>
    </g>
  </g>
</svg>