<?xml version="1.0" encoding="UTF-8"?>
<svg id="Layer_1" xmlns="http://www.w3.org/2000/svg" version="1.1" viewBox="0 0 300 300">
  <!-- Generator: Adobe Illustrator 29.6.0, SVG Export Plug-In . SVG Version: 2.1.1 Build 207)  -->
  <defs>
    <style>
      .st0 {
        fill: #f05b3b;
      }

      .st1 {
        fill: #d0d0d0;
      }

      .st2 {
        fill: #507494;
      }

      .st3 {
        fill: #7d6858;
      }

      .st4 {
        fill: #d7442f;
      }

      .st5 {
        fill: #eb9f79;
      }

      .st6 {
        fill: #734438;
      }

      .st7 {
        fill: #fff;
      }

      .st8 {
        fill: #875c54;
      }

      .st9 {
        fill: #1c1918;
      }

      .st10 {
        fill: #572e25;
      }

      .st11 {
        fill: #f57557;
      }

      .st12 {
        fill: #fcc59f;
      }

      .st13 {
        fill: #2f5878;
      }

      .st14 {
        fill: #291710;
      }
    </style>
  </defs>
  <g id="Generative_Object">
    <g>
      <path class="st2" d="M113.7,190.3c0,.8-.2,2.1.3,2.8s4.9,2.5,5.8,3.1c-.9,2.3-1.7,4.7-2.4,7.1s-1,1.4-.8,2.1l31.1,47.3c-16,0-32,0-48,0l-2.1-32.8-2.5,32.8c-7.9,0-15.9.3-23.8-.3v-47.6c2.7-28.2,26.8-24.8,45-33.1-1.1,5.8-2.7,12.7-2.8,18.7Z"/>
      <path class="st13" d="M204.7,252.6c-1.6,0-3.1,0-4.7,0l2.1-33.6,2.7,33.6Z"/>
      <path class="st13" d="M99.8,252.6c-1.5,0-3,0-4.5,0l2.5-32.8,2.1,32.8Z"/>
      <g>
        <path class="st2" d="M204.7,252.6l-2.7-33.6-2.1,33.6c-16,0-32,0-48,0l31.1-47.3c0-.8-.4-1.4-.6-2.1-.5-2.2-1.9-4.3-2.4-6.2s-.2-.8.4-1.1c.3,0,5.6-3.1,5.7-3.4,0-.7-.2-1.3-.2-2.1,0-6.3-1.7-12.5-2.4-18.7,18.4,7.9,41.6,5.1,44.4,32.9v47.8c-7.8.2-15.6,0-23.4,0Z"/>
        <path class="st7" d="M184.8,222.5c3.6-.4,7.8.5,10,3.5h-20.2c3.1-.7,7-3.2,10.1-3.5Z"/>
      </g>
      <g>
        <path class="st13" d="M122.8,168.9l17.5,50.9,9.6,28.8c.4-1,.7-2,1-3,2.8-8.7,6.1-17.2,8.8-26l17.3-50.3v-.6c2.7-.2,4.8,2.3,6.7,3.1.6,6.2,2.3,12.4,2.4,18.7-2.4.2-4.9,2.2-7.3,3,.1.9.6,2.6,1.8,2.5-.6.3-.5.5-.4,1.1.5,1.9,1.8,4,2.4,6.2l-32.1,49h-1.1c0,0-31.8-49-31.8-49,.6-2.4,1.4-4.8,2.4-7.1s1.1-1.7,1.4-2.3c0-.5-6.4-3.5-7.5-3.6,0-5.9,1.7-12.8,2.8-18.7,2.8-1.3,3.1-1.7,6.3-2.8Z"/>
        <path class="st13" d="M182.5,203.3c.2.7.6,1.3.6,2.1l-31.1,47.3c-1.4,0-2.9,0-4.3,0l-31.1-47.3c-.2-.7.7-1.6.8-2.1l31.8,48.9h1.1c0,0,32.1-48.9,32.1-48.9Z"/>
        <path class="st13" d="M119.8,196.2c-.9-.7-5.3-2.5-5.8-3.1s-.3-2-.3-2.8c1.1.1,7.4,3.2,7.5,3.6-.2.6-1.2,1.8-1.4,2.3Z"/>
        <path class="st13" d="M186.1,190.5c0,.7.2,1.4.2,2.1,0,.3-5.4,3.4-5.7,3.4-1.1.2-1.6-1.6-1.8-2.5,2.4-.9,4.8-2.9,7.3-3Z"/>
      </g>
    </g>
    <g>
      <g>
        <path class="st7" d="M123.7,168.7l12.1,22.4,7.2-6.9c.1.7,1.6,3.2,2.2,3.7l-4.9,31.8-17.5-50.9c.3-.1.6,0,1-.2Z"/>
        <path class="st7" d="M177,169.2l-17.3,50.3-4.9-31.7c.4-.3,2-3,2.2-3.5,1.4.7,5.8,6.8,7,6.5s10.2-19.9,12.3-22c.2.1.6.4.8.4Z"/>
        <g>
          <path class="st7" d="M175.8,168.7l-12.3,20.3c-.5.1-5.8-4.8-6.6-5.5-2.3-1.9-4.7-3.7-6.9-5.7l15.9-16.3c.6.8,8.3,6.1,9.8,7.3Z"/>
          <path class="st7" d="M149.7,177.7c-.1.4-.5.6-.8.8-1,.7-4.6,3.5-5.3,4.3l-7.4,6.1-12.1-20.4c.8-.4,9.5-6.6,9.8-7.1l15.7,16.3Z"/>
          <path class="st1" d="M143.6,182.8c-.6.7-.7.6-.6,1.4l-7.2,6.9-12.1-22.4c.1,0,.3-.1.4-.2l12.1,20.4,7.4-6.1Z"/>
          <path class="st1" d="M175.8,168.7s.2,0,.4.2c-2,2.2-11.1,21.7-12.3,22s-5.6-5.8-7-6.5c.1-.4.4-.5,0-1,.8.7,6.1,5.6,6.6,5.5l12.3-20.3Z"/>
        </g>
      </g>
      <g>
        <path class="st0" d="M150.1,189.9v55.1l.8.5c-.3,1-.6,2.1-1,3l-9.6-28.8,4.9-31.8c1,.9,3.6,2,4.9,2Z"/>
        <path class="st11" d="M154.8,187.9l4.9,31.7c-2.7,8.7-6,17.3-8.8,26l-.8-.5v-55.1c0,0,.8-.2,1-.2.6-.1,3.3-1.4,3.7-1.8Z"/>
        <g>
          <path class="st0" d="M150.1,177.7c2.2,2,4.6,3.8,6.9,5.7.4.5.1.6,0,1-.2.6-1.8,3.2-2.2,3.5s-3.1,1.7-3.7,1.8c-.1-.4-.8,0-1-.5-.5-1.2.5-9.9,0-10.8h-1.2c.3-.1.6-.3.8-.7h.4Z"/>
          <path class="st4" d="M151.1,189.7c-.2,0-.9.2-1,.2-1.3,0-3.9-1-4.9-2s-2.1-3-2.2-3.7,0-.7.6-1.4,4.3-3.7,5.3-4.3h1.2c.5.9-.5,9.5,0,10.7s.8,0,1,.5Z"/>
        </g>
      </g>
      <g>
        <g>
          <path class="st10" d="M185.7,66.2c2.8,4.7,2.2,10.9,1.6,16.2-.8,6.9-2.6,14.7-3.9,21.5s-1.4,7.3-2.2,11c-.4,0-.4-1.6-.4-1.9-.1-4.6-.2-9.3-.2-13.9,0-6,1.3-16-2.4-20.9s-9.3-1.2-14.5-.3c-8.8,1.5-18.6,1.5-27.3,0s-4.1-1.7-6.3-1.4c-5.2.7-9.9,6-10.7,11-3.3-11.4-2.3-17.6,10.9-17.1s39.7,7.6,55-4.5.2.3.3.2Z"/>
          <g>
            <path class="st6" d="M185.7,66.2c0,0-.3-.2-.3-.2-15.4,12.1-37.5,5.2-55,4.5s-14.2,5.7-10.9,17.1c-.7,4.3,0,9-.2,13.4s-.9,9.3-.8,13.4c-1.2-3.3-1.7-6.8-2.4-10.2-1.8-9.3-5.4-24.3-2-33.1s6-8,11.3-7.4c3.1-16.6,23.2-17.2,36.6-15.3s22.3,7.1,30.3-1.2c1,6.5-1.4,14.8-6.6,19.1Z"/>
            <path class="st8" d="M148.8,59.5c4.1-.2,8.8,0,13,.2,8.2.5,16.4,2.9,24.5.5-3.6,4-9.8,5.6-15,6-8.8.6-20.7-1.6-28.5-5.3s-2.8-.2-.8-.8,5.5-.5,6.9-.6Z"/>
          </g>
        </g>
        <g>
          <g>
            <path class="st12" d="M165.4,147c-.2.3-.5.2-.6.7-.5,2.6-.4,11.5,1.2,13.7l-15.9,16.3h-.4l-15.7-16.3c1-1.5,1.4-7.5,1.4-9.4,1.6,1,2.8,2.7,4.4,3.7,6.4,4.2,16.4,3.8,22.2-1.4s2-1.9,2.3-2.7.6-4.4-.4-3.6c0,0,1.3-.8,1.6-1Z"/>
            <path class="st5" d="M163.9,148c1-.7.4,3.4.4,3.6-.2.8-1.6,2.1-2.3,2.7-5.8,5.2-15.8,5.6-22.2,1.4s-2.8-2.7-4.4-3.7c0-.7-.2-3.4-.4-3.9,3.8,1.2,7.5,3.2,11.5,3.5,6.2.6,11.9-.8,17.4-3.5Z"/>
          </g>
          <path class="st5" d="M116.1,104.2c.7,3.4,1.2,6.9,2.4,10.2,0,2.8.9,5.7,1.4,8.5-4.2-.1-8.4-6.5-8.8-10.3s.3-10.4,5.1-8.4Z"/>
          <path class="st5" d="M179.4,124.2c-.7-.6.4-1.8.4-1.9.6-2.4.9-4.9,1.4-7.4.8-3.7,1.5-7.3,2.2-11,3.3-1.3,4.9,2.8,5.1,5.4.4,5-2.5,10.1-6.6,12.9s-1.7-.4-2.5,2Z"/>
          <path class="st12" d="M180.6,99.3h-.2c-.4-1.6-3.8-1.2-5.2-1.6s-4.1-1.7-6.3-2c-7.3-.7-14.5,3.2-23.6,2.4s-9-3.8-20.6-.4-6.1-.3-5.2,3.3h-.2c.2-4.4-.5-9.1.2-13.4s5.5-10.3,10.7-11,4.1,1,6.3,1.4c8.8,1.5,18.5,1.5,27.3,0s10.7-4.7,14.5.3,2.3,14.9,2.4,20.9Z"/>
          <g>
            <path class="st12" d="M181.2,115c-.5,2.4-.8,5-1.4,7.4s-1.1,1.3-.4,1.9c-3.5,10.8-3,16.3-14,22.8s-1.5.9-1.6,1c-5.5,2.8-11.2,4.1-17.4,3.5s-7.7-2.4-11.5-3.5c-.2-.6-3.9-2.7-4.8-3.5-6.9-5.9-8.7-13.1-10.3-21.6s-1.3-5.6-1.4-8.5c-.1-4.1.6-9.1.8-13.4h.2c.2.8,1.2,1,1.4,1.5,1.4,4.4-.5,12.1,6.4,13.7s14.5.3,17.6-5,2.2-8.3,3.8-8.9c4.5-1.7,4.5,5.1,5.8,7.8s4.7,5.6,8.7,6.2c7.7,1.1,13.5,1,15.2-7.6s.3-5.2.6-6.1,2-.7,1.4-3.2h.2c0,4.6,0,9.3.2,13.9s0,1.9.4,1.9Z"/>
            <path class="st7" d="M161.4,128c-4.6,8.3-17.1,8.2-22.5.7l5.6,1.1c5.7.4,11.6.4,16.9-1.8Z"/>
            <path class="st5" d="M148.8,120.7c.8-.2,3.5-.1,3.4,1.1-1.2,2.5-6.7-.2-3.4-1.1Z"/>
          </g>
          <g>
            <path class="st9" d="M180.4,99.3c.6,2.5-1.2,2.6-1.4,3.2s-.3,4.6-.6,6.1c-1.7,8.5-7.5,8.7-15.2,7.6s-7-2.5-8.7-6.2-1.3-9.5-5.8-7.8-2.6,6.9-3.8,8.9c-3.1,5.3-12,6.2-17.6,5s-5-9.3-6.4-13.7-1.2-.7-1.4-1.5c-.9-3.7,3.1-2.7,5.2-3.3,11.7-3.4,10.2-.6,20.6.4s16.3-3.1,23.6-2.4,4.3,1.4,6.3,2,4.8,0,5.2,1.6Z"/>
            <path class="st3" d="M129.3,96.7c.2,0,1.7-.2,1.4.4l-4.6.3c.9-.4,2.3-.7,3.2-.7Z"/>
            <g>
              <path class="st12" d="M129.5,99.1c2.5-.3,14.5-.4,15.6,2.1s-1.6,10.3-4,11.9-12.2,2.3-14.7.8-3.6-7.9-3-10.3,4.1-4.2,6.2-4.4Z"/>
              <path class="st14" d="M134.9,103c3.7-.9,3.9,6.7,1,7.1s-3.5-6.5-1-7.1Z"/>
            </g>
            <g>
              <path class="st12" d="M159.8,99.1c7.6-.8,18.5-1.2,16.4,9.3-1.3,6.9-5.9,6.8-12.1,6.2s-7-1.9-8.6-6.2c-2-5.4-2.4-8.6,4.2-9.3Z"/>
              <path class="st14" d="M163.8,103c4.3-.9,3.7,8.7-.4,6.9s-1.9-6.4.4-6.9Z"/>
            </g>
          </g>
        </g>
      </g>
    </g>
  </g>
</svg>