<?xml version="1.0" encoding="UTF-8"?>
<svg id="Layer_1" data-name="Layer 1" xmlns="http://www.w3.org/2000/svg" xmlns:xlink="http://www.w3.org/1999/xlink" viewBox="0 0 216.48 284.55">
  <defs>
    <style>
      .cls-1 {
        fill: #eb6a27;
      }

      .cls-2 {
        fill: #fbd4a6;
      }

      .cls-3 {
        fill: #cf4a1f;
      }

      .cls-4 {
        fill: #0e0a09;
      }

      .cls-5 {
        fill: #c6d2d9;
      }

      .cls-6 {
        fill: url(#linear-gradient-4);
      }

      .cls-7 {
        fill: url(#linear-gradient-3);
      }

      .cls-8 {
        fill: url(#linear-gradient-2);
      }

      .cls-9 {
        fill: #ec9b78;
      }

      .cls-10 {
        fill: #314554;
      }

      .cls-11 {
        fill: url(#linear-gradient);
      }

      .cls-12 {
        fill: #617888;
      }

      .cls-13 {
        fill: #fba74f;
      }

      .cls-14 {
        fill: #3c332a;
      }

      .cls-15 {
        fill: #9c2d1e;
      }

      .cls-16 {
        fill: #3a1912;
      }

      .cls-17 {
        fill: #1e2830;
      }

      .cls-18 {
        fill: #fff;
      }

      .cls-19 {
        fill: #e6edf1;
      }

      .cls-20 {
        fill: #f7b037;
      }

      .cls-21 {
        fill: #fab864;
      }

      .cls-22 {
        fill: #eeb389;
      }

      .cls-23 {
        fill: #f98430;
      }

      .cls-24 {
        fill: #620a09;
      }

      .cls-25 {
        fill: #515d69;
      }

      .cls-26 {
        fill: #dc8858;
      }

      .cls-27 {
        fill: #acb9c1;
      }

      .cls-28 {
        fill: #788d9b;
      }

      .cls-29 {
        fill: #11161a;
      }

      .cls-30 {
        fill: #c47154;
      }

      .cls-31 {
        fill: #95a7b2;
      }

      .cls-32 {
        fill: #bc411e;
      }

      .cls-33 {
        fill: #393c3c;
      }
    </style>
    <linearGradient id="linear-gradient" x1="65.48" y1="81.91" x2="62.19" y2="105.37" gradientUnits="userSpaceOnUse">
      <stop offset="0" stop-color="#eff5f8"/>
      <stop offset="1" stop-color="#bfd1da"/>
    </linearGradient>
    <linearGradient id="linear-gradient-2" x1="69.94" y1="84.48" x2="69.96" y2="105.1" gradientUnits="userSpaceOnUse">
      <stop offset="0" stop-color="#9ba9b4"/>
      <stop offset="1" stop-color="#758999"/>
    </linearGradient>
    <linearGradient id="linear-gradient-3" x1="153.57" y1="82.02" x2="153.73" y2="105.71" gradientUnits="userSpaceOnUse">
      <stop offset="0" stop-color="#edf4f7"/>
      <stop offset="1" stop-color="#b4c9d4"/>
    </linearGradient>
    <linearGradient id="linear-gradient-4" x1="146.57" y1="84.45" x2="146.72" y2="104.85" gradientUnits="userSpaceOnUse">
      <stop offset="0" stop-color="#98a6b2"/>
      <stop offset="1" stop-color="#728798"/>
    </linearGradient>
  </defs>
  <g id="Generative_Object" data-name="Generative Object">
    <g>
      <path class="cls-1" d="M64.93,167.47c-2.94,7.61-5.93,15.25-7.24,23.36l16.12.99c-.09,1.57-4.68,7.7-4.72,8.45-.04.89,2.41,1.1,1.1,1.97l37.07,25.01-3.51,2.63v27.97c-12.87,0-25.74.02-38.61,0-6.83-14.01-12.23-28.74-16.45-43.76-1.41-5.01-2.26-11.53-3.95-16.23-.17-.48-.14-1.13-.77-.99l12.18,60.99c-10.52-.02-21.08.29-31.59-.33,1.04-12.55,1.39-25.2,2.63-37.73,1.08-10.91,2.54-29.38,9.21-38.17,4.68-6.16,20.92-11.23,28.52-14.15Z"/>
      <path class="cls-23" d="M150.49,167.25c.31.91.54,2.82.88,3.95l3.29,16.34c-4.21.74-8.48,1.14-12.72,1.65-.91.11-4.43.1-4.61.66l4.83,9.32c-3.27,2.8-6.21,6.04-9.43,8.88-7.61,6.72-16.03,12.61-24.02,18.87-.48.1-.41-.11-.55-.22,4.77-7.5,8.9-15.55,12.72-23.58,3.56-7.47,16-34.91,14.26-41.9-.21-.86-1.27-1.23-1.75-1.65-1.09-.93-2.14-1.41-3.29-2.19,9.04,2.34,16.77-.65,20.4,9.87Z"/>
      <path class="cls-23" d="M82.26,159.57c-.43.31-1.82.94-1.97,1.43-1.15,3.67,3.51,17.03,5.05,21.06,4.54,11.89,11.73,26.1,18.21,37.07,1.04,1.77,3.39,6.04,4.61,7.35-2.08-.91-4.22-2.58-6.03-3.95-5.99-4.53-12.69-9.76-18.32-14.7-3.15-2.77-6.08-5.86-9.21-8.67l4.83-9.32c-.51-.79-3.67-.37-4.83-.44l-12.28-1.86,4.17-18.1c.27-.84.43-2.24.66-2.85,3.46-9.4,10.46-7.1,18.87-9.43-1.02,1.04-2.51,1.52-3.73,2.41Z"/>
      <path class="cls-3" d="M67.13,166.59c-.23.62-.38,2.01-.66,2.85-2.04,6.23-3.68,12.61-5.26,18.98,4.43.65,8.92.74,13.38.99,1.16.07,4.32-.35,4.83.44l-6.58,9.54,10.97,8.45c5.62,4.94,12.32,10.17,18.32,14.7,1.81,1.37,3.95,3.03,6.03,3.95.04.04-.04.19,0,.22.14.11.07.32.55.22,7.99-6.26,16.41-12.14,24.02-18.87l11.19-8.88-6.58-9.32c.18-.56,3.7-.55,4.61-.66l13.82-.77c-1.21-5.8-2.69-11.55-4.39-17.22-.34-1.13-.56-3.04-.88-3.95.56-.04,1.04.26,1.54.44,3.02,7.49,5.57,15.16,7.02,23.14l-16.12.99c-.12,1.5,4.74,7.94,4.72,8.45-.02.65-2.17.84-.88,1.75-7.71,5.02-15.11,10.49-22.71,15.69-2.42,1.65-15.87,9.83-16.56,11.19-.19.37-.18.72-.44.99v27.97c-1.09,0-2.2,0-3.29,0v-27.97l3.51-2.63-37.07-25.01c1.31-.88-1.14-1.08-1.1-1.97.04-.75,4.62-6.88,4.72-8.45l-16.12-.99c1.31-8.11,4.3-15.75,7.24-23.36.72-.28,1.35-.89,2.19-.88Z"/>
      <path class="cls-3" d="M160.14,257.85c-2.92,0-5.85,0-8.77,0,9.66-19.52,15.95-40.46,20.95-61.64.52-.01.34.88.33,1.21-.13,4.37-2.58,13.82-3.51,18.65-2.7,13.99-5.88,27.9-8.99,41.79Z"/>
      <path class="cls-3" d="M65.15,257.85c-2.99,0-6,0-8.99,0l-12.18-60.99c.63-.14.6.51.77.99,1.69,4.7,2.54,11.23,3.95,16.23,4.22,15.03,9.62,29.75,16.45,43.76Z"/>
      <path class="cls-21" d="M107.49,257.85c-.14,0-.29,0-.44,0v-27.97c.26-.27.25-.62.44-.99v28.96Z"/>
      <path class="cls-32" d="M112.54,252.8c-2.77-.21-2.15,4.37.44,3.07-.1.86-.3,1.27.22,1.97-.58,0-1.17,0-1.75,0-2.17-1.01-2.27-6.09-.11-6.58,1.44-.33.78.74,1.21,1.54Z"/>
      <path class="cls-1" d="M112.54,252.8c.13.25.86.91.88.99.24,1.07-.37,1.52-.44,2.08-2.58,1.3-3.21-3.28-.44-3.07Z"/>
      <g>
        <path class="cls-1" d="M160.14,257.85c3.11-13.89,6.29-27.81,8.99-41.79.93-4.83,3.38-14.28,3.51-18.65.01-.33.19-1.22-.33-1.21-5,21.18-11.29,42.12-20.95,61.64-12.72.02-25.45,0-38.17,0-.52-.71-.32-1.12-.22-1.97.07-.56.68-1.01.44-2.08-.02-.07-.75-.74-.88-.99-.43-.8.24-1.86-1.21-1.54-2.16.49-2.06,5.57.11,6.58-1.31,0-2.64,0-3.95,0v-28.96c.69-1.36,14.14-9.53,16.56-11.19,7.59-5.19,15-10.66,22.71-15.69-1.29-.91.85-1.1.88-1.75.02-.51-4.83-6.95-4.72-8.45l16.12-.99c-1.45-7.98-4-15.65-7.02-23.14,7.75,2.77,23.65,7.82,28.3,14.37,6.51,9.18,8.16,30.16,9.21,41.46,1.06,11.36,1.5,22.83,2.19,34.22-10.53.22-21.06.09-31.59.11Z"/>
        <g>
          <path class="cls-1" d="M125.7,230.43c5.58-.81,21.67-.48,27.64,0,2.97.24,1.42.72,1.75,3.51-1.55,1.06-26.69-.19-30.49,0,.34-1.9-.98-3.21,1.1-3.51Z"/>
          <path class="cls-32" d="M124.6,233.94c3.8-.19,28.94,1.06,30.49,0,.94-.64.12-2.62.55-3.73.74-.1.52.27.55.77.02.43-.55,4.62-.77,4.72h-31.15c-.21-.21-1.27-6.35-.22-5.48.48.4-.44,3.72.55,3.73Z"/>
          <path class="cls-2" d="M153.34,230.43c-5.97-.48-22.06-.81-27.64,0h27.64Z"/>
          <path class="cls-3" d="M112.75,231.96c-2.59-.81-2.23,4.59.22,3.07,1.85,2.42-2.55,2.05-3.07-.33-.64-2.9,2.63-6.76,2.85-2.74Z"/>
          <path class="cls-1" d="M112.75,231.96c.93.29,1.21,2.46.22,3.07-2.45,1.52-2.81-3.88-.22-3.07Z"/>
        </g>
      </g>
      <path class="cls-21" d="M141.93,189.18c4.24-.51,8.51-.9,12.72-1.65l-3.29-16.34c1.7,5.67,3.18,11.42,4.39,17.22l-13.82.77Z"/>
      <path class="cls-13" d="M132.72,208.05c3.22-2.85,6.16-6.08,9.43-8.88l-4.83-9.32,6.58,9.32-11.19,8.88Z"/>
      <path class="cls-21" d="M74.58,189.4c-4.46-.25-8.96-.34-13.38-.99,1.58-6.36,3.23-12.75,5.26-18.98l-4.17,18.1,12.28,1.86Z"/>
      <path class="cls-13" d="M83.8,207.83l-10.97-8.45,6.58-9.54-4.83,9.32c3.13,2.81,6.06,5.9,9.21,8.67Z"/>
    </g>
    <g>
      <path class="cls-5" d="M83.36,161.54c2.87,20.19,13.78,39.37,26.87,54.62.3.03.58-.34.77-.55,1.3-1.46,6.14-11.51,7.46-14.04,7.05-13.57,10.89-23.07,14.04-38.17.05-.23.12-1.12-.22-1.21.45-.71.98-1.79,1.1-2.63.49.42,1.54.79,1.75,1.65,1.74,6.99-10.7,34.43-14.26,41.9-3.83,8.04-7.96,16.08-12.72,23.58-.04-.03.04-.18,0-.22-1.21-1.31-3.56-5.58-4.61-7.35-6.48-10.97-13.67-25.19-18.21-37.07-1.54-4.03-6.2-17.39-5.05-21.06.15-.48,1.55-1.11,1.97-1.43.7.32.79,1.48,1.1,1.97Z"/>
      <path class="cls-19" d="M132.28,162.2c.34.09.27.97.22,1.21-3.15,15.1-6.99,24.6-14.04,38.17-1.31,2.53-6.16,12.58-7.46,14.04-.19.21-.46.58-.77.55-13.09-15.26-24-34.43-26.87-54.62,9.57,15.4,39.01,16.34,48.92.66Z"/>
    </g>
    <g>
      <path class="cls-17" d="M143.47,141.58c-2.42.72-4.93,1.38-7.46,1.54l6.03-2.41c11.07-5.62,15.25-21.51,13.27-33.02l-.88.22c2.34,12.81-3.26,29.96-17.33,33.13,9.23-3.97,14.49-13.28,15.9-22.92-2.04,7.17-6.82,17.32-14.7,19.3-1.58.4-4.54.92-5.81,0,.71-.27,1.5-.58,2.19-.88,11.14-4.79,12.48-16.02,12.28-26.98.47.05,1.28.05,1.75,0,1.34-.14,8.16-2.81,8.77-3.73,6.33,14.02-.77,28.21-13.71,35.1-.38.2-.71.11-.33.66Z"/>
      <path class="cls-17" d="M68.44,109.55c.49.01,1.61.1,1.97,0,1.51,8.84,3.7,19.66,10.97,25.67.92.76,1.87,1.33,2.85,1.97-2.83-.73-3.35-.24-6.25-2.19-8.56-5.76-13.96-17.18-15.25-27.2,1.69.83,4,1.72,5.7,1.75Z"/>
      <path class="cls-10" d="M136.01,143.12c-.51.03-3.86.07-3.95-.11l8.77-5.7c-3.42,1.06-6.82,1.57-10.42.99-.05-.7,1.7-.73,2.08-.88,1.27.92,4.24.4,5.81,0,7.88-1.98,12.66-12.13,14.7-19.3-1.41,9.65-6.68,18.95-15.9,22.92,14.07-3.16,19.67-20.32,17.33-33.13l.88-.22c1.98,11.51-2.2,27.4-13.27,33.02l-6.03,2.41Z"/>
      <path class="cls-28" d="M126.36,39.79c9.4,4.11,18.17,11.45,21.5,21.5l-1.32.77c-2.21-7.74-8.58-14.11-15.79-17.22-13.36-7.29-32.42-7.18-45.63.44-5.3,1.78-9.17,6.17-12.28,10.64-.14.2-.37-.33-.66.22-.03.07.53,1.24-.44,1.21.07-.65.49-.86-.44-1.32,2.87-5.12,7.01-9.06,11.85-12.28-.14.69.83.08.99,0,14.69-7.58,25.53-3.87,40.8-3.51.69.02.9.02,1.43-.44Z"/>
      <path class="cls-12" d="M126.36,39.79c-.53.46-.74.46-1.43.44-15.28-.36-26.12-4.07-40.8,3.51-.15.08-1.13.69-.99,0,13.15-8.77,28.65-10.31,43.22-3.95Z"/>
      <path class="cls-27" d="M147.85,61.29c.26.78,1.28,3.84,1.32,4.06.1.7-.07,1.58,0,2.3-.58-.98-1.76-1.43-2.85-1.1-.18-1.28.5-1.12.44-1.86-.11-1.31-1.2-3.67-1.75-4.94-1.01-2.3-2.31-4.59-4.17-6.36-2.58-3.39-6.36-6.52-10.09-8.56,7.21,3.11,13.58,9.48,15.79,17.22l1.32-.77Z"/>
      <path class="cls-27" d="M149.17,67.65c.14,1.4.02,3.26,0,4.72,0,.11.87,1.34-.66,1.65-.14.03-.3-.01-.44,0-.1-.98-.86-1.76-.88-1.86-.25-1.66-.6-3.61-.88-5.59,1.09-.33,2.27.12,2.85,1.1Z"/>
      <path class="cls-27" d="M70.2,66.55c-.32,2.15-.44,3.79-1.1,5.92,0,.02-.11.09-.22.44l-1.54-.22c-.02-1.28.08-4,.22-5.26.83-.78,1.47-1.02,2.63-.88Z"/>
      <path class="cls-5" d="M71.51,59.53c-.29.67-.95,2.61-1.1,3.29-.16.74-.35,1.55-.44,2.3,0,.06.72.65.66,1.1-.03.18-.43.3-.44.33-1.16-.14-1.8.1-2.63.88.23-2.13.66-3.53,1.32-5.7l1.1.77c.24-1.03.75-1.98,1.1-2.96h.44Z"/>
      <path class="cls-31" d="M71.73,57.34c-.08.82-.39,1.44-.66,2.19-.35.98-.85,1.93-1.1,2.96l-1.1-.77c.71-2.35,1.21-3.57,2.41-5.7.93.45.51.66.44,1.32Z"/>
      <path class="cls-29" d="M68.88,78.18c-.26.05-.61.15-.88.22-.31-1.15-.43-3.3,0-4.39.03-.07.46.17.88-1.1.11-.35.21-.42.22-.44-.04,2-.88,3.6-.22,5.7Z"/>
      <path class="cls-29" d="M148.51,74.01c.8.98.5,3.2.22,4.39-.25-.06-.61.05-.88,0-.3-1.19.32-3.43.22-4.39.14-.01.3.03.44,0Z"/>
      <g>
        <path class="cls-10" d="M143.47,141.58c-.38-.55-.05-.46.33-.66,12.94-6.89,20.04-21.08,13.71-35.1.41-.61.56-3.09.66-3.95,1.04,1.2.71,4.01,1.97,4.72l-1.75-6.25c.5-5.73.28-12.16-.22-17.88-.23-.43-8.03-3.57-8.99-3.84-.43-.12-.41-.21-.44-.22.28-1.19.58-3.41-.22-4.39,1.53-.3.66-1.53.66-1.65.02-1.46.14-3.32,0-4.72-.07-.73.1-1.61,0-2.3-.03-.22-1.06-3.28-1.32-4.06-3.33-10.05-12.1-17.39-21.5-21.5-14.56-6.36-30.06-4.82-43.22,3.95-4.83,3.22-8.97,7.17-11.85,12.28-1.2,2.13-1.7,3.36-2.41,5.7-.66,2.18-1.09,3.57-1.32,5.7-.14,1.27-.24,3.99-.22,5.26.01.76.04.52.66,1.32-.43,1.09-.31,3.24,0,4.39-.02,0-.03.1-.44.22-.84.24-7.88,3.01-8.23,3.29-.62.5-.87,1.36-.99,2.08-.49,3.06-.13,17.9.66,20.84.49,1.81,2.21,2.22,3.73,2.96,1.29,10.02,6.68,21.44,15.25,27.2,2.9,1.95,3.42,1.46,6.25,2.19.31.08,1.85.29,1.65.88-4.83,0-9.32-1.99-12.94-5.05,2.22,3.52,5.2,7.12,9.1,8.88-14.94,1.46-24.47-15.27-26.54-28.08-3.67-22.6,7.96-67.84,30.16-78.65,13.48-6.57,24.91-8.49,39.49-2.63,17.3,6.95,26.68,21.48,31.92,38.72,6.74,22.15,16.76,61.24-13.6,70.31Z"/>
        <g>
          <path class="cls-25" d="M127.34,35.4c12.16,5.34,21.31,17.61,26.43,29.94,1.83,4.41,3.62,9.35,3.84,14.15-.53.42-.71-2.77-.77-2.96-4.06-14.28-11-25.39-22.05-35.21-2.3-2.04-5.2-3.79-7.46-5.92Z"/>
          <path class="cls-25" d="M61.31,118.11l7.46,12.94c-4.25-1.43-4.96-6.57-7.13-9.98l-.33-2.96Z"/>
          <path class="cls-10" d="M67.89,132.37c.74,1.1,7.79,6.39,7.79,6.91,0,.04-.51.55-.55.55-.47.03-6.38-5.24-6.91-6.03-.33-.49-.96-1.03-.33-1.43Z"/>
          <path class="cls-10" d="M61.31,122.49l4.39,7.24c-1.29.7-1.57-.38-2.3-1.21-.27-.8-2.86-5.87-2.08-6.03Z"/>
          <path class="cls-17" d="M158.16,101.87c.06-.51.18-1.05.22-1.54l1.75,6.25c-1.27-.71-.94-3.51-1.97-4.72Z"/>
        </g>
      </g>
      <path class="cls-18" d="M68.88,72.92c-.42,1.27-.85,1.02-.88,1.1-.61-.8-.65-.55-.66-1.32l1.54.22Z"/>
      <g>
        <g>
          <path class="cls-11" d="M67.78,82.79c-.12,6.57-1.08,20.12,0,26,.16.87.19.29.66.77-1.7-.04-4.01-.93-5.7-1.75-1.52-.74-3.24-1.15-3.73-2.96-.79-2.94-1.15-17.78-.66-20.84.12-.73.37-1.58.99-2.08.35-.28,7.39-3.05,8.23-3.29.37,1.32.24,2.82.22,4.17Z"/>
          <path class="cls-27" d="M72.61,82.57l-4.83.22c.02-1.35.15-2.85-.22-4.17.41-.12.41-.21.44-.22.27-.07.61-.17.88-.22.9-.18,2.58.12,3.51-.44-.07.37.23,3.9.22,4.83Z"/>
          <path class="cls-8" d="M72.61,82.57c-.14,8.37.1,16.75,0,25.12-.57.92-1.15,1.58-2.19,1.86-.36.1-1.49.01-1.97,0-.46-.47-.5.1-.66-.77-1.08-5.88-.12-19.43,0-26l4.83-.22Z"/>
        </g>
        <g>
          <path class="cls-7" d="M158.38,100.34c-.04.48-.16,1.02-.22,1.54-.1.86-.25,3.34-.66,3.95-.62.92-7.43,3.59-8.77,3.73.29-.38.2-.67.22-1.1.34-8.38.21-17.47.22-25.89,0-1.31-.13-2.66,0-3.95.96.27,8.76,3.41,8.99,3.84.5,5.72.72,12.15.22,17.88Z"/>
          <path class="cls-27" d="M147.85,78.4c.27.05.62-.06.88,0,.02,0,.01.1.44.22-.13,1.29,0,2.64,0,3.95l-5.05.22v-4.61c1.42-.3,2.37-.05,3.73.22Z"/>
          <path class="cls-6" d="M149.17,82.57c0,8.42.12,17.51-.22,25.89-1.06.19-.9-.46-2.3-.44-.1,0,.1.35-.66.44-.08,0-.26-.55-1.21,0-.05-.07-.61-.36-.66-.55v-25.12l5.05-.22Z"/>
          <path class="cls-27" d="M148.95,108.45c-.02.43.07.71-.22,1.1-.47.05-1.29.05-1.75,0-1.26-.14-1.39,0-2.19-1.1.95-.55,1.13,0,1.21,0,.76-.09.55-.44.66-.44,1.41-.02,1.25.63,2.3.44Z"/>
        </g>
      </g>
      <path class="cls-27" d="M85.11,45.28c-3.15,1.82-6.13,4.32-8.56,7.02-1.75,1.95-4.01,4.84-5.05,7.24h-.44c.27-.76.58-1.38.66-2.19.97.03.4-1.14.44-1.21.29-.55.52-.02.66-.22,3.12-4.47,6.99-8.86,12.28-10.64Z"/>
      <path class="cls-25" d="M85.55,49.22c-.28.18-.6.47-.88.66-3.2,2.13-6.13,4.59-9.1,7.02l-5.16,5.92c.14-.68.81-2.62,1.1-3.29,1.03-2.4,3.29-5.29,5.05-7.24,1.35-.36,2.69-2.9,3.84-3.29.05-.02.13.73.88.44.12-.05,2.23-1.53,2.3-.99-.57.5-2.76,1.92-2.96,2.52-.55,1.64,2.56-1.15,2.85-1.32.09-.05,2.07-.98,2.08-.44Z"/>
      <path class="cls-17" d="M90.6,52.3c.85-.05.31,1.02.22,1.54-8.8,4.96-11.72,14.58-16.01,23.25l-2.41-.77c2.51-6.68,5.79-15.41,11.41-20.07,2.11-1.76,4.47-2.67,6.8-3.95Z"/>
      <g>
        <path class="cls-10" d="M130.74,44.84c3.73,2.04,7.51,5.17,10.09,8.56-.51-.48-2.46-2.21-3.07-1.65.59.45,4.69,5.48,3.84,6.03l-7.79-6.91c4.01,3.35,7.38,7.34,10.2,11.74l-.88-3.07,2.08,2.19c.19.55,1,1.49,1.1,2.3s-.72,1.79-.66,2.41c.21,1.97,1.72,5.75,1.97,7.68.15,1.14-.11,2.55,0,3.73-.13.25-3.61-.6-4.28-.11-.4.3-.43,3.12-.55,3.95-14.8-8.46-29.42-18.45-41.02-31.04-1.32-1.43-2.57-3.39-3.95-4.72-.04-.04-.15-.38-.33-.44-.41.52.32.41.33.44,2.26,4.92,7.99,10.93,11.96,14.7,9.52,9.05,20.8,16.18,32.58,21.94-.15.1-.31.7-.77.66-.59-.05-6.98-3.4-8.12-3.95-1.48-.72-2.64-1.3-4.28-2.19-8.42-4.61-15.9-10.18-23.14-16.45-1.39-1.21-9-9.06-9.65-9.21-.98-.24-4.58,1.84-5.59,2.41.09-.52.63-1.58-.22-1.54.71-.39,2.2-1.04,2.52-1.75-2.69-.04-6.37,2.17-8.34,3.95-.52.47-1.16.91-.99,1.75-5.61,4.66-8.9,13.39-11.41,20.07l2.41.77c-.09.18-.09.82-.44.88-.24-1.66-1.74-1.42-1.97-.22-.93.56-2.61.26-3.51.44-.66-2.1.17-3.71.22-5.7.66-2.13.77-3.77,1.1-5.92,0-.03.41-.15.44-.33.06-.44-.67-1.03-.66-1.1.09-.75.28-1.56.44-2.3l5.16-5.92c2.97-2.43,5.9-4.89,9.1-7.02.19.51.41.49.88.33,1.86-.65,4.73-3.43,6.8-4.17-2.39.33-4.71,1.87-6.8,3.18-.01-.54-1.99.39-2.08.44-.29.17-3.4,2.96-2.85,1.32.2-.6,2.4-2.02,2.96-2.52-.08-.54-2.18.94-2.3.99-.75.29-.83-.45-.88-.44-1.15.39-2.49,2.93-3.84,3.29,2.42-2.7,5.41-5.2,8.56-7.02,13.21-7.62,32.27-7.73,45.63-.44Z"/>
        <g>
          <path class="cls-25" d="M140.83,53.39c1.86,1.77,3.16,4.06,4.17,6.36-.06.24.19,1.88.22,1.97l-2.08-2.19.88,3.07c-2.82-4.39-6.19-8.39-10.2-11.74l7.79,6.91c.85-.55-3.25-5.58-3.84-6.03.61-.57,2.57,1.16,3.07,1.65Z"/>
          <path class="cls-17" d="M142.81,81.69c-.02.15.37.4.22.77-.23.55-.58.06-.66.11-11.78-5.75-23.05-12.89-32.58-21.94-3.97-3.77-9.69-9.78-11.96-14.7,1.38,1.33,2.63,3.28,3.95,4.72,11.6,12.59,26.22,22.58,41.02,31.04Z"/>
          <path class="cls-17" d="M114.73,47.69c4.58,2.1,8.68,4.52,12.61,7.68,1.68,1.35,14.19,13,14.59,13.93.04.1.25,1.04.22,1.1-.33.33-.56,0-.77-.11-1.72-.83-11.38-10.72-14.04-12.94-4.05-3.37-8.37-6.53-12.61-9.65Z"/>
          <path class="cls-17" d="M121.2,54.05c8.52,6.32,16.97,13.1,23.14,21.83l-23.14-21.83Z"/>
          <path class="cls-17" d="M111.77,57.78l22.49,16.34c-.76.33-2.58-.78-3.4-1.21-6.98-3.61-13.88-9.31-19.09-15.14Z"/>
          <path class="cls-17" d="M109.35,52.51c5.86,3.67,11.42,8.08,15.47,13.71-5.75-3.78-11.18-8.36-15.47-13.71Z"/>
          <path class="cls-25" d="M128.88,49.66c2.38-.59,9.85,6.83,10.64,9.32-1.11-.38-2.48-1.37-3.4-2.08s-6.83-5.82-7.24-6.36c-.22-.3-.57-.73,0-.88Z"/>
          <path class="cls-25" d="M90.05,49.22c.3,0,.83.4,1.32.22.75,1.01-.6.62-.66.66-3.09,1.81-6,3.59-8.67,6.03l1.75-2.63h-1.32c1.47-1.49,5.5-4.24,7.57-4.28Z"/>
          <path class="cls-25" d="M126.68,50.54c2.75,1.47,9.53,4.75,7.9,8.56l-7.9-8.56Z"/>
          <path class="cls-17" d="M119.01,57.34c3.79,1.01,6.79,3.07,9.32,6.03l-9.32-6.03Z"/>
          <path class="cls-25" d="M90.6,52.3c-2.33,1.27-4.69,2.19-6.8,3.95-.17-.85.47-1.28.99-1.75,1.96-1.78,5.65-3.99,8.34-3.95-.32.71-1.81,1.37-2.52,1.75Z"/>
          <path class="cls-17" d="M84.68,49.88c.28-.19.59-.48.88-.66,2.09-1.31,4.41-2.85,6.8-3.18-2.07.74-4.94,3.52-6.8,4.17-.47.16-.69.18-.88-.33Z"/>
          <path class="cls-25" d="M127.12,52.95c.98.07,6.91,5.79,5.7,6.36l-5.7-6.36Z"/>
          <path class="cls-17" d="M114.73,47.69c-.53-.24-1.03-.49-1.54-.77.75-.44,1.18.51,1.54.77Z"/>
          <path class="cls-17" d="M97.84,45.93s-.73.09-.33-.44c.18.06.29.4.33.44Z"/>
        </g>
      </g>
    </g>
    <g>
      <path class="cls-22" d="M125.7,143.12c.22,4.43.75,8.91,1.54,13.27.33.53,2.22.82,2.85.99,1.15.78,2.2,1.26,3.29,2.19-.12.84-.65,1.93-1.1,2.63-9.91,15.68-39.35,14.74-48.92-.66-.31-.5-.39-1.66-1.1-1.97,1.22-.89,2.71-1.37,3.73-2.41.88-.24,2.61-.21,3.07-.99.48-2.51.69-5.03.88-7.57,12.4,7.27,25.21,2.4,35.76-5.48Z"/>
      <path class="cls-26" d="M125.26,133.68c.27.33.16.56.22.88.51,2.81.08,5.72.22,8.56-10.54,7.89-23.35,12.75-35.76,5.48.3-4.01.72-9.9.44-13.82-.04-.5.03-1.03,0-1.54,6.35,3.95,13.07,9.92,21.17,8.56,3.87-.65,10.65-5.51,13.71-8.12Z"/>
      <path class="cls-26" d="M129.21,77.08l-.22.22c-.51-.11-1.38.03-1.97,0-.78-.05-1.87-.07-2.63,0-8.55-5.18-16.96-10.86-23.47-18.54-.69-.81-4.02-5.99-4.5-6.03-6.4,2.5-10.68,8.39-14.37,13.93-2.38,3.58-4.89,9.76-7.24,12.72-.51.64-.29.03-.66-.11,0-.52.25-1.09.22-1.32.35-.05.35-.7.44-.88,4.29-8.67,7.22-18.29,16.01-23.25,1.01-.57,4.61-2.65,5.59-2.41.65.16,8.26,8.01,9.65,9.21,7.25,6.27,14.73,11.85,23.14,16.45Z"/>
      <path class="cls-33" d="M146.32,66.55c.27,1.98.62,3.94.88,5.59.02.1.78.89.88,1.86s-.52,3.2-.22,4.39c-1.36-.27-2.31-.52-3.73-.22-.17.04-.47-.54-.88.11v5.7c-.39.54-1,.28-1.54.33-.48-1.34-4.13-2.93-5.59-3.51-1.96-.77-2.54-1.2-4.72-1.32-4.5-.24-9.97,1.29-14.15,2.85-2.05-3.71,4.65-4.83,7.13-5.05.77-.07,1.85-.05,2.63,0-1.08,1.24,1.71,1.16,2.3,1.32.14.04.73,1.37,2.3.11-.68-.13-2.17-1.33-2.63-1.43l.22-.22c1.64.9,2.8,1.47,4.28,2.19,1.14.55,7.53,3.9,8.12,3.95.46.04.62-.56.77-.66.07-.05.43.44.66-.11.15-.37-.24-.62-.22-.77.12-.83.15-3.65.55-3.95.67-.49,4.14.36,4.28.11-.11-1.18.15-2.59,0-3.73-.26-1.93-1.77-5.71-1.97-7.68-.07-.63.76-1.62.66-2.41s-.91-1.75-1.1-2.3c-.03-.09-.28-1.73-.22-1.97.56,1.27,1.64,3.63,1.75,4.94.06.75-.62.58-.44,1.86Z"/>
      <path class="cls-22" d="M141.27,105.82c-.12.95-.28,1.91-.44,2.85l-.66.11.66-10.09h-.88c-.7,2.19-1.69,3.95-3.51,5.37,2.64-1.04,5.38-13.82,6.14-13.82-.76,5.15-.64,10.42-1.32,15.58Z"/>
      <path class="cls-14" d="M142.81,106.04c-.14-.02-.41.03-.44,0-.22-.24-.09-.84-1.1-.22.68-5.16.55-10.42,1.32-15.58,1.2,0,.67,14.53.22,15.79Z"/>
      <path class="cls-26" d="M141.71,84.32c-.28.03-.59,0-.88,0l-9.43-4.83c2.17.12,2.76.54,4.72,1.32,1.46.58,5.12,2.17,5.59,3.51Z"/>
      <path class="cls-26" d="M74.36,106.92c-.03-.28-.43-.45-.44-.55-.04-.48.45-.28.44-.44-.18-2.29-.2-5.23-.22-7.57.87-.1.6.17.66.77.13,1.32.7,6.61.44,7.46-.07.23-.69-.27-.88.33Z"/>
      <g>
        <path class="cls-22" d="M124.38,77.3c-2.48.22-9.18,1.33-7.13,5.05,4.18-1.56,9.65-3.09,14.15-2.85l9.43,4.83c-5.02-.08-9.83-1.35-15.25-.88-7.68.66-11.82,4.87-20.4,3.95-3.09-.33-5.82-2.12-8.77-2.85-7.14-1.78-14.77-1.29-21.94,0-.63-.22-.32-4.52-.33-5.26.37.14.15.75.66.11,2.34-2.96,4.86-9.14,7.24-12.72,3.69-5.54,7.97-11.43,14.37-13.93.47.04,3.81,5.22,4.5,6.03,6.52,7.68,14.92,13.36,23.47,18.54Z"/>
        <path class="cls-33" d="M87.64,77.3c2.11-.17,13.35.42,11.08,4.72-7.01-1.82-14.92-4.17-21.61-.11,2.78-2.49,6.78-4.31,10.53-4.61Z"/>
      </g>
      <path class="cls-33" d="M128.99,77.3c.46.1,1.95,1.3,2.63,1.43-1.58,1.26-2.17-.07-2.3-.11-.59-.16-3.38-.07-2.3-1.32.59.03,1.46-.11,1.97,0Z"/>
      <g>
        <path class="cls-22" d="M136.45,104.07c1.82-1.42,2.81-3.19,3.51-5.37h.88l-.66,10.09.66-.11c-1.85,10.69-7.45,18.1-15.58,25.01-3.06,2.6-9.84,7.47-13.71,8.12-8.1,1.36-14.82-4.6-21.17-8.56-8.17-7.06-14.89-15.1-16.01-26.32.19-.6.81-.1.88-.33.26-.85-.31-6.14-.44-7.46-.06-.6.21-.87-.66-.77-.02-2.62-.09-5.29.11-7.9,2.07,4.5,2.55,11.51,7.02,14.48,3.6,2.39,12.82,2.3,16.67.44,6.44-3.12,5.7-12.94,8.99-14.7,4.62-2.47,5.86,8.46,7.79,11.3,4.05,5.98,16.42,6.23,21.72,2.08Z"/>
        <g>
          <path class="cls-9" d="M104.86,114.82c-.33-.73-1.03-.97-1.1,0-1.48-.72-.55-1.7.99-1.54.51.06,1.99,1.04,2.41,1.1,1.59.23,5.13-1.51,5.7-1.1.46.33.15,2.08-1.32,1.75-.77-.17.5-.88-.22-.88-2.48,3.03-3.81,1.41-6.47.66Z"/>
          <path class="cls-26" d="M104.86,114.82c-.05-.01-.2.44-1.1,0,.07-.97.77-.73,1.1,0Z"/>
          <g>
            <path class="cls-9" d="M116.92,127.76c-4.38,5.06-9.9,4.48-15.36,1.54-1.65-2.31-3.99-4.33-4.83-7.13l1.1.55c1.03.94,1.91,1.83,3.07,2.63,6.34,4.37,14.46,2.34,19.09-3.51.13,1.5-2.08,4.78-3.07,5.92Z"/>
            <path class="cls-9" d="M119.12,121.4c-.9.33-.71.27-1.32.88-6.22,1.11-12.42,1.04-18.65,0-.81-.73-1.68-1.07-2.63-1.54-.43-.21-1.42-1.39-.88,0-.21-.03-.85.74-1.43.22-1.35-1.22,1.61-3.76,2.08-1.65.04.17-1.03.32.55.99,7.74-.26,15.73-.44,23.36.11l-1.1.99Z"/>
            <path class="cls-26" d="M101.57,129.29c5.45,2.94,10.98,3.52,15.36-1.54.07,1.14-1.86,2.72-2.74,3.29-4.13,2.66-8.5,2.08-12.28-.88l-.99-.99c-.01-.59.43-.01.66.11Z"/>
            <path class="cls-15" d="M119.99,121.84c-4.62,5.85-12.74,7.88-19.09,3.51l.44-.44c3.74,2.89,10.41,3.12,14.15.22,1.16-.9,1.53-2.07,2.3-2.85.61-.61.42-.55,1.32-.88.36-.13.49-.58.99-.44.28.31-.15.45-.11.88Z"/>
            <path class="cls-24" d="M99.15,122.28c.67.61,1.01,1.72,2.19,2.63l-.44.44c-1.17-.8-2.04-1.7-3.07-2.63-.33-.3-1.3-1.63-1.54-1.75l.22-.22c.95.46,1.82.8,2.63,1.54Z"/>
            <path class="cls-30" d="M96.52,120.74l-.22.22c-.27-.15-.34-.17-.66-.22-.54-1.39.45-.21.88,0Z"/>
            <path class="cls-18" d="M117.8,122.28c-.78.78-1.15,1.96-2.3,2.85-3.74,2.9-10.41,2.67-14.15-.22-1.19-.92-1.53-2.03-2.19-2.63,6.23,1.04,12.42,1.11,18.65,0Z"/>
          </g>
        </g>
      </g>
      <g>
        <path class="cls-29" d="M74.36,77.96c.03.23-.22.79-.22,1.32,0,.75-.3,5.05.33,5.26,7.17-1.29,14.8-1.78,21.94,0,2.96.74,5.69,2.52,8.77,2.85,8.58.92,12.73-3.29,20.4-3.95,5.42-.47,10.23.79,15.25.88.29,0,.59.03.88,0,.54-.05,1.15.21,1.54-.33v-5.7c.41-.65.71-.07.88-.11v29.72c.05.19.61.48.66.55.8,1.11.94.95,2.19,1.1.19,10.97-1.14,22.2-12.28,26.98l-9.21-1.97c-.06-.32.05-.55-.22-.88,8.13-6.91,13.72-14.32,15.58-25.01.16-.94.31-1.9.44-2.85,1.01-.62.87-.03,1.1.22-1.34-.13-.02,1.04.44,0,.45-1.26.98-15.8-.22-15.79-.77,0-3.51,12.78-6.14,13.82-5.3,4.14-17.67,3.89-21.72-2.08-1.92-2.84-3.17-13.77-7.79-11.3-3.29,1.76-2.55,11.58-8.99,14.7-3.85,1.86-13.07,1.95-16.67-.44-4.47-2.96-4.95-9.98-7.02-14.48-.19,2.61-.13,5.28-.11,7.9.02,2.34.04,5.27.22,7.57.01.16-.48-.04-.44.44,0,.1.41.27.44.55,1.13,11.22,7.85,19.27,16.01,26.32.03.51-.04,1.03,0,1.54l-8.99.44c-7.27-6.01-9.46-16.83-10.97-25.67,1.04-.28,1.62-.94,2.19-1.86.1-8.37-.14-16.75,0-25.12.02-.92-.29-4.45-.22-4.83.23-1.2,1.73-1.44,1.97.22Z"/>
        <path class="cls-20" d="M142.37,106.04s.3-.02.44,0c-.46,1.04-1.78-.13-.44,0Z"/>
        <g>
          <path class="cls-22" d="M127.56,85.2c2.2-.12,9.57-.04,11.08,1.43,3.2,3.1-.11,14.61-3.4,17.22-4,3.18-15.58,2.57-18.98-1.65-1.72-2.13-3.63-8.55-3.07-11.19.81-3.87,11.08-5.63,14.37-5.81Z"/>
          <path class="cls-18" d="M123.5,95.73c-1.22,1.08-3.67.1-5.16.22-.08-.04.08-1.16.11-1.32.32-1.57,3.86-5.96,5.26-3.62.84,1.39-1.62,2.58-2.3.99l-.33.33c.57,1.28.88,2.9,2.41,3.4Z"/>
          <path class="cls-18" d="M131.62,94.85c-1.27.6-2.36.73-3.73.88,2.67-1.41,3.02-3.58,2.3-6.36,1.78.6,3.3,1.52,4.5,2.96-.8,1.25-1.76,1.9-3.07,2.52Z"/>
          <path class="cls-26" d="M135.35,88.71c-4.88-.79-10.97-3.37-15.14,1.1-1.18-.55,1.68-2.87,1.86-2.85.59.07.18.59.44.66.16.05.38-.65.44-.66.15-.01-.01.52.44.44.75-.14,2.07-1.08,2.19-1.1,1.51-.19,5.84.63,7.46,1.1.34.1,2.46.73,2.3,1.32Z"/>
          <g>
            <path class="cls-4" d="M135.35,88.71c.23.04.77-.11.88.11l-.77.55,2.3-.11-1.32.66,1.1.22c.77.94-4.18,5.77-5.92,4.72,1.32-.62,2.27-1.27,3.07-2.52-1.2-1.44-2.72-2.36-4.5-2.96.72,2.79.36,4.95-2.3,6.36-1.48.16-2.9.48-4.39,0s-1.85-2.12-2.41-3.4l.33-.33c.68,1.59,3.14.41,2.3-.99-1.41-2.34-4.94,2.05-5.26,3.62l-.77.66c-.5-.19,2.08-5.01,2.52-5.48,4.17-4.47,10.25-1.88,15.14-1.1Z"/>
            <path class="cls-16" d="M126.68,91.56c.22.02,1.58,2.01,3.18.11,1.24,4.65-8.35,4.76-8.12,1.54.04-.52,1,.11,1.43-.11.3-.15.87-1.03,1.1-1.1.12-.04,2.29-.45,2.41-.44Z"/>
            <path class="cls-18" d="M128,89.37c1.88-.32,2.15,2.23.88,2.63-1.98.62-2.59-2.34-.88-2.63Z"/>
          </g>
        </g>
        <g>
          <path class="cls-22" d="M85,85.2c3.87-.11,17.31,1.16,18.32,5.81,1.16,5.33-2.99,13.17-8.67,14.37-9.27,1.95-15.35-.23-17.44-9.76-1.76-8.02-.37-10.19,7.79-10.42Z"/>
          <path class="cls-26" d="M96.74,90.9c-3.88-5.49-9.87-3.24-15.14-2.19.16-.64-.77-.33-.11-.66.42-.21,5.4-1.94,5.7-1.97.15-.02.07.46.22.44,1.25-.19,1.7.02,2.85,0,.11,0-.04-.6.88-.66,1.77-.12,6.08,2.74,5.59,5.05Z"/>
          <path class="cls-18" d="M98.06,94.63c.01.06-.17.98.11,1.32-1.79.55-3.6.02-5.37,0,1.81-1.63,1.81-3.2,1.86-5.48,1.24.9,3.05,2.65,3.4,4.17Z"/>
          <g>
            <path class="cls-4" d="M96.74,90.9c.87,1.24,1.58,2.87,1.97,4.28l-.66-.55c-.35-1.52-2.16-3.27-3.4-4.17-.06,2.28-.06,3.86-1.86,5.48-1.93-.02-3.53.43-5.48-.44-3.35-1.5-1.54-5.76-1.86-5.92-3.54,1.88-5.37,3.08-.77,5.26-2.07.86-8.43-4.94-4.39-4.94l-1.43-.77,1.75.22-.66-.66c.51-.07,1.18.09,1.65,0,5.27-1.04,11.26-3.29,15.14,2.19Z"/>
            <path class="cls-18" d="M87.31,95.51c-.82.29-1.91-.32-2.63-.66-4.6-2.19-2.77-3.39.77-5.26.33.16-1.49,4.42,1.86,5.92Z"/>
            <path class="cls-16" d="M87.09,93.32c.4-.25,1.03-.85,1.1-.88,2.89-.98,3.47,1.12,5.59,0l.33.55c-.38.55-.98,2.31-1.65,2.52-.22.07-4.39.07-4.61,0-.13-.04-1.96-1.74-1.86-1.86.44-.18.62-.03,1.1-.33Z"/>
            <path class="cls-18" d="M92.24,90.03c2.13-.67,2.43,2.42.66,2.63-1.65.2-1.88-2.25-.66-2.63Z"/>
            <path class="cls-18" d="M88.18,92.44c-.07.02-.7.63-1.1.88-3.75-1.01.64-4.58,1.1-.88Z"/>
          </g>
        </g>
      </g>
    </g>
  </g>
</svg>