<?xml version="1.0" encoding="UTF-8"?>
<svg id="Layer_1" data-name="Layer 1" xmlns="http://www.w3.org/2000/svg" viewBox="0 0 216.48 284.55">
  <defs>
    <style>
      .cls-1 {
        fill: #e8757e;
      }

      .cls-2 {
        fill: #2a0702;
      }

      .cls-3 {
        fill: #5b3735;
      }

      .cls-4 {
        fill: #380b00;
      }

      .cls-5 {
        fill: #7b2d1a;
      }

      .cls-6 {
        fill: #8f2d00;
      }

      .cls-7 {
        fill: #fffeff;
      }

      .cls-8 {
        fill: #c56d45;
      }

      .cls-9 {
        fill: #e59876;
      }

      .cls-10 {
        fill: #42657c;
      }

      .cls-11 {
        fill: #612510;
      }

      .cls-12 {
        fill: #1f0604;
      }

      .cls-13 {
        fill: #9e4e2e;
      }

      .cls-14 {
        fill: #d7815b;
      }

      .cls-15 {
        fill: #341a1a;
      }

      .cls-16 {
        fill: #ec8a26;
      }

      .cls-17 {
        fill: #f9a13b;
      }

      .cls-18 {
        fill: #405358;
      }

      .cls-19 {
        fill: #16191a;
      }

      .cls-20 {
        fill: #234e65;
      }

      .cls-21 {
        fill: #e1e7e8;
      }

      .cls-22 {
        fill: #d8445c;
      }

      .cls-23 {
        fill: #de7a1c;
      }

      .cls-24 {
        fill: #550603;
      }

      .cls-25 {
        fill: #c7cccd;
      }

      .cls-26 {
        fill: #8d3d24;
      }

      .cls-27 {
        fill: #b1b9b7;
      }

      .cls-28 {
        fill: #b16041;
      }
    </style>
  </defs>
  <g id="Generative_Object" data-name="Generative Object">
    <g>
      <path class="cls-12" d="M139.97,154.66c-.24-.08-.72.08-.95,0-.25-.09-1.58-1.27-1.69-1.26-.52.05-1.38,3.59-6.01,2.53,1.34-.17,4.81-.28,5.27-2,.03-.13-.56-2.42-.63-2.53-.54-.86-2.02-1.45-2.95-1.16,3.64-4.2,6.73-8.66,8.43-14.02.84-2.66-.26-4.47,2.95-5.8,4.81-2.64,7.39-16.27,5.9-21.08-.05-.16-.14-.27-.21-.42-.8-1.64-2.17-1.93-3.79-1.58,1.32-4.54-.2-4.74-4.01-5.16-.36-.63-.19-1.41-.21-2.11-.31-12.94-5.1-29.39-21.4-26.77v-4.01l-5.16,1.69c-.03-.05-.41.42-.63-.11-.17-.4-.14-3.12-.53-3.27l-4.85,5.27-1.48-6.32-3.16,6.32-2.95-4.22c-.36,1.17-1.23,2.03-1.79,2.95l-4.95-2.32v4.01c-4.28-.13-8.88.09-12.65,2.32-6.87,4.07-9.06,16.68-9.59,24.03-.06.8-.19,1.98,0,2.74-2.45.46-4.88,1.31-3.37,4.53.55,1.18,1.24.09,1.9,3.06l-.63-.42c-1.27-2.3-4.7-2.21-5.9,0-2.28,4.17,1.48,20.81,7.8,21.71,1.76,9.94,6.85,16.24,14.33,22.56-.61.87-4.67,3.11-5.27,2l.42-1.9c-.47-.73-.48.36-.74.32-.44-.08-.17-1.07-.63-1.26-1.61,1.57-4.03,1.89-5.38-.21.02,0-.07-.41.11-.42.08,0,.23,1.04.74.32-.02-1.89-2.09-1.39-.21-3.79-3.39-.25-1.81-1.19-2.74-2.74-.32-.54-1.64-.93-1.69-1.05-.18-.48,1.39-3.23.21-5.06-1.59-2.47-7.51.13-8.01-4.85-.12-1.23.56-3.59.21-4.64-.24-.72-2.6-1.05-2.74-1.69-.21-.95,2.18-3.25,2.11-4.01-.03-.33-3.65-4.71-4.64-4.43,3.17-2.98.61-2.83.21-5.48-.56-3.7,1.91-4.22,2.11-5.48.25-1.59-1.75-1.61-1.9-2.11-.2-.68,1.01-.81.84-2.11-.23-1.75-1.82-3.37-1.26-6.11.41-2.01,3.13-2.26,3.37-3.16.16-.6-.55-1.48-.42-1.9s2.07-.63,1.69-2.11c-.12-.47-2.52-1.53-2.74-2.74-.27-1.48,1.17-3.19,1.48-4.64.1-.48-.43-1-.42-1.05.15-.95,1.6-.33,2.21-.53.99-.32.88-4.45,1.9-4.85.38-.15,1.48.14,1.9,0,.58-.19,1.03-2.28,1.9-2.53.92-.26,1.95.29,2.95-.42,1.27-.91.26-2.31.84-2.53.66-.25,2.47.45,2.85-.53.15-.38-.15-1.5,0-1.9.23-.62,4.11-1.27,5.16-2,.76-.53,1.91-2.66,2.32-2.74.75-.15,1.3.92,2.74,0,.63-.4,1.22-2.05,1.69-2.32.99-.56,1.83.19,2.74,0s1.05-1.53,1.48-1.69c.51-.19,3.58-.02,4.64-.21.76-.14,1.48-.95,2.11-1.05,1.96-.33,4.44,1.05,6.32.63.16-.04.67-.8.84-.84.97-.25,2.94,1.06,3.79,1.05,1.15-.01,1.1-.74,1.48-.84,1.38-.38,5.11,2.94,6.75,2.95.13,0,.34-.66,1.05-.63.37.01,2.25,1.44,2.53,1.48.96.14,1.23-.75,2.11-.63.53.07,2.95,2.46,3.58,2.95.54.43,1.41.38,1.48.42.91.67,1,2.05,1.48,2.32,1.01.57,4.76.62,5.69,1.05,1.06.49,1.24,2.95,1.9,3.16.52.17,2.04-.49,2.74-.21,1.21.49-.9,6.17,1.48,6.96.55.18,2.49-.25,2.85.74s-.67,3.88,0,5.27c.25.52,1.37.73,1.48,1.05.26.77-1.34,2.22-.63,3.37.57.93,2.5.46,2.74,1.26.19.62-1.33,3.13-.84,4.22.26.59,1.25.17,1.58.32.59.26.17,1.32.32,1.58,1.15,2.01,2.99.81.42,4.43.23.71,1.86-.13,2.42.32.89.71-.8,1.47-.11,2.63.51.84,2.42.49,2.74,1.48.49,1.48-1.6,4.57-1.26,5.69.19.65,1.81.59,2.11,1.69.27,1,.27,6.93-.21,7.8-.61,1.1-2.29.98-3.06,1.58-2.07,1.62.68,3.8.32,5.59-.23,1.13-2.54,1.26-2.32,2.95.05.37,1.39,1.79,1.48,2.32.59,3.74-6.26.54-6.75,1.9,1.47,2.43.1,4.35-.21,6.53-.16,1.14.59,4.81-.95,4.95-.66.06-2.01-1.48-2.63-.32-.93,1.74,1.07,6.33-2.74,6.75-.03.09.7.46.84.53Z"/>
      <path class="cls-3" d="M71.25,149.81c-.11-.34-.18-.35-.21-.42-.46-.99-3.71-2.5-4.22-3.69-.34-.81.31-2.76-.32-3.27-.23-.19-2.99-.35-4.43-1.48s-1.7-3.5-1.9-3.58c-.63-.28-2.48.14-3.79-.63-.91-.53-1.29-1.77-1.9-2.53-.12-.15-.56.45-.74.11-.03-.07-.04-.87-.21-1.37-.7-2.02-2.05-3.49-.63-6.01.18-.32,1.7-1.56,1.69-1.69-4.79-1.72-9.26-7.22-6.96-12.44.19-.44,1.48-1.57,1.48-1.69,0-.22-2.12-2.42-2.53-3.58-.93-2.65-.74-5.96,1.05-8.22.52-.65,3.68-3.03,4.11-2.42-3.08,3.38-4.6,7.23-2.85,11.7.36.93,2.07,2.77,2.11,2.95.08.43-.62,1.46-.63,1.9-.18,5.62,2.44,8.7,7.38,10.96-2.4,2.04-3.03,9.99-.53,11.7,1.01.69,2.78.54,3.37.84s.9,1.88,1.37,2.42c1.46,1.68,3.58,2.23,5.69,2.32-.02,3.36.84,6.58,4.64,6.96l-1.05,1.16Z"/>
      <path class="cls-15" d="M53.54,132.95c.17.5.18,1.3.21,1.37.18.35.62-.26.74-.11.61.76.99,2,1.9,2.53,1.32.77,3.16.35,3.79.63.19.09.49,2.47,1.9,3.58s4.19,1.29,4.43,1.48c.62.51-.03,2.46.32,3.27.5,1.19,3.75,2.7,4.22,3.69-4.94,2.38-8.79-.76-8.01-6.01-2.19.09-6.02-.76-6.53-3.37-.13-.65.32-1.87.21-2.11-.22-.48-1.64-.27-2.21-.53-1.49-.66-2.04-3.24-1.16-4.64.03.04-.03.25.21.21Z"/>
      <path class="cls-15" d="M131.32,155.92c-2.33-.53-1.61-1.85-4.22-.42,1.23-.92,4.78-4.92,5.9-5.27.93-.29,2.41.3,2.95,1.16.07.11.67,2.4.63,2.53-.46,1.73-3.93,1.83-5.27,2Z"/>
      <g>
        <path class="cls-15" d="M160.2,142.43c.05-.04.59.09.32-.21-1.75-.13-.12-1.92-.11-2.42.03-.89-.58-2.09-.42-2.74.09-.38,2.15-1.82,2.32-2.53-.23-.43-3.72,2.31-3.79,2.53-.14.42.5,1.41.42,2.32-.05.59-1.06,1.94-1.05,2.32.01.58,1.21,2.24,1.05,3.48-.83,1.67-1.99,2.36-3.58,3.16-.92.46-2.72.76-2.85.84-.6.41-.56,4.09-3.37,4.64-1.15.23-3.08-.47-3.37-.42-1.44.24-1.12,2.59-5.59,1.48l.32-.21c-.16-.03-.43.05-.53,0-.14-.07-.87-.43-.84-.53,3.81-.41,1.81-5.01,2.74-6.75.62-1.16,1.98.38,2.63.32,1.54-.14.79-3.81.95-4.95.31-2.19,1.68-4.11.21-6.53.49-1.35,7.33,1.84,6.75-1.9-.08-.53-1.43-1.95-1.48-2.32-.22-1.69,2.09-1.83,2.32-2.95.36-1.79-2.39-3.96-.32-5.59.77-.6,2.45-.49,3.06-1.58.48-.87.48-6.8.21-7.8-.3-1.09-1.92-1.04-2.11-1.69-.33-1.12,1.75-4.22,1.26-5.69-.32-.98-2.23-.63-2.74-1.48-.7-1.16,1-1.93.11-2.63-.56-.45-2.2.39-2.42-.32,2.57-3.62.73-2.41-.42-4.43-.15-.26.28-1.32-.32-1.58-.33-.15-1.32.27-1.58-.32-.48-1.08,1.03-3.6.84-4.22-.24-.81-2.17-.34-2.74-1.26-.71-1.16.89-2.6.63-3.37-.11-.32-1.22-.53-1.48-1.05-.67-1.39.36-4.26,0-5.27s-2.3-.56-2.85-.74c-2.38-.78-.27-6.47-1.48-6.96-.7-.28-2.22.38-2.74.21-.65-.21-.83-2.67-1.9-3.16-.93-.43-4.69-.48-5.69-1.05-.47-.27-.56-1.65-1.48-2.32-.06-.05-.93,0-1.48-.42-.63-.49-3.06-2.88-3.58-2.95-.88-.12-1.15.77-2.11.63-.28-.04-2.16-1.46-2.53-1.48-.72-.02-.92.63-1.05.63-1.63-.01-5.36-3.33-6.75-2.95-.38.1-.33.83-1.48.84-.86.01-2.83-1.3-3.79-1.05-.17.04-.68.81-.84.84-1.89.42-4.37-.97-6.32-.63-.62.11-1.35.92-2.11,1.05-1.06.19-4.13.02-4.64.21-.43.16-.58,1.5-1.48,1.69s-1.75-.56-2.74,0c-.47.27-1.05,1.91-1.69,2.32-1.44.92-1.99-.15-2.74,0-.41.08-1.56,2.21-2.32,2.74-1.06.73-4.94,1.39-5.16,2-.15.39.15,1.52,0,1.9-.38.98-2.18.28-2.85.53-.59.22.43,1.62-.84,2.53-1,.71-2.03.16-2.95.42-.87.25-1.31,2.34-1.9,2.53-.42.14-1.52-.15-1.9,0-1.02.4-.91,4.53-1.9,4.85-.61.2-2.07-.42-2.21.53,0,.06.52.58.42,1.05-.31,1.45-1.75,3.16-1.48,4.64.22,1.21,2.62,2.27,2.74,2.74.38,1.48-1.56,1.68-1.69,2.11s.58,1.3.42,1.9c-.24.9-2.96,1.15-3.37,3.16-.56,2.75,1.04,4.36,1.26,6.11.17,1.3-1.04,1.43-.84,2.11.15.5,2.15.52,1.9,2.11-.2,1.26-2.66,1.78-2.11,5.48.4,2.65,2.96,2.5-.21,5.48.98-.28,4.61,4.1,4.64,4.43.07.76-2.32,3.06-2.11,4.01.14.64,2.5.96,2.74,1.69.35,1.05-.33,3.41-.21,4.64.5,4.98,6.42,2.38,8.01,4.85,1.18,1.83-.39,4.58-.21,5.06.04.12,1.36.51,1.69,1.05.93,1.55-.65,2.49,2.74,2.74-1.88,2.41.19,1.9.21,3.79-.51.72-.65-.32-.74-.32-.17.01-.08.42-.11.42-1.45.12-3.6.28-4.22-1.37-.27-.71.1-1.27,0-1.58l1.05-1.16c-3.8-.38-4.65-3.59-4.64-6.96-2.11-.09-4.23-.64-5.69-2.32-.47-.54-.78-2.12-1.37-2.42s-2.36-.15-3.37-.84c-2.5-1.71-1.87-9.66.53-11.7-4.94-2.27-7.56-5.35-7.38-10.96.01-.44.72-1.47.63-1.9-.03-.18-1.74-2.03-2.11-2.95-1.76-4.47-.23-8.32,2.85-11.7-.43-.6-3.59,1.77-4.11,2.42-1.79,2.26-1.98,5.57-1.05,8.22.41,1.16,2.53,3.36,2.53,3.58,0,.11-1.28,1.25-1.48,1.69-2.31,5.22,2.17,10.72,6.96,12.44.01.12-1.5,1.36-1.69,1.69-1.42,2.51-.07,3.99.63,6.01-.24.04-.18-.17-.21-.21-.67-1-3.99.51-5.69-2.63-.11-.2.11-1.04,0-1.26-.25-.53-2.18-.06-.84-2.53-.18-.63-2.3.5-2.74-.63-.24-.62.29-2.05.21-2.32s-.72-.34-.84-.63c-.17-.44.25-1.2.21-1.26-.11-.16-2.33.07-2.95-1.26-1.19-2.55,2.08-3.21,1.69-4.64-.21-.76-3.06-.45-2.53-3.79.32-2,3.3-2.89,3.16-3.79-5.02-2.96-5.23-8.41.63-10.33-2.22-2.7-4.62-7.52-1.16-10.22,1.65-1.29,3.93-.49,4.32-2.85-6.92-3.43-2.85-10.81,3.37-11.8-4.56-7.26,2.74-10.86,8.85-12.02-4.31-6.42,5.15-14.22,11.07-10.43.66-3.34,3.36-7.33,6.96-4.64.78-4.44,4.76-6,8.64-4.01,1.88-6.95,8.76-9.58,14.97-6.11.5.28,2.56,2.32,2.74,2.32.14,0,.42-.75,1.05-.63.29.05.75,1.18,1.48,1.05.66-.12,1.34-3.17,2.95-4.01,3.97-2.06,10.01.23,12.02,4.22,2.76-4.41,8.33-2.91,9.49,1.9,5.58-3.12,9.98.71,10.96,6.32,7.23-2.2,13.25,1.68,12.12,9.59,5.03.81,9.92,2.72,7.59,8.85,6.11-.56,7.11,5.61,5.27,10.12,6.62,1.22,6.6,6.92,3.16,11.59,1.11.9,2.67,1.61,3.58,2.74,3.5,4.33-.63,5.15-.63,5.69,0,.11.8.68.84.84.74,2.92-5.37,4.28-5.06,5.27,2.3.59,7.47,3.16,6.53,6.11-.26.81-2.07.97-2.11,1.26-.04.32,1.74.67,0,3.37-.5.78-2.76,2.35-2.95,2.74-.41.84,1.11,1.77-.84,2.32,3.67,1.33,5.88,4.4,3.37,8.01-.44.64-2.3,1.75-2.32,1.9-.01.07.86.8.84,1.05-.05.58-2.28,1.26-2.32,1.48-.02.1,1.08,1.06,1.26,1.69,1.42,4.68-4.13,5.5-4.22,5.9-.02.07.79.93.84,1.26.5,3.22-3.57,5.13-6.11,3.9Z"/>
        <g>
          <path class="cls-15" d="M160.2,142.43c-1.23.91-.32,1.52-.84,2.63-.09.19-.41.08-.42.11.16-1.24-1.04-2.9-1.05-3.48,0-.38,1-1.72,1.05-2.32.08-.91-.56-1.9-.42-2.32.07-.22,3.56-2.96,3.79-2.53-.17.71-2.22,2.15-2.32,2.53-.16.65.45,1.85.42,2.74-.02.5-1.65,2.29.11,2.42.27.3-.26.17-.32.21Z"/>
          <path class="cls-15" d="M155.36,148.33c1.6-.81,2.76-1.5,3.58-3.16-.2,1.57-1.84,3.04-3.58,3.16Z"/>
          <path class="cls-12" d="M140.18,154.87c-.29-.07-.2-.21-.21-.21.1.05.37-.03.53,0l-.32.21Z"/>
          <path class="cls-3" d="M160.62,100.9c.47-1.43,3.81-6.46,3.79-6.85-.02-.41-2.18-2.3-2.63-2.63-.03-.03-.39.43-.84,0-1.95-1.83,2.79-6.2-1.05-8.85-1.03-.71-3.99-.87-4.32-2-.84-2.85,2.49-7.81-1.79-10.43-1.1-.67-6.38-1.63-6.22-.11.14,1.3,3.82,1.32,4.53,1.58,2.91,1.08,2.14,8.17,2.21,10.65.36.93,3.24.02,4.01,2.11s-.81,7.85-.63,8.22c.1.21,1.51.49,1.79.74,1.78,1.52,1.58,5.41.74,7.38-.47,1.11-1.94,2.85-3.16,3.27,1.76-1.87,2.89-5.93,1.69-8.22-.59-1.13-2.53-1.47-2.74-2.11-.45-1.38,1.63-5.14,1.05-7.38-.49-1.91-4.58-1.68-5.27-4.01s1.26-5.48,0-7.59c-.86-1.44-3.95-1.5-5.38-2.42-3.62-2.35-1.08-8.57-3.9-12.54-2.67-3.76-5.16-.29-7.69-1.37-2.13-.91-3.1-6.71-5.9-7.59-4.45-1.39-7.39,3.12-10.75,2.53-1.36-.24-4.75-3.81-6.32-4.64-2-1.05-4.51-1.68-6.75-1.05-.88.25-2.73,2.11-2.95,2.11-.44,0-1.57-1.79-2.95-1.48-1.46.33-.95,3.71-2.11,4.01-.56.14-3.94-2.08-5.27-2.32-2.44-.44-6.89.05-8.33,2.42-.5.83-.95,4.31-1.58,4.53-1.41.5-1.77-2.52-4.22-1.69-2.09.72-1.13,4.86-2.95,5.69-1.99.91-5-.52-7.8,1.48s-2.35,5.76-3.9,8.12c-.81,1.22-2.51,1.9-3.16,4.01-.55,1.76-.02,5.36-.42,6.11-.23.44-5.14,2.63-6.22,3.48-4.09,3.23-5.1,7.57-2.53,12.23-5.63-3.93-5.12-11.81.42-15.6,1.03-.71,5.89-2.31,6.01-2.63.3-.82-.09-3.4.42-5.06.74-2.37,4.11-4.54,4.22-4.85.68-1.94-.95-4.03,1.58-6.43s9.44-2.6,10.33-3.37c.55-.47,0-3.25,2.11-4.64,2.78-1.84,5.2.09,5.48,0,.34-.11.38-1.64.74-2.21,2.37-3.78,9.66-5.49,13.6-3.48.67-.26-1-5.64,2.95-5.06.35.05,1.79,1.24,1.9,1.26,1.03.23,4.24-2.03,6.53-1.9,4.14.24,7.48,5.66,9.91,6.11,3.6.67,6.09-4.5,11.38-1.9,2.36,1.16,5.25,7.06,6.32,7.38,2.15.64,3.91-1.65,7.38.63,3.94,2.6,4.43,8.07,5.48,12.23,2.56-1.38,6.32-1.78,8.33.74,2.43,3.06,1.05,10.36,2.32,11.8.47.54,3.28.72,4.32,1.37,3.34,2.07,1.29,7.23-.95,9.38,9.3.51,5.43,7.53.84,11.38,3.02,3.84,4.91,5.73,3.58,10.96-.32,1.26-2.74,4.97-2.74,5.27,0,.48.63.58.63,1.05-.53-.65-1.86-.32-1.9-.42-.4-1.08,3.01-9.52,1.69-11.8-1.43-2.46-4.55-.77-2.95-5.59Z"/>
          <path class="cls-3" d="M160.62,100.9l-.42-.21c.84-1.96,1.04-5.86-.74-7.38-.28-.24-1.69-.52-1.79-.74-.18-.37,1.43-6.04.63-8.22s-3.64-1.17-4.01-2.11c-.08-2.48.7-9.56-2.21-10.65-.71-.27-4.39-.28-4.53-1.58-.17-1.52,5.12-.57,6.22.11,4.28,2.62.95,7.58,1.79,10.43.34,1.13,3.29,1.29,4.32,2,3.85,2.65-.89,7.02,1.05,8.85.45.43.81-.03.84,0,.45.33,2.62,2.22,2.63,2.63s-3.32,5.43-3.79,6.85Z"/>
          <path class="cls-15" d="M165.37,120.09c3.13,1.95-.7,5.21-.74,5.59-.04.34.85.99.84,1.26-.02.74-1.43.97-1.48,1.05-.22.42.55,5.95-.74,4.95-.26-.82.25-1.53.11-2.42-.11-.69-1.09-2.6-1.05-2.74.06-.25,1.25-.7,1.48-1.05.1-.16-.39-.57-.21-.84.33-.51,1.58-1.07,1.9-2.11.43-1.42-.21-2.35-.11-3.69Z"/>
        </g>
      </g>
    </g>
    <g>
      <path class="cls-25" d="M130.48,185.01c-.31.84-.71,1.6-1.05,2.42l-21.19,31.72-1.16-1.16c-5.21-10.68-15.46-20.84-20.45-31.3.99.84,3.83,1.52,4.64,2.11.09.07.32.32.42.42.6.59,2.58,4.84,3.37,6.01,4.02,5.94,7.97,11.87,11.7,18.02,6.12-9.34,13.71-17.57,20.55-26.35.17-.22.34-.52.42-.63l2.74-1.26Z"/>
      <path class="cls-7" d="M127.32,186.91c-6.84,8.78-14.43,17.01-20.55,26.35-3.73-6.15-7.67-12.08-11.7-18.02-.79-1.17-2.78-5.42-3.37-6.01,11.74,4.25,24.6,3.59,35.62-2.32Z"/>
    </g>
    <g>
      <path class="cls-17" d="M111.3,226.75c1.82,8.63.56,17.66-.21,26.35-1.47,0-2.95,0-4.43,0l.42-3.58c1.44,2.7,4.88-3.45,0-1.9-.29-6.33-.16-14.95.84-20.87.7,1.4,2.8,1.48,3.37,0Z"/>
      <path class="cls-23" d="M168.21,253.1c-2.88,0-5.76,0-8.64,0l3.9-20.66,4.74,20.66Z"/>
      <path class="cls-23" d="M56.7,253.1c-2.88,0-5.76,0-8.64,0l4.74-20.45,3.9,20.45Z"/>
      <path class="cls-23" d="M66.61,209.68c-.3.69-.83,1.2-.63,2.11-.03.02.02.72-.42.53-.24-8.26.43-16.49,2.11-24.56.03-.02.6-.4.63-.42l-1.69,22.34Z"/>
      <path class="cls-23" d="M111.72,253.1c-.21,0-.42,0-.63,0,.77-8.69,2.03-17.72.21-26.35.4-1.03-.06-1.22-.21-2.11-.35-2.01-.01-2.52-2.32-3.48-.15-1.04,2.74,1.45,2.95,1.9.49,1.03.93,5.58,1.05,6.96.67,7.7-.28,15.44-1.05,23.08Z"/>
      <path class="cls-23" d="M131.75,169.41c.04,1.12-.05,2.26,0,3.37l-4.85-2.11c-.36-1.12-.58-1.3-.84-2.74,1.76.39,4.07.72,5.69,1.48Z"/>
      <path class="cls-23" d="M90.22,167.94c-.14.71-.21,1.4-.42,2.11-.06.2-.14.43-.21.63l-5.06,2.11c.03-1,.13-2.22-.21-3.16,1.86-.89,3.91-1.24,5.9-1.69Z"/>
      <path class="cls-23" d="M65.98,211.78c-.2-.91.33-1.42.63-2.11,2.88-6.48,10.46-12.86,16.34-16.65l23.08,24.14c-4.44-3.46-8.45-7.48-12.96-10.86-1.19-.89-8.25-6.01-9.06-6.11-3.04-.38-11.55,5.03-13.91,7.17-1.51,1.36-2.63,3.14-4.11,4.43Z"/>
      <path class="cls-23" d="M149.87,208.83c1.46-.27.06-3.3.84-4.22.11,2.52.31,5.09-.11,7.59-2.49-3.07-5.31-6.06-8.64-8.22-1.65-1.07-8.43-4.49-10.12-4.22-.64.1-7.77,5.48-8.85,6.32-4.35,3.41-8.19,7.46-12.54,10.86l22.87-23.93c6.65,3.96,12.72,9.62,16.34,16.55.86.29.21-.57.21-.74Z"/>
      <path class="cls-6" d="M131.75,172.79c.09,1.95.13,3.51,0,5.48-2.59-1.97-3.88-4.61-4.85-7.59l4.85,2.11Z"/>
      <path class="cls-6" d="M89.59,170.68c-1.03,3.01-1.99,4.02-4.01,6.32-.32.37-.58.84-1.05,1.05-.12-1.86-.06-3.42,0-5.27l5.06-2.11Z"/>
      <path class="cls-25" d="M111.09,224.64c.15.89.61,1.08.21,2.11-.58,1.48-2.67,1.4-3.37,0,.03-.16-.38-.7,0-1.48.66-1.34,2-1.19,3.16-.63Z"/>
      <path class="cls-25" d="M107.08,249.52c-.51-.95.02-1.4,0-1.9,4.88-1.55,1.44,4.59,0,1.9Z"/>
      <g>
        <path class="cls-17" d="M148.19,187.33c-.6.4-.48,1.18-.42,1.79.62,6.63,2.17,12.83,2.11,19.71,0,.16.65,1.03-.21.74-3.62-6.92-9.69-12.59-16.34-16.55l-22.87,23.93c4.35-3.4,8.19-7.45,12.54-10.86,1.08-.85,8.21-6.22,8.85-6.32,1.69-.28,8.46,3.14,10.12,4.22,3.33,2.16,6.15,5.15,8.64,8.22.42-2.5.21-5.07.11-7.59-.25-5.72-.86-11.53-2.32-17.07,7.16,2.76,14.71,4.92,21.82,7.8,11.66,4.73,14.33,9.43,17.18,21.61s3.4,23.99,4.43,35.84c-7.84.59-15.75.3-23.61.32l-4.74-20.66-3.9,20.66c-15.95.03-31.9,0-47.85,0,.78-7.64,1.72-15.39,1.05-23.08-.12-1.38-.56-5.93-1.05-6.96-.21-.44-3.1-2.94-2.95-1.9,2.31.96,1.97,1.47,2.32,3.48-1.17-.56-2.5-.71-3.16.63l-.32-1.69-.32,1.16-1.26,28.35c-16.44,0-32.89.04-49.33,0l-3.9-20.45-4.74,20.45c-7.79-.03-15.63.28-23.4-.32.53-7.67,1.05-15.37,2.11-22.98s2.7-20.98,7.38-26.77c7.24-8.96,23.57-10.36,33.52-15.28-1.68,8.07-2.35,16.3-2.11,24.56.44.19.4-.5.42-.53,1.48-1.28,2.6-3.06,4.11-4.43,2.36-2.14,10.87-7.55,13.91-7.17.82.1,7.87,5.22,9.06,6.11,4.51,3.38,8.53,7.4,12.96,10.86l-23.08-24.14c-5.88,3.79-13.46,10.17-16.34,16.65l1.69-22.34c1.22-1.15.86-5.04,1.69-6.64.41-.8,13-10.42,14.33-11.07.34.94.24,2.16.21,3.16-.06,1.85-.12,3.41,0,5.27.21,3.22.72,5.74,2.11,8.64,4.99,10.47,15.24,20.63,20.45,31.3l1.16,1.16,21.19-31.72c.35-.82.74-1.59,1.05-2.42.38-1.02.62-2.1.84-3.16.27-1.28.34-2.29.42-3.58.13-1.97.09-3.53,0-5.48-.05-1.12.04-2.25,0-3.37,1.27.59,14.35,10.44,14.76,11.28.53,1.09.63,4.84,1.05,6.32.1.36.62.28.63.32Z"/>
        <g>
          <path class="cls-23" d="M148.4,187.54c1.45,5.54,2.07,11.35,2.32,17.07-.78.91.62,3.95-.84,4.22.06-6.88-1.49-13.08-2.11-19.71-.06-.61-.18-1.4.42-1.79,0,.01.13-.08.21.21Z"/>
          <path class="cls-23" d="M107.93,225.27c-.38.78.03,1.32,0,1.48-1.01,5.92-1.13,14.54-.84,20.87.02.5-.51.95,0,1.9l-.42,3.58c-.21,0-.42,0-.63,0l1.26-28.35.32-1.16.32,1.69Z"/>
          <path class="cls-23" d="M176.96,199.77c.37-.07.62.4.53.74l-10.86,22.24c.69-2.68,9.09-22.74,10.33-22.98Z"/>
          <path class="cls-23" d="M39.1,199.77c.97-.71,10.12,20.18,10.12,21.71l-10.12-21.71Z"/>
          <path class="cls-23" d="M157.25,232.65c0-1.56.44-3.25.21-4.85.21.02.43-.52.84.11-.5,4.66.18,9.75-.21,14.33-.02.25-.12,2.29-.63,2.11.23-3.89-.21-7.83-.21-11.7Z"/>
          <path class="cls-16" d="M49.64,222.11c.14-.03.54.65.21.84-.13.08-.54-.77-.21-.84Z"/>
          <g>
            <path class="cls-10" d="M157.46,227.8c.22,1.6-.21,3.29-.21,4.85h-2.74c-8.46,0-19.72.85-27.83,0-.21-.02-.23-.22-.42-.21.02-.65-.11-4.49.11-4.64h14.44c-.02.06.02.14,0,.21-.15.57-.54,3.14.11,3.37.34.09.71-.63.84-.63,3.37-.08,8.05-.12,11.38,0,.05,0,.25.89.84.63.39-.17.78-3.08-.32-3.37v-.42c1.18.45,2.56.11,3.79.21Z"/>
            <path class="cls-20" d="M153.67,227.59v.42c-2.93-.78-9.53.58-12.86,0,.02-.07-.02-.15,0-.21.03-.09.7-.44.53-1.48h12.44c-.09.42-.11.83-.11,1.26Z"/>
            <path class="cls-23" d="M126.69,232.65v11.59l-.42.11c.07-3.97-.1-7.95,0-11.91.19-.01.21.19.42.21Z"/>
            <g>
              <path class="cls-7" d="M154.51,232.65l-.11,11.59h-27.72v-11.59c8.1.85,19.36,0,27.83,0Z"/>
              <polygon class="cls-25" points="131.01 240.24 141.13 240.24 150.93 240.56 140.92 240.66 131.01 240.24"/>
              <path class="cls-27" d="M131.01,236.45c6.62.34,13.32-.49,19.92.32l-10.01.11-9.91-.42Z"/>
            </g>
            <g>
              <path class="cls-21" d="M153.67,228.01c1.09.29.7,3.2.32,3.37-.59.26-.79-.63-.84-.63-3.33-.12-8.02-.08-11.38,0-.13,0-.5.73-.84.63-.64-.23-.25-2.8-.11-3.37,3.33.58,9.93-.78,12.86,0Z"/>
              <path class="cls-18" d="M142.18,229.7c2.87-.51,8.03.13,11.07.32l-11.7.11c-.1-.17.59-.41.63-.42Z"/>
            </g>
          </g>
        </g>
      </g>
    </g>
    <g>
      <g>
        <path class="cls-28" d="M126.05,167.94c.26,1.44.48,1.62.84,2.74.97,2.97,2.26,5.62,4.85,7.59-.09,1.29-.16,2.3-.42,3.58-1.19,1.47-2.44,2.93-3.58,4.43-.08.11-.25.41-.42.63-11.03,5.9-23.88,6.57-35.62,2.32-.1-.1-.33-.35-.42-.42l-5.69-11.8c2.02-2.3,2.98-3.32,4.01-6.32.07-.2.15-.43.21-.63,12.55-.77,27.21-1.88,35.62-12.44-.44,2.8.12,7.49.63,10.33Z"/>
        <path class="cls-26" d="M125.63,156.77s-.2.74-.21.84c-8.41,10.56-23.08,11.67-35.62,12.44.21-.7.28-1.4.42-2.11.75-3.74.98-7.37.63-11.17,7.38,5.41,14.56,9.34,23.93,6.11l10.86-6.11Z"/>
        <path class="cls-26" d="M91.27,188.81c-.81-.59-3.65-1.27-4.64-2.11-1.39-2.91-1.9-5.42-2.11-8.64.47-.22.73-.69,1.05-1.05l5.69,11.8Z"/>
        <path class="cls-13" d="M130.48,185.01l-2.74,1.26c1.15-1.49,2.4-2.96,3.58-4.43-.22,1.06-.46,2.14-.84,3.16Z"/>
      </g>
      <path class="cls-28" d="M71.25,113.55c.59,5.81.46,11.98,1.48,17.71-6.32-.9-10.08-17.54-7.8-21.71,2.64-.47,5.05,1.93,6.32,4.01Z"/>
      <path class="cls-8" d="M150.3,109.34c1.48,4.81-1.09,18.44-5.9,21.08-.21.11-2.01.91-2.11.74l1.48-15.92c.2-.88.24-1.84.42-2.74,2.62-1.11,2.74-3.96,6.11-3.16Z"/>
      <path class="cls-28" d="M100.13,71.6c-.35.57-1.7,3.64-2.21,3.79-7.35-1.17-15.35-1.67-18.02,6.85-1.71,5.46-.26,8.99-4.01,14.33-.63.9-1.94,2.56-2.95,3.06.53-7.35,2.72-19.97,9.59-24.03,3.77-2.23,8.37-2.44,12.65-2.32v-4.01l4.95,2.32Z"/>
      <path class="cls-28" d="M142.07,100.06c-.97-.96-2.44-2.37-3.16-3.48-5.76-8.78.8-22.67-15.92-22.24-.98.03-4.19.85-4.85.63-.33-.11-2.32-3.43-2.63-4.01l5.16-1.69v4.01c16.29-2.62,21.08,13.83,21.4,26.77Z"/>
      <path class="cls-14" d="M70.83,109.55c.62,1.13.31,2.85.42,4.01-1.28-2.07-3.68-4.47-6.32-4.01,1.21-2.21,4.63-2.3,5.9,0Z"/>
      <path class="cls-14" d="M150.09,108.91c.07.15.16.26.21.42-3.37-.8-3.49,2.06-6.11,3.16.19-.95.05-2.65.42-3.48.87-1.95,4.29-1.83,5.48-.11Z"/>
      <g>
        <path class="cls-14" d="M115.51,70.97c.32.57,2.3,3.89,2.63,4.01.66.22,3.87-.61,4.85-.63,16.72-.43,10.15,13.45,15.92,22.24.73,1.11,2.2,2.52,3.16,3.48.02.7-.15,1.47.21,2.11-4.17-.47-8.86-.45-13.07-.21-1.98-1.35-6.91-1.39-8.22,1.05-3.93.8-7.52,2.91-10.65,3.58-4.34.93-11.21-2.85-16.13-3.79-.87-2.72-5.84-1.68-8.01-1.05-3.76-.17-9.62-.05-13.28.63-.19-.76-.06-1.94,0-2.74,1.01-.5,2.32-2.16,2.95-3.06,3.74-5.34,2.29-8.88,4.01-14.33,2.67-8.52,10.67-8.03,18.02-6.85.51-.15,1.87-3.23,2.21-3.79.56-.92,1.43-1.78,1.79-2.95l2.95,4.22,3.16-6.32,1.48,6.32,4.85-5.27c.38.15.35,2.86.53,3.27.22.52.6.05.63.11Z"/>
        <path class="cls-15" d="M85.48,96.48c2.06-.11,11.39,1.57,12.54,3.06.3.38.6,2.36.42,2.74-.41.86-5.78-1.7-6.85-2-5.7-1.59-10.25-1.98-15.6,1.05,2.06-2.89,6.01-4.66,9.49-4.85Z"/>
        <path class="cls-15" d="M127.42,96.69c4.98-.43,9.12.87,12.33,4.74-7.45-4.65-15.14-1.5-22.45,1.58-.66-.24-.12-2.88.42-3.37.88-.81,8.28-2.83,9.7-2.95Z"/>
      </g>
      <path class="cls-28" d="M129.22,101.96c-2.91.16-5.37.47-8.22,1.05,1.31-2.45,6.24-2.4,8.22-1.05Z"/>
      <path class="cls-28" d="M94.22,102.8c-2.61-.5-5.36-.94-8.01-1.05,2.17-.62,7.14-1.67,8.01,1.05Z"/>
      <g>
        <path class="cls-14" d="M71.46,109.97c1.94,8.81.9,16.3,12.33,17.71,8.17,1,15.39.16,18.87-7.9,1.33-3.1,1.62-10.31,6.22-9.38,2.38.48,3.7,7.77,4.74,10.01,3.49,7.5,10.58,8.21,18.23,7.27,8.61-1.05,10.17-4.74,11.91-12.44l-1.48,15.92c.1.17,1.9-.62,2.11-.74-3.21,1.33-2.11,3.14-2.95,5.8-1.7,5.36-4.79,9.82-8.43,14.02-1.12.35-4.67,4.35-5.9,5.27-.67.37-1.15.46-1.48,1.26l-10.86,6.11c-9.36,3.23-16.54-.71-23.93-6.11-1.21-.89-2.65-1.99-3.79-2.95-7.49-6.32-12.57-12.62-14.33-22.56-1.01-5.72-.89-11.9-1.48-17.71-.12-1.15.2-2.88-.42-4.01l.63.42Z"/>
        <g>
          <path class="cls-9" d="M106.56,124.09c2.48-.48,5.23.97,5.8,3.48l-8.54.11c-1.28-1.17,1.81-3.4,2.74-3.58Z"/>
          <g>
            <path class="cls-8" d="M101.71,128.94c1.48-.25,3.19.91,4.64,1.05,2.26.23,6.73-1.2,7.8-.84.24.08-.03.69.21.84.31.19,5.98-.8,1.48,3.16-4.16,3.66-14.85,3.34-17.18-2.42.39-.29,2.86-1.76,3.06-1.79Z"/>
            <path class="cls-26" d="M113.3,131.47c6.1-1.09-.88,3.13-3.27,2,.8-.63,2.29-1.83,3.27-2Z"/>
            <path class="cls-5" d="M100.65,131.47c1.43-.56,4.16.86,5.16,2-.68.54-7.01-1.28-5.16-2Z"/>
          </g>
          <g>
            <path class="cls-22" d="M123.52,138.85c-1.23.71-2.44,1.26-3.79,1.69-7.18,2.24-15.87,1.91-23.19.21-1.15-.71-2.65-.82-3.37-1.9,4.89.82,9.05-.03,13.81,0,.06,0,.99.63,1.05.63.47.01.99-.63,1.05-.63,4.81-.03,9.61.83,14.44,0Z"/>
            <path class="cls-24" d="M93.17,138.85c.72,1.08,2.22,1.19,3.37,1.9.63.39,1.97,1.4,2.63,1.9.46.34.03,1.12,1.9,1.9,4.06,1.68,12.4,1.68,15.92-1.16.17-.14-.23-.41-.21-.42,1-.77,2.27-1.31,2.95-2.42,1.35-.42,2.57-.98,3.79-1.69.24-.14,1.2-.25,1.37-.42.54-.53.13-1.29.63-1.48.79-.3,1.7,1.59.84,2.32-.91-.91-1.54-.16-2.42.21-4.69,1.97-7.59,6.3-13.6,6.96-9.23,1.01-11.45-3.91-18.23-6.96-.46-.21-1.58-.84-2-.84-.2,0-.36.63-.42.63-.12,0-1.02-1.46,0-2.11,1.49-.94.97.92,1.26,1.26.16.18,1.86.36,2.21.42Z"/>
            <path class="cls-8" d="M116.36,148.97c-6.29,5.98-10.58,5.78-16.86-.21,3.78,2.32,7.62,3.75,12.12,2.53,1.69-.46,3.04-1.91,4.74-2.32Z"/>
            <g>
              <path class="cls-22" d="M123.95,139.48c-1.96,3.48-4.7,6.74-7.59,9.49-1.7.41-3.05,1.86-4.74,2.32-4.5,1.22-8.34-.21-12.12-2.53-2.78-2.65-5.59-5.85-7.38-9.28,6.79,3.05,9,7.97,18.23,6.96,6.01-.66,8.9-4.99,13.6-6.96Z"/>
              <path class="cls-1" d="M99.81,146.23c.6-.2,8.84,1.2,8.75,2.21-.2,2.15-8.19.95-9.06-1.05-.18-.41-.15-1,.32-1.16Z"/>
            </g>
            <path class="cls-7" d="M119.73,140.53c-.68,1.12-1.96,1.65-2.95,2.42-.02.01.38.29.21.42-3.52,2.84-11.86,2.84-15.92,1.16-1.87-.77-1.44-1.55-1.9-1.9-.66-.5-2-1.51-2.63-1.9,7.32,1.7,16.01,2.03,23.19-.21Z"/>
          </g>
        </g>
      </g>
      <g>
        <path class="cls-19" d="M86.21,101.75c2.66.12,5.4.55,8.01,1.05,4.91.94,11.79,4.72,16.13,3.79,3.13-.67,6.71-2.78,10.65-3.58,2.85-.58,5.31-.89,8.22-1.05,4.21-.24,8.9-.26,13.07.21,3.8.43,5.33.62,4.01,5.16,1.63-.34,2.99-.06,3.79,1.58-1.19-1.72-4.61-1.85-5.48.11-.37.83-.23,2.53-.42,3.48s-.22,1.86-.42,2.74c-1.75,7.7-3.3,11.39-11.91,12.44-7.65.93-14.75.22-18.23-7.27-1.05-2.25-2.36-9.53-4.74-10.01-4.6-.93-4.89,6.28-6.22,9.38-3.47,8.07-10.7,8.91-18.87,7.9-11.43-1.4-10.39-8.89-12.33-17.71-.65-2.97-1.35-1.88-1.9-3.06-1.5-3.22.93-4.08,3.37-4.53,3.66-.68,9.52-.8,13.28-.63Z"/>
        <g>
          <path class="cls-14" d="M80.84,104.07c4.21-.25,19.55.85,21.61,4.95,1.5,3-2.23,13.14-4.95,15.07-4.21,2.98-17.37,2.87-20.76-1.58-1.74-2.29-3.92-11.56-3.58-14.33.44-3.64,4.83-3.94,7.69-4.11Z"/>
          <g>
            <path class="cls-2" d="M87.48,105.75c4.38.08,9.44,4.04,10.75,8.22.03.11.21,1.09.21,1.26-1.53-1.77-2.57-3.98-4.43-5.48-2.37-1.92-4.37-2.42-7.38-1.9-.57.1-.94.23-1.48.42-.76.27-5.11,2.73-5.06,3.27,1.61,1.56,3.09,3.52,5.48,3.9,0,.16.03.23.21.21-.03,0-.39.32-.42.42-3.63-.64-6.27-3.7-8.22-6.64-.47-.71-.83-1.06-.63-1.79,2.49,2.48,4.81-.77,7.27-1.48,1.09-.31,2.55-.44,3.69-.42Z"/>
            <path class="cls-28" d="M98.65,116.08c.65-.39.09-1.54-.42-2.11-1.31-4.18-6.37-8.15-10.75-8.22l1.26-.84c7.59.56,11.21,3.03,10.75,11.28-.04.07-.58-.1-.84-.11Z"/>
            <path class="cls-28" d="M88.74,104.91l-1.26.84c-1.14-.02-2.6.11-3.69.42-2.46.7-4.78,3.96-7.27,1.48.32-1.24,3.15-2.5,4.53-2.74s6.17-.11,7.69,0Z"/>
            <path class="cls-11" d="M98.65,116.08c-4.33-.07-9.05.75-13.28,0,.03-.1.39-.42.42-.42,1.33-.28,4.96.07,6.75,0,.94-.04,5.42-.02,5.9-.42,0-.18-.18-1.16-.21-1.26.51.57,1.07,1.71.42,2.11Z"/>
            <path class="cls-11" d="M94.01,109.76c.25,1.64.34,2.46-.21,4.01-.45-.68-1.75-.52-2.53-.21.48-2.63.22-3.7-2.32-4.22-.63-.13-.77-.7-1.69-.21.49-1.11-.52-.47-.63-1.26,3.01-.53,5.01-.02,7.38,1.9Z"/>
            <path class="cls-7" d="M84.53,113.55c.22.66,1.02,1.36,1.05,1.9-2.39-.38-3.87-2.34-5.48-3.9-.05-.54,4.3-2.99,5.06-3.27-.91,2.15-1.41,2.91-.63,5.27Z"/>
            <path class="cls-7" d="M98.44,115.24c-.48.4-4.96.39-5.9.42.49-.62.99-1.12,1.26-1.9.55-1.55.46-2.37.21-4.01,1.86,1.5,2.9,3.71,4.43,5.48Z"/>
            <path class="cls-13" d="M86.85,113.13c.51,1.28,1.34,1.95,2.85,1.69.65-.11,1.49-1.23,1.58-1.26.78-.31,2.08-.47,2.53.21-.28.77-.77,1.28-1.26,1.9-1.79.07-5.42-.28-6.75,0-.18.02-.2-.05-.21-.21-.03-.53-.84-1.24-1.05-1.9.58-1.13,1.27-.23,2.32-.42Z"/>
            <path class="cls-11" d="M86.64,107.86c.12.79,1.12.16.63,1.26-.83.45-.6,1.28-.63,1.69-.07.83-.11,1.52.21,2.32-1.05.19-1.74-.71-2.32.42-.77-2.36-.28-3.12.63-5.27.54-.2.9-.32,1.48-.42Z"/>
            <path class="cls-4" d="M91.27,113.55c-.09.04-.94,1.15-1.58,1.26-1.5.26-2.33-.4-2.85-1.69-.32-.8-.28-1.48-.21-2.32,1.34,1.06,3.08.16,2.32-1.48,2.54.52,2.8,1.59,2.32,4.22Z"/>
            <path class="cls-7" d="M88.95,109.34c.76,1.63-.98,2.54-2.32,1.48.04-.4-.2-1.24.63-1.69.92-.49,1.06.08,1.69.21Z"/>
          </g>
        </g>
        <g>
          <path class="cls-14" d="M129.32,104.07c2.74-.15,10.92-.23,12.54,2,2.2,3.02-.79,15.45-3.9,17.81-3.68,2.8-15.42,2.89-19.18.42-2.71-1.78-6.56-11.63-5.59-14.65,1.22-3.78,12.6-5.39,16.13-5.59Z"/>
          <g>
            <path class="cls-2" d="M129.22,105.75c4.06.22,7.32,4.58,9.91,1.48.01.02.52-.12.42.32-1.57,2.26-3.22,4.96-5.48,6.64l-.21-.84c.62-.58,1.12-1.37,1.69-2-1.53-1.18-3.43-2.44-5.27-3.06-3.44-1.15-5.74-.89-8.64,1.48-1.81,1.48-2.84,3.61-4.43,5.27-.07-.13.05-.61,0-.84,2.56-4.87,6.01-8.76,12.02-8.43Z"/>
            <path class="cls-28" d="M126.9,104.91c0,1.02,2.31-.18,2.32.84-6.01-.32-9.45,3.56-12.02,8.43-.27.51-.84,1.71-1.26,1.69-.55-7.46,4-10.73,10.96-10.96Z"/>
            <path class="cls-28" d="M139.12,107.23c-2.59,3.1-5.85-1.26-9.91-1.48,0-1.02-2.31.18-2.32-.84,1.54-.05,3.09.02,4.53.63l-1.48-1.05c2.53-.13,7.72.43,9.17,2.74Z"/>
            <path class="cls-11" d="M134.06,114.18c-5.15,3.82-10.98,1.52-16.76,1.69-.06,0-.9.31-1.05.42l-.32-.42c.42.02,1-1.17,1.26-1.69.05.23-.07.71,0,.84.04.08-.09.32.11.42.64.34,4.65-.03,5.59,0,2.09.07,5.47.85,7.17-.42-.15.61,1.31.03,1.37,0,.62-.31,1.91-1.21,2.42-1.69l.21.84Z"/>
            <path class="cls-11" d="M130.27,108.28c.25.28.3.82.42,1.05-.37-.38-.57.19-.84.63-1.05-1.65-1.42-.94-2.74-.63-2.67.62-3.16,1.25-2.95,4.22-.09-.06-.75-.04-.95-.21-.6-.51-1.11-1.93-1.79-2.53.02-.23.38-.62.21-1.05,2.9-2.36,5.21-2.63,8.64-1.48Z"/>
            <path class="cls-7" d="M133.85,113.34c-.51.48-1.8,1.38-2.42,1.69-.06.03-1.52.61-1.37,0,1.79-1.34,1.52-4.02.63-5.69-.13-.24-.17-.77-.42-1.05,1.84.62,3.74,1.87,5.27,3.06-.56.64-1.07,1.43-1.69,2Z"/>
            <path class="cls-7" d="M121.42,110.81c-.18,1.87.12,3.28,1.48,4.64-.94-.03-4.94.34-5.59,0-.2-.1-.06-.34-.11-.42,1.59-1.66,2.62-3.79,4.43-5.27.17.43-.19.83-.21,1.05Z"/>
            <path class="cls-13" d="M130.69,109.34c.89,1.67,1.16,4.35-.63,5.69s-5.08.49-7.17.42c-1.36-1.36-1.66-2.77-1.48-4.64.69.6,1.19,2.02,1.79,2.53.2.17.86.15.95.21,2.93,1.91,4.63,1.64,4.85-2.32.79-.21.69-1.01.84-1.26.27-.45.48-1.01.84-.63Z"/>
            <path class="cls-2" d="M127.11,109.34c-.28,1.26.6,2.24,1.9,1.9-.22,3.96-1.92,4.23-4.85,2.32-.21-2.97.28-3.59,2.95-4.22Z"/>
            <path class="cls-7" d="M129.85,109.97c-.15.25-.05,1.06-.84,1.26-1.3.34-2.18-.63-1.9-1.9,1.32-.31,1.69-1.01,2.74.63Z"/>
          </g>
        </g>
      </g>
    </g>
  </g>
</svg>