<?xml version="1.0" encoding="UTF-8"?>
<svg id="Layer_1" data-name="Layer 1" xmlns="http://www.w3.org/2000/svg" xmlns:xlink="http://www.w3.org/1999/xlink" viewBox="0 0 216.48 284.55">
  <defs>
    <style>
      .cls-1 {
        fill: #124552;
      }

      .cls-2 {
        fill: #2e4463;
      }

      .cls-3 {
        fill: #d1d1d2;
      }

      .cls-4 {
        fill: #b0afb9;
      }

      .cls-5 {
        fill: url(#linear-gradient-8);
      }

      .cls-6 {
        fill: url(#linear-gradient-7);
      }

      .cls-7 {
        fill: url(#linear-gradient-5);
      }

      .cls-8 {
        fill: url(#linear-gradient-6);
      }

      .cls-9 {
        fill: url(#linear-gradient-9);
      }

      .cls-10 {
        fill: url(#linear-gradient-4);
      }

      .cls-11 {
        fill: url(#linear-gradient-3);
      }

      .cls-12 {
        fill: url(#linear-gradient-2);
      }

      .cls-13 {
        fill: #475a74;
      }

      .cls-14 {
        fill: #ef776c;
      }

      .cls-15 {
        fill: #9c6052;
      }

      .cls-16 {
        fill: #74382e;
      }

      .cls-17 {
        fill: #782425;
      }

      .cls-18 {
        fill: url(#linear-gradient);
      }

      .cls-19 {
        fill: #fde4d3;
      }

      .cls-20 {
        fill: #5e261e;
      }

      .cls-21 {
        fill: #6883ae;
      }

      .cls-22 {
        fill: #bac9dd;
      }

      .cls-23 {
        fill: #e48e74;
      }

      .cls-24 {
        fill: #f5ae8e;
      }

      .cls-25 {
        fill: #f7c8b4;
      }

      .cls-26 {
        fill: #fffeff;
      }

      .cls-27 {
        fill: #8a5043;
      }

      .cls-28 {
        fill: #7f99b8;
      }

      .cls-29 {
        fill: #b68a7e;
      }

      .cls-30 {
        fill: #100e11;
      }

      .cls-31 {
        fill: #68b2be;
      }

      .cls-32 {
        fill: #6b7992;
      }

      .cls-33 {
        fill: #f9ad9b;
      }

      .cls-34 {
        fill: #af796b;
      }

      .cls-35 {
        fill: #52749d;
      }

      .cls-36 {
        fill: #d1967b;
      }

      .cls-37 {
        fill: #2d557f;
      }

      .cls-38 {
        fill: url(#linear-gradient-10);
      }

      .cls-39 {
        fill: url(#linear-gradient-11);
      }

      .cls-40 {
        fill: url(#linear-gradient-12);
      }

      .cls-41 {
        fill: url(#linear-gradient-13);
      }

      .cls-42 {
        fill: url(#linear-gradient-14);
      }

      .cls-43 {
        fill: url(#linear-gradient-15);
      }

      .cls-44 {
        fill: url(#linear-gradient-16);
      }

      .cls-45 {
        fill: url(#linear-gradient-17);
      }

      .cls-46 {
        fill: #92aac5;
      }

      .cls-47 {
        fill: #7488a1;
      }

      .cls-48 {
        fill: #261d1f;
      }

      .cls-49 {
        fill: #566a86;
      }

      .cls-50 {
        fill: #fbf0e9;
      }

      .cls-51 {
        fill: #cee4e3;
      }

      .cls-52 {
        fill: #ba5943;
      }

      .cls-53 {
        fill: #e6f1f0;
      }

      .cls-54 {
        fill: #3e767c;
      }

      .cls-55 {
        fill: #f6bd99;
      }

      .cls-56 {
        fill: #cc8165;
      }

      .cls-57 {
        fill: #0e335a;
      }

      .cls-58 {
        fill: #ce6f56;
      }
    </style>
    <linearGradient id="linear-gradient" x1="-769.75" y1="657.03" x2="-812.44" y2="703.36" gradientTransform="translate(319.44 12.08) scale(.23)" gradientUnits="userSpaceOnUse">
      <stop offset="0" stop-color="#1b385c"/>
      <stop offset="1" stop-color="#5e77a2"/>
    </linearGradient>
    <linearGradient id="linear-gradient-2" x1="-810.26" y1="749.49" x2="-748.54" y2="797.18" gradientTransform="translate(319.44 12.08) scale(.23)" gradientUnits="userSpaceOnUse">
      <stop offset="0" stop-color="#1c2f49"/>
      <stop offset="1" stop-color="#3c5572"/>
    </linearGradient>
    <linearGradient id="linear-gradient-3" x1="-757.93" y1="721.66" x2="-714.72" y2="1087.12" gradientTransform="translate(319.44 12.08) scale(.23)" gradientUnits="userSpaceOnUse">
      <stop offset="0" stop-color="#6581a5"/>
      <stop offset="1" stop-color="#344768"/>
    </linearGradient>
    <linearGradient id="linear-gradient-4" x1="-819.32" y1="841.86" x2="-883.33" y2="1081.46" gradientTransform="translate(319.44 12.08) scale(.23)" gradientUnits="userSpaceOnUse">
      <stop offset="0" stop-color="#5d7394"/>
      <stop offset="1" stop-color="#34496a"/>
    </linearGradient>
    <linearGradient id="linear-gradient-5" x1="-636.48" y1="914.34" x2="-706.53" y2="1072.52" gradientTransform="translate(319.44 12.08) scale(.23)" gradientUnits="userSpaceOnUse">
      <stop offset="0" stop-color="#455976"/>
      <stop offset="1" stop-color="#23314b"/>
    </linearGradient>
    <linearGradient id="linear-gradient-6" x1="-553.91" y1="798.11" x2="-641.64" y2="1087.08" gradientTransform="translate(319.44 12.08) scale(.23)" gradientUnits="userSpaceOnUse">
      <stop offset="0" stop-color="#647fa4"/>
      <stop offset="1" stop-color="#364666"/>
    </linearGradient>
    <linearGradient id="linear-gradient-7" x1="-799.59" y1="927.5" x2="-716.16" y2="1012.36" gradientTransform="translate(319.44 12.08) scale(.23)" gradientUnits="userSpaceOnUse">
      <stop offset="0" stop-color="#637e9b"/>
      <stop offset="1" stop-color="#3b506b"/>
    </linearGradient>
    <linearGradient id="linear-gradient-8" x1="-791.77" y1="870.72" x2="-716.95" y2="924.25" gradientTransform="translate(319.44 12.08) scale(.23)" gradientUnits="userSpaceOnUse">
      <stop offset="0" stop-color="#708ab1"/>
      <stop offset="1" stop-color="#597492"/>
    </linearGradient>
    <linearGradient id="linear-gradient-9" x1="-1213.65" y1="987.69" x2="-1157.07" y2="1055.09" gradientTransform="translate(319.44 12.08) scale(.23)" gradientUnits="userSpaceOnUse">
      <stop offset="0" stop-color="#2a4564"/>
      <stop offset="1" stop-color="#0b2241"/>
    </linearGradient>
    <linearGradient id="linear-gradient-10" x1="-1024.53" y1="829.84" x2="-990.99" y2="1065.46" gradientTransform="translate(319.44 12.08) scale(.23)" gradientUnits="userSpaceOnUse">
      <stop offset="0" stop-color="#6c83a6"/>
      <stop offset="1" stop-color="#3a5376"/>
    </linearGradient>
    <linearGradient id="linear-gradient-11" x1="-1279.86" y1="796.87" x2="-1057.71" y2="1111.31" gradientTransform="translate(319.44 12.08) scale(.23)" gradientUnits="userSpaceOnUse">
      <stop offset="0" stop-color="#6c8ab1"/>
      <stop offset="1" stop-color="#354f72"/>
    </linearGradient>
    <linearGradient id="linear-gradient-12" x1="-1118.89" y1="924.69" x2="-1084.12" y2="1033.25" gradientTransform="translate(319.44 12.08) scale(.23)" gradientUnits="userSpaceOnUse">
      <stop offset="0" stop-color="#617e9c"/>
      <stop offset="1" stop-color="#3d5672"/>
    </linearGradient>
    <linearGradient id="linear-gradient-13" x1="-930.92" y1="782.13" x2="-938.31" y2="1088.04" gradientTransform="translate(319.44 12.08) scale(.23)" gradientUnits="userSpaceOnUse">
      <stop offset="0" stop-color="#f0f1f3"/>
      <stop offset="1" stop-color="#c9c5ce"/>
    </linearGradient>
    <linearGradient id="linear-gradient-14" x1="-933.99" y1="82.92" x2="-945.91" y2="139.68" gradientTransform="translate(319.44 12.08) scale(.23)" gradientUnits="userSpaceOnUse">
      <stop offset="0" stop-color="#9f675a"/>
      <stop offset="1" stop-color="#80463b"/>
    </linearGradient>
    <linearGradient id="linear-gradient-15" x1="-926.96" y1="565.08" x2="-881.14" y2="712.11" gradientTransform="translate(319.44 12.08) scale(.23)" gradientUnits="userSpaceOnUse">
      <stop offset="0" stop-color="#c15b45"/>
      <stop offset="1" stop-color="#d88568"/>
    </linearGradient>
    <linearGradient id="linear-gradient-16" x1="-803.2" y1="280.88" x2="-1069.18" y2="283.9" gradientTransform="translate(319.44 12.08) scale(.23)" gradientUnits="userSpaceOnUse">
      <stop offset="0" stop-color="#e08867"/>
      <stop offset=".27" stop-color="#f5b08c"/>
      <stop offset="1" stop-color="#fbd2b5"/>
    </linearGradient>
    <linearGradient id="linear-gradient-17" x1="-1011.91" y1="372.03" x2="-851.42" y2="528.31" gradientTransform="translate(319.44 12.08) scale(.23)" gradientUnits="userSpaceOnUse">
      <stop offset="0" stop-color="#fac4a4"/>
      <stop offset="1" stop-color="#e69976"/>
    </linearGradient>
  </defs>
  <g id="Generative_Object" data-name="Generative Object">
    <g>
      <g>
        <path class="cls-18" d="M140.75,155.18l-.57.23c3.85,9.54,6.89,19.98,7.8,30.29.14,1.58.46,3.15.11,4.75-1.94-6.61-7.01-11.9-12.66-15.6l-7.35,15.37c.46-1.88.89-3.78,1.36-5.65.11-.43.34-.9.45-1.36.8-3.34,1.65-6.54,2.26-9.95.56-3.1,1.1-6.12,1.36-9.27.08-.97.65-4.48.45-5.09-.07-.22-2.52-2.13-3.16-3.28-1.72-3.05-1.32-6.76-1.58-10.17,1.91,1,6.01,2.13,7.57,3.39,1.34,1.09,3.06,4.74,3.96,6.33Z"/>
        <path class="cls-21" d="M83.1,147.72c-.16.82-.01,2.12-.23,2.83-1.8,5.94-3.66,7.93-2.26,14.92.48,2.38,2.51,5.6,2.94,8.14,1.68-.33,1.12,3.5,2.03,4.07.59.37.57-.92,1.58.34.43,1.96,1.16,3.93,1.58,5.88.93,4.25,2.09,8.37,2.94,12.66l-10.51-19.22c-.57-.15-5.22,2.84-5.88,3.39-1.15.95-7.29,8.15-7.8,9.27-.12-2.81-.17-5.78,0-8.59l1.13.11c.56-6.38,2.59-12.43,4.97-18.31l7.46-14.13c.62-.56,1.37-.89,2.03-1.36Z"/>
        <path class="cls-12" d="M146.86,166.26c-.67.17.57,2.93.68,3.05.53.63,1.25.81,2.03.79,3.21,7.27,3.63,16.19,4.3,24.08l-18.2-4.63c-.27.22-.55,5.66-.79,6.56,0,.02-.37-.09-.45.11-.2.49.45.86-.11,1.24-.67.46-3.33.12-3.73,1.36-1.18.36-3.09,1.12-4.07,1.81l.68-3.84,8.93-20.35c5.69,3.42,8.5,9.88,12.21,15.15.3-1.95.38-3.9.34-5.88-.15-6.94-2.44-18.62-4.97-25.09,1.18,1.27,1.89,4.68,3.16,5.65Z"/>
        <path class="cls-35" d="M85.14,166.71c.31,2.38.68,4.66,1.13,7.01.28,1.44.59,2.87.9,4.3-1.02-1.26-1,.03-1.58-.34-.91-.57-.36-4.4-2.03-4.07-.43-2.54-2.46-5.76-2.94-8.14-1.4-6.99.46-8.98,2.26-14.92.21-.7.06-2.01.23-2.83.78-.55,1.38-1.14,2.26-1.58.14,1.08-1.38,2.57-1.58,3.28-.06.21.16,2.1,0,2.71-.44,1.64-1.45,2.86-1.58,5.2-.18,3.36.57,7.18,1.7,10.29l1.24-.9Z"/>
        <path class="cls-37" d="M84.46,161.06c.06,1.1.36,2.1.45,3.16,0,.07,0,.15,0,.23.07.76.12,1.48.23,2.26l-1.24.9c-1.12-3.1-1.88-6.93-1.7-10.29.13-2.34,1.15-3.56,1.58-5.2.16-.62-.06-2.51,0-2.71.2-.71,1.72-2.2,1.58-3.28.31-.16.71-.57,1.13-.68.19-.05,1.26-.29,1.36-.11.78,2.93-1.87,4.62-2.49,6.78-.1.33.47.61.45.68-.41,1.32-1.86,4.57-2.03,5.88-.02.14.15,3.5.68,2.37Z"/>
        <path class="cls-46" d="M67.5,181.41c.25-4.12.84-8.04,2.03-11.98.71-2.34,2.1-4.62,2.71-7.01,3.09-4.34,4.76-9.67,8.82-13.34l-7.46,14.13c-2.39,5.88-4.41,11.93-4.97,18.31l-1.13-.11Z"/>
        <path class="cls-35" d="M140.75,155.18c1.01,1.78,2.19,3.5,2.94,5.43,2.53,6.47,4.82,18.15,4.97,25.09h-.68c-.91-10.31-3.95-20.75-7.8-30.29l.57-.23Z"/>
        <path class="cls-57" d="M88.3,144.33c-.13,3.08.1,6.85-.68,9.72-.18.67-.33,1.31-.68,1.92-1.68,2.91-2.72.9-2.49,5.09-.53,1.13-.7-2.24-.68-2.37.18-1.31,1.63-4.56,2.03-5.88.02-.07-.55-.35-.45-.68.62-2.17,3.27-3.86,2.49-6.78-.1-.17-1.17.06-1.36.11l1.81-1.13Z"/>
        <path class="cls-35" d="M69.54,169.42c.1-.9-1.3.42-2.03.23.35-.97,1.24-2.13,1.13-3.16,1.22-.78,2.76-2.86,3.62-4.07-.61,2.38-2,4.66-2.71,7.01Z"/>
        <path class="cls-2" d="M91.69,196.55c.18.89.29,1.82.45,2.71-.59.42-.49.18-.9-.11-1.79-1.29-4.27-3.75-6.1-5.31-.58-.5-1.08-.64-1.13-.68-.56-.47-3.5-2.63-3.62-2.83-.07-.13,0-1.74-.34-1.92-.27-.14-3.9,1.13-4.52,1.36-3.32,1.2-4.38,2.88-8.25,1.81-.04-.63-.04-1,.23-1.58.51-1.11,6.65-8.32,7.8-9.27.66-.55,5.31-3.54,5.88-3.39l10.51,19.22Z"/>
        <path class="cls-37" d="M69.54,169.42c-1.2,3.94-1.78,7.86-2.03,11.98-.17,2.81-.12,5.78,0,8.59-.27.58-.27.96-.23,1.58-.61-.17-1.25-.24-1.81-.57-.51-7.22-.42-14.51,2.03-21.36.73.2,2.13-1.12,2.03-.23Z"/>
        <path class="cls-28" d="M147.99,185.7h.68c.04,1.97-.04,3.93-.34,5.88-3.71-5.27-6.52-11.73-12.21-15.15l-8.93,20.35c-.64.12-.49-.64-.45-1.02.18-1.79.92-3.78,1.36-5.54l7.35-15.37c5.65,3.7,10.72,8.99,12.66,15.6.34-1.6.03-3.16-.11-4.75Z"/>
      </g>
      <g>
        <path class="cls-11" d="M174.44,178.24l4.07,2.6c-.5.87-.84,1.87-1.13,2.83-3.44,11.52-7.96,22.66-11.42,34.14l-1.02-1.13c-.14-1.02.11-2.82-.68-3.62-.02-.31-.16-1.03-.23-1.36-.16-.8-.1-1.65-.79-2.26-2.3-.03-4.6.04-6.9,0-6.77-.12-13.57.09-20.35,0l-.68.34c-.18.87-.36,1.71-.45,2.6-.23,2.33.57,5.33.45,7.01,0,.05-.19.43-.23.9-.15,2.25-1.13,6.41-1.36,9.49-.36,5.02-.44,8.17.23,13.11.03.22-.03.46,0,.68.44,2.78-.68,2.92,2.15,4.97,7.27,5.29,20.9,3.89,27.13-2.71.75,3.65.79,7.37.79,11.08v2.71c-11.9.07-23.83.04-35.72-.11.94-12.96,1.61-25.96,2.94-38.88.58-5.64,1.16-17.01,2.49-21.93.37-1.39,1.46-.91,1.13-2.6.24-.9.52-6.34.79-6.56l18.2,4.63c-.67-7.88-1.09-16.81-4.3-24.08-.52-1.17-1.18-2.28-1.81-3.39,7.59,4.18,18.47,7.82,26.68,11.53Z"/>
        <path class="cls-21" d="M195.01,250.13l-.23,9.61c-.32.45-1.99-.12-2.26-.11-.45-14.2-.67-28.5-2.26-42.61-.84-7.4-3.44-29.38-10.63-32.89l1.13-2.49c2.45,1.78,4.66,3.31,6.33,5.99,7.05,11.28,7.68,48.36,7.91,62.51Z"/>
        <path class="cls-2" d="M134.87,196.1c.33,1.69-.76,1.21-1.13,2.6-1.33,4.92-1.91,16.29-2.49,21.93-1.33,12.92-2,25.93-2.94,38.88,11.89.16,23.82.18,35.72.11,2.02-.01,4.71.36,6.67,0,.89-.16.3-.2.79-.68.07.17-.12.55.11.68,6.97-.08,13.96.11,20.91,0,.27,0,1.94.56,2.26.11l.23-9.61c.02,1.27.57,9.85.11,10.17-24.6.26-49.22-.24-73.81-.23v-.45h5.76c1.08-1.15.24-2.31.34-3.28.99-9.33,1.41-18.85,2.26-28.26.9-9.98,2.58-19.97,3.05-29.95-.18-.14-1.81.57-2.15.68.4-1.24,3.06-.9,3.73-1.36.56-.38-.08-.75.11-1.24.08-.2.45-.09.45-.11Z"/>
        <path class="cls-13" d="M147.76,166.71c.63,1.11,1.29,2.22,1.81,3.39-.78.02-1.51-.16-2.03-.79-.1-.13-1.35-2.88-.68-3.05.04.03.67.32.9.45Z"/>
        <path class="cls-10" d="M121.31,259.63c0-19.77,2.3-39.47,4.97-59,.05-.04.18.04.23,0,.98-.69,2.89-1.45,4.07-1.81.34-.1,1.97-.82,2.15-.68-.47,9.98-2.15,19.97-3.05,29.95-.85,9.4-1.27,18.93-2.26,28.26-.1.97.74,2.12-.34,3.28h-5.76Z"/>
        <path class="cls-7" d="M179.41,184.12c-3.34,8.55-6.97,17.16-9.04,26.11v3.62c1.1-.74,3.63-10.02,4.18-10.06.48-.06.36.48.34.79-.35,4.45-3.97,13-4.97,18.09-.59,3.01-1.16,6.59-1.02,9.61l7.23-17.63.57.34c-2.12,11.56-7.99,22.73-7.69,34.59,1.59,2.54,1.44,6.93,2.49,9.38-.49.48.1.51-.79.68-1.95.36-4.65-.01-6.67,0v-2.71l1.36-8.48c1.08-11.5,1.15-20.35-.45-31.76l1.02,1.13c3.46-11.48,7.97-22.61,11.42-34.14.51.02,1.6.26,2.03.45Z"/>
        <path class="cls-8" d="M192.52,259.63c-6.95.11-13.94-.08-20.91,0-.24-.12-.04-.51-.11-.68-1.04-2.46-.9-6.84-2.49-9.38-.31-11.85,5.57-23.03,7.69-34.59l-.57-.34-7.23,17.63c-.14-3.02.42-6.59,1.02-9.61,1-5.09,4.63-13.63,4.97-18.09.02-.31.14-.85-.34-.79-.55.04-3.08,9.32-4.18,10.06v-3.62c2.07-8.95,5.7-17.56,9.04-26.11.06.03.17-.03.23,0,7.18,3.52,9.79,25.49,10.63,32.89,1.59,14.12,1.81,28.42,2.26,42.61Z"/>
        <g>
          <path class="cls-6" d="M163.59,219.61c.15,1.29.39,2.54.45,3.84l-.9-1.02c.12,3.81-.12,7.61-.23,11.42-.05,1.88.06,3.78,0,5.65-2.08.15-2.92,2.5-4.18,3.39-.36.26-.87-.25-.9-.23-1.5,1.1-2.9,2.78-2.83,4.75.05,1.44.82.17.45,1.13-.63.27-1.51,1.16-2.26.79-.07-.04.13-.63-.11-.79-.12-.07-2.22.82-2.6.9l.34-1.13c-2.16.26-4.4.33-6.56,0-2.64-.4-5.63-1.99-7.8-2.6-.49-.14-.7-.21-.9.34-.83-.88-1.26-1.21-1.58-2.49-.03-.22.03-.46,0-.68.77-.01.78.26.9-.57.1-.67.18-11.41,0-11.98-.02-.06-.92-.61-1.13-.57.22-3.08,1.2-7.25,1.36-9.49,2.05,2.53,9.32,5.02,12.55,4.97,1.65-.03,5.12-.95,6.9-1.36,1.15-.26,8.28-2.24,8.59-2.83.04-.07.12-1.21-.23-1.24.38-.21.65-.2.68-.23Z"/>
          <path class="cls-57" d="M164.94,216.67c1.61,11.41,1.53,20.27.45,31.76l-1.36,8.48c0-3.71-.04-7.42-.79-11.08-6.23,6.6-19.86,8-27.13,2.71-2.82-2.05-1.71-2.19-2.15-4.97.32,1.28.75,1.61,1.58,2.49,3.82,4.04,9.8,4.55,14.92,3.39.38-.09,2.48-.98,2.6-.9.24.16.04.76.11.79.75.37,1.63-.52,2.26-.79,1.98-.86,7.95-4.73,8.59-6.67.36-1.1-.03-6.37,0-8.03.06-3.35.16-7.08,0-10.4-.06-1.3-.31-2.56-.45-3.84.14-.11.41-.66.68-.79-.38-1.92.14-3.83,0-5.76.79.79.53,2.59.68,3.62Z"/>
          <path class="cls-13" d="M155.67,221.42c1.71-.42,3.66-1.29,5.43-1.13-1.15.46-6.23,1.78-6.44,2.03-.26.31-.04,1.15-.11,1.58-1.78.4-5.24,1.33-6.9,1.36-3.23.05-10.5-2.45-12.55-4.97.03-.48.22-.86.23-.9,1.8.89,5.02,2.81,6.9,3.16.71.14,1.29-.46,1.36-.45,5.57.75,6.6.68,12.09-.68Z"/>
          <path class="cls-46" d="M136,209.44c-.46,1.32,3.28.91,4.18.9,4.72-.05,10.85.19,15.37-.23.62-.06.89.22.79-.68,2.29.04,4.6-.03,6.9,0,.7.61.63,1.47.79,2.26h-.68c-.04-.19-.41-.87-.57-.9h-26.45l-1.47,1.58c.09-.89.27-1.73.45-2.6l.68-.34Z"/>
          <path class="cls-28" d="M133.97,242.9c-.67-4.95-.59-8.09-.23-13.11.21-.04,1.11.5,1.13.57.18.57.1,11.31,0,11.98-.12.83-.14.55-.9.57Z"/>
          <path class="cls-22" d="M156.35,209.44c.1.9-.17.62-.79.68-4.52.42-10.65.17-15.37.23-.9.01-4.64.42-4.18-.9,6.78.09,13.57-.12,20.35,0Z"/>
          <path class="cls-21" d="M164.04,211.7c.07.33.2,1.05.23,1.36.14,1.94-.38,3.84,0,5.76-.27.13-.54.69-.68.79-.03.02-.29.02-.68.23-.45.24-1.4.29-1.81.45-1.77-.16-3.71.71-5.43,1.13.05-.41-.44-.6.11-.9,1.3-.72,6.59-1.09,7.35-2.6.28-.55.38-5.54.23-6.22h.68Z"/>
          <path class="cls-2" d="M150.47,249.45c-5.12,1.16-11.1.65-14.92-3.39.2-.55.42-.48.9-.34,2.17.61,5.16,2.2,7.8,2.6,2.16.33,4.39.26,6.56,0l-.34,1.13Z"/>
          <path class="cls-49" d="M162.91,239.51c0,.19.39,1.07.23,1.7-.41,1.57-6.34,5.69-8.14,6.22-.07-1.97,1.32-3.65,2.83-4.75.04-.03.54.48.9.23,1.26-.89,2.11-3.24,4.18-3.39Z"/>
          <path class="cls-47" d="M164.04,233.85c-.03,1.65.36,6.92,0,8.03-.64,1.93-6.62,5.81-8.59,6.67.37-.96-.4.31-.45-1.13,1.8-.53,7.72-4.64,8.14-6.22.16-.62-.23-1.5-.23-1.7.06-1.87-.05-3.77,0-5.65h1.13Z"/>
          <path class="cls-2" d="M162.91,219.84c.35.03.26,1.17.23,1.24-.31.59-7.44,2.57-8.59,2.83.07-.43-.15-1.27.11-1.58.22-.26,5.29-1.57,6.44-2.03.4-.16,1.36-.21,1.81-.45Z"/>
          <path class="cls-35" d="M164.04,223.45c.16,3.32.06,7.05,0,10.4h-1.13c.11-3.8.35-7.6.23-11.42l.9,1.02Z"/>
          <g>
            <path class="cls-5" d="M163.36,211.7c.15.67.05,5.66-.23,6.22-.75,1.51-6.05,1.88-7.35,2.6-.55.31-.06.49-.11.9-5.49,1.36-6.52,1.43-12.09.68-.07,0-.65.59-1.36.45-1.88-.36-5.09-2.27-6.9-3.16.12-1.68-.68-4.68-.45-7.01l1.47-1.58h26.45c.16.04.52.72.57.9Z"/>
            <path class="cls-46" d="M148.55,217.35c1.91-.25,2.91,2.92,1.36,4.07v-1.58c-2.14-.12-1.99.95-2.26,1.13-1.04.68-1.28-3.33.9-3.62Z"/>
          </g>
        </g>
      </g>
      <g>
        <path class="cls-21" d="M27.26,209.44c-2.43,16.59-2.86,33.55-3.16,50.3l-2.94.11c.43-16.77.58-34,2.71-50.64l3.39.23Z"/>
        <path class="cls-46" d="M36.31,184.12c.02.07-.02.16,0,.23-6.5,5.7-7.84,16.86-9.04,25.09l-3.39-.23c1.38-10.81,2.18-20.42,11.3-27.35.59.65.88,1.43,1.13,2.26Z"/>
        <path class="cls-2" d="M85.14,193.84c.61,9.53,2.84,18.89,3.84,28.37,1.31,12.44,1.56,25.06,2.71,37.53l7.23.11c-.05.38.07.52-.45.45-20.02-.02-40.12.34-60.13,0-3.39-.06-6.9-.24-10.29-.45,5.85.05,11.68.02,17.52-.23,2.06-.09,4.15.06,6.22,0,.27-.12.54-1.52.57-1.81l.34,2.03,38.32-.11c-1.58-22.3-3.4-44.53-7.01-66.58.05.04.55.18,1.13.68Z"/>
        <path class="cls-9" d="M52.36,257.82c-.03.29-.29,1.69-.57,1.81-2.07.06-4.15-.09-6.22,0l-4.75-12.09,3.73,3.73-.79-8.48,2.37,2.83.57-.57-6.78-24.19c2.51,2.76,3.64,6.55,5.88,9.49.68.89,1.52,1.67,2.15,2.6l.57-.57-5.54-23.17c1.32,5.17,5.25,11.33,6.22,16.39,1.07,5.6,3.66,27.27,3.16,32.22Z"/>
        <path class="cls-38" d="M92.15,199.27c3.01,16.31,5.01,34.41,6.33,50.98.19,2.44.73,7.41.45,9.61l-7.23-.11c-1.15-12.46-1.4-25.09-2.71-37.53-1-9.48-3.24-18.84-3.84-28.37,1.83,1.56,4.31,4.02,6.1,5.31.41.3.31.53.9.11Z"/>
        <g>
          <path class="cls-39" d="M68.64,166.48c.11,1.04-.78,2.19-1.13,3.16-2.46,6.86-2.55,14.14-2.03,21.36.56.32,1.2.4,1.81.57,3.88,1.07,4.93-.61,8.25-1.81.62-.22,4.25-1.5,4.52-1.36.35.18.27,1.79.34,1.92.11.2,3.05,2.35,3.62,2.83,3.61,22.05,5.43,44.28,7.01,66.58l-38.32.11-.34-2.03c.5-4.94-2.09-26.61-3.16-32.22-.97-5.06-4.9-11.22-6.22-16.39l5.54,23.17-.57.57c-.63-.93-1.47-1.71-2.15-2.6-2.24-2.94-3.37-6.73-5.88-9.49l6.78,24.19-.57.57-2.37-2.83.79,8.48-3.73-3.73,4.75,12.09c-5.84.25-11.67.28-17.52.23,3.39.21,6.89.39,10.29.45l-17.18-.45,2.94-.11c.31-16.76.74-33.71,3.16-50.3,1.2-8.23,2.55-19.4,9.04-25.09,1.82,5.95,4.25,10.62,6.33,16.28,2.3,6.27,3.58,12.86,6.22,18.99-.06-6.79-2.87-12.98-5.09-19.22-1.91-5.37-4.89-11.35-6.33-16.73-.21-.79-.54-1.56-.68-2.37l5.43-3.05c7.11-3.22,20.51-7.94,26.45-11.76Z"/>
          <g>
            <path class="cls-35" d="M37.44,183.67c1.44,5.38,4.42,11.36,6.33,16.73l-1.13.23c-2.08-5.66-4.51-10.32-6.33-16.28-.02-.07.02-.16,0-.23l1.13-.45Z"/>
            <path class="cls-13" d="M43.77,200.4c2.21,6.24,5.03,12.42,5.09,19.22-2.64-6.13-3.92-12.72-6.22-18.99l1.13-.23Z"/>
            <path class="cls-37" d="M55.07,219.16c-.12-.06-.47.48-.68.11-.3-.53-.03-2.88,0-3.62.05-1.2.08-1.04.45-2.6l.23,6.1Z"/>
            <g>
              <path class="cls-40" d="M55.98,220.29c-.16,1.66,3.37,2.06,4.75,2.49,8.2,2.54,13.2,3.66,21.25-.45.55-.28,1.52-.6,1.81-1.13,1.33-.18,1.24,3.71,1.36,4.75-.82,0-.74-.24-.9.57-.68,3.39.66,11.27.23,15.49-.08.78-.39,1.49-.45,2.26-4.2,3.31-10.29,4.69-15.6,4.07-2.91-.34-10.74-3.82-11.98-6.44-.8-1.67.21-5.84-.34-7.8-1.76,1.65.75,5.75-1.02,7.23-.57-2.82-.2-13.69,0-17.07.09-1.54.06-2.8.9-3.96Z"/>
              <path class="cls-57" d="M56.43,243.35c1.58,1.9,6.62,5.2,9.04,5.65,6.51,2.85,14.55.97,19.44-4.07-1.25,7.12-14.3,7.38-19.78,5.65-1.64-.52-8.98-4.74-9.38-6.22-.08-.29.18-1.13.68-1.02Z"/>
              <path class="cls-37" d="M84.91,244.93c-4.9,5.04-12.94,6.92-19.44,4.07.62.12,3.31.42,2.94-.68,5.31.62,11.39-.76,15.6-4.07.04-.03.56.05.9-.23-.03.29.05.62,0,.9Z"/>
              <path class="cls-46" d="M56.43,209.44l.57.9h24.87l.57-.9c.48.07,1-.2,1.36.34.22.69.36,1.43.45,2.15l-1.24-1.13h-26.45l-.9,2.49-.57-1.13c.25-.75-.11-2.53,1.36-2.71Z"/>
              <path class="cls-21" d="M68.41,248.32c.37,1.1-2.32.79-2.94.68-2.42-.45-7.47-3.75-9.04-5.65-.47-.57-1.21-1.3-1.36-2.03,1.76-1.49-.74-5.59,1.02-7.23.55,1.96-.46,6.13.34,7.8,1.25,2.62,9.08,6.1,11.98,6.44Z"/>
              <path class="cls-28" d="M85.14,225.94c.43,3.76,1.25,12.62.68,16.05h-1.36c.43-4.22-.91-12.09-.23-15.49.16-.8.08-.56.9-.57Z"/>
              <path class="cls-22" d="M82.43,209.44l-.57.9h-24.87l-.57-.9c7.96.83,18.32-1.11,26,0Z"/>
              <path class="cls-2" d="M56.65,219.84c1.11,1.02,5.26.68,4.07,2.94-1.38-.43-4.9-.82-4.75-2.49.05-.07-.13-.47.23-.45.14.03.32-.03.45,0Z"/>
              <path class="cls-2" d="M83.78,221.19c-.29.54-1.26.85-1.81,1.13-.96-.36-1.52.43-1.36-1.24.57-.25,1.06-.44,1.58-.79.24-.16,1.14-.45,1.36-.68.69.24.53,1.01.23,1.58Z"/>
              <path class="cls-49" d="M85.82,241.99c-.12.7-.33,1.57-.9,2.03-.35.28-.87.2-.9.23.06-.77.37-1.49.45-2.26h1.36Z"/>
              <path class="cls-37" d="M82.2,220.29c-.53.35-1.01.54-1.58.79-.16,1.67.39.88,1.36,1.24-8.05,4.11-13.05,2.99-21.25.45,1.19-2.26-2.96-1.91-4.07-2.94,5.36,1.16,12.14,3.61,17.75,2.71,2.53-.41,5.28-2.28,7.8-2.26Z"/>
              <g>
                <path class="cls-21" d="M84.23,211.93c.1.79.15,6.64,0,7.12-.05.17-.46.33-.68.57s-1.12.52-1.36.68c-2.52-.02-5.27,1.85-7.8,2.26-5.61.9-12.38-1.55-17.75-2.71-.14-.03-.32.03-.45,0-.06-.01-.86-.53-1.13-.68l-.23-6.1c.06-.25.16-.71.23-.9l.57,1.13.9-2.49h26.45l1.24,1.13Z"/>
                <path class="cls-46" d="M72.7,219.61c.35.48.07.31,0,.45h-3.39c-.41-.86-1.24-2.04.57-2.49,1.9-.47,2.25.73,2.83,2.03Z"/>
                <path class="cls-49" d="M69.31,220.06h.23c.69,1.69,2.33,1.77,3.16,0,.07-.14.35.03,0-.45.06.13.33-.37.45-.11-.37,2.58-2.55,3.25-3.84.57Z"/>
                <path class="cls-21" d="M72.7,220.06c-.84,1.77-2.48,1.69-3.16,0h3.16Z"/>
              </g>
            </g>
          </g>
        </g>
      </g>
    </g>
    <g>
      <g>
        <path class="cls-41" d="M129.45,184.57c-.47,1.88-.89,3.77-1.36,5.65-.43,1.76-1.18,3.75-1.36,5.54-.04.37-.19,1.13.45,1.02l-.68,3.84c-.05.04-.18-.04-.23,0-.17.14-.62.23-.68.34-3.76,19.59-6.99,39.38-8.14,59.34-6.32,0-12.68,0-18.99,0,.52.07.4-.07.45-.45.28-2.19-.26-7.17-.45-9.61-1.32-16.57-3.32-34.66-6.33-50.98-.16-.89-.28-1.83-.45-2.71-.85-4.29-2.01-8.41-2.94-12.66,11.8,9.58,28.27,8.51,40.69.68Z"/>
        <path class="cls-4" d="M121.31,259.63v.45c-1.23,0-2.56.23-3.84.23,1.14-19.96,4.38-39.75,8.14-59.34.06-.11.5-.2.68-.34-2.68,19.54-4.97,39.24-4.97,59Z"/>
        <path class="cls-3" d="M87.4,174.62c.23.24.44.67.68.9.08,1.75.39,5.1.9,6.67,1.05,3.18,10.26,6.56,13.45,7.12,9.89,1.73,19.16-.87,27.47-6.1-.11.46-.35.93-.45,1.36-12.42,7.84-28.89,8.9-40.69-.68-.43-1.95-1.15-3.92-1.58-5.88-.32-1.43-.63-2.86-.9-4.3.46.16.81.57,1.13.9Z"/>
        <path class="cls-26" d="M129.9,183.21c-8.31,5.23-17.57,7.84-27.47,6.1-3.19-.56-12.41-3.94-13.45-7.12-.52-1.57-.82-4.92-.9-6.67,12,12.05,30.27,10.34,42.28-.68.58-.54,1.19-1.09,1.81-1.58-.61,3.4-1.46,6.6-2.26,9.95Z"/>
      </g>
      <g>
        <path class="cls-32" d="M143.01,89.39c-.2.94-.2,1.94-.45,3.16-.07-.35-.89-.27-1.13-.23l-.45-3.62c.73.14,1.68.64,2.03.68Z"/>
        <g>
          <path class="cls-42" d="M108.42,27.45c-.1.83.14.68.79.68,2.78,0,8.16-.14,10.63,1.13.99.51.83,2.41,2.71,2.49,1.61.07-1.56-1.59-.11-2.49,4.32,2.22,7.27,6.46,8.59,11.08s1.7,10.54-1.58,14.58c-.13-1.53,1.24-3.23,1.36-4.3.02-.19-.71-.04-.68-.23.05-.31.87-1.93.9-2.49.21-3.64-2.2-9.79-4.3-12.66-.19-.27-.93-1.38-1.36-1.13,4.9,7.18,6.45,18.36-.79,24.53-.29.25-4.36,3.07-4.41,2.15,1.99-1.58,3.59-3.89,4.07-6.44,2.08-11.12-7.16-20.34-17.86-21.02-.51-.55-1.4-1.47-2.03-1.81-6.03-3.2-10.35-.54-15.71,2.49-3.23,1.83-6.57,4.69-9.83,6.56,9.18-7.09,11.79-9.38,23.51-11.76,1.95-.39,4.12-1.15,6.1-1.36Z"/>
          <path class="cls-16" d="M130.13,35.14c.27.49-.33.14-.23.34.21.39,2.65,3.96,2.94,4.3.15.18.04.62.68.23-.42-3.76-1.29-5.8-3.62-8.7.4-1.27,2.15.89,2.49,1.24,4.17,4.3,6.23,9.75,6.33,15.71l-.9,3.5c-1.5,3.83-3.07,4.69-6.44,6.44-1.04.54-2.47,1.91-3.73,1.13,4.31-4.91,6.36-8.41,5.2-15.49-.07-.45-1.09-4.63-1.81-3.5-1.32-4.62-4.27-8.86-8.59-11.08-.22-.11-.62-.43-.68-.45l.23-.9c3.63,1.93,5.43,4.29,8.14,7.23Z"/>
          <path class="cls-34" d="M104.35,31.52l-8.7,1.36c-2.5.2-16.19,9.2-16.62,10.51-.53,1.63,2.9-.63,3.84-.23-2.99,3.7-8.38,6.69-13.23,5.76-1.26.82,3.03,1.32,3.28,1.36l-.45.68c-1.51-.28-2.84-.98-4.3-1.36-.92-.47-1.75-1.76-2.26,0-.61-1.08-1.01-2.25-1.47-3.39,5.73,3.12,10.32-2.53,14.36-5.65,3.26-1.87,6.6-4.73,9.83-6.56,5.36-3.03,9.68-5.69,15.71-2.49Z"/>
          <path class="cls-27" d="M68.18,49.61c9.84,5.04,20.8,1.12,29.62,5.65l-10.51,1.36c-4.28.11-8.53.06-12.66-1.13-1.66-.48-3.37-1.98-5.09-1.81-1.5-1.31-2.6-2.26-3.62-4.07.51-1.76,1.34-.47,2.26,0Z"/>
          <path class="cls-16" d="M147.53,69.73c-1.13,6.47-3.16,13.2-4.52,19.67-.35-.04-1.3-.54-2.03-.68-.38-.07-.64-.22-.68-.23.52-6.08.18-12.31-.9-18.31,1.63-.78,6.23.74,7.57.23.16-.06-.41-1.76.57-.68Z"/>
          <path class="cls-16" d="M97.8,55.26c1.93.99,4.19,2.56,5.43,4.18-.33.93-4.99-1.32-5.65-.11-5.2-.43-10.42.43-15.6-.23-1.14-.15-2.49-.61-3.62-.9-3.09-.81-6.08-2.03-8.59-4.07-.02-.02-.2-.43-.23-.45,1.72-.17,3.43,1.33,5.09,1.81,4.13,1.19,8.38,1.24,12.66,1.13l10.51-1.36Z"/>
          <path class="cls-15" d="M132.61,29.03c.73,1.25,2,2.21,2.94,3.39,4.06,5.08,5.6,12.26,3.16,18.31.07-.75.01-1.71,0-2.49-.1-5.96-2.16-11.41-6.33-15.71-.34-.35-2.09-2.51-2.49-1.24-1.93-2.42-3.96-3.83-6.56-5.43-.91-.56-2.14-.92-2.83-1.81,4.26.98,8.42,2.58,12.09,4.97Z"/>
          <path class="cls-16" d="M75.64,88.72c-.26.13-.4.36-.68.45l-.34-.45c-.54.31-1.07.45-1.7.45-.8-3.62-1.7-7.24-2.49-10.85,1.43-.06,3.2-1,4.41-1.81.22-.15.49.39.68.23.1-.09.55-2.22,0-2.49l-4.41,1.13c1.83-1.39,3.44-3.27,5.65-4.3-1.07,5.72-1.65,11.83-1.13,17.63Z"/>
          <path class="cls-16" d="M134.87,58.87c2.48-.04,12.44,1.99,13.11,1.81.25-.07.36-.32.68-.23-.13,1.49-.25,3.04-.45,4.52l-11.08-2.26c-.62-.99-2.51-3.06-3.62-3.39.22-.65.86-.44,1.36-.45Z"/>
          <path class="cls-15" d="M149.34,56.61c0,.2-.59,2.83-.68,3.84-.32-.09-.43.16-.68.23l-3.62-2.37c-.03-.79,3.6.14,2.83-.79l-7.12-2.71c1.09-1.5,1.59-2.95,2.03-4.75,2.9-2.54,7.26,4.58,7.23,6.56Z"/>
          <path class="cls-20" d="M142.56,47.35c0,.07,0,.15,0,.23-.07.56-.32,1.94-.45,2.49-.44,1.8-.95,3.25-2.03,4.75-1.43,1.97-3.29,2.72-5.2,4.07-.5,0-1.14-.2-1.36.45-1.38-.42-3.83.86-5.43,1.13-.25-.26-.85-.62-.9-1.02s.44-.1.45-.11c1.26.78,2.69-.59,3.73-1.13,3.38-1.76,4.94-2.62,6.44-6.44l.9-3.5c.01.78.07,1.74,0,2.49s-.26,1.65-.45,2.37c-.05.17-1.76,3-.57,2.15,1.59-1.13,2.87-6.43,3.05-8.36,1.05-.1,1.2-.9,1.81.45Z"/>
          <path class="cls-16" d="M147.99,66.56c-.16,1.04-.27,2.13-.45,3.16-.97-1.08-.41.62-.57.68-1.34.51-5.94-1.01-7.57-.23-.22-1.24-.31-2.13-.68-3.39,1.11-.31,2.86-1.28,3.96-1.36,1-.07,5.21.38,4.63,1.7l.68-.57Z"/>
          <path class="cls-16" d="M121.99,27.9l-.23.9c-4.16-1.8-8.9-1.83-13.34-1.36-1.99.21-4.16.96-6.1,1.36,5.8-4.01,13.47-4.2,19.67-.9Z"/>
          <path class="cls-29" d="M136.46,32.2c1.11,2.66,3.09,4.65,3.84,7.57.62,2.39.68,4.69.45,7.12-.18,1.93-1.46,7.24-3.05,8.36-1.2.85.52-1.98.57-2.15.2-.73.38-1.63.45-2.37,2.44-6.05.89-13.23-3.16-18.31l.45-.11-.34-.34-.11.45c-.94-1.18-2.21-2.14-2.94-3.39,1.56,1.02,2.51,1.91,3.84,3.16Z"/>
          <path class="cls-16" d="M142.56,47.35c-.61-1.36-.76-.55-1.81-.45.23-2.43.17-4.73-.45-7.12-.76-2.92-2.73-4.91-3.84-7.57,4.82,4.56,6.86,8.28,6.1,15.15Z"/>
          <path class="cls-16" d="M148.21,64.98c-.07.52-.15,1.07-.23,1.58l-.68.57c.57-1.31-3.63-1.77-4.63-1.7-1.1.08-2.85,1.05-3.96,1.36-.33-1.11-.61-1.9-1.13-2.94-.15-.31-.36-.99-.45-1.13l11.08,2.26Z"/>
          <path class="cls-16" d="M129.9,31.29c2.32,2.91,3.19,4.94,3.62,8.7-.64.4-.53-.05-.68-.23-.29-.34-2.73-3.9-2.94-4.3-.11-.2.5.15.23-.34-.81-1.47-1.05-2.97-2.26-4.63s-3.03-3.1-4.52-4.63c2.59,1.59,4.62,3.01,6.56,5.43Z"/>
          <path class="cls-27" d="M149.34,56.61c.03-1.97-4.34-9.09-7.23-6.56.13-.55.38-1.93.45-2.49,5.63.71,6.92,5.11,8.36,9.83l-1.58-.79Z"/>
          <path class="cls-27" d="M70.44,78.32c-.19-.88-.28-1.83-.45-2.71.59.33.65.14,1.13-.23l4.41-1.13c.55.26.1,2.4,0,2.49-.19.17-.46-.37-.68-.23-1.21.81-2.97,1.74-4.41,1.81Z"/>
          <path class="cls-15" d="M106.39,33.33c-.17-.01-1.64-.43-1.24.23,8.44,1.87,17.99,9.01,17.07,18.54-1.15.17-1.22-2.22-1.58-3.05-.51-1.17-4.05-7.09-5.09-7.12-.12,0-1.95,1.26-1.7,1.81-.74-.52-2.74-1.95-3.39-1.58-.49.28-.92,1.51-1.13,2.03-5.3-3.36-12.27-4.4-18.42-3.39-.09.04.3.77.34.79.32.14,5.5-.3,6.9-.11,1.85.25,3.14,1.13,4.63,1.58-1.97,3.3-2.89,1.12-5.76.68-1.78-.27-3.63-.22-5.43-.23.93.72,3.83.15,4.52.45.62.28.49,2.62-.57,2.6.45.11.9.24,1.36.34l.23.9c-3.77-.63-7.52-.39-11.3.11.02.62.42.49.79.57,4.08.86,6.39.98,10.51,2.49.14.62-1.56.09-2.26,0-7.26-.98-14.74.3-21.93-.68-.25-.03-4.54-.53-3.28-1.36,4.84.92,10.23-2.06,13.23-5.76-.95-.4-4.38,1.86-3.84.23.43-1.31,14.11-10.31,16.62-10.51l8.7-1.36c.63.34,1.53,1.25,2.03,1.81Z"/>
          <path class="cls-20" d="M131.03,40.34c.72-1.13,1.73,3.05,1.81,3.5,1.16,7.07-.89,10.57-5.2,15.49-.02.02-.51-.29-.45.11s.66.76.9,1.02c-1.53.26-3.83.17-5.09.45-3.19.72-6.69,2.87-10.29,2.71-.3-.07-.64-.44-.68-.45.29-.71,1.05-.05,1.81-.79.32-.31.98-1.88,1.13-2.37.45-1.5.39-2.34.45-3.84,1,1.12.77,3.49.45,4.86.51.4.88-.35,1.13-.68,1.23-1.63,1.7-6.71,1.13-8.82-.92-3.39-4.9-7.38-7.69-9.38.65-.37,2.65,1.06,3.39,1.58,3.54,2.47,6.71,6.93,7.01,11.3,0,.02-.46-.07-.45.11.03.81.44,2.13.23,3.16-.06.31-1.28,1.45-.57,1.7,1.92-1.31,1.75-6.91,4.18-5.65-.48,2.55-2.08,4.87-4.07,6.44.05.92,4.11-1.9,4.41-2.15,7.24-6.17,5.69-17.35.79-24.53.42-.25,1.16.86,1.36,1.13,2.09,2.87,4.5,9.02,4.3,12.66-.03.55-.85,2.18-.9,2.49-.03.19.7.04.68.23-.11,1.07-1.49,2.76-1.36,4.3,3.29-4.04,2.94-9.83,1.58-14.58Z"/>
          <path class="cls-16" d="M106.39,33.33c10.7.68,19.93,9.9,17.86,21.02-2.44-1.26-2.27,4.34-4.18,5.65-.71-.24.5-1.39.57-1.7.21-1.04-.2-2.35-.23-3.16,0-.18.45-.09.45-.11.68.2,1.31-2.43,1.36-2.94.93-9.53-8.63-16.67-17.07-18.54-.39-.66,1.07-.24,1.24-.23Z"/>
          <path class="cls-34" d="M121.76,28.81c.06.02.46.34.68.45-1.45.89,1.72,2.56.11,2.49-1.88-.08-1.73-1.98-2.71-2.49-2.47-1.27-7.85-1.14-10.63-1.13-.65,0-.89.15-.79-.68,4.44-.47,9.18-.45,13.34,1.36Z"/>
          <path class="cls-27" d="M81.97,59.1c-1.12,1.31-2.17,2.49-2.94,4.07-.55-2.55-2.93-1.72-4.3-2.83l3.62-2.15c1.13.3,2.47.76,3.62.9Z"/>
          <path class="cls-27" d="M78.36,64.98c-.45,1.24-.83,2.57-1.13,3.84l-5.88.11,7.01-3.96Z"/>
          <g>
            <path class="cls-15" d="M78.36,58.2l-3.62,2.15c1.36,1.1,3.74.27,4.3,2.83-.28.57-.46,1.21-.68,1.81l-7.01,3.96,5.88-.11c-.1.41-.11,1-.23,1.58-.07.36-.22.64-.23.68-2.21,1.02-3.82,2.91-5.65,4.3-.48.37-.54.55-1.13.23-.22-1.17-.94-2.55-1.13-3.73-.91-5.68-1.23-12.33.9-17.75,2.51,2.04,5.5,3.26,8.59,4.07Z"/>
            <path class="cls-27" d="M74.63,64.07c.83.19,0,.49-.23.68-1.87,1.54-3.78,2.95-5.54,4.63,1.55-2.17,3.39-4.05,5.76-5.31Z"/>
          </g>
          <path class="cls-20" d="M72.48,50.96c3.28.62,5.92.31,9.04.45-.1.9.17.62.79.68,6.23.57,9.47-.1,15.82,1.81.43.13.33-.49.45-.45,2.45.8,3.01,2.27,4.86,3.62.21,1.26,2.03,2.12,1.58,3.39-1.84-.51-5.33-.95-7.46-1.13.66-1.21,5.33,1.04,5.65.11-1.24-1.62-3.49-3.19-5.43-4.18-8.81-4.53-19.77-.61-29.62-5.65,1.46.37,2.79,1.07,4.3,1.36Z"/>
          <path class="cls-29" d="M94.86,50.96l-.23,1.13c-4.48-.67-8.66-.48-13.11-.68-3.13-.14-5.76.17-9.04-.45l.45-.68c7.18.98,14.67-.31,21.93.68Z"/>
          <path class="cls-16" d="M147.99,60.68c-.67.19-10.64-1.85-13.11-1.81,1.91-1.35,3.77-2.1,5.2-4.07l7.12,2.71c.78.93-2.86,0-2.83.79l3.62,2.37Z"/>
          <polygon class="cls-15" points="135.55 32.42 135.67 31.97 136 32.31 135.55 32.42"/>
          <path class="cls-27" d="M115.66,54.81c.09.91-.19.59-.23,1.36-.07,1.5,0,2.35-.45,3.84-1.09.52-.91-2.42-1.13-3.05-1.13-3.31-3.6-6.64-6.44-8.7-1.25-.91-4-2.73-5.54-2.37,4.35,2.34,9.48,6.32,9.72,11.64-1.62-6.49-8.92-9.38-14.69-10.63-.45-.1-.9-.23-1.36-.34,1.06.03,1.19-2.32.57-2.6-.69-.31-3.59.27-4.52-.45,1.8,0,3.65-.05,5.43.23,2.88.44,3.79,2.62,5.76-.68,1.16.35,1.64.75,2.6,1.13.39.16.26-.7.9-.45,3.77,1.41,8.99,6.95,9.38,11.08Z"/>
          <path class="cls-27" d="M97.12,47.8c5.18.87,8.85,3.13,11.53,7.01-.1-.02-.42-.19-.45-.23-1.12-1.09-3.83-3.31-4.07-.45-1.92-1.3-4.82-2.36-7.01-3.16-4.12-1.51-6.43-1.63-10.51-2.49-.37-.08-.77.05-.79-.57,3.78-.51,7.53-.75,11.3-.11Z"/>
          <path class="cls-16" d="M115.43,56.16c.03-.77.31-.44.23-1.36.57-.04.62.33.68-.34.3-3.65-4.08-8.43-7.01-10.29.21-.53.64-1.76,1.13-2.03,2.78,2,6.77,5.99,7.69,9.38.57,2.1.1,7.19-1.13,8.82-.25.33-.62,1.07-1.13.68.32-1.37.54-3.75-.45-4.86Z"/>
          <path class="cls-15" d="M109.33,44.18c2.92,1.85,7.31,6.64,7.01,10.29-.05.67-.11.3-.68.34-.39-4.13-5.61-9.67-9.38-11.08-.65-.24-.51.61-.9.45-.96-.38-1.44-.78-2.6-1.13-1.49-.45-2.78-1.33-4.63-1.58-1.4-.19-6.58.25-6.9.11-.04-.02-.43-.75-.34-.79,6.15-1.01,13.12.03,18.42,3.39Z"/>
          <path class="cls-27" d="M122.21,52.09c-.05.51-.68,3.14-1.36,2.94-.3-4.37-3.47-8.83-7.01-11.3-.25-.55,1.57-1.81,1.7-1.81,1.04.03,4.57,5.95,5.09,7.12.36.83.43,3.22,1.58,3.05Z"/>
          <path class="cls-15" d="M111.59,57.52c.28,1.13.48,2.53-.11,3.62-.11-2.68-1.41-4.28-2.83-6.33-2.68-3.87-6.34-6.14-11.53-7.01l-.23-.9c5.78,1.25,13.08,4.14,14.69,10.63Z"/>
          <path class="cls-34" d="M97.12,50.96c2.18.8,5.09,1.86,7.01,3.16.67.45,2.45,1.46,1.7,2.26-3.21-2.66-7.15-3.69-11.19-4.3l.23-1.13c.7.09,2.41.62,2.26,0Z"/>
          <path class="cls-20" d="M114.98,60.01c-.15.49-.81,2.06-1.13,2.37-.76.74-1.51.08-1.81.79-.29-.08-.77-.12-1.13-.23-1.75-.54-4.5-2.1-5.88-2.49.44-1.27-1.38-2.13-1.58-3.39.02.01.07-.43.34-.23,1.87,1.4,3.82,2.83,5.2,4.75,1.24-2.59-.89-4.55-.79-7.01.03.03.35.2.45.23,1.42,2.05,2.72,3.65,2.83,6.33.59-1.09.4-2.48.11-3.62-.24-5.32-5.37-9.3-9.72-11.64,1.54-.35,4.29,1.46,5.54,2.37,2.85,2.07,5.31,5.39,6.44,8.7.22.64.04,3.57,1.13,3.05Z"/>
          <path class="cls-16" d="M94.63,52.09c4.04.61,7.99,1.63,11.19,4.3.76-.8-1.03-1.81-1.7-2.26.23-2.86,2.95-.64,4.07.45-.1,2.46,2.03,4.41.79,7.01-1.38-1.92-3.33-3.35-5.2-4.75-.27-.2-.32.24-.34.23-1.85-1.35-2.41-2.82-4.86-3.62-.12-.04-.03.58-.45.45-6.35-1.9-9.6-1.24-15.82-1.81-.62-.06-.89.22-.79-.68,4.45.2,8.63,0,13.11.68Z"/>
        </g>
        <g>
          <path class="cls-25" d="M140.53,96.4c-.17,2.58-.65,5.13-.9,7.69-.18,1.82-.3,3.61-.45,5.43-.07.82-.16,1.66-.23,2.49-.04.44.03.91,0,1.36-.23,2.96.07,8.75-.68,11.19-.9,2.91-7.23,8.68-9.72,10.74-2.76,2.28-10.41,7.95-13.56,8.82-3.07-.02-6.06.62-9.16.45-.04,0-.63-.45-.68-.45-.58-.06-2.82.69-3.05-.68,3.47.75,10.34.7,13.68-.45,3.9-1.35,18.45-13.59,20.46-17.29,2.89-5.34.57-16.01,2.71-22.27l1.58-7.01Z"/>
          <path class="cls-19" d="M102.09,143.43c.23,1.37,2.47.62,3.05.68.04,0,.64.45.68.45,3.1.17,6.09-.47,9.16-.45-10.15,2.79-15.75-.32-23.51-5.88-.75-.54-1.62-1.76-2.71-1.81-2.51-2.81-6.01-4.81-8.36-7.8-4.18-5.32-2.66-8.84-3.16-15.15-.01-.19-.45-.09-.45-.11-.03-.34.51-.02.45-.68-.09-1.04-.37-2.14-.45-3.16-.17-2.14-.47-4.21-.68-6.33-.23-2.39-.26-4.84-.45-7.23.65-.45.44.15.45.57.2,5.51,1.67,10.98,2.26,16.5.45,4.17-.54,8.71,1.36,12.43,2.24,4.42,17.69,16.96,22.38,17.97Z"/>
          <path class="cls-35" d="M74.97,89.17c-.12,1.16.36,2.49-.45,3.39-.3,0-.6,0-.9,0-.1-.36-.99-3.07-1.13-3.16.2.02.23-.22.45-.23.62,0,1.16-.14,1.7-.45l.34.45Z"/>
          <g>
            <path class="cls-55" d="M90.79,142.97c3.77,4.2,7.48,8.66,12.09,11.98,9.3,6.7,21.48,9.02,27.47,19.89-12,11.01-30.28,12.73-42.28.68-.24-.24-.45-.66-.68-.9l-2.49-10.17c0-.07,0-.15,0-.23,1.18-1.6,2.23-3.85,2.71-5.76.17-.65,1.13-4.54,0-4.41.78-2.87.55-6.64.68-9.72.05-1.13.2-2.26.23-3.39.71.38,1.72,1.43,2.26,2.03Z"/>
            <path class="cls-43" d="M128.54,135.29c.11,3.4.42,6.79.68,10.17s-.14,7.12,1.58,10.17c-.6,0-.64-.57-.68.34-.1,2.37,1.92,6.18,3.39,8.03-.26,3.15-.8,6.17-1.36,9.27-.62.5-1.23,1.05-1.81,1.58-5.98-10.88-18.17-13.19-27.47-19.89-4.61-3.33-8.33-7.78-12.09-11.98l.68-4.75c7.76,5.56,13.36,8.67,23.51,5.88,3.15-.87,10.8-6.53,13.56-8.82Z"/>
            <path class="cls-52" d="M91.47,138.23l-.68,4.75c-.54-.6-1.55-1.65-2.26-2.03.04-1.5.39-3,.23-4.52,1.09.05,1.96,1.27,2.71,1.81Z"/>
            <path class="cls-23" d="M84.91,164.22c-.1-1.06-.39-2.06-.45-3.16-.23-4.19.81-2.18,2.49-5.09.35-.61.5-1.25.68-1.92,1.13-.13.17,3.75,0,4.41-.48,1.92-1.53,4.16-2.71,5.76Z"/>
            <path class="cls-56" d="M87.4,174.62c-.32-.34-.67-.74-1.13-.9-.45-2.35-.82-4.63-1.13-7.01-.1-.78-.15-1.5-.23-2.26l2.49,10.17Z"/>
            <path class="cls-58" d="M130.8,155.63c.65,1.14,3.1,3.06,3.16,3.28.2.61-.37,4.12-.45,5.09-1.47-1.84-3.49-5.66-3.39-8.03.04-.91.08-.33.68-.34Z"/>
          </g>
          <path class="cls-44" d="M112.04,63.17s.38.38.68.45c7.58,1.83,17-1.98,24.87.23.52,1.04.8,1.83,1.13,2.94.37,1.26.45,2.15.68,3.39,1.09,6,1.42,12.23.9,18.31-2.36-.49-4.6-1.21-7.01-1.58.32-.74-.05-.69-.57-.9-3.01-1.25-7.54-1.75-10.74-1.13l-.23-1.13c4.79-.47,11.35-1.6,15.26,1.81.43-3.91-5.26-5.81-8.36-6.1-1.87-.18-11.19.37-12.43,1.36-1.09.86-.59,2.59-.79,3.62-.21,1.08-1.96,2.47.23,2.49-1.28.16-3.19,1.2-4.86,1.36-5.02.48-8.11-.96-12.77-1.58.4-1.04-3-1.26-3.62-1.36-.18-1.02-1.67.27-.9-1.58,2.37.15,4.74.74,7.12.9.24-1.23.35-3.16-.9-3.84-1.03-.56-8.68-1-10.17-.9-3.46.22-10.72,1.94-10.63,6.33,1.49-1.23,3.2-1.89,5.09-2.26-.29,1.5-3.96,1.62-3.39,3.39-1.54.33-3.59.67-4.97,1.36-.52-5.8.06-11.92,1.13-17.63,0-.04.15-.32.23-.68,5.6-5.41,13.53-5.62,20.91-6.1,4.22-.28,9.39,1.02,13-1.36.36.11.84.14,1.13.23Z"/>
          <path class="cls-24" d="M97.57,59.33c2.13.18,5.62.62,7.46,1.13,1.38.38,4.12,1.94,5.88,2.49-3.61,2.37-8.78,1.08-13,1.36-7.38.49-15.31.69-20.91,6.1.12-.58.13-1.17.23-1.58.3-1.28.69-2.61,1.13-3.84.22-.6.4-1.24.68-1.81.77-1.58,1.82-2.76,2.94-4.07,5.18.66,10.4-.21,15.6.23Z"/>
          <g>
            <path class="cls-24" d="M72.48,89.39c.14.1,1.03,2.8,1.13,3.16.1.4.07.95.23,1.58-1.59-1.92-4.63-4.81-5.65-.79l.34.57c7.04-.64,2.73,3.21,2.37,6.22-.38,3.18.42,4.74,1.81,7.35,1.06,2,2.45,4.17,4.52,5.2.05.66-.48.34-.45.68-3.62-.83-7.56-7.49-8.36-10.96-.53-2.28-1.09-9.21-.45-11.3.56-1.86,2.89-2.9,4.52-1.7Z"/>
            <path class="cls-23" d="M73.83,94.14c.73,2.98.78,6.28,2.26,9.04.2,2.12.51,4.19.68,6.33-1.9.96-2.54-1.22-3.39-2.15-.57-.63-.26-.07-.68.11-1.38-2.61-2.19-4.17-1.81-7.35.36-3.01,4.67-6.85-2.37-6.22l-.34-.57c1.02-4.02,4.06-1.13,5.65.79Z"/>
            <path class="cls-16" d="M74.51,92.56c.52,0,.49.03.9.23-.16,1.08.14,2.12.23,3.16.19,2.4.22,4.84.45,7.23-1.49-2.77-1.53-6.06-2.26-9.04-.16-.63-.12-1.19-.23-1.58.3,0,.6,0,.9,0Z"/>
            <path class="cls-24" d="M76.77,109.51c.08,1.02.37,2.12.45,3.16-2.07-1.03-3.46-3.2-4.52-5.2.41-.19.1-.74.68-.11.85.93,1.49,3.11,3.39,2.15Z"/>
          </g>
          <g>
            <path class="cls-23" d="M147.99,92.56c.76,6.31-1.1,13.7-5.43,18.42-.99,1.08-2.04,2.33-3.62,2.37.03-.45-.04-.91,0-1.36,2.03-.4,5.48-6.28,5.88-8.03.6-2.66-.03-5.82-1.58-8.03.31-1.42-.06-1.05-.9-2.03.02-.07-.02-.15,0-.23,2-1.48,3.57-4.09,5.65-1.13Z"/>
            <path class="cls-24" d="M147.99,92.56c-2.08-2.96-3.65-.35-5.65,1.13.08-.37.15-.76.23-1.13.26-1.23.25-2.23.45-3.16.94.11,1.87-.99,3.5-.23.92.43,1.36,2.45,1.47,3.39Z"/>
            <path class="cls-58" d="M143.24,95.95c-.88,4.04.49,6.05,0,9.38-.2,1.36-2.31,4.66-4.07,4.18.15-1.82.27-3.61.45-5.43l1.58-4.41c.35-1.92.73-3.86,1.13-5.76.84.99,1.22.61.9,2.03Z"/>
            <path class="cls-23" d="M138.94,112c.07-.83.16-1.67.23-2.49,1.76.47,3.87-2.82,4.07-4.18.49-3.33-.88-5.35,0-9.38,1.55,2.21,2.19,5.37,1.58,8.03-.4,1.75-3.85,7.63-5.88,8.03Z"/>
          </g>
          <path class="cls-55" d="M140.53,96.4l-1.58,7.01-.34-1.36-1.24.45c1.14-2.57.66-8.19,3.16-9.72.19,1.07.07,2.51,0,3.62Z"/>
          <path class="cls-16" d="M142.56,92.56c-.08.37-.15.76-.23,1.13-.02.07.02.15,0,.23-.4,1.91-.78,3.84-1.13,5.76l-1.58,4.41c.25-2.56.74-5.1.9-7.69.07-1.1.19-2.54,0-3.62.25-.16.62-.4.9-.45.24-.04,1.06-.12,1.13.23Z"/>
          <path class="cls-23" d="M133.52,59.33c1.1.34,3,2.4,3.62,3.39.09.14.3.82.45,1.13-7.86-2.2-17.29,1.6-24.87-.23,3.59.16,7.1-1.99,10.29-2.71,1.26-.28,3.56-.19,5.09-.45s4.05-1.55,5.43-1.13Z"/>
          <path class="cls-16" d="M121.76,83.74c-2.11.21-4.22.52-6.33.68.2-1.03-.3-2.76.79-3.62,1.24-.98,10.56-1.53,12.43-1.36,3.1.29,8.8,2.19,8.36,6.1-3.91-3.41-10.47-2.28-15.26-1.81Z"/>
          <path class="cls-27" d="M93.5,83.74c-3.16-.2-6.36-.39-9.49.23-1.88.37-3.59,1.03-5.09,2.26-.1-4.39,7.17-6.11,10.63-6.33,1.49-.1,9.14.35,10.17.9,1.26.68,1.14,2.61.9,3.84-2.38-.16-4.75-.75-7.12-.9Z"/>
          <path class="cls-24" d="M93.5,83.74c-.77,1.85.73.56.9,1.58-3.24-.5-7.46-1.04-9.95,1.36-1.44.17-2.45.38-3.84.68-.57-1.77,3.1-1.89,3.39-3.39,3.13-.62,6.33-.43,9.49-.23Z"/>
          <path class="cls-15" d="M133.29,86.91c-4.62-.72-8.42-.87-13.11-.45.09-1.74.15-1.26,1.81-1.58,3.2-.62,7.72-.12,10.74,1.13.51.21.89.16.57.9Z"/>
          <path class="cls-24" d="M121.76,83.74l.23,1.13c-1.66.32-1.72-.16-1.81,1.58-1.52.13-3.01.26-4.52.45-2.18-.02-.44-1.41-.23-2.49,2.11-.16,4.22-.47,6.33-.68Z"/>
          <path class="cls-56" d="M94.41,85.33c.62.1,4.02.32,3.62,1.36-4.63-.62-8.91-.56-13.56,0,2.48-2.4,6.7-1.85,9.95-1.36Z"/>
          <path class="cls-55" d="M110.23,93.46c-1.17,2.69,2.26,16.43,1.58,17.63-.4.71-1.57.79-2.26.9-.89.15-1.67.3-2.6.23-.62-.05-5.02-2.07-4.86-.34.56.45.72,1.07,1.36,1.47-.38,1.1-1.6-.49-1.81-1.13-.29-2.12-.72-3.53,1.47-4.75,1.07.12-1.89,4.3,1.36,3.62.78-.16.2-1.51.34-2.15.89-3.97,2.24-10.22,1.36-14.24-.14-.65-.78-.04-.68-.79,1.27-2.05,3.17-2.35,4.75-.45Z"/>
          <path class="cls-23" d="M103.45,113.36c1.73,1.09,1.76-.24,2.37-.23.09,0,.86.47,1.24.45,1.7-.08,2.96-.5,4.3-.34-5.15,2.19-1.04,2.02,1.81,1.47-1.96,2.68-10.9,1.27-11.76-1.7-.16-.55.23-.75.23-.79.21.64,1.43,2.23,1.81,1.13Z"/>
          <path class="cls-56" d="M113.17,114.71c-2.85.55-6.96.72-1.81-1.47-1.34-.16-2.6.26-4.3.34,1.17-.5,2.41.25,2.49-1.58.69-.12,1.86-.19,2.26-.9,0,1.35,1.78-.32,2.26.34l-1.02,2.37,2.15-1.92c-.09,1.64-.32,2.5-2.03,2.83Z"/>
          <path class="cls-23" d="M109.55,112c-.08,1.84-1.31,1.08-2.49,1.58-.39.02-1.15-.45-1.24-.45-.61-.01-.64,1.32-2.37.23-.64-.4-.79-1.01-1.36-1.47-.16-1.73,4.24.29,4.86.34.93.07,1.71-.08,2.6-.23Z"/>
          <g>
            <path class="cls-45" d="M105.48,93.92c-.1.75.54.14.68.79.89,4.02-.47,10.27-1.36,14.24-.14.64.44,1.98-.34,2.15-3.25.68-.28-3.5-1.36-3.62-2.19,1.22-1.76,2.63-1.47,4.75,0,.04-.39.24-.23.79.86,2.97,9.8,4.37,11.76,1.7,1.71-.33,1.95-1.18,2.03-2.83l-2.15,1.92,1.02-2.37c-.48-.66-2.26,1.01-2.26-.34.68-1.21-2.76-14.95-1.58-17.63,2.68,3.22,2.14,8.47,6.9,11.76s17.47,3.49,20.23-2.71l1.24-.45.34,1.36c-2.14,6.26.18,16.93-2.71,22.27-2.01,3.7-16.56,15.94-20.46,17.29-3.34,1.16-10.21,1.2-13.68.45-4.69-1.01-20.14-13.55-22.38-17.97-1.89-3.73-.91-8.26-1.36-12.43-.59-5.52-2.06-11-2.26-16.5-.02-.41.2-1.01-.45-.57-.08-1.04-.39-2.09-.23-3.16,2.59,1.23,2.18,8.42,4.3,11.19,3.57,4.66,14.79,4.32,19.33,1.24s4.11-7.55,6.44-11.3Z"/>
            <g>
              <path class="cls-23" d="M95.09,121.04c2.06,1.97,6,4.46,8.82,4.97-.15,1.15.14.67.57.9,1.51.82,6.79,1.01,8.14,0,.56-.42.32-.56.34-1.13,2.76-.64,6.88-3.35,8.82-5.43-4.29,12.83-22.19,12.53-27.35.57l.68.11Z"/>
              <path class="cls-17" d="M94.86,118.33c.44.14.92.33,1.36.45,1.81,7.69,17.1,7.71,21.59,3.62.93-.85,1.29-2.62,2.15-3.39,1.05-.94,2.36-.73,3.16-1.81,1.68.03-.89,2.67-1.36,3.16-1.94,2.07-6.05,4.79-8.82,5.43-2.57.59-6.43.7-9.04.23-2.82-.51-6.75-3-8.82-4.97-.29-.28-4-4.1-2.15-3.84-.29.77,1.06.85,1.92,1.13Z"/>
              <path class="cls-14" d="M123.12,117.2c-.8,1.08-2.12.86-3.16,1.81-8.29,1.83-15.48,2.05-23.74-.23-.44-.12-.91-.31-1.36-.45.11-.32.31-.54.68-.57,1.55-.12,4.23.67,5.88.79,2.78.2,6.04.32,8.82.23,4.31-.14,8.62-1.06,12.89-1.58Z"/>
              <path class="cls-55" d="M110.23,118.78c-2.78.09-6.04-.02-8.82-.23l2.15-2.26c1.05,3.1,4.21,1.85,6.67,2.49Z"/>
              <path class="cls-33" d="M112.95,125.79c-.02.57.22.71-.34,1.13-1.35,1.01-6.63.82-8.14,0-.42-.23-.72.25-.57-.9,2.62.48,6.48.37,9.04-.23Z"/>
              <path class="cls-50" d="M119.95,119.01c-.86.77-1.22,2.55-2.15,3.39-4.49,4.09-19.78,4.07-21.59-3.62,8.25,2.28,15.45,2.06,23.74.23Z"/>
            </g>
          </g>
          <g>
            <path class="cls-48" d="M98.02,86.68c4.67.63,7.75,2.07,12.77,1.58,1.67-.16,3.58-1.19,4.86-1.36,1.51-.19,3.01-.32,4.52-.45,4.69-.41,8.5-.27,13.11.45,2.41.38,4.65,1.1,7.01,1.58.04,0,.3.16.68.23l.45,3.62c-.29.05-.65.3-.9.45-2.5,1.53-2.02,7.15-3.16,9.72-2.76,6.21-15.41,6.04-20.23,2.71s-4.22-8.54-6.9-11.76c-1.58-1.9-3.47-1.6-4.75.45-2.33,3.75-1.93,8.25-6.44,11.3s-15.76,3.42-19.33-1.24c-2.12-2.77-1.7-9.96-4.3-11.19-.42-.2-.38-.22-.9-.23.81-.9.33-2.23.45-3.39.27-.09.41-.32.68-.45,1.39-.69,3.44-1.03,4.97-1.36,1.4-.3,2.41-.5,3.84-.68,4.65-.56,8.93-.62,13.56,0Z"/>
            <g>
              <path class="cls-55" d="M78.81,92.11c1.27-.48,4.49-1.35,5.2.11.02.04-1.04.78,0,.79-.34.71-.86,1.68-.68,2.49.35,1.55,5.51,3.02,6.9,3.16,2.07.22,6.16.32,7.8-1.13.69-.17.72.13,1.13-.68,1.28-2.51-2.27-7.87-5.2-8.36l.23-.45c6.81.45,9.68,1.21,8.14,8.7-1.58,7.7-7.46,10.08-14.81,9.38-7.74-.73-9.11-7.16-8.7-14.02Z"/>
              <path class="cls-36" d="M94.18,88.04l-.23.45c-3.69-.63-8.3,1.04-9.95,4.52-1.04,0,.02-.76,0-.79-.71-1.46-3.93-.59-5.2-.11.03-.48.02-1.27.23-1.7,1.25-2.62,12.4-2.56,15.15-2.37Z"/>
              <path class="cls-20" d="M93.96,88.49c2.92.5,6.48,5.85,5.2,8.36-.49-1.99-1.41-4.06-2.94-5.43-1.96-1.75-6.2-2.57-7.91-.23-2.1.32-3.19,2.28-4.3,3.84-.17.24-.32.54-.68.45-.18-.81.34-1.78.68-2.49,1.65-3.49,6.26-5.15,9.95-4.52Z"/>
              <path class="cls-19" d="M99.15,96.85c-.41.81-.44.5-1.13.68-1.36.34-2.7.21-4.07.23,2.33-.24,3.64-5.07,2.26-6.33,1.53,1.36,2.45,3.43,2.94,5.43Z"/>
              <path class="cls-24" d="M89.89,97.53c1.4.18,2.65.25,4.07.23s2.7.12,4.07-.23c-1.64,1.45-5.73,1.35-7.8,1.13-1.38-.15-6.55-1.61-6.9-3.16.35.09.51-.21.68-.45,1.08,1.88,3.86,2.23,5.88,2.49Z"/>
              <g>
                <path class="cls-55" d="M122.78,87.81c2.33-.13,13.03.24,14.13,2.37.97,1.87-.34,10.79-1.58,12.66-2.98,4.49-13.61,4.05-17.52,1.02-2.84-2.2-5.55-9.71-4.18-13,.89-2.16,7.13-2.94,9.16-3.05Z"/>
                <path class="cls-20" d="M132.16,95.5c-.72-2.23-2.5-3.29-4.3-4.3-3.06-1.71-4.88-2.32-7.91.23-1.9,1.59-2.1,3.27-3.39,5.2-.19-.86,1.03-4.47,1.58-5.31,2.36-3.56,7.6-3.54,10.96-1.47,1.46.89,4.57,4.44,3.05,5.65Z"/>
                <path class="cls-19" d="M132.16,95.5c-1.49,1.19-4.26,1.85-6.1,2.03,2.25-1.09,3.45-4.08,1.81-6.1v-.23c1.79,1,3.57,2.06,4.3,4.3Z"/>
                <path class="cls-19" d="M119.5,92.33c-.51,1.56-.15,4.11,1.36,4.97-.57.17.7.34-.11.45s-3.95-.06-4.18-1.13c1.29-1.93,1.49-3.61,3.39-5.2.1.45-.34.55-.45.9Z"/>
                <g>
                  <path class="cls-1" d="M127.87,91.43c1.64,2.02.44,5.02-1.81,6.1-1.55.15-3.8.57-5.2-.23-1.51-.86-1.87-3.41-1.36-4.97l3.96-2.26c1.7-.22,2.88.95,4.41,1.36Z"/>
                  <path class="cls-30" d="M127.87,91.2v.23c-1.52-.41-2.71-1.58-4.41-1.36l-3.96,2.26c.12-.36.55-.45.45-.9,3.04-2.54,4.85-1.94,7.91-.23Z"/>
                  <path class="cls-30" d="M126.28,93.92c-.96,2.02-1.63,2.82-4.07,1.81-.73-.46-.76-2.04-.45-2.71.82-1.8,4.29-1.28,4.52.9Z"/>
                  <path class="cls-31" d="M120.18,94.59c1.06-.19,1.08.73,2.03,1.13,2.44,1.01,3.11.21,4.07-1.81.06-.12,1.07-.16.57-2.03,1.12,1.38.96,2.18.11,3.73-.21.38-.55-.14-.57-.11-.28.4.13.54.11.57-.55.55-1.84,1.45-2.6,1.47-1.53.05-3.22-1.57-3.73-2.94Z"/>
                  <path class="cls-51" d="M121.76,93.01c-.3.67-.28,2.25.45,2.71-.96-.4-.97-1.32-2.03-1.13-.61-1.62-.14-2.61,1.58-1.58Z"/>
                </g>
              </g>
              <path class="cls-19" d="M88.3,91.2c-.32.43-.4.83-.45,1.36-.01.15,0,.31,0,.45-.11.11-.36-.39-.45-.11-.54,1.58.92,4.04,2.49,4.63-2.02-.26-4.8-.61-5.88-2.49,1.1-1.57,2.19-3.52,4.3-3.84Z"/>
              <g>
                <path class="cls-30" d="M96.22,91.43c-.06-.05-.98.06-1.58-.23-3.04-1.44-4.44-1.66-6.78,1.36.05-.53.14-.92.45-1.36,1.71-2.35,5.95-1.52,7.91.23Z"/>
                <path class="cls-54" d="M94.63,91.2c.6.28,1.52.17,1.58.23,1.38,1.26.07,6.09-2.26,6.33-1.42.02-2.67-.05-4.07-.23-1.57-.6-3.03-3.06-2.49-4.63.1-.28.35.22.45.11.1,1.78,1.95,4.27,3.73,4.52,2.37.34,5.68-3.09,3.5-5.31v2.49l-.9-.34c.12-1.12-.28-1.89-1.36-2.26.16-1.1.86-.96,1.47-.23l.34-.68Z"/>
                <path class="cls-1" d="M94.63,91.2l-.34.68c-.61-.73-1.31-.87-1.47.23-.84-.29-2.38-.13-2.94.68-1.38-.95-1.18-.17-1.81.23-.06.03-.19-.04-.23,0,0-.15-.01-.31,0-.45,2.35-3.02,3.74-2.79,6.78-1.36Z"/>
                <path class="cls-48" d="M92.82,92.11c1.08.37,1.48,1.14,1.36,2.26-.14,1.31-1.64,2-2.83,1.81-1.11-.18-1.46-1.4-1.92-1.81.46-.16.39-1.49.45-1.58.56-.81,2.1-.96,2.94-.68Z"/>
                <path class="cls-31" d="M87.85,93.01s.17.03.23,0c-.41,1.4,1.11,1.14,1.36,1.36.46.41.82,1.63,1.92,1.81,1.19.19,2.69-.5,2.83-1.81l.9.34v-2.49c2.17,2.22-1.13,5.65-3.5,5.31-1.78-.25-3.63-2.74-3.73-4.52Z"/>
                <path class="cls-53" d="M89.89,92.79c-.06.09,0,1.43-.45,1.58-.24-.21-1.77.05-1.36-1.36.63-.4.43-1.18,1.81-.23Z"/>
              </g>
            </g>
          </g>
        </g>
      </g>
    </g>
  </g>
</svg>