<?xml version="1.0" encoding="UTF-8"?>
<svg id="Layer_1" xmlns="http://www.w3.org/2000/svg" version="1.1" viewBox="0 0 300 300">
  <!-- Generator: Adobe Illustrator 29.6.0, SVG Export Plug-In . SVG Version: 2.1.1 Build 207)  -->
  <defs>
    <style>
      .st0 {
        fill: #212640;
      }

      .st1 {
        fill: #fbc09d;
      }

      .st2 {
        fill: #05195e;
      }

      .st3 {
        fill: #fb9f7b;
      }

      .st4 {
        fill: #e5e6e6;
      }

      .st5 {
        fill: #4b0c05;
      }

      .st6 {
        fill: #d3a87c;
      }

      .st7 {
        fill: #b48c61;
      }

      .st8 {
        fill: #0681bd;
      }

      .st9 {
        fill: #c3c3c1;
      }

      .st10 {
        fill: #ef644e;
      }

      .st11 {
        fill: #7f4b27;
      }

      .st12 {
        fill: #212a56;
      }

      .st13 {
        fill: #120703;
      }

      .st14 {
        fill: #ddbb95;
      }

      .st15 {
        fill: #303b70;
      }

      .st16 {
        fill: #aa764d;
      }

      .st17 {
        fill: #fefdfe;
      }
    </style>
  </defs>
  <g>
    <path class="st15" d="M179.5,177.6c3.2,2.2,6.8,3.3,10.5,4.5l4.2,19.4-10.8.3,9.1,6.6-39.1,50.8,19.2-61.4s0-.4.3-.3c1.6,2.6,3,5.7,5.6,7.5l.3-27.8c.2,0,.5.2.7.3Z"/>
    <path class="st15" d="M121.5,204.5c1.7-2.2,3.3-5,4.9-7,.7.1.6.7.7,1,5.1,13.5,16.9,46.6,18.9,59.7l-38.8-49.8,9.4-7h-11.2l4.5-19.7c3.8-1.3,6.1-2,9.8-3.8l-.3,28.5c1.6.9,1.9-1.7,2.1-1.9Z"/>
    <g>
      <path class="st0" d="M195.9,183.9c17.6,5.7,35,5.8,38.8,27.4l4.5,48.2-85.9-.2,39.1-50.8-9.1-6.6,10.8-.3-4.2-19.4c.1,0,.2,0,.3,0,1.8.6,3.7,1.1,5.6,1.7Z"/>
      <path class="st0" d="M214.2,211.5l-2.3,47.3c-.3.4-4.2.3-4.5-.3-.5-1,.4-17.4.7-19.9,1-9.1,3.3-18.4,6.1-27.1Z"/>
    </g>
    <g>
      <path class="st0" d="M146,258.2c0,.4.8,1.1.2,1.7l-85.7-.2,4.5-49.6c3.7-19.7,20.3-20.5,36.3-25.7,2.9-.9,5.8-1.8,8.7-2.8l-4.5,19.7h11.2l-9.4,7,38.8,49.8Z"/>
      <path class="st0" d="M85,211.8c3,7.3,5.1,16.6,6.1,24.6.3,2.7,1.6,20.8,1,22s-4.5.9-4.9,0l-2.3-46.6Z"/>
    </g>
    <path class="st12" d="M120.8,177.6l.7,26.9c-.2.3-.4,2.8-2.1,1.9l.3-28.5c.4-.2.6-.4,1-.3Z"/>
    <g>
      <path class="st4" d="M152.2,198.9c0,1.4,0,2.8,0,4.2-.1,18.9-.4,37.8-.7,56.7l-4,.2c.3-18.9-1-38.4-.2-57.3s.5-2.6.3-3.8c1.2.4,3.5.5,4.5,0Z"/>
      <path class="st4" d="M172.1,197.8c-1.6-.4-3.4-4.9-5.4-4.9s-8.3,3.6-8.7,3.8c-1.8,1.2-3.8,4.8-5.8,6.3,0-1.4,0-2.8,0-4.2.5-.2,2.3-2.9,2.8-3.5,7.9-1.2,13.4-9.5,17.1,2.4Z"/>
      <path class="st4" d="M144.2,195.7c1.4.8,1.5,2.5,3.5,3.1.1,1.3-.3,2.7-.3,3.8-2.2-1.2-3.9-4.7-5.8-5.9s-6.5-1.8-8.4-3.8l-6.1,5.6c-.1-.4,0-.9-.7-1,.2-.2.3-.3.3-.3.6-.8,4.7-5.8,5.1-5.9,2.2-.6,9.5,4.7,12.4,4.5Z"/>
      <path class="st9" d="M172.8,197.5c-.4,0-.3.3-.3.3,0,0-.3,0-.3,0-3.7-11.9-9.3-3.6-17.1-2.4,0-.1.3-.6.3-.7,3.1-1.2,9-6,12.4-5.2s4,6.3,5.1,8Z"/>
      <path class="st17" d="M178.8,177.2l-.3,27.8c-2.6-1.8-4-4.9-5.6-7.5s-3.6-7.7-5.1-8c-3.4-.7-9.3,4-12.4,5.2,5.2-6.8,9.4-15.9,14.7-22.3s.7-1.2,1.2-1.7c.5-.1,7.7,5,7.5,6.6Z"/>
      <path class="st17" d="M129.2,172.4c4.2,5.3,11.4,16.1,14.7,22-3.3-.8-9-5.8-12.4-4.9s-3.8,6.4-4.7,7.7c0,0-.2.1-.3.3-1.6,2-3.2,4.8-4.9,7l-.7-26.9c.2-.5-.3-.7-.3-1l7.2-5.9c.9,0,1.2,1.3,1.6,1.7Z"/>
      <path class="st9" d="M143.9,194.4c.3.5.5.8.3,1.4-2.9.1-10.1-5.2-12.4-4.5s-4.4,5.2-5.1,5.9c.9-1.3,3.4-7.3,4.7-7.7,3.4-.9,9.1,4,12.4,4.9Z"/>
    </g>
  </g>
  <g>
    <path class="st6" d="M195.9,183.9c-1.8-.6-3.8-1.1-5.6-1.7,14.4-38.5,11.9-88-16.2-119.8-10.2,7.4-20.7,14.5-31.8,20.6s-30.4,12.5-34,19.6-1.4,2.2-1.7,4.2,0,.7,0,1c-1.5-.9-.4,1.1-.3,1.4s0,.8,0,1.4c-.8-.8-.8.7-1,1.7-5.9,21.5-5.9,49.6,4.9,69.5-2.9,1-5.8,1.9-8.7,2.8-12.8-25.7-14.8-59.6-9.1-87.6,27.1-4.4,54.8-17.4,72.6-38.6-7.8-4-14.8-10.4-19.2-18,9.6-1,20.2-.3,28.8,4.5s4.6,4.1,4.9,4.2c.7.2,2.5-.2,3.1,0,13.7,5.3,21.9,37.1,23.9,50.5,4.2,27.1,2.8,60-10.5,84.3Z"/>
    <path class="st14" d="M145.6,40.4c4.4,7.6,11.4,14,19.2,18-17.8,21.2-45.5,34.2-72.6,38.6,5.7-28.1,22.8-53.4,53.4-56.6Z"/>
    <path class="st16" d="M190.3,182.1c-.1,0-.2,0-.3,0-3.6-1.3-7.3-2.4-10.5-4.5,6.7-16,10-33.6,10.1-51,3.7-2.7,6.7-15,5.9-19.4s-3.5-6.8-6.3-4.2c.7-13.4-7.8-23.7-16.2-33-11.9,7.9-23.9,16.2-37.4,21.3-6.3,2.4-13.9,3.6-19.9,6.6s-6.1,2.9-5.9,5.9l-1.6-1.4c3.7-7,25.8-15,34-19.6s21.6-13.2,31.8-20.6c28.2,31.7,30.7,81.3,16.2,119.8Z"/>
    <path class="st16" d="M110.7,127.3c.2,13.1,2.6,26.7,5.9,39.3s3.2,7.1,3.8,10,.5.5.3,1c-.5,0-.7.2-1,.3-3.7,1.8-6,2.5-9.8,3.8-10.8-19.9-10.8-48-4.9-69.5,0,5.7,1.5,11,5.6,15Z"/>
    <path class="st11" d="M179.5,177.6c-.2-.1-.5-.3-.7-.3.2-1.6-7-6.8-7.5-6.6-.5.5-.8,1.2-1.2,1.7-1.1-1.8-1.6-3.8-1.7-5.9s.2-5.4,0-8c6.8-5.7,11.3-11.5,14.7-19.7s2.7-10.4,3.1-10.8,2.2-.3,3.5-1.2c0,17.4-3.4,34.9-10.1,51Z"/>
    <path class="st11" d="M131.3,158.7c.3,2.4.3,4.6,0,7s-.3,4.9-2.1,6.6c-.4-.5-.7-1.8-1.6-1.7l-7.2,5.9c-.6-2.8-3-6.8-3.8-10-3.4-12.6-5.7-26.2-5.9-39.3.2.2,1.9.3,2.1.5s1.4,5.7,1.7,6.6c4.2,11,7.5,16.7,16.8,24.3Z"/>
  </g>
  <g>
    <path class="st3" d="M106.2,110.6c0-.6,0-1,0-1.4,0-.5.3-.8.3-1.4s0-.7,0-1c.8-.2,3-.8,3.5.2s.5,8.9.7,10.5,1.6,6.2.9,6.5l-.7-.3c-3.6-4.5-4.3-7.3-4.7-12.9Z"/>
    <path class="st7" d="M106.5,107.8c0,.6-.3.9-.3,1.4,0-.3-1.1-2.3.3-1.4Z"/>
    <path class="st1" d="M168.3,166.4c.2,2.1.6,4.1,1.7,5.9-5.3,6.4-9.5,15.6-14.7,22.3s-.3.6-.3.7c-.5.6-2.3,3.3-2.8,3.5-1.1.5-3.3.4-4.5,0-2-.7-2.1-2.3-3.5-3.1.1-.6,0-.9-.3-1.4-3.2-5.9-10.4-16.7-14.7-22,1.8-1.7,1.9-4.5,2.1-6.6,2.3,1.2,4.3,3.6,6.8,4.5,4.9,1.7,19.3.6,24.4-.7s3.8-1.8,5.8-3.1Z"/>
    <path class="st3" d="M168.3,158.4c.2,2.6-.2,5.4,0,8-1.9,1.3-3.4,2.5-5.8,3.1-5.2,1.3-19.6,2.4-24.4.7s-4.5-3.3-6.8-4.5c.3-2.4.3-4.6,0-7,13.6,11.1,23.6,10.8,37-.3Z"/>
    <g>
      <path class="st1" d="M189.6,126.6c-1.3,1-3.3,1.1-3.5,1.2-.4.4-2.4,9.1-3.1,10.8-3.4,8.3-7.8,14-14.7,19.7-13.4,11.2-23.4,11.5-37,.3-9.2-7.6-12.5-13.3-16.8-24.3-.4-1-1.5-6.3-1.7-6.6s-1.9-.3-2.1-.5c-4.1-4-5.6-9.3-5.6-15,.3-1.1.2-2.5,1-1.7.4,5.6,1.1,8.4,4.7,12.9l.7.3c.7-.3-.7-5.3-.9-6.5s-.5-10-.7-10.5c-.4-1-2.7-.4-3.5-.2.4-2,.9-2.5,1.7-4.2l1.6,1.4c-.2-3.1,3.4-4.7,5.9-5.9,6-3,13.6-4.2,19.9-6.6,13.4-5.1,25.5-13.4,37.4-21.3,8.4,9.3,16.9,19.6,16.2,33,2.8-2.6,5.8,1.6,6.3,4.2.8,4.4-2.2,16.6-5.9,19.4Z"/>
      <g>
        <path class="st11" d="M127.3,95.5c2.8-.1,16.1,1,13.4,5.8-8.4-2.5-17.4-4.3-25.7-.5,3-3.2,7.9-5.1,12.2-5.2Z"/>
        <path class="st3" d="M189.8,106c.7-.3,3.2,1.2,3.3,1.6,2,4.1-1.8,14-5.8,16.6.1-2.2,1.5-17.8,2.4-18.2Z"/>
        <path class="st11" d="M167.1,95.9c6.4-.6,12.4.5,17.3,4.7-8.3-3.1-17.2-2.3-25.3.9-2.2-4.1,5.1-5.3,8-5.6Z"/>
        <path class="st1" d="M177.7,106c-1.6-.7-3.2-2.2-5.1-2.4-5.8-.8-10.6,3.3-12,8.7-.4.7-1.5,2.4-.3,2.1,0,0-.4.8-1,.2-1.1-2,1-3,1.4-4.2,2.3-6.3,4.1-9.7,11.3-8.2.9,1.5,4.6.6,5.8,3.8Z"/>
        <path class="st3" d="M155.9,130.8c.8-.1,1,1.5.5,2.3-2.1,3.7-13.1,3-13.6-.3s4.1.8,4.4.9c5.1,1.3,7.4-2.6,8.7-2.8Z"/>
        <g>
          <path class="st10" d="M139.3,145.8c7,3.5,14.4,3.5,21.3-.3s2.2-1.5,3.5-2.1c-4,6.9-7.6,11.6-16.6,10.5s-10.8-5.9-12.4-10.8c1.1,1.2,2.7,2.1,4.2,2.8Z"/>
          <path class="st10" d="M164.8,140.9c-.8.2-2.1,1.2-2.8,1.4-8.2,2.5-16.2,1.7-24.4.3-1.1-1.3-2-1.1-3.1-2.1,4.5-.7,14.4-.4,19.4-.3s7.4.4,11,.7Z"/>
          <path class="st5" d="M134.4,140.6c1.2,1,2,.8,3.1,2.1s.8,2.6,1.7,3.1c-1.4-.7-3.1-1.6-4.2-2.8s-1.1-1.4-1.7-1.9c0-.8.6-.4,1-.5Z"/>
          <path class="st5" d="M164.1,143.4c-1.3.6-2.3,1.4-3.5,2.1l1.4-3.1c.7-.2,2-1.2,2.8-1.4s.8-.7,1.4-.2c-.5,1.1-1.5,1.6-2.1,2.6Z"/>
          <path class="st17" d="M162,142.3l-1.4,3.1c-6.9,3.9-14.3,3.8-21.3.3-.9-.5-1.4-2.8-1.7-3.1,8.3,1.3,16.2,2.1,24.4-.3Z"/>
        </g>
        <g>
          <path class="st13" d="M177.7,106c2.1.9,3,2.3,5.9,1.9.3.4-6.8,5.7-8,4.7,1.3-.8,2.5-1.5,3.1-3-1.4-1.6-2.9-2.3-4.9-3-3.6-1.3-3.3-1.4-7,0s-.6.2-1.4.7c-1.9,1.2-3.8,3-4.9,4.9,1.5-5.4,6.2-9.5,12-8.7s3.4,1.7,5.1,2.4Z"/>
          <path class="st17" d="M165.5,107.4c-1.4,3,.3,6.6,3.8,7-3.2.4-5.9.6-9.1,0-1.2.3,0-1.4.3-2.1,1.1-1.9,3-3.7,4.9-4.9Z"/>
          <path class="st8" d="M166.9,106.7c-1.9,3.5.5,6.5,4.4,5.9s1.1-1,1.2-1c.9-.4,1.6,0,2.8-1.4-.2,1.3-2.1,3-3.1,3.8-1.1.3-1.8.2-2.8.3-3.6-.3-5.2-4-3.8-7,.8-.5.5-.3,1.4-.7Z"/>
          <path class="st17" d="M175.6,112.7c-1.2.7-2.1,1.1-3.5,1.4,1-.8,3-2.5,3.1-3.8s-.2-1-.3-1.4c-.2-.9-.7-1.3-1-2.1,1.9.7,3.5,1.4,4.9,3-.6,1.4-1.9,2.2-3.1,3Z"/>
          <path class="st2" d="M173.9,106.7c.3.8.8,1.2,1,2.1-2.3-.6-4.2.5-2.4,2.8,0,0-.7,1-1.2,1-3.8.6-6.2-2.5-4.4-5.9,3.7-1.4,3.3-1.3,7,0Z"/>
          <path class="st17" d="M174.9,108.8c.1.4.4,1.1.3,1.4-1.2,1.3-1.9,1-2.8,1.4-1.7-2.3.2-3.4,2.4-2.8Z"/>
        </g>
        <g>
          <path class="st13" d="M139,112.3c-1-1.9-3-4.2-4.9-5.2-3.5-2-5.4-1.9-9.1-.3s-2.9,1.9-4.2,3c.6,1.9,2.5,2.4,3.8,3.7-3.4-.8-6.2-3.1-8.7-5.4,4.5.6,6.9-3.8,11-4.4,5.9-.8,10.8,3.1,12,8.7Z"/>
          <path class="st17" d="M139,112.3c.3.6.5,1.2,1,1.6-.3,1.1-8.4,1.2-9.8.5,2.2-.3,4-2.4,4.2-4.5s-.3-1.8-.3-2.8c1.9,1.1,3.9,3.3,4.9,5.2Z"/>
          <path class="st8" d="M131.6,110.9c0,0,2,0,1.7-1.4.4.5.4.8,1,.3-.2,2.1-2,4.2-4.2,4.5s-2.3,0-3.5-.7c-1.9-1.1-2.1-3-2.1-4.9,1.8,0,.8,3.3,3.3,3.8s2.5,0,3.1-.3c1.2-.5.5-1.3.5-1.4Z"/>
          <path class="st17" d="M124.7,108.8c0,1.9.2,3.8,2.1,4.9-.7.1-1.4-.2-2.1-.3-1.3-1.2-3.3-1.7-3.8-3.7,1.3-1,2.7-2.3,4.2-3,.3.6-.3,1.2-.3,2.1Z"/>
          <path class="st2" d="M134.1,107.1c0,1,.4,1.8.3,2.8-.7.5-.7.2-1-.3-2.5-3.6-4,0-1.7,1.4,0,0,.7.9-.5,1.4s-2.5.5-3.1.3c-2.5-.5-1.5-3.8-3.3-3.8,0-.9.7-1.5.3-2.1,3.7-1.6,5.5-1.6,9.1.3Z"/>
          <path class="st17" d="M133.4,109.5c.2,1.4-1.7,1.3-1.7,1.4-2.3-1.4-.8-5,1.7-1.4Z"/>
        </g>
      </g>
    </g>
  </g>
</svg>