<?xml version="1.0" encoding="UTF-8"?>
<svg id="Layer_1" data-name="Layer 1" xmlns="http://www.w3.org/2000/svg" xmlns:xlink="http://www.w3.org/1999/xlink" viewBox="0 0 216.48 284.55">
  <defs>
    <style>
      .cls-1 {
        fill: #c87b54;
      }

      .cls-2 {
        fill: #8ca1bf;
      }

      .cls-3 {
        fill: #e9ab91;
      }

      .cls-4 {
        fill: #6c3c18;
      }

      .cls-5 {
        fill: url(#linear-gradient-4);
      }

      .cls-6 {
        fill: url(#linear-gradient-3);
      }

      .cls-7 {
        fill: url(#linear-gradient-2);
      }

      .cls-8 {
        fill: #995337;
      }

      .cls-9 {
        fill: #abbdd7;
      }

      .cls-10 {
        fill: #190d08;
      }

      .cls-11 {
        fill: url(#linear-gradient);
      }

      .cls-12 {
        fill: #481a0f;
      }

      .cls-13 {
        fill: #fefeff;
      }

      .cls-14 {
        fill: #e3684f;
      }

      .cls-15 {
        fill: #1f2936;
      }

      .cls-16 {
        fill: #9c3427;
      }

      .cls-17 {
        fill: #676267;
      }

      .cls-18 {
        fill: #1a181b;
      }

      .cls-19 {
        fill: #536175;
      }

      .cls-20 {
        fill: #2d3a4e;
      }

      .cls-21 {
        fill: #f3b993;
      }

      .cls-22 {
        fill: #3b373d;
      }

      .cls-23 {
        fill: #b44534;
      }

      .cls-24 {
        fill: #871c11;
      }

      .cls-25 {
        fill: #dc9d76;
      }

      .cls-26 {
        fill: #e28261;
      }

      .cls-27 {
        fill: #b46440;
      }

      .cls-28 {
        fill: #302320;
      }

      .cls-29 {
        fill: #cd5843;
      }

      .cls-30 {
        fill: #4e4b51;
      }

      .cls-31 {
        fill: #dae9f7;
      }

      .cls-32 {
        fill: #764b37;
      }
    </style>
    <linearGradient id="linear-gradient" x1="281.98" y1="539.06" x2="283.59" y2="959.05" gradientTransform="translate(-13.74 28.42) scale(.26)" gradientUnits="userSpaceOnUse">
      <stop offset="0" stop-color="#414f64"/>
      <stop offset="1" stop-color="#243144"/>
    </linearGradient>
    <linearGradient id="linear-gradient-2" x1="687.22" y1="539.5" x2="675.32" y2="963.33" gradientTransform="translate(-13.74 28.42) scale(.26)" gradientUnits="userSpaceOnUse">
      <stop offset="0" stop-color="#394a5e"/>
      <stop offset="1" stop-color="#192535"/>
    </linearGradient>
    <linearGradient id="linear-gradient-3" x1="537.76" y1="482.64" x2="574.48" y2="615.67" gradientTransform="translate(-13.74 28.42) scale(.26)" gradientUnits="userSpaceOnUse">
      <stop offset="0" stop-color="#aebfd9"/>
      <stop offset="1" stop-color="#d5e4f4"/>
    </linearGradient>
    <linearGradient id="linear-gradient-4" x1="479.41" y1="437.92" x2="482.44" y2="556.88" gradientTransform="translate(-13.74 28.42) scale(.26)" gradientUnits="userSpaceOnUse">
      <stop offset="0" stop-color="#d07e56"/>
      <stop offset="1" stop-color="#dd996f"/>
    </linearGradient>
  </defs>
  <g id="Generative_Object" data-name="Generative Object">
    <g>
      <path class="cls-11" d="M60.79,160.67l1.02.38c0,.7-3.32,3.68-2.04,4.72-.56,1.1-1.02,2.21-1.53,3.32-.81,1.78-1.59,3.53-2.3,5.36-2.15,1.16-2.99,5.63-3.57,8.04l13.79,3.96c.18.07,1.63.03,1.15.77l-6.51,3.06c-1.59.69-8.63,3.19-8.68,4.72-.03.9,5.07,13.26,5.87,15.06,4.62,10.41,11.12,21.47,17.87,30.64,8.66,11.76,19.65,23.51,32.68,30.25-.64.87-1.29,3.34-2.04,4.6-.04.07.04.3-.26.26-20.76-.08-41.53.17-62.29-.13-1.2-30.8-10.99-60.06-20.55-88.97-.77-.09-.57.08-.64.64-.14,1.2,1.1,5.44,1.28,6.38,5.1,27.14,12.93,54.07,13.02,81.95l-27.7.13-.64-21.7c.32-16.5,1.03-60.47,11.49-72.63,6.09-7.09,31.25-16.01,40.59-20.81Z"/>
      <path class="cls-7" d="M158.82,160.67c.05.04.25.09.51.26,10.32,6.29,35.24,13.4,41.61,22.85,2,2.97,2.69,5.77,3.83,8.94.08.23.5.1.51.13.05.14-.41.41-.26.89.07.22.5.1.51.13,3.93,17.64,5.42,42.32,5.62,62.8.06,6.33-.47,12.8-.38,19.15-9.32.02-18.64-.02-27.96,0,.72-30.78,9.4-60.48,14.17-90.63l-9.83,30.51c-6.04,19.54-9.94,39.71-11.74,60.12-22.97.05-45.97.18-68.93-.26.75-1.26,1.4-3.73,2.04-4.6.15-.21.21-.21.26-.26,4.98,1.2,10.2-3.28,13.91-6.38,15.8-13.18,32.33-37.59,40.21-56.55.73-1.76,4.57-11.4,4.6-12.51.03-1.22-1.26-1.6-2.3-2.17-.46-.25-.66-.2-.77-.26,1.21-1.97-7.34-3.97-6.64-5.23,3.55-1.72,8.01-2.33,10.98-4.85.1-.4-2.38-6.7-2.81-7.66-1.84-4.08-6.38-10.11-7.66-13.79-.29-.82-.36-.62.51-.64Z"/>
      <path class="cls-15" d="M106.23,275.81c34.96.14,69.97.21,104.93.51H8.58c-.39-7.4-.01-14.82.13-22.21l.64,21.7,27.7-.13c-.09-27.88-7.92-54.81-13.02-81.95-.18-.94-1.42-5.18-1.28-6.38.06-.56-.13-.72.64-.64,9.57,28.91,19.35,58.17,20.55,88.97,20.76.3,41.53.04,62.29.13Z"/>
      <path class="cls-20" d="M158.82,160.67c-.88.02-.8-.18-.51.64,1.28,3.67,5.82,9.7,7.66,13.79.43.96,2.91,7.26,2.81,7.66-2.96,2.52-7.43,3.14-10.98,4.85-.7,1.26,7.85,3.26,6.64,5.23-3.92-2.05-8.32-3.55-11.74-6.13,4.36-.79,9.37-3.43,13.79-4.47-.53-3.4-2.04-6.45-3.32-9.57-2.71-6.64-5.47-12.73-11.11-17.36-3.11-2.56-6.88-4.41-10.21-6.64l-.38,1.53c-.21-.74-.64-1.84-.51-2.55,3.75,2.56,7.9,4.64,11.62,7.4,2.3,1.71,3.79,4,6.25,5.62Z"/>
      <path class="cls-20" d="M55.93,174.45c-1,2.57-2.17,5.08-2.81,7.79,4.2,1.74,8.81,2.53,13.02,4.21l-13.79-3.96c.58-2.41,1.42-6.88,3.57-8.04Z"/>
      <path class="cls-15" d="M182.82,275.81c-2.46,0-4.94,0-7.4,0,1.8-20.41,5.7-40.58,11.74-60.12l9.83-30.51c-4.77,30.15-13.45,59.86-14.17,90.63Z"/>
      <path class="cls-15" d="M165.2,193.09c1.04.57,2.32.95,2.3,2.17-.02,1.11-3.86,10.75-4.6,12.51-7.88,18.96-24.41,43.36-40.21,56.55-3.72,3.1-8.93,7.59-13.91,6.38,1.31-1.35,5.48-3.24,7.28-4.6,2.32-1.75,4.39-3.63,6.51-5.62,10.78-8.97,18.63-20.48,26.3-32.04.97-1.46,3.56-2.99,2.81-4.98.06-.11.12-.27.26-.51l1.02-1.79c4.85-8.78,6.98-17.96,10.98-26.93.29-.66.31-1.3,1.28-1.15Z"/>
      <path class="cls-19" d="M152.69,186.71c-.39.07-1.55.66-1.15-.26l14.17-4.98-2.55-8.81c1.28,3.13,2.79,6.18,3.32,9.57-4.41,1.04-9.42,3.68-13.79,4.47Z"/>
      <g>
        <path class="cls-20" d="M78.4,150.45c-1.52,6.4-1.59,9.52-1.28,16.08,1.1,23.19,9.98,51.77,18.64,73.27,3.79,9.4,7.67,18.36,14.17,26.3.64-.47.94-1.19,1.4-1.79,1.48-1.89,2.59-4.08,3.83-6.13,1.34-2.22,2.41-4.04,3.57-6.38s4.61-9.14,4.85-11.49c2.56-6.25,5.08-12.59,7.15-19.02,5.56-17.27,15.57-53.6,10.98-70.59-.06-.22-.19-.29-.26-.51l.38-1.53c3.33,2.23,7.1,4.08,10.21,6.64,5.63,4.64,8.4,10.72,11.11,17.36l2.55,8.81-14.17,4.98c-.4.91.76.33,1.15.26,3.43,2.57,7.82,4.08,11.74,6.13.11.06.31,0,.77.26-.97-.16-.98.49-1.28,1.15-3.99,8.97-6.13,18.15-10.98,26.93-.32.57-.69,1.21-1.02,1.79-.14.24-.19.4-.26.51-7.3,12.62-18.45,27.03-29.1,37.02-2.12,1.99-4.19,3.86-6.51,5.62-1.8,1.36-5.96,3.25-7.28,4.6-.05.05-.1.05-.26.26-13.03-6.75-24.02-18.49-32.68-30.25-6.75-9.16-13.25-20.23-17.87-30.64-.8-1.8-5.9-14.16-5.87-15.06.05-1.54,7.09-4.04,8.68-4.72.02,0,.01.42.38.26,2.45-1.05,4.92-2.43,7.28-3.7l-14.3-5.11,4.08-12.64c.51-1.11.98-2.22,1.53-3.32,1-1.97,2.65-5.45,3.83-7.15,3.33-4.8,10.32-7.79,15.06-10.98.18.72-.08,2.09-.26,2.81Z"/>
        <g>
          <path class="cls-20" d="M59.76,165.77c-1.27-1.05,2.04-4.02,2.04-4.72l-1.02-.38c1.08-.56,1.93-1.22,2.81-2.04-1.18,1.7-2.83,5.18-3.83,7.15Z"/>
          <path class="cls-19" d="M60.79,190.28l6.51-3.06c.48-.74-.97-.69-1.15-.77-4.21-1.69-8.82-2.47-13.02-4.21.63-2.71,1.81-5.22,2.81-7.79.71-1.83,1.48-3.58,2.3-5.36l-4.08,12.64,14.3,5.11c-2.35,1.27-4.82,2.65-7.28,3.7-.37.16-.36-.26-.38-.26Z"/>
          <path class="cls-19" d="M97.8,260.49c-18.4-15.96-32.08-37.28-40.72-60,7.12,16.04,15.44,31.53,26.68,45.06,4.38,5.27,9.53,9.82,14.04,14.94Z"/>
          <path class="cls-19" d="M122.57,260.49c10.66-9.99,21.81-24.4,29.1-37.02.76,1.99-1.84,3.52-2.81,4.98-7.66,11.56-15.52,23.07-26.3,32.04Z"/>
          <path class="cls-19" d="M151.93,222.96c.33-.58.7-1.21,1.02-1.79l-1.02,1.79Z"/>
          <path class="cls-19" d="M97.8,260.49c.36.31,1.15.71,1.15,1.28-.76.06-.99-1.1-1.15-1.28Z"/>
        </g>
      </g>
    </g>
    <g>
      <path class="cls-18" d="M119.5,14.63c2.74.71,8.05,6.02,8.68,8.81.15.66-.52.95-.51,1.02,1.06,6.02,1.26,11.78-1.02,17.62,2.16-2.03,5.29-1.13,7.28-1.66.41-.11,3.89-2.98,4.72-3.32-.05.24.03.52,0,.77l15.19-2.3c-2.99-1.65-7.18-.37-10.34.51,2.11-4.26,4.82-4.89,9.06-3.06l-1.28-1.53,3.7,2.55c2.19,2.47,3.37,5.42,3.83,8.68-.03-.04-.64-.42-.77-.51-2.86-2.15-5.85-2.28-9.32-2.55l2.17,1.79c-2.77-.28-6,.18-8.68.89,2.05.37,3.27,2.49,4.98,3.19,1.94.8,4.57.59,6.64,1.28,3.35,1.11,6.43,4.73,5.87,8.17-.86-.62-.95-2.15-1.66-2.94-1.96-2.16-3.86-1.04-5.87-1.4-1.9-.35-3.74-.93-5.62-1.28-.11-.02-1.4-1.24-1.53.64-.1,1.38,2.53,7.23,3.83,8.42-1.96,1.09,3.34,5.91,5.11,5.23,1.12.94,2.49,1.65,3.45,2.81.23.08.58-.42.64-.51l-.77,4.08c.05-2.58-1.71-.99-3.45-2.55-1.9.28,1.96,2.08-1.28,1.02l-.13.51c-.36-.16-1.53-.27-1.53.38-.08.65,1.25,2.15,1.53,2.68.72,1.37,1.65,2.61,2.17,4.08.53.17.74-.93.89-1.28.08-.18.51-1.45.51-1.53h.51c-.41,1.64-.85,3.61-2.04,4.85-.8.83-2.48,1.79-3.7,1.28-.16-.06-.46-2.74-.64-3.32-1.26-4.14-2.82-8.64-3.57-12.89-1.81-10.12-.51-24.88-16.08-22.08-2.98.54-6.1,2.76-9.06,3.57-12.39,3.41-22.56-2.93-35.87-.51-2.18.4-6.18,1.21-7.91,2.55-.61-1.33-1.63.75-2.17,1.02-.92.46-1.72.54-2.68.77-7.57,1.78-10.54-1.8-10.98-9.06l-.77.89c.3-1.31.18-3.37,1.28-4.34.02.68.1.98.77,1.28-.74,4.05,1.37,9.04,5.87,9.57-1.11-.35-1.59-1.12-2.3-1.91.42-1.51-.73-2.99-.77-4.47-.08-3.17,1.17-6.1,2.04-9.06.33-.32.57-.76,1.02-1.02.29.13.79-.52,1.02.13.29.81,0,4.04.26,5.11.4,1.61,2.16,2.99,2.81,4.47-.77-.43-2.05-1.21-2.55-1.91-.22-.31-1.1-3.91-1.79-2.81-.34,5-1.44,10.13,5.23,9.57.74-.06,7.66-1.75,6.89-2.55-1.2-.32-2.53-.4-3.7-.77,1.06-2.84.51-1.62-1.53-3.19.27-.54.78-.28,1.02-.38,4.22,2.49,9.39,2.6,14.17,3.06.97.09,1.66-.33,2.55-.26.58.05,3.97,1.35,4.34,1.28.23-.05.19-.9,1.66-.89-.59-.94-6.22-1.24-5.62-2.3.14-.25.75-.08.77-.13.9.49,2.17.19,3.19.51.43.14,5.09,2.12,5.36,2.3,1.04.69,1.75,2.79,2.55,3.06,1.77.61,5.37.42,7.15.51.08-1.74-4.63-7.41-4.72-8.04-.06-.45.04-.63.38-.89l.89.38c.23-.72-.57-.88-.77-1.15-1.14-1.6-3.33-3.9-4.85-5.11-.2-.98,1.1-1.4,1.28-2.17.01-.05-.44-.32-.51-.64-.05-.21.41-.37.26-.64-.17-.3-2.85-2.68-3.32-3.19-.51-.55-1.22-.85-1.53-1.66l.51-.26c-2.45-1.69-5.56-1.98-8.42-2.55,1.52-.84,3.39-.73,5.11-.64,12.6.7,17.56,15.72,20.04,26.04l.89-.13.26-10.47c1.56,2.93,1.13,6.97,1.28,10.21.17.53,1.5-.18,1.53-.26.61-1.47-.48-10.04-1.02-12l-3.06-7.02c.65.81,1.31,1.55,1.66,2.55,1.08.14-1.59-5.43-1.91-6-1.07-1.86-2.74-.59-.64-4.21l7.79,4.47c-.97-1.61-1.97-2.78-3.32-3.96-.31-.27-.68-.53-1.02-.77.66-1.88-.9-1.26-1.28-2.68.08-.14,1.09.08,1.28.13Z"/>
      <path class="cls-18" d="M154.99,34.04l-3.7-2.55,1.28,1.53c-4.24-1.83-6.96-1.2-9.06,3.06-1.67.46-3.14,1.49-4.85,1.79.03-.24-.05-.53,0-.77.15-.69,1.31-1.91,1.53-2.68,2.88-10.05-.95-15.28-9.7-19.53,5.08-.57,16.71,9.24,15.7,15.32,2.85-1.5,6.91,1.68,8.81,3.83Z"/>
      <path class="cls-22" d="M74.06,55.99c-.63,4.96-.81,9.02-2.55,13.79-.57,1.57-1.34,3.1-1.79,4.72-.76.9-.27-.4-.77-.26-2.04,2.49-.93,3.37-.77,5.62.12,1.63-1.01,2.34.77,3.7.02.42.22.72.26,1.28-1.45-.96-1.79-3.15-2.81-4.34-.88-3.28-2.09-6.45-3.06-9.7-.16-.49.23-.47.26-.51l1.53,3.32c-.13.72.18,1.25.26,1.91.15.13.67-.17.77-.26.47-.45,4.37-7.96,4.85-9.06.12-.29,1.31-2.52,1.28-2.68-.03-.13-1.67-.85-.77-2.3-1.03-1.27-7.88,4.81-9.45,5.23-.23-.92-.57-1.87-.77-2.81,1.3-2.04,2.28-3.25,4.08-4.85.41.24.96,1.52,1.4,1.53.91.03,5.86-4.46,6.64-4.85s.06.37.64.51Z"/>
      <path class="cls-30" d="M70.74,50.37c-1.69,1.27-3.23,2.61-5.36,3.19,2.87.87,4.94-.43,7.53-1.4.18,1.5-4.47,2.34-3.19,3.57-.29.19-.46.22-.51.26l-8.68,3.83c-.76-5.14-1.13-10.36-.51-15.57l1.28,2.94.38-.38c1.33,1.83,2.98,2.34,5.11,2.81,1.09.24,2.91-.29,3.96.77Z"/>
      <path class="cls-22" d="M71.25,28.93c-.04,1.1.09,2.56.51,3.57.88,2.13,3.02,4.12,5.11,5.11-.03.11-.23.5-.26.51-.24.1-.75-.16-1.02.38,2.05,1.57,2.59.35,1.53,3.19-1.34-.42-2.86-.84-4.08-1.53-.65-1.48-2.41-2.86-2.81-4.47-.26-1.07.04-4.29-.26-5.11-.23-.65-.73,0-1.02-.13-.06-.02-.31-.64-.89-.26-1.71,1.12-4.6,5.05-4.98,7.15-.66-.3-.75-.59-.77-1.28-.04-1.49.81-3.03,1.79-4.08,1.98-2.15,4.6-2.72,7.15-3.06Z"/>
      <path class="cls-22" d="M71,66.2c-1.12,1.4-5.62,5.97-5.87,7.4l-1.53-3.32c1.77-2.38,5.76-4.14,6.64-7.53l-7.66,5.74c-.18-.68-.34-1.36-.51-2.04,1.56-.42,8.42-6.5,9.45-5.23-.9,1.44.74,2.16.77,2.3.03.16-1.15,2.4-1.28,2.68Z"/>
      <path class="cls-18" d="M73.04,25.87c2.89.61,9.81.15,11.87,1.02.1.04,1.11,1.3,1.4,1.53-3.33-.46-5.52-.19-8.94,0-.79.04-1.52.18-2.3.26l1.66-.51c1.82-.97-6.04-.71-6.38-.77-.84-.13-1.84-.54-2.55-1.02-.43-.29-2.65-3.23-2.68-3.45-.02-.12.43-2.02.51-2.43.34-1.68.92-2.66,1.79-4.08-1.21,5.27.16,8.29,5.62,9.45Z"/>
      <path class="cls-22" d="M70.49,14.38c3.65,7.62,12.71,1.38,18.51-.26,3.57-1,7.97-2.05,11.62-2.55.35.54.92.26-.13.51-7.53,1.79-18.17,8.39-25.79,7.15-2.93-.48-3.89-2.18-4.21-4.85Z"/>
      <path class="cls-18" d="M75.08,28.67c-1.2.12-2.7.1-3.83.26-2.55.35-5.17.91-7.15,3.06-.14-.99,2.78-2.24,2.81-2.43.03-.21-2.06-2.18-2.3-3.57s-.08-4.37,1.02-5.49c-.08.41-.53,2.3-.51,2.43.03.22,2.25,3.15,2.68,3.45.71.48,1.72.89,2.55,1.02.34.05,8.2-.2,6.38.77l-1.66.51Z"/>
      <path class="cls-22" d="M72.78,48.59c-.09.9-1.49,1.37-2.04,1.79-1.04-1.05-2.87-.53-3.96-.77-2.12-.47-3.77-.98-5.11-2.81l-.38.38-1.28-2.94c.15-1.26.74-2.6,1.02-3.83l.77-.89c.44,7.26,3.41,10.84,10.98,9.06Z"/>
      <path class="cls-30" d="M70.49,13.36c-2.71,1.73-1,2-1.02,2.17-.07.67-1.01,2.17-1.02,2.3-.48,4.52,1.49,5.5,4.6,8.04-5.46-1.16-6.83-4.18-5.62-9.45.87-1.43,1.65-2.48,2.94-3.57l.13.51Z"/>
      <path class="cls-17" d="M69.21,55.99c-1.34.9-2.61,1.73-3.83,2.81-1.81,1.6-2.79,2.81-4.08,4.85-.24-1.18-.6-2.69-.77-3.83l8.68-3.83Z"/>
      <path class="cls-17" d="M63.59,70.29s-.41.02-.26.51c-.23-.76-.55-1.5-.77-2.3l7.66-5.74c-.88,3.39-4.87,5.16-6.64,7.53Z"/>
      <path class="cls-30" d="M157.29,70.03c-.02.92-.53,2.36-.77,3.32h-.51c0-1.05-2.56-3.9-3.57-4.34l.13-.51c3.24,1.06-.62-.74,1.28-1.02,1.74,1.56,3.5-.02,3.45,2.55Z"/>
      <path class="cls-30" d="M158.31,64.93c-.1.37.12.45-.26,1.02-.06.09-.4.59-.64.51-.95-1.16-2.33-1.87-3.45-2.81-.46-.39-1.07-1.34-1.53-1.79l5.87,3.06Z"/>
      <path class="cls-18" d="M127.16,17.95c4.19,4.13,7.6,13.97,5.11,19.53,1.44-1.74,2.58-5.3,2.81-7.53.21-2.11.01-7.39-.77-9.32-.62-1.54-6.55-5.44-3.83-5.74,8.75,4.25,12.58,9.48,9.7,19.53-.22.77-1.38,1.99-1.53,2.68-.83.33-4.31,3.21-4.72,3.32-1.99.53-5.12-.37-7.28,1.66,2.28-5.83,2.08-11.6,1.02-17.62-.01-.08.66-.36.51-1.02-.63-2.79-5.94-8.1-8.68-8.81-.05-.62.33-.82.89-.77.99.09,5.9,3.23,6.77,4.08Z"/>
      <path class="cls-22" d="M113.63,21.53c.2-.05.3.43.77,0,.76.88,1.71,2.52,2.55,3.57l3.06,7.02c.54,1.96,1.64,10.53,1.02,12-.03.07-1.37.78-1.53.26-.14-3.25.28-7.28-1.28-10.21l-.26,10.47-.89.13c-2.48-10.33-7.44-25.34-20.04-26.04.48-2.03,5.4-.48,7.02,0,.83.24,2.89,1.79,3.06,1.79.52,0,.47-.75.77-.77,1.5-.06,7.87,8.85,8.42,10.72.5-3.14-2.38-5.85-3.96-8.3.42-.15.88-.53,1.28-.64Z"/>
      <path class="cls-18" d="M108.53,35.57c.19.27.99.43.77,1.15l-.89-.38c-.34.26-.45.45-.38.89.09.63,4.8,6.3,4.72,8.04-1.78-.09-5.38.09-7.15-.51-.81-.28-1.51-2.37-2.55-3.06-.27-.18-4.93-2.16-5.36-2.3-1.02-.32-2.29-.02-3.19-.51.12-.32.21-1.71.26-1.79.15-.25.24-.49.26-.51.09-.13.59-.25.64-.77l7.15,4.85c-1.64-2.54-4.08-3.75-6.25-5.49.14-1.28,4.95,1.67,5.49,2.17-.15-.71,1.67-2.52,1.66-2.68-.05-.91-3.77-1.84-1.53-3.45,2.16,1.42,4.1,3.14,6.38,4.34Z"/>
      <path class="cls-30" d="M152.18,50.63l.38,1.02c1.26-.12,6.14,3.08,6.51,3.96.22.51-.89,3.14-.64,3.96-.47.32-3.18-2.89-3.19-.64l1.66,1.15c-.22,1.27-2.03-.35-2.68-.77-2.29-1.49-6.07-5.93-7.4-8.3-.16-.28-.81-1.44-.26-1.66,1.87.35,3.72.93,5.62,1.28Z"/>
      <path class="cls-18" d="M73.04,40.16c1.23.69,2.74,1.11,4.08,1.53,1.17.37,2.51.44,3.7.77.77.81-6.15,2.49-6.89,2.55-6.67.56-5.58-4.58-5.23-9.57.69-1.1,1.57,2.5,1.79,2.81.5.71,1.78,1.48,2.55,1.91Z"/>
      <path class="cls-22" d="M146.57,49.35c-.56.22.1,1.38.26,1.66,1.34,2.37,5.11,6.81,7.4,8.3-1.73,4.05-2.95.3-5.11-.89.46,1.68,2.26,2.43,3.32,3.45.47.45,1.07,1.4,1.53,1.79-1.76.67-7.07-4.14-5.11-5.23-1.3-1.2-3.93-7.04-3.83-8.42.14-1.88,1.42-.66,1.53-.64Z"/>
      <path class="cls-18" d="M77.64,46.8c-1.4,1.09-1.91,2.92-2.81,4.34-2.6,4.11-1.41,2.18-5.11,4.6-1.28-1.24,3.37-2.08,3.19-3.57-2.6.97-4.67,2.27-7.53,1.4,2.14-.58,3.67-1.92,5.36-3.19.55-.42,1.95-.88,2.04-1.79.96-.23,1.76-.31,2.68-.77.54-.27,1.56-2.35,2.17-1.02Z"/>
      <path class="cls-22" d="M66.66,45.01c-4.33-4.86-3.15-9.23,1.28-13.53-.87,2.96-2.12,5.89-2.04,9.06.04,1.48,1.19,2.96.77,4.47Z"/>
      <path class="cls-30" d="M101.38,28.67c.58.35,1.7,1.31,2.3,1.79,1.52,1.21,3.71,3.51,4.85,5.11-2.28-1.2-4.22-2.92-6.38-4.34-1.03-.68-2.41-1.21-3.32-1.79-1.53-.97-3.5-2.25-4.72-3.57,2.37.94,5.07,1.48,7.28,2.81Z"/>
      <path class="cls-30" d="M68.96,30.46c-.45.26-.69.7-1.02,1.02-4.42,4.3-5.61,8.67-1.28,13.53.71.79,1.19,1.56,2.3,1.91-4.51-.53-6.61-5.52-5.87-9.57.38-2.1,3.27-6.03,4.98-7.15.58-.38.84.23.89.26Z"/>
      <path class="cls-22" d="M158.06,42.21l.13,1.79c-2.27-1.05-4.77-2.3-7.28-2.55l-2.17-1.79c3.47.28,6.46.4,9.32,2.55Z"/>
      <path class="cls-18" d="M152.44,69.01c1.01.44,3.57,3.29,3.57,4.34,0,.08-.43,1.35-.51,1.53l-3.06-2.81c-.28-.53-1.61-2.03-1.53-2.68,0-.65,1.17-.54,1.53-.38Z"/>
      <path class="cls-22" d="M138.65,37.87c1.71-.3,3.19-1.32,4.85-1.79,3.16-.88,7.35-2.16,10.34-.51l-15.19,2.3Z"/>
      <path class="cls-22" d="M104.44,27.65c.07.32.52.58.51.64-.17.77-1.47,1.19-1.28,2.17-.6-.48-1.72-1.44-2.3-1.79l1.28-2.04c.43.3,1.3.69,1.79,1.02Z"/>
      <path class="cls-22" d="M155.5,74.88c-.16.35-.36,1.45-.89,1.28-.52-1.48-1.45-2.72-2.17-4.08l3.06,2.81Z"/>
      <path class="cls-18" d="M69.98,75.91c-1.15.88-1.09,5.99-1.02,7.66-1.78-1.36-.65-2.07-.77-3.7-.16-2.25-1.27-3.13.77-5.62.5-.15,0,1.16.77.26.45-1.63,1.21-3.15,1.79-4.72l-1.53,6.13Z"/>
      <path class="cls-22" d="M135.08,29.95c-.22,2.23-1.37,5.79-2.81,7.53,2.5-5.56-.92-15.4-5.11-19.53.04-.85,2.71.28,2.81.38.02.02-.44.32-.26.51,1.9,2,2.85,3.95,4.08,6.38l1.28,4.72Z"/>
      <g>
        <path class="cls-30" d="M130.48,14.89c-2.72.3,3.21,4.21,3.83,5.74.78,1.93.98,7.21.77,9.32l-1.28-4.72c-1.23-2.44-2.19-4.38-4.08-6.38-.19-.2.27-.49.26-.51-.1-.1-2.77-1.24-2.81-.38-.86-.85-5.78-3.99-6.77-4.08-.56-.05-.94.15-.89.77-.18-.05-1.2-.27-1.28-.13.38,1.42,1.93.8,1.28,2.68-2.22-1.54-8.22-4.21-10.85-4.34-.38-.02-1.17-.15-.77.51,4.58,1.07,9.02,2.75,12.77,5.62l-.13-1.02c1.35,1.17,2.35,2.34,3.32,3.96l-7.79-4.47c-2.1,3.62-.43,2.36.64,4.21.33.57,2.99,6.14,1.91,6-.35-1.01-1.01-1.74-1.66-2.55-.84-1.05-1.79-2.69-2.55-3.57-2.86-3.33-5.04-5.47-9.57-6.13-1.14-.17-5.33-.88-4.85.77,4.65.67,10.36,1.68,13.66,5.36-.4.11-.85.49-1.28.64,1.58,2.45,4.45,5.16,3.96,8.3-.56-1.88-6.92-10.79-8.42-10.72-.3.01-.25.76-.77.77-.18,0-2.23-1.54-3.06-1.79-1.62-.48-6.54-2.03-7.02,0-1.72-.1-3.58-.2-5.11.64,2.87.57,5.98.86,8.42,2.55l-.51.26c.32.81,1.02,1.1,1.53,1.66-3.05-.34-6.15-2.92-9.32-3.32-2.27-.29-3.13.38-5.23.64,5.96.99,10.82,1.98,15.83,5.49l-1.28,2.04c-2.2-1.33-4.91-1.87-7.28-2.81,1.22,1.32,3.2,2.6,4.72,3.57-1.24,2.08-3.56-.92-4.6.77-1.65-.65-6.06-1.53-7.91-1.79-.29-.23-1.31-1.49-1.4-1.53-2.06-.87-8.98-.41-11.87-1.02-3.11-2.54-5.08-3.52-4.6-8.04.01-.13.95-1.62,1.02-2.3.02-.17-1.69-.44,1.02-2.17.03.33-.04.69,0,1.02.32,2.67,1.28,4.37,4.21,4.85,7.62,1.24,18.25-5.36,25.79-7.15,1.04-.25.48.03.13-.51,10.09-1.4,20.57-1.2,29.87,3.32Z"/>
        <path class="cls-17" d="M101.38,23.82c.47.51,3.15,2.89,3.32,3.19.15.27-.31.42-.26.64-.48-.33-1.35-.72-1.79-1.02-5.01-3.51-9.86-4.5-15.83-5.49,2.1-.26,2.96-.92,5.23-.64,3.17.4,6.27,2.98,9.32,3.32Z"/>
        <path class="cls-17" d="M119.5,17.19c.34.23.72.5,1.02.77l.13,1.02c-3.74-2.87-8.19-4.54-12.77-5.62-.41-.67.38-.53.77-.51,2.63.13,8.64,2.8,10.85,4.34Z"/>
        <path class="cls-17" d="M114.4,21.53c-.46.43-.57-.05-.77,0-3.3-3.68-9.01-4.69-13.66-5.36-.48-1.65,3.71-.93,4.85-.77,4.54.66,6.71,2.8,9.57,6.13Z"/>
        <path class="cls-17" d="M69.34,18.97c2.88,6.18,9.02,5.01,14.68,4.98-3.68,1.16-11.11,1.47-13.79-1.79-.46-.56-1.54-2.52-.89-3.19Z"/>
      </g>
      <g>
        <path class="cls-22" d="M150.91,41.44c2.51.25,5.01,1.51,7.28,2.55l-.13-1.79c.12.09.74.47.77.51.72.92,1.6,3.09,1.79,4.21.7,4.13-1.11,13.82-2.3,18l-5.87-3.06c-1.06-1.02-2.86-1.77-3.32-3.45,2.15,1.19,3.37,4.95,5.11.89.65.42,2.46,2.03,2.68.77l-1.66-1.15c.01-2.25,2.72.96,3.19.64-.26-.82.85-3.45.64-3.96-.37-.87-5.25-4.08-6.51-3.96l-.38-1.02c2.01.37,3.91-.76,5.87,1.4.71.79.79,2.32,1.66,2.94.56-3.44-2.52-7.06-5.87-8.17-2.07-.69-4.7-.48-6.64-1.28-1.71-.7-2.92-2.82-4.98-3.19,2.68-.72,5.91-1.17,8.68-.89Z"/>
        <path class="cls-30" d="M147.97,44.5l9.45.77c1.98,1.56,4.08,4.69,2.68,6.77-1.29-6.11-6.16-5.69-10.85-6.77-.27-.06-1.73-.26-1.28-.77Z"/>
      </g>
      <path class="cls-18" d="M74.06,55.99c-.58-.14.14-.9-.64-.51s-5.73,4.88-6.64,4.85c-.44-.02-1-1.29-1.4-1.53,1.22-1.08,2.49-1.91,3.83-2.81.05-.03.22-.06.51-.26,3.69-2.42,2.51-.48,5.11-4.6.05,1.65-.56,3.24-.77,4.85Z"/>
      <path class="cls-30" d="M71,66.2c-.48,1.11-4.38,8.61-4.85,9.06-.09.09-.62.39-.77.26-.07-.67-.38-1.2-.26-1.91.25-1.43,4.75-6.01,5.87-7.4Z"/>
      <g>
        <path class="cls-30" d="M77.38,28.42c.96.7,3.5.7,4.72.77.55.03,1.6-.37,2.55-.26,3.73.46,9.51,2.17,12.77,4.08.81-.79-2.76-2.64-3.19-2.81,1.04-1.69,3.35,1.32,4.6-.77.91.58,2.28,1.11,3.32,1.79-2.24,1.61,1.48,2.54,1.53,3.45,0,.16-1.81,1.97-1.66,2.68-.54-.5-5.35-3.45-5.49-2.17,2.18,1.73,4.61,2.95,6.25,5.49l-7.15-4.85c-.04.51-.54.63-.64.77-3.18-2.03-6.96-2.31-10.59-2.81-.11-.02-.79-.91-1.91-.13l12.25,3.45c-.05.08-.14,1.47-.26,1.79-.02.05-.62-.13-.77.13-.6,1.06,5.03,1.36,5.62,2.3-1.47-.01-1.43.85-1.66.89-.37.07-3.76-1.23-4.34-1.28-.89-.08-1.58.35-2.55.26-4.78-.46-9.95-.58-14.17-3.06.03-.01.23-.4.26-.51,1.02.48,3.72,1.7,4.6.89-3.14-.75-5.82-2.12-7.91-4.6-.28-.33-.86-2.91-1.79-1.4-.42-1.01-.55-2.47-.51-3.57,1.13-.15,2.63-.14,3.83-.26.78-.08,1.51-.21,2.3-.26Z"/>
        <path class="cls-17" d="M86.32,28.42c1.86.26,6.27,1.14,7.91,1.79.43.17,4,2.02,3.19,2.81-3.25-1.91-9.04-3.62-12.77-4.08-.96-.12-2,.28-2.55.26-1.22-.06-3.76-.07-4.72-.77,3.41-.19,5.6-.46,8.94,0Z"/>
        <path class="cls-30" d="M76.87,37.61c-2.08-.98-4.23-2.97-5.11-5.11.93-1.5,1.51,1.07,1.79,1.4,2.1,2.47,4.77,3.84,7.91,4.6-.88.81-3.58-.41-4.6-.89Z"/>
        <path class="cls-30" d="M95,36.59s-.11.26-.26.51l-12.25-3.45c1.12-.78,1.8.11,1.91.13,3.64.5,7.41.78,10.59,2.81Z"/>
        <path class="cls-30" d="M81.85,38.38c.41-.22,8.77.3,9.19.51.25.13.56.69.38.89-.3.36-8.88-.49-9.32-.64-.52-.18-.56-.6-.26-.77Z"/>
      </g>
    </g>
    <g>
      <g>
        <path class="cls-31" d="M84.53,143.82c.28,8.95.09,11.66,6.13,18.51,4.08,4.63,14.16,11.99,20.42,11.11l.26,1.02c-.14-.04-.37.04-.51,0-.38-.1-.24,0-.26,0-.4-.05-2.3-.27-2.43-.26-1.44.23-4.01,3.89-4.98,5.11-.88,1.1-1.48,2.48-2.3,3.57-2.5,3.36-5.12,6.6-7.28,10.21-3.91-5.84-9.65-11.05-12.13-17.74-2.93-7.92-2.47-16.58-3.06-24.89.17-.72.44-2.09.26-2.81,1.8-1.21,3.37-3.6,5.87-3.83Z"/>
        <path class="cls-6" d="M140.95,147.64c-.13.71.3,1.81.51,2.55.06.22.19.29.26.51-.23,15.45-3.92,31.62-16.47,41.61-2.29-2.98-4.29-6.16-6.51-9.19-1.54-2.09-5.06-8-7.4-8.68l-.26-1.02c7.23-1.02,19.83-9.18,22.21-16.34,1.47-4.42,1.47-8.7,1.79-13.28,2.58.15,4.17,2.67,5.87,3.83Z"/>
        <path class="cls-2" d="M123.59,240.32c.13-1.3-.41-2.18-.51-3.32-.04-.42.04-.86,0-1.28,5.76-18.27,11.29-36.78,14.04-55.78l-10.85,14.17c-3.43-2.09-6.88-4.52-8.81-8.17.2-.48.29-1.03.51-1.53.17-.4.42-1.02.77-1.28,2.23,3.03,4.22,6.21,6.51,9.19,12.55-10,16.23-26.17,16.47-41.61,4.6,16.99-5.42,53.32-10.98,70.59-2.07,6.43-4.59,12.77-7.15,19.02Z"/>
        <path class="cls-2" d="M79.93,177c4.44,19.96,8.69,38.76,15.57,58.08.13.36.28,1.03.77.89-.07.45-.19.84-.26,1.28-.13.82-.19,1.72-.26,2.55-8.66-21.5-17.53-50.08-18.64-73.27.7-.41.67-.46.77.38.46,3.84,1.25,6.54,2.04,10.08Z"/>
        <path class="cls-2" d="M100.87,182.88c.68.73.86,1.71,1.28,2.55-.28,1.84-7.68,9.11-8.81,8.94l-13.4-17.36c-.79-3.55-1.58-6.24-2.04-10.08-.1-.85-.06-.79-.77-.38-.31-6.56-.25-9.69,1.28-16.08.6,8.31.14,16.97,3.06,24.89,2.47,6.69,8.22,11.9,12.13,17.74,2.15-3.61,4.78-6.86,7.28-10.21Z"/>
        <path class="cls-9" d="M123.08,235.72c-.79-7.58-2.48-16.05-3.83-23.62-1.04-5.83-3.85-14.24-4.08-19.79-.07-1.71.25-1.54.77-3.06.38-1.14,1.07-2.23,1.53-3.32,1.93,3.65,5.38,6.08,8.81,8.17l10.85-14.17c-2.76,19.01-8.28,37.51-14.04,55.78Z"/>
        <path class="cls-31" d="M102.14,185.43c.71,1.44,2.53,4.62,2.55,6.13,0,.62-.62,1.36-.51,2.04-.04.19-.17.33-.26.51-.28.57-.32,2.16-.51,2.81-1.31,4.49-2.17,9.19-3.06,13.79-.26,1.35-.52,2.73-.77,4.08-.14.78-.12,1.77-.26,2.55-.54,3.07-1.04,6.11-1.53,9.19-.38,2.38-.91,4.77-1.28,7.15-.11.74-.14,1.54-.26,2.3-.49.14-.64-.53-.77-.89-6.88-19.32-11.14-38.12-15.57-58.08l13.4,17.36c1.13.17,8.53-7.09,8.81-8.94Z"/>
      </g>
      <g>
        <path class="cls-23" d="M122.57,237.26c.09-.36.23-.28.51-.26.1,1.14.64,2.02.51,3.32-.24,2.35-3.65,9.07-4.85,11.49l-22.21-18.13c.36-2.38.9-4.77,1.28-7.15l22.85,17.87c.76-.07,1.61-6,1.91-7.15Z"/>
        <path class="cls-23" d="M118.74,251.81c-1.16,2.34-2.24,4.16-3.57,6.38l-13.28-9.96c-1.82-3.66-3.48-7.82-5.87-10.98.07-.43.19-.83.26-1.28.11-.76.14-1.56.26-2.3l22.21,18.13Z"/>
        <path class="cls-16" d="M115.16,258.19c-1.24,2.05-2.35,4.23-3.83,6.13-1.12-1.04-2.48-1.87-3.32-3.19-1.92-3.03-4.35-9.3-6.13-12.89l13.28,9.96Z"/>
        <path class="cls-16" d="M101.89,248.23c1.78,3.59,4.21,9.86,6.13,12.89.84,1.33,2.2,2.15,3.32,3.19-.47.6-.76,1.32-1.4,1.79-6.5-7.94-10.38-16.89-14.17-26.3.06-.83.13-1.73.26-2.55,2.39,3.15,4.05,7.31,5.87,10.98Z"/>
        <path class="cls-24" d="M104.95,184.41c1.69,2,3.59,3.85,5.23,5.87.32.4.82.71-.13.77-1.01-.44-4.25,0-5.36.51-.02-1.51-1.85-4.69-2.55-6.13-.41-.84-.6-1.83-1.28-2.55.82-1.1,1.41-2.47,2.3-3.57.41.93-.94,1.26-.77,2.43.09.62,2.11,2.15,2.55,2.68Z"/>
        <path class="cls-16" d="M111.34,174.45c2.35.68,5.87,6.59,7.4,8.68-.35.26-.59.88-.77,1.28-.22.22-1.29.36-1.53.26l-5.62-10.21c.14.04.37-.04.51,0Z"/>
        <path class="cls-16" d="M110.57,174.45c-.4.61-.1,1.95-.26,2.3-.04.1-1.24,1.37-1.66,1.28-.26-.05-1.49-2.05-2.04-2.3-3.23,2.91-2.03,3.13.38,5.87l-2.04,2.81c-.45-.53-2.46-2.06-2.55-2.68-.18-1.16,1.17-1.5.77-2.43.97-1.21,3.54-4.88,4.98-5.11.12-.02,2.02.2,2.43.26Z"/>
        <path class="cls-26" d="M110.82,174.45l5.62,10.21c-2.08-.93-4.1-6.39-6.13-7.91.16-.35-.15-1.69.26-2.3.01,0-.13-.1.26,0Z"/>
        <path class="cls-29" d="M115.16,192.32c.24,5.55,3.05,13.96,4.08,19.79,1.35,7.57,3.04,16.04,3.83,23.62.04.42-.04.86,0,1.28-.28-.02-.42-.1-.51.26-3.5-3-6.98-6.07-10.59-8.94-1.64-1.3-12.33-8.84-12.64-9.57-.08-.19.69-1.13,0-1.4.14-.78.11-1.77.26-2.55l22.21,15.7c-.13-.71-.34-3.58-.64-3.96-.02-.02-.33.45-.51.26-5.45-6.1-14.45-10.29-20.3-16.08.89-4.59,1.76-9.29,3.06-13.79l14.3,10.08c0-7.43-9.22-8.7-13.79-12.89.09-.18.22-.32.26-.51,1.22-1.22,1.77-.34,3.32-.51,1.04.6,7.31,5.6,7.79,5.62.04,0,.41-.34.64-.38-.31-3.11-1.21-4.23-4.08-5.49,1.06-.08,2.25-.43,3.32-.51Z"/>
        <path class="cls-23" d="M110.31,176.75c2.03,1.53,4.05,6.99,6.13,7.91.24.11,1.31-.03,1.53-.26-.22.5-.31,1.05-.51,1.53-.46,1.09-1.15,2.18-1.53,3.32-1.55,1.61-1.93-.35-3.06-1.53.48-.61,2.46-1.78,2.3-2.68-.08-.44-5.69-6.43-6.25-6.25l-1.66,2.81h-.26c-2.41-2.74-3.61-2.96-.38-5.87.55.24,1.78,2.24,2.04,2.3.42.09,1.62-1.18,1.66-1.28Z"/>
        <path class="cls-23" d="M122.57,237.26c-.3,1.15-1.15,7.08-1.91,7.15l-22.85-17.87c.49-3.08.99-6.12,1.53-9.19.69.28-.08,1.22,0,1.4.31.73,11,8.28,12.64,9.57,3.62,2.86,7.09,5.94,10.59,8.94Z"/>
        <path class="cls-23" d="M107.25,181.6c1.9,2.01,3.7,4.13,5.62,6.13,1.13,1.18,1.51,3.14,3.06,1.53-.52,1.53-.84,1.36-.77,3.06-1.07.08-2.26.43-3.32.51-.17.01-.34-.01-.51,0-.04-.29-1.18-1.74-1.28-1.79.95-.05.45-.37.13-.77-1.64-2.02-3.54-3.88-5.23-5.87l2.04-2.81h.26Z"/>
        <path class="cls-23" d="M110.06,191.05c.1.04,1.23,1.49,1.28,1.79-1.29.1-2.52.12-3.83.26-1.55.17-2.1-.7-3.32.51-.11-.68.52-1.42.51-2.04,1.11-.51,4.35-.95,5.36-.51Z"/>
        <path class="cls-29" d="M99.59,214.79c.25-1.35.5-2.73.77-4.08,5.85,5.8,14.85,9.99,20.3,16.08.18.2.49-.28.51-.26.3.38.5,3.25.64,3.96l-22.21-15.7Z"/>
        <path class="cls-29" d="M103.42,196.92c.19-.65.23-2.24.51-2.81,4.57,4.19,13.78,5.46,13.79,12.89l-14.3-10.08Z"/>
        <path class="cls-14" d="M111.34,192.83c.17-.01.34.01.51,0,2.88,1.25,3.77,2.38,4.08,5.49-.23.04-.6.38-.64.38-.48-.02-6.74-5.01-7.79-5.62,1.31-.14,2.54-.15,3.83-.26Z"/>
        <path class="cls-29" d="M112.87,187.73c-1.92-2-3.72-4.11-5.62-6.13l1.66-2.81c.56-.17,6.17,5.82,6.25,6.25.17.9-1.82,2.07-2.3,2.68Z"/>
      </g>
    </g>
    <g>
      <path class="cls-5" d="M133.29,157.09c-2.38,7.16-14.98,15.32-22.21,16.34-6.27.88-16.34-6.47-20.42-11.11-6.04-6.85-5.85-9.56-6.13-18.51-.12-3.93.26-7.85.26-11.74,4.78,8.75,11.01,17.29,21.32,19.66,3.48.8,7.24.56,10.72,1.28,5.56,1.14,10.88,3.11,16.47,4.08Z"/>
      <path class="cls-27" d="M135.33,131.56c.06,4.1.02,8.17-.26,12.25-.31,4.57-.32,8.86-1.79,13.28-5.59-.97-10.91-2.95-16.47-4.08-3.48-.71-7.25-.48-10.72-1.28-10.31-2.36-16.54-10.91-21.32-19.66v-.51c10.1,10.36,17.96,19.71,34.08,13.79,7.78-2.86,10.17-9.31,16.47-13.79Z"/>
      <path class="cls-25" d="M76.36,98.37c-.98-.43-1.53-1.56-2.3-.64,1.25,3.39-.76,6.94-1.02,9.83h-.26c.46-1.15.09-3.07,0-4.34-.33-4.94-2.02-10.16-2.3-15.19.49-.4.58.39.77.77,1.59,3.19,1.88,7.08,5.11,9.57Z"/>
      <path class="cls-21" d="M113.38,83.82l-1.53-.38c-1.29,7.49.62,14.83.51,22.21,1.05.58,3.45-2.44,3.7-2.43.2,0,2.41,1.65,3.7.77.55,1.27.7.9.51,2.3-.36-.02-.66-.18-1.02-.26l.64-1.02c-4.96-.56-7.03,3.33-11.74,1.79-.51-.17-2.53-1.44-2.68-1.91l2.3-22.34c2.13-1.73,4.37-.95,5.62,1.28Z"/>
      <path class="cls-27" d="M100.1,103.99c-.15.43-.73,1.22-.77,1.53-.19,1.91,1.69.72,3.45,1.28,1.41.45,3.07,2.48,5.11,2.81,6.3,1.02,6.9-3.86,12.25-2.55.71-.42.12-.73.13-.77.19-1.4.04-1.02-.51-2.3-.3-.7-.77-1.35-1.28-1.91,2.17.54,4.01,5.83,1.91,7.02-1.35.77-3.33-.49-4.6-.26-2.19.41-2.64,4.48-7.66,3.57-1.79-.32-3.57-2.72-5.11-3.32-1.19-.47-3.64-.2-4.21-1.15-1.09-1.81,1.47-5.9,1.79-5.11-.25.32-.38.77-.51,1.15Z"/>
      <path class="cls-25" d="M119.25,106.03c-3.33-.7-5.91,2.91-11.11,2.04-2.9-.48-4.85-4.93-8.81-2.55.03-.31.62-1.11.77-1.53.69-.19,4.21-.12,4.47-.26.93-.51,2.29-13.89,2.17-15.7-.03-.52-.29-2.04-.77-2.43.41-1.1.83-2.29,1.79-3.06l-2.3,22.34c.15.48,2.17,1.75,2.68,1.91,4.72,1.54,6.79-2.35,11.74-1.79l-.64,1.02Z"/>
      <path class="cls-25" d="M147.33,103.22c-.12,1.59-.6,1.82-.26,3.57l-1.79-10.21,3.83-8.04c-.47,4.9-1.42,9.77-1.79,14.68Z"/>
      <path class="cls-25" d="M130.48,41.18c3.58,2.97,6.15,8.31,6.64,12.89.22,2.1-.72,12.13.26,13.02.33.3,3.69.5,3.83,1.91-2.61-1.68-6.04-1.36-9.06-1.28s-11.48.67-13.4,2.81c-1.78,1.98.09,1.02-.64,3.06-1.38-.1-3.22,1.11-4.34,1.28-2.89.42-5.56-.12-7.91-.51-1.2-.2-4.55-.27-4.72-1.79.81-1.83-.55-3.08-2.17-3.57-3.5-1.07-16.14-1.6-19.28-.26,4.4-3.17,1.96-9.3,2.55-14.17.19-1.53.93-3.68,1.53-5.11.52-1.23,3.09-4.32,3.06-4.6-.09-.8-1.08-.03-1.28-.64,13.31-2.42,23.48,3.92,35.87.51,2.97-.82,6.08-3.04,9.06-3.57Z"/>
      <path class="cls-1" d="M150.14,76.16c-.9-.95-4.37-.85-4.98-1.28-.15-.11-1.13-2.6-1.66-3.32-.74-1-1.17-1.83-2.3-2.55-.14-1.42-3.5-1.61-3.83-1.91-.98-.89-.03-10.92-.26-13.02-.48-4.58-3.06-9.92-6.64-12.89,15.57-2.8,14.28,11.96,16.08,22.08.76,4.25,2.31,8.75,3.57,12.89Z"/>
      <path class="cls-25" d="M85.55,44.25c.19.61,1.19-.17,1.28.64.03.27-2.54,3.36-3.06,4.6-.6,1.43-1.34,3.58-1.53,5.11-.6,4.87,1.85,11-2.55,14.17-2.61,1.12-4.01,3.69-5.11,6.13-1.16.28-3.77.39-4.6,1.02l1.53-6.13c1.74-4.77,1.93-8.83,2.55-13.79.2-1.61.81-3.2.77-4.85.9-1.42,1.4-3.25,2.81-4.34,1.74-1.35,5.73-2.16,7.91-2.55Z"/>
      <path class="cls-28" d="M101.12,72.59c-5.89.01-15.65-2.45-21.06-.51-1.22.44-2.19,1.65-2.94,2.04-1.57.82-1.1.41-2.55.77,1.09-2.43,2.5-5.01,5.11-6.13,3.13-1.35,15.78-.82,19.28.26,1.62.5,2.98,1.74,2.17,3.57Z"/>
      <path class="cls-28" d="M141.21,69.01c1.13.72,1.55,1.56,2.3,2.55l1.02,2.94c-.67.87-1.44-.29-1.79-.38-5.36-5.71-16.67-1.21-23.87-1.53l-.13-2.04c1.92-2.14,10.34-2.72,13.4-2.81s6.45-.4,9.06,1.28Z"/>
      <path class="cls-25" d="M118.74,70.54l.13,2.04c7.2.33,18.51-4.18,23.87,1.53-12.94-3.54-17.83-.13-29.49,1.28-7.01.84-13.39-2.44-20.42-2.81-5.06-.26-10.89.09-15.7,1.53.75-.39,1.71-1.61,2.94-2.04,5.42-1.94,15.17.52,21.06.51.17,1.52,3.52,1.59,4.72,1.79,2.35.39,5.02.93,7.91.51,1.12-.16,2.96-1.38,4.34-1.28.73-2.04-1.14-1.09.64-3.06Z"/>
      <g>
        <path class="cls-25" d="M66.4,80.5c1.01,1.19,1.36,3.38,2.81,4.34.41,6.13,1.74,12.16,3.06,18.13-.18-.08-.6.14-.77-.13l-.51-4.08-1.53.13c-.62-2.94-1.72-6.39-3.06-9.06-.41-.83-3.49-6.9-4.34-3.83-.79,2.86,1.79,9.1,3.06,11.87-.84-.35-1.53.68-2.55.77-2.25-5.33-5.45-11.33-3.57-17.49,1.14-3.74,5.36-3.04,7.4-.64Z"/>
        <path class="cls-1" d="M65.13,97.86c.67,1.47,1.63,4.73,3.96,4.85,1.97.1.55-3.07.38-3.83l1.53-.13.51,4.08c.17.27.59.05.77.13.03.01,0,.39.51.26.09,1.27.46,3.19,0,4.34-.95,2.36-3.83,1.79-5.49.51-2.42-1.87-3.6-6.8-4.72-9.45,1.02-.08,1.71-1.12,2.55-.77Z"/>
        <path class="cls-27" d="M69.47,98.88c.16.76,1.59,3.93-.38,3.83-2.33-.12-3.29-3.38-3.96-4.85-1.27-2.77-3.85-9.01-3.06-11.87.85-3.07,3.93,3,4.34,3.83,1.34,2.68,2.44,6.13,3.06,9.06Z"/>
      </g>
      <g>
        <path class="cls-25" d="M154.48,105.52c.09-.17.22-1.58.26-1.66.93-1.96,1.96-3.86,2.81-5.87l-2.3-.89c.51-1.17,5.16-12.88,1.4-12-1.65.39-5.22,10.6-5.74,12.51h-2.04c1.39-7.68,1.1-11.13,5.11-18.13,2.7-1.14,5.67-1.94,6.89,1.66,2.51,7.38-3.4,17.76-6.38,24.38Z"/>
        <path class="cls-1" d="M154.48,105.52c-1.4,2.49-5.13,5.8-7.15,2.3-.27-.48-.17-.61-.26-1.02-.34-1.76.14-1.98.26-3.57,1.09-1.31,1.22-3.9,1.53-5.62h2.04c-.36,1.32-2.53,5.26-.13,5.11,2.55-.17,3.67-3.8,4.47-5.62l2.3.89c-.85,2.01-1.88,3.92-2.81,5.87-.04.08-.16,1.49-.26,1.66Z"/>
        <path class="cls-27" d="M155.25,97.1c-.8,1.82-1.91,5.45-4.47,5.62-2.4.16-.23-3.79.13-5.11.52-1.91,4.09-12.12,5.74-12.51,3.75-.88-.89,10.83-1.4,12Z"/>
      </g>
      <path class="cls-25" d="M119.25,106.03c.36.08.66.23,1.02.26,0,.04.59.35-.13.77-5.36-1.31-5.96,3.57-12.25,2.55-2.03-.33-3.7-2.36-5.11-2.81-1.75-.56-3.64.63-3.45-1.28,3.95-2.38,5.91,2.07,8.81,2.55,5.2.87,7.78-2.74,11.11-2.04Z"/>
      <g>
        <path class="cls-25" d="M113.38,83.82c2.28,4.08.89,8.45,5.49,12.25,5.22,4.32,21.58,6.56,26.42.51l1.79,10.21c.08.42-.02.54.26,1.02-.56,10.11-4.56,17.18-12,23.74-6.3,4.47-8.69,10.93-16.47,13.79-16.12,5.92-23.98-3.42-34.08-13.79-6.81-6.99-12.72-13.11-11.74-24,.26-2.89,2.27-6.44,1.02-9.83.77-.92,1.31.21,2.3.64,8.46,3.71,24.41,2.22,28.34-7.53.6-1.48.73-3.78,1.28-5.23.48.39.73,1.9.77,2.43.12,1.81-1.24,15.19-2.17,15.7-.26.14-3.78.06-4.47.26.13-.38.26-.83.51-1.15-.32-.8-2.88,3.3-1.79,5.11.57.94,3.02.68,4.21,1.15,1.53.6,3.32,3,5.11,3.32,5.02.9,5.47-3.16,7.66-3.57,1.26-.24,3.24,1.03,4.6.26,2.09-1.19.25-6.48-1.91-7.02.51.56.97,1.22,1.28,1.91-1.29.89-3.5-.76-3.7-.77-.25-.01-2.66,3-3.7,2.43.11-7.38-1.8-14.72-.51-22.21l1.53.38Z"/>
        <g>
          <path class="cls-3" d="M118.74,125.94c-9.82,3.54-8.63,2.74-18.13,0-.16-1.26,1.33-2.2,2.04-3.06,5.16,1.57,10.77,1.6,15.83-.51-.9,1.82,1.77,1.74.26,3.57Z"/>
          <path class="cls-27" d="M124.87,114.71c-.38.5-.87.76-1.28,1.28-9.38,2.78-19.52,2.6-28.85-.26-.4-.34-.81-.76-1.28-1.02,9.89-.33,21.69,1.36,31.4,0Z"/>
          <path class="cls-8" d="M100.61,125.94c9.5,2.74,8.3,3.54,18.13,0,.46-.17.85-.59,1.4-.51-4.61,8.69-15.27,8.95-20.3.38.3-.35.47.04.77.13Z"/>
          <path class="cls-23" d="M119.25,120.58l1.53.51c-.76.43-1.5.94-2.3,1.28-5.06,2.11-10.67,2.08-15.83.51-1.75-.53-2.32-.94-3.83-1.79l.77-.51c4.62,2.46,15.01,2.4,19.66,0Z"/>
          <path class="cls-12" d="M120.78,121.09l-1.53-.51c2.04-1.05,3.02-2.93,4.34-4.6.41-.51.9-.78,1.28-1.28,1.29-.18,4.24-1.58,4.47-1.53.63.13.34.4.38.89-2.76,2.46-5.71,5.2-8.94,7.02Z"/>
          <path class="cls-12" d="M93.46,114.71c.46.26.87.68,1.28,1.02,1.51,1.28,2.81,3.76,4.85,4.85l-.77.51c-3.43-1.93-6.36-4.57-9.19-7.28.75-.22,3.28.58,3.83.89Z"/>
          <path class="cls-27" d="M88.49,110.88c.26-.04,1-.07,1.15.13l-3.7,3.7c-.44-1.34,1.39-3.63,2.55-3.83Z"/>
          <path class="cls-27" d="M130.1,110.88c1.69,0,3.69,1.76,3.32,3.57l-3.32-3.57Z"/>
          <path class="cls-13" d="M123.59,115.99c-1.33,1.67-2.3,3.54-4.34,4.6-4.65,2.4-15.04,2.46-19.66,0-2.05-1.09-3.34-3.57-4.85-4.85,9.33,2.85,19.47,3.03,28.85.26Z"/>
        </g>
      </g>
      <g>
        <path class="cls-18" d="M150.14,76.16c.18.58.48,3.25.64,3.32,1.23.51,2.91-.45,3.7-1.28-.02.46-.29.89-.51,1.28-4.01,6.99-3.72,10.45-5.11,18.13-.31,1.72-.44,4.31-1.53,5.62.37-4.91,1.31-9.78,1.79-14.68l-3.83,8.04c-4.85,6.05-21.2,3.81-26.42-.51-4.6-3.81-3.21-8.18-5.49-12.25-1.24-2.23-3.48-3-5.62-1.28-.95.77-1.38,1.97-1.79,3.06-.54,1.46-.68,3.75-1.28,5.23-3.93,9.75-19.88,11.24-28.34,7.53-3.23-2.49-3.52-6.38-5.11-9.57-.19-.38-.27-1.17-.77-.77.27,5.03,1.96,10.25,2.3,15.19-.52.14-.48-.24-.51-.26-1.32-5.97-2.66-12-3.06-18.13-.04-.56-.24-.86-.26-1.28-.07-1.67-.13-6.78,1.02-7.66.82-.63,3.44-.74,4.6-1.02,1.45-.36.98.06,2.55-.77,4.81-1.44,10.64-1.79,15.7-1.53,7.03.36,13.41,3.65,20.42,2.81,11.66-1.4,16.54-4.82,29.49-1.28.35.1,1.12,1.25,1.79.38l-1.02-2.94c.53.71,1.51,3.21,1.66,3.32.61.43,4.07.32,4.98,1.28Z"/>
        <g>
          <path class="cls-25" d="M123.59,76.16c-.88,1.35-2.74,2.65-3.32,4.21-.27.74.05,1.96,0,2.3-.16,1.03-1.39,2.05,0,2.94.44.28,1.97.57,2.55.77,3.73,1.23,6.24,1.63,10.21,1.02,2.9-.45,8.25-2.62,6.89-6.25s-6.51-5.18-9.96-4.98v-.51c4.43-.16,12.08.16,15.7,3.06s.12,15.88-4.08,18.13c-5.94,3.17-20.63,1.07-24.38-5.23-1.76-2.96-3.29-12.83.38-14.42.93-.4,4.74-.85,6-1.02Z"/>
          <path class="cls-25" d="M78.91,82.03c.07.48-.27.61-.26.64.71,1.54,6.49,4.72,8.3,4.98,1.92.28,11.76-.63,12.77-2.04.68-.96-1.44-4.84-2.17-5.74-1.64-2.03-4.54-3.46-7.15-3.7l.26-.51c2.13.11,10.71.87,12.13,1.79,3.36,2.17,1.5,12-.64,14.94-4.33,5.94-20.91,8.27-25.79,2.81-2.35-2.63-4.48-12.49-3.06-15.57.46-1,7.36-3.73,8.68-3.96-1.56,1.34-3.41,3.86-3.06,6.38Z"/>
          <path class="cls-25" d="M129.97,75.65v.51c-5.24.3-9.37,4.1-9.7,9.45-1.39-.88-.16-1.91,0-2.94.05-.34-.27-1.56,0-2.3.58-1.56,2.44-2.86,3.32-4.21,1.87-.26,4.48-.44,6.38-.51Z"/>
          <path class="cls-25" d="M90.66,75.65l-.26.51c-5.39-.5-8.51,1.61-11.49,5.87-.34-2.53,1.5-5.05,3.06-6.38,2.21-.38,6.32-.13,8.68,0Z"/>
          <path class="cls-32" d="M132.01,87.14l1.02.26c-3.97.61-6.48.21-10.21-1.02l.26-.26c2.83,1.07,5.97,1.4,8.94,1.02Z"/>
          <g>
            <path class="cls-10" d="M129.97,76.16c3.45-.2,8.61,1.38,9.96,4.98s-4,5.81-6.89,6.25l-1.02-.26c5.95-.75,10.09-4.68,2.68-7.91,3.31,7.15-7.69,10.78-9.57,4.72-.52-1.66.21-2.76-.13-4.21-1.65,1.59-3.27,3.1-4.21,5.23.05.26,1.91,1,2.3,1.15l-.26.26c-.58-.19-2.12-.49-2.55-.77.33-5.35,4.46-9.14,9.7-9.45Z"/>
            <path class="cls-13" d="M132.01,87.14c-2.97.38-6.1.05-8.94-1.02-.39-.15-2.25-.89-2.3-1.15.94-2.14,2.56-3.64,4.21-5.23.34,1.45-.39,2.55.13,4.21,1.89,6.06,12.89,2.43,9.57-4.72,7.41,3.24,3.27,7.16-2.68,7.91Z"/>
            <path class="cls-4" d="M133.67,81.27c1.67,5.04-6.89,7.47-7.4,2.04,2.11,4.1,7.31,2.48,7.4-2.04Z"/>
            <path class="cls-13" d="M127.04,79.99c1.97-.6,2.53,2.54.77,2.81-1.88.29-2.06-2.42-.77-2.81Z"/>
          </g>
          <g>
            <path class="cls-18" d="M90.4,76.16c2.61.24,5.51,1.67,7.15,3.7.73.91,2.85,4.79,2.17,5.74-1.01,1.41-10.85,2.32-12.77,2.04-1.8-.26-7.59-3.44-8.3-4.98-.01-.03.32-.16.26-.64,2.98-4.26,6.1-6.37,11.49-5.87Z"/>
            <g>
              <path class="cls-13" d="M86.19,78.71c-1.27,2.18-1.8,4.31-.13,6.51.65.85,1.82,1.04,2.17,1.91-7.03-.61-10.55-5.64-2.04-8.42Z"/>
              <path class="cls-13" d="M94.61,79.73c2.18,1.12,3.46,3.24,4.72,5.23-.11.55-5.64,2.29-6.51,1.91,1.97-2.24,3.28-4.11,1.79-7.15Z"/>
              <path class="cls-13" d="M91.93,85.86c.04-.23-.3-.29-.26-.51.02-.08.73-1.07.77-1.4.15-1.25-.88-2.75.89-3.45,2.09,1.66.82,4.42-1.4,5.36Z"/>
              <path class="cls-13" d="M86.32,82.8c-.14-.15-.04-.38-.51-.26-.97-5.51,6.11-.71.51.26Z"/>
              <path class="cls-4" d="M86.32,82.8c1.73,1.95,1.7,3.45,5.36,2.55-.04.22.29.29.26.51-2.9,1.23-5.58-.22-6.13-3.32.47-.13.37.1.51.26Z"/>
            </g>
          </g>
        </g>
      </g>
    </g>
  </g>
</svg>