<?xml version="1.0" encoding="UTF-8"?>
<svg id="Layer_1" xmlns="http://www.w3.org/2000/svg" version="1.1" viewBox="0 0 300 300">
  <!-- Generator: Adobe Illustrator 29.6.0, SVG Export Plug-In . SVG Version: 2.1.1 Build 207)  -->
  <defs>
    <style>
      .st0 {
        fill: #e99b5c;
      }

      .st1 {
        fill: #615c44;
      }

      .st2 {
        fill: #11161e;
      }

      .st3 {
        fill: #4d4c46;
      }

      .st4 {
        fill: #fefeff;
      }

      .st5 {
        fill: #de5a5b;
      }

      .st6 {
        fill: #242c3a;
      }

      .st7 {
        fill: #b23033;
      }

      .st8 {
        fill: #bbbcbd;
      }

      .st9 {
        fill: #fdbd89;
      }

      .st10 {
        fill: #0e0e0f;
      }
    </style>
  </defs>
  <g id="Generative_Object">
    <g>
      <path class="st6" d="M234.1,259.9c0,.5-.3,1-.3,1.5h-24.1c0-.1-.1-34.1-.1-34.1l-5.6,34.1h-45.8c10.1-13.4,20.5-27.3,28.3-42.1s4.7-9,4.7-9.9c.1-1.5-6-4.5-7.1-5.8l8.1-5.4-6-13.8c11.1,4.3,24.9,6.3,35.3,10.7s2.8,1.2,3.5,2.3c3.9,5.5,7,36.3,7.7,44.4s1.8,14.8,1.3,18.1Z"/>
      <path class="st6" d="M180.5,181.9c.8.4,1.7.9,2.6,1.3l6.4,14.3-9.4,6,8.6,6.2c-8.5,17.6-19.8,35.4-32.2,50.6-.3.4-.9,1.2-1.5,1.2,6.1-16.7,11.9-33.5,16.1-50.8.3-1.1.6-2.3.9-3.4,2-8.9,3.7-18.1,4.3-27.2.7.4,3.3,1.4,4.3,1.9Z"/>
      <path class="st2" d="M186.3,184.4l6,13.8-8.1,5.4c1.1,1.3,7.2,4.3,7.1,5.8s-4,8.5-4.7,9.9c-7.8,14.8-18.2,28.8-28.3,42h45.8c0,.1,5.6-34,5.6-34v34c.1,0,24.2.1,24.2.1,0-.5.2-1,.3-1.5v1.9c-26.3.2-52.7-.2-79.1-.2v-.2c.6,0,1.2-.8,1.5-1.2,12.4-15.1,23.7-33,32.2-50.6l-8.6-6.2,9.4-6-6.4-14.3c1,.4,2.2.9,3.2,1.3Z"/>
      <g>
        <path class="st6" d="M65,261.4c1.2-14,2-28.2,4.1-42.1.7-4.5,1.5-10,2.6-14.4s2-7.7,3.8-8.7c12.4-3.9,25.4-7,37.4-11.8l-6,13.8,8.4,5.4-7.3,5.6c8.5,18.8,20.5,35.8,33,52.1h-45.8c0,.1-5.6-34.8-5.6-34.8v34.8c.1,0-24.5.1-24.5.1Z"/>
        <path class="st6" d="M123.1,179.7c.2,9.3,2.3,18.4,4.3,27.4s.6,2.2.9,3.2c4.1,17.1,9.5,33.7,15.6,50.2-.5.4,0,.6-.6.1s-2.6-3.1-3.2-3.9c-11.3-14.4-21.5-30.5-29.6-46.9l8.6-6.4-9.4-6,6-14c1-.4,1.9-1,2.8-1.5s3.6-1.4,4.7-2.1Z"/>
        <path class="st2" d="M115.6,183.4l-6,14,9.4,6-8.6,6.4c8.1,16.4,18.3,32.5,29.6,46.9s2.6,3.4,3.2,3.9.2.3.6-.1c.1.4.6.8.4,1.3-26.4,0-52.8,0-79.2,0v-.4c-.1,0,24.5-.1,24.5-.1v-34.8c-.1,0,5.5,34.9,5.5,34.9h45.8c-12.5-16.4-24.5-33.4-33-52.2l7.3-5.6-8.4-5.4,6-13.8c.9-.4,1.9-.7,2.8-1.1Z"/>
      </g>
    </g>
    <g>
      <path class="st10" d="M180.5,181.9c-1-.5-3.6-1.5-4.3-1.9-1.1-.7-5.1-4.3-6.2-5.4-4.2-3.8-4.5-6.9-4.7-12.4s0-4.3.2-6.4c.2-.8,6.2-4.9,7.4-6,3.8-3.4,7.5-7.8,10-12.3s3.1-8.2,3.4-8.6,4.1-1.4,5.5-2.5c4.3-3.4,11.8-19.9,6-22.9s-3.3,2-4.2,4.3c-1.6,4.3-3.3,8.6-4.9,12.9,0,0-.1,1.1-.4.1,1.1-6.2.8-12.7,0-19s-.2-3.7-.6-5.5c-10.1-9.4-20.2-19.3-28.3-30.5s-1.1-1.7-1.7-2.6-.3-1.1-.8-1.5c-.4,0-3.1,5.7-3.5,6.5-7.2,12-19,22.5-32.2,27.5s-7.2,1.7-9.6,2.8-.8.1-1.1.5c0,2.3-.3,4.5-.4,6.8-.3,4.9-.3,9.8.2,14.7l-.9-.8c-.3-2.5-3.1-8.8-4.1-11.6s-1-6-4.6-3.9-.2,13.2,1.6,16.4,4.3,6.1,7.6,7.6,2.3.4,2.5.5,1.2,3.8,1.5,4.5c4.5,9.6,10.8,16.6,19.7,22.2,0,2.4.3,4.8.2,7.3-.2,5.3-.6,8.1-4.5,11.8s-5.1,4.4-6.2,5.1-3.5,1.5-4.7,2.1c-23.8-18.9-26.6-52.4-24.2-80.7,1.6-19.5,6.4-38.9,22.2-51.8,14.3-11.7,28.5-12.1,46.1-9.6,26.6,3.7,38.6,31,41.7,54.8,3.8,29.5,1.7,67.6-23.6,87.4Z"/>
      <g>
        <path class="st3" d="M138,45.7c1.6-.1,3.4,0,4.9.4-13.4,1.5-23.7,11.2-33.8,19.2,6.3-8.6,17.7-18.8,28.8-19.6Z"/>
        <path class="st3" d="M151.9,54.1c-4.4,18-19.1,32.8-36.4,38.8,16.3-8,30-21.6,36.4-38.8Z"/>
        <path class="st3" d="M142.9,49.4l-4.5,4.7c-7.1,5.4-14.4,11-23,13.6l27.5-18.3Z"/>
        <path class="st3" d="M164.3,47c10.6,1.2,19.2,9.1,25.6,17l-25.6-17Z"/>
        <path class="st3" d="M162.4,51.5l24.1,16c-.9.3-2.6-.3-3.5-.5-7.4-2.3-16.2-9.1-20.6-15.4Z"/>
        <path class="st3" d="M137.7,61.6c-6,11.9-17.1,22-29.7,26.5,11.6-6.6,21.3-16.1,29.7-26.5Z"/>
        <path class="st3" d="M163.9,62.3c8.6,9.5,17.6,19,29,25.2-12-4.8-21.9-14.7-29-25.2Z"/>
      </g>
    </g>
    <g>
      <g>
        <path class="st4" d="M171.1,210.6c-4.1,17.3-10,34.1-16.1,50.8v.2c-1.6,0-3.3.2-4.9.2v-57.6l11-4.2,10,10.5Z"/>
        <path class="st4" d="M149,261.8c-1.6,0-3.1,0-4.7,0,.1-.5-.3-.9-.4-1.3-6.1-16.4-11.6-33.1-15.6-50.2l9.8-10.3,11,4.6v57.1Z"/>
        <path class="st8" d="M149.2,203.7c.1,0,.3,0,.4,0,3.5-.2,8.5-5.7,11-7.9l11.3,11.4c-.3,1.1-.6,2.3-.9,3.4l-10-10.5-11,4.2v57.6c-.4,0-.7,0-1.1,0v-57.1l-11-4.6-9.8,10.3c-.3-1.1-.6-2.1-.9-3.2l11-11.4c2.5,2,7.6,7.8,10.8,7.9Z"/>
        <path class="st4" d="M176.2,179.9c-.6,9.2-2.3,18.3-4.3,27.2l-11.3-11.4c-2.6,2.2-7.6,7.7-11,7.9l16.5-21.3c1.5-2.5,3.5-4.9,3.9-7.8,1.2,1.1,5.1,4.6,6.2,5.4Z"/>
        <path class="st4" d="M129.3,174.6c1.8,7.5,8.5,13.4,13.1,19.4s4.3,6.7,6.9,9.8c-3.2-.2-8.3-5.9-10.8-7.9l-11,11.4c-2-9-4.1-18.1-4.3-27.4,1.2-.8,5.2-4.2,6.2-5.1Z"/>
      </g>
      <g>
        <g>
          <path class="st9" d="M165.3,162.2c.2,5.6.6,8.6,4.7,12.4-.3,3-2.4,5.3-3.9,7.8l-16.5,21.3c-.1,0-.3,0-.4,0-2.5-3.1-4.5-6.6-6.9-9.8-4.6-6-11.2-11.9-13.1-19.4,3.9-3.7,4.3-6.5,4.5-11.8,3.1.6,6,2.1,9.1,2.8,8.3,1.7,14.8-.2,22.4-3.4Z"/>
          <path class="st0" d="M165.5,155.7c-.1,2.1-.3,4.3-.2,6.4-7.6,3.3-14.1,5.1-22.4,3.4s-6-2.2-9.1-2.8c0-2.4-.2-4.9-.2-7.3,3.6,2.3,10.3,5.9,14.5,6.2,6.6.5,11.8-3.7,17.5-6Z"/>
        </g>
        <path class="st0" d="M157.6,63.1c-5.6,13.1-15.5,24.4-28.3,30.9-2.5,0-5.7.9-7.9,1.9l-.2-.2c13.2-5.1,25-15.5,32.2-27.5s3.2-6.6,3.5-6.5c.4.4.4,1,.8,1.5Z"/>
        <path class="st0" d="M188.2,101.7c-1.2-.7-.8-3.8-1.3-4.8s-7.8-6-9.1-7.2c-7.4-6.6-14.5-15-18.5-24,8.1,11.3,18.2,21.1,28.3,30.5.4,1.8.4,3.7.6,5.5Z"/>
        <path class="st0" d="M188.7,120.6c1.7-4.3,3.4-8.6,4.9-12.9,5.7,2.6,1,12.2-3.8,13.3s-.9-.3-1.2-.4Z"/>
        <path class="st0" d="M109.3,119.7c0,.4.4,1.3.1,1.5-5.2-.4-10.4-10.9-4.2-13.1,1,2.8,3.8,9.1,4.1,11.6Z"/>
        <path class="st0" d="M111.5,98.5l-.9,8-.6-.8c.1-2.2.4-4.5.4-6.8.2-.4.7-.4,1.1-.5Z"/>
        <path class="st10" d="M129.3,94c3,0,9.6,1.1,8.7,5.4-6.6-3-13.8-3.5-20.6-.6,1.1-1.1,2.5-2.1,4-2.8,2.3-1.1,5.4-1.9,7.9-1.9Z"/>
        <g>
          <path class="st9" d="M159.3,65.7c4,9,11.2,17.4,18.5,24s8.9,6.7,9.1,7.2c.5,1,0,4.2,1.3,4.8.8,6.3,1.1,12.7,0,19,.3,1,.4-.1.4-.1.3.1.2.6,1.2.4,4.7-1.1,9.4-10.7,3.8-13.3.8-2.3.4-6.3,4.2-4.3,5.8,3-1.7,19.6-6,22.9s-5.3,2.2-5.5,2.5c-.3.3-2.7,7.1-3.4,8.6-2.4,4.5-6.2,8.9-10,12.3s-7.1,5.2-7.4,6c-5.7,2.3-10.9,6.5-17.5,6s-10.9-3.9-14.5-6.2c-9-5.6-15.2-12.6-19.7-22.2s-1.3-4.3-1.5-4.5-2-.3-2.5-.5c-3.3-1.6-5.9-4.4-7.6-7.6s-5.5-14-1.6-16.4,3.8,1.5,4.6,3.9c-6.2,2.2-1,12.6,4.2,13.1.3-.2,0-1.1-.1-1.5l.9.8c-.6-4.9-.5-9.8-.2-14.7l.6.8.9-8c2.4-1.1,6.8-1.7,9.6-2.8l.2.2c-1.4.7-2.9,1.6-4,2.8,6.8-2.9,14-2.4,20.6.6.9-4.2-5.7-5.3-8.7-5.4,12.8-6.5,22.6-17.8,28.3-30.9.6.8,1.1,1.8,1.7,2.6Z"/>
          <g>
            <path class="st9" d="M175.3,118.9c9.5-1.1,10.4,6.6,1.9,7.5s-10.5-6.5-1.9-7.5Z"/>
            <path class="st9" d="M120.8,119.1c2.6-.2,10.2,1.3,8.5,5.3s-15.6,2.3-13.5-2.8,3.7-2.4,5-2.5Z"/>
            <path class="st10" d="M168.2,93.8c4.8-.3,9.4,1.5,13.2,4.4-.1.3-4.9-1.3-5.5-1.4-5.4-.9-10.3.2-15.2,2.4-1.1-3.7,4.8-5.2,7.5-5.4Z"/>
            <g>
              <path class="st10" d="M137.4,112.2c-.5-2-2.6-4.5-4.6-5.1,1.5,2.9,1.5,6.7-1.4,8.8-1.6.3-2.1.8-3.9,0-3.2-1.5-3.3-7.1-1-9.4-3.9.8-6.4,2-4.8,6.4-1.5-2.3-2.5-3.9-4.7-5.7,2.6,1.1,3.6-1.1,5.9-2,6.7-2.9,13.9-1,14.5,7.1Z"/>
              <path class="st4" d="M127.6,115.8c-2,.6-5.1-1.1-5.8-3-1.6-4.4.9-5.6,4.8-6.4-2.3,2.4-2.2,8,1,9.4Z"/>
              <path class="st4" d="M137.4,112.2c0,.3.5.8.4,1-2,1.3-4.1,2.2-6.4,2.7,2.9-2.1,2.9-5.9,1.4-8.8,2.1.6,4.1,3.1,4.6,5.1Z"/>
            </g>
            <path class="st0" d="M145,129.6c3,1.4,5.8.9,8.9.1-2.2,2.9-7,3.2-8.9-.1Z"/>
            <g>
              <path class="st10" d="M176.9,112.8c1.7-4.3-.5-5.8-4.4-6.6l-.2.4c2.6,2.7,1.8,7.1-1.2,9.2-1.6.1-2.5.5-4.1-.4-2.7-1.7-2.6-6.3-1-8.8-2.1,1.1-3.8,2.9-4.6,5.1l-.2-.4c1.4-8.2,8.5-8.9,15.1-6.2s2.8,2.8,5.3,1.8c-2.4,1.7-3.2,3.5-4.7,5.9Z"/>
              <path class="st4" d="M176.9,112.8c-.9,2.2-3.7,2.8-5.8,3,3-2.1,3.7-6.5,1.2-9.2l.2-.4c3.9.8,6.1,2.4,4.4,6.6Z"/>
              <path class="st4" d="M167,115.4c-1,.4-5.7-1.9-6-2.5s.2-.6.2-.8c0-.2.1-.2.2-.4.8-2.2,2.5-4.1,4.6-5.1-1.6,2.4-1.7,7.1,1,8.8Z"/>
              <path class="st1" d="M161.4,111.8c0,.2-.2.3-.2.4,0-.5,0-.3,0-.9l.2.4Z"/>
            </g>
            <g>
              <path class="st5" d="M160.1,139.9c-2.2,4-2.7,6.8-8,7.7s-11.5-1.3-13.2-7.7c5.9,6.9,15.3,6.6,21.2,0Z"/>
              <path class="st5" d="M161.2,137.5c0,.6-.9.7-1.3.9-5.6,2.2-15.4,2.3-21,0s-1.3-.4-1.3-.9c3.6-.9,20.1-1,23.6,0Z"/>
              <path class="st7" d="M137.6,137.5c0,.4.9.7,1.3.9,4.5,6.9,16.6,7,21,0,.4-.2,1.3-.2,1.3-.9.3,0,.4,0,.6.3-.9.4-1.3,1.3-1.7,2-5.9,6.6-15.4,6.9-21.2,0s-1.1-1.4-1.7-2c0-.4.2-.3.4-.3Z"/>
              <path class="st4" d="M159.9,138.4c-4.5,7-16.6,6.9-21,0,5.6,2.3,15.4,2.2,21,0Z"/>
            </g>
          </g>
        </g>
      </g>
    </g>
  </g>
</svg>