<?xml version="1.0" encoding="UTF-8"?>
<svg id="Layer_1" data-name="Layer 1" xmlns="http://www.w3.org/2000/svg" xmlns:xlink="http://www.w3.org/1999/xlink" viewBox="0 0 216.48 284.55">
  <defs>
    <style>
      .cls-1 {
        fill: #dcdbdc;
      }

      .cls-2 {
        fill: #fc8b8e;
      }

      .cls-3 {
        fill: #457e93;
      }

      .cls-4 {
        fill: #9e5a3b;
      }

      .cls-5 {
        fill: #f87873;
      }

      .cls-6 {
        fill: #e5f1ee;
      }

      .cls-7 {
        fill: url(#linear-gradient-8);
      }

      .cls-8 {
        fill: url(#linear-gradient-7);
      }

      .cls-9 {
        fill: url(#linear-gradient-5);
      }

      .cls-10 {
        fill: url(#linear-gradient-6);
      }

      .cls-11 {
        fill: url(#linear-gradient-9);
      }

      .cls-12 {
        fill: url(#linear-gradient-4);
      }

      .cls-13 {
        fill: url(#linear-gradient-3);
      }

      .cls-14 {
        fill: url(#linear-gradient-2);
      }

      .cls-15 {
        fill: #c7cfd7;
      }

      .cls-16 {
        fill: #f4c09e;
      }

      .cls-17 {
        fill: #b6b4b5;
      }

      .cls-18 {
        fill: #da8d61;
      }

      .cls-19 {
        fill: #05112c;
      }

      .cls-20 {
        fill: url(#linear-gradient);
      }

      .cls-21 {
        fill: #2c5973;
      }

      .cls-22 {
        fill: #858f9b;
      }

      .cls-23 {
        fill: #b26a45;
      }

      .cls-24 {
        fill: #d3a691;
      }

      .cls-25 {
        fill: #7f7d80;
      }

      .cls-26 {
        fill: #d71828;
      }

      .cls-27 {
        fill: #502b1c;
      }

      .cls-28 {
        fill: #10161a;
      }

      .cls-29 {
        fill: #fee9dc;
      }

      .cls-30 {
        fill: #668fa1;
      }

      .cls-31 {
        fill: #1b364d;
      }

      .cls-32 {
        fill: #fad5ba;
      }

      .cls-33 {
        fill: #b2b6ae;
      }

      .cls-34 {
        fill: url(#linear-gradient-10);
      }

      .cls-35 {
        fill: url(#linear-gradient-11);
      }

      .cls-36 {
        fill: url(#linear-gradient-12);
      }

      .cls-37 {
        fill: url(#linear-gradient-13);
      }

      .cls-38 {
        fill: #84121e;
      }

      .cls-39 {
        fill: #d17c54;
      }

      .cls-40 {
        fill: #fefefe;
      }

      .cls-41 {
        fill: #f35057;
      }

      .cls-42 {
        fill: #91acbd;
      }

      .cls-43 {
        fill: #565052;
      }

      .cls-44 {
        fill: #051c24;
      }

      .cls-45 {
        fill: #7e4735;
      }

      .cls-46 {
        fill: #7c9493;
      }

      .cls-47 {
        fill: #929193;
      }

      .cls-48 {
        fill: #a8c4d4;
      }

      .cls-49 {
        fill: #431516;
      }

      .cls-50 {
        fill: #ebaa7d;
      }

      .cls-51 {
        fill: #d1e9f2;
      }

      .cls-52 {
        fill: #0c0101;
      }

      .cls-53 {
        fill: #3ba7d9;
      }

      .cls-54 {
        fill: #a3a1a3;
      }

      .cls-55 {
        fill: #5a737d;
      }
    </style>
    <linearGradient id="linear-gradient" x1="123.7" y1="50.41" x2="121.42" y2="82.52" gradientUnits="userSpaceOnUse">
      <stop offset="0" stop-color="#f0f0f0"/>
      <stop offset="1" stop-color="#cdcacb"/>
    </linearGradient>
    <linearGradient id="linear-gradient-2" x1="137.29" y1="119.46" x2="148.23" y2="124.37" gradientUnits="userSpaceOnUse">
      <stop offset="0" stop-color="#807f81"/>
      <stop offset="1" stop-color="#b4b3b5"/>
    </linearGradient>
    <linearGradient id="linear-gradient-3" x1="83.82" y1="113.63" x2="72.01" y2="129.76" gradientUnits="userSpaceOnUse">
      <stop offset="0" stop-color="#848385"/>
      <stop offset="1" stop-color="#b9b7b9"/>
    </linearGradient>
    <linearGradient id="linear-gradient-4" x1="138.68" y1="94.02" x2="151.92" y2="114.27" gradientUnits="userSpaceOnUse">
      <stop offset="0" stop-color="#787678"/>
      <stop offset="1" stop-color="#b0aeaf"/>
    </linearGradient>
    <linearGradient id="linear-gradient-5" x1="65.75" y1="97.88" x2="59.83" y2="118.07" gradientUnits="userSpaceOnUse">
      <stop offset="0" stop-color="#928f91"/>
      <stop offset="1" stop-color="#bbb9ba"/>
    </linearGradient>
    <linearGradient id="linear-gradient-6" x1="150.78" y1="91.38" x2="159.86" y2="103.25" gradientUnits="userSpaceOnUse">
      <stop offset="0" stop-color="#949192"/>
      <stop offset="1" stop-color="#b2b0b1"/>
    </linearGradient>
    <linearGradient id="linear-gradient-7" x1="103.69" y1="41.67" x2="137.56" y2="86.76" gradientUnits="userSpaceOnUse">
      <stop offset="0" stop-color="#efeff0"/>
      <stop offset="1" stop-color="#bab7b8"/>
    </linearGradient>
    <linearGradient id="linear-gradient-8" x1="58.06" y1="169.77" x2="81.8" y2="255.55" gradientUnits="userSpaceOnUse">
      <stop offset="0" stop-color="#4d7c92"/>
      <stop offset=".71" stop-color="#3b6177"/>
      <stop offset="1" stop-color="#1b3145"/>
    </linearGradient>
    <linearGradient id="linear-gradient-9" x1="98.23" y1="198.51" x2="74.46" y2="199.03" gradientUnits="userSpaceOnUse">
      <stop offset="0" stop-color="#476475"/>
      <stop offset="1" stop-color="#4f7c92"/>
    </linearGradient>
    <linearGradient id="linear-gradient-10" x1="28.58" y1="186.11" x2="54.24" y2="212.53" gradientUnits="userSpaceOnUse">
      <stop offset="0" stop-color="#517284"/>
      <stop offset="1" stop-color="#273f54"/>
    </linearGradient>
    <linearGradient id="linear-gradient-11" x1="186.51" y1="192.35" x2="168.06" y2="202.89" gradientUnits="userSpaceOnUse">
      <stop offset="0" stop-color="#2e6077"/>
      <stop offset="1" stop-color="#25465f"/>
    </linearGradient>
    <linearGradient id="linear-gradient-12" x1="81.11" y1="116.13" x2="132.78" y2="123.45" gradientUnits="userSpaceOnUse">
      <stop offset=".17" stop-color="#f8bb98"/>
      <stop offset="1" stop-color="#e69c72"/>
    </linearGradient>
    <linearGradient id="linear-gradient-13" x1="134.79" y1="97.87" x2="116.58" y2="99.75" gradientUnits="userSpaceOnUse">
      <stop offset="0" stop-color="#df966b"/>
      <stop offset="1" stop-color="#fbc6a6"/>
    </linearGradient>
  </defs>
  <g id="Generative_Object" data-name="Generative Object">
    <g>
      <path class="cls-20" d="M162.08,94.52c-1.64-2.8-2.65-3.75-5.26-5.47-6.41-4.23-12.07-4.29-19.15-6.31-.12-.03-.31.03-.42,0-2.02-.58-4.46-1.61-6.73-2.31-9.81-3.02-13.78-4.16-22.09-10.52.04-.56.31-.37,0-.95-.53-1-7.65-7.7-8.94-8.73-3.2-2.56-8.81-5.96-12.63-7.36-.59-.22-2.52-.32-2.74-.42-.81-.37.58-1.22-.63-1.89-.3-.17-.8.44-.95.11-.03-.06.1-.78,0-1.37-.05-.29-.21-.75-.21-.84.17.02.6-.04.63,0,.06.06-.11.57.11.63.08.02.85-1,1.16-1.05-.26.6-1.11,2.73.11,2.74.24,0,3.05-2.36,4-2.74,1.65-.66,7.48-1.68,9.26-1.68,2.34,0,2.18.82,2.31.84,1.56.29,3.78.07,5.47.42,16.68,3.47,24.66,15.34,36.61,25.67,1.52,1.32,8.95,7.28,10.52,7.15,2.01-.17.55-4.99.32-6.1-1.11-5.27-3-9.79-5.47-14.52-2.58-4.95-6.93-11.98-11.15-15.57.25-.53.6-.08.84.11,6.81,5.35,13.8,15,16.2,23.36,1.18,4.11,1.03,9.32,2.31,13.05.94,2.72,3.63,4.64,4.63,6.94.56,1.3,1.58,5.32,1.89,6.84Z"/>
      <path class="cls-14" d="M151.98,118.3c-.6,4.44-3.21,7.29-6.94,9.47-.95.56-2.49.57-3.16,1.58l-.21,2s-.22.79-.11.84c2.96.31,3.39-.72,4.73-2.95.27-.05.38-.05.63-.21h.21c-.93,1.7.16,3.56-.21,5.37-.26,1.26-2.33,3.53-3.37,4.31l-3.16.53,2.1-1.05-.32-.95c-2.09,1.87-3.12,1.54-5.47,1.05l.32.95c-.17.35-.48.25-.63.32h-4.52c-.34-.43.09-1.36,0-1.47-.22-.26-6.02-1.16-6-2.95,5.35-5.45,9.84-11.95,10.94-19.67.18-.58,1.09.12,1.16.11,3.72-.99,4.03-5.08,4.95-8,.62-1.97,1.79-5.27,2.1-7.15,4.35,3.98,7.74,11.95,6.94,17.89Z"/>
      <path class="cls-13" d="M70.96,96c-.45,1.7-.14,3.21.21,4.84.4,1.88,1.34,3.62,1.89,5.47-.72.21-1.96,3.34-1.89,3.68.03.17,1,.85,1.05,1.05,1.04,3.83,1.07,6.34,3.79,9.68,1.12,1.38,2.59,2.21,3.79,3.37.19.18-.35.63.11,1.16.24.28,3.46,1.81,4.1,1.89.5.8,1.77,1.98,2.31,2.74,1.29,1.79,3.39,3.62,3.79,5.47.27,1.28.36,3.27.42,4.63-5.28.01-10.47-1.11-14.84-4.21-1.63-1.16-2.42-2.56-3.68-4,2.04.58,4.71.88,6.94.32l-8.42-2.42c-.3-.36-.63-.57-.84-.84l8.63,2.1c2.18.05,4.89,1.88,6.63-.21-1.72-.03-3.44.03-5.16,0l-7.68-2.1c-5.06-2.57-8.04-8.47-7.89-14.1.08-2.99,2.49-11.58,3.79-14.41.72-1.57,1.77-2.87,2.95-4.1Z"/>
      <path class="cls-12" d="M154.29,96c.53,1.17.92,2.12,1.26,3.37.75,2.77,1.07,5.42,1.26,8.31l1.16-1.16c.09.06-.07,1.95-.11,2.1-1.15,4.79-3.33,12.94-6.52,16.73-.88,1.04-3.86,3.05-4.21,3.68h-.21l.42-1.26c2.61-1.26,4.68-5.35,5.05-8.1.04-.3.21-1.48-.42-1.37.8-5.94-2.59-13.91-6.94-17.89.19-1.17.35-2.4.21-3.58-.04-.34-.31-1.67-.42-1.89.21.4.52.34.63.42.18.29.37,1.23,1.05.95-.33-.41-.62-.65-1.05-.95-.5-.81-1.06-2.78-2.1-2.95,1.32-3.69.61-3.86-2.31-4.63.09-.3-.15-.4-.21-.63-.08-.31-.72-2.45-.32-2.53,6.5,1.86,10.96,5.16,13.78,11.36Z"/>
      <path class="cls-9" d="M73.49,93.26c-1.01-.1-2.32,1.96-2.53,2.74-1.17,1.23-2.22,2.53-2.95,4.1-1.3,2.83-3.71,11.42-3.79,14.41-.6-.11-.45.59-.42.95.21,2.45.7,7.07,1.89,9.15-4.88-2.45-10.44-8.45-10.73-14.1-.56-10.65,11.84-14.13,18.1-20.2,0,.87.43,2.03.42,2.95Z"/>
      <path class="cls-10" d="M156.82,89.05c-.4.01-.71.04-.42.53.41.7,2.83,2.2,3.37,3.16l2.53,3.89c.1.65.6,1.52.63,2.21.22,4.33-1.72,7.23-5.05,9.78.04-.15.19-2.04.11-2.1l-1.16,1.16c-.2-2.89-.51-5.54-1.26-8.31.81-.22-.29-3.92-1.26-3.37-2.82-6.2-7.28-9.5-13.78-11.36-.4.07.23,2.22.32,2.53-2.28.63-2.33-2.92-3.16-4.42,7.08,2.02,12.74,2.08,19.15,6.31Z"/>
      <path class="cls-1" d="M136.2,44.23c4.22,3.59,8.57,10.62,11.15,15.57l-2.74,1.47c-3.59-5.6-8.66-12.17-14.1-15.99-.28-.77,2.94-2.95,3.16-2.95.16,0,2.23,1.64,2.53,1.89Z"/>
      <path class="cls-43" d="M136.41,139.56c-.48.22-2.11.31-2.31.53-.92.95,1.05,1.12,1.68,1.16l-10.31-1.05c0-1.52-.17-3.09,0-4.63.14-.14.29-.28.42-.42-.02,1.79,5.78,2.68,6,2.95.09.11-.34,1.04,0,1.47h4.52Z"/>
      <path class="cls-1" d="M96,34.97c-4.52,2.57-9.17,5.39-11.78,10.1-.58,1.04-1.1,2.17-1.26,3.37-.04-.04-.46.02-.63,0-.45-8.59,6.78-11.46,13.68-13.47Z"/>
      <path class="cls-40" d="M64.23,114.52c-.15,5.63,2.83,11.53,7.89,14.1l7.68,2.1c-.49,0-1.64-.45-1.47.21l-8.63-2.1c-1.02-1.27-3.32-3.03-4-4.21-1.2-2.09-1.68-6.71-1.89-9.15-.03-.35-.18-1.05.42-.95Z"/>
      <path class="cls-47" d="M143.56,138.71c-2.01,1.52-5.26,2.69-7.79,2.53-.63-.04-2.6-.21-1.68-1.16.21-.21,1.84-.3,2.31-.53.15-.07.46.03.63-.32l-.32-.95c2.35.49,3.39.82,5.47-1.05l.32.95-2.1,1.05,3.16-.53Z"/>
      <path class="cls-40" d="M72.02,131.77c-.62-.71-1.08-1.64-1.47-2.1l8.42,2.42c-2.23.56-4.9.27-6.94-.32Z"/>
      <path class="cls-47" d="M156.82,89.05c2.61,1.72,3.63,2.67,5.26,5.47.14.69.11,1.42.21,2.1l-2.53-3.89c-.54-.96-2.96-2.46-3.37-3.16-.28-.48.02-.51.42-.53Z"/>
      <path class="cls-8" d="M130.51,45.28c5.44,3.82,10.51,10.39,14.1,15.99,2.49,3.89,4.48,8.84,7.15,12.52.33.45.43.81,1.05.53.23,1.11,1.69,5.94-.32,6.1-1.57.13-9-5.84-10.52-7.15-11.95-10.34-19.93-22.2-36.61-25.67-1.69-.35-3.91-.13-5.47-.42-.14-.03.03-.84-2.31-.84-1.78,0-7.61,1.03-9.26,1.68-.95.38-3.76,2.74-4,2.74-1.21,0-.36-2.14-.11-2.74.03-.06-.03-.15,0-.21,1.56-.04.89-.75,1.47-1.37,11.01-11.73,32.76-9.62,44.82-1.16Z"/>
      <path class="cls-17" d="M147.35,59.8c2.47,4.73,4.36,9.25,5.47,14.52-.63.28-.73-.08-1.05-.53-2.67-3.68-4.67-8.63-7.15-12.52l2.74-1.47Z"/>
      <path class="cls-40" d="M84.22,47.81c-.03.06.03.15,0,.21-.3.05-1.08,1.07-1.16,1.05-.21-.06-.05-.57-.11-.63.16-1.2.68-2.33,1.26-3.37,2.3,1.47.52,1.54,0,2.74Z"/>
      <path class="cls-24" d="M137.67,82.74c.82,1.5.88,5.05,3.16,4.42.06.23.3.33.21.63-.81-.21-1.71-.49-2.53-.63l-1.26-4.42c.12.03.31-.03.42,0Z"/>
      <g>
        <path class="cls-1" d="M82.54,49.28c.1.59-.03,1.31,0,1.37.14.33.64-.27.95-.11,1.21.68-.18,1.52.63,1.89.21.1,2.15.2,2.74.42,3.81,1.41,9.43,4.8,12.63,7.36,1.29,1.03,8.41,7.73,8.94,8.73.31.58.04.39,0,.95-2.1-1.61-10.6-9.51-11.99-9.89l-10-6.52,3.47,3.68.84,2.84c-3.18-1.71-7.63,1.58-9.26,4.31-2.95,4.97-2.16,11.22-3.58,16.62-.62,2.34-2.05,4.52-2.74,6.84-2.02.67-2.1.37-2.1,2.53-6.25,6.07-18.65,9.55-18.1,20.2-.46-.99-.77-2.41-.84-3.47-.21-3.36.67-11.05,1.89-14.1.58-1.44,3.22-4.83,3.37-5.68.49-2.78-1.31-9.09-1.05-13.05.56-8.6,8.55-27.72,19.25-26.41,1.59.19,3.39,1.76,4.95,1.47Z"/>
        <g>
          <path class="cls-40" d="M87.48,57.07c.25,0,1.17.13,1.16.53-3.19.34-7.19,4.17-8.63,6.94-1.78,3.43-1.47,7.5-2.74,11.15-2.91,8.39-8.51,8.56-15.26,12.73,2.79-3.53,7.53-4.87,10.42-8.52,4.66-5.88,3.63-14.35,9.15-19.46.89-.82,4.79-3.37,5.89-3.37Z"/>
          <path class="cls-40" d="M81.59,53.07c.47-.05,3.17-.14,3.05.53-1.55.34-3.24.33-4.73.95-.5.21-3.62,2.34-3.68,2.63-.01.06.44,1,.42,1.05-.25.58-3.58,3.97-3.37,4.63.04.12,1.23.51,1.26.63.08.27-1.99,4.74-2.63,4.73-.21,0-1.21-.88-1.79-.53s-3.25,9.09-4.31,10.21c-.14-2.74.68-5.53,1.58-8.1,1.86-5.33,8.08-16.1,14.2-16.73Z"/>
          <path class="cls-40" d="M76.12,79.37c1.22-.3-.1,2.94-.32,3.47-3.61,8.82-14.32,9.33-20.2,15.99,3.21-10.07,17.54-8.94,20.52-19.46Z"/>
          <path class="cls-40" d="M75.49,50.55c1.66-.21,3.03.9,2.42,2.63-.18.5-7.55,5.31-8.31,6.63-.18-.02-2.23-2.39-2.21-2.63.12-1.11,6.6-6.44,8.1-6.63Z"/>
          <path class="cls-17" d="M96.43,60.01c-1.16-.32-4.66-.51-5.47.42-.03-.03-.19-.41-.21-.42l-.84-2.84-3.47-3.68,10,6.52Z"/>
          <path class="cls-40" d="M84.96,54.96c.42-.03,2.34.13,2.1.84-1.11-.05-2.36.18-3.37.63-1.34.6-3.92,3.95-4.21,4-.22.04-.5-.23-.74-.32,1.2-1.97,3.74-5,6.21-5.16Z"/>
        </g>
      </g>
      <path class="cls-1" d="M147.35,127.77c-.58.28-2.65,1.2-2.31,0,3.73-2.18,6.35-5.03,6.94-9.47.64-.11.46,1.07.42,1.37-.37,2.76-2.44,6.84-5.05,8.1Z"/>
      <path class="cls-17" d="M147.35,127.77l-.42,1.26c-.25.16-.36.16-.63.21-1.19.2-3.96,1.09-4.63,2.1l.21-2c.67-1.01,2.2-1.02,3.16-1.58-.33,1.2,1.74.28,2.31,0Z"/>
      <path class="cls-54" d="M146.3,129.24c-1.34,2.22-1.77,3.25-4.73,2.95-.12-.06.08-.81.11-.84.67-1.02,3.44-1.9,4.63-2.1Z"/>
      <path class="cls-25" d="M73.07,106.31c.33,1.1.24,2.86.63,4.1.69,2.17,3.23,6.58,5.89,4.52,1.05,4.47,1.94,8.24,4.42,12.2-.64-.08-3.87-1.62-4.1-1.89-.45-.53.08-.97-.11-1.16-1.2-1.16-2.67-1.99-3.79-3.37-2.72-3.34-2.75-5.85-3.79-9.68-.05-.2-1.02-.88-1.05-1.05-.07-.35,1.17-3.47,1.89-3.68Z"/>
      <path class="cls-47" d="M79.8,130.72c1.71.03,3.44-.03,5.16,0-1.74,2.09-4.45.26-6.63.21-.17-.66.99-.22,1.47-.21Z"/>
      <path class="cls-47" d="M145.46,95.37c-.12-.08-.42-.02-.63-.42-.2-.41-1.38-1.79-1.89-1.47.44-.47.28-.67.42-1.05,1.05.16,1.6,2.14,2.1,2.95Z"/>
      <path class="cls-17" d="M155.56,99.36c-.34-1.25-.73-2.2-1.26-3.37.97-.56,2.07,3.15,1.26,3.37Z"/>
      <path class="cls-47" d="M145.46,95.37c.44.3.72.54,1.05.95-.69.28-.87-.66-1.05-.95Z"/>
      <g>
        <path class="cls-1" d="M133.67,42.34c-.22,0-3.43,2.17-3.16,2.95-12.06-8.47-33.81-10.57-44.82,1.16-.58.62.09,1.32-1.47,1.37.52-1.19,2.3-1.27,0-2.74,2.62-4.71,7.26-7.53,11.78-10.1,11.69-3.4,23.62-2.34,33.77,3.79,1.23.74,3.66,2.24,3.89,3.58Z"/>
        <path class="cls-40" d="M105.58,34.55c1.86-.2,7.24-.11,9.05.21.2.04,0,.59.21.63,4.85.96,10.62,2.41,14.41,5.37,0,.34-1,.14-1.16.11-4.37-1.05-7.65-2.97-12.84-3.58-4.05-.47-8.16-.54-12.2,0l-.32-2.21c.94-.06,1.92-.43,2.84-.53Z"/>
      </g>
    </g>
    <g>
      <path class="cls-7" d="M73.07,162.28c-.16.26-.24.6-.42.84-2.06,2.85-3.69,10.87-4.21,14.62-.14,1.04-.93,8-.84,8.42.03.12,1.47,1.47,1.68,1.79-.67.78-1.12,1.9-1.89,2.63,4.23,9.68,9.7,19.21,15.57,28.09s13.93,17.6,19.99,26.51c.41.6,1.55,2.08,1.68,2.63.26,1.11.46,5.22-1.47,4.73-19.56-1.03-37.6-8.33-52.82-20.41-.84-4.32.27-8.67.42-13.05.33-9.59-1.27-16.47-3.79-25.57-1.79-6.47-4.15-12.9-6.31-19.25.03-.05-.02-.29,0-.42,9.62-2.97,24.05-6.38,32.41-11.57Z"/>
      <path class="cls-11" d="M83.17,158.92c-.46,6.32.44,21.98,2.53,27.78.05.14-.11.43.21.42-.05.14-.24,1.8-.11,1.89l3.16-3.58.11.42c2.76,14.07,6.93,27.79,11.15,41.45,1.88,6.1,3.77,12.21,5.68,18.31-.35.13.04.16-.63.21-1.4-2.22-2.98-4.33-4.42-6.52-10.86-16.49-20.98-34.16-29.25-52.08.55-1.39,7.8-7.24,7.79-7.79,0-.36-.19-.48-.53-.53-.42-.05-5.68,1.86-5.79,1.58-.44-6.62-1.26-13.83,1.89-19.89,3.69-2.63,7.04-5.71,9.89-9.26-.83,2.53-1.49,4.88-1.68,7.58Z"/>
      <path class="cls-21" d="M142.93,162.28l1.47,9.78-.42,7.79-7.58-2.74,7.36,9.05-35.98,60.5c-.24.33-.87,1.82-1.37,1.68-.56-.71-1.03-1.61-1.58-2.31.19.01.21-.2.42-.21.67-.05.28-.08.63-.21.28-.11.49.85,1.26-.84.72-1.58.36-4.1.42-5.89h.42c0,.98-.24,2.15-.21,3.05.01.35-.06.72.42.42,6.51-18.92,13.55-37.77,18.73-57.13.11-.42.2-.4.21-.42l3.05,4c.28-.6.08-1.11-.11-1.68.57-1.75.73-3.66,1.05-5.47,1.38-7.76,2.91-15.61,2.1-23.57-.1-.97-.59-3.98-.84-4.84.37.93.88,1.44,1.58,2.1,1.64,1.56,7.03,5.74,8.94,6.94Z"/>
      <path class="cls-31" d="M165.24,214.05c-.31,9.48,2.61,15.96-5.68,22.73-8.87,7.25-25.16,12.92-36.4,14.73l-14.62.63c-.18-.13-.28-4.1-.11-4.52.33-.84,3.75-3.46,1.26-3.68,12.24-18.89,23.3-38.61,35.14-57.76l-6.94-8c.84.15,7.04,3.53,7.36,2.95.03-5.03.17-9.87-.63-14.84.41-.33.48,0,.63.32,1.13,2.38,3.85,13.51,3.37,15.78-.2.91-2.72,3.15-2.74,3.37-.05.57,2.04,1.55,1.89,2.95-.1.99-5.16,8.61-6.1,10.1-8.74,13.83-18.55,27.03-27.36,40.82,9.11-.1,19.1,0,28.09-1.37,8.35-1.26,16.36-4.15,18.2-13.36.49-2.44.18-5.75.84-8,.08-.27.57-.31.63-.42.17-.34-.47-.35-.42-.42.14-.22,2.95-2.53,3.58-2Z"/>
      <path class="cls-34" d="M40.66,173.86c-.02.13.03.37,0,.42-.17.26-.2.17-.42.32,3.72,14.21,7.81,28.97,7.58,43.77l-.53.32c-.33-.05-1.22-3.08-2.21-2.31-1.15-2.07-2.21-5-3.58-6.84-.16-.21-.46-.97-.63-.21,1.48,4.5,4.57,9.36,5.68,13.89.39,1.58.06,2.77.21,4,.01.1,1.02.03.63,1.47-.2.73-.51-.13-.63.32-7.16-6.29-13.54-13.34-18.73-21.36.53-7.25,2.77-30.69,10.42-33.56.76-.29,1.72-.06,2.21-.21Z"/>
      <path class="cls-35" d="M176.81,222.04c-.77.53-1.03.8-1.68.84-.34.02-1.43.2-1.47-.32,2.26-6.26,7.36-15.6,2.63-21.57l-7.47,15.26c-.65-2.14-.54-5.22-.42-7.58.49-10.04,3.47-20.29,5.89-29.99.35-1.39,1.05-2.82,1.05-4.21,8.57,3.25,9.46,8.35,11.15,16.94.51,2.58,2.32,14.33,1.89,16.2-.35,1.53-9.93,13.29-11.57,14.41Z"/>
      <path class="cls-30" d="M100.84,239.3h-.63c-5.19-7.49-9.88-15.09-14.52-22.94-5.57-9.42-11.13-18.91-15.78-28.83,2.52-2.8,5.81-5.37,8.63-7.89l-6.94,1.89,1.05-18.41c.18-.24.26-.58.42-.84.49-.3,1.3-1.26,1.89-1.68-3.15,6.05-2.33,13.27-1.89,19.89.11.28,5.37-1.63,5.79-1.58.33.04.52.17.53.53.01.55-7.24,6.4-7.79,7.79,8.27,17.92,18.39,35.6,29.25,52.08Z"/>
      <path class="cls-3" d="M143.77,162.7c.44,1.17.64,2.35.84,3.58.8,4.97.66,9.81.63,14.84-.32.58-6.52-2.8-7.36-2.95l6.94,8c-11.84,19.15-22.9,38.87-35.14,57.76-.58.9-1.27,1.86-1.89,2.74l35.98-60.5-7.36-9.05,7.58,2.74.42-7.79-1.47-9.78c.26.16.57.27.84.42Z"/>
      <path class="cls-19" d="M175.13,222.89c.66-.04.92-.32,1.68-.84-5.11,5.58-10.87,10.66-17.26,14.73,8.29-6.77,5.37-13.25,5.68-22.73.12-3.6.32-7.02,1.26-10.52.57-.12.24,1.43.21,1.58-.95,5.18-2.68,11.76,2,15.68l3.89-6.21c-1.67,4.46-3.23,9.04-3.16,13.89,1.99-1.51,4.37-3.51,5.68-5.58Z"/>
      <path class="cls-19" d="M45.08,216.36c.37.67,2.68,5.02,3.05,5.05l2.63-2.31c-.15,4.38-1.27,8.72-.42,13.05-1.26-1-2.37-2.1-3.58-3.16.12-.45.44.42.63-.32.38-1.44-.62-1.38-.63-1.47-.15-1.23.18-2.42-.21-4-1.12-4.53-4.2-9.39-5.68-13.89.17-.76.47,0,.63.21,1.37,1.83,2.43,4.77,3.58,6.84Z"/>
      <path class="cls-19" d="M123.15,251.5c-6.76,1.09-13.14,1.41-19.99,1.05,1.93.48,1.74-3.62,1.47-4.73-.13-.55-1.27-2.03-1.68-2.63l1.05-.21c.27.36.56.7.84,1.05.55.7,1.02,1.6,1.58,2.31.5.13,1.13-1.35,1.37-1.68.63-.88,1.31-1.84,1.89-2.74,2.49.22-.93,2.85-1.26,3.68-.17.43-.08,4.39.11,4.52l14.62-.63Z"/>
      <path class="cls-21" d="M85.69,216.36l-2.74,2.31c-5.87-8.88-11.35-18.41-15.57-28.09.78-.73,1.23-1.85,1.89-2.63.07-.08.55-.34.63-.42,4.65,9.92,10.21,19.41,15.78,28.83Z"/>
      <path class="cls-31" d="M50.76,219.1l-2.63,2.31c-.37-.03-2.68-4.38-3.05-5.05.99-.76,1.88,2.27,2.21,2.31l.53-.32c.24-14.8-3.85-29.56-7.58-43.77.22-.15.25-.05.42-.32,2.17,6.36,4.52,12.78,6.31,19.25,2.52,9.1,4.12,15.97,3.79,25.57Z"/>
      <path class="cls-31" d="M85.69,216.36c4.64,7.85,9.33,15.44,14.52,22.94,1.3,1.87,2.4,3.85,3.79,5.68l-1.05.21c-6.06-8.91-13.83-17.21-19.99-26.51l2.74-2.31Z"/>
      <path class="cls-21" d="M69.91,187.53c-.08.09-.56.34-.63.42-.22-.32-1.66-1.67-1.68-1.79-.09-.41.7-7.38.84-8.42.52-3.75,2.14-11.78,4.21-14.62l-1.05,18.41,6.94-1.89c-2.81,2.52-6.11,5.09-8.63,7.89Z"/>
      <path class="cls-31" d="M175.13,222.89c-1.31,2.06-3.69,4.07-5.68,5.58-.08-4.85,1.49-9.43,3.16-13.89l-3.89,6.21c-4.67-3.92-2.95-10.5-2-15.68.03-.15.36-1.7-.21-1.58l7.79-24.83c-2.42,9.7-5.4,19.95-5.89,29.99-.12,2.35-.23,5.43.42,7.58l7.47-15.26c4.73,5.97-.37,15.31-2.63,21.57.05.52,1.13.34,1.47.32Z"/>
      <g>
        <path class="cls-21" d="M175.34,174.49c0,1.39-.71,2.82-1.05,4.21l-7.79,24.83c-.94,3.5-1.15,6.92-1.26,10.52-.63-.53-3.43,1.78-3.58,2-.05.07.59.08.42.42-.06.12-.55.15-.63.42-.66,2.25-.35,5.56-.84,8-1.84,9.21-9.86,12.1-18.2,13.36-8.99,1.36-18.99,1.27-28.09,1.37,8.81-13.8,18.61-26.99,27.36-40.82.94-1.49,6-9.11,6.1-10.1.14-1.39-1.94-2.38-1.89-2.95.02-.22,2.54-2.46,2.74-3.37.49-2.27-2.24-13.4-3.37-15.78-.15-.32-.23-.65-.63-.32-.2-1.23-.4-2.41-.84-3.58,8.71,5.07,21.96,8.14,31.56,11.78Z"/>
        <polygon class="cls-40" points="137.14 210.47 159.03 210.47 159.13 214.15 137.35 214.26 137.14 210.47"/>
        <path class="cls-31" d="M159.03,214.47l.21,5.05c-3.03-.68-25.21.93-25.99-.11-.04-.06-.04-.84.11-.95,1.03-.73,22.23.56,25.25,0l.42-4Z"/>
      </g>
      <path class="cls-55" d="M100.84,239.3c1.44,2.19,3.02,4.31,4.42,6.52-.21.01-.23.23-.42.21-.28-.35-.57-.69-.84-1.05-1.39-1.84-2.49-3.81-3.79-5.68h.63Z"/>
      <g>
        <path class="cls-40" d="M90.32,146.08c-.04.27.05.58,0,.84-1.54.34-3.15,1.85-3.16,3.47,0,.5.62,1.49.63,1.58.92,6.61,3.75,12.08,6.52,18.1,3.36,7.28,7.17,14.3,11.15,21.25-2.06-2.59-3.59-4.91-5.47-7.58-2.13-3.02-4.06-6.19-6.42-9.05-.71-.05-3.59,6.03-4.1,6.94-.6,1.06-3.47,5.16-3.58,5.47-.33.01-.16-.29-.21-.42l-1.68-27.25-.84-.53c.2-2.69.85-5.05,1.68-7.58,1.97-1.55,2.87-4.63,5.47-5.26Z"/>
        <path class="cls-51" d="M132.41,153.23c.25.86.74,3.87.84,4.84l-.84-.11c.11,6.74-.72,13.68-1.47,20.41-.07.62-1.56,4.09.21,3.26-.32,1.81-.48,3.73-1.05,5.47-.05-.16-.14-.27-.21-.42.1-.21.23-1.27.21-1.37-.85-3.89-4.77-9.08-5.68-13.26-.98-.41-1.12,1.58-1.89.63l4.84-10.94c.81-1.21-.17-2.33,0-3.47.28-1.84.88-3.63,1.26-5.47.1-.47.89-2.58.84-2.84-.04-.21-2.67-3-3.37-2.21-.09-.3-.14-.54-.21-.84,3.39-.03,5.66,3.31,6.52,6.31Z"/>
        <path class="cls-1" d="M97.69,185.43c3.51,2.78,6.18,7.45,9.89,10.1-.42,6.11.31,12.67,0,18.83-1.07.53-.8.13-1.47.95-.28.34-.89,1.59-.84,2,.01.13,1.51,2.16,1.89,1.58,0,.02.43-.06.42.11-.33,6.56.21,13.3,0,19.89-.06,1.79.3,4.31-.42,5.89l-6.1-17.36-.84-.11c-4.22-13.67-8.4-27.38-11.15-41.45.4-.19.68-.62,1.05-.84.63-.38,3.37-1.94,3.89-1.89.22.02,3.29,2.01,3.68,2.31Z"/>
        <path class="cls-1" d="M85.69,186.69c-2.09-5.79-2.99-21.45-2.53-27.78l.84.53,1.68,27.25Z"/>
        <path class="cls-22" d="M107.16,244.77c-.78,1.69-.98.73-1.26.84-1.92-6.09-3.8-12.2-5.68-18.31l.84.11,6.1,17.36Z"/>
        <path class="cls-21" d="M90.11,185.01c-.37.22-.65.65-1.05.84l-.11-.42-3.16,3.58c-.13-.09.06-1.75.11-1.89.11-.31,2.98-4.41,3.58-5.47l.63,3.37Z"/>
        <path class="cls-1" d="M126.94,185.22c-5.18,19.36-12.21,38.21-18.73,57.13-.48.3-.41-.07-.42-.42-.03-.9.21-2.07.21-3.05-.02-7.15-.22-14.33-.21-21.46.3-1.79-.01-1.5,0-2.53.07-6.13.41-13.34,0-19.36,4.14-2.62,7.5-7.78,11.36-10.52,3.13-2.22,4.71-2.43,7.79.21Z"/>
        <path class="cls-42" d="M127.57,182.9c-.38.42-.29,1.39-.42,1.89,0,.02-.1,0-.21.42-3.08-2.64-4.65-2.43-7.79-.21l-1.89-1.89c.75-.97,5.48-8.47,6-8.42,2.01,2.42,2.95,5.43,4.31,8.21Z"/>
        <path class="cls-48" d="M133.25,158.07c.81,7.96-.72,15.8-2.1,23.57-1.77.83-.28-2.64-.21-3.26.75-6.74,1.58-13.67,1.47-20.41l.84.11Z"/>
        <path class="cls-42" d="M108,238.88h-.42c.21-6.58-.33-13.33,0-19.89,0-.17-.42-.08-.42-.11,0-.08.55-1,.63-1.47-.01,7.13.19,14.31.21,21.46Z"/>
        <path class="cls-31" d="M129.88,186.69c.07.15.16.26.21.42.18.57.39,1.08.11,1.68l-3.05-4c.13-.5.04-1.47.42-1.89.69,1.41,1.81,2.73,2.31,3.79Z"/>
        <path class="cls-40" d="M129.88,186.69c-.5-1.06-1.62-2.37-2.31-3.79-1.36-2.77-2.31-5.79-4.31-8.21-.51-.05-5.25,7.45-6,8.42-2.97,3.84-6.35,7.43-9.47,11.15,5.3-7.69,10.44-15.56,14.52-23.99,1.76-3.64,3.34-7.31,4.63-11.15.08-.25.19-.7.42-.84-.17,1.14.81,2.26,0,3.47l-4.84,10.94c.78.95.91-1.04,1.89-.63.91,4.18,4.83,9.36,5.68,13.26.02.1-.11,1.16-.21,1.37Z"/>
        <path class="cls-48" d="M128.62,152.81c-.96-1.61-1.99-3.22-2.53-5.05.7-.79,3.33,2,3.37,2.21.04.26-.74,2.37-.84,2.84Z"/>
        <path class="cls-42" d="M100,183.75c-.86-.3-2.13.95-2.31,1.68-.39-.31-3.47-2.3-3.68-2.31-.52-.04-3.26,1.51-3.89,1.89l-.63-3.37c.52-.92,3.39-7,4.1-6.94,2.36,2.86,4.29,6.03,6.42,9.05Z"/>
        <path class="cls-48" d="M119.15,185.01c-3.87,2.74-7.22,7.9-11.36,10.52-.02-.28.09-.63-.11-.84-.17,0-.09.64-.11.84-3.71-2.65-6.38-7.32-9.89-10.1.19-.73,1.46-1.98,2.31-1.68,1.88,2.66,3.41,4.99,5.47,7.58.48.61,1.72,2.96,2.31,2.95,3.12-3.72,6.5-7.31,9.47-11.15l1.89,1.89Z"/>
        <path class="cls-1" d="M90.32,146.92c-.18.89-.84,2.11-1.26,2.95-.37.73-.75,1.47-1.26,2.1-.01-.08-.63-1.08-.63-1.58,0-1.62,1.62-3.13,3.16-3.47Z"/>
        <path class="cls-40" d="M107.79,214.89c-.01,1.02.3.74,0,2.53-.08.47-.63,1.39-.63,1.47-.39.58-1.88-1.45-1.89-1.58-.04-.41.56-1.66.84-2l1.68-.42Z"/>
        <path class="cls-15" d="M107.79,195.53c.41,6.02.07,13.23,0,19.36l-1.68.42c.68-.81.41-.41,1.47-.95.31-6.16-.42-12.72,0-18.83.01-.2-.07-.84.11-.84.2.21.09.57.11.84Z"/>
      </g>
    </g>
    <g>
      <g>
        <path class="cls-39" d="M125.46,140.19c-.01,2.45-.16,4.25.42,6.73.07.3.12.54.21.84.54,1.83,1.56,3.44,2.53,5.05-.38,1.84-.98,3.63-1.26,5.47-.23.14-.34.6-.42.84-10.62-1.14-21.13-6.09-28.2-14.2-1.68-1.93-2.94-4.15-4.42-6.21,7.66,6.38,13.21,9.24,22.52,3.79.22-.13.42-.29.63-.42,2.8-1.77,5.64-4.18,8-6.52-.17,1.53,0,3.11,0,4.63Z"/>
        <path class="cls-16" d="M93.06,137.24c.18.29.41.59.63.84,1.76,11,.15,23.67,9.05,31.88-4.81-.26-8.52-7.29-10.31-11.36-1.24-2.82-1.81-6.17-3.37-8.73.42-.84,1.08-2.05,1.26-2.95.05-.26-.04-.57,0-.84.28-2,.3-4.09.21-6.1-.06-1.36-.15-3.35-.42-4.63l.63-.53c.54.94,1.5,1.73,2.31,2.42Z"/>
        <path class="cls-18" d="M137.25,82.74l1.26,4.42c-8.93-1.53-14.09-.07-22.52,1.68-.67-.67-.35-1.89-.42-2.1,6.48-2.54,14.87-6.49,20.94-1.05-1.14-2.63-4.15-4.75-7.05-5.05l1.05-.21c2.28.7,4.72,1.74,6.73,2.31Z"/>
        <path class="cls-18" d="M90.74,60.01s.18.39.21.42c.16.15.15.53.74.63-.99-.05-1.87-.02-2.84.21-4.89,1.14-6.77,6.76-7.15,11.26-.03.35-.18,1.05.42.95-1.15,4.87-1.36,9.41-4.21,13.89-.82.16-1.92.15-2.74.42.68-2.32,2.12-4.5,2.74-6.84,1.42-5.4.62-11.66,3.58-16.62,1.63-2.74,6.08-6.03,9.26-4.31Z"/>
        <path class="cls-50" d="M94.32,138.71c1.48,2.06,2.74,4.28,4.42,6.21,7.06,8.11,17.58,13.06,28.2,14.2-1.29,3.84-2.87,7.51-4.63,11.15-3.08,2.06-11,9.02-14.84,8.21-1.77-.38-2.21-3.74-2.84-4.73-1.11-1.76-5.88-3.24-7.89-3.68-.56-.12-2-.55-2.42,0-2.77-6.02-5.61-11.48-6.52-18.1.51-.64.9-1.38,1.26-2.1,1.56,2.57,2.13,5.92,3.37,8.73,1.79,4.07,5.5,11.11,10.31,11.36-8.9-8.21-7.29-20.88-9.05-31.88.19.23.42.34.63.63Z"/>
        <path class="cls-16" d="M122.31,170.28c-4.08,8.43-9.22,16.3-14.52,23.99-.59.02-1.83-2.34-2.31-2.95-3.98-6.95-7.8-13.97-11.15-21.25.42-.55,1.86-.12,2.42,0,2.01.45,6.78,1.92,7.89,3.68.63,1,1.07,4.36,2.84,4.73,3.83.81,11.76-6.15,14.84-8.21Z"/>
        <path class="cls-16" d="M101.48,86.95c-.16.45-.33,1.19-.42,1.68-8.18-1.82-11.97-2.85-20.62-1.68v-.42c5.5-5.9,14.76-2.37,21.04.42Z"/>
        <path class="cls-23" d="M129.46,80.64c2.9.3,5.91,2.42,7.05,5.05-6.07-5.44-14.46-1.48-20.94,1.05-.16-.5-1.18-.97-.84-2.21.62-2.27,12.45-4.13,14.73-3.89Z"/>
        <path class="cls-39" d="M101.48,86.95c-6.29-2.79-15.54-6.32-21.04-.42,0-7,17.18-6.09,20.94-2.74,1.37,1.22.56,1.85.11,3.16Z"/>
        <path class="cls-50" d="M88.85,61.28l5.89,4.1c-8.21-3.89-10.91.87-12.63,8.1-.6.11-.45-.59-.42-.95.39-4.5,2.27-10.12,7.15-11.26Z"/>
        <g>
          <path class="cls-16" d="M96.43,60.01c1.4.38,9.9,8.28,11.99,9.89,8.31,6.37,12.28,7.5,22.09,10.52l-1.05.21c-2.28-.24-14.11,1.62-14.73,3.89-.34,1.23.68,1.71.84,2.21.07.22-.25,1.44.42,2.1-2.68.56-5.57,1.61-8.31,1.47-2.23-.11-4.48-1.21-6.63-1.68.09-.49.26-1.23.42-1.68.46-1.31,1.26-1.93-.11-3.16-3.76-3.36-20.94-4.26-20.94,2.74v.42c-.85.11-1.69.25-2.53.42,2.85-4.48,3.05-9.01,4.21-13.89,1.71-7.23,4.41-11.99,12.63-8.1l-5.89-4.1c.97-.23,1.85-.26,2.84-.21-.58-.1-.57-.48-.74-.63.81-.93,4.31-.74,5.47-.42Z"/>
          <path class="cls-16" d="M96.95,64.01l16.1,11.05c-.36.57-1.15-.11-1.58-.32-4.94-2.39-10.34-7.14-14.52-10.73Z"/>
          <path class="cls-16" d="M113.58,75.17l2.63,1.79c-.33.03-3.57-1.37-2.63-1.79Z"/>
        </g>
        <path class="cls-16" d="M110.73,95.37c-.8,3.86-.66,7.86-.42,11.78.1,1.6,1.65,5.04-.95,5.68-3.65.91-3.38-1.49-3.47-3.79.02-.14-.03-.31,0-.42.36-.19.62.76.63.84.21,1.5-.18,2.12,1.89.74.12-.34-.41-.5-.42-.53-.31-.66-.61-.38-.63-.53,0-.04.42-.59.42-.63-.33-4.53.17-9.14-.84-13.57,1.26-.42,2.71-.34,3.79.42Z"/>
        <path class="cls-16" d="M108,109.68l-1.47-.21c-.01-.08-.27-1.03-.63-.84.76-2.72,1.01-9.7.63-12.52-.11-.83,0-.34-.63-.32.18-.28.77-.75,1.05-.84,1.01,4.43.51,9.04.84,13.57,0,.04-.43.59-.42.63.02.15.32-.14.63.53Z"/>
        <g>
          <path class="cls-18" d="M145.24,96.84c.14,1.18-.02,2.41-.21,3.58-.31,1.89-1.48,5.18-2.1,7.15-1.45.08-1.38,2.86-2.31,4.31-.42.65-2.46,2.88-3.16,1.89-.28-.4.51-4.14.63-4.95,2.32.17,2.84-3.34.84-4,.04-.34-.03-.71,0-1.05.93-.81,1.19-2.19,1.89-3.37,2.13,2.62.39,4.12,1.26,6.84.46-1.27,2.86-11.72-.63-8.1-2.41.37,1.21-4.59,2.42-4.21l1.37,1.89Z"/>
          <path class="cls-16" d="M138.93,103.78c-.03.34.04.71,0,1.05-.16,1.31-.65,2.68-.84,4-.12.8-.91,4.55-.63,4.95.7.98,2.74-1.24,3.16-1.89.93-1.46.86-4.24,2.31-4.31-.92,2.92-1.22,7.01-4.95,8-.07.02-.98-.68-1.16-.11-1.1,7.73-5.59,14.22-10.94,19.67-.13.14-.28.29-.42.42-2.36,2.34-5.2,4.76-8,6.52,5.57-5.37,12.07-10.05,15.57-17.15,2.66-5.4,4.6-14.38,5.26-20.41.04-.4.24-1.61-.42-1.79.3-.69.59-1.39.84-2.1.75.91.31,2.1.21,3.16Z"/>
          <path class="cls-50" d="M144.82,94.95c.11.22.38,1.55.42,1.89l-1.37-1.89c-1.21-.38-4.83,4.58-2.42,4.21-.24.25-.46.97-.63,1.26-.7,1.18-.97,2.56-1.89,3.37.1-1.06.54-2.25-.21-3.16.43-1.22.57-4,1.05-4.95.61-1.2,2.36-1.35,3.16-2.21.51-.31,1.69,1.06,1.89,1.47Z"/>
          <path class="cls-23" d="M140.83,100.42c.17-.29.39-1.01.63-1.26,3.49-3.62,1.09,6.83.63,8.1-.87-2.72.87-4.22-1.26-6.84Z"/>
          <path class="cls-39" d="M138.09,108.83c.2-1.32.68-2.69.84-4,1.99.65,1.48,4.17-.84,4Z"/>
        </g>
        <path class="cls-50" d="M114.94,114.3c-.69.59-1.23.37-1.47.42-.42-1.15-2.75-.61-2.95.42-.89.21-1.82,1.44-2.63,1.26-.11-.02-1.23-1.15-1.79-1.47-.01,0,.06-.07-.21-.21-.54-1.94-2.87-.19-3.05-.21-1.36-.14-1.33-4.58.42-4.84l.95.95c-.21-.57,1.2-3.48,1.68-2.53-.55.37,0,.9,0,.95.09,2.3-.18,4.69,3.47,3.79,2.6-.64,1.04-4.09.95-5.68,1.29-.19,1.98,3.79,2.21,3.79.39-.71.56-1.25,1.47-1.05,1.48,1.82,1.45,2.29.95,4.42Z"/>
        <path class="cls-18" d="M114.94,114.3c-.2.86.17,1.62-.95,2.31-2.26-.14-4.6,1.1-6.73.63-.48-.11-5.42-2.16-3.89-2.74.23.43,2.49,1.2,2.74.42.55.33,1.68,1.45,1.79,1.47.81.18,1.74-1.06,2.63-1.26.68-.16,1.91-.18,2.95-.42.24-.06.79.17,1.47-.42Z"/>
        <g>
          <path class="cls-16" d="M73.49,93.26c.34.03,3.09,1.75,3.37,2.21.86,1.41,1.55,5.41,2.53,7.47-.65.29-.47,1.67-.42,2.21.55,5.63,2.35,14.44,4.63,19.57.78,1.77,2.14,3.3,2.74,5.16-.54-.76-1.82-1.94-2.31-2.74-2.48-3.97-3.37-7.73-4.42-12.2-.12-.49-.36-.99-.42-1.26-.35-1.62-.55-3.58-.84-5.26-.22-1.27-.43-2.51-.63-3.79-.44-2.88-.62-5.86-1.05-8.73h-.63c.13,1.18,1.05,5.83.84,6.52-.06.18-.41.08-.42.11.13-.63-.41-1.04-.63-1.47s-.24-.77-.63-1.26c.68-.24-.07-2.1-.21-2.42-.28-.65-1.34-2.79-2.21-2.63-1.9,1.59-1.46,3.94-1.58,6.1-.35-1.63-.66-3.14-.21-4.84.21-.77,1.51-2.84,2.53-2.74Z"/>
          <path class="cls-16" d="M75.17,99.79c-.42-.53-.92-1.22-1.58-1.47-1.53.32.05,7.03.32,8.21.13.59.26,1.35.42,1.89.67,2.21,1.83,6.3,4.84,5.26.06.27.31.77.42,1.26-2.66,2.06-5.2-2.36-5.89-4.52-.4-1.24-.3-3-.63-4.1-.55-1.85-1.49-3.59-1.89-5.47.12-2.17-.32-4.52,1.58-6.1.87-.16,1.93,1.98,2.21,2.63.14.32.89,2.18.21,2.42Z"/>
          <path class="cls-50" d="M77.7,104.62c-2.64-.01-1.77,5.86.63,3.79.29,1.68.5,3.64.84,5.26-3.01,1.04-4.17-3.05-4.84-5.26.7-1.92,1.49-3.95,2.1-5.89,0-.02.37.08.42-.11.21-.69-.71-5.35-.84-6.52h.63c.43,2.87.61,5.85,1.05,8.73Z"/>
          <path class="cls-39" d="M75.17,99.79c.39.49.41.82.63,1.26-1.56.07-1.7,2.49-1.68,3.68,0,.34,1.1,1.96-.21,1.79-.27-1.18-1.85-7.88-.32-8.21.66.25,1.16.95,1.58,1.47Z"/>
          <path class="cls-18" d="M75.8,101.05c.22.43.77.85.63,1.47-.61,1.95-1.4,3.97-2.1,5.89-.16-.54-.29-1.31-.42-1.89,1.31.17.22-1.45.21-1.79-.02-1.19.12-3.61,1.68-3.68Z"/>
          <path class="cls-18" d="M77.7,104.62c.2,1.27.41,2.52.63,3.79-2.4,2.07-3.28-3.8-.63-3.79Z"/>
        </g>
        <path class="cls-29" d="M108,109.68s.54.19.42.53c-2.07,1.38-1.69.77-1.89-.74l1.47.21Z"/>
        <g>
          <path class="cls-36" d="M137.88,102.73c.66.18.46,1.39.42,1.79-.66,6.03-2.6,15.01-5.26,20.41-3.5,7.1-10,11.78-15.57,17.15-.21.13-.41.29-.63.42-2.08.36-3.89,1.75-6,2.1-7.13,1.2-12.72-3.08-17.78-7.36-.82-.69-1.77-1.48-2.31-2.42l-.63.53c-.39-1.85-2.5-3.68-3.79-5.47-.6-1.86-1.95-3.39-2.74-5.16-2.28-5.13-4.08-13.94-4.63-19.57-.05-.54-.22-1.92.42-2.21,5.29,11.11,20.87,7.49,25.04-2,.62-1.42.87-4.2,1.47-5.16.64-.02.52-.51.63.32.37,2.82.13,9.8-.63,12.52-.03.11.02.29,0,.42,0-.05-.55-.57,0-.95-.48-.96-1.9,1.95-1.68,2.53l-.95-.95c-1.76.26-1.78,4.7-.42,4.84.18.02,2.52-1.73,3.05.21-.88-.44-1.43-1.18-2.53-.21-1.53.57,3.41,2.63,3.89,2.74,2.13.47,4.47-.77,6.73-.63,1.12-.7.74-1.45.95-2.31.51-2.13.54-2.6-.95-4.42-.91-.2-1.08.34-1.47,1.05-.23,0-.92-3.98-2.21-3.79-.24-3.92-.37-7.92.42-11.78,1.32.94,1.52,4.1,2.31,5.79,4.52,9.63,19.92,13.02,24.83,1.58Z"/>
          <g>
            <path class="cls-32" d="M116.84,142.5c-9.31,5.45-14.86,2.59-22.52-3.79-.21-.29-.44-.41-.63-.63-.22-.25-.45-.56-.63-.84,5.06,4.29,10.66,8.57,17.78,7.36,2.11-.36,3.92-1.74,6-2.1Z"/>
            <path class="cls-18" d="M96.64,114.3c-2.31,2.43-5,3.79-5.16,7.58-.79-3.09,2.65-6.34,5.16-7.58Z"/>
            <path class="cls-23" d="M105.89,114.73c.27.14.2.2.21.21-.25.77-2.5,0-2.74-.42,1.09-.97,1.64-.23,2.53.21Z"/>
            <path class="cls-18" d="M123.99,117.88l-4.84-4.1c1.9.79,3.61,2.49,4.84,4.1Z"/>
            <path class="cls-18" d="M123.99,117.88c.51.31,1.03,1.3.74,1.89l-.74-1.89Z"/>
            <path class="cls-18" d="M96.64,114.3s.19-.56.42-.32c.09.45-.38.28-.42.32Z"/>
            <g>
              <path class="cls-41" d="M117.47,127.56c-1.36.61-2.4,2.21-3.68,2.95-4.45,2.55-9.57,1.57-13.36-1.68-2.73-2.48-4.4-5.29-6.73-8.1.01-.2.48-.05.63-.11.13.29.79.71,1.05.84.89,1.44,2.67,2.6,4.21,3.37.01.03.25.19.42.42.89,1.17,2.73,1.52,3.79,2.53-1.16.08-1.26.96-.53,1.68,1.26,1.25,6.75,1.69,8.42,1.05.9-.34.96-1.19,1.37-1.47,1.77-1.22,3.25-2.16,4.63-3.89-.11-.17-.26-.22-.42-.32l4.21-3.68c-.11-.32-3.66,1.07-4,1.16-1.4.37-3,.83-4.42,1.05-3.08.49-5.92.5-9.05.21.62-.5.6-1.68.63-2.53,6.02.05,11.95-.63,17.99-.84l.32.32c-2.1,2.15-3.45,4.82-5.47,7.05Z"/>
              <path class="cls-5" d="M104.63,121.04c-.03.85-.01,2.03-.63,2.53-1.27-.12-3.69-.33-4.84-.63-.59-.15-3.17-1.17-3.79-1.47-.26-.13-.92-.55-1.05-.84,1.46-.48,8.23.4,10.31.42Z"/>
              <path class="cls-26" d="M117.47,127.56c-5.58,6.16-10.63,7.1-17.04,1.26,3.79,3.26,8.91,4.24,13.36,1.68,1.28-.73,2.33-2.34,3.68-2.95Z"/>
              <path class="cls-40" d="M104,123.56c3.13.29,5.97.28,9.05-.21.66,1.73,2.92.08,4,.42-.09.26-.28.6-.42.84-.04.07.04.36,0,.42-5.55,2.63-10.99,2.54-16.62.21-.17-.23-.41-.39-.42-.42-.23-.48-.42-1.34-.42-1.89,1.15.3,3.57.51,4.84.63Z"/>
              <path class="cls-2" d="M108.63,128.4c-.53.67,1.28.43,1.37.42,1.35-.18,1.95-.91,3.05.21-.41.28-.47,1.13-1.37,1.47-1.66.64-7.16.2-8.42-1.05-.73-.72-.63-1.6.53-1.68.7-.05,1.39.61,1.79.63.93.04,2.14.07,3.05,0Z"/>
              <path class="cls-38" d="M116.63,125.04c-.97,1.36-6.32,3.23-8,3.37-.91.07-2.13.04-3.05,0-.4-.02-1.09-.68-1.79-.63-1.06-1.01-2.89-1.35-3.79-2.53,5.64,2.33,11.08,2.42,16.62-.21Z"/>
              <path class="cls-5" d="M117.26,124.83c.16.09.31.15.42.32-1.38,1.73-2.86,2.68-4.63,3.89-1.11-1.12-1.7-.39-3.05-.21-.08.01-1.9.25-1.37-.42,1.68-.14,7.02-2.01,8-3.37.04-.06-.04-.35,0-.42.2.19.55.17.63.21Z"/>
              <path class="cls-49" d="M117.26,124.83c-.08-.04-.43-.02-.63-.21.14-.24.33-.58.42-.84.16-.47.29-.99.42-1.47.34-.09,3.89-1.48,4-1.16l-4.21,3.68Z"/>
              <path class="cls-49" d="M99.16,122.93c0,.55.19,1.41.42,1.89-1.54-.77-3.32-1.93-4.21-3.37.62.3,3.2,1.32,3.79,1.47Z"/>
              <path class="cls-1" d="M117.47,122.3c-.13.48-.26,1-.42,1.47-1.08-.34-3.34,1.31-4-.42,1.42-.23,3.02-.68,4.42-1.05Z"/>
            </g>
          </g>
        </g>
        <path class="cls-23" d="M113.47,114.73c-1.04.24-2.26.26-2.95.42.2-1.03,2.52-1.57,2.95-.42Z"/>
      </g>
      <g>
        <path class="cls-44" d="M101.06,88.63c2.15.48,4.4,1.57,6.63,1.68,2.74.14,5.63-.92,8.31-1.47,8.43-1.75,13.59-3.22,22.52-1.68.82.14,1.72.42,2.53.63,2.93.77,3.63.94,2.31,4.63-.14.38.02.58-.42,1.05-.8.86-2.54,1-3.16,2.21-.48.94-.63,3.73-1.05,4.95-.25.71-.54,1.41-.84,2.1-4.91,11.44-20.31,8.05-24.83-1.58-.79-1.69-.99-4.85-2.31-5.79-1.08-.76-2.52-.84-3.79-.42-.28.09-.87.56-1.05.84-.61.96-.85,3.74-1.47,5.16-4.17,9.49-19.76,13.11-25.04,2-.98-2.06-1.67-6.06-2.53-7.47-.28-.46-3.03-2.18-3.37-2.21.01-.91-.42-2.07-.42-2.95,0-2.16.08-1.86,2.1-2.53.81-.27,1.92-.26,2.74-.42s1.68-.31,2.53-.42c8.65-1.16,12.44-.14,20.62,1.68Z"/>
        <g>
          <path class="cls-37" d="M119.57,89.26c1.35.47-.25.87-.42,1.16-.72,1.23-1.76,3.13-1.89,4.52-.39.73-.55,1.64-1.26,2.21.4.56.81-.03,1.05-.32-.04.24.21.2.21.21.04.81,2.92.76,4,.84,2.12.16,4.52.39,6.63,0,.65-.12,1.89-1.4,3.16-.84-.73-1.53.44-.52,1.05-.84.49-.26.35-1.34,2.53-.63-.96-.81-1.73-2.54.32-2.63l-.84-.63,1.26-.84-2.42.11c-.44-.78.61-.83.95-1.37.06-.59-.39-.02-.42-.11-.14-.41-.36-1.46-.74-1.68-.42-.25-1.45-.03-1.79-.42,6.86.07,7.97.9,7.36,8.31s-4.14,12.99-12.31,12.52c-11.34-.66-18.5-16.83-6.42-19.57Z"/>
          <path class="cls-16" d="M79.17,89.68c-.8,2.27.68,5.83,3.16,6.1.14.01.23-.21.63-.21.43.7-.69,1.03-.42,1.79.09.25,3.74,1.94,4.1,2,2.58.42,4.65-.66,7.05-1.05s4.68-.76,7.05-.84c.28-.16-1.21-2.44-1.37-2.74.78-.91-2.16-4.11-1.58-4.42l.84.63c.04-1.19-1.25-1.58-2.21-1.89,0,0-.45-.11,0-.21,14.84,3.46,5.39,21.04-8.52,19.78-7.98-.72-10.95-12.74-8.73-18.94Z"/>
          <path class="cls-4" d="M93.9,88.42l3.05,1.89c.46-.02-.45-1.13-.53-1.26.96.31,2.25.7,2.21,1.89l-.84-.63c-.58.31,2.36,3.51,1.58,4.42-3.86-7.09-6.3-5.61-12.94-4.63-1.56.23-2.8-1.11-1.68.63l-2-.63c-.43-1.02,1.44-1.76,1.89-2.31,3.15-.17,6.16.18,9.26.63Z"/>
          <path class="cls-50" d="M82.75,90.11c.18.43,1.29.97.63,1.58-.39.37-1.35-.24-1.79-.32l.95.95-1.68.42,2.53.84c-.82,1.02-1.2,1.26.21,1.47l-1.26.74c-2.47-.27-3.95-3.83-3.16-6.1.1-.27-.06-.97.32-1.26.23-.18,4.52-.6,5.16-.63-.46.55-2.33,1.29-1.89,2.31Z"/>
          <path class="cls-23" d="M130.94,88c.34.39,1.36.17,1.79.42.38.22.6,1.27.74,1.68l-1.79.63.84-1.05c-1.75.91-3.31-.45-5.05-.63-4.98-.52-7.97,1.68-10.21,5.89.13-1.4,1.17-3.3,1.89-4.52.17-.28,1.77-.69.42-1.16,1.72-.39,1.26.23,1.37.21.35-.07.99-.62,1.05-.63.53-.1.83.24,1.05.21.24-.04.33-.62.42-.63,2.42-.37,5.03-.45,7.47-.42Z"/>
          <path class="cls-46" d="M77.17,88.42c.29-.04,1.45-.06,1.58.11-.2.49-1.16,3.18-1.37,3.26-.89.34-2.93-3.02-.21-3.37Z"/>
          <path class="cls-27" d="M96.43,88.84c-.45.1,0,.2,0,.21.08.13.98,1.24.53,1.26l-3.05-1.89c1.05.15,1.43.17,2.53.42Z"/>
          <path class="cls-52" d="M133.46,90.11c.03.08.48-.48.42.11-.34.54-1.39.59-.95,1.37l2.42-.11-1.26.84.84.63c-2.04.09-1.28,1.82-.32,2.63-2.17-.71-2.03.37-2.53.63-.61.32-1.78-.69-1.05.84-1.27-.56-2.51.72-3.16.84-2.1.39-4.51.16-6.63,0v-.42c3.94.27,5.93.59,9.26-1.89.35-.26,1.92-1.23,1.89-1.58-.72-.56-1.3-1.57-2.1-2-2.17-1.98-7.89-1.66-9.89.63-2.24,1.37-2.06,2.65-3.37,4.21-.24.29-.65.88-1.05.32.71-.57.87-1.48,1.26-2.21,2.24-4.21,5.22-6.41,10.21-5.89,1.74.18,3.3,1.54,5.05.63l-.84,1.05,1.79-.63Z"/>
          <path class="cls-51" d="M121.68,93.47c-.21,5.37,6.79,4.85,6.73.21,0-.28-.3-1.15-.42-1.47,2.71-.49,1.33.5,1.37.63.2.67,1.15,1.77,1.16,2.74-3.33,2.48-5.32,2.17-9.26,1.89-1.32-.09-2.71-.04-4-.42,0-.01-.25.03-.21-.21,1.3-1.56,1.13-2.84,3.37-4.21.35-.21,1.44-1.02,1.79-.84.03.68-.49.83-.53,1.68Z"/>
          <path class="cls-45" d="M121.26,97.47v.42c-1.08-.08-3.96-.03-4-.84,1.29.38,2.68.33,4,.42Z"/>
          <path class="cls-50" d="M93.69,98.31c-2.39.4-4.47,1.47-7.05,1.05-.37-.06-4.01-1.75-4.1-2-.27-.76.85-1.08.42-1.79.54,0,.84-.27,1.37-.21.72.56-.26.23-.21.84l1.58.32-1.16.74c.76-.08,1.28-.5,2.1-.42.73.07,1.79,1.03,1.89,1.05,1.69.29,3.47.04,5.16.42Z"/>
          <path class="cls-33" d="M130.3,92c.8.43,1.39,1.44,2.1,2,.03.35-1.54,1.31-1.89,1.58-.01-.97-.95-2.06-1.16-2.74-.04-.13,1.34-1.12-1.37-.63-.05-.13-.67-.61-.53-.84,1.02-.07,1.95.16,2.84.63Z"/>
          <path class="cls-53" d="M128.41,93.68c.06,4.64-6.94,5.16-6.73-.21.24.06.3.29.63.21-.18,1.42.96,1.3,1.89,1.47,4.49.84,1.41-3.23,4.21-1.47Z"/>
          <g>
            <path class="cls-19" d="M130.3,92c-.89-.47-1.82-.71-2.84-.63-.14.23.48.72.53.84.12.33.42,1.19.42,1.47-2.8-1.76.28,2.31-4.21,1.47-.82-.39-.07-1.59-.74-1.89-.55-.25-.86.35-1.16.42-.34.08-.39-.15-.63-.21.03-.85.55-1,.53-1.68-.35-.18-1.44.63-1.79.84,2-2.29,7.72-2.61,9.89-.63Z"/>
            <path class="cls-28" d="M124.31,92.21c2.15-.55,2.91,1.49,1.47,2.95-1.88.19-1.24-1.43-2.21-2.42.02-.09.66-.51.74-.53Z"/>
            <path class="cls-40" d="M124.2,95.16c-.93-.17-2.07-.05-1.89-1.47.3-.07.61-.68,1.16-.42.67.31-.08,1.5.74,1.89Z"/>
          </g>
          <g>
            <path class="cls-52" d="M99.37,94.73c.16.3,1.64,2.57,1.37,2.74-2.37.08-4.72.46-7.05.84-1.69-.38-3.47-.13-5.16-.42-.11-.02-1.16-.98-1.89-1.05-.82-.08-1.35.34-2.1.42l1.16-.74-1.58-.32c-.05-.61.93-.28.21-.84-.53-.06-.83.21-1.37.21-.4,0-.49.23-.63.21l1.26-.74c-1.41-.22-1.03-.45-.21-1.47l-2.53-.84,1.68-.42-.95-.95c.44.07,1.39.68,1.79.32.66-.61-.45-1.15-.63-1.58l2,.63c-1.12-1.74.12-.4,1.68-.63,6.64-.98,9.08-2.46,12.94,4.63Z"/>
            <g>
              <path class="cls-51" d="M89.48,95.37c.89,3.25,6.29,3.05,6.1-1.68-.03-.74-.42-1.03-.53-1.68.33-.17,1.47.63,1.79.84.67.44,3.96,3.98,2.84,4.42-5.17.3-8.78,1.6-13.36-1.47.84-.84,1.57-2.39,1.47-3.58.42-.13,2.17-1.02,2.53-.53-.97,1.06-1.2,2.35-.84,3.68Z"/>
              <path class="cls-19" d="M96.85,92.84c-.32-.21-1.46-1.02-1.79-.84.1.65.5.94.53,1.68-2-.91-1.02,4.08-3.79,1.68.6-.83-.08-2.49-1.68-.42-.18.23-.38.31-.63.42-.36-1.33-.13-2.62.84-3.68-.36-.49-2.11.4-2.53.53-1.25.38-2.41.63-3.37,1.68.6-2.86,5.53-3.11,7.89-2.95.19.01,1.23.6,1.47.63.58.08.78-.43.84-.42,1.07.19,2.18.35,2.21,1.68Z"/>
              <path class="cls-6" d="M87.8,92.21c.1,1.19-.63,2.74-1.47,3.58-.73-.49-1.56-.81-2.1-1.58-.08-.36.21-.3.21-.32.95-1.06,2.11-1.3,3.37-1.68Z"/>
              <path class="cls-53" d="M95.58,93.68c.19,4.74-5.22,4.93-6.1,1.68.25-.11.45-.19.63-.42.42.67,1.07,1.28,1.68.42,2.77,2.39,1.79-2.59,3.79-1.68Z"/>
              <path class="cls-40" d="M91.8,95.37c-.62.86-1.26.25-1.68-.42,1.61-2.07,2.28-.41,1.68.42Z"/>
            </g>
          </g>
        </g>
      </g>
    </g>
  </g>
</svg>