<?xml version="1.0" encoding="UTF-8"?>
<svg id="Layer_1" xmlns="http://www.w3.org/2000/svg" version="1.1" viewBox="0 0 300 300">
  <!-- Generator: Adobe Illustrator 29.6.0, SVG Export Plug-In . SVG Version: 2.1.1 Build 207)  -->
  <defs>
    <style>
      .st0 {
        fill: #f26b81;
      }

      .st1 {
        fill: #f6aa7a;
      }

      .st2 {
        fill: #502619;
      }

      .st3 {
        fill: #282c39;
      }

      .st4 {
        fill: #c7c7c7;
      }

      .st5 {
        fill: #fec090;
      }

      .st6 {
        fill: #fffefe;
      }

      .st7 {
        fill: #171211;
      }

      .st8 {
        fill: #363d4d;
      }

      .st9 {
        fill: #f49460;
      }

      .st10 {
        fill: #711a12;
      }

      .st11 {
        fill: #7f5443;
      }

      .st12 {
        fill: #663627;
      }

      .st13 {
        fill: #2e140c;
      }
    </style>
  </defs>
  <g id="Generative_Object">
    <g>
      <path class="st2" d="M184.6,176.5h-.2c-1.4-1-2.7-1.5-4.2-2.2,6.3-6.6,10.5-14.3,11.4-23.5-.8.9-.5,2-.9,3.1-2.5,7.3-6.8,14.1-12.5,19.4-.2,0-.6.2-.6-.2,10.1-14.4,11.7-31.4,10.8-48.5s-.8-3.3-.8-4.5c0-4,3.1-12.1-2.4-14.1.4-1.3.4-3.1,1-4.4.5.6,1,1.4,1.5,2l4.1-2.8c2.3,15.2,2.1,30.8.6,46.1,2.4-15.2,2.5-31.8.2-47.1.6,0,1.6-1.7,1.7-.4l.3-1c2.6,14.5,7.6,48.2,3,61.4-2.4,6.9-7.6,12.2-13.1,16.8Z"/>
      <path class="st2" d="M109.7,107.8c-.5,1.6-.1,6.2.2,8-.6,11.9-.6,24.1,1.2,35.9,1.2,7.9,3.2,16.3,8.2,22.6-1.2.6-2.3,1.4-3.6,1.8-16-8.5-15.7-28.6-15.5-44.5s.8-17.3,1.8-25.4c2.6.6,5.3,4,7.6,1.6Z"/>
      <path class="st11" d="M192.7,99.8c2.3,15.3,2.2,31.9-.2,47.1,1.5-15.3,1.7-30.9-.6-46.1-1-7-2.8-13-6.2-19.2-6.8-12.2-20.1-18.2-32.9-21.7,15.5-4.5,32.1,7.9,36.2,22.7,1.4,5,3,12,3.8,17.2Z"/>
      <g>
        <path class="st12" d="M194.7,98.4l-.3,1c-.2-1.3-1.1.3-1.7.4-.8-5.2-2.5-12.2-3.8-17.2-4-14.8-20.7-27.2-36.2-22.7,12.9,3.5,26.2,9.5,32.9,21.7s5.2,12.2,6.2,19.2l-4.1,2.8c-.5-.6-1-1.4-1.5-2s-1.7-2.6-2.8-2.6c-.1-.3-.1-.3-.2-.4-1.9-3.5-20.7-9.7-25.2-11.7-8.4-3.6-16.9-8.1-22.1-15.9-.8,11.4-8.8,20.4-16.6,27.9-1.3.8-2.6,2.6-3.8,3.6s-2,1.9-3.2,3-2.1.8-2.6,2.2c-2.3,2.4-5-1-7.6-1.6,1.8-14.2,7.1-43.5,21.8-49.8s8.5-2.1,12.5-.6c9.6-14.3,32.4-5.7,42.1,4.3s13.7,24.2,16.3,38.3Z"/>
        <path class="st11" d="M127.1,66c.8,0,2.2-.2,2.9.3-10.3,4.8-16.2,15.8-19.4,26.2-2.2-9.3,6.6-25.5,16.5-26.5Z"/>
        <path class="st11" d="M141.9,64.6c9.6,3,19.9,5.8,28.7,10.6,4.9,2.7,10.4,6.5,12.8,11.8-8.4-9.6-22.2-12.9-33.6-18.2s-5.3-2.8-8-3.8l.2-.4Z"/>
        <path class="st11" d="M138.5,68.7c10.5,10.4,26.4,12.8,38.1,21.8-9.7-5-20.7-8-30-13.6s-7.7-4.6-8-8.2Z"/>
        <path class="st11" d="M132.3,71.7c.2.8-.6,2.6-.9,3.5-2.3,6.1-5.8,12.1-10.3,16.8l11.2-20.3Z"/>
      </g>
      <path class="st13" d="M186.2,101.6c-.6,1.3-.6,3.2-1,4.4s-1.2,2.8-1.8,3.7c0-2.8.8-8.2,0-10.7,1.1,0,2.2,1.8,2.8,2.6Z"/>
      <path class="st13" d="M177.6,173.1h-.2c-.7-2.1-6.7-4.9-8.2-6.4-3.8-3.8-3.1-14.3-3.2-19.4.3-.2.4-.5.6-.7,4.3-5.3,8.8-7,12.3-14.4.5-1,1.9-6.2,2.2-6.4s2.2,0,3.3-.7c1.8-1,2.1-3.5,3.3-5,0,1.2.7,3.2.8,4.5.9,17.2-.8,34.1-10.8,48.5Z"/>
      <path class="st13" d="M180.2,174.3c-.6-.3-1.4-.8-2-1,5.7-5.2,10-12.1,12.5-19.4.4-1.1.1-2.2.9-3.1-.9,9.2-5.1,16.9-11.4,23.5Z"/>
      <path class="st13" d="M119.1,126.3c2.8,8.7,7.6,15.2,14.9,20.8,0,.2,0,.5,0,.7.6,4.1-.3,16.1-3.4,19.1s-7.2,3.9-8,6.2c-1,.3-2.3.8-3.2,1.2-5-6.3-7-14.7-8.2-22.6-1.8-11.8-1.8-24-1.2-35.9.8,4.2,4.1,11.2,9.2,10.4Z"/>
    </g>
    <g>
      <g>
        <path class="st8" d="M115.7,176.3l-2.6,1.5,1.2,18.3,4.6,2.6c-.4.6-3.5,2.5-3.6,2.8-.3,1,7.5,16.2,8.6,18.3,7,12.9,15.7,25,26,35.5,15.1-15.2,26-33.9,34.7-53.3l-3.6-3.2c1.2-.9,4.2-1.7,4.6-3.2s1-9.8,1-12.1-.5-3.6,0-5.4c-.7-.6-1.5-1-2.2-1.5h.2c8.9,5.5,34.4,8,39.4,17.4s2.9,15.4,3.2,20.5c1,14.4.8,29,.9,43.5H71.4c.3-14.2,0-28.5.9-42.7.8-11.6-.3-22.4,11.6-27.8s22-6,31.8-11Z"/>
        <path class="st3" d="M91.3,218.1c1.1,6,2.6,12,5.5,17.4,9.8,17.9,32.5,20.1,50.9,18.2,1.9,2.3,2.5,2.1,4.4,0,26.2,2.6,49.4-2.9,55.5-31.4s0-4.1,1-3.8c-1.7,13.3-4.1,26.6-8.7,39.3h-100.2c-3.9-11.1-6.3-22.6-7.9-34.3-.1-1-.3-2.1-.4-3.4s-.7-1.1-.1-1.9Z"/>
      </g>
      <path class="st8" d="M129.2,189.8c.7,1.7,1.1,3.6,1.6,5.4,5.6,19.2,12,38.1,18.7,56.9,0,0,.2,0,.2.2s-.4,1.4.4,1.6c-.8.7-.5-.4-.6-.5-2.5-3.4-5.3-6.6-7.8-10-9.3-12.9-17.7-26.7-24-41.3,2.6-.8,11-4.5,12.4-6.5s0-1.1-.2-1.8c-.2-1.1-.3-2.4-.9-3.3-.3.2-.8.3-1.1.4.2-.5,1.1-.8,1.4-1Z"/>
      <g>
        <path class="st3" d="M122.5,173.1l-3.2,23.6c.3.3.5,0,.7-.1,2.3-1.2,5.3-4.8,7.7-5.8s.8-.2,1.1-.4c.6,1,.7,2.2.9,3.3s.9.7.2,1.8c-1.3,2.1-9.8,5.7-12.4,6.5,6.3,14.5,14.7,28.4,24,41.3,2.5,3.4,5.3,6.7,7.8,10s-.2,1.2.6.5c6.6-19.6,13.2-39.2,19.1-59.1.5-1.7.8-3.4,1.6-5,3.3,2.3,6.3,4.8,9.6,6.9l-3-23.6h.2c0,.4.4.1.6.2.6.2,1.4.7,2,1,1.5.7,2.8,1.2,4.2,2.2s1.5.9,2.2,1.5c-.5,1.8,0,3.6,0,5.4s-.5,10.2-1,12.1-3.4,2.3-4.6,3.2l3.6,3.2c-8.7,19.5-19.6,38.2-34.7,53.3-10.3-10.4-19-22.6-26-35.5-1.1-2-8.9-17.3-8.6-18.3s3.3-2.2,3.6-2.8l-4.6-2.6-1.2-18.3,2.6-1.5v-.2c1.3-.4,2.4-1.2,3.6-1.8s2.2-.9,3.2-1.2Z"/>
        <path class="st8" d="M169.3,195.4l13,6.9c-8.2,17.9-18.6,35-31.2,50.1l18.3-57.1Z"/>
      </g>
    </g>
    <g>
      <g>
        <path class="st6" d="M177.4,173.1l3,23.6c-3.4-2.1-6.4-4.7-9.6-6.9-.9-.7-4-3.3-4.9-3.4-1.8-.2-5,3.6-6.1,4.9-3,3.4-5.3,7.4-8.4,10.6l13-8.5c1.9-.7,3.2,1,4.9,1.4-5.9,19.8-12.5,39.5-19.1,59.1-.8-.2-.4-1.5-.4-1.6.4-.1,1.2-2.3,1.2-2.5,1.9-14.1-1.3-33-.2-47.5,5.6-12.1,11-24.5,18.5-35.6,1.6,1.6,7.6,4.3,8.2,6.4Z"/>
        <path class="st6" d="M132.4,168.9c2.1,3.2,3.7,6.7,5.6,9.9l11.5,23.4s-.5.3-.8.3l.2,47c.5.8.4,1.7.6,2.5-6.7-18.8-13.1-37.7-18.7-56.9.5-.5,2.8-1.9,3.3-2,2.7-.4,10.4,6.5,13.1,8s.9.7.9.1c-3.3-3.1-8.6-12.8-12.6-14.6s-4.6,1.7-6.3,3-1.2.5-1.4,1c-2.5,1-5.4,4.6-7.7,5.8s-.4.4-.7.1l3.2-23.6c.8-2.3,6.4-4.7,8-6.2.8.2,1.4,1.4,1.8,2Z"/>
        <path class="st4" d="M170.8,189.8c-.8,1.6-1.1,3.3-1.6,5-1.7-.4-3.1-2.1-4.9-1.4l-13,8.5c3.2-3.2,5.4-7.3,8.4-10.6s4.4-5.2,6.1-4.9,4,2.8,4.9,3.4Z"/>
        <path class="st4" d="M150.7,202.2c-1.1,14.5,2.1,33.5.2,47.5s-.8,2.4-1.2,2.5c0-.3-.2-.2-.2-.2-.2-.8,0-1.8-.6-2.5l-.2-47c.3,0,.8-.3.8-.3.3,0,.8,0,1.2,0Z"/>
        <path class="st4" d="M130.8,195.2c-.5-1.8-.9-3.7-1.6-5.4,1.7-1.3,4.2-4,6.3-3,3.9,1.8,9.3,11.4,12.6,14.6,0,.6-.7,0-.9-.1-2.7-1.5-10.4-8.4-13.1-8s-2.8,1.5-3.3,2Z"/>
      </g>
      <g>
        <path class="st1" d="M183.2,98.6c.4,2.3-3-.6-3.7-1-10.9-5.4-28.3-8.9-36.8-16.1s-3.3-3.8-5.2-5.4c-1.7,9.1-8.2,17.3-16.3,21.7l.3.3c-.2.8-2.1.8-2.2.9,7.8-7.6,15.7-16.5,16.6-27.9,5.2,7.8,13.7,12.2,22.1,15.9s23.3,8.1,25.2,11.7Z"/>
        <path class="st13" d="M115.5,102.6c-.4,2.9-.1,5.4.2,8.2-.2,0-.4-.4-.4-.4l-3-4.8c1.2-1.1,1.9-1.9,3.2-3Z"/>
        <g>
          <path class="st5" d="M166.5,146.6c-.2.2-.3.5-.6.7.1,5-.6,15.6,3.2,19.4-7.5,11.1-12.9,23.4-18.5,35.6-.4,0-.9,0-1.2,0l-11.5-23.4c-2-3.3-3.6-6.8-5.6-9.9,9.9-1.7,20.2-5.9,28-12.3s5-4.5,5.1-4.9.4-4.6-.6-3.9c.6-.5,1-1,1.5-1.6v.4Z"/>
          <path class="st9" d="M164.9,147.8c1-.7.7,3.7.6,3.9-.1.4-4.4,4.4-5.1,4.9-7.8,6.4-18.1,10.5-28,12.3-.4-.6-1-1.8-1.8-2,3.1-3,4.1-15,3.4-19.1.5-.1.6-.2,1.1,0,3,1.4,6,4.5,9.8,5.8,7.2,2.4,14.5-1,20-5.8Z"/>
        </g>
        <g>
          <path class="st5" d="M112.3,105.6l3,4.8c-.9-.8-2.6-3-3.8-1.5-2.1,2.5,1.5,16.1,6.8,14.4.3,1,.5,2.1.8,3-5.2.7-8.5-6.3-9.2-10.4s-.7-6.4-.2-8,2-1.6,2.6-2.2Z"/>
          <path class="st9" d="M115.3,110.4c0,0,.2.4.4.4.5,4.1,1.5,8.5,2.6,12.5-5.4,1.7-9-11.8-6.8-14.4s2.9.7,3.8,1.5Z"/>
        </g>
        <g>
          <path class="st5" d="M183.2,98.6c0,.1,0,0,.2.4.8,2.6,0,7.9,0,10.7.6-.9,1.5-2.7,1.8-3.7,5.5,1.9,2.3,10.1,2.4,14.1-1.2,1.5-1.5,4-3.3,5s-3,.5-3.3.7-1.7,5.4-2.2,6.4c-3.4,7.4-8,9.1-12.3,14.4v-.4c-.6.6-1,1.1-1.6,1.6-5.5,4.8-12.8,8.3-20,5.8-3.9-1.3-6.8-4.5-9.8-5.8s-.6-.1-1.1,0c0-.2,0-.5,0-.7-7.2-5.6-12-12.1-14.9-20.8s-.5-2-.8-3c-1.1-4-2.1-8.3-2.6-12.5s-.6-5.4-.2-8.2c1.2-1,2.5-2.8,3.8-3.6s2-.1,2.2-.9l-.3-.3c8-4.4,14.6-12.6,16.3-21.7,2,1.6,3.3,3.8,5.2,5.4,8.5,7.1,25.9,10.6,36.8,16.1.7.4,4.2,3.3,3.7,1Z"/>
          <g>
            <path class="st12" d="M167.6,96c4.5-.3,9.1.4,12.4,3.7-6.5-3.5-13.8-.3-20.6.5-.3-3.6,5.6-4.1,8.2-4.2Z"/>
            <path class="st12" d="M128.1,96c1.9-.2,9.1.3,10.8,1s2.1,2,2.1,3.1c-6.7-.4-14-4.1-20.4-.5,1.6-1.9,5-3.3,7.4-3.6Z"/>
            <path class="st9" d="M185.1,109.2c1.9-.3,1.4,7.2,1.1,8.5-.4,2.2-1.7,5.5-4.3,5.7-.5-.1,1-5.8,1.1-6.7.5-2.7-.3-5.9,2.1-7.5Z"/>
            <path class="st9" d="M145.8,125.1l2.6.8,6.1-.5c-1.7,3.2-7.8,3.3-8.7-.3Z"/>
            <g>
              <path class="st0" d="M138.2,132.5c1.1.9,2.4,1.6,3.6,2.4,5.9,3.9,9.6,4.4,15.9.6s.3.2.3.2c.8-.5,3.5-2.7,4.1-3.4-4.9,12.4-18.7,12.8-23.9.2Z"/>
              <path class="st0" d="M162.1,131.5c-.8.7-1.7.5-2.6,1.2-6.3,1.5-12.8,1.6-19.1-.2s-1.6-.6-2.2-1c1.1-.4,22.5-.4,23.9,0Z"/>
              <path class="st10" d="M162.1,132.3c-.6.7-3.3,2.9-4.1,3.4s-.2-.3-.3-.2c.2-.5,1.5-2.6,1.8-2.8.9-.7,1.8-.5,2.6-1.2.2,0,.5,0,.6.1-.3.2-.4.5-.6.7Z"/>
              <path class="st10" d="M138.2,131.5c.6.4,1.6.8,2.2,1l1.4,2.4c-1.2-.8-2.5-1.5-3.6-2.4-.1-.3-.4-.6-.6-.9,0-.2.4,0,.6-.1Z"/>
              <path class="st6" d="M159.5,132.7c-.3.2-1.6,2.3-1.8,2.8-6.2,3.8-10,3.3-15.9-.6l-1.4-2.4c6.2,1.8,12.8,1.7,19.1.2Z"/>
            </g>
            <g>
              <path class="st7" d="M175.2,108.2c-.8-1.7-2.8-2.6-4.5-2.8,0,0,.2.7.3.8-2.2-2-4.5-.6-6.7.4s.1-.6-.5-.2c-1.1.7-2.4,2.3-3,3.4-.5-1.5,2.8-5.2,4.1-5.8,5.2-2.5,8.4,1.1,13.3,1.4-.6,1.1-1.5,1.9-2.4,2.8s-.5,0-.5,0Z"/>
              <path class="st6" d="M175.2,108.2c-2.4,2.4-2.9,4.1-6.8,4,3.2-1.1,3.9-3.1,2.6-6s-.4-.8-.3-.8c1.8.2,3.7,1.1,4.5,2.8Z"/>
              <path class="st6" d="M165.9,111.8c.2.5-.5.3-.7.2-1-.3-4.2-1.3-4.5-2.2.6-1.1,1.9-2.7,3-3.4-.4,2.2,0,4.4,2.2,5.4Z"/>
              <g>
                <path class="st2" d="M171,106.2c1.2,3,.5,5-2.6,6-1.1,0-1.3,0-2.4-.4-2.2-1-2.7-3.3-2.2-5.4.6-.4.4.3.5.2,2.2-1,4.5-2.5,6.7-.4Z"/>
                <path class="st6" d="M169.1,106.2c1.7-.4,1.7,2,.6,2.2s-1.8-1.9-.6-2.2Z"/>
              </g>
            </g>
            <g>
              <path class="st7" d="M139.8,109.8c-.6-1.2-1.6-2.4-2.8-3s-.6-.2-1.2-.2-.6-.5-1.2.2c0-.7,1-.7.7-1l-4.8-.4-1.5,1.8c0-.6.6-1.3,1-1.7-1.7,0-3.8,1-4.6,2.7,0,0-.4,0-.5,0-.9-.8-1.9-1.7-2.4-2.8,4-.2,6.2-2.8,10.6-2.2s7.2,4,6.7,6.6Z"/>
              <path class="st6" d="M129,107.2c-.4,2.4,1,4.4,3.2,5-3.8,0-4.5-1.8-6.8-4,.8-1.7,2.9-2.8,4.6-2.7-.4.4-.9,1.1-1,1.7Z"/>
              <path class="st6" d="M139.8,109.8c0,.2.3.3.1.4-.2.2-3.8,1.9-4.3,1.2,1.5-1.2,1.5-2.9,1.4-4.6,1.2.6,2.2,1.8,2.8,3Z"/>
              <g>
                <path class="st2" d="M134.6,106.8c.1,1.6,1.7,1.2,1.2-.2.6,0,.4-.2,1.2.2,0,1.7.1,3.5-1.4,4.6s-2,.8-3.4.8c-2.2-.6-3.6-2.6-3.2-5l1.5-1.8,4.8.4c.3.3-.8.3-.7,1Z"/>
                <path class="st6" d="M130.9,106.2c1.3,0,1.4,2,.4,2.2-1.4.3-1.8-2.1-.4-2.2Z"/>
                <path class="st6" d="M135.8,106.6c.5,1.4-1.1,1.8-1.2.2.6-.7.9-.2,1.2-.2Z"/>
              </g>
            </g>
          </g>
        </g>
      </g>
    </g>
  </g>
</svg>