<?xml version="1.0" encoding="UTF-8"?>
<svg id="Layer_1" data-name="Layer 1" xmlns="http://www.w3.org/2000/svg" viewBox="0 0 216.48 284.55">
  <defs>
    <style>
      .cls-1 {
        fill: #fdba92;
      }

      .cls-2 {
        fill: #1e506e;
      }

      .cls-3 {
        fill: #ad6645;
      }

      .cls-4 {
        fill: #b66752;
      }

      .cls-5 {
        fill: #f9efea;
      }

      .cls-6 {
        fill: #0b1019;
      }

      .cls-7 {
        fill: #ee7768;
      }

      .cls-8 {
        fill: #dda980;
      }

      .cls-9 {
        fill: #69301e;
      }

      .cls-10 {
        fill: #eb8a68;
      }

      .cls-11 {
        fill: #4688ad;
      }

      .cls-12 {
        fill: #fffefe;
      }

      .cls-13 {
        fill: #dbccc6;
      }

      .cls-14 {
        fill: #4c6b92;
      }

      .cls-15 {
        fill: #c37a51;
      }

      .cls-16 {
        fill: #1e415b;
      }

      .cls-17 {
        fill: #386f8e;
      }

      .cls-18 {
        fill: #2d6085;
      }

      .cls-19 {
        fill: #7f241a;
      }

      .cls-20 {
        fill: #110d0f;
      }

      .cls-21 {
        fill: #281817;
      }

      .cls-22 {
        fill: #bb4c40;
      }

      .cls-23 {
        fill: #f5a681;
      }

      .cls-24 {
        fill: #975638;
      }

      .cls-25 {
        fill: #d19367;
      }

      .cls-26 {
        fill: #87472c;
      }
    </style>
  </defs>
  <g id="Generative_Object" data-name="Generative Object">
    <g>
      <g>
        <path class="cls-17" d="M62.06,168.82c-.63.06-1.02.99-.91,1.49.25,1.15,8.81,8.48,10.29,9.72-2.74,1.55-5.64,2.97-8.23,4.69.35.22.19.5.23.8-1.84-.13-.33,4.24,0,5.6,3.5,14.2,12.58,27.85,20.35,40.01-10.74.6-21.7-.55-31.55-4.92-.04-.08.03-.26-.23-.23-2.07-6.19-3.6-11.77-3.2-18.41.1-1.64,1.01-4.15,1.03-5.6,0-.29.33-.66-.34-.34-5.75,19.44-7.86,39.78-10.98,59.79-6.16.09-12.36.03-18.52-.11,3.21-20.46,5.52-41.08,8.92-61.51,1.6-9.62,4.28-35.89,12.92-40.81,5.08-2.9,21.54-5.98,28.24-8l-8.46,17.49.46.34Z"/>
        <path class="cls-2" d="M51.99,225.99l-5.03,35.1c-.27.59-7.32.33-8.46.34,3.11-20.01,5.22-40.35,10.98-59.79.67-.32.35.06.34.34-.02,1.45-.93,3.96-1.03,5.6-.4,6.63,1.14,12.22,3.2,18.41Z"/>
        <path class="cls-2" d="M62.06,168.82l12.12,9.72c.07.45-2.37,1.27-2.74,1.49-1.48-1.24-10.04-8.56-10.29-9.72-.11-.49.28-1.42.91-1.49Z"/>
      </g>
      <g>
        <path class="cls-17" d="M178.21,261.43c-3.25-20.14-4.7-41.01-11.32-60.36.63,4.47,1.19,9.06.8,13.6-.12,1.42-1.24,7.63-1.94,8.57-.57.76-6.62,4.11-7.77,4.57-6.46,2.6-14.26,2.98-21.15,2.17,7.52-10.55,15.05-22.45,18.75-34.98.32-1.08,2.26-8.72,2.06-9.15-.08-.16-.88-.42-1.14-.34.04-.3-.12-.58.23-.8-.13-.42-6.56-3.91-7.55-4.46,1.36-1.18,10.17-8.96,10.29-9.95.09-.77-1.33-1.39-1.37-1.49-.07-.15.24-.31.23-.34-2.51-5.19-6.61-11.47-8.69-16.46-.27-.65-.36-.57.23-1.03,6.22,1.76,22.87,5.18,27.55,7.77,6.28,3.49,7.93,15.69,9.03,22.06,4.59,26.6,6.42,53.74,10.06,80.48-6.09.14-12.2.2-18.29.11Z"/>
        <path class="cls-11" d="M149.86,150.99c-.59.46-.5.38-.23,1.03,2.08,4.99,6.18,11.27,8.69,16.46.01.03-.3.2-.23.34l-12.12,9.72c0,.51,2.74,1.46,3.2,1.71.98.55,7.42,4.04,7.55,4.46-.35.22-.19.5-.23.8-1.38,11.13-14.8,34.63-21.49,44.13-7.02,9.97-15.28,19.02-23.09,28.35-.35.02-.41.08-.69.23,3.4-9.78,7.73-18.94,10.98-29.04,6.24-19.43,9.47-37.06,11.43-57.39.15-1.59.6-3.31.69-5.03,1.86.57,16.86,7.29,17.38,6.52l-.69-1.94-7.09-21.84c.22-.71,4.96,1.21,5.94,1.49Z"/>
        <path class="cls-18" d="M134.99,165.17l16.01,6.17.69,1.94c-.52.77-15.52-5.95-17.38-6.52.03-.53-.02-1.07,0-1.6h.69Z"/>
        <path class="cls-2" d="M149.17,180.26c-.46-.26-3.2-1.21-3.2-1.71l12.12-9.72c.04.09,1.46.72,1.37,1.49-.12.99-8.93,8.77-10.29,9.95Z"/>
      </g>
      <g>
        <path class="cls-2" d="M178.21,261.43c-1.1-.02-7.92.15-8.23-.11l-5.14-33.73-6.63,33.84c-15.89.02-31.79-.02-47.67,0-.32-1.44.3-2.08.69-3.2.28-.15.34-.21.69-.23,2.27-.14,13.82-13.89,16.01-16.58,2.91-3.58,5.56-7.38,8.46-10.98l-1.37-.8c6.69-9.5,20.11-32.99,21.49-44.13.26-.07,1.06.18,1.14.34.21.42-1.74,8.07-2.06,9.15-3.7,12.54-11.23,24.44-18.75,34.98,6.89.81,14.69.43,21.15-2.17,1.16-.47,7.21-3.81,7.77-4.57.71-.94,1.82-7.16,1.94-8.57.39-4.54-.17-9.14-.8-13.6,6.62,19.35,8.07,40.22,11.32,60.36Z"/>
        <path class="cls-2" d="M63.43,185.52c1.41,11.38,15.42,35.9,22.41,45.5-.99.06-1.46-.37-1.37.8.15,2.03,19.25,22.98,22.06,25.49.75.67,1.63.44,1.94.8.1.11.64,2.72.46,2.97l-47.9.11-.8-2.29c-1.06-8.48-4.42-25.19-8-32.7,9.85,4.37,20.82,5.51,31.55,4.92-7.77-12.16-16.85-25.81-20.35-40.01-.33-1.36-1.84-5.73,0-5.6Z"/>
        <path class="cls-2" d="M85.83,231.02c6.71,9.22,14.58,17.8,22.41,26.07.6,1.45,1.79,2.49,1.37,4.34-16.42,0-32.85,0-49.27,0-.26-.18-.06-2.05-.11-2.52l.8,2.29,47.9-.11c.18-.26-.36-2.86-.46-2.97-.31-.36-1.2-.13-1.94-.8-2.81-2.52-21.91-23.46-22.06-25.49-.09-1.17.38-.74,1.37-.8Z"/>
        <path class="cls-16" d="M111.9,258c7.81-9.33,16.07-18.39,23.09-28.35l1.37.8c-2.9,3.59-5.55,7.39-8.46,10.98-2.18,2.69-13.74,16.43-16.01,16.58Z"/>
      </g>
      <g>
        <path class="cls-11" d="M76,149.16l-7.32,21.38c-.22.47.23.76.23.8-.08.64-.27,1.32-.46,1.94.5.75,15.26-5.44,16.92-6.29.15,2.13.47,4.28.69,6.4,1.94,18.99,5.59,37.87,11.43,56.02,3.04,9.45,6.94,18.52,10.75,27.67-7.83-8.27-15.7-16.84-22.41-26.07s-21-34.12-22.41-45.5c-.04-.3.12-.58-.23-.8,2.59-1.71,5.49-3.14,8.23-4.69.38-.21,2.81-1.03,2.74-1.49l-12.12-9.72-.46-.34,8.46-17.49c2-.6,3.89-1.5,5.94-1.83Z"/>
        <path class="cls-13" d="M122.19,229.19c-3.24,10.1-7.58,19.26-10.98,29.04-.39,1.12-1,1.76-.69,3.2-.3,0-.61,0-.91,0,.42-1.85-.77-2.9-1.37-4.34-3.8-9.15-7.71-18.22-10.75-27.67l24.69-.23Z"/>
        <g>
          <path class="cls-5" d="M91.09,141.16c-1.96,5.65.99,13.72,2.97,19.32,3.79,10.69,9.81,20.9,15.32,30.75-8.48-8.03-15.64-17.43-24.01-25.61l-.57-.46-15.89,6.17s-.44-.33-.23-.8l7.32-21.38c2.96-1.81,6.35-2.91,9.37-4.57.03-.02.43-.44.46-.46,1.19-.67,1.84-1.06,2.97-1.83.43-.29,1.87-.79,2.29-1.14Z"/>
          <path class="cls-5" d="M131.56,142.99c.21.12.36.17.46.23,1.43.81,1.72,2,3.43,1.37,1.48,2.35,5.56,2.99,8,4.23l7.09,21.49-15.55-5.14h-.69l-24.69,26.29c3.97-7.19,8.28-14.34,11.66-21.84,2.76-6.1,8.67-20.61,7.77-26.98-.04-.32-.56-1.11-.69-1.49.89.65,2.22,1.27,3.2,1.83Z"/>
          <path class="cls-5" d="M122.19,229.19l-24.69.23c-5.84-18.15-9.49-37.02-11.43-56.02l22.06,18.52h2.29l23.21-20.12c-1.96,20.33-5.19,37.96-11.43,57.39Z"/>
          <path class="cls-13" d="M134.31,166.77c-.09,1.72-.53,3.44-.69,5.03l-23.21,20.12h-2.29l-22.06-18.52c-.22-2.13-.54-4.27-.69-6.4-.03-.45.02-.92,0-1.37,8.37,8.18,15.53,17.58,24.01,25.61l.23.23,24.69-26.29c-.02.53.03,1.07,0,1.6Z"/>
        </g>
        <path class="cls-18" d="M85.38,165.62c.02.45-.03.92,0,1.37-1.66.84-16.42,7.04-16.92,6.29.19-.62.38-1.31.46-1.94l15.89-6.17.57.46Z"/>
      </g>
    </g>
    <g>
      <path class="cls-15" d="M104.81,31.86c-4.64,1.62-7.74,4.92-11.2,8.23-9.92,9.48-16.25,20.95-25.15,31.21-3.98,4.59-8.56,9.76-13.72,12.92.28-6.75,5.08-9.31,8.69-13.6.49-.58.19-.99.23-1.03,1.99-2.39,8.84-9.08,9.6-11.66,8.34-8.59,14.66-19.9,26.18-24.69,1.43-.59,4.02-1.42,5.37-1.37Z"/>
      <path class="cls-15" d="M137.97,40.55c.22,4.25-2.98,9.57-6.63,11.78-.15.63,4.82,7.9,5.49,9.03.88,1.49,1.59,3.1,2.52,4.57l-2.52,1.83c-2.26-4.44-5.24-10.86-8.23-14.63-.69-.87-1.52-2.18-2.52-2.74,4.09-3.74,5.08-8.71,4.8-14.06-.05-1-.89-1.85,0-2.86,2.94,1.94,6.84,2.29,7.09,7.09Z"/>
      <path class="cls-3" d="M73.26,57.93c-.76,2.58-7.61,9.27-9.6,11.66-2.87-3.82.11-8.12,1.83-11.66.44,5.18,5.3,1.88,7.55-.11l.34-1.49c.33.58.04,1.07-.11,1.6Z"/>
      <path class="cls-15" d="M152.37,74.39c.57,3.24,1.24,6.5,1.83,9.83-.53.07-.7-.43-.91-.8-4.02-7.02-8.58-14.15-11.32-21.61,3.32,4.17,5.64,9.75,10.4,12.58Z"/>
      <path class="cls-3" d="M130.88,33.47c-.89,1.01-.05,1.86,0,2.86.28,5.35-.71,10.32-4.8,14.06-.21-.12-.65-.45-.69-.46,1.34-1.3,2.31-2.69,2.97-4.46.2-.53-.24-.54-.23-.57.31-.98,1-1.69,1.14-3.09.5-4.76-.59-9.31-2.97-13.38,1.88,1.56,2.9,3.92,4.57,5.03Z"/>
      <path class="cls-15" d="M79.66,84.68c-.41.28-.23,1.15-.23,1.6l-1.37-.34c-1.05,3.68-1.43,7.36-1.83,11.09,0,.03-.44.17-.46.34-1.45,15.21,2.7,33.49,13.03,44.93-1.14.77-1.78,1.16-2.97,1.83-19.47-14.34-21.56-43.45-8.23-62.65.86,1.3,1.29,1.57,2.06,3.2Z"/>
      <path class="cls-15" d="M117.16,39.87c3.32.56,7.49,2.77,8.57,6.17l2.4-1.14s.43.04.23.57c-.66,1.77-1.63,3.16-2.97,4.46-.12-.03-.32.03-.46,0-3.23-12.98-23.73-5.17-27.67,3.66-1.13.92-11.88,16.06-12.8,17.83-.84,1.63-.35.74-.23,1.14.11.35-.17.43-.23.69-6.25.82-4.29,2.12-7.77,5.26-4.26,3.84-10.98,4.52-16.46,4.8-.15-.1-2.02-.31-1.03-.91,22.96-3.03,29.24-28.67,46.53-40.24,3.89-1.82,7.52-3.02,11.89-2.29Z"/>
      <g>
        <path class="cls-25" d="M126.31,28.44c2.39,4.06,3.47,8.61,2.97,13.38-.15,1.4-.84,2.11-1.14,3.09l-2.4,1.14c-1.08-3.4-5.25-5.62-8.57-6.17,3.44-.3,4.21,1.6,6.4-2.17-10.48-5.56-24.38,2.55-31.78,10.29,0,.18,2.45,2.41,2.63,2.4.4-.03,4.84-4.69,5.94-5.49,1.55-1.12,3.19-1.94,4.92-2.74-17.29,11.57-23.57,37.21-46.53,40.24-.99.6.88.81,1.03.91,3.86,2.56.65,4.44.11,7.77,1.01-1.58,2.49-5.22,4.12-6.17,1.72-1.01,5.41-1.04,7.55-1.83,1.78-.66,3.28-2.06,4.92-2.97.26.53.81.87,1.14,1.37-13.33,19.2-11.24,48.31,8.23,62.65-.03.02-.43.44-.46.46-19.11-5.4-30.94-25.61-28.35-45.16.18-1.39,2.47-7.85,2.29-8.23-.05-.09-1.67-.57-1.94-.8-1.94-1.63-2.73-3.68-2.63-6.17,5.16-3.16,9.74-8.33,13.72-12.92,8.9-10.26,15.23-21.73,25.15-31.21l1.49,1.83c7.06-7.25,18.05-12.9,28.12-8.92,1.21-.16-1.87-1.76-2.06-1.83-4.52-1.75-11.81-.9-16.35.69-1.36-.05-3.95.78-5.37,1.37-11.52,4.8-17.84,16.11-26.18,24.69.16-.53.44-1.02.11-1.6l-.34,1.49c-2.24,2-7.11,5.3-7.55.11,9.14-18.86,19.97-36.35,44.01-34.75,4.96.33,13,2.1,16.81,5.26Z"/>
        <path class="cls-8" d="M106.98,26.61c2.12-.05,5.21.15,6.63,1.83l-.23.46c-15.22-.63-27.73,8.94-36.47,20.46,1.72-4-.95-7.94,2.4-11.09,5.1-4.8,20.69-11.5,27.67-11.66Z"/>
      </g>
      <path class="cls-8" d="M117.16,39.87c-4.37-.73-8,.47-11.89,2.29-1.73.8-3.37,1.63-4.92,2.74-1.1.8-5.54,5.46-5.94,5.49-.18.01-2.63-2.22-2.63-2.4,7.4-7.74,21.3-15.85,31.78-10.29-2.2,3.77-2.97,1.87-6.4,2.17Z"/>
      <path class="cls-8" d="M93.61,40.1c3.46-3.31,6.56-6.61,11.2-8.23s11.83-2.44,16.35-.69c.19.07,3.27,1.67,2.06,1.83-10.07-3.98-21.07,1.67-28.12,8.92l-1.49-1.83Z"/>
      <path class="cls-24" d="M76.23,78.51c.35.47-.03,1.08.23,1.6-1.64.92-3.13,2.31-4.92,2.97-2.14.79-5.82.82-7.55,1.83-1.63.95-3.11,4.59-4.12,6.17.54-3.34,3.75-5.22-.11-7.77,5.49-.28,12.2-.96,16.46-4.8Z"/>
      <path class="cls-15" d="M132.02,143.22c-.1-.06-.24-.11-.46-.23,13.24-13.37,18.76-34.08,14.4-52.36.39-3.2-1.76-6.64-2.06-9.83,2.72,1.65,7.27,18.97,7.55,22.52,1.06,13.92-7.4,32.48-19.44,39.9Z"/>
      <g>
        <path class="cls-25" d="M152.37,74.39c-4.76-2.83-7.08-8.4-10.4-12.58,2.74,7.46,7.29,14.58,11.32,21.61.21.37.38.87.91.8,2.29,12.95,5.2,19.98,1.37,33.73-2.34,8.43-11.58,23.5-20.12,26.64-1.71.63-2-.56-3.43-1.37,12.04-7.42,20.5-25.98,19.44-39.9-.27-3.55-4.82-20.87-7.55-22.52-.07-.04-.48-.03-.69-.23.06-1.9-2.08-5.97-3.89-6.63.34-.46.06-.37,0-.69-.26-1.42-1.81-4.1-2.52-5.49l2.52-1.83c.47.74,3.62,5.98,4,5.94.2-.19.34-.26.34-.57,0-.4-2.79-6.11-3.2-7.32-1.16-3.42-2.07-6.96-2.74-10.52l-.91,7.89c-.67-1.13-5.64-8.4-5.49-9.03,3.65-2.2,6.85-7.52,6.63-11.78,8.97,4.65,12.55,12.59,13.72,22.29.44,3.66.07,8.07.69,11.55Z"/>
        <path class="cls-8" d="M140.82,46.73c2.72-.54,9.6,13.22,7.55,16.23-6.49.56-4.86-4.9-6.06-9.26-.6-2.16-3.42-5.12-1.49-6.97Z"/>
      </g>
      <path class="cls-23" d="M143.22,80.57c.21.2.62.19.69.23.3,3.19,2.45,6.63,2.06,9.83-.29,2.37-2.36,6.58-4.69,7.55-.71.29-2.36.11-2.63.34-.23.19-1.23,4.82-1.6,5.72-.63,1.51-1.47,2.83-2.29,4.23,1.83-4.61,3.84-9.2,4.57-13.95,4.62-.45,5.74-9.49,1.37-11.43.47-.71,1.62-2.42,2.52-2.52Z"/>
      <path class="cls-8" d="M139.34,65.93c-.93-1.48-1.63-3.08-2.52-4.57l.91-7.89c.67,3.55,1.58,7.1,2.74,10.52.41,1.2,3.2,6.92,3.2,7.32,0,.32-.14.38-.34.57-.38.04-3.54-5.2-4-5.94Z"/>
      <path class="cls-9" d="M80.58,98.4c1.87,8.67,7.58,15.62,13.95,21.49.13,2.83-.07,5.64-.23,8.46-.22,3.9-.09,10.2-3.2,12.8-.42.35-1.86.85-2.29,1.14-10.33-11.44-14.49-29.72-13.03-44.93.02-.18.45-.31.46-.34,1.25,1.31,2.61,1.52,4.34,1.37Z"/>
      <path class="cls-9" d="M131.56,142.99c-.98-.56-2.31-1.18-3.2-1.83-.48-.35-.71-.1-1.14-.57-1.39-1.54-1.9-8.86-2.06-11.09-.23-3.13-.12-6.26-.46-9.37,3.58-3.28,7.63-7.47,10.06-11.66.81-1.4,1.66-2.72,2.29-4.23.37-.9,1.37-5.53,1.6-5.72.27-.23,1.92-.05,2.63-.34,2.32-.97,4.4-5.18,4.69-7.55,4.36,18.28-1.17,38.99-14.4,52.36Z"/>
      <path class="cls-10" d="M79.43,86.28c-.02,3.71.37,8.51,1.14,12.12-1.74.15-3.1-.06-4.34-1.37.4-3.73.78-7.41,1.83-11.09l1.37.34Z"/>
      <path class="cls-10" d="M139.34,94.51c.49-3.18.53-6.4.46-9.6.32-.67.49-1.18.91-1.83,4.36,1.94,3.25,10.98-1.37,11.43Z"/>
      <path class="cls-9" d="M124.93,49.93c-5.5-1.04-23.2.02-27.67,3.66,3.93-8.83,24.44-16.64,27.67-3.66Z"/>
    </g>
    <g>
      <path class="cls-1" d="M124.93,49.93c.14.03.34-.03.46,0,.04.01.48.34.69.46,1,.56,1.83,1.88,2.52,2.74l8.23,19.44c-3.53-4.69-9.12-6.41-14.75-4.57-.92.3-4.52,2.42-3.54,3.77.41.57,8.85-2.24,10.63-2.17,2.86.11,5.47,2.38,7.66,3.2.63.24,1.47.83,2.52.46.06.31.34.23,0,.69-4.34-1.59-16.09-.56-20.92.23-2.64.43-6.59,2.19-9.15,2.06-3.07-.16-8.59-2.31-12.35-2.74s-9.14-.73-12.92-.23c.05-.26.33-.34.23-.69,3.57-1.95,5.68-3.39,9.95-2.74,1.16.18,7.21,2.66,7.66,1.71,1.12-2.34-4.96-4.1-6.52-4.23-4.57-.38-7.58,1.12-10.86,4.12.92-1.78,11.67-16.91,12.8-17.83,4.46-3.63,22.16-4.7,27.67-3.66Z"/>
      <path class="cls-23" d="M136.82,67.76c.71,1.39,2.26,4.07,2.52,5.49-1.05.37-1.88-.22-2.52-.46v-.23l-8.23-19.44c2.99,3.77,5.97,10.2,8.23,14.63Z"/>
      <path class="cls-1" d="M125.16,129.5c.16,2.23.67,9.55,2.06,11.09.43.47.66.22,1.14.57.13.37.64,1.17.69,1.49.89,6.37-5.02,20.88-7.77,26.98-3.39,7.5-7.69,14.65-11.66,21.84l-.23-.23c-5.5-9.86-11.53-20.07-15.32-30.75-1.98-5.6-4.94-13.67-2.97-19.32,3.11-2.6,2.98-8.91,3.2-12.8,9.08,10.87,21.01,11.4,30.87,1.14Z"/>
      <path class="cls-26" d="M84.23,72.56c-.12-.4-.61.48.23-1.14,3.28-3,6.29-4.5,10.86-4.12,1.56.13,7.64,1.89,6.52,4.23-.45.94-6.5-1.54-7.66-1.71-4.27-.64-6.37.8-9.95,2.74Z"/>
      <path class="cls-26" d="M136.82,72.56v.23c-2.19-.82-4.8-3.09-7.66-3.2-1.78-.07-10.22,2.74-10.63,2.17-.97-1.35,2.62-3.47,3.54-3.77,5.63-1.84,11.21-.12,14.75,4.57Z"/>
      <path class="cls-10" d="M124.7,120.12c.34,3.12.23,6.24.46,9.37-9.86,10.25-21.79,9.72-30.87-1.14.16-2.82.35-5.63.23-8.46,12.49,11.52,17.7,11.66,30.18.23Z"/>
      <g>
        <path class="cls-1" d="M139.8,84.91c.07,3.21.04,6.42-.46,9.6-.74,4.75-2.74,9.34-4.57,13.95-2.43,4.19-6.48,8.38-10.06,11.66-12.49,11.44-17.69,11.3-30.18-.23-6.37-5.88-12.08-12.82-13.95-21.49-.78-3.61-1.16-8.41-1.14-12.12,0-.45-.18-1.32.23-1.6,1.18,2.49,1.59,5.91,3.77,7.77,3.67,3.13,14.62,2.91,18.52.23,4.18-2.87,3.85-12.88,8-12.8,3.57.06,4.08,8.45,6.06,11.09,3.31,4.41,14.62,4.81,19.09,2.17,2.98-1.76,3.33-5.38,4.69-8.23Z"/>
        <path class="cls-10" d="M114.64,99.32c.11.39.58.53.69.91-1.5,2.65-9.2,2.73-10.75,0,.11-.17.63-.89.69-.91,1.55-.57,2.78,2.47,6.06,1.6,1.09-.29,1.95-1.87,3.32-1.6Z"/>
        <path class="cls-23" d="M105.27,99.32c-.05.02-.58.75-.69.91-1.55-2.73,1.14-5.54,2.06-8.12.64-.39.48.64.46.91-.17,1.75-2.2,4.24-1.83,6.29Z"/>
        <path class="cls-23" d="M115.33,100.23c-.11-.39-.57-.53-.69-.91-.16-.56-.04-1.78-.23-2.4-.21-.72-1.89-3.74-1.26-4.23,1.55,1.8,3.48,5.24,2.17,7.55Z"/>
        <g>
          <path class="cls-7" d="M114.42,115.78c-.57.22-2.04.63-2.86.69-1.84.13-3.57-.25-5.37-.23-4.96-1.8-7.98-7.04-10.06-11.55l-.57.8c-.77-3.41.97-.92,2.74-.69,4.69.63,18.47.4,23.32-.23,2.46-.32,1.7-1.13,1.83-1.14.23-.01,1.12,1.21,1.03,1.71-.08.44-.64,0-.91.46-2.06,3.44-5.27,8.7-9.15,10.17Z"/>
          <g>
            <path class="cls-4" d="M106.18,116.24c1.8-.02,3.54.36,5.37.23.82-.06,2.29-.47,2.86-.69-1.53,2.47-5.9,1.3-8.23.46Z"/>
            <path class="cls-12" d="M119.22,106.63c-.62.51-1.05,1.74-1.6,2.29-3.37,3.32-12.45,3.64-15.78,0-.21-.23-.62-1.61-1.14-2.06,1.88.05,3.7.78,5.6.91,4.38.3,8.64-.45,12.92-1.14Z"/>
            <path class="cls-22" d="M117.62,108.92c-.08.68.02.76.69.69-4.65,4.14-12.66,4.3-17.15,0l.69-.69c3.32,3.64,12.41,3.32,15.78,0Z"/>
            <path class="cls-19" d="M118.3,109.61c-.67.08-.76,0-.69-.69.55-.54.98-1.78,1.6-2.29.87-.71,2.58-1.26,3.66-1.71-1.6,1.5-2.93,3.22-4.57,4.69Z"/>
            <path class="cls-19" d="M100.7,106.86c.52.45.94,1.83,1.14,2.06l-.69.69c-1.5-1.43-2.81-3.06-4.34-4.46,1.09.45,3.05.99,3.89,1.71Z"/>
          </g>
        </g>
      </g>
      <g>
        <path class="cls-20" d="M139.34,73.94c1.8.66,3.94,4.74,3.89,6.63-.89.09-2.05,1.8-2.52,2.52-.43.65-.59,1.16-.91,1.83-1.36,2.86-1.7,6.47-4.69,8.23-4.48,2.64-15.78,2.24-19.09-2.17-1.98-2.64-2.49-11.03-6.06-11.09-4.15-.07-3.82,9.94-8,12.8-3.9,2.68-14.85,2.91-18.52-.23-2.18-1.86-2.6-5.28-3.77-7.77-.77-1.63-1.2-1.9-2.06-3.2-.33-.5-.88-.84-1.14-1.37s.12-1.13-.23-1.6c3.48-3.14,1.52-4.43,7.77-5.26,3.77-.5,9.1-.21,12.92.23s9.28,2.58,12.35,2.74c2.56.13,6.51-1.63,9.15-2.06,4.83-.78,16.58-1.82,20.92-.23Z"/>
        <g>
          <path class="cls-1" d="M81.03,81.94l7.43,2.97h3.09c.28.05.62-.03.91,0,1.08.36,2.31.25,3.43.23s5.44-.38,5.94-1.37c.77-1.52-3.13-6.47-4.69-7.32-2.16-1.17-5.1-1.45-7.43-.69-2.02-1.21-4.83.47-7.09-.46,3.36-1.19,20.59-.42,22.41,3.09,1.49,2.87-1.08,11.52-4,13.38-3.13,1.99-12.41,2.32-15.55.46s-3.96-6.92-4.46-10.29Z"/>
          <path class="cls-1" d="M137.51,75.77h-7.77c-4.41-1.2-8.85.96-10.98,4.92-.53.98-1.29,2.39-.69,3.09.9,1.04,4.75,1.33,6.17,1.37,1.31.04,2.36.01,3.66-.23.07-.01.16.02.23,0-.23.37-.88.37.11.46,3.88.33,6.83-3.12,10.4-3.43-.33,2.98-1.5,7.99-4,9.83-3.02,2.23-11.29,2.05-14.63.69-4.39-1.79-8.31-12.98-3.66-15.55,3.12-1.72,18.3-2.96,21.15-1.14Z"/>
          <path class="cls-10" d="M137.51,75.77c2.07,1.32,1.38,4.06,1.14,6.17-3.57.31-6.52,3.76-10.4,3.43-1-.09-.35-.09-.11-.46,1.57-.34,3.41-1.14,4.12-2.74l3.2-2.4c-1.79-.89-3.75-3.47-5.72-4h7.77Z"/>
          <path class="cls-10" d="M82.63,75.31c2.25.93,5.07-.76,7.09.46-2.07.68-3.85,2.97-5.72,4-.14.41,2.57,2.62,3.2,2.63.53,1.02,3.22,2.32,4.34,2.52h-3.09l-7.43-2.97c-.4-2.66-1.8-5.43,1.6-6.63Z"/>
          <path class="cls-21" d="M101.84,83.77c-1.01-1.5-2.05-2.92-3.43-4.12-2.45-2.13-3.51-2.75-6.86-1.83-1.97.54-5.54,2.26-4.34,4.57-.63,0-3.34-2.22-3.2-2.63,1.86-1.03,3.65-3.32,5.72-4,2.33-.76,5.27-.49,7.43.69,1.56.85,5.46,5.8,4.69,7.32Z"/>
          <path class="cls-12" d="M91.55,77.82c-.94,1.33-1.56,2.38-1.37,4.12.13,1.18,1.13,2.59,2.29,2.97-.29-.03-.63.05-.91,0-1.12-.2-3.82-1.49-4.34-2.52-1.19-2.31,2.38-4.03,4.34-4.57Z"/>
          <path class="cls-11" d="M92.24,80.8c-2.01,3.51,4.52,4,3.89,1.6-.03-.12.02-.31,0-.46.83-.23,1.39-1.24,2.29-.46-.12,1.69-1.09,2.87-2.52,3.66-1.12.02-2.35.13-3.43-.23-1.15-.38-2.16-1.79-2.29-2.97.22-1.53,1.1-.39,1.26-.46.41-.17.1-.51.8-.69Z"/>
          <path class="cls-12" d="M101.84,83.77c-.5.99-4.81,1.35-5.94,1.37,1.43-.79,2.39-1.97,2.52-3.66.05-.68-.5-1.36,0-1.83,1.38,1.19,2.42,2.62,3.43,4.12Z"/>
          <path class="cls-21" d="M129.73,75.77c1.96.53,3.92,3.11,5.72,4l-3.2,2.4c.15-.35.53-1.16.46-1.49-.14-.65-3.54-2.6-4.34-2.86-2.39-.76-3.36-.5-5.49.69-.34.19-.43.44-.46.46-1.76,1.19-3.53,2.84-4.34,4.8-.61-.7.16-2.1.69-3.09,2.12-3.96,6.56-6.12,10.98-4.92Z"/>
          <path class="cls-11" d="M127.91,84.91c-1.3.24-2.35.27-3.66.23-1.46-.8-2.36-1.41-2.52-3.2l2.74-.46c-.42.47-.89,1.4-.46,1.94,2.65,1.6,5.11-.52,3.66-3.32.51-.17,1.14-.59,1.83-.69,1.06,2.31.47,3.96-1.6,5.49Z"/>
          <path class="cls-12" d="M122.42,78.97c-.64.99-.79,1.79-.69,2.97.16,1.79,1.06,2.4,2.52,3.2-1.42-.04-5.27-.33-6.17-1.37.82-1.97,2.59-3.62,4.34-4.8Z"/>
          <path class="cls-12" d="M132.25,82.17c-.71,1.6-2.55,2.4-4.12,2.74-.07.02-.15-.01-.23,0,2.07-1.53,2.66-3.18,1.6-5.49-.34-.74-.81-.94-1.14-1.6.8.25,4.2,2.21,4.34,2.86.07.33-.3,1.14-.46,1.49Z"/>
          <path class="cls-14" d="M98.41,79.65c-.5.47.05,1.14,0,1.83-.9-.78-1.46.23-2.29.46-.17.05-.3-.34-.69-.23-.33-2.21-1.92-1.23-3.2-.91-.7.17-.39.51-.8.69-.15.07-1.03-1.07-1.26.46-.19-1.74.43-2.79,1.37-4.12,3.35-.92,4.41-.3,6.86,1.83Z"/>
          <path class="cls-20" d="M95.44,81.71c-.15.05-.39-.03-.57,0-1.47,1.27.45,2.29,1.26.69.64,2.4-5.89,1.91-3.89-1.6,1.28-.32,2.87-1.29,3.2.91Z"/>
          <path class="cls-12" d="M95.44,81.71c.39-.12.52.27.69.23.02.15-.03.33,0,.46-.81,1.6-2.73.58-1.26-.69.18-.03.42.05.57,0Z"/>
          <path class="cls-18" d="M127.45,80.11c-.79.28-2.43.78-2.97,1.37l-2.74.46c-.1-1.18.05-1.98.69-2.97.03-.02.12-.27.46-.46,1.79,0,3.53-.18,4.57,1.6Z"/>
          <path class="cls-14" d="M128.36,77.82c.34.66.8.86,1.14,1.6-.69.1-1.32.51-1.83.69-.07.02-.16-.02-.23,0-1.04-1.78-2.78-1.6-4.57-1.6,2.13-1.19,3.09-1.44,5.49-.69Z"/>
          <g>
            <path class="cls-6" d="M127.68,80.11c1.45,2.8-1.01,4.92-3.66,3.32-.44-.55.04-1.48.46-1.94.54-.6,2.18-1.09,2.97-1.37.07-.02.16.02.23,0Z"/>
            <path class="cls-12" d="M124.82,81.71c1.02-.29,1.26,1.33.46,1.6-1.37.46-1.09-1.42-.46-1.6Z"/>
          </g>
        </g>
      </g>
    </g>
  </g>
</svg>