<?xml version="1.0" encoding="UTF-8"?>
<svg id="Layer_1" xmlns="http://www.w3.org/2000/svg" version="1.1" viewBox="0 0 300 300">
  <!-- Generator: Adobe Illustrator 29.6.0, SVG Export Plug-In . SVG Version: 2.1.1 Build 207)  -->
  <defs>
    <style>
      .st0 {
        fill: #520a0c;
      }

      .st1 {
        fill: #15414e;
      }

      .st2 {
        fill: #d27d4b;
      }

      .st3 {
        fill: #2c171a;
      }

      .st4 {
        fill: #1e211f;
      }

      .st5 {
        fill: #f58982;
      }

      .st6 {
        fill: #fefeff;
      }

      .st7 {
        fill: #1b1714;
      }

      .st8 {
        fill: #be5a38;
      }

      .st9 {
        fill: #e6ddd0;
      }

      .st10 {
        fill: #a14f26;
      }

      .st11 {
        fill: #ed4141;
      }

      .st12 {
        fill: #fef7e9;
      }

      .st13 {
        fill: #382b22;
      }

      .st14 {
        fill: #af5d30;
      }

      .st15 {
        fill: #235f6f;
      }

      .st16 {
        fill: #8e4220;
      }
    </style>
  </defs>
  <g id="Generative_Object">
    <path class="st3" d="M172.9,166.5c8.3-7.7,11.8-12.9,13.3-24.4,3.3,1.1,5.8-3.5,6.9-5.9,1.7-3.9,4.9-16.4-2.9-15.1-.2-1.3.6-4.1-.7-4.8s-2.2-.3-2.8-.4c-2.3-14.7-11-27.8-26.1-31.2-23.6-5.4-44.8,6.3-47.8,31-.7.2-3.3.6-3.5,1.1s.2,3.1,0,4.1c-7.3-1.5-4.5,11.1-3.1,14.7s3.6,7.7,6.9,6.6c1.6,11.4,4.7,16,12.9,23.7-1.4,3.9-3.5.5-4.1.4s-3,1.6-3.6-.7.9-2.1.5-3.2c-2.4,2.2-5.6,3-5.2-1.5-1.7,1.3-4.3,1.3-5.5-.5s-.3-1.7-.5-1.8-1,.6-1.2.6c-3.1.2-5.1-1.7-4.3-4.9-.2-.7-1.9.3-2.2.3-2.7,0-3.8-2.3-2.4-4.5-1.1.2-2.4.3-3.1-.8-1-1.6,0-3.2,0-3.3,0-.3-4-1.2-4.8-4.2s.5-4.2.4-4.4c-.1-.3-1.8-.4-2.4-.7-2.7-1.4-2.6-4.6-1.4-7-3.4-.3-5.6-3.3-4.6-6.7s2.1-2.1,2.1-2.3c0-.3-3.1-1.4-2.7-5s.9-1.8.8-2.1c0-.9-1.9-1.9-1.5-4.8s2.3-3.1,2.3-3.3c0-.3-3.1-2-2.7-5.6s3.4-4.1,3.5-4.4-.8-1.9-.8-2.5c0-1.2.6-3.6,1.2-4.6s1.9-1.5,1.9-1.7-1.3-1.3-1.5-2.3c-.4-2.6,1-5.3,3.6-6.1s2.1.3,2.4-.3-.2-1.5,0-2.1c.3-.9,2.1-2.1,2.1-2.3.1-.8-.9-2.1.6-3.7s4.7-.6,4.8-1c-1.7-2.5-1.2-5,1.6-6.4s1,.1,1.2,0,1.2-3.4,2.9-4.4,3.8-.5,4-.6,0-2.7,1.5-4,3.4-.3,4.4-.6,1.6-3,3.7-3.5,3.7.1,4.2,0,1.6-2.8,3.5-3.3,4.8.5,5,.4,1.6-2.5,3.3-3.1c2.5-.9,4.4.5,5.2.4s1.9-2.5,5-2.1,3.3,2.1,3.5,2.1,2-2,3.1-2.3c3.2-.9,4.2.8,5.6.8s2.3-1.2,4.4-.8,3.5,2.9,3.7,2.9,2-1.4,2.9-1.5c3-.3,5.2,1.8,5.8,4.6,2.5-2.2,5.4-1.8,7.6.5s.7,1.7.9,1.8,2.3-.6,3.3-.4c2.2.4,3.2,3,3.3,5,4.6-1.8,7.8,2.3,6.5,6.7,3.8-1.6,7-.2,7.2,4.1s-.5,1.2-.4,1.2c.2.3,3.9-.1,5.6,2.1s.7,5.2.8,5.4,2.5.5,3.3,2.3-.3,4-.2,4.2,3.5,1,4.2,3.5-.5,4-.4,4.2,1.3.3,1.6.5c2.3,1.6,3.4,4,2.4,6.8s-1.9,2.3-1.9,2.5c0,.3,2.6,2.3,2.3,5.6s-1.1,2.4-1,2.5c0,.2,2.2,1.7,2.5,2.9,1.3,4.4-2.1,5.3-2.3,6.2s1.8,3.2.6,6.2-3.5,2.9-3.5,3.1,2.6,2,1.7,5.2-3.5,2.4-3.7,2.7.6,1.9.4,2.7c-.2,1.2-1.3,1.6-1.9,2.5s-.2,1.3-.4,1.7c-.8,1.3-2.2,1.3-3.5,1,2.9,4.5-4,5.4-4.2,5.8-.2.7.6,2.4-.6,4.4s-4.9,2.4-5.1,2.6c-.4.5.4,3.1-1.7,4.2s-3.7-.6-4.8.2.3,2.7-1.2,4-3.8-.4-4.2-.4c-.6,0-.6,3.2-2.7,3.5s-3.2-.1-4,.4,0,1.1-.1,1.4c-1.5,3-3.6.8-5.8.1Z"/>
    <g>
      <path class="st1" d="M126.9,190.1c-.5.4-1.3,1.2-1.7,1.5-2.1,1.3-4.8,2.1-6.9,3.3-.4,0-1.1.5-1.7.4,0-.5-.1-1.2-.2-1.7l10.4-3.5Z"/>
      <g>
        <path class="st15" d="M213.1,258.6l-1.6-32.3-3.4,8.2c-5.9,9.9-15.4,17.2-25.6,22.3l14.8-30-9.4-5.4c1.5-1.1,10.5-6.8,10.9-7.8s0-1-.2-1c-.7-.3-10.5,8.5-12.8,8.6l10,6.2-15.4,30.6h-10.8c4.6-16.2,8.5-32.8,11.5-49.5.8-4.4,1.2-8.9,1.9-13.3s.1-1.3.2-1.9c.1-.9.6-2.3.7-3.3,3.2.8,5.1,5.3,7.1,6.7,5.9,4,17.1,6.7,23.7,10.8,7.8,4.9,9.1,11.9,10.7,20.3,1.9,10.1,2.8,20.5,4.4,30.6-5.5.2-11.1,0-16.7.1Z"/>
        <path class="st15" d="M116.5,193.6c0,.5.1,1.1.2,1.7.9,5.4,1.5,10.8,2.5,16.2,2.9,15.9,6.5,31.6,10.8,47.1-3.5,0-7.1,0-10.6,0l-15.6-31.1,10.2-6.2-13-8.6v1l10.7,7.8-9.4,5.4,15,30c-.3.6-9.1-5-9.9-5.5-9.2-6.5-17.2-15.4-20.2-26.5l-1.8,33.7c-5.2,0-10.4.1-15.6-.1,1.5-9.8,2.4-19.7,4.2-29.4,1.7-9.6,2.8-16.9,12-22.2,6.2-3.6,17.4-6.5,22.7-10.2,2-1.4,3.8-5.7,6.9-6.7.3,0,.8,3,.9,3.5Z"/>
        <path class="st1" d="M119.4,258.6c-11.3,0-22.6,0-34,0l1.8-33.7c3,11.1,11,20,20.2,26.5.8.5,9.6,6.1,9.9,5.5l-15-30,9.4-5.4-10.7-7.8v-1l13,8.6-10.2,6.2,15.6,31.1Z"/>
        <path class="st1" d="M213.1,258.6c-14.5,0-29-.2-43.5-.2v-.2h10.8c0-.1,15.4-30.7,15.4-30.7l-10-6.2c2.3-.2,12.1-8.9,12.8-8.6s.4.7.2,1c-.5,1-9.4,6.7-10.9,7.8l9.4,5.4-14.8,30c10.2-5.1,19.7-12.3,25.6-22.3l3.4-8.2,1.6,32.3Z"/>
        <path class="st1" d="M183.1,193.4c0,.5-.1,1.2-.2,1.9-1.1-.4-2.3-.8-3.3-1.2s-3.9-1.8-5-2.5-1.2-1.3-1.7-1.7c3.4,1.1,6.8,2.4,10.2,3.5Z"/>
      </g>
      <g>
        <path class="st2" d="M168.1,181.3c.4,1.4,1.1,3,1.7,4.3s2.3,2.9,2.1,4.1c-7.3,16.5-30.2,18.4-41.2,4.6,13.3-1.6,25-6.9,36.9-12.7.2-.1.4-.3.6-.2Z"/>
        <path class="st10" d="M167.5,181.5c-11.8,5.8-23.6,11.1-36.9,12.7-.6-.7-1-1.4-1.5-2.1-2.3-3.3-.6-3.4.8-6s1.6-3,2.2-4.8c11.6,4.9,25,5.1,34.6-4,.3,1.6.8,2.6.7,4.2Z"/>
        <path class="st16" d="M166.5,171.9c.3,3.1.7,6.4,1.7,9.4-.3,0-.4.1-.6.2,0-1.6-.4-2.6-.7-4.2-9.6,9-23,8.8-34.6,4-.5,1.8-1.3,3.2-2.2,4.8,2-4.4,2.7-9.2,3.1-14,12.5,9.4,20.9,9.1,33.3-.2Z"/>
        <path class="st14" d="M186.7,115.9c-.4-.1-1-.3-1.5-.4-2.8-9.3-6.5-16.8-15.1-21.9-20.8-12.3-51-3.4-55.5,21.9-.6.1-1.4.1-1.9.2,3-24.7,24.2-36.4,47.8-31s23.8,16.6,26.1,31.2Z"/>
        <path class="st10" d="M186.3,142.2c.4-3.3.3-6.6.8-9.9l-.2-9.9c.2-.2,3-1.2,3.3-1.2,7.8-1.3,4.6,11.2,2.9,15.1s-3.6,7.1-6.9,5.9Z"/>
        <path class="st10" d="M109.2,120.9s0,.5.3.6c1,.3,1.9.1,2.8.8-.7,1.2-.4,3.2-.4,4.7,0,4.9.3,10.3,1,15.1-3.3,1.1-5.9-4.1-6.9-6.6-1.3-3.6-4.2-16.1,3.1-14.7Z"/>
        <path class="st10" d="M152.1,124c.9,1.1,1.2,2.5,1.9,3.7-.8.4-.9-1-1.6-1.5-2.4-1.7-4.8-1.3-6.6,1,0-1.2.6-2.2,1.2-3.1,1.7-.9,3.2-.7,5-.2Z"/>
        <g>
          <path class="st2" d="M145.8,127.4c1.8-2.3,4.1-2.8,6.6-1s.7,1.8,1.6,1.5c3,6.2,4.9,11.5,12.8,12.7s16.2-.9,18.6-10.1.4-5.3.8-7.3.4-.5.6-.7l.2,9.9c-.5,3.3-.4,6.6-.8,9.9-1.6,11.5-5,16.7-13.3,24.4s-4.7,4.1-6.5,5.4c-12.4,9.4-20.8,9.6-33.3.2-2.2-1.6-5.3-4.4-7.3-6.2-8.2-7.7-11.3-12.3-12.9-23.7s-.9-10.2-1-15.1-.3-3.5.4-4.7c.6.5.7.6.8,1.4.9,4.1.3,7.1,2.7,11.2,5.1,8.5,20.7,7.3,26.2-.4s2.3-5.3,3.7-7.2Z"/>
          <path class="st14" d="M171.4,141.7c1.1-.2,4.2-.1,5.4,0,11.9,1.3,1.1,11.6-7.7,8.7s-2.5-8.1,2.3-8.7Z"/>
          <path class="st8" d="M122.6,141.7c3.3-.3,8.3-.1,9.9,3.4s-1.4,5.3-4.3,5.7c-8.6,1.3-17.8-8.1-5.6-9.2Z"/>
          <path class="st16" d="M155.2,147.6c-2.6,2.1-8.4,2.2-11,0s-1.7-1.7-1.1-2.1c4.9,1.4,8.4,1.4,13.3,0,.1.7-.7,1.7-1.1,2.1Z"/>
          <path class="st14" d="M155.2,147.6c.4-.4,1.3-1.4,1.1-2.1-4.9,1.4-8.4,1.4-13.3,0-.6.4.8,1.8,1.1,2.1-2.9.2-3.7-2-2-4.2.1,2.5.5,1.2,1.9,1.5s3,.8,4.2.8c3.1.2,5.5-.9,8.5-.8l.2-1.5c1.7,2.1,1.1,4.3-1.8,4.2Z"/>
          <g>
            <path class="st11" d="M165.3,151.3c1.4.1,3.3,1.8,2.2,3.2s-.3-1-1.1-.9c-3.3,3-4.3,7.3-7.9,10.2-6.6,5.5-14.5,4-19.9-2.4s-5.5-9.1-6.2-7.7v1.4c-1.6-1.3-.7-3.8,1.2-3.4l-.8,1.2c4.9.6,9.9.3,14.9.3s2.5,0,3.7,0c2.7,0,12.6.5,14.4,0s-.3-1.3-.4-1.9Z"/>
            <path class="st6" d="M161.9,154.9c-1.2,1-1.4,2.4-1.9,3.1-1.8,2.6-8.1,4.2-11.1,4s-8.1-2.1-9.3-4-.7-2.2-1.9-3.1c8,2,16.2,1.8,24.2,0Z"/>
            <path class="st5" d="M148,162.4c1.1-.2,6.5-.4,6.4,1.4-.9,2-4.3,2.7-6.1,2.2s-2.5-3.1-.2-3.5Z"/>
            <path class="st0" d="M137.7,154.9c1.2.9,1.5,2.5,1.9,3.1-2.3-.3-4.2-2.7-5.8-4.1,1-.2,3.2.4,4,.9Z"/>
            <path class="st0" d="M160,158c.5-.7.7-2.2,1.9-3.1s2.3-1.2,3.3-.7c-1.7,1.1-3.1,3.5-5.2,3.9Z"/>
          </g>
        </g>
        <g>
          <path class="st9" d="M169.6,258.2v.2c-13.2,0-26.4.2-39.6.2-4.4-15.5-8-31.2-10.8-47.1,1.5,1.7,2.9,3.3,4.6,4.8s.1.1.2.2c3,14.7,8.4,38,27.8,36.5,16.4-1.3,21.4-23.7,24.1-36.7.1-.2.3-.5.4-.6,2-2.3,3.3-4.5,4.8-7.1-2.9,16.7-6.8,33.3-11.5,49.6Z"/>
          <path class="st12" d="M129.2,192.1c.5.7.9,1.4,1.5,2.1,11.1,13.8,34,11.9,41.2-4.6.5-.1.7.1,1,.2.4.3,1.3,1.4,1.7,1.7-2.9,6-7.6,10.8-13.5,13.7-6.8,2.1-13.7,2.7-20.6.4s-10.6-6.2-13.5-11-.9-2.3-1.7-3.1c.4-.3,1.1-1.1,1.7-1.5s.2-.4.5-.6c.4,1.2,1.2,2,1.8,2.7Z"/>
          <path class="st10" d="M182.9,195.3c-.7,4.4-1.1,8.9-1.9,13.3-1.5,2.6-2.8,4.8-4.8,7.1l3.3-21.7c1.1.5,2.2.8,3.3,1.2Z"/>
          <path class="st10" d="M120.4,195.1l3.3,21.2c-1.6-1.5-3.1-3.1-4.6-4.8-1-5.4-1.6-10.8-2.5-16.2.5,0,1.2-.4,1.7-.4.8,0,1.6.2,2.1.2Z"/>
          <path class="st12" d="M124,216.5c14.2,12.6,38.5,14.6,51.9-.2-2.7,13-7.7,35.3-24.1,36.7-19.4,1.6-24.8-21.8-27.8-36.5Z"/>
          <path class="st10" d="M125.2,191.5c.8.9,1.1,2.2,1.7,3.1-2.1,0-4.3.3-6.5.4s-1.3-.3-2.1-.2c2.1-1.3,4.8-2,6.9-3.3Z"/>
          <path class="st14" d="M161,205.3c-5.4,2.6-11.2,3.5-17.2,2.1-1.1-.3-2.8-.6-3.4-1.7,6.9,2.2,13.8,1.7,20.6-.4Z"/>
          <g>
            <path class="st2" d="M179.6,194l-3.3,21.7c-.1.2-.3.5-.4.6-13.4,14.8-37.7,12.8-51.9.2s-.1-.2-.2-.2l-3.3-21.2c2.1,0,4.3-.4,6.5-.4,2.9,4.8,8.2,9.3,13.5,11,.6,1,2.3,1.4,3.4,1.7,6,1.4,11.8.6,17.2-2.1,6-2.9,10.7-7.7,13.5-13.7,1.1.7,3.7,1.9,5,2.5Z"/>
            <path class="st6" d="M147.8,209c1.3-.4,5.2.8,6.8.7-1.6,1.7-5.1,5.3-7.1,2.3s-1-2.6.3-3Z"/>
          </g>
        </g>
        <g>
          <path class="st2" d="M185.2,115.5c-7.3-1.4-15.1-1.8-22.4,0s-9.9,4.5-15.2,3.7-7.3-2.7-10.6-3.5c-7.8-2-14.5-1.7-22.4-.2,4.6-25.3,34.7-34.2,55.5-21.9s12.3,12.6,15.1,21.9Z"/>
          <path class="st3" d="M170.7,108.2c5.3-.3,9.1,1.4,11.5,6.2-7.1-7.6-15.5-1.8-23.4.5-1.2-4.8,8.7-6.6,12-6.8Z"/>
          <path class="st3" d="M124.9,108.2c3-.4,9.5.8,12.3,2.1s3.6,1.8,3.2,4.7c-7.8-2.4-16.2-8.1-23.2-.7,1.3-2.8,4.6-5.7,7.7-6Z"/>
        </g>
        <g>
          <path class="st6" d="M185.2,115.5c.4,0,1,.3,1.5.4s2.3.2,2.8.4c1.3.7.5,3.5.7,4.8-.3,0-3.2,1.1-3.3,1.2s-.6.4-.6.7c-.5,2-.2,4.9-.8,7.3-2.4,9.2-9.9,11.5-18.6,10.1s-9.8-6.5-12.8-12.7-1-2.6-1.9-3.7c-1.8-2.2-3.5-1.9-5,.2s-1.2,2-1.2,3.1c-1.5,1.9-2.2,5-3.7,7.2-5.5,7.7-21.2,8.9-26.2.4s-1.8-7.2-2.7-11.2-.3-.9-.8-1.4c-.9-.7-1.8-.6-2.8-.8s-.3-.6-.3-.6c.2-.9-.3-3.4,0-4.1s2.8-1,3.5-1.1,1.3,0,1.9-.2c7.9-1.4,14.6-1.8,22.4.2s7.4,3.1,10.6,3.5c5.3.8,10.2-2.5,15.2-3.7,7.2-1.8,15.1-1.4,22.4,0Z"/>
          <g>
            <path class="st2" d="M164.4,117.4c-1.4,1.5-2.3,2.8-3.3,4.6s-2.2,4.5-2.7,7c4.8,2.6,16.7,1,20-3.3s.7-2.1.8-2.3,2.4-2.8,2.3-2.9c-1.6,0-2.7-.1-4.2-.5-.9-2-3.1-2.6-4.8-3.5,8.9.2,12.7,2.2,11.2,11.8-2.5,16.2-26.6,14-27.7-2.5-.4-6.2,3.1-6.9,8.3-8.2Z"/>
            <path class="st2" d="M122.3,116.9c.8.5-.9,1.5-1.2,2s-.7,1-.6,1.6c-.9.1-1.8-.3-2.7-.1,2.3,2.3,2.1,5.4,4.9,7.2,4.3,2.8,12.7,2.5,17.6,1.6,0-3.3-1.6-6-3.3-8.6s-1.6-2.3-2.7-3.3c8.6,1.9,11.2,4.4,7.9,13.4-4.2,11.7-24.7,12.3-26.7-3.3-.9-6.8.3-9,6.9-10.3Z"/>
            <path class="st10" d="M134.2,117.2c1.1,1.1,1.9,2.1,2.7,3.3-2.1-1.8-4.3-2.9-7.2-2.7s-6.4,2.4-9.3,2.7c0-.5.3-1.2.6-1.6s2.1-1.5,1.2-2c4.7-.9,7.2-.8,11.9.2Z"/>
            <path class="st10" d="M172.5,116.3c1.7,1,3.9,1.6,4.8,3.5-2-.5-4-1.6-6.1-1.9-4.4-.5-7.3.4-10.1,4,1-1.8,1.9-3,3.3-4.6,3.2-.8,4.8-1.1,8.1-1Z"/>
            <path class="st2" d="M152.1,124c-1.8-.5-3.3-.7-5,.2,1.5-2.1,3.2-2.4,5-.2Z"/>
            <g>
              <path class="st3" d="M177.3,119.9c1.5.4,2.6.5,4.2.5.1.1-2.1,2.6-2.3,2.9s-.2,1.5-.8,2.3c-3.3,4.4-15.2,5.9-20,3.3.5-2.4,1.5-4.8,2.7-7,2.8-3.5,5.7-4.5,10.1-4s4.1,1.4,6.1,1.9Z"/>
              <g>
                <path class="st6" d="M170.7,120.9c1,.2,5.7,1.6,5.9,2.4.4,1.7-4.4,6.3-6.2,5.8,2.8-2.1,2.6-5.8.3-8.2Z"/>
                <path class="st7" d="M167.1,123c.1,2.9,1.8,3.1,4.2,2-.4,2.6-1.3,3.2-3.6,3.9-.3-.7-1,0-1.9-.6s-.7-1-.9-1.5c.4,0,.4-.6.4-.6.1-.1.3.3.4.1v-.6c0-.3-.8-.5-1-.5-.3-2.1,1.8-1.7,2.5-2.1Z"/>
                <path class="st6" d="M162.6,122.8c-.4,2.8,0,5.1,2.5,6.7l-6.4-.7,3.9-5.9Z"/>
                <path class="st4" d="M170.2,122.4c0,0-.1,0-.2,0-.8-2.3-2.3.2-2.9.6s-2.8,0-2.5,2.1c-.7,0-.9.8-1.7.7-1.2-5,4.7-6.9,7.9-4-.1,0-.6.5-.6.5Z"/>
                <path class="st6" d="M170,122.4c0,0,.1,0,.2,0,2.5,3.3-3.2,3.9-2.7.9s2-.9,2.5-.9Z"/>
                <path class="st6" d="M165.2,126.1s0,.6-.4.6c0,0-.5,0-.6-.3-.3-1,1-1.4,1-.3Z"/>
              </g>
            </g>
            <g>
              <path class="st3" d="M136.9,120.5c1.8,2.6,3.3,5.4,3.3,8.6-4.9.9-13.3,1.2-17.6-1.6s-2.6-4.9-4.9-7.2c.9-.2,1.8.2,2.7.1,2.9-.3,6.1-2.5,9.3-2.7s5.1.9,7.2,2.7Z"/>
              <g>
                <path class="st6" d="M127.2,121.1c.3,0,.8-.1.7.3-2.1,2.1-1.6,5.3.3,7.4-2,.3-6.4-3.3-6.1-5.1s4.6-2.6,5.1-2.6Z"/>
                <path class="st4" d="M135,124.7c-1.6-1.9-1.1-.9-2.4-1.7s-3.1-3.6-4.3-.1.8,1.2-.2,2.4c-.4-.3-.9-.3-1,.2-1.1-7.5,11.4-6.7,9.4.7-.4.4-.9-.9-1.5-1.6Z"/>
                <path class="st6" d="M137.2,123.4c.5.4,3.3,5.3,2.5,5.6h-4.7c2-1.4,2.1-3.5,2.2-5.6Z"/>
                <path class="st13" d="M128.1,125.3c.6.4.4,2.1,1.9,2.9-1.7,1.1-2.7-1.3-2.9-2.7.2-.5.6-.5,1-.2Z"/>
                <path class="st6" d="M135,126.7c-.2,0-.2-.2-.4-.2-.8-1.3,1.2-1.6,1-.3,0,.2-.6.5-.6.5Z"/>
                <g>
                  <path class="st7" d="M135,124.7l-1.5,1.4c.5.8.7.5,1,.5s.2.2.4.2c-1,1.6-3.3,2.4-5,1.5s-1.3-2.5-1.9-2.9c1-1.2-.2-1,.2-2.4,1.1-3.5,3.4-.4,4.3.1,1.3.8.8-.2,2.4,1.7Z"/>
                  <path class="st6" d="M129.7,121.9c3.4-1.1,2.6,4.5-.2,2.9s-.8-2.6.2-2.9Z"/>
                </g>
              </g>
            </g>
          </g>
        </g>
      </g>
    </g>
  </g>
</svg>