<?xml version="1.0" encoding="UTF-8"?>
<svg id="Layer_1" xmlns="http://www.w3.org/2000/svg" version="1.1" viewBox="0 0 300 300">
  <!-- Generator: Adobe Illustrator 29.6.0, SVG Export Plug-In . SVG Version: 2.1.1 Build 207)  -->
  <defs>
    <style>
      .st0 {
        fill: #d0807c;
      }

      .st1 {
        fill: #c11c20;
      }

      .st2 {
        fill: #89191d;
      }

      .st3 {
        fill: #e98147;
      }

      .st4 {
        fill: #fcb5a3;
      }

      .st5 {
        fill: #384b65;
      }

      .st6 {
        fill: #600d16;
      }

      .st7 {
        fill: #f18530;
      }

      .st8 {
        fill: #fff;
      }

      .st9 {
        fill: #e99c70;
      }

      .st10 {
        fill: #a32921;
      }

      .st11 {
        fill: #b2694d;
      }

      .st12 {
        fill: #0e1a27;
      }

      .st13 {
        fill: #15263b;
      }

      .st14 {
        fill: #ffc99e;
      }

      .st15 {
        fill: #df543c;
      }

      .st16 {
        fill: #fc8b72;
      }
    </style>
  </defs>
  <g id="Generative_Object">
    <g>
      <g>
        <path class="st13" d="M204.3,123.3c-.8,2.9-1.6,5.7-2.5,8.6s-2.2,6.1-3.4,9.2c.3-2.8.6-5.6.6-8.4.6,0,.4-.6.4-.9,0-.7,0-7.5-.3-7.4s0,.9-.2,1c-1.1.8-1.6-5.5.1-3,.2-.4-.2-1-.2-1.2,0-2,.3-4.5-.2-6.5s-4.2-4.8-5.5-6.4c-6.5-8.4-10.3-19.4-13-29.6l-4,5.9,1.8-9.8c-1.6,6.3-5.6,12.8-10.4,17.2s-3.1,2.3-4.6,3.5v-.7c1.3-1.5,2.6-3.9,3.4-5.8s1.6-4.5.9-4.5c-9.1,9.6-20.9,18.1-34.3,19.9-.1,0-.6.1-.6-.1.3-.3.7-.5,1-.7,3.6-2.7,14-9.3,15.9-12.9s.5-.4-.1-.5c-7.1,5.1-14.9,9.5-22.9,13.2s-7.2,2.4-8.7,3.6h-1c5.1-4.6,10.9-11.1,12.9-17.6-5.3,7.3-11.8,13.7-18.7,19.5s-7.3,4.9-8.4,6.3-.3.4-.5,1-.4,4.5-.2,4.9.5-.3.6-.1c1.5,2.2.5,3,0,5.2-.2,0-.4-.2-.5-.4-.6.5.3,14,.4,15.9,0-.5-.5-.9-.5-1-1-3-2-6-2.9-9s-1.6-5.5-2.3-8.2c-2.3-8.6-5.1-18.2-4.2-27.2l-2.6,3.9c-1.8-8.8,2.5-17.7,5.8-25.7-3.9.4-7.9-.6-11.5-1.9,14.1-2.5,25-14,36.8-21.3,6.6-4.1,13.7-7.5,21.4-9,14.8-2.9,32.1-.7,43.2,10.1l-1.8-4.7c3.3.8,4.8,4.3,5.8,7.2,2.8-.5,5.7-.2,8.4.8l-5.3,2.4c17.1,6.1,22.8,26.5,19.8,43.1l-3-4.5c-.1,9.1-2.5,17.9-4.8,26.5Z"/>
        <path class="st5" d="M122.8,54.3l-3.6,5.2c1.4-.7,9.3-4.6,10.2-3.5l-6.4,10.8c3.2-2.5,7.2-3.3,11.2-3.7-1.4,3-3.8,6-2.6,9.5,4.4-5.1,9.1-10,14.1-14.5.8.2-5.4,14.4-6.2,14.8s-.7-1-1.8-.7-10.4,13.6-11.5,13.6-.8-1.4-1-1.7c-4,4.8-9,8.9-14.5,12,2.1-10.1,7.3-19.7,14.6-27,0-.4-1.1,0-1.2.1-4.4,1.8-9.3,7.2-13.2,10.1,2.2-6.7,6.2-13.7,11.9-18.1l-10.7,3.1c2.2-4.8,6-8.1,10.8-10.2Z"/>
        <path class="st5" d="M154.7,61.9c.5,0,.2.2.1.5-1,3.6-5.3,9.1-6.7,13.2s-1.3,3.7-.7,4.1c1.2-.9,9.2-8.4,9.9-8.4s.4,2,1,2.1,10.2-7,12.2-7.1c.6,2.2-8,13.5-8.8,13.4l-1-6.1c-4.3,4.2-8.6,8.8-13.9,11.6l1.4-3.5-11.5,8.6c2.9-10.8,9.2-21.7,18.2-28.5Z"/>
        <path class="st5" d="M199,76.8c2,.6,3.8,1.8,5.2,3.4l1.3-2.5c2.4,2.1,2.9,6,2.3,9-1-1.2-2-2.5-3.1-3.6s-2.9-2.6-3-1.8c1.7,4.3,2.4,9,2.5,13.6l-3.9-3.5-.4,4.6c-6.5-2.9-11.5-8.4-12.5-15.6l6.4,7.2v-5.2l4.8,5.9c1.9-3.4.6-7.8.4-11.5Z"/>
      </g>
      <path class="st9" d="M133.4,103.6c-5.4,1.9-10.9,3.8-16.7,4.4.3-.2.7-.9.9-1,1.5-1.2,6.4-2.5,8.7-3.6,8-3.7,15.8-8.1,22.9-13.2.6,0,.2.3.1.5-2,3.6-12.3,10.2-15.9,12.9Z"/>
      <path class="st9" d="M116.7,107c-4.3,3.9-9.4,6.8-14.7,9.2.2-.7,0-.4.5-1,1.1-1.4,6.5-4.7,8.4-6.3,6.9-5.8,13.3-12.2,18.7-19.5-2,6.6-7.8,13-12.9,17.6Z"/>
    </g>
    <g>
      <path class="st10" d="M209,259.7c-1.7,0-3.5,0-5.2,0l3.3-30.2,2,30.2Z"/>
      <path class="st10" d="M95.5,259.7c-1.6,0-3.2,0-4.8,0l1.6-29.6c1.3,5.6,2.1,11.7,2.6,17.5s.6,8.1.6,12.1Z"/>
      <g>
        <path class="st15" d="M116,202.6c1,9,4.3,18.2,11.4,24.1s6,4.4,7.2,4.2.2,0,.2,0c.2.9,6.5,2.5,7.7,2.7,7.7,1.3,15.3.4,22.3-2.7s.3-.2.4-.2c11.5-5.4,16.6-15.8,18-28.1,9.9,1.9,28.4,5,35,12.9s10.6,30.8,13.6,43.8c-7.7.6-15.4.3-23.1.3l-2-30.2-3.3,30.2c-36.1,0-72.2,0-108.2,0,0-4-.2-8.1-.6-12.1-.6-5.8-1.3-11.9-2.6-17.5l-1.6,29.6c-7.7,0-15.4.3-23.1-.3,2.9-13,5.2-36.4,15.4-45.8s24.2-9.1,33-10.9Z"/>
        <path class="st2" d="M149.5,236.2c3.7-.8,3.1,5.5-.4,3.8s-1.1-3.4.4-3.8Z"/>
        <path class="st2" d="M150.1,248.8c3,0,2.3,5.4-1,3.8s-.8-3.8,1-3.8Z"/>
      </g>
      <g>
        <path class="st14" d="M119.4,202c.5,9,4.3,18.3,12,23.5,1,1.9,2.2,3.7,3.4,5.5-1.2.2-6.1-3.3-7.2-4.2-7.1-5.9-10.4-15.1-11.4-24.1,1.1-.2,2.2-.4,3.4-.6Z"/>
        <path class="st14" d="M183.4,202.6c-1.4,12.3-6.5,22.7-18,28.1,1-1.7,2.2-3.4,3.1-5.2,7.1-5.7,11.1-14.5,11.5-23.5,1.1.2,2.2.4,3.4.6Z"/>
        <path class="st7" d="M122.3,201.6c.3,6.1,2.4,12.2,6.1,17,.9,2.3,1.8,4.7,2.9,6.9-7.6-5.2-11.5-14.5-12-23.5,1-.2,2-.3,2.9-.4Z"/>
        <path class="st7" d="M180,202c-.5,9-4.5,17.8-11.5,23.5,1.9-3.7,3.7-7.8,5.2-11.5s3.1-7.9,3.6-12.5c.2-.2,2.3.5,2.7.5Z"/>
        <path class="st14" d="M124,201.2c0,1.2.4,2.8.6,4-.9.4,0,3.3.2,4.3.6,2.4,1.8,5.5,2.9,7.7.2.5.4,1,.6,1.5-3.7-4.8-5.8-10.9-6.1-17,.5,0,1.1-.6,1.7-.4Z"/>
        <path class="st14" d="M164.9,230.9c-7,3.1-14.6,4.1-22.3,2.7s-7.4-1.8-7.7-2.7c.5-.2,2.4-1.8,2.9-2.3,7.5,2.9,16.5,2.7,23.9-.2.8.8,2.2,1.8,3.1,2.5Z"/>
        <path class="st7" d="M159.4,225.9c.5.6,1.8,2,2.3,2.5-7.4,2.9-16.4,3.1-23.9.2.6-.6,2-2.1,2.5-2.7,6.1,2.4,12.9,1.6,19.1,0Z"/>
        <path class="st4" d="M159.4,225.9c-6.2,1.6-13,2.4-19.1,0,1.3-1.5,2.5-3.4,3.6-5,1.7,0,3.5.8,5.2.8s.8,0,1.3,0c1.7,0,3.8-.6,5.5-1,1.1,1.7,2.3,3.7,3.6,5.2Z"/>
      </g>
      <g>
        <path class="st2" d="M173.7,214c-1.6,3.7-3.4,7.9-5.2,11.5s-2.1,3.5-3.1,5.2c-.1,0-.2.1-.4.2-.5-3.5-2.5-7.7-4.6-10.6s-6.2-7-8.2-7.2c4.2-3.3,9.3-7.4,11.7-12.3s1.5-5.1.8-9.8c3.2,1.8,8.5,4.7,10.5,7.9s.4,1.3.6,2.1.6,0,.6.2c.5,2.7-2.2,9.8-2.7,12.7Z"/>
        <path class="st2" d="M135.3,191.1c-.8,4.9-1.5,5.8,1,10.4s8.3,10.2,11.5,11.6v.6s-.2,0-.2,0,.2-.5-.5-.4c-1.4.2-5.8,4.7-6.8,6s-6,9.7-5.5,11.6c0,0-.1,0-.2,0-1.1-1.8-2.4-3.6-3.4-5.5s-2.1-4.6-2.9-6.9-.5-1-.6-1.5c-1.3-3.6-2.5-8.2-3.1-12s-.7-2.8-.6-4c.2-3.1,5.6-7,8.3-8.6s2.1-1.1,3-1.5Z"/>
        <path class="st1" d="M152.1,213.1c2,.2,6.9,5.5,8.2,7.2,2.1,2.9,4.1,7.1,4.6,10.6-.9-.8-2.3-1.7-3.1-2.5s-1.8-2-2.3-2.5c-1.3-1.5-2.5-3.5-3.6-5.2s-2.5-4.8-3.9-7.1c-1.6,2.4-1.6,5.4-1.6,8.2-.4,0-.8,0-1.3,0,.2-2,.3-6.6-1.3-8v-.6c2.6,1.1,2.7-.2,4.2,0Z"/>
        <path class="st1" d="M147.7,213.7c-1.3,2.4-2.3,4.9-3.8,7.1s-2.3,3.5-3.6,5-1.9,2.2-2.5,2.7-2.4,2.1-2.9,2.3c-.5-2,4.1-9.9,5.5-11.6s5.4-5.8,6.8-6,.5.4.5.4Z"/>
        <path class="st6" d="M147.9,213.7c1.6,1.4,1.4,6,1.3,8-1.7,0-3.5-.7-5.2-.8,1.4-2.3,2.5-4.8,3.8-7.1,0,0,.2,0,.2,0Z"/>
        <path class="st0" d="M127.8,217.1c-1.1-2.1-2.3-5.2-2.9-7.7s-1.1-3.9-.2-4.3c.6,3.8,1.9,8.3,3.1,12Z"/>
        <path class="st6" d="M155.9,220.7c-1.7.4-3.7,1-5.5,1,0-2.8,0-5.8,1.6-8.2,1.4,2.4,2.4,4.8,3.9,7.1Z"/>
      </g>
    </g>
    <g>
      <path class="st14" d="M163.6,185.8c.3,1.7.8,3.5,1,5.2.7,4.7,1.4,5.3-.8,9.8s-7.5,9-11.7,12.3c-1.5-.2-1.6,1.1-4.2,0s-9.8-8.5-11.5-11.6c-2.5-4.6-1.8-5.5-1-10.4s1.1-4.9,1.5-7.3c7.2,6.2,18.4,5.8,26.8,2.1Z"/>
      <path class="st3" d="M163,180.4c.1,1.8.3,3.7.6,5.5-8.4,3.7-19.6,4.1-26.8-2.1.2-1.2.1-2.5.4-3.8,7.5,2.1,18.3,2.4,25.8.4Z"/>
      <path class="st9" d="M198.7,114.7c-11.1-6.4-15.9-19.5-18.6-31.5-3,4.4-7.8,12-12.6,14.5s-1.2.7-1.2.1c.9-1.6,1.7-3.9,1.3-5.8,4.8-4.4,8.8-10.9,10.4-17.2l-1.8,9.8,4-5.9c2.7,10.2,6.5,21.2,13,29.6s5.1,5.1,5.5,6.4Z"/>
      <path class="st9" d="M163,94.8c-5.5,6.3-22.1,13.6-30,9.6,13.4-1.9,25.2-10.3,34.3-19.9.7,0-.8,4.1-.9,4.5-.7,1.9-2,4.2-3.4,5.8Z"/>
      <path class="st3" d="M198.5,141.2c1.2-3.1,2.4-6.1,3.4-9.2,2.5-1.2,5.3-.5,7.1,1.6-5.2.5-7.5,5-10.6,8.5-.3-.3,0-.6.1-.8Z"/>
      <path class="st3" d="M98.8,131.7c.9,3,1.9,6.1,2.9,9-2.7-3.3-5-6.8-9.6-7.2,1.8-1.8,4.3-2.7,6.7-1.8Z"/>
      <path class="st16" d="M125.7,145.1c-1.9,8.6-22.5,8.1-13.2-2.3,3.2,2,9.5,2.3,13.2,2.3Z"/>
      <path class="st16" d="M175.2,145.1c3.8,0,9.6-.3,12.8-2.3,9,10.2-11.2,11.1-12.8,2.3Z"/>
      <g>
        <path class="st14" d="M96.5,123.5c.7,2.7,1.5,5.5,2.3,8.2-2.4-.9-4.9,0-6.7,1.8,4.7.4,7,3.9,9.6,7.2,0,.2.5.6.5,1,0-1.9-1.1-15.5-.4-15.9.2.2.3.3.5.4,4.5,2,4.6,13.1,10.1,16.6-9.3,10.4,11.3,10.9,13.2,2.3,8.9,0,15-1.2,18.7-10s1.8-8.6,4.1-9.3c6.4-2.1,6.1,5.7,7.9,9.8,3.8,8.6,10.2,9.6,18.9,9.5,1.6,8.8,21.8,7.9,12.8-2.3,5.6-3.5,5.2-13,9.3-16.2s1.5-1.2,1.8-.7c0,2.3,0,4.5,0,6.8s-.3,5.6-.6,8.4c-.1.3-.4.5-.1.8,3-3.5,5.4-8,10.6-8.5-1.8-2-4.7-2.8-7.1-1.6.9-2.9,1.7-5.7,2.5-8.6,5.2-1,10.6.7,12.2,6.2,3.5,12.2-9.6,19.3-19.8,20-5.3,15-18.4,26.3-33.6,30.4s0,.4-.1.4c-7.5,2-18.3,1.7-25.8-.4-15-4.2-27.6-16.2-33-30.6-6.1-.3-14.4-3.4-17.9-8.7-5.4-8.1-.5-20.1,10.3-17.1Z"/>
        <path class="st15" d="M136.9,155.6c.5-.2,4,2.9,5,3.4,6.1,2.8,13.9,2,19.5-1.7s1.4-1.9,2.3-1.7c2.1.6-2.2,4.6-2.9,5.2-6.2,5.1-14,5.3-20.3.4s-5.6-5-3.6-5.7Z"/>
        <path class="st11" d="M149.7,136.1c.3,1.7,0,3.7-.3,5.3s-2.1,5.2-2.1,5.5c0,1.6,4.6,3,2,5.1l-4.5-4.3,4.9-11.6Z"/>
      </g>
      <g>
        <path class="st14" d="M198.7,114.7c.5,2,.2,4.5.2,6.5-9.4-3.5-22.2-4.9-32.2-3.6s-9.1,3-13.8,3.4c-7.7.6-12.2-2.4-19.3-3.4s-22,0-31.2,3.4c-.1-.2-.5.3-.6.1-.2-.4,0-4.3.2-4.9,5.3-2.4,10.4-5.4,14.7-9.2h1c-.2.2-.6.8-.9,1,5.8-.6,11.3-2.5,16.7-4.4-.3.3-.7.4-1,.7,0,.2.5,0,.6.1,7.9,4,24.5-3.3,30-9.6v.7c1.5-1.2,3.2-2.2,4.6-3.5.4,1.9-.4,4.2-1.3,5.8,0,.6,1,0,1.2-.1,4.8-2.5,9.6-10.1,12.6-14.5,2.6,12,7.5,25,18.6,31.5Z"/>
        <path class="st12" d="M173,109.5c4.4-.3,9.1,2.1,12.5,4.7-6.9-1.7-14-1.8-20.9-.3,1.9-2.2,5.4-4.2,8.4-4.4Z"/>
        <path class="st12" d="M125.4,109.5c4-.3,8.1,1.6,11,4.3-7-1.2-14.2-1.5-21.1.5,2.5-2,6.8-4.6,10.1-4.8Z"/>
      </g>
      <g>
        <path class="st12" d="M198.9,121.2c0,.2.4.7.2,1.2-1.7-2.5-1.2,3.8-.1,3s0-1,.2-1c.4,0,.3,6.8.3,7.4s.2,1-.4.9c0-2.3,0-4.5,0-6.8-.2-.4-1.5.6-1.8.7-4.1,3.2-3.8,12.6-9.3,16.2s-9,2.3-12.8,2.3c-8.7,0-15.1-1-18.9-9.5s-1.4-11.8-7.9-9.8-3.1,6.9-4.1,9.3c-3.7,8.8-9.7,9.9-18.7,10s-10-.3-13.2-2.3c-5.4-3.4-5.6-14.6-10.1-16.6.5-2.2,1.5-3.1,0-5.2,9.1-3.4,21.4-4.6,31.2-3.4s11.6,4,19.3,3.4,9.2-2.7,13.8-3.4c10-1.4,22.8,0,32.2,3.6Z"/>
        <g>
          <path class="st14" d="M169.4,120c12.1-.9,29,0,20.2,16.9-4.1,8.1-23.6,7.9-28.5,1.7s-5.2-10.7-4-14.1,9.6-4.3,12.3-4.5Z"/>
          <g>
            <path class="st12" d="M169.8,122.5c7.4-1.5,7.9,13,2.1,14.1s-7.6-12.9-2.1-14.1Z"/>
            <path class="st8" d="M169.8,125.9c2.3-.5,2.6,2.8.8,3.1s-2.6-2.8-.8-3.1Z"/>
          </g>
        </g>
        <g>
          <path class="st14" d="M121.2,120c4.4-.3,18.4.1,21.5,3.5s-1.9,14.5-5.1,16.9-17.9,3.2-22.7,1-8-13.4-4.9-17.7,8.3-3.5,11.2-3.7Z"/>
          <g>
            <path class="st12" d="M128.5,122.5c7.7-1.6,7.9,13.8,1.5,14.3s-7-13.2-1.5-14.3Z"/>
            <path class="st8" d="M129.6,125.9c2.2-.4,2.6,2.8.8,3.1s-2.6-2.8-.8-3.1Z"/>
          </g>
        </g>
      </g>
    </g>
  </g>
</svg>