<?xml version="1.0" encoding="UTF-8"?>
<svg id="Layer_1" data-name="Layer 1" xmlns="http://www.w3.org/2000/svg" xmlns:xlink="http://www.w3.org/1999/xlink" viewBox="0 0 216.48 284.55">
  <defs>
    <style>
      .cls-1 {
        fill: #667928;
      }

      .cls-2 {
        fill: #6f726e;
      }

      .cls-3 {
        fill: #5b5061;
      }

      .cls-4 {
        fill: #2d2730;
      }

      .cls-5 {
        fill: #e88f63;
      }

      .cls-6 {
        fill: #2c3137;
      }

      .cls-7 {
        fill: #57435b;
      }

      .cls-8 {
        fill: url(#linear-gradient-3);
      }

      .cls-9 {
        fill: url(#linear-gradient-2);
      }

      .cls-10 {
        fill: #576723;
      }

      .cls-11 {
        fill: #171616;
      }

      .cls-12 {
        fill: #480a05;
      }

      .cls-13 {
        fill: url(#linear-gradient);
      }

      .cls-14 {
        fill: #525669;
      }

      .cls-15 {
        fill: #849340;
      }

      .cls-16 {
        fill: #cd6e42;
      }

      .cls-17 {
        fill: #f9c79c;
      }

      .cls-18 {
        fill: #f07b6d;
      }

      .cls-19 {
        fill: #3a2e3d;
      }

      .cls-20 {
        fill: #c45a39;
      }

      .cls-21 {
        fill: #d2d4d5;
      }

      .cls-22 {
        fill: #46561c;
      }

      .cls-23 {
        fill: #384417;
      }

      .cls-24 {
        fill: #364350;
      }

      .cls-25 {
        fill: #fefefe;
      }

      .cls-26 {
        fill: #f7b27f;
      }

      .cls-27 {
        fill: #874b25;
      }

      .cls-28 {
        fill: #b8b9b9;
      }

      .cls-29 {
        fill: #fde9e4;
      }

      .cls-30 {
        fill: #53554a;
      }

      .cls-31 {
        fill: #2b273c;
      }

      .cls-32 {
        fill: #23110c;
      }

      .cls-33 {
        fill: #22290e;
      }

      .cls-34 {
        fill: #a9482f;
      }
    </style>
    <linearGradient id="linear-gradient" x1="107.26" y1="165.16" x2="108.22" y2="259.08" gradientUnits="userSpaceOnUse">
      <stop offset="0" stop-color="#9bac4c"/>
      <stop offset="1" stop-color="#859248"/>
    </linearGradient>
    <linearGradient id="linear-gradient-2" x1="63.8" y1="101.58" x2="45.82" y2="104.1" gradientUnits="userSpaceOnUse">
      <stop offset="0" stop-color="#2d2930"/>
      <stop offset="1" stop-color="#35394c"/>
    </linearGradient>
    <linearGradient id="linear-gradient-3" x1="111" y1="144.27" x2="107.21" y2="195.64" gradientUnits="userSpaceOnUse">
      <stop offset="0" stop-color="#e28a5c"/>
      <stop offset="1" stop-color="#f6ac78"/>
    </linearGradient>
  </defs>
  <g id="Generative_Object" data-name="Generative Object">
    <g>
      <path class="cls-13" d="M71.94,163.91c-.81,1.73-2.93.93-2.95,2.61-.03,3.05,1.74,7.66,1.82,10.89l1.13,3.52c-.44,2.79-1.08,5.81-1.13,8.62,0,.25-.28,1.83.11,1.82l5.33-2.95c.15.29.22.21.23.23.08.15-.14.68.34.91l1.7-.79c5.68,17.42,16.21,32.89,29.61,45.26.81.08,9.89-10.48,11-11.91,2.51-3.23,7.59-10.14,9.08-13.73.03-.06-.03-.16,0-.23,1.83-2.2,2.89-4.92,4.08-7.49,1.36-2.94,2.54-5.8,3.63-8.85.29-.83.63-1.66.91-2.5.55.22,1.45.53,2.04.57-.73-.21-1.43-1.23-1.82-1.47.37-.14.44-1.03.79-1.13.84-.25,6.45,3.32,7.49,4.08.51-.14.32-1.4.34-1.82.1-2.32-.94-7.01-1.36-9.53,1.53-2.73,1.31-6.64,2.04-9.76.03-.13-.03-.33,0-.45.43-1.61,1.76-2.91,2.72-4.54.4-.67.98-1.26,1.13-2.04,9.9,3.44,29.17,8.87,35.39,17.13,7.32,9.71,8.21,27.35,9.08,39.25.99,13.73.97,27.55,1.82,41.29-9.07.23-18.15.09-27.23.11v-.45c1.69-.06,3.41.05,5.1,0-1.84-10.1-1.64-20.83-3.52-30.97-1.12-6.04-3.84-11.53-4.88-17.58-.73,6.15,3.8,16.27,2.16,21.89-6.79,23.22-49.58,13.53-67.27,14.18-14.89.55-33.66,5.64-46.28-4.76-10.78-8.88-5.57-16.05-4.88-27.57.13-2.2,0-4.49-.11-6.69-.37,3.97-2.21,7.65-3.06,11.46-2.98,13.25-3.21,26.99-4.08,40.5-7.48-.02-14.98.11-22.46-.11.85-15.1.79-30.31,2.04-45.38.89-10.75,2.08-26.15,8.62-34.94s25.33-13.83,35.39-17.13l3.29.45c.58-.38.08-.46.11-.68,1.02-.26,1.23.45,2.5.68Z"/>
      <path class="cls-15" d="M145,161.64c-.74.35,1.9.94,2.16,1.13.64.49,1.13,2.07,1.93,2.5-.96,1.63-2.29,2.93-2.72,4.54l-4.54-2.04c-.27-1.21-.37-2.72-.68-3.86.67-.25,5.8,3.23,5.9,2.16.06-.7-4.29-2.1-4.65-2.38-1.07-.84-.48-2.73-1.93-2.72-.09-.24-.32-.64-.45-.91-.42-.66.03-.46.45-.34,1.57.45,3.03,1.39,4.54,1.93Z"/>
      <path class="cls-33" d="M76.48,159.83c-.79,1.66-.91,3.29-1.36,4.99-.45-1.36-1.65-.63-3.18-.91-1.27-.23-1.48-.94-2.5-.68.04-.28-.02-.61,0-.91.02-.42.03-.89.45-1.13,1.92.75,4.6-1.66,6.58-1.36Z"/>
      <path class="cls-15" d="M146.36,170.26c-.73,3.12-.51,7.03-2.04,9.76-.63-3.79-1.43-8.05-2.27-11.8l4.31,2.04Z"/>
      <path class="cls-1" d="M146.36,169.81c-.03.13.03.32,0,.45l-4.31-2.04c-.05-.21-.18-.25-.23-.45l4.54,2.04Z"/>
      <g>
        <path class="cls-1" d="M169.27,260.56c0-6.58.18-13.15-.34-19.74l-4.88,19.85c.36.45,4.4-.08,5.22-.11v.45c-42.27.12-84.56.14-126.83,0,.87-13.51,1.1-27.25,4.08-40.5.86-3.8,2.69-7.48,3.06-11.46.11,2.2.25,4.49.11,6.69-.69,11.52-5.9,18.69,4.88,27.57,12.62,10.4,31.39,5.31,46.28,4.76,17.7-.65,60.49,9.04,67.27-14.18,1.64-5.62-2.88-15.74-2.16-21.89,1.04,6.05,3.76,11.54,4.88,17.58,1.87,10.14,1.67,20.87,3.52,30.97-1.7.05-3.41-.06-5.1,0Z"/>
        <polygon class="cls-22" points="47.32 236.06 50.61 260.45 46.42 260.79 47.32 236.06"/>
      </g>
      <path class="cls-22" d="M169.27,260.56c-.82.03-4.86.56-5.22.11l4.88-19.85c.52,6.58.34,13.16.34,19.74Z"/>
      <path class="cls-1" d="M141.14,163.91c-.21-.79-.44-2.35-.68-2.95,1.45,0,.86,1.88,1.93,2.72.36.28,4.71,1.68,4.65,2.38-.1,1.08-5.23-2.4-5.9-2.16Z"/>
      <path class="cls-15" d="M74.44,168.22c-.31,1.36-.63,2.71-.91,4.08-.52-.4-1.56.56-1.93.45-.35-.1-1.07-2.43-1.02-2.61.06-.21,3.27-1.92,3.86-1.93Z"/>
      <g>
        <path class="cls-1" d="M75.12,164.82c-.3,1.14-.42,2.27-.68,3.4-.58.01-3.8,1.72-3.86,1.93-.05.18.67,2.51,1.02,2.61.37.11,1.41-.85,1.93-.45-.57,2.85-1.14,5.75-1.59,8.62l-1.13-3.52c-.08-3.23-1.85-7.84-1.82-10.89.02-1.68,2.14-.88,2.95-2.61,1.53.28,2.73-.45,3.18.91Z"/>
        <path class="cls-15" d="M72.28,164.82c.67,0,2.21,1.95,1.93,2.61-.7.21-3.21,1.86-3.74,1.7-.37-.11-1.05-2.47-1.02-2.61.06-.25,2.67-1.7,2.84-1.7Z"/>
      </g>
    </g>
    <g>
      <g>
        <g>
          <path class="cls-6" d="M133.2,38.67c-1.15,5.8-3.75,10.2-7.94,14.29-.36.36-.78.81-1.13,1.13s-1.32.95-1.82,1.36c-9.35,7.78-21.63,13.95-33.01,18.15-2.01.74-12.83,3.66-13.5,4.31-4.49-.02-8.98.74-13.5.45-1.68-.11-4.48-.15-5.56-1.36-.08-1.37-.2-2.7-.23-4.08l14.75.68c-1.32.39-3.6.68-4.42,1.59,12.05-1.66,23.55-6.26,33.92-12.48,2.18-.29,4.28-2.19,6.24-3.18l4.31-4.31c-15.76,9.97-35.99,16.59-54.79,13.39.13-2.17.38-3.58.91-5.67,16.69,2.14,33.4-2,48.33-9.19-7.73.6-15.14,1.32-22.46,3.97.1-.53-.4-.38-.23-.91,9.11-4.04,19.01-3.36,28.13-7.71l1.36,2.72c-8.68,5.21-16.06,8.5-25.64,11.8.02-.81-.71-.74-1.25-.68-2.8.31-7.21,2.22-10.44,2.72-2.53.39-5.15.49-7.71.45,1.94,2,5.49,1.61,8.05,1.36,10.84-1.07,29.4-8.84,38.12-15.43l-.79,2.04c7.41-4.7,14-10.6,20.19-16.79.64.25.11,1.29.11,1.36Z"/>
          <path class="cls-11" d="M100.75,62.72l2.38-1.82c-10.06,5.5-20.89,9.44-31.88,12.71l-14.75-.68c-.03-1.38-.08-2.94,0-4.31,18.8,3.2,39.03-3.42,54.79-13.39l-4.31,4.31c-1.95.99-4.06,2.89-6.24,3.18Z"/>
          <path class="cls-11" d="M75.8,77.92c-.44.43-.5,1.43-.68,1.82-.38.81-.43.96-.68,1.82-.14.48-.59,1.22-.68,1.59-5.28,1.23-10.77,1.99-16.11.68.19-1.62-.8-4.87-.91-6.81,1.08,1.21,3.88,1.26,5.56,1.36,4.52.29,9.01-.47,13.5-.45Z"/>
          <path class="cls-24" d="M108.24,45.02l-.68,3.63c-5.2.99-11.28,1.67-16.22,3.4-1.46.51-7.86,3.48-8.28,4.76-.17.52.32.37.23.91-1.35.49-6.79,3.34-7.37,3.4-.4.04-.55-.03-.79-.34,1.85-4.22,7.24-6.93,11.46-8.74.08-.04,1.24-.63,1.02,0-.98.75-2.51,1.83-3.06,2.95l2.5-2.04c6.74-3.54,13.93-5.8,21.21-7.94Z"/>
          <path class="cls-14" d="M108.24,45.02c-7.28,2.14-14.47,4.4-21.21,7.94l-2.5,2.04c.55-1.12,2.08-2.2,3.06-2.95,7.91-6.07,21.22-11.98,31.2-9.76-3.66.43-7.06,1.7-10.55,2.72Z"/>
          <path class="cls-14" d="M111.19,49.11c-9.13,4.36-19.02,3.67-28.13,7.71.42-1.28,6.82-4.25,8.28-4.76,4.95-1.73,11.03-2.41,16.22-3.4,2.23-.43,4.38-1.26,6.69-1.36-.73,1.01-2.02,1.32-3.06,1.82Z"/>
          <path class="cls-11" d="M131.61,56.14c-.44-.16-.52.45-.91.34-1.15-.31-4.28-2.75-5.45-3.52,4.19-4.1,6.79-8.49,7.94-14.29.08,5.37.16,12.51-1.59,17.47Z"/>
          <path class="cls-3" d="M113.69,52.06c-8.72,6.58-27.28,14.36-38.12,15.43-.11-.49.45-.58.79-.68,3.58-1.02,7.03-1.96,10.55-3.18,9.58-3.3,16.96-6.58,25.64-11.8,1.48-.89,3.07-1.62,4.42-2.72-.91,1.08-2.17,2.11-3.29,2.95Z"/>
          <g>
            <path class="cls-24" d="M147.72,87.91c1.12-10.25-6.77-26.53-16.45-31.08-.17-.24.23-.38.34-.68,1.75-4.96,1.67-12.1,1.59-17.47,0-.07.52-1.11-.11-1.36-6.2,6.19-12.78,12.09-20.19,16.79l.79-2.04c1.12-.84,2.38-1.87,3.29-2.95-1.36,1.11-2.94,1.83-4.42,2.72l-1.36-2.72c1.04-.5,2.34-.8,3.06-1.82-2.32.1-4.46.94-6.69,1.36l.68-3.63c3.49-1.02,6.89-2.3,10.55-2.72-9.98-2.23-23.28,3.68-31.2,9.76.21-.63-.94-.04-1.02,0-4.22,1.8-9.61,4.52-11.46,8.74.24.31.39.38.79.34.58-.06,6.02-2.91,7.37-3.4,7.32-2.65,14.73-3.37,22.46-3.97-14.92,7.19-31.63,11.33-48.33,9.19,3.15-12.43,13.43-25.35,24.62-31.54,13.39-7.4,38.51-11.13,49.35,2.16.44.54,1.74,3.39,1.93,3.52.39.27,3.61.73,4.54,1.13,19.45,8.56,17.1,33.42,9.87,49.69Z"/>
            <g>
              <path class="cls-14" d="M113.8,36.63c2.22,0,4.42.51,6.58.91.23.11-.17.44-.23.45-.95.22-5.04-.05-6.81.23-11.76,1.84-24.13,7.75-34.15,13.95,8.49-7.9,22.75-15.57,34.6-15.54Z"/>
              <path class="cls-14" d="M107.22,32.55c4.46-.32,10.36-.15,14.29,1.82-15.36-1.94-31.27,2.66-43.22,12.37,7.41-7.65,18.15-13.41,28.93-14.18Z"/>
              <path class="cls-14" d="M106.99,27.78c5.47-.33,11.32.14,16.22,2.61.12.41-5.68-.96-6.47-1.02-12.08-.93-24.75,2.35-35.28,8.05,7.25-5.48,16.37-9.1,25.52-9.64Z"/>
              <path class="cls-14" d="M137.85,41.85c9.65,4.33,12.29,15.96,12.48,25.64-1.67-9.5-5.56-18.8-12.48-25.64Z"/>
              <path class="cls-14" d="M135.58,47.29c8.55,5.17,12.92,15.42,12.93,25.18-2.12-9.35-5.72-18.62-12.93-25.18Z"/>
              <path class="cls-14" d="M137.17,58.18c3.21,3.24,6.27,7.13,7.83,11.46.26.71.92,2.36.57,3.06-1.77-5.41-4.95-10.08-8.39-14.52Z"/>
            </g>
          </g>
          <path class="cls-3" d="M100.75,62.72c-10.37,6.22-21.87,10.81-33.92,12.48.82-.91,3.1-1.2,4.42-1.59,10.99-3.26,21.82-7.21,31.88-12.71l-2.38,1.82Z"/>
          <path class="cls-7" d="M86.91,63.63c-3.52,1.21-6.97,2.16-10.55,3.18-.34.1-.91.19-.79.68-2.56.25-6.11.64-8.05-1.36,2.57.04,5.18-.06,7.71-.45,3.23-.5,7.64-2.41,10.44-2.72.54-.06,1.27-.13,1.25.68Z"/>
        </g>
        <g>
          <path class="cls-4" d="M62.41,123.3c-6.05,4.41-12.09,11.76-10.89,19.74-.1.08-.95.7-1.13.45-2.18-7.05-.42-11.71,3.86-17.24,1.52-.99,3.3-.93,5.1-1.82,1.5-.74,3.01-2.29,4.42-3.18.66.3-1.2,1.86-1.36,2.04Z"/>
          <path class="cls-11" d="M88.28,136.23c-.07,3.34.5,6.74.23,10.1-.14,1.69-.81,2.98-1.13,4.42-.93-.05-1.81.56-2.27.91-1.66.35-4,2.39-5.22,3.63.2-1.02-2.31-1.92-3.29-2.72-7.46-6.09-9.53-14.7-5.33-23.48-.46-.34-.61,0-.91.23-3.29,2.63-5.59,7.82-6.24,11.91-.84-2.22-.5-4.91.11-7.15-1.12.07-.82,2.52-1.82,2.95,1.64-8.23,7.57-14.85,13.84-20.08,2.2,8.04,6.01,13.63,12.02,19.29Z"/>
          <path class="cls-11" d="M64.91,96.07c0,.41.19,1.42.23,2.04.27,4.83.57,9.54,4.31,13.16-7.38-.55-14.88-12.98-4.54-15.2Z"/>
          <g>
            <path class="cls-9" d="M73.76,83.14c-.18.73-.12,3.8-.23,3.97-.07.12-2.04.13-.68,1.47-.24.33-.55.18-.45.68-.12-.15-3.21-1.33-3.52-1.36-4.75-.45-3.98,4.92-3.97,8.17-10.34,2.22-2.84,14.65,4.54,15.2.08.08.18.19.23.23-1.9,3.49-7.19,4.61-10.89,5.22-7.42-7.52-5.6-18.09-.68-26.43,0-.67-.59.13-.68.23-.59.65-1.55,2.25-2.04,3.06-3.37,5.54-4.97,11.49-1.82,17.47,1.3,2.46,2.88,4.39,5.22,5.9,1.34.86,2.48,1.6,4.08,1.93-4.26,3.03-10.47,2.88-15.43,1.93-4.76-6.24-5.47-17.71-.68-24.16,2.45-3.3,10.37-8.47,10.89-12.82,5.34,1.31,10.83.55,16.11-.68Z"/>
            <path class="cls-19" d="M58.78,116.72v.23c-2.34-1.51-3.92-3.43-5.22-5.9-.9-2.77-1.02-5.61-.91-8.51l2.72-8.96c.49-.81,1.45-2.42,2.04-3.06.09-.1.68-.9.68-.23-4.92,8.34-6.74,18.91.68,26.43Z"/>
            <path class="cls-3" d="M51.41,95.39c.44.3.23.41.11.79-.31,1-2.18,3.39-2.72,4.76-1.58,4.02-1.66,7.9-2.16,12.14-1.86-6.47-.77-13.46,4.76-17.7Z"/>
            <path class="cls-14" d="M53.56,111.05c-3.16-5.98-1.55-11.93,1.82-17.47l-2.72,8.96c-.11,2.9,0,5.74.91,8.51Z"/>
          </g>
          <path class="cls-3" d="M62.64,155.52c-7.66-11.42-6.27-16.84.68-27.45-3.39,6.16-4.87,12.88-3.4,19.85l2.72,7.6Z"/>
          <g>
            <path class="cls-4" d="M75.34,113.09c.3,1.26.57,2.62.91,3.86-6.26,5.23-12.19,11.85-13.84,20.08.99-.43.69-2.88,1.82-2.95-.61,2.24-.96,4.93-.11,7.15.65-4.1,2.94-9.28,6.24-11.91.29-.23.45-.57.91-.23-4.2,8.78-2.13,17.39,5.33,23.48.98.8,3.49,1.7,3.29,2.72-.9.92-2.87,3.42-3.4,4.54-1.98-.3-4.66,2.12-6.58,1.36-.04-.01.07-.52-.34-.68-2.12-.85-4.43-1.41-6.24-2.95.13.03,1.1.24,1.13.11-.74-.62-1.28-1.36-1.82-2.16l-2.72-7.6c-1.47-6.97.02-13.7,3.4-19.85,1.16-1.77.67-1.05,1.13-2.61.33-1.09,2.08-5.06-.11-4.88-.21.08-.53.66-.57.68-1.41.88-2.92,2.44-4.42,3.18-1.81.88-3.59.83-5.1,1.82.19-.25,1.17-1.21,1.02-1.36-3.92-.46-5.48-1.01-7.83-4.08,4.96.95,11.17,1.11,15.43-1.93-1.6-.33-2.74-1.07-4.08-1.93v-.23c3.7-.61,8.99-1.73,10.89-5.22,1.58,1.37,3.57,2.36,5.67,1.59Z"/>
            <path class="cls-7" d="M64.11,141.68l10.44,15.2c-5.12-3.26-11.52-8.4-10.44-15.2Z"/>
          </g>
          <g>
            <path class="cls-11" d="M133.43,152.57c-1.11-.78-2.62-1.43-3.86-2.04-.72-4.47-1.63-8.48-1.13-13.16,5.12-4.65,10.04-11.21,12.48-17.7,2.57,10.23,2.17,20.22-4.54,28.7-.87,1.1-3.97,2.99-2.95,4.2Z"/>
            <path class="cls-19" d="M144.09,115.59c1.15,3.52,3.32,8.95,1.36,12.25-.04-1.42-.24-3.46-.45-4.88-.34-2.31-1.56-4.8-1.59-7.15.21-.07.47-.15.68-.23Z"/>
            <g>
              <path class="cls-4" d="M137.28,156.2c-1.01-1.2-2.59-2.74-3.86-3.63-1.02-1.21,2.08-3.09,2.95-4.2,6.7-8.48,7.1-18.47,4.54-28.7.18-.49.67-3.74.91-3.97.43-.42,1.11.26,1.59.11.03,2.35,1.24,4.84,1.59,7.15.21,1.42.42,3.46.45,4.88.16,6.15-1.62,11.88-4.76,17.13,7.17-7.82,8.35-20.13,3.86-29.61.03-.01.16-.26.45-.45.4-.27,1.79-1.48,2.04-1.82,8.23,12.52,9.67,28.29-.45,40.27-.74.88-6.22,5.94-6.92,5.79-.18-.04-1.58-2.86-2.38-2.95Z"/>
              <path class="cls-7" d="M144.54,115.36c4.49,9.48,3.32,21.79-3.86,29.61,3.15-5.25,4.92-10.98,4.76-17.13,1.96-3.3-.21-8.74-1.36-12.25.02,0,.35-.18.45-.23Z"/>
              <path class="cls-19" d="M149.99,121.03c.22,3.07.83,6.06.68,9.19-.2,4.15-1.53,8.29-2.95,12.14-.59-.18-.5-.79-.45-1.25.33-3.38,1.98-7.27,2.27-10.89s-.03-7.42-.45-10.89c.75.09.75,1.29.91,1.7Z"/>
              <path class="cls-3" d="M147.72,142.36c1.42-3.85,2.75-7.98,2.95-12.14.15-3.12-.46-6.12-.68-9.19,2.89,7.36,1.21,18.63-3.4,25.07-.05.08-.69.9-.68.23.94-1.21,1.3-2.58,1.82-3.97Z"/>
            </g>
          </g>
          <path class="cls-7" d="M62.41,123.3c-5.53,6.29-8.42,9.59-10.44,18.04-.11.47.14,1.45,0,1.82-.18.48-.44-.13-.45-.11-1.2-7.98,4.84-15.33,10.89-19.74Z"/>
          <g>
            <path class="cls-31" d="M63.32,128.06c-6.95,10.62-8.34,16.03-.68,27.45.53.8,1.07,1.53,1.82,2.16-.04.13-1.01-.08-1.13-.11-4.58-1.22-11.54-9.57-12.93-14.07.19.24,1.04-.38,1.13-.45.02-.01.27.59.45.11.14-.37-.11-1.34,0-1.82,2.02-8.45,4.9-11.74,10.44-18.04.16-.18,2.02-1.74,1.36-2.04.04-.03.36-.6.57-.68,2.19-.18.44,3.78.11,4.88-.47,1.56.03.84-1.13,2.61Z"/>
            <path class="cls-3" d="M57.31,133.06l-1.7,6.69-.34,7.83c-1.65-4.85-.58-10.24,2.04-14.52Z"/>
          </g>
        </g>
      </g>
      <g>
        <path class="cls-25" d="M133.43,152.57c1.27.89,2.84,2.43,3.86,3.63.38.44,2.53,3.46,2.72,3.86.13.26.36.67.45.91.24.6.47,2.16.68,2.95.31,1.14.41,2.65.68,3.86.05.21.18.25.23.45.84,3.75,1.64,8.01,2.27,11.8.42,2.52,1.47,7.21,1.36,9.53-1.3-.55-2.3-1.52-3.63-2.04l-10.78-6.81c-.31.06-.75.66-.79.68-1.07.6-2.36,1.74-3.4,2.5-6.34,4.61-12.08,9.97-17.7,15.43.1-1.09,9.92-16.16,11.34-18.72,3.45-6.22,10.51-18.71,9.98-25.64-.1-1.27-.92-3.12-1.13-4.42,1.23.61,2.74,1.26,3.86,2.04Z"/>
        <path class="cls-25" d="M85.1,151.66c-2.35,1.77-.48,3.61.23,5.9.99,3.19,2.08,6.24,3.4,9.3,5.11,11.82,12.5,22.91,19.29,33.81-.15,6.57-1.76,13.49-.91,19.97-1.23-1.06-2.35-2.4-3.4-3.63-.15-.17-.34-.31-.45-.45-.77-.91-1.53-1.99-2.27-2.95-.06-.08-.17-.38-.23-.45-.74-.97-1.57-1.96-2.27-2.95-.07-.1-.16-.36-.23-.45-.62-.89-1.22-1.81-1.82-2.72-.19-.29-.44-.43-.45-.45-.66-1.02-1.42-2.15-2.04-3.18-.05-.08-.09-.22-.23-.45-.61-1.02-1.23-2.14-1.82-3.18-.06-.11-.11-.25-.23-.45-.49-.88-.89-1.83-1.36-2.72-.13-.25-.38-.54-.45-.68-.49-.93-.89-1.99-1.36-2.95-.12-.25-.4-.56-.45-.68-.51-1.05-1.1-2.13-1.59-3.18-.06-.12-.06-.32-.23-.68-.35-.77-.84-1.59-1.13-2.27-.03-.06.03-.16,0-.23.14-.02.4.04.45,0l21.21,13.61c-5.12-5.95-11.22-11.07-17.58-15.66-1.18-.85-2.06-1.78-3.4-2.5-.16-.09-.41-.92-1.02-.68-3.01,2.05-6.1,3.98-9.19,5.9-1.58.98-3.23,1.88-4.76,2.95.06-2.81.7-5.83,1.13-8.62s1.02-5.77,1.59-8.62c.28-1.38.6-2.72.91-4.08.26-1.13.38-2.26.68-3.4.45-1.7.57-3.34,1.36-4.99.53-1.12,2.5-3.62,3.4-4.54,1.21-1.24,3.56-3.28,5.22-3.63Z"/>
        <path class="cls-1" d="M83.51,186.37c-2.69,2-5.18,1.38-2.61,5.22l5.33-3.18c.16.36.17.56.23.68-2.46,2.44-7.14,2.23-3.52,6.35l5.1-3.18c.06.12.33.43.45.68-1.45.76-5.56,2.49-5.22,3.97,1.04,4.52,4.21-.34,6.58-1.02.07.14.32.43.45.68-2.62,1.57-7.71,2.97-3.52,6.13l4.88-3.4c.11.2.17.35.23.45-.34,1.02-4.91,3.32-4.99,3.74-.03.13,1.04,2.4,1.13,2.5.93.93,4.53-2.49,5.67-3.06.14.23.18.37.23.45-1.59,2.49-6.86,2.63-3.86,6.01,1.23,1.39,4.21-2.59,5.9-2.84.02.03.26.16.45.45-1.02.67-5.41,3.24-5.22,4.2.03.15,1.65,2.07,1.93,2.38l5.1-3.86c.07.1.16.36.23.45l-5.22,3.97.45.79c3.55,6.57,9.18,11.73,14.41,17.02,3.57-3.38,6.95-6.88,10.1-10.66s5.84-8.73,8.85-12.37c.32-.38.58-.67,1.13-.57-1.49,3.58-6.56,10.49-9.08,13.73-1.12,1.43-10.2,11.99-11,11.91-13.4-12.37-23.93-27.85-29.61-45.26l-1.7.79c-.48-.22-.26-.75-.34-.91.61-.18,1.23-.44,1.82-.68.53-.22.64-.44.68-.45,1.41-.58,3.03-.89,4.54-1.13Z"/>
        <path class="cls-15" d="M132.29,200.67c-1.19,2.57-2.25,5.29-4.08,7.49.01-.03-.61.11-.45-.34.2-.58,1.45-1.71,1.25-2.61-.36.24-.76,1.55-1.13,1.59-.32.03-4.49-3.41-5.33-3.63.61-1.03,1.23-2.13,1.82-3.18.27.69,5.34,4.06,5.67,3.52l-5.45-3.97c.59-1.06.96-2.27,1.82-3.18.15,1.19,4.84,3.34,5.9,4.31Z"/>
        <path class="cls-1" d="M128.21,208.15c-.03.07.03.16,0,.23-.56-.11-.82.18-1.13.57-3.01,3.64-5.57,8.42-8.85,12.37-.23-.08-.27-.28-.45-.45-1.47-1.36-3.52-2.43-4.99-3.86.16-.18.3-.5.45-.68l4.88,4.08c.31-.36,2.4-2.65,2.38-2.84-.03-.32-4.75-2.92-4.99-3.97.14-.18.22-.21.23-.23.87.2,4.54,3.59,4.88,3.63.74.08,1.78-2.23,2.38-2.61l-4.99-4.2c.15-.22.22-.21.23-.23l4.88,3.63.57-.11c.09-.84,1.8-2.08,1.47-2.84-.17-.4-4.59-2.75-5.1-3.63.19-.3.44-.43.45-.45.74.34,4.79,3.64,5.1,3.63.51-.02,1.62-2.49,2.16-2.84l-5.45-3.74c.05-.08.09-.22.23-.45.84.22,5.01,3.66,5.33,3.63.37-.04.78-1.35,1.13-1.59.2.9-1.05,2.03-1.25,2.61-.16.45.46.31.45.34Z"/>
        <path class="cls-1" d="M135.92,191.82c-1.09,3.05-2.27,5.91-3.63,8.85-1.06-.97-5.75-3.12-5.9-4.31,0-.08,0-.15,0-.23l5.45,3.06c2.77-3.74-1.43-3.99-3.86-6.01.07-.16.12-.43.23-.68l5.1,3.18c3.98-4.04-1.35-3.61-3.52-6.35.07-.16.16-.32.23-.45,1.79.91,3.86,3.19,5.9,2.95Z"/>
        <path class="cls-15" d="M136.83,189.32c-.27.84-.61,1.67-.91,2.5-2.04.24-4.11-2.04-5.9-2.95.41-.88.65-1.87,1.13-2.72v-.23c.06.03.17-.03.23,0,1.81,1.03,3.37,2.56,5.45,3.4Z"/>
        <path class="cls-15" d="M133.2,185.92c.98.03,2.16.31,3.18.45.14.02,1.15.66,1.25.68.06.01.62-.69.68-.68.65.13,3.11.89,3.74,1.13,1.33.52,2.33,1.49,3.63,2.04-.02.41.17,1.68-.34,1.82-1.04-.77-6.64-4.33-7.49-4.08-.35.1-.42,1-.79,1.13-1.09-.7-3.19-1.38-4.42-2.04-.23-.97.36-.46.57-.45Z"/>
        <path class="cls-15" d="M76.02,187.28c.12.28.17,1.03.23,1.13l-5.33,2.95c-.39.01-.12-1.57-.11-1.82,1.53-1.07,3.18-1.97,4.76-2.95-.02.22.44.64.45.68Z"/>
        <path class="cls-1" d="M133.2,185.92c-.21,0-.8-.52-.57.45,1.24.66,3.33,1.34,4.42,2.04.39.25,1.09,1.27,1.82,1.47-.59-.03-1.5-.35-2.04-.57-2.08-.84-3.63-2.38-5.45-3.4-.18-.43.18-.59.23-.68.42.6,1.7-.24,1.59.68Z"/>
        <path class="cls-1" d="M78.29,187.96c-.59.24-1.21.5-1.82.68,0-.01-.08.07-.23-.23-.05-.11-.11-.86-.23-1.13,1.51-.61,2.03-1.68,2.27.68Z"/>
        <path class="cls-28" d="M131.16,185.92v.23c-7.99,3.27-14.85,8.62-21.78,13.61,0-.15-.01-.31,0-.45,5.61-5.45,11.36-10.81,17.7-15.43,1.31.74,2.77,1.31,4.08,2.04Z"/>
        <path class="cls-33" d="M142.05,187.51c-.63-.25-3.1-1-3.74-1.13-.06-.01-.62.69-.68.68-.1-.02-1.11-.66-1.25-.68-1.15-1.11-2.39-2.17-3.63-3.18-.76-.61-1.62-1.08-2.27-1.82.05-.03.48-.62.79-.68l10.78,6.81Z"/>
        <path class="cls-30" d="M132.75,183.2c-.54.45-.81,1.39-1.13,2.04-.05.09-.41.25-.23.68-.06-.03-.17.03-.23,0-1.31-.73-2.77-1.3-4.08-2.04,1.04-.76,2.33-1.9,3.4-2.5.64.74,1.51,1.2,2.27,1.82Z"/>
        <path class="cls-15" d="M107.11,220.63c.3.26.75,1.19,1.25,1.13.86-.77,1.59-1.67,2.38-2.5.69-.71,1.4-1.52,2.04-2.27,1.47,1.42,3.52,2.5,4.99,3.86-1.64,1.72-6.38,7.52-8.51,7.94-3.76.74-8.43-5.28-10.55-7.94l4.99-3.86c1.06,1.23,2.17,2.57,3.4,3.63Z"/>
        <path class="cls-28" d="M85.55,185.92c1.16-.81,2.48-1.22,3.63-2.04,6.36,4.58,12.46,9.71,17.58,15.66l-21.21-13.61Z"/>
        <path class="cls-21" d="M110.74,219.27c-.79.83-1.52,1.73-2.38,2.5-.5.05-.95-.88-1.25-1.13-.85-6.48.76-13.39.91-19.97h.23l1.36,18.72,1.13-.11Z"/>
        <path class="cls-10" d="M100.98,213.6l-4.99,3.74c-.31.97,2.21,2.48,2.5,2.84.07.09-.31,0,.23.68,2.12,2.66,6.79,8.68,10.55,7.94,2.13-.42,6.87-6.22,8.51-7.94.18.17.22.38.45.45-3.15,3.78-6.52,7.29-10.1,10.66-5.23-5.29-10.86-10.45-14.41-17.02.71.18,1.22,2.11,1.93,2.04.32-.03,4.24-3.61,5.1-3.86.06.08.17.38.23.45Z"/>
        <path class="cls-15" d="M100.75,213.15c-.87.25-4.79,3.83-5.1,3.86-.71.07-1.22-1.86-1.93-2.04l-.45-.79,5.22-3.97c.7.99,1.53,1.98,2.27,2.95Z"/>
        <path class="cls-15" d="M103.25,216.55l-4.76,3.63c-.28-.36-2.8-1.87-2.5-2.84l4.99-3.74c.73.96,1.5,2.04,2.27,2.95Z"/>
        <path class="cls-15" d="M96.44,207.02c.6.91,1.19,1.83,1.82,2.72l-5.1,3.86c-.28-.32-1.9-2.23-1.93-2.38-.19-.96,4.2-3.53,5.22-4.2Z"/>
        <path class="cls-15" d="M95.99,206.57c-1.69.25-4.67,4.22-5.9,2.84-3-3.38,2.27-3.52,3.86-6.01.62,1.03,1.38,2.15,2.04,3.18Z"/>
        <path class="cls-15" d="M93.72,202.94c-1.15.57-4.74,3.99-5.67,3.06-.1-.1-1.16-2.36-1.13-2.5.08-.42,4.65-2.73,4.99-3.74.58,1.04,1.21,2.16,1.82,3.18Z"/>
        <path class="cls-15" d="M88.5,192.95c.47.96.87,2.02,1.36,2.95-2.37.68-5.54,5.54-6.58,1.02-.34-1.48,3.77-3.22,5.22-3.97Z"/>
        <path class="cls-15" d="M90.32,196.58c.47.89.87,1.85,1.36,2.72l-4.88,3.4c-4.19-3.15.9-4.56,3.52-6.13Z"/>
        <path class="cls-15" d="M88.05,192.27l-5.1,3.18c-3.62-4.12,1.06-3.91,3.52-6.35.49,1.05,1.07,2.12,1.59,3.18Z"/>
        <path class="cls-15" d="M85.1,186.15c.3.68.78,1.5,1.13,2.27l-5.33,3.18c-2.57-3.84-.08-3.22,2.61-5.22.53-.08,1.04-.26,1.59-.23Z"/>
        <path class="cls-22" d="M85.1,185.92c.03.06-.03.16,0,.23-.55-.03-1.06.14-1.59.23-1.51.24-3.13.55-4.54,1.13-.22-.51-.68-.96-.34-1.59.15-.27,4.53-2.66,5.33-3.18.27,1.05.7,2.18,1.13,3.18Z"/>
        <path class="cls-23" d="M85.78,181.38c-.48.59-1.19.96-1.82,1.36-.8.52-5.18,2.9-5.33,3.18-.34.63.12,1.08.34,1.59-.04.02-.15.24-.68.45-.24-2.36-.76-1.29-2.27-.68-.02-.04-.48-.47-.45-.68,3.09-1.92,6.18-3.85,9.19-5.9.61-.24.86.6,1.02.68Z"/>
        <path class="cls-2" d="M89.18,183.88c-1.15.82-2.47,1.24-3.63,2.04-.05.04-.31-.02-.45,0-.43-.99-.86-2.12-1.13-3.18.62-.4,1.34-.77,1.82-1.36,1.34.71,2.22,1.64,3.4,2.5Z"/>
        <path class="cls-21" d="M87.37,150.75c-.52,2.32-1.13,4.61-2.04,6.81-.71-2.29-2.57-4.12-.23-5.9.46-.35,1.34-.95,2.27-.91Z"/>
        <path class="cls-1" d="M103.7,217l-4.99,3.86c-.54-.68-.16-.59-.23-.68l4.76-3.63c.12.14.3.28.45.45Z"/>
        <path class="cls-25" d="M131.16,186.15c-.48.85-.72,1.84-1.13,2.72-.06.14-.15.29-.23.45-.49,1.06-1.11,2.1-1.59,3.18-.11.25-.16.53-.23.68-.27.65-1.55,2.37-1.59,2.95,0,.08,0,.15,0,.23-.85.91-1.23,2.11-1.82,3.18-.08.14-.15.31-.23.45-.58,1.05-1.2,2.15-1.82,3.18-.14.23-.18.37-.23.45-.58.96-1.21,2.01-1.82,2.95-.02.03-.26.16-.45.45-.62.95-1.17,2.03-1.82,2.95,0,.01-.08.01-.23.23-.73,1.03-1.51,2.18-2.27,3.18,0,.01-.09.05-.23.23-.71.92-1.52,1.83-2.27,2.72-.15.18-.3.5-.45.68-.65.75-1.36,1.55-2.04,2.27l-1.13.11-1.36-18.72c.11-.61.88-.72,1.13-.91,6.93-4.99,13.79-10.34,21.78-13.61Z"/>
        <path class="cls-1" d="M124.35,199.99c.08-.14.15-.31.23-.45l5.45,3.97c-.33.54-5.41-2.82-5.67-3.52Z"/>
        <path class="cls-15" d="M115.73,213.37c.76-1,1.54-2.14,2.27-3.18l4.99,4.2c-.61.38-1.65,2.69-2.38,2.61-.33-.04-4.01-3.43-4.88-3.63Z"/>
        <path class="cls-15" d="M113.23,216.32c.75-.89,1.56-1.8,2.27-2.72.24,1.05,4.96,3.65,4.99,3.97.02.18-2.07,2.47-2.38,2.84l-4.88-4.08Z"/>
        <path class="cls-15" d="M120.49,206.57c.6-.94,1.24-1.99,1.82-2.95l5.45,3.74c-.53.34-1.64,2.82-2.16,2.84-.31.01-4.36-3.29-5.1-3.63Z"/>
        <path class="cls-15" d="M118.22,209.97c.64-.92,1.19-2,1.82-2.95.52.88,4.93,3.23,5.1,3.63.33.75-1.39,2-1.47,2.84l-.57.11-4.88-3.63Z"/>
        <path class="cls-15" d="M128.21,192.5c.48-1.08,1.1-2.12,1.59-3.18,2.17,2.74,7.5,2.31,3.52,6.35l-5.1-3.18Z"/>
        <path class="cls-15" d="M126.39,196.13c.04-.58,1.31-2.3,1.59-2.95,2.43,2.03,6.63,2.28,3.86,6.01l-5.45-3.06Z"/>
        <path class="cls-22" d="M136.38,186.37c-1.01-.14-2.2-.43-3.18-.45.12-.92-1.17-.08-1.59-.68.33-.65.59-1.59,1.13-2.04,1.24,1,2.48,2.07,3.63,3.18Z"/>
      </g>
      <g>
        <path class="cls-5" d="M149.31,107.64c-.61,1.92-1,3.78-2.27,5.45-.25.33-1.64,1.54-2.04,1.82-.97-.41-1.85,1.3-2.95.11,1.29-2.71.92-7.17,1.82-9.76.29-.85,2.73-2.81,1.7-3.06l-1.25.34c-.09-3.73.23-9.82,5.56-8.74.99,1.26-.83,9.95-1.93,11.46-.66.91-3.17,1.75-3.4,2.5-.21.66-.13,3.69.57,3.97,1.77.71,3.29-3.05,4.2-4.08Z"/>
        <path class="cls-8" d="M128.43,137.37c-.49,4.68.41,8.68,1.13,13.16.21,1.3,1.04,3.15,1.13,4.42.53,6.93-6.53,19.42-9.98,25.64-1.42,2.56-11.25,17.63-11.34,18.72-.01.15,0,.3,0,.45-.25.18-1.02.3-1.13.91h-.23c-6.79-10.9-14.18-21.99-19.29-33.81,1.58-1.46,4.39-1.87,6.47-2.72,10.66-4.41,20.74-10.55,28.25-19.4.59-.7,4.44-5.32,4.54-5.67.12-.42-.38-.78-.23-1.25.34-.3.65-.43.68-.45Z"/>
        <path class="cls-16" d="M127.75,137.82c-.15.47.35.83.23,1.25-.1.35-3.95,4.98-4.54,5.67-7.51,8.85-17.58,14.99-28.25,19.4-2.07.86-4.89,1.26-6.47,2.72-1.32-3.06-2.42-6.11-3.4-9.3.91-2.2,1.52-4.49,2.04-6.81.32-1.44,1-2.74,1.13-4.42.28-3.35-.3-6.76-.23-10.1,14.56,13.69,23.98,15.2,39.48,1.59Z"/>
        <path class="cls-17" d="M110.51,94.49c.67,1.62-.17,3.36-.23,5.1s-.08,3.55,0,5.22,1.51,8.09,1.36,8.85c-.43,2.12-5.41,1.72-5.9.23-.19-.57,1.06-6.59,1.13-7.94.13-2.25.17-6.23-.23-8.39-.07-.36-.14-1.23-.91-.79.79-2.2,2.1-3.28,4.76-2.27Z"/>
        <g>
          <path class="cls-5" d="M66.5,99.7c.13,5.51,2.56,5.34,7.49,5.9.62,2.48.79,5.05,1.36,7.49-2.1.77-4.1-.22-5.67-1.59-.04-.04-.15-.15-.23-.23-3.74-3.62-4.04-8.33-4.31-13.16.6,1.01-.4,1.85,1.36,1.59Z"/>
          <path class="cls-16" d="M72.62,93.8c.11,1.33.41,2.77.45,4.08-.65-.78-4.22-7.04-5.22-3.74-.87,2.86,1.09,2.23,2.38,3.29,1.03.84,1.64,2.06,2.61,2.95-1.18,1.57-1.25-.22-2.72.79.72.57,3.54,2.06,3.86,2.72.11.23-.07,1.41,0,1.7-4.93-.56-7.36-.38-7.49-5.9-.02-.87.12-6.81.23-7.15.8-2.47,4.73,1.01,5.9,1.25Z"/>
          <path class="cls-5" d="M72.39,89.27c.29.37.41,2.33.45,2.95,0,.08-.28,1-.23,1.59-1.17-.24-5.1-3.72-5.9-1.25-.11.34-.25,6.28-.23,7.15-1.76.26-.76-.58-1.36-1.59-.04-.62-.23-1.63-.23-2.04,0-3.25-.78-8.62,3.97-8.17.31.03,3.4,1.21,3.52,1.36Z"/>
          <path class="cls-20" d="M73.07,97.89c.04,1.2.51,1.51-.23,2.5-.97-.89-1.58-2.11-2.61-2.95-1.29-1.06-3.25-.43-2.38-3.29,1-3.29,4.57,2.97,5.22,3.74Z"/>
        </g>
        <path class="cls-5" d="M124.12,54.1c9.57,6.39,16.85,16.91,19.51,28.13-2.22-2.64-3.55-6.21-5.45-9.19-1.54-2.42-11.27-15.7-13.5-15.77-8.71,6-17.51,11.81-27.23,16.11l-12.82,5.22c-.25.07-.7-.08-.91,0l-9.3,2.95c.25-.86.3-1.01.68-1.82,16.97-4.6,34.96-11.24,47.19-24.28.5-.41,1.44-1.03,1.82-1.36Z"/>
        <path class="cls-5" d="M75.12,79.74c.18-.39.24-1.39.68-1.82.67-.65,11.49-3.57,13.5-4.31,11.38-4.2,23.66-10.37,33.01-18.15-12.23,13.04-30.23,19.67-47.19,24.28Z"/>
        <g>
          <path class="cls-26" d="M149.31,107.64c-.91,1.04-2.42,4.79-4.2,4.08-.7-.28-.77-3.31-.57-3.97.23-.74,2.74-1.59,3.4-2.5,1.09-1.51,2.92-10.2,1.93-11.46-5.33-1.08-5.64,5.01-5.56,8.74l1.25-.34c1.03.25-1.41,2.22-1.7,3.06-.9,2.59-.52,7.05-1.82,9.76,1.1,1.19,1.98-.53,2.95-.11-.29.2-.43.44-.45.45-.1.05-.43.22-.45.23-.21.07-.47.16-.68.23-.48.15-1.16-.53-1.59-.11-.24.23-.72,3.48-.91,3.97-2.44,6.49-7.36,13.04-12.48,17.7-.03.03-.34.15-.68.45-15.5,13.62-24.92,12.1-39.48-1.59-6.01-5.65-9.83-11.25-12.02-19.29-.34-1.24-.61-2.6-.91-3.86-.57-2.44-.75-5.01-1.36-7.49-.07-.29.11-1.47,0-1.7-.32-.66-3.14-2.15-3.86-2.72,1.47-1.01,1.54.78,2.72-.79.74-.98.27-1.29.23-2.5-.05-1.31-.34-2.75-.45-4.08-.05-.59.23-1.51.23-1.59,3.88,4.96,2.7,13.44,8.96,17.02,4.48,2.56,13.49,2.32,17.7-.68s4.74-7.63,6.24-11.8c.76-.43.84.44.91.79.4,2.17.36,6.14.23,8.39-.08,1.35-1.32,7.37-1.13,7.94.49,1.49,5.47,1.9,5.9-.23.15-.76-1.28-7.16-1.36-8.85s-.05-3.54,0-5.22.9-3.49.23-5.1c1.55.59,1.99,5.11,2.72,6.92,1.98,4.92,5.36,8.57,10.78,9.42,16.24,2.52,16.03-8.02,20.99-19.17.55-1.23-.74-2.22,2.5-2.61,1.73-.21,3.71.47,4.08,2.38.78,3.99-1.01,12.24-2.27,16.22Z"/>
          <g>
            <path class="cls-16" d="M101.32,112.86c.15,1.04-.46,2.09.45,2.95,2.76-2.65,4.49,1.47,7.71,1.13.39-.04,6.45-3.4,6.24-1.25-.02.22-3.71,2.07-3.97,2.16-4.58,1.57-4.77.02-8.39-1.59-1.53-.67-3.83.38-2.04-3.4Z"/>
            <path class="cls-16" d="M94.74,116.49l-3.74,3.06-.11,2.61c-2.62-3.67,1.25-4.41,3.86-5.67Z"/>
            <path class="cls-5" d="M116.07,112.86c.7,1.02.99,2.41.23,3.4l-.23-3.4Z"/>
            <g>
              <path class="cls-18" d="M124.8,121.48c-1.23.35-2.42.78-3.63,1.13-3.36.98-6.52,1.91-10.1,2.04-4.75.18-9.32-.84-13.95-1.59-.9-.75-3.49-1.42-4.76-1.36-.28-.23-1.09-.33-1.02-.91,4.76.87,9.67.74,14.52.91,4.02.13,5.46.01,9.53-.23,3.1-.18,6.32.01,9.42,0Z"/>
              <path class="cls-34" d="M118.68,130.33c-6.37,5.45-13.53,5.69-19.74-.23,5.89,4.19,13.7,3.95,19.74.23Z"/>
              <path class="cls-12" d="M125.49,122.17l-6.81,3.86c.77-.59,1.9-2.53,2.5-3.4,1.21-.35,2.4-.79,3.63-1.13.22-.06,1.71-.83,1.82-.57-.31.51-.78.68-1.13,1.25Z"/>
              <path class="cls-12" d="M97.12,123.07c.42.35,1.91,2.8,2.5,3.4-1.8-.8-4.07-2.25-5.67-3.4-.49-.35-1.09-.95-1.59-1.36,1.28-.06,3.86.61,4.76,1.36Z"/>
              <path class="cls-16" d="M123.78,117.63c2.78,1.11,6.45,2.05,2.95,5.22,1.54-3.95-.64-3.1-2.95-5.22Z"/>
              <path class="cls-25" d="M121.17,122.62c-.6.88-1.73,2.81-2.5,3.4-4.58,3.51-14.04,2.69-19.06.45-.58-.61-2.08-3.06-2.5-3.4,4.63.75,9.21,1.77,13.95,1.59,3.58-.13,6.73-1.06,10.1-2.04Z"/>
              <g>
                <path class="cls-18" d="M125.49,122.17c-1.9,3.09-4.03,5.79-6.81,8.17-6.04,3.72-13.85,3.96-19.74-.23-1.46-1.04-2.88-2.72-3.86-4.2-.38-.57-1.39-2.11-1.13-2.84,1.6,1.15,3.87,2.6,5.67,3.4,5.01,2.24,14.48,3.06,19.06-.45l6.81-3.86Z"/>
                <path class="cls-29" d="M99.73,127.38l7.37,2.61c-.3,1.43-7.26-.98-7.37-2.61Z"/>
              </g>
            </g>
          </g>
        </g>
        <path class="cls-32" d="M83.74,78.6c.21-.08.65.07.91,0,3.24-.84,7.87-.47,11,.68,1.74.64,4.65,2.15,3.52,4.42-.85.67-9.48-3.29-11.23-3.52-3.15-.41-6.24.66-8.85,2.27.72-.94,3.74-3.51,4.65-3.86Z"/>
        <g>
          <path class="cls-26" d="M143.64,82.23c.26,1.1.3,4.49.45,4.88.19.46,1.92.35.79,1.47-5.24-3.76-14.05-3.96-20.42-2.95-4.39.69-8.52,3.05-12.93,3.4-8.72.69-32.31-9.02-38.68-.45-1.36-1.34.61-1.36.68-1.47.1-.17.04-3.24.23-3.97.09-.37.54-1.11.68-1.59l9.3-2.95c-.91.34-3.93,2.92-4.65,3.86,2.61-1.61,5.7-2.68,8.85-2.27,1.75.23,10.39,4.19,11.23,3.52,1.14-2.28-1.78-3.79-3.52-4.42-3.13-1.15-7.77-1.52-11-.68l12.82-5.22c9.71-4.3,18.51-10.11,27.23-16.11,2.23.07,11.96,13.35,13.5,15.77,1.9,2.98,3.22,6.55,5.45,9.19Z"/>
          <path class="cls-32" d="M127.19,78.15c5.09-.41,8.49.67,11.91,4.42-2.79-1.65-5.59-2.8-8.96-2.38-1.88.23-10.42,3.96-11.34,3.63-.5-.18-.66-1.46-.57-1.93.41-1.96,7.19-3.6,8.96-3.74Z"/>
        </g>
        <g>
          <path class="cls-11" d="M131.61,56.14c-.11.3-.52.45-.34.68,9.67,4.56,17.57,20.83,16.45,31.08-.04.41-.13.74-.23,1.13-3.23.39-1.95,1.38-2.5,2.61-4.96,11.15-4.74,21.69-20.99,19.17-5.42-.84-8.8-4.49-10.78-9.42-.73-1.81-1.17-6.33-2.72-6.92-2.67-1.02-3.97.06-4.76,2.27-1.5,4.17-2.19,8.91-6.24,11.8s-13.21,3.24-17.7.68c-6.27-3.57-5.09-12.06-8.96-17.02-.05-.62-.17-2.58-.45-2.95-.1-.5.21-.35.45-.68,6.37-8.56,29.96,1.14,38.68.45,4.41-.35,8.54-2.71,12.93-3.4,6.37-1.01,15.18-.81,20.42,2.95,1.12-1.13-.6-1.01-.79-1.47-.16-.39-.19-3.78-.45-4.88-2.66-11.22-9.94-21.75-19.51-28.13.36-.32.77-.78,1.13-1.13,1.16.77,4.29,3.2,5.45,3.52.39.11.46-.5.91-.34Z"/>
          <g>
            <path class="cls-26" d="M120.27,88.81l-1.36,3.29,1.36-.57c-1.16,1.25-2.58,3.97-2.72,5.67,0,.03-.62.44,0,.68.14.6.59.37.91.45-.2.41.9.67,1.02.68,3.87.45,13.52.88,16-2.61.31-.44.37-1.58.68-2.04.6-.9,2.9-1.83,2.16-3.74-.87.57-1.43.43-2.38.23.03-.39,1-.03.57-.68-.12-.18-3.43-2.19-3.63-2.27-.92-.37-2.39.18-2.84-.68,2.1,0,10.24,1.07,10.89,3.29,1.11,3.82-1.73,14.74-5.33,17.13-7.55,5.01-18.18,1.13-20.99-7.6-2.25-7-1.06-9.12,5.67-11.23Z"/>
            <path class="cls-26" d="M78.29,89.27c.45.13,1.06,1.32,1.13,1.36-.58-.2-.25.97-.23,1.02.52,1.33,1.74,1.91,2.5,2.95.06.09.34,1.57.68,2.04,2.29,3.1,12.05,2.86,15.54,2.38.15-.02,1.21-.27,1.02-.68.38-.11.95.23,1.13-.45.28-.73-1.09-3.81-1.36-4.76-.05-.18.31-.27.23-.57-.39-1.35-.98-2.71-1.59-3.97,5.6,1.7,7.66,3.65,6.35,9.64-2.03,9.32-10.13,13.44-19.17,10.55-5.32-1.7-7.57-9.38-7.83-14.41-.12-2.44-.52-3.66,1.59-5.1Z"/>
            <path class="cls-5" d="M97.35,88.59c.61,1.27,1.2,2.62,1.59,3.97.09.3-.28.39-.23.57-2.96-4.02-7.25-5.59-12.14-4.31-1.42.37-3.16,1.71-4.65,2.04-.78-.62-.48-.46.11-.91,1.47-1.1,3.88-1.48,5.33-2.72,2.82,0,7.3.55,9.98,1.36Z"/>
            <path class="cls-5" d="M130.02,87.22c.44.86,1.92.31,2.84.68.2.08,3.51,2.09,3.63,2.27.43.65-.54.29-.57.68-5.49-1.15-9.85-5.57-15.66.68l-1.36.57,1.36-3.29c3.09-.97,6.5-1.59,9.76-1.59Z"/>
            <path class="cls-26" d="M87.37,87.22c-1.45,1.24-3.86,1.62-5.33,2.72-.6.45-.9.29-.11.91-1.26.28-1.4.43-2.5-.23-.08-.05-.69-1.23-1.13-1.36,2.35-1.61,6.28-2.05,9.08-2.04Z"/>
            <g>
              <path class="cls-11" d="M135.92,90.86c.95.2,1.51.34,2.38-.23.75,1.92-1.55,2.84-2.16,3.74-.31.46-.37,1.61-.68,2.04-2.48,3.49-12.12,3.06-16,2.61-.12-.01-1.22-.27-1.02-.68,1.79.49,3.75.15,5.56.45-.61-1.08-2.06-1.45-2.16-2.95,1.38,3.28,7.76,3.88,8.85.23l-.79,2.04c4.62-1.98,6.59-3.61,1.25-6.58-.04-.02.06-.46-.57-.68l-7.26.23c-.74,1.01-.9,1.17-1.7,1.82-1.91,1.54-2.73,2.29-3.86,4.54l-.23-.23c.14-1.71,1.56-4.42,2.72-5.67,5.8-6.25,10.17-1.83,15.66-.68Z"/>
              <path class="cls-25" d="M121.63,92.9c-.35.89-.23,1.4,0,2.27.08.32.1.37.23.68.1,1.49,1.54,1.87,2.16,2.95-1.81-.3-3.77.04-5.56-.45-.32-.09-.76.15-.91-.45.03-.17.15-.3.23-.45,1.13-2.25,1.95-3,3.86-4.54Z"/>
              <path class="cls-27" d="M117.77,97.43c-.08.15-.19.28-.23.45-.62-.24,0-.65,0-.68l.23.23Z"/>
              <path class="cls-32" d="M131.16,91.54c-.3,0-.56-.67-.45.11.19,1.38,1.29,3.12,0,4.42.09-.31-.24-.48-.23-.91,0-.27.43-.92.23-1.47-.7-1.93-4.12.05-2.04,1.93-.22.1-.97,1.23-1.7,1.36-3.64.65-2.47-3.47-2.95-3.63-1.14.47-2.09.41-2.38,1.82-.23-.87-.35-1.38,0-2.27.8-.65.96-.8,1.7-1.82l7.26-.23c.62.22.53.66.57.68Z"/>
              <path class="cls-27" d="M128.66,95.62c.35-.17,1.3.26,1.82-.45-.01.42.32.6.23.91-1.09,3.65-7.47,3.05-8.85-.23-.13-.31-.14-.36-.23-.68.29-1.4,1.25-1.34,2.38-1.82.48.16-.7,4.28,2.95,3.63.74-.13,1.48-1.26,1.7-1.36Z"/>
              <path class="cls-25" d="M131.16,91.54c5.35,2.96,3.38,4.6-1.25,6.58l.79-2.04c1.29-1.31.19-3.05,0-4.42-.11-.78.15-.12.45-.11Z"/>
              <path class="cls-25" d="M130.48,95.17c-.51.71-1.47.29-1.82.45-2.07-1.88,1.34-3.86,2.04-1.93.2.56-.22,1.21-.23,1.47Z"/>
            </g>
            <g>
              <path class="cls-11" d="M98.71,93.12c.27.95,1.64,4.03,1.36,4.76-.81-1.09-1.53-2.93-2.5-3.86-.12-1.58-1.98-1.42-2.38-1.59-3.2-1.36-3.61-1.87-7.26-1.13-.13.03-.03-.59-.45-.45-.2.06-.09.44-.11.45-.85.34-4.17,2.56-4.08,3.52.13,1.46,4.01,2.95,5.22,3.29,4.53,1.27,3.58.77,6.81-1.36.16-.11.45-.36.45,0-.62,1.06-1.04,1.29-1.93,2.04,1.64-.13,3.52-.01,5.1-.45.19.41-.87.66-1.02.68-3.5.47-13.26.72-15.54-2.38-.35-.47-.62-1.95-.68-2.04-.76-1.04-1.98-1.62-2.5-2.95-.02-.06-.35-1.22.23-1.02,1.1.65,1.24.51,2.5.23,1.5-.33,3.23-1.67,4.65-2.04,4.89-1.28,9.18.29,12.14,4.31Z"/>
              <path class="cls-25" d="M97.58,94.03c.97.93,1.69,2.77,2.5,3.86-.18.68-.75.35-1.13.45-1.59.44-3.46.32-5.1.45.89-.76,1.31-.99,1.93-2.04.74-1.26,1.03-2.07.68-3.52.33.03.89.56,1.13.79Z"/>
              <path class="cls-32" d="M97.58,94.03c-.24-.23-.8-.76-1.13-.79.35,1.45.06,2.26-.68,3.52,0-.36-.29-.11-.45,0l-.23-.45c.42-.24.83-1.15.68-1.7-.54-1.97-3.69-.13-2.27,1.47-1.95,2.31-5.38.33-3.97-2.72-1.99-.07-2.33-.22-2.61,1.82-.24-1.41.02-2.48.45-3.86.03-.01-.09-.39.11-.45.43-.13.32.48.45.45,3.65-.74,4.06-.22,7.26,1.13.41.17,2.27,0,2.38,1.59Z"/>
              <path class="cls-27" d="M93.49,96.07c.3.34,1.24.43,1.59.23l.23.45c-3.23,2.13-2.27,2.64-6.81,1.36-.99-1.04-1.34-1.51-1.59-2.95.28-2.04.62-1.89,2.61-1.82-1.41,3.05,2.03,5.03,3.97,2.72Z"/>
              <path class="cls-25" d="M86.91,95.17c.25,1.44.6,1.91,1.59,2.95-1.21-.34-5.09-1.83-5.22-3.29-.08-.95,3.24-3.18,4.08-3.52-.44,1.38-.69,2.45-.45,3.86Z"/>
              <path class="cls-25" d="M95.08,96.3c-.35.2-1.29.11-1.59-.23-1.43-1.6,1.73-3.44,2.27-1.47.15.55-.26,1.46-.68,1.7Z"/>
            </g>
          </g>
        </g>
      </g>
    </g>
  </g>
</svg>