<?xml version="1.0" encoding="UTF-8"?>
<svg id="Layer_1" data-name="Layer 1" xmlns="http://www.w3.org/2000/svg" xmlns:xlink="http://www.w3.org/1999/xlink" viewBox="0 0 216.48 284.55">
  <defs>
    <style>
      .cls-1 {
        fill: #7c302a;
      }

      .cls-2 {
        fill: #d98259;
      }

      .cls-3 {
        fill: #2b3537;
      }

      .cls-4 {
        fill: url(#linear-gradient-7);
      }

      .cls-5 {
        fill: url(#linear-gradient-5);
      }

      .cls-6 {
        fill: url(#linear-gradient-6);
      }

      .cls-7 {
        fill: url(#linear-gradient-4);
      }

      .cls-8 {
        fill: url(#linear-gradient-3);
      }

      .cls-9 {
        fill: url(#linear-gradient-2);
      }

      .cls-10 {
        fill: #dc7353;
      }

      .cls-11 {
        fill: #3e1624;
      }

      .cls-12 {
        fill: url(#linear-gradient);
      }

      .cls-13 {
        fill: #111426;
      }

      .cls-14 {
        fill: #1b070a;
      }

      .cls-15 {
        fill: #a1a3ae;
      }

      .cls-16 {
        fill: #5c2f41;
      }

      .cls-17 {
        fill: #4e252a;
      }

      .cls-18 {
        fill: #2c0d12;
      }

      .cls-19 {
        fill: #f4bb8c;
      }

      .cls-20 {
        fill: #fff;
      }

      .cls-21 {
        fill: #c4c8d2;
      }

      .cls-22 {
        fill: #2b2f4d;
      }

      .cls-23 {
        fill: #ba432f;
      }

      .cls-24 {
        fill: #f09a6f;
      }

      .cls-25 {
        fill: #dfe2e8;
      }

      .cls-26 {
        fill: #38415e;
      }

      .cls-27 {
        fill: #cb543c;
      }

      .cls-28 {
        fill: #626f90;
      }

      .cls-29 {
        fill: #5b341e;
      }

      .cls-30 {
        fill: #8e93a6;
      }

      .cls-31 {
        fill: #c6643f;
      }
    </style>
    <linearGradient id="linear-gradient" x1="86.7" y1="168.66" x2="54.78" y2="248.68" gradientUnits="userSpaceOnUse">
      <stop offset="0" stop-color="#52597e"/>
      <stop offset="1" stop-color="#3b4562"/>
    </linearGradient>
    <linearGradient id="linear-gradient-2" x1="131.98" y1="171.57" x2="137.26" y2="188.25" gradientUnits="userSpaceOnUse">
      <stop offset="0" stop-color="#292c49"/>
      <stop offset="1" stop-color="#3b435f"/>
    </linearGradient>
    <linearGradient id="linear-gradient-3" x1="88.12" y1="178.1" x2="90.51" y2="194.32" gradientUnits="userSpaceOnUse">
      <stop offset="0" stop-color="#222340"/>
      <stop offset="1" stop-color="#3d4561"/>
    </linearGradient>
    <linearGradient id="linear-gradient-4" x1="90.66" y1="159.24" x2="91.64" y2="178.04" gradientUnits="userSpaceOnUse">
      <stop offset="0" stop-color="#393b62"/>
      <stop offset="1" stop-color="#5e688c"/>
    </linearGradient>
    <linearGradient id="linear-gradient-5" x1="132.27" y1="158.54" x2="133.49" y2="180.65" gradientUnits="userSpaceOnUse">
      <stop offset="0" stop-color="#313055"/>
      <stop offset="1" stop-color="#656f91"/>
    </linearGradient>
    <linearGradient id="linear-gradient-6" x1="100.46" y1="202.97" x2="115.23" y2="254.49" gradientUnits="userSpaceOnUse">
      <stop offset="0" stop-color="#606a8a"/>
      <stop offset="1" stop-color="#4c5474"/>
    </linearGradient>
    <linearGradient id="linear-gradient-7" x1="101.7" y1="93.56" x2="115.17" y2="140.39" gradientUnits="userSpaceOnUse">
      <stop offset="0" stop-color="#f1b07f"/>
      <stop offset="1" stop-color="#e68f61"/>
    </linearGradient>
  </defs>
  <g id="Generative_Object" data-name="Generative Object">
    <g>
      <path class="cls-12" d="M89.22,149.58c.88,2.81-1.08,2.12-1.22,2.21-2.99,2.1-11.12,18.57-12.29,22.48-1.32,4.41-.13,6.64,3.54,2.77l.66.66c-1.53,1.62-2.58,3.6-4.54,4.87-.41.27-5.02,2.69-5.32,2.66-.96-.1-.37-3.82-.11-4.54-.3-1.44-1.82,3.61-1.55,4.87.75,3.48,11.25.83,14.29,1,7.67.41,13.86,6.23,19.16,11.19l.66,59.58c-.3,1.57-2.62.25-3.77,1-13.06-.62-24.6-2.55-37.21-5.76l-6.64-32.45c-1.66-5.46-7.53-32.81-12.29-34.66-.63-.24-2.39-.39-2.33.78.02.34,2.76,4.82,3.1,5.98.38,1.27.5,2.58.66,3.88,1.65,12.85,1.37,30.41.89,43.52-.04,1.1-.15,7.22-.78,7.42-.41-.34-.94-.37-1.44-.44-2.9-.45-7.48-2.57-10.3-3.77-3.79-1.6-7.52-3.56-11.19-5.43-.26-13.52.44-27.19,3.77-40.31,1.22-4.82,5.27-18.23,9.63-20.49l40.75-13.51c3.84-5.95,6.84-11.08,13.84-13.51Z"/>
      <path class="cls-26" d="M179.37,177.27c-9.97,2.34-13.36,21.8-15.5,30.68-3.51,14.54-5.9,29.41-8.86,44.08l-9.08,2.55c-4.22.83-8.48,1.35-12.74,1.99-.23.03-2.27.21-1.22.66-3.95.48-9.4,1.25-13.29,1.11-1.12-.04-2.39-.34-3.54-.33l-.66-59.58c2.69-4.83,9.41-10.58,14.95-11.63,4.6-.87,17,1.5,19.71,0,2.87-1.59,2.3-8.71,2.21-11.52,1.53,1.04,3.55,1.7,5.32,2.21,3.27.95,12.7,3.47,15.5,2.66,1.78-.51,3.68-2.26,5.09-2.88.1-.04,1.98-.53,2.1,0Z"/>
      <path class="cls-26" d="M175.6,184.14c4.36,2.43,8.19,15.46,9.3,20.27,2.69,11.68,3.72,24.47,3.1,36.44-1.84.84-3.73,1.49-5.54,2.44-.72.3-1.49.6-2.21.89-.02,0-.19.12-.44.22-.4-.03-.78.29-1.11.44-.11.05-.36.1-.66.22-.37.14-.75.31-1.11.44-.34.15-.76.3-1.11.44-.84.31-1.61.46-2.44.89-.19.06-.57.2-.66.22-.06.02-.24.3-1.11.44-.42-.11-.45.06-.66.22l-.44-.11c.02-16.91-1.28-34.35.66-51.16.07-.63-.45-.82-.44-.89.39-3,2.7-9.43,4.87-11.41Z"/>
      <path class="cls-9" d="M180.25,176.39l-.33.22c.17.03.42-.05.55,0,.34.11.22.08.44.22-.33.28-1.08.33-1.55.44-.12-.53-2.01-.04-2.1,0-1.41.62-3.31,2.36-5.09,2.88-2.81.81-12.24-1.71-15.5-2.66-1.76-.51-3.78-1.18-5.32-2.21.08,2.81.66,9.92-2.21,11.52-2.71,1.5-15.11-.87-19.71,0-5.55,1.05-12.26,6.79-14.95,11.63l.66,59.58c1.15,0,2.42.29,3.54.33-2.13.32-4.28.21-6.42.22.2-3.32-.17-6.66-.22-9.97-.01-.66,0-1.33,0-1.99-.1-9.18.17-18.39,0-27.58-.09-5.13.24-17.85-.89-21.82-.14-.48-.09-.82-.44-1.33.46-.07.36-.44.44-.66.07-.2.19-.46.22-.66.32-2.02.22-3.95.22-5.98,5.67-3.84,11.34-6.08,16.94-9.52,1.74-1.07,3.38-3.26,5.43-3.32,1.89,1.66,4.29,5.3,6.76,6.42,1.76.8,4.04.49,5.76,1.55.18-.15.13-.74.11-1-.44-5.34-12.65-25.35-16.61-29.46-.59-.61-1.25-1.61-1.99-.55-.12-1.12-.33-2.19-.44-3.32,5.64,3.1,9,8.72,12.74,13.73,12.21,5.14,28.25,7.72,39.98,13.29Z"/>
      <path class="cls-26" d="M188,240.84c.62-11.97-.41-24.75-3.1-36.44-1.11-4.8-4.95-17.84-9.3-20.27-.26-.15-.54-.25-.78-.44-.6.32-1.66,1.19-.78,1.44-.1.84-1.28,1.66-1.33,1.77-.83,2.01-1.84,6.32-2.66,8.97-5.2,16.88-8.28,34.76-9.97,52.38-.09.97.03,2.02,0,2.99-4.74,1.35-9.34,2.57-14.18,3.54v-.22l9.08-2.55c2.96-14.66,5.35-29.54,8.86-44.08,2.14-8.88,5.53-28.34,15.5-30.68.47-.11,1.22-.16,1.55-.44,5.72,3.83,9.82,21.76,11.07,28.46,1.97,10.56,2.91,21.38,3.32,32.12-.27.7-6.29,2.97-7.31,3.43Z"/>
      <path class="cls-8" d="M93.43,181.7c5.14,2.91,10.08,6.18,14.62,9.97,1.12.93,2.18,1.97,3.32,2.88-.03.2-.15.47-.22.66-1.18-1.41-2.7-2.53-4.21-3.54-1.23-.82-2.34-1.92-3.88-2.21-.45.36.11,2.59.11,3.1.15,22,.31,44.02.89,66-1.79-.04-3.54-.14-5.32-.22,1.14-.74,3.46.58,3.77-1l-.66-59.58c-5.3-4.95-11.49-10.77-19.16-11.19-3.04-.16-13.54,2.48-14.29-1-.27-1.26,1.25-6.32,1.55-4.87-.26.72-.84,4.44.11,4.54.3.03,4.9-2.39,5.32-2.66,1.96-1.28,3.01-3.25,4.54-4.87.35-.37,2.05-2.2,2.33-2.21,3.25,3.05,7.55,4.14,11.19,6.2Z"/>
      <path class="cls-7" d="M89.66,149.36c-.15,1.24.04,2.98-.22,4.32-.96,4.9-2.13,2.93-.66,9.19.85,3.64,2.25,6.68,3.99,9.97,1.17,2.23,2.06,4.06,3.77,5.98,3.07,3.47,7.67,6.09,10.85,9.75.2.23.61.58.66.66.05.07-.38.93.66,1.11-.21.2-.6.39-.66.55-.1.25.56.62,0,.78-4.54-3.78-9.48-7.05-14.62-9.97-2.16-2-5.39-2.55-7.86-4.43-.72-.55-2.98-3.27-3.32-3.32-1.07-.15-2.24,2.32-2.99,3.1-3.67,3.87-4.86,1.64-3.54-2.77,1.17-3.91,9.31-20.38,12.29-22.48.14-.1,2.1.59,1.22-2.21.02,0-.01-.34.44-.22Z"/>
      <path class="cls-22" d="M46.47,202.08c1.82,9.13,4.17,18.26,5.76,28.46,1.03,6.63,1.86,13.36,2.21,20.05-3.95-1.17-8.11-2.03-11.74-3.99.5.08,1.03.1,1.44.44.62-.2.73-6.32.78-7.42.49-13.11.77-30.67-.89-43.52,1.28,1.7,1.76,3.95,2.44,5.98Z"/>
      <path class="cls-26" d="M175.6,184.14c-2.17,1.97-4.48,8.41-4.87,11.41,0,.07.52.26.44.89-1.95,16.81-.64,34.26-.66,51.16l.44.11c-1.69,1.28-6.24,2.22-8.42,2.88-.66-.44-.47-1.21-.44-1.88.3-7.38,1.76-18.04,2.88-25.47s5.25-19.16,5.54-26.14c0-.11-.25-1.13-.44-1.22.82-2.65,1.83-6.96,2.66-8.97.05-.11,1.23-.93,1.33-1.77-.89-.25.17-1.12.78-1.44.23.19.51.3.78.44Z"/>
      <path class="cls-26" d="M61.53,252.58c-1.36-.35-2.65-.74-3.99-1.11-2.66-16.51-5.78-33.54-11.07-49.39-.68-2.03-1.15-4.28-2.44-5.98-.17-1.3-.29-2.61-.66-3.88-.34-1.16-3.08-5.64-3.1-5.98-.06-1.17,1.7-1.02,2.33-.78,4.77,1.85,10.63,29.2,12.29,34.66l6.64,32.45Z"/>
      <path class="cls-22" d="M162.53,250.59c-.82.25-1.62.43-2.44.66.03-.97-.09-2.02,0-2.99,1.69-17.62,4.76-35.51,9.97-52.38.19.08.45,1.11.44,1.22-.29,6.98-4.38,18.41-5.54,26.14s-2.58,18.09-2.88,25.47c-.03.68-.22,1.44.44,1.88Z"/>
      <path class="cls-22" d="M57.54,251.47c-1.06-.29-2.05-.58-3.1-.89-.35-6.68-1.18-13.42-2.21-20.05-1.59-10.21-3.94-19.33-5.76-28.46,5.3,15.86,8.42,32.89,11.07,49.39Z"/>
      <path class="cls-28" d="M93.43,181.7c-3.63-2.06-7.94-3.15-11.19-6.2-.28.01-1.97,1.84-2.33,2.21l-.66-.66c.75-.79,1.92-3.25,2.99-3.1.35.05,2.6,2.77,3.32,3.32,2.48,1.88,5.7,2.43,7.86,4.43Z"/>
      <path class="cls-5" d="M133.96,175.72c-.42-.37-.69-.64-1.22-.89-.28.02-2.35,2.29-2.88,2.66-.62.43-5.64,3.48-5.98,3.54-.49.09-3.55-.45-3.43-1.44.07-.56,5.19-6.62,5.09-7.97-.09-1.27-1.05.18-1.33.55,1.35-2.73,2.33-5.48,3.1-8.42,1.41-5.39,1.27-5.68.66-11.07.75-1.05,1.4-.06,1.99.55,3.96,4.11,16.18,24.12,16.61,29.46.02.26.07.85-.11,1-1.72-1.06-4-.75-5.76-1.55-2.47-1.12-4.87-4.76-6.76-6.42Z"/>
      <path class="cls-28" d="M133.96,175.72c-2.05.06-3.68,2.25-5.43,3.32-5.61,3.44-11.27,5.69-16.94,9.52-.89.6-2.08,1.02-2.88,1.77-1.04-.18-.62-1.04-.66-1.11,1.57-1.3,3.09-2.67,4.65-3.99,2.35-1.98,4.61-3.62,6.64-5.98,1.02-1.18,2.56-2.93,2.88-4.43,1.19-.87,1.21-1.62,1.99-2.66.28-.37,1.24-1.82,1.33-.55.1,1.36-5.03,7.41-5.09,7.97-.12.99,2.94,1.53,3.43,1.44.34-.06,5.36-3.12,5.98-3.54.53-.37,2.6-2.64,2.88-2.66.53.25.8.52,1.22.89Z"/>
      <path class="cls-30" d="M112.03,246.6c0,.66-.01,1.33,0,1.99-.8,2.38-4.78,2.36-5.32-.11-.81-3.75,3.71-5.09,5.32-1.88Z"/>
      <path class="cls-30" d="M110.7,195.88c.36.51.31.84.44,1.33-1.01,5.42-8.29,1.88-4.65-1.99,1.11.73,4.1,4.45,4.21,1.44l-1.77-2.1c.85.13,1.31.67,1.77,1.33Z"/>
      <path class="cls-26" d="M111.59,188.57c0,2.03.1,3.96-.22,5.98-1.14-.91-2.2-1.95-3.32-2.88.56-.15-.1-.52,0-.78.07-.16.45-.35.66-.55.8-.75,1.99-1.17,2.88-1.77Z"/>
      <path class="cls-26" d="M111.15,195.21c-.08.23.02.59-.44.66-.46-.66-.92-1.19-1.77-1.33-.95-.15-1.59.15-2.44.44-.48,0-.74-.42-1.11-.66l1.55-2.66c1.51,1.01,3.03,2.14,4.21,3.54Z"/>
      <g>
        <path class="cls-6" d="M105.39,194.33c.36.25.62.67,1.11.66v.22c-3.64,3.87,3.64,7.41,4.65,1.99,1.13,3.97.79,16.68.89,21.82.17,9.18-.1,18.4,0,27.58-1.6-3.21-6.13-1.87-5.32,1.88.54,2.47,4.52,2.49,5.32.11.05,3.3.42,6.65.22,9.97-2.72.02-5.47.06-8.2,0-.58-21.99-.73-44.01-.89-66,.72.66,1.4,1.22,2.21,1.77Z"/>
        <path class="cls-30" d="M107.93,233.31c4.97-1.26,4.82,6.27.44,5.54-2.66-.44-2.74-4.95-.44-5.54Z"/>
        <path class="cls-30" d="M108.16,217.14c3.54-.53,4.54,4.82,1.55,5.54-4.32,1.04-4.75-5.06-1.55-5.54Z"/>
      </g>
      <path class="cls-28" d="M106.94,191.67l-1.55,2.66c-.81-.55-1.5-1.11-2.21-1.77,0-.51-.56-2.74-.11-3.1,1.53.3,2.65,1.39,3.88,2.21Z"/>
      <path class="cls-30" d="M108.93,194.55l1.77,2.1c-.11,3.01-3.09-.71-4.21-1.44v-.22c.85-.29,1.48-.59,2.44-.44Z"/>
    </g>
    <g>
      <path class="cls-11" d="M144.81,85.35c-.37,1.69-.65,3.42-1.11,5.09.21-1.35.04-3.15.66-4.54l-.89-.55c.06-4.47-3.78-10.78-4.87-14.73-.65-2.36-.43-7.47-1.55-9.52-1.36-2.47-12.02-4.69-14.84-4.76,1.38-1.39-2.03-.05-2.44-.55-.24-.28,1.88-1.97,2.21-2.33,1.04-1.11,1.51-1.64,2.44-2.88l.66.89c-.91,1.04-1.57,2.29-2.88,2.99.79.01,1.42-.55,2.21-.78,1.78-.5,3.19-.73,4.87-1.77,1.26,1.49,3.8.66,5.87,1.33,4.37,1.42,5.65,7.79,6.2,11.74.89-2.05.98-4.75.78-6.98-.11-1.23-1.48-3.46-.66-4.32.86.96,1.35,2.42,2.44,3.21-.08-2.47-2.34-7.54-4.98-8.08-1.09-.22-7.72.51-8.86.89-.56.19-.62.3-.55.89-.66.08-1.34.03-1.99.22.48-.53,1.15-1.2,1.55-1.77.84.95,2.01-1.29,2.88-1.99,5.02,0,10.45.49,14.51,3.77-1.7-2.99-8.02-7.24-11.41-5.98-.23-1.2-2.59-1.16-3.54-.89.16-.55,0-1.5.22-2.44,0-.02.12.06.22-.44,4.83-1.43,10.76.76,13.73,4.76,7.01,9.44,1.43,28.86-.89,39.54Z"/>
      <path class="cls-11" d="M119.12,52.35c1.05-.77,3.52-3.96,3.77-4.1.67-.38.53.11.89.33l-1.77,4.87c-.34.36-2.45,2.04-2.21,2.33.41.5,3.82-.84,2.44.55-.36,0-.74-.01-1.11,0-3.11-.26-6.17-.02-9.3-.22-2.95-.19-5.83-.69-8.75-1.11-5.83,6.57-13.6,14.22-22.48,16.17-.65.14-2.4.64-2.88.66-.97.05-5.08-.57-6.09-.89-.82-.26-1.7-1.33-2.55-1.33-.62-2.67-1.65-3.18-1.77-6.64,1,.16.27,2.12.66,2.99s.64.38,1.11.55c6.7,6.63,15.13,1.54,21.37-2.88,5.19-3.66,9.16-8.11,13.84-12.18.67-.58,1.32-1.19,1.99-1.77,1.19.93,3.23-1.81,4.54-2.21,4.05-1.26,4.36,2.72,3.99,5.76l.44.44c1.36-2.72,1.48-6.64-1.11-8.64-.07-.05-1.07.54-1-.89.68-.49,1.27-1.08,1.99-1.55.78.82,1.6-.15,2.77.66,2.31,1.6,1.56,7.38-.11,9.41-.06,1.18.85.02,1.33-.33Z"/>
      <path class="cls-14" d="M77.7,71.84l-2.66,13.51-.44,2.33c.64,1.25-.41,1.54.89,2.33l.22,7.53c-.16-.73-.66-1.9-.89-2.88-.7-3.11-1.71-6.22-2.44-9.3-1.22-5.21-2.12-10.52-3.32-15.73.85,0,1.72,1.07,2.55,1.33,1.01.31,5.12.93,6.09.89Z"/>
      <path class="cls-11" d="M104.28,51.46c-4.68,4.07-8.66,8.52-13.84,12.18-6.25,4.41-14.68,9.51-21.37,2.88,9.22,3.34,13.59.08,21.15-4.87l14.06-10.19Z"/>
      <path class="cls-18" d="M122.66,39.5c.94,3.07,1.94,5.77,1.11,9.08-.35-.22-.21-.71-.89-.33-.24.14-2.72,3.33-3.77,4.1,1.61-4.07,3.28-8.49-.44-11.96,1.75-.84,1.65-1.47,3.99-.89Z"/>
      <path class="cls-18" d="M106.27,49.69c2.37-2.07,4.3-3.69,6.87-5.54-.07,1.43.93.83,1,.89,2.59,2,2.47,5.92,1.11,8.64l-.44-.44c.37-3.04.06-7.02-3.99-5.76-1.31.41-3.35,3.15-4.54,2.21Z"/>
      <path class="cls-14" d="M118.68,40.39c3.73,3.47,2.06,7.9.44,11.96-.48.35-1.39,1.51-1.33.33,1.67-2.03,2.42-7.81.11-9.41-1.17-.81-1.99.15-2.77-.66,1.19-.78,2.25-1.59,3.54-2.21Z"/>
      <path class="cls-14" d="M125.32,47.92c-.16.91-.52,1.56-.66,2.44,0,.01-.08.03-.22.22-.92,1.24-1.4,1.77-2.44,2.88l1.77-4.87c.83-3.31-.17-6.01-1.11-9.08,4.13,1.04,3.19,5.45,2.66,8.42Z"/>
      <path class="cls-18" d="M131.75,41.5c-.22.93-.07,1.88-.22,2.44-.53,1.88-1.32,3.51-2.44,5.09-.4.57-1.07,1.25-1.55,1.77-1.01,1.1-1.97,1.92-3.1,2.88-.8.23-1.42.79-2.21.78,1.31-.7,1.97-1.95,2.88-2.99,2.32-2.65,4.62-5.44,5.98-8.75.03-.08-.29-1.18.66-1.22Z"/>
      <g>
        <path class="cls-11" d="M131.97,41.05c-.1.5-.22.42-.22.44-.95.04-.63,1.14-.66,1.22-1.36,3.31-3.66,6.1-5.98,8.75l-.66-.89c.14-.19.21-.21.22-.22.14-.2,1.04-.85,1.33-1.44.7-1.43,1.6-4.63,1-6.09-.52,1.37-.15,4.51-1.66,5.09.53-2.96,1.47-7.38-2.66-8.42-2.33-.59-2.24.05-3.99.89-1.3.62-2.36,1.43-3.54,2.21-.72.47-1.31,1.06-1.99,1.55-2.57,1.85-4.5,3.47-6.87,5.54-.67.58-1.32,1.19-1.99,1.77l-14.06,10.19c-7.57,4.95-11.93,8.22-21.15,4.87-.47-.17-.71.33-1.11-.55s.33-2.83-.66-2.99c-.05-1.5-.37-4.78,1.33-5.32.99-.31,2.68.31,3.77-.11-1.36-1.2-3.29-.2-3.32-2.55-.05-3.73,1.85-2.86,3.65-3.77,1.59-.79,3.09-1.89,4.76-2.55-6.43-1.61,2.04-7.69,4.43-9.41-.41.4-.94,1.03-1.22,1.55,5.55-1.67,10.74-4.38,15.73-7.31.33-.5-.09-.44-.44-.44-.68,0-11.44,4.45-12.51,5.09,3.54-2.45,8.07-5.07,12.29-5.98,2.85-.61,6.1-.41,8.86-.89,12.13-2.11,31.62-10.69,27.35,9.75Z"/>
        <g>
          <path class="cls-16" d="M81.91,39.28c.57-.56.89-.72,1.55-1.11,1.08-.64,11.84-5.1,12.51-5.09.35,0,.77-.06.44.44-4.99,2.93-10.18,5.64-15.73,7.31.27-.52.81-1.15,1.22-1.55Z"/>
          <path class="cls-18" d="M68.62,57.67c-.41-.79-.33-2.12.44-2.66.03,2.34,1.96,1.35,3.32,2.55-1.09.42-2.77-.2-3.77.11Z"/>
          <path class="cls-16" d="M117.13,32.19c1.07-.26,2.89-.29,3.65-1.11-10.65,1.11-19.74,7.25-29.35,11.3-.7.29-1.41.57-2.1.89-.19-.17.61-1.07.66-1.11,3.97-3.11,23.87-11.41,28.79-11.74,6.21-.42,12.77,2.64,9.52,9.75.53-2.45-1.74-8.01-4.43-8.42-5.35-.8-26.2,13.87-32.34,17.05-4.02,2.09-8.79,4.62-13.29,4.87l38.87-21.48Z"/>
          <path class="cls-16" d="M107.16,36.18c-1.39,2.1-22.97,14.08-26.69,15.95-.94.47-2.71.82-3.54,1.33-.37.23.36.62,0,.89-.24.18-5.46.31-5.98.22l-.66-.66,1.99.22c3.06-1.24,6.18-2.41,9.08-3.99.54-.29.2-.98.44-1.11,4.25-2.3,8.67-4.54,12.96-6.87s8.3-4.78,12.63-6.64c.38.56.04.28-.22.66Z"/>
          <path class="cls-16" d="M104.83,45.93l.55.33c-8.43,7.95-16.2,16.79-28.9,16.5-2.38-.05-7.31-.66-7.75-3.32,1.78,2.17,5.34,2.15,7.97,1.99,10.76-.65,20.03-9.24,28.13-15.5Z"/>
          <path class="cls-16" d="M113.58,39.5c-.67.92-15.13,10.13-17.17,11.3-4.9,2.81-14.99,7.67-20.6,7.09-.35-.04-.77.09-.44-.44,11.46-1.3,20.74-9.1,30.46-14.62.99-.56,7.34-4.23,7.86-3.99.25.2,0,.5-.11.66Z"/>
          <path class="cls-16" d="M111.26,31.09c.22-.02.45.01.66,0,.61.32-4.95,1.85-5.32,1.99-6.01,2.37-11.24,6.01-17.05,8.42-4.56,1.89-9.51,2.87-14.06,4.76.38-1.75.91-.74,1.44-1,5.51-2.65,29.8-13.75,34.33-14.18Z"/>
          <path class="cls-11" d="M113.58,39.5c.12-.16.36-.46.11-.66-.52-.25-6.87,3.43-7.86,3.99,3.86-5.25,11.22-9,17.72-8.53l-9.97,5.21Z"/>
          <path class="cls-11" d="M117.13,32.19c-3.35.8-6.58,1.96-9.75,3.32-4.32,1.87-8.49,4.4-12.63,6.64-.59-1.45-2.25.75-3.32.22,9.61-4.05,18.7-10.19,29.35-11.3-.76.82-2.59.85-3.65,1.11Z"/>
          <path class="cls-16" d="M102.84,31.75c.37-.08.92.06,1.33,0,.22.14-.1.32-.22.44-.83.85-15.46,7.6-17.05,7.97-.46.11-.91.37-1.22-.11l17.17-8.31Z"/>
          <path class="cls-16" d="M124.66,50.36c.14-.87.5-1.53.66-2.44,1.51-.59,1.15-3.72,1.66-5.09.6,1.46-.29,4.66-1,6.09-.29.59-1.18,1.24-1.33,1.44Z"/>
          <polygon class="cls-16" points="107.16 36.18 107.6 36.29 107.27 36.62 107.16 36.18"/>
        </g>
      </g>
      <path class="cls-11" d="M141.49,53.68c-.82.85.55,3.09.66,4.32.21,2.22.11,4.93-.78,6.98-.55-3.95-1.83-10.32-6.2-11.74-2.06-.67-4.61.16-5.87-1.33.62-.39,1.42-.68,1.55-1.55,4.56-.26,7.47-.23,10.63,3.32Z"/>
      <path class="cls-16" d="M141.49,53.68c-3.16-3.55-6.08-3.58-10.63-3.32-.57.03-.93.17-1.33.22-.06-.58-.01-.7.55-.89,1.14-.38,7.77-1.11,8.86-.89,2.65.54,4.9,5.61,4.98,8.08-1.09-.79-1.58-2.25-2.44-3.21Z"/>
      <path class="cls-16" d="M131.97,47.03c.34-.28,2.92-2.15,3.1-2.21,3.39-1.26,9.71,2.99,11.41,5.98-4.06-3.27-9.49-3.76-14.51-3.77Z"/>
      <path class="cls-11" d="M135.07,44.82c-.18.07-2.76,1.94-3.1,2.21-.87.7-2.04,2.94-2.88,1.99,1.11-1.58,1.91-3.21,2.44-5.09.95-.27,3.32-.31,3.54.89Z"/>
      <path class="cls-11" d="M130.86,50.36c-.13.87-.93,1.17-1.55,1.55-1.69,1.04-3.09,1.27-4.87,1.77,1.13-.96,2.09-1.78,3.1-2.88.65-.19,1.34-.14,1.99-.22.4-.05.75-.19,1.33-.22Z"/>
    </g>
    <g>
      <path class="cls-20" d="M124.21,165.75c1.09-.62,2.12-1.23,3.1-1.99-.77,2.94-1.75,5.69-3.1,8.42-.78,1.04-.8,1.79-1.99,2.66-6.04,4.41-23.6,3.16-29.46-1.99-1.73-3.29-3.13-6.33-3.99-9.97,8.91,7.86,25.33,8.61,35.44,2.88Z"/>
      <path class="cls-15" d="M122.22,174.84c-.32,1.5-1.86,3.25-2.88,4.43-7.4,2.53-15.43,1.61-22.81-.44-1.7-1.92-2.59-3.75-3.77-5.98,5.86,5.15,23.42,6.4,29.46,1.99Z"/>
    </g>
    <path class="cls-25" d="M119.34,179.26c-2.04,2.36-4.3,4-6.64,5.98l.33-1.11c-3.11.4-6.25.7-9.3-.22l-.22.44,3.88,4.21c-3.18-3.66-7.79-6.28-10.85-9.75,7.39,2.06,15.42,2.97,22.81.44Z"/>
    <path class="cls-21" d="M112.7,185.25c-1.56,1.32-3.08,2.69-4.65,3.99-.06-.08-.47-.44-.66-.66l-3.88-4.21.22-.44c3.05.92,6.2.62,9.3.22l-.33,1.11Z"/>
    <g>
      <g>
        <path class="cls-10" d="M124.21,165.75c-10.11,5.73-26.53,4.98-35.44-2.88-1.47-6.27-.3-4.29.66-9.19.26-1.34.07-3.08.22-4.32.19-1.57.63-3.01.66-4.87,3.8,2.61,7.38,5.4,11.63,7.31,5.58,2.5,17.07,3.43,19.82,8.08,1.03,1.74,1.11,4.29,2.44,5.87Z"/>
        <path class="cls-23" d="M90.77,136.96c-.97-.07.3,1.48.44,1.66,7.15,9.03,17.09,15.96,27.8,7.64,2.95-2.29,5.12-5.89,8.31-7.97-.73,3.01-.09,7.97.22,11.07.11,1.13.32,2.21.44,3.32.6,5.4.74,5.69-.66,11.07-.98.77-2.01,1.38-3.1,1.99-1.32-1.58-1.41-4.13-2.44-5.87-2.75-4.66-14.25-5.58-19.82-8.08-4.25-1.91-7.82-4.7-11.63-7.31.03-1.39.07-6.35-.22-7.42-.07-.25-.96-.8-1.11-1,.51-.5,1.35.58,1.77.89Z"/>
      </g>
      <path class="cls-10" d="M142.38,90.22c-.16,2.03-.2,4.07-.44,6.2-.27,2.37-.38,4.75-.89,7.09-.35-.11-.29-.37-.66.11-.02,3.41.86,4.38,4.21,4.54-1.74.92-2.26-.31-3.99-.33.05,4.32.86,11.01-.66,15.06-1.8,4.8-9.8,10.32-12.18,14.29.28-1.39-1.47.28-1.99.66-.38-.18-1.06.69-1.11-.33-.02-.41,4.03-5.73,4.65-6.87,3.38-6.18,5.3-13.22,6.42-20.16.39-2.42-.08-6.13.66-8.31.26-.76,1.79-2.5,2.21-3.65.92-2.49,1.01-8.06,3.77-8.31Z"/>
      <g>
        <path class="cls-10" d="M71.72,89.56c-.57.16-.42.58-.44,1-.18,2.81.05,10.77,1.99,12.85.99,1.05,3.06,1,3.32-.33,1.86.74.49,3.27.44,4.65-4.68,2.62-6.2-1.8-7.97-5.32l-.66-13.73c2.13.15,1.18-.49,3.32.89Z"/>
        <path class="cls-24" d="M68.4,88.67l.66,13.73c-1.88-3.74-4.94-11.05-3.32-15.06,1.4-.12,1.9,1.28,2.66,1.33Z"/>
        <path class="cls-10" d="M72.38,85.35c.72,3.08,1.74,6.2,2.44,9.3-.2-.14-.29.85-.55.22-1.05-2.52.58-3.3-2.55-5.32-2.14-1.38-1.19-.73-3.32-.89-.76-.05-1.26-1.45-2.66-1.33,1.03-2.55,4.43-2.89,6.64-1.99Z"/>
        <path class="cls-27" d="M74.82,94.65c.22.98.72,2.15.89,2.88.2.9,1,4.93.89,5.54-.26,1.33-2.34,1.38-3.32.33-1.94-2.07-2.18-10.04-1.99-12.85.03-.42-.13-.83.44-1,3.13,2.01,1.5,2.79,2.55,5.32.26.63.36-.36.55-.22Z"/>
      </g>
      <path class="cls-10" d="M122.22,56.34c2.82.07,13.48,2.29,14.84,4.76,1.12,2.05.9,7.17,1.55,9.52,1.09,3.95,4.93,10.26,4.87,14.73,0,.07,0,.15,0,.22-2.47-.38-4.86-1.32-7.31-1.77v-1.99c.48.13.95.16,1.44.44-.32-1.21-1.89-2.25-2.99-2.88-.84-7.18,1.6-13.43-4.98-18.38-3.34-2.51-7.67-3.27-11.74-3.99-.48-.48,2.93-.65,3.21-.66.36-.01.74,0,1.11,0Z"/>
      <path class="cls-14" d="M143.71,90.45c-.06.39-.15.74-.22,1.11-.26,1.44-.7,3.84-1.55,4.87.24-2.13.28-4.17.44-6.2.07-.93,1.1-4.41,1.11-4.65,0-.07,0-.15,0-.22l.89.55c-.63,1.39-.45,3.19-.66,4.54Z"/>
      <path class="cls-10" d="M111.81,56.11c-10.02,4.34-15.62,13.53-27.13,15.28-.93.14-3.48.51-4.1-.22,8.88-1.94,16.65-9.6,22.48-16.17,2.92.42,5.8.92,8.75,1.11Z"/>
      <g>
        <path class="cls-18" d="M125.76,137.85c.52-.38,2.27-2.06,1.99-.66-.36.59-.28.45-.44,1.11-3.19,2.08-5.35,5.68-8.31,7.97-10.71,8.32-20.65,1.39-27.8-7.64-.14-.18-1.41-1.73-.44-1.66,3.04,2.21,6.01,4.5,8.75,7.09.72-5.17,7.12-3.22,5.76-9.08,1.38.31,6.14-.42,7.09,0,.51.22.26,2.78.78,3.65.83,1.43,5.26,1.89,5.43,5.21,2.5-1.84,4.71-4.15,7.2-5.98Z"/>
        <g>
          <path class="cls-17" d="M105.72,137.62c-.22,4.17-.72,7.35,1.11,11.3-2.25-1.72-3.3-5.4-2.66-7.97l.78,1.88.78-5.21Z"/>
          <path class="cls-17" d="M109.04,138.07l-.22,8.64c-.62-2.71-.62-5.95.22-8.64Z"/>
          <path class="cls-17" d="M113.91,141.39c.45,2.87-.35,5.84-2.44,7.97l2.44-7.97Z"/>
          <path class="cls-17" d="M111.7,135.63c-.54,3.67,1.75,7.49-.44,10.85l.44-10.85Z"/>
          <path class="cls-17" d="M106.38,135.85c1.82,2.5-.26,5.58,0,8.42v-8.42Z"/>
          <path class="cls-17" d="M116.35,142.94c.77.86.8,2.14.78,3.21l-.78-.78-1.33,1.77-.22-.44c1.1-1.04,1.12-2.37,1.55-3.77Z"/>
          <path class="cls-17" d="M109.71,136.52c.47-.24,1.48,7.34.66,7.97l-.66-7.97Z"/>
          <path class="cls-11" d="M107.71,138.29c.62,1.37-.09,3.58-.22,5.09l.22-5.09Z"/>
        </g>
      </g>
      <g>
        <path class="cls-10" d="M149.46,88.9c-.28.98.1,5.2,0,6.64-2.15.12-.88,5.13-2.21,6.76l.66,1c-.8,1.46-1.75,4.05-3.32,4.87-3.35-.16-4.23-1.13-4.21-4.54.37-.48.31-.22.66-.11.31.1,1.14.87,1.22.89,4.18.77,5.58-12.61,1.66-12.85.83-1.62,3.8-3.98,5.54-2.66Z"/>
        <path class="cls-10" d="M147.91,103.29l-.66-1c1.33-1.63.07-6.64,2.21-6.76-.1,1.44-1.33,3.91-.44,4.98,1.86-4.1,3.84-8.69,2.44-13.29l-.33-.33c-.18.74-1.49,1.39-1.66,1.99-1.74-1.32-4.71,1.04-5.54,2.66-.02,0-.13.34-.44,0,.07-.37.16-.72.22-1.11.46-1.67.74-3.4,1.11-5.09,12.69-2.58,6.29,12.15,3.1,17.94Z"/>
        <path class="cls-23" d="M143.93,91.55c3.92.24,2.52,13.62-1.66,12.85-.08-.02-.91-.79-1.22-.89.5-2.34.62-4.72.89-7.09.85-1.03,1.29-3.44,1.55-4.87.32.34.42,0,.44,0Z"/>
        <path class="cls-24" d="M149.46,95.54c.1-1.45-.28-5.66,0-6.64.17-.6,1.48-1.25,1.66-1.99l.33.33c1.41,4.6-.58,9.19-2.44,13.29-.89-1.08.34-3.54.44-4.98Z"/>
      </g>
      <g>
        <path class="cls-4" d="M136.4,102.19c-.74,2.18-.27,5.89-.66,8.31-1.13,6.93-3.04,13.97-6.42,20.16-.62,1.14-4.67,6.45-4.65,6.87.04,1.02.73.15,1.11.33-2.49,1.83-4.7,4.14-7.2,5.98-.17-3.32-4.59-3.78-5.43-5.21-.51-.88-.27-3.43-.78-3.65-.94-.42-5.7.31-7.09,0,1.36,5.86-5.04,3.91-5.76,9.08-2.74-2.58-5.71-4.88-8.75-7.09-.42-.3-1.26-1.38-1.77-.89-4.02-5.4-11.22-9.58-11.96-16.94-.32-3.2-.11-8.09,0-11.41.05-1.38,1.42-3.91-.44-4.65.12-.61-.69-4.64-.89-5.54l-.22-7.53c.42.25.96.19,1,.22,1.58,1.17,2.24,8.42,4.32,11.19,3.91,5.18,18.15,4.82,21.93-1.11,1.35-2.12,3.06-10.21,4.32-10.74.43-.18,3.31-.16,3.77,0,1.5.54,3,8.33,4.32,10.52,3.71,6.18,15.97,6.17,21.26,2.1Z"/>
        <g>
          <path class="cls-10" d="M117.35,129.65c.62,4.35-11.37,4.04-13.84,3.1-.75-.29-2.48-1.48-1.88-2.44,3.93,2.94,12.02,2.7,15.73-.66Z"/>
          <path class="cls-23" d="M117.35,129.65c-3.7,3.36-11.8,3.6-15.73.66-.04-.03-1.28-.78-.55-.89,4.79,2.43,11.25,2.33,15.95-.22l.33.44Z"/>
          <path class="cls-23" d="M103.06,112.15c1.79-.59,3.56,3.49,7.31,2.44,1.59-.45,3.42-3.6,4.98-1.88-2.32.84-4.96,3-7.42,2.55-.25-.05-4.44-2.06-4.65-2.21s-.83-.69-.22-.89Z"/>
          <path class="cls-27" d="M115.69,108.39c1.64,1.31,1.57,4.37-.44,5.32,1.56-1.86,1.44-3.19.44-5.32Z"/>
          <path class="cls-31" d="M102.18,107.94c.18,1.25-.97,1.89-.78,3.43.1.79.9,1.58,1.44,2.1-2.5-.68-1.88-3.98-.66-5.54Z"/>
          <g>
            <path class="cls-23" d="M122.44,118.13l.89.55c-1.42.07-1.23.13-1.99,1-8.33.99-16.73,1.36-25.03-.22-.05-.49-.39-.62,0-1.11,8.06.42,18.11.39,26.14-.22Z"/>
            <path class="cls-10" d="M117.13,125l.66.44c-5.6,3.3-12.11,3.33-17.72,0l.44-.44c3.58,2.25,12.99,2.14,16.61,0Z"/>
            <path class="cls-1" d="M117.79,125.44l-.66-.44c.96-.57,1.2-1.37,1.77-1.99,1.14-1.24,1.61-2.39,2.44-3.32.76-.86.57-.92,1.99-1l-.89-.55c.62-.05,3.53-.65,3.77-.33-2.49,2.66-5.25,5.77-8.42,7.64Z"/>
            <path class="cls-1" d="M96.31,118.35c-.39.49-.05.61,0,1.11.2,1.81,1.59,2.81,2.88,3.99.32.29,1.06,1.38,1.33,1.55l-.44.44c-.81-.48-9.03-7.17-8.08-7.75,1.41.1,2.9.59,4.32.66Z"/>
            <path class="cls-20" d="M121.33,119.68c-.82.94-1.29,2.09-2.44,3.32-6.32,2.71-13.24,2.38-19.71.44-1.29-1.18-2.68-2.17-2.88-3.99,8.3,1.58,16.7,1.21,25.03.22Z"/>
            <path class="cls-25" d="M118.9,123.01c-.57.62-.81,1.42-1.77,1.99-3.62,2.14-13.03,2.25-16.61,0-.26-.17-1.01-1.26-1.33-1.55,6.48,1.94,13.39,2.27,19.71-.44Z"/>
          </g>
        </g>
      </g>
      <path class="cls-11" d="M134.62,79.37c1.1.63,2.67,1.67,2.99,2.88-.49-.28-.96-.31-1.44-.44-5.83-1.6-9.93-1.26-15.84,0-.84.18-4.72,1.95-4.98,1.22.63-4.5-.17-4.58,4.32-5.43,4.71-.88,10.75-.64,14.95,1.77Z"/>
      <g>
        <path class="cls-24" d="M121.11,56.34c-.28.01-3.69.18-3.21.66,4.07.72,8.4,1.48,11.74,3.99,6.58,4.95,4.14,11.2,4.98,18.38-4.2-2.41-10.24-2.66-14.95-1.77s-3.69.92-4.32,5.43c.26.73,4.15-1.04,4.98-1.22,5.91-1.26,10.01-1.6,15.84,0v1.99c-10.98-2.03-13.76.1-23.59,1.55-6.78,1-10.1-1.49-16.17-2.21-7.38-.88-14.29.36-21.37,2.21l2.66-13.51c.48-.02,2.23-.52,2.88-.66.62.73,3.17.36,4.1.22,11.51-1.76,17.12-10.95,27.13-15.28,3.13.2,6.19-.04,9.3.22Z"/>
        <path class="cls-11" d="M89.77,77.16c1.65-.15,10.11.4,11.3,1.11.82.49.83,3.78,1.22,4.76-7.18-1.79-14.82-3.65-22.04-1,1.56-2.88,6.49-4.6,9.52-4.87Z"/>
      </g>
      <g>
        <path class="cls-13" d="M136.17,83.8c2.45.45,4.83,1.39,7.31,1.77,0,.24-1.03,3.72-1.11,4.65-2.75.25-2.85,5.82-3.77,8.31-.42,1.15-1.95,2.89-2.21,3.65-5.3,4.07-17.55,4.08-21.26-2.1-1.31-2.19-2.82-9.99-4.32-10.52-.45-.16-3.33-.18-3.77,0-1.25.53-2.97,8.62-4.32,10.74-3.78,5.93-18.02,6.29-21.93,1.11-2.08-2.77-2.74-10.01-4.32-11.19-.04-.03-.58.03-1-.22-1.3-.78-.25-1.07-.89-2.33l.44-2.33c7.08-1.85,13.99-3.1,21.37-2.21,6.07.73,9.38,3.22,16.17,2.21,9.83-1.45,12.61-3.58,23.59-1.55Z"/>
        <g>
          <path class="cls-24" d="M114.47,92.44c1.72.65,2.79-.58,3.32,1.33.1.34-.45.71-.11.89.52.27,4.95.39,5.87.44,1.25.07,1.63.07,2.88,0,1.12-.07,1.36.06,2.66-.22,2-.43,3.93-1.28,5.54-2.66.28.23,2.68.8,2.99.66.91-.39-.19-2.9.78-3.54.82,5.6-1.46,12.67-7.64,13.73-8.4,1.44-15.82-1.14-16.28-10.63Z"/>
          <path class="cls-19" d="M84.57,90c-.36.43-1.47,1.79-1.33,2.33.91,1,2.16,1.34,3.32,1.88,1.98.92,13.87,4.3,14.18,4.98.17.37-1.2.97-.22,1-3.67,4.14-15.73,4.52-18.83-.11-1.69-2.53-2.6-8.67-1.99-11.63.02,2.27,3.35,2.92,4.87,1.55Z"/>
          <path class="cls-2" d="M138.39,89.34c-.96.64.14,3.15-.78,3.54-.31.13-2.71-.44-2.99-.66-.76-.62-1.73-3.06-3.65-4.21-5.15-3.07-11.35-1.49-12.74,4.65-.13.31-.09.92-.44,1.11-.54-1.91-1.6-.68-3.32-1.33-.08-1.7.13-4.06,1.33-5.43,2.58-2.92,15.49-2.71,19.16-1.66,2.35.67,3.08,1.58,3.43,3.99Z"/>
          <path class="cls-2" d="M102.95,89.56c.11.56.28,2.89.22,3.43-.02.24-.95,2.08-.89,2.66-.96.35-2.3-.76-2.44-.78.63-.11.18-.99,0-1.55-1.13-7.81-10.52-9.06-15.28-3.32-1.53,1.37-4.86.72-4.87-1.55.31-1.52.54-2.26,2.1-2.88,3.63-1.45,18.57-1.62,20.71,2.1.44.77.3,1.17.44,1.88Z"/>
          <path class="cls-24" d="M100.51,100.19c-.98-.03.39-.62.22-1-.31-.69-12.2-4.06-14.18-4.98l.22-.22c1.96,1.07,2.74.92,4.65,1.11,1.3.13,1.78,0,2.88,0,1.84,0,3.89-.4,5.54-.22.14.01,1.48,1.13,2.44.78-.06-.58.86-2.42.89-2.66.06-.55-.11-2.87-.22-3.43,1.28,3.3-.15,8.06-2.44,10.63Z"/>
          <path class="cls-20" d="M129.09,94.88c-1.3.28-1.54.16-2.66.22.84-.32,2.16-1.49,2.44-2.33.52-1.55-.1-2.68.11-4.1,3.74,2.25,5.54,4.63.11,6.2Z"/>
          <path class="cls-20" d="M123.55,95.1c-.92-.05-5.35-.17-5.87-.44-.34-.18.21-.55.11-.89.35-.19.31-.8.44-1.11.6-1.39,1.65-2.37,2.55-3.54.19,2.46.08,4.92,2.77,5.98Z"/>
          <path class="cls-29" d="M99.85,93.33c-.53-1.62-1.54-3.07-2.77-4.21-.59.42-.07.73-.11,1.33-.75-.03-.29-.98-.78-1.55-.75-.86-4.39-1.53-5.32-.89-.65.5-.25.81.11,1.33-1.47.77-1.41,2.29-.22,2.44v.22c-.75-.11-1.54-.82-1.66-1.55l-.11,1.99c-.3-1.14-.39-2.3,0-3.43-.16-1.06-5.11,2.69-3.65,4.32.05.06,1.17.52,1.44.66l-.22.22c-1.16-.54-2.41-.88-3.32-1.88-.14-.54.97-1.89,1.33-2.33,4.76-5.74,14.15-4.49,15.28,3.32Z"/>
          <path class="cls-20" d="M99.85,93.33c.18.56.63,1.44,0,1.55-1.65-.18-3.69.22-5.54.22,2.35-.96,2.52-2.45,2.66-4.65.04-.6-.48-.91.11-1.33,1.23,1.14,2.24,2.59,2.77,4.21Z"/>
          <path class="cls-29" d="M96.97,90.45c-.14,2.21-.31,3.7-2.66,4.65-1.1,0-1.58.13-2.88,0-1.21-.53-2.09-1.35-2.44-2.66l.11-1.99c.12.73.91,1.44,1.66,1.55,3.88,4.65,6.39-4.37.66-2.66-.12.04-.37-.04-.44,0-.37-.52-.76-.83-.11-1.33.92-.64,4.57.02,5.32.89.49.57.02,1.52.78,1.55Z"/>
          <path class="cls-20" d="M89,92.44c.35,1.31,1.22,2.13,2.44,2.66-1.91-.18-2.69-.04-4.65-1.11-.27-.15-1.39-.61-1.44-.66-1.45-1.63,3.5-5.38,3.65-4.32-.39,1.14-.3,2.29,0,3.43Z"/>
          <g>
            <path class="cls-29" d="M134.62,92.22c-1.61,1.38-3.54,2.23-5.54,2.66,5.43-1.57,3.63-3.95-.11-6.2-.21,1.41.41,2.55-.11,4.1-.28.83-1.6,2.01-2.44,2.33-1.25.07-1.63.07-2.88,0-2.69-1.06-2.58-3.52-2.77-5.98-.89,1.17-1.95,2.16-2.55,3.54,1.39-6.14,7.59-7.72,12.74-4.65,1.93,1.15,2.89,3.59,3.65,4.21Z"/>
            <path class="cls-3" d="M122.89,91.78c1.15-.18,1.96-1.15,1.11-2.21.06-.01.15-.61,1.22-.44,3.59.58.89,7.09-2.33,2.66Z"/>
            <path class="cls-20" d="M123.99,89.56c.85,1.07.04,2.04-1.11,2.21-.32-.45-1.1-.48-.89-1.44.24-1.07,1.68-.72,1.99-.78Z"/>
          </g>
          <path class="cls-3" d="M90.77,92v-.22c1.15.15,2.06-1.82.66-2.44,5.72-1.71,3.21,7.31-.66,2.66Z"/>
          <path class="cls-20" d="M91.43,89.34c1.4.62.49,2.58-.66,2.44s-1.25-1.67.22-2.44c.08-.04.32.04.44,0Z"/>
        </g>
      </g>
    </g>
  </g>
</svg>