<?xml version="1.0" encoding="UTF-8"?>
<svg id="Layer_1" data-name="Layer 1" xmlns="http://www.w3.org/2000/svg" xmlns:xlink="http://www.w3.org/1999/xlink" viewBox="0 0 216.48 284.55">
  <defs>
    <style>
      .cls-1 {
        fill: #b6cee7;
      }

      .cls-2 {
        fill: #492618;
      }

      .cls-3 {
        fill: #d9ebfa;
      }

      .cls-4 {
        fill: #3d5975;
      }

      .cls-5 {
        fill: #1e2020;
      }

      .cls-6 {
        fill: #284661;
      }

      .cls-7 {
        fill: url(#linear-gradient);
      }

      .cls-8 {
        fill: #fefeff;
      }

      .cls-9 {
        fill: #889fbe;
      }

      .cls-10 {
        fill: #f6b38a;
      }

      .cls-11 {
        fill: #8a4637;
      }

      .cls-12 {
        fill: #7f5c4d;
      }

      .cls-13 {
        fill: #d37e58;
      }

      .cls-14 {
        fill: #f09178;
      }

      .cls-15 {
        fill: #694737;
      }

      .cls-16 {
        fill: #e7976f;
      }
    </style>
    <linearGradient id="linear-gradient" x1="-680.74" y1="582.92" x2="-656.63" y2="1102.36" gradientTransform="translate(260.21 9.23) scale(.23)" gradientUnits="userSpaceOnUse">
      <stop offset="0" stop-color="#547092"/>
      <stop offset="1" stop-color="#375673"/>
    </linearGradient>
  </defs>
  <g id="Generative_Object" data-name="Generative Object">
    <g>
      <path class="cls-7" d="M72.8,142.18c1.55,8.79,4.13,17.19,6.92,25.62,6.34,19.12,14.9,38.47,28.74,53.32,10.22-11.31,17.58-25.1,23.43-39.12,1.54-3.68,2.93-9.48,4.62-12.7.66-1.26.67.39,1.04.35.54-.07,2.79-9.23,3.12-10.39,1.58-5.58,3.19-11.17,4.39-16.85,10.89,3.7,34.26,10,39.01,20.89,8.68,19.89,11.62,70.3,12,92.91l-.35,6-25.51-.12c-4.44-20.56,1.95-41.7-2.42-62.21-4.43,23.69-14.36,46.54-33.01,62.32-22.5-.13-45.02.27-67.52-.23-6.31-20.74-14.1-41.03-18.58-62.32-.53,20.83,1.9,41.68-1.27,62.44-3.18-.39-25.57.89-26.66.12-.42-.3.25-3.94-.35-4.62.07-10.39.77-20.93,1.62-31.28,1.09-13.25,5.36-57.86,12.7-67.17,5.74-7.28,28.98-13.71,38.09-16.97Z"/>
      <g>
        <path class="cls-6" d="M196.06,256.21c.02,1.04.66,6.12-.12,6.46h-32.08l-2.31-14.77-1.38,14.77H57.22c-.48-.5-.23-1.16-.35-1.62.78-.15.28.77.58.92.44.22,8.45-.03,9.81,0,22.49.5,45.01.1,67.52.23,18.64-15.78,28.57-38.64,33.01-62.32,4.37,20.51-2.02,41.64,2.42,62.21l25.51.12.35-6Z"/>
        <path class="cls-6" d="M67.26,261.98c-1.36-.03-9.37.22-9.81,0-.3-.15.21-1.07-.58-.92-1.05-4.07-.93-8.8-1.96-12.93l-1.85,14.54H20.52c-.73-.33-.12-4.24-.12-5.08.6.68-.08,4.32.35,4.62,1.09.77,23.48-.51,26.66-.12,3.17-20.75.74-41.61,1.27-62.44,4.48,21.29,12.27,41.58,18.58,62.32Z"/>
      </g>
      <path class="cls-4" d="M77.65,140.56l2.54,26.43c.37.71,4.56-5.72,4.85-6.12.6.88,1.06,2,1.38,3,.02.07-.02.16,0,.23-2.43.82-4.1,3.78-6.69,3.69-2.8-8.43-5.38-16.83-6.92-25.62.95-.34,4.38-1.31,4.85-1.62Z"/>
      <path class="cls-6" d="M145.05,142.41c-1.2,5.68-2.8,11.27-4.39,16.85-.6.06-.5-.57-.92.12-1.25,2.01-1.28,6.82-3.35,8.42-.2-.08-.09-.46-.12-.46,1.64-8.86,3.07-17.76,3.69-26.78,1.67.66,3.38,1.27,5.08,1.85Z"/>
      <path class="cls-6" d="M140.66,159.26c-.33,1.16-2.58,10.32-3.12,10.39-.37.04-.38-1.61-1.04-.35-1.69,3.22-3.08,9.01-4.62,12.7-5.85,14.02-13.21,27.82-23.43,39.12-13.84-14.85-22.39-34.2-28.74-53.32,2.59.08,4.26-2.87,6.69-3.69,4.48,13.77,10.82,28.93,18.7,41.09,1.07,1.64,1.99,3.4,3.35,4.85.36-.04,2.09-3.21,2.42-3.69s.61-.9.92-1.38c7.59-11.81,14.5-27.72,18.93-41.09l5.08,3.69c.15.06.22-.2.46-.23.02,0-.08.38.12.46,2.06-1.6,2.1-6.41,3.35-8.42.42-.68.32-.06.92-.12Z"/>
    </g>
    <g>
      <g>
        <path class="cls-3" d="M89.19,126.95c-.15,1.13-.26,2.5-.46,3.58-.15.76-1.36,2.62-1.38,2.77-.56,4.07,17.39,27.04,21.12,31.05,5.11-5.44,9.52-11.4,13.73-17.54,1.33-1.95,8.59-12.4,8.54-13.96,0-.28-1.79-3.68-2.08-5.19.48-.36.05-.61.81-.23,1.8.9,10.26,11.36,10.5,13.16-.63,9.01-2.05,17.91-3.69,26.78-.24.03-.31.29-.46.23-1.23-2.5-2.5-4.99-3.92-7.39-1.1-1.86-5.42-9.26-7.73-9s-10.64,11.53-12.81,13.5l-.46,41.66c-.33.49-2.06,3.66-2.42,3.69-1.36-1.44-2.28-3.2-3.35-4.85.59-.17.44-.6.46-1.04.69-12.78-.74-26.51-.46-39.36-1.05-2.5-9.89-12.95-11.89-13.16-1.88-.2-6.97,7.56-8.19,9.23-.29.4-4.48,6.83-4.85,6.12l-2.54-26.43c1.08-.72,5.78-7.71,7.16-9.35,1.24-1.47,2.74-3.25,4.39-4.27Z"/>
        <path class="cls-1" d="M105.12,164.8c-.28,12.85,1.15,26.58.46,39.36-.02.44.13.87-.46,1.04-7.88-12.15-14.22-27.31-18.7-41.09-.02-.07.02-.16,0-.23,6.6-4.09,13.24-6.16,18.7.92Z"/>
        <path class="cls-9" d="M131.89,160.18c-.49,1.11-.78,2.31-1.15,3.46-6.68-5.18-13.27-4.93-18.93,1.5v39.82c-.31.49-.6.91-.92,1.38l.46-41.66c2.17-1.97,10.54-13.25,12.81-13.5s6.63,7.14,7.73,9Z"/>
        <path class="cls-9" d="M105.12,164.8c-5.45-7.08-12.1-5.01-18.7-.92-.33-1-.79-2.12-1.38-3,1.23-1.68,6.31-9.43,8.19-9.23,2,.21,10.84,10.65,11.89,13.16Z"/>
        <path class="cls-6" d="M135.81,167.57l-5.08-3.69c.02-.07-.02-.16,0-.23.38-1.15.66-2.36,1.15-3.46,1.42,2.4,2.7,4.88,3.92,7.39Z"/>
        <path class="cls-1" d="M130.74,163.65c-.02.07.02.16,0,.23-4.42,13.36-11.34,29.28-18.93,41.09v-39.82c5.66-6.43,12.24-6.68,18.93-1.5Z"/>
      </g>
      <g>
        <g>
          <path class="cls-2" d="M126.12,27.69c-10.25.45-25.54,11-18.93,22.62-.25.58,0,3.35.23,3.58.52.53,2.5.25,3.23.35,2.23.3,1.65.65,4.15,0,.06-.01.22.43,1.15-.23,1.12,1.07,3.12-.63,4.39-1.15,1.48-.61,6.18-2.87,7.16-2.77.02,0-.08.43.12.46.77.14,2.63-.19,2.65.92-.08-.01-.16.01-.23,0-6.3-.86-3.84.05-9.12,2.08-6.59,2.53-12.76,1.45-19.5,0-.02-.14.04-.4,0-.46,1.83-.14-.5-4.55-.69-5.89-1.1-7.46.54-12.93,3.92-19.39.29-.56.63-.6,0-1.04.52-.17,3.14-.77,3.46-.35-2.55,2.21-3.82,5.41-4.5,8.66.28.11,1.12-1.59,1.38-1.85,4.1-3.84,15.74-6.62,21.12-5.54Z"/>
          <path class="cls-12" d="M104.65,26.77c.63.44.29.48,0,1.04-3.38,6.46-5.02,11.93-3.92,19.39.2,1.34,2.53,5.75.69,5.89-.17-.28-4.77-2.51-5.66-3.23-5.05-4.09-5.07-11.16-1.04-16.27.43-.55,5.78-5.59,6-4.85-1.88,3.04,2.01-.97,3-1.5.31-.17.58-.35.92-.46Z"/>
          <path class="cls-2" d="M103.73,27.23c-.99.53-4.88,4.54-3,1.5-.22-.75-5.57,4.3-6,4.85-4.03,5.11-4.02,12.18,1.04,16.27.89.72,5.49,2.95,5.66,3.23.04.06-.02.32,0,.46-3.46-.74-7.24-2.58-10.39-3.23-.73-.15-.77-.34-1.62,0-.67-1.36-2.95-2.02-4.27-3-.5-.37-2.75-3.02-3-3-1.43.12-1.18,3-.58,4.04.65,1.12,5.72,3.61,6.92,2.65-.07.05-1.04,1.02-1.15,1.15l-1.15-.23-7.85-3c.86-1.74,2.3-3.83,3.81-5.08.65-.54,3.96-2.2,4.04-2.42.13-.34-.44-5.42.12-5.42l.92,4.62c.56-7.49,10.23-11.6,16.5-13.39Z"/>
          <path class="cls-12" d="M86.19,51.93l1.15.23c-3.14,3.55-2.21,7.12-2.77,11.43s-1.32,6.72-1.15,11.54c.01.42-.23,1.14.46,1.04-.73.36-.85.66-1.15,1.38-.24-.52-.99-1.73-1.62-2.08-1.25-7.33-5.25-15.89-3.92-23.31l9-.23Z"/>
          <path class="cls-12" d="M141.58,34.16l-21.24,18.7c-1.27.52-3.26,2.22-4.39,1.15,2.79-1.97,6.65-9.62,9-12.58,3.54-4.45,7.38-6.85,12.93-8.19,1.19.43,2.47.65,3.69.92Z"/>
          <path class="cls-12" d="M139.05,47.77c.75,8.64-1.56,19-3.23,27.47-.3.27-.81,1.4-.92,1.85-.32-.02-1.07-.89-1.15-.92-.18-2.98.41-6.16,0-9.12-.19-1.37-1.2-3.21-1.38-4.39-.56-3.66-.4-7.57-1.85-11.19.22.03.47-.04.69,0,.65.1,4.74,1.11,4.96.92l.12-3s-.01-.07.23-.23c.48-.32,1.67-1.12,1.85-1.62l.69.23Z"/>
          <path class="cls-2" d="M137.89,33.23c-5.55,1.35-9.39,3.75-12.93,8.19-2.35,2.96-6.21,10.61-9,12.58-.93.66-1.1.22-1.15.23,4.05-9.24,6.82-19.12,15.93-24.7,2.39,1.07,4.87,2.87,7.16,3.69Z"/>
          <path class="cls-2" d="M139.05,47.77l-.69-.23c.47-1.29-1.43-3.3-2.54-3.92-.11-.06-.17-.63-.81-.46l-7.5,6.92c-.97-.1-5.68,2.16-7.16,2.77l21.24-18.7c.34.08,1.18-.15,1.38.12-1.7.99-7.19,6.55-7.16,8.31.02,1.01,2.96,2.63,3.23,3.46.11.35-.04,1.25,0,1.73Z"/>
          <path class="cls-15" d="M86.19,51.93l-9,.23c.29-1.6.47-1.85,1.15-3.23l7.85,3Z"/>
          <path class="cls-2" d="M110.65,54.24c-.73-.1-2.71.18-3.23-.35-.23-.23-.48-3-.23-3.58.66,1.16,2.67,2.72,3.46,3.92Z"/>
          <g>
            <path class="cls-12" d="M130.74,29.54c-9.11,5.58-11.87,15.46-15.93,24.7-2.5.65-1.93.3-4.15,0-.79-1.2-2.8-2.77-3.46-3.92-6.62-11.62,8.68-22.17,18.93-22.62,2,.4,2.9,1.08,4.62,1.85Z"/>
            <path class="cls-15" d="M110.77,46.16c.56,2.66,1.63,5.33,1.15,8.08-.96-2.57-2.05-5.32-1.15-8.08Z"/>
          </g>
          <path class="cls-2" d="M135.81,43.62l.69,5.54c-.24.16-.22.22-.23.23-1.51.9-3.53,1.23-5.08,2.08-.22-.04-.47.03-.69,0-.08-.01-.16.01-.23,0-.03-1.11-1.89-.78-2.65-.92-.2-.04-.09-.46-.12-.46l7.5-6.92c.64-.17.7.4.81.46Z"/>
          <path class="cls-15" d="M89.42,50.31c-.05.02-.72.55-.92.69-1.2.96-6.28-1.53-6.92-2.65-.6-1.04-.85-3.92.58-4.04.25-.02,2.5,2.63,3,3,1.32.99,3.6,1.64,4.27,3Z"/>
          <path class="cls-15" d="M138.35,47.54c-.18.49-1.37,1.3-1.85,1.62l-.69-5.54c1.11.62,3.01,2.63,2.54,3.92Z"/>
          <path class="cls-15" d="M136.28,49.39l-.12,3c-.23.18-4.31-.82-4.96-.92,1.55-.85,3.57-1.18,5.08-2.08Z"/>
        </g>
        <g>
          <path class="cls-12" d="M134.2,81.24c-.35,2.15-.55,4.3-.69,6.46-.07,1.07.05,2.16,0,3.23-.12,2.36.1,4.81,0,7.16-.28,6.85-.19,10.43-2.54,16.97-.51,1.43-2.23,3.56-2.54,4.73-2.36,1.78-4.56,3.77-6.92,5.54.26-.89-.08-6.24-.35-6.46-1.05-.87-.2,5.27-1.04,5.42v-9.12c1.89-1.28,2.65-12,1.96-12.23-4.91,1.62-10.17.6-15.23.69-3.66.06-7.46,1.12-11.08,0-.46.3.45,10.22.81,10.96.55,1.12,8.67,3.7,9,2.77l-.35-2.65h7.16v2.77c2.28-.63,4.67-.99,6.81-2.08.66,3.16,1.33,6.55-.23,9.58-.19-1.52.89-4.68.46-6-.13-.39-.49-.37-.69,0l-2.31,9.81c-5.35,2.68-9.38,2.89-15,.46l-2.42-9.69c-1.24-1.01-.11,5.48-.23,5.77l-.92-3.92-.35,3.58-.46-5.77c-.61-.88-1.12,6.31-.69,6.81-.09-.06-.37-.17-.46-.23-1.42-1.05-5.43-4.32-6.46-5.54-4.79-5.67-5.02-14.73-5.31-21.7-.11-2.53.04-5.09,0-7.62,0-.53.02-1.1,0-1.62-.04-1.32-.81-3.82.23-4.85,1.03,4.77,2.46,9.47,3.69,14.2.9,3.46-.13,6.95,4.5,7.5.24-1.94.1-3.16,1.73-4.39,2.18-1.65,8.97-3.04,11.66-2.77.21.02,1.67.87,2.08.92,2.26.28,3.31-1.08,5.54-1.15,1.62-.05,8.88,1.63,10.16,2.54,1.71,1.22,1.39,4.47,1.85,4.62,4.36-1.39,2.97-3.79,3.81-7.27,1.42-5.89,3.31-11.68,4.39-17.66.19.07.28.21.46.23Z"/>
          <g>
            <path class="cls-16" d="M95.88,125.79c2.77,5.46,11.55,8.18,17.43,7.85,6.9-.39,10.83-4.7,14.89-9.69.04,1.08.26,2.61.46,3.69.29,1.51,2.07,4.91,2.08,5.19.05,1.56-7.21,12.02-8.54,13.96l-9.35.23c-11.2-1.92-17.6-12.45-21.81-21.58-.47-1.03-.25-2.04-1.38-2.89.03-.8-.07-1.53-.23-2.31,1.03,1.22,5.04,4.49,6.46,5.54Z"/>
            <path class="cls-10" d="M122.2,146.8c-4.21,6.14-8.62,12.11-13.73,17.54-3.73-4.01-21.68-26.98-21.12-31.05.02-.15,1.24-2.01,1.38-2.77.21-1.08.31-2.45.46-3.58.19-1.37.41-3.02.46-4.39,1.14.85.91,1.86,1.38,2.89,4.22,9.13,10.62,19.66,21.81,21.58l9.35-.23Z"/>
            <path class="cls-13" d="M128.43,119.79c-.34,1.25-.28,2.86-.23,4.15-4.06,4.99-7.98,9.3-14.89,9.69-5.87.33-14.66-2.39-17.43-7.85.09.06.37.17.46.23,1.73,1.24,3.06,2.36,5.08,3.23,5.62,2.43,9.65,2.22,15-.46,2.4-1.2,3.11-1.99,5.08-3.46,2.37-1.77,4.57-3.76,6.92-5.54Z"/>
          </g>
          <path class="cls-10" d="M110.19,81.24c.99,1.23.25,1.99.23,2.89-.08,3.46.91,10.51.23,13.27-1.81-.59-4.46-1.32-6.23-.46-.68-1.45.08-1.73.12-3.23-1.26,1.8-2.44,2.94-.92,4.85-.33.38-8.83,1.24-9.35,3.23-1.63,1.23-1.49,2.44-1.73,4.39-4.63-.56-3.6-4.04-4.5-7.5-1.23-4.72-2.67-9.42-3.69-14.2-.24-1.13-.82-2.31-.23-3.46.13.1.32-.36.58-.23,1.12.56.42,7.81,4.39,10.39s13.43,1.68,15.81-3.12c1.32-2.66.52-8.47,5.31-6.81Z"/>
          <path class="cls-16" d="M133.74,81.01c-1.07,5.98-2.96,11.77-4.39,17.66-.84,3.48.56,5.88-3.81,7.27-.46-.15-.14-3.39-1.85-4.62-1.27-.91-8.54-2.59-10.16-2.54-2.23.08-3.28,1.43-5.54,1.15-.41-.05-1.87-.9-2.08-.92-2.69-.27-9.48,1.12-11.66,2.77.52-2,9.01-2.85,9.35-3.23-1.52-1.91-.34-3.04.92-4.85-.04,1.5-.79,1.78-.12,3.23,1.07,2.29,5.32,4.19,6.23.46.68-2.76-.31-9.81-.23-13.27.02-.9.76-1.66-.23-2.89,1.68.59,2.05,5.15,3.23,7.04,2.6,4.19,9.92,5.12,14.2,3.35s4.02-6.94,4.73-10.73c.5-.31.92-.07,1.38.12Z"/>
          <g>
            <path class="cls-10" d="M81.11,75.47c.62.34,1.38,1.55,1.62,2.08.45.99.05,2.44,1.38,3.46-.59,1.15-.01,2.34.23,3.46-1.04,1.03-.27,3.53-.23,4.85-1.06-.41-.97-2.57-1.15-3.12-.22-.63-3.09-7.48-3.92-4.85-.76,2.38.9,9.36,3.81,10.04,1.36.32.32-.28,1.27-.46.04,2.53-.11,5.09,0,7.62-4.19-2.73-6.41-11.43-6.92-16.27-.31-2.87-1.14-9.59,3.92-6.81Z"/>
            <path class="cls-16" d="M84.11,89.32c.02.52,0,1.08,0,1.62-.95.18.09.78-1.27.46-2.91-.68-4.56-7.67-3.81-10.04.84-2.63,3.71,4.22,3.92,4.85.19.55.09,2.7,1.15,3.12Z"/>
          </g>
          <g>
            <path class="cls-16" d="M133.51,98.09c.1-2.35-.12-4.79,0-7.16,3.64.42,5.65-8,4.62-10.27-1.31-2.87-3.86,6.93-4.62,7.04.15-2.16.35-4.32.69-6.46.16-.97.41-3,.69-4.15.11-.45.63-1.57.92-1.85,1.05-.97,3.41-1.49,4.15.12,1.28,2.75-1.26,14.47-2.54,17.54-.69,1.66-2.04,4.71-3.92,5.19Z"/>
            <path class="cls-16" d="M133.51,90.94c.05-1.07-.07-2.17,0-3.23.76-.11,3.31-9.91,4.62-7.04,1.04,2.27-.98,10.7-4.62,10.27Z"/>
          </g>
          <path class="cls-15" d="M120.12,115.17v9.12c.84-.15,0-6.29,1.04-5.42.27.22.6,5.57.35,6.46-1.97,1.47-2.67,2.26-5.08,3.46l2.31-9.81c.2-.37.57-.39.69,0,.43,1.32-.65,4.48-.46,6,1.56-3.02.9-6.42.23-9.58.38-.19.88-.2.92-.23Z"/>
          <path class="cls-15" d="M101.42,129.25c-2.02-.87-3.35-1.99-5.08-3.23-.43-.5.08-7.69.69-6.81l.46,5.77.35-3.58.92,3.92c.13-.29-1.01-6.78.23-5.77l2.42,9.69Z"/>
          <path class="cls-16" d="M101.42,53.55c6.74,1.45,12.92,2.53,19.5,0,5.27-2.03,2.82-2.94,9.12-2.08,1.6,3.38,1.28,7.28,1.85,10.73.23,1.39,1.18,2.97,1.38,4.39.43,2.93.04,5.85.23,8.77-.16.74-5.85-1.41-6.35-.58l.35-1.15c1.44.13,2.83.56,4.27.69-.29-.54-1.52-1.77-1.96-2.08-1.45-1.72-3.82-1.7-5.77-2.42,2.5-4.86,4.4-10.79,1.96-16.04-2.71.62-5.09,3.12-8.08,3.69-7.33,1.41-20.34-2.08-26.54-6.23-.04-.03-.2-.76-.35-.92,3.15.65,6.93,2.49,10.39,3.23Z"/>
          <path class="cls-10" d="M110.65,97.4c-.92,3.73-5.17,1.83-6.23-.46,1.77-.86,4.42-.13,6.23.46Z"/>
          <g>
            <path class="cls-10" d="M120.12,115.17s-.55.04-.92.23c-2.14,1.09-4.53,1.45-6.81,2.08v-2.77h-7.16l.35,2.65c-.34.93-8.46-1.65-9-2.77-.36-.74-1.27-10.66-.81-10.96,3.62,1.12,7.42.06,11.08,0,5.07-.09,10.33.92,15.23-.69.68.23-.07,10.95-1.96,12.23Z"/>
            <path class="cls-8" d="M118.5,105.25c-.75,1.9-2.13,3.34-3.69,4.62-5.1,2.06-6.8,2.02-12,.23-2.03-.73-2.65-3.26-3.69-4.39,6.58.78,12.9,1.21,19.39-.46Z"/>
            <path class="cls-14" d="M117.81,108.48c-3.1,7.82-14.3,7.21-18.23.23.98.75,2.11,1,3.23,1.38,5.21,1.79,6.9,1.83,12-.23.91-.37,2.24-.76,3-1.38Z"/>
            <path class="cls-11" d="M99.11,105.71c1.04,1.12,1.66,3.65,3.69,4.39-1.12-.39-2.25-.63-3.23-1.38-.58-.45-3.03-3.32-3-3.81.05-.88,2.15.39,2.54.81Z"/>
            <path class="cls-11" d="M117.81,108.48c-.76.62-2.09,1.02-3,1.38,1.57-1.27,2.94-2.71,3.69-4.62.12-.03,2.23-1.62,2.31-.58-1.03,1.25-1.72,2.76-3,3.81Z"/>
          </g>
          <g>
            <path class="cls-10" d="M91.04,50.31c.15.16.31.9.35.92,6.21,4.15,19.22,7.64,26.54,6.23,2.99-.57,5.37-3.08,8.08-3.69,2.44,5.25.54,11.19-1.96,16.04,1.95.73,4.32.7,5.77,2.42-2.36-1.61-6.54-1.98-9.35-1.85-3.31.16-4.64-.1-3.92,3.69,3.6-.91,7.29-.79,10.96-.46l-.35,1.15c.5-.83,6.19,1.32,6.35.58-.2-2.92.2-5.84-.23-8.77-.21-1.42-1.16-2.99-1.38-4.39-.56-3.45-.25-7.35-1.85-10.73.08.01.16-.01.23,0s.16-.01.23,0c1.45,3.62,1.28,7.54,1.85,11.19.18,1.17,1.2,3.02,1.38,4.39.41,2.96-.18,6.14,0,9.12-8.64-3.91-19.89,2.03-28.74.92-5.6-.7-15.64-3.63-21.12-.92-.69.1-.45-.62-.46-1.04-.16-4.82.58-7.15,1.15-11.54s-.37-7.87,2.77-11.43c.12-.13,1.09-1.11,1.15-1.15.2-.15.87-.67.92-.69.84-.34.89-.15,1.62,0Z"/>
            <path class="cls-15" d="M94.84,69.93c2.24-.24,4.87.18,7.16,0v3.92c-5.04-1.26-10.12-.66-15.12.35,2.04-2.43,4.77-3.93,7.96-4.27Z"/>
          </g>
          <path class="cls-15" d="M129.81,72.24c.44.3,1.67,1.54,1.96,2.08-1.44-.13-2.83-.56-4.27-.69-3.67-.33-7.37-.45-10.96.46-.72-3.8.61-3.54,3.92-3.69,2.81-.13,6.99.23,9.35,1.85Z"/>
          <g>
            <path class="cls-5" d="M133.74,76.17c.08.04.84.9,1.15.92-.28,1.16-.54,3.19-.69,4.15-.18-.02-.28-.16-.46-.23-.46-.18-.88-.43-1.38-.12-.72,3.8-.51,8.98-4.73,10.73s-11.59.84-14.2-3.35c-1.18-1.89-1.55-6.46-3.23-7.04-4.79-1.66-3.99,4.15-5.31,6.81-2.38,4.8-11.72,5.78-15.81,3.12s-3.26-9.83-4.39-10.39c-.26-.13-.45.33-.58.23-1.34-1.02-.93-2.47-1.38-3.46.3-.72.42-1.02,1.15-1.38,5.48-2.71,15.52.22,21.12.92,8.84,1.11,20.1-4.84,28.74-.92Z"/>
            <g>
              <path class="cls-10" d="M91.61,76.86c1.99-.24,12.18.34,13.04,1.96.07.13.45,2.1.46,2.31.79,11.94-17.11,14.33-18.23,4.15-.49-4.46-.22-7.83,4.73-8.42Z"/>
              <g>
                <path class="cls-5" d="M95.65,78.01c.39.55,1.49,1.24,2.08,1.62.84,1.78.27,3.37-1.38,4.39-.92.02-1.44-.09-2.31-.23-.63-.35-2.14-2.55-.23-2.31-.21,2.34,2.49,2.11,3,1.04.96-2-1.48-3.62-2.54-2.19-2.2.38-.31-1.16-.81-1.38-1.56.71-2.74,1.91-3.81,3.23-.13-.09-.48.55-.46-.12,1.88-2.86,2.79-4.2,6.46-4.04Z"/>
                <path class="cls-8" d="M94.27,80.32s-.46,1.09-.46,1.15c-1.91-.25-.4,1.96.23,2.31-1.56-.26-3.07-.7-4.39-1.62,1.07-1.33,2.25-2.53,3.81-3.23.49.22-1.39,1.76.81,1.38Z"/>
                <path class="cls-8" d="M101.42,82.86c-1.35.89-3.45,1.12-5.08,1.15,1.65-1.02,2.23-2.61,1.38-4.39,1.27.81,2.71,1.76,3.69,3.23Z"/>
                <path class="cls-15" d="M101.42,82.86c-.99-1.47-2.42-2.42-3.69-3.23-.59-.38-1.69-1.06-2.08-1.62,3.49.16,4.63,1.99,6.23,4.73l-.46.12Z"/>
                <path class="cls-5" d="M93.8,81.47c0-.06.42-1.1.46-1.15,1.06-1.43,3.49.19,2.54,2.19-.51,1.07-3.21,1.3-3-1.04Z"/>
              </g>
            </g>
            <g>
              <path class="cls-10" d="M122.08,76.63c6.65-.26,9.59.99,8.66,8.19-1.16,8.94-14.53,7.83-17.08,1.62-.43-1.04-1.18-6.19-.92-7.16.39-1.44,7.79-2.59,9.35-2.65Z"/>
              <g>
                <path class="cls-8" d="M127.74,81.94c-1.66,1.19-3.55,1.89-5.54,2.08,2.06-.91,2.5-3.9.46-5.08,2.08-.71,3.89,1.67,5.08,3Z"/>
                <path class="cls-5" d="M122.66,78.94c2.04,1.17,1.6,4.17-.46,5.08-1.49.14-1.32-.16-2.31-.23-1.01-.88-1.96-2.27,0-2.31-.08.47-.68,1.4.58,1.85,2.63.93,3.76-4.13-.23-3.46-.25.12.28.39.12.69-.64-.45-1.8.37-1.15-.92,1.34-.7,1.49-1.83,3.46-.69Z"/>
                <path class="cls-15" d="M127.74,81.94c-1.19-1.33-3-3.71-5.08-3-1.97-1.13-2.12,0-3.46.69-1.82.94-2.56,1.7-3.92,3.23-.2-.51,2.03-3.31,2.54-3.69,3.35-2.54,8.99-1.76,10.39,2.65l-.46.12Z"/>
                <path class="cls-8" d="M119.2,79.63c-.65,1.29.51.47,1.15.92-.22.4-.37.39-.46.92-1.96.04-1.01,1.43,0,2.31-1.31-.1-3.13-.15-4.39-.46-.02-.19-.16-.27-.23-.46,1.36-1.53,2.1-2.29,3.92-3.23Z"/>
                <path class="cls-16" d="M117.81,79.17c-.51.38-2.74,3.18-2.54,3.69.07.19.21.28.23.46-1.44-.36-1.51-.69-.92-2.19.3-.76,3.69-4.6,3.23-1.96Z"/>
                <path class="cls-5" d="M119.89,81.47c.09-.54.24-.53.46-.92.17-.31-.37-.57-.12-.69,3.99-.67,2.86,4.39.23,3.46-1.26-.45-.66-1.38-.58-1.85Z"/>
              </g>
            </g>
          </g>
        </g>
      </g>
    </g>
  </g>
</svg>