<?xml version="1.0" encoding="UTF-8"?>
<svg id="Layer_1" data-name="Layer 1" xmlns="http://www.w3.org/2000/svg" xmlns:xlink="http://www.w3.org/1999/xlink" viewBox="0 0 216.48 284.55">
  <defs>
    <style>
      .cls-1 {
        fill: #7f91a6;
      }

      .cls-2 {
        fill: #e38556;
      }

      .cls-3 {
        fill: #758194;
      }

      .cls-4 {
        fill: #212b40;
      }

      .cls-5 {
        fill: url(#linear-gradient-8);
      }

      .cls-6 {
        fill: url(#linear-gradient-7);
      }

      .cls-7 {
        fill: url(#linear-gradient-5);
      }

      .cls-8 {
        fill: url(#linear-gradient-6);
      }

      .cls-9 {
        fill: url(#linear-gradient-9);
      }

      .cls-10 {
        fill: url(#linear-gradient-4);
      }

      .cls-11 {
        fill: url(#linear-gradient-3);
      }

      .cls-12 {
        fill: url(#linear-gradient-2);
      }

      .cls-13 {
        fill: #6b6b75;
      }

      .cls-14 {
        fill: #76cce8;
      }

      .cls-15 {
        fill: #1f151a;
      }

      .cls-16 {
        fill: #9baec1;
      }

      .cls-17 {
        fill: #dfe5ed;
      }

      .cls-18 {
        fill: #fbc697;
      }

      .cls-19 {
        fill: url(#linear-gradient);
      }

      .cls-20 {
        fill: #0d0e15;
      }

      .cls-21 {
        fill: #4b77a7;
      }

      .cls-22 {
        fill: #2b191b;
      }

      .cls-23 {
        fill: #3f4a5e;
      }

      .cls-24 {
        fill: #afb6c3;
      }

      .cls-25 {
        fill: #add3e8;
      }

      .cls-26 {
        fill: #50596e;
      }

      .cls-27 {
        fill: #fdd9b4;
      }

      .cls-28 {
        fill: #f7aa7c;
      }

      .cls-29 {
        fill: #fff;
      }

      .cls-30 {
        fill: #5c697e;
      }

      .cls-31 {
        fill: #1e487d;
      }

      .cls-32 {
        fill: #d6e9f4;
      }

      .cls-33 {
        fill: #1e1e2d;
      }

      .cls-34 {
        fill: #969faf;
      }

      .cls-35 {
        fill: #c65930;
      }

      .cls-36 {
        fill: #0b2c60;
      }

      .cls-37 {
        fill: #336198;
      }

      .cls-38 {
        fill: #021d49;
      }

      .cls-39 {
        fill: #a24531;
      }

      .cls-40 {
        fill: #ea9862;
      }
    </style>
    <linearGradient id="linear-gradient" x1="91.48" y1="195.43" x2="34.02" y2="254.23" gradientUnits="userSpaceOnUse">
      <stop offset="0" stop-color="#285487"/>
      <stop offset="1" stop-color="#0f346a"/>
    </linearGradient>
    <linearGradient id="linear-gradient-2" x1="171.26" y1="177.58" x2="155.57" y2="243.28" gradientUnits="userSpaceOnUse">
      <stop offset="0" stop-color="#38699e"/>
      <stop offset="1" stop-color="#245086"/>
    </linearGradient>
    <linearGradient id="linear-gradient-3" x1="128.95" y1="235.3" x2="152.6" y2="250.46" gradientUnits="userSpaceOnUse">
      <stop offset="0" stop-color="#113771"/>
      <stop offset="1" stop-color="#29568c"/>
    </linearGradient>
    <linearGradient id="linear-gradient-4" x1="141.1" y1="168.92" x2="103.13" y2="210.89" gradientUnits="userSpaceOnUse">
      <stop offset="0" stop-color="#3e6fa6"/>
      <stop offset="1" stop-color="#2d598f"/>
    </linearGradient>
    <linearGradient id="linear-gradient-5" x1="147.54" y1="223.26" x2="132.39" y2="239.92" gradientUnits="userSpaceOnUse">
      <stop offset="0" stop-color="#37689e"/>
      <stop offset="1" stop-color="#254c82"/>
    </linearGradient>
    <linearGradient id="linear-gradient-6" x1="126.81" y1="159.92" x2="89.26" y2="161.85" gradientUnits="userSpaceOnUse">
      <stop offset="0" stop-color="#f8af7b"/>
      <stop offset="1" stop-color="#e68652"/>
    </linearGradient>
    <linearGradient id="linear-gradient-7" x1="130.42" y1="56.39" x2="74.77" y2="82.7" gradientUnits="userSpaceOnUse">
      <stop offset="0" stop-color="#f6ab73"/>
      <stop offset="1" stop-color="#e38859"/>
    </linearGradient>
    <linearGradient id="linear-gradient-8" x1="124.66" y1="92.69" x2="125.58" y2="104.64" gradientUnits="userSpaceOnUse">
      <stop offset="0" stop-color="#e9975f"/>
      <stop offset="1" stop-color="#f9b783"/>
    </linearGradient>
    <linearGradient id="linear-gradient-9" x1="86.54" y1="90.98" x2="94.97" y2="104.95" gradientUnits="userSpaceOnUse">
      <stop offset="0" stop-color="#d8794b"/>
      <stop offset="1" stop-color="#ee9f6c"/>
    </linearGradient>
  </defs>
  <g id="Generative_Object" data-name="Generative Object">
    <g>
      <path class="cls-14" d="M89.05,180.02c8.5,5.66,27.55,2.14,36.77-.62.45-.14,1.36-.17,1.86-.21-3.88,15-12.07,30.58-19.42,44.2,3.08-7.62,6.87-14.97,9.91-22.62,2.61-6.57,4.91-13.29,7.02-20.04-11.52,3.36-24.12,4.3-35.74.83,1.63,4.27,3.22,8.57,4.96,12.81,3.4,8.3,8.21,21.23,12.39,28.71.39.7.34,1.11,1.24.72-.17.31-.52.81-.62,1.03-7.49-14.43-16.4-30.08-20.66-45.86.77-.05,2.81,3.22,2.27,1.03Z"/>
      <path class="cls-14" d="M86.57,171.97c.21.38.65.55.62,1.03l1.45,6.4c-.78-.61-1.36-1.51-2.27-1.86-.62-2.5-1.22-5.28-1.45-7.85.27.72,1.37,1.75,1.65,2.27Z"/>
      <path class="cls-14" d="M88.64,179.4c.05.04.38.6.41.62.54,2.19-1.5-1.08-2.27-1.03-.13-.48-.3-.98-.41-1.45.91.35,1.5,1.25,2.27,1.86Z"/>
      <path class="cls-25" d="M108.26,223.4c-.07.13-.14.28-.21.41-.9.39-.85-.02-1.24-.72-4.18-7.48-9-20.42-12.39-28.71-1.73-4.23-3.32-8.53-4.96-12.81,11.62,3.47,24.21,2.53,35.74-.83-2.11,6.75-4.41,13.47-7.02,20.04-3.05,7.65-6.83,15-9.91,22.62Z"/>
      <path class="cls-14" d="M127.68,179.2c-.5.04-1.41.07-1.86.21.73-1.93,1.05-4.03,1.65-5.99.7-2.26,1.72-4.49,2.27-6.82.22,4.56-.96,8.33-2.07,12.6Z"/>
      <path class="cls-32" d="M127.47,173.41c-.61,1.96-.92,4.06-1.65,5.99-9.22,2.76-28.27,6.28-36.77.62-.03-.02-.36-.58-.41-.62l-1.45-6.4c11.22,8.15,28.71,7.74,40.28.41Z"/>
    </g>
    <g>
      <path class="cls-19" d="M72.52,168.25c-4.5,6.22-6.87,13.91-9.09,21.17-.03,2.08,9.69,5.26,11.57,5.78.27.71-6.02,6.12-6.4,6.92-.21.43-.05.55.21.93.53.77,3.91,3.63,4.85,4.44,9.34,8,20.68,14.69,31.71,20.04.32,7.29.52,14.6.72,21.9l-52.26-.21-.31-3.1c.15-3.76-.61-9.64-1.03-13.53-.93-8.58-2.68-17.54-4.75-25.82-.01,1.27.02,2.55,0,3.82-.16,12.87-1.44,25.64-3.51,38.32l-19.62.31c4.09-18.26,2.39-47.79,10.33-64.24l3.82-4.54c1.76-.87,3.5-1.85,5.27-2.69.35-.07.52-.18.62-.21.19-.05.47.1.62-.1l-.41-.1c8.68-3.87,18.53-6.53,27.68-9.09Z"/>
      <path class="cls-12" d="M189.85,249.22c-6.44.22-12.98.42-19.42.21-2.36-12.96-2.68-26.11-3.3-39.25-.04-.91-.53-2,0-3-.28-.33-.55.23-.62.41-1.56,3.88-3.25,16.54-3.92,21.28-.84,5.87-.71,15.32-2.27,20.55-3.26.63-2.2-1.49-2.27-3.92-.05-1.73.11-12.54-.21-13.12-.81-1.5-.61,3.98-.62,4.23h-.62c.24-1.69.29-10.08-.83-10.95-.02-.02-.14-.36-.31-.41l-16.94-.21-.1-3.1c2.7.03,13.28.77,14.98.21,1.14-.38,1.23-8.9.93-10.02-.04-.17-.55-.84-.72-.93-1.72-.84-9.81.38-10.95-.21-.57-.29-.14-2.2-.31-2.58-.24-.53-1.86-.36-2.27-.1-.61.38-.42.32-.41,1.24,0-.1-.42-1.06-.21-1.45,2.28-1.88,4.63-3.7,6.82-5.68-2.23-2.5-5.14-4.74-7.23-7.33,4.15-1.22,8.57-2.27,11.98-5.06.35-.66-.15-.56-.21-.93-.63-4.17-4.83-15.48-7.44-18.69-.3-.38-.53-.7-1.03-.31-.3-.5-.94-2.02-1.45-1.65-.71-1.09-2.56-2.44-2.27-3.72,4.18,4.79,9.33,4.6,15.18,6.61,4.26,1.46,20.69,6.72,23.13,8.88,6.74,5.96,9.1,33.26,10.22,42.66.72,5.96,3.29,21.29,2.69,26.34Z"/>
      <path class="cls-11" d="M157.21,236.62c-.19,4.23-.11,8.48-.41,12.7,2,.17.47-2.56,1.24-3.82.08,2.43-.99,4.55,2.27,3.92-.03.1.02.28,0,.41-5.44.01-10.88,0-16.32,0l-19.52-.62-.52-11.26c.55-.46.94.49,1.14.52,8.91,1.32,21.11-.99,30.36,0,1.01-.49,1-.88,1.14-1.86h.62Z"/>
      <path class="cls-36" d="M167.13,210.18c-.44-.12-.58,1.08-.62,1.34-1.76,12.24-2.05,25.22-2.69,37.59,2.2.02,4.43.24,6.61.31,6.44.21,12.98.01,19.42-.21-.02.21.42.27-.1.62-9.81.01-19.63-.02-29.44,0,.02-.13-.03-.31,0-.41,1.56-5.23,1.44-14.68,2.27-20.55.67-4.73,2.37-17.39,3.92-21.28.07-.18.34-.74.62-.41-.53.99-.04,2.09,0,3Z"/>
      <path class="cls-38" d="M53.52,246.12c-.02.39-.18,3.01-.31,3.1s-3.11.03-3.2-.1c.17-12.35-.5-24.69-1.65-36.97-.02-.23-.17-1.67-.62-1.55.02-1.27-.01-2.55,0-3.82,2.07,8.28,3.82,17.24,4.75,25.82.42,3.89,1.18,9.77,1.03,13.53Z"/>
      <path class="cls-36" d="M105.37,227.53c-11.03-5.35-22.37-12.04-31.71-20.04-.94-.81-4.33-3.67-4.85-4.44-.26-.38-.41-.5-.21-.93,11.32,9.22,24.01,16.66,36.87,23.55.08.12-.12,1.59-.1,1.86Z"/>
      <path class="cls-31" d="M167.13,210.18c.62,13.14.95,26.29,3.3,39.25-2.18-.07-4.41-.29-6.61-.31.64-12.37.93-25.35,2.69-37.59.04-.26.18-1.47.62-1.34Z"/>
      <path class="cls-31" d="M139.04,195.1c-.12-.16-1.11-.63-.72-1.03,4.35-1.14,8.75-2.43,12.5-4.96.06.37.56.27.21.93-3.41,2.79-7.83,3.84-11.98,5.06Z"/>
      <path class="cls-36" d="M158.04,245.5c-.77,1.26.76,3.99-1.24,3.82.31-4.23.23-8.47.41-12.7.01-.26-.19-5.73.62-4.23.31.58.15,11.39.21,13.12Z"/>
      <path class="cls-37" d="M139.66,209.56c0,.24.09.9-.1,1.03l-3.2-.1c.95-.88,2.1-1.55,3.1-2.38-.21.39.21,1.35.21,1.45Z"/>
      <g>
        <path class="cls-37" d="M84.92,169.7c.22,2.57.83,5.35,1.45,7.85.12.47.28.97.41,1.45,4.26,15.77,13.17,31.43,20.66,45.86-.03.08.02.28,0,.41-.81.02-.78.1-1.55-.21-1.81-.73-4.98-2.98-6.71-4.13-.03-.02.07-.36-.31-.62-9.08-6.11-18-12.45-26.54-19.31l3.3-5.06c.8-1.06,1.6-2.15,2.27-3.3.19-.34.45-.56.72-.83l-.21-.41-12.08-3.82,6.2-18.07c.3-.54.51-1.35.83-1.86,3.66-5.85,9.84-11.28,15.08-15.7-.49,7.31-4.15,10.32-3.51,17.76Z"/>
        <path class="cls-10" d="M138.62,164.74c-.29,1.28,1.56,2.63,2.27,3.72,1.54,2.35,3.57,6.7,4.54,9.4,1.16,3.22,2.19,6.59,2.89,9.91-.27.83-11.12,3.29-12.6,3.92-.04,1.66,6.73,8.7,6.61,9.5l-26.03,19.52c-2.13,1.28-6.81,4.48-8.88,4.54.02-.13-.03-.33,0-.41.1-.22.45-.72.62-1.03.07-.13.14-.28.21-.41,7.34-13.63,15.54-29.21,19.42-44.2,1.1-4.27,2.29-8.04,2.07-12.6-.24-4.97-3.43-8.3-3.72-14.67,3.33,2.87,6.7,5.76,9.71,8.99,1.08,1.15,1.95,2.74,2.89,3.82Z"/>
        <path class="cls-36" d="M150.81,189.11c-3.75,2.53-8.15,3.82-12.5,4.96-.38.4.6.88.72,1.03,2.09,2.59,5,4.83,7.23,7.33-2.19,1.98-4.54,3.8-6.82,5.68-.99.82-2.15,1.49-3.1,2.38l3.2.1c.19-.13.1-.79.1-1.03,0-.92-.2-.86.41-1.24.09.4-.12,2,0,2.17.27.38,2.06-.37,1.96.52l-11.26.21s-.58.08-.31-.21c1.8-.53,13.05-8.99,13.12-9.81l-7.23-8.47,13.01-4.34c-1.62-6.26-3.69-12.72-7.02-18.28.5-.39.73-.07,1.03.31,2.61,3.22,6.8,14.52,7.44,18.69Z"/>
        <path class="cls-21" d="M142.34,170.11c3.33,5.56,5.4,12.02,7.02,18.28l-13.01,4.34,7.23,8.47c-.07.82-11.32,9.28-13.12,9.81-.27.29.32.19.31.21-.12.23-.61.78-.62.83-.21-.41-1.14.27-1.34.41-4.1,2.82-8.23,5.7-12.5,8.26l26.03-19.52c.12-.8-6.65-7.84-6.61-9.5,1.48-.63,12.33-3.09,12.6-3.92-.7-3.32-1.73-6.7-2.89-9.91-.97-2.7-3.01-7.05-4.54-9.4.5-.37,1.15,1.16,1.45,1.65Z"/>
        <path class="cls-21" d="M77.89,192.62l-12.39-4.03c1.1-6.74,3.72-13.18,7.02-19.11l-6.2,18.07,12.08,3.82.21.41c-.27.27-.53.49-.72.83Z"/>
      </g>
      <path class="cls-31" d="M128.92,216.17c-5.44,3.45-11.31,5.87-17.14,8.47l16.83-10.12c.47.13.28,1.27.31,1.65Z"/>
      <g>
        <path class="cls-36" d="M72.52,169.49c-3.3,5.92-5.92,12.37-7.02,19.11l12.39,4.03c-.67,1.15-1.47,2.25-2.27,3.3-1.36,1.8-3.08,3.54-4.54,5.27,8.59,7.58,18.27,13.87,28.09,19.73,1.73,1.16,4.9,3.4,6.71,4.13.77.31.74.23,1.55.21,2.08-.06,6.75-3.26,8.88-4.54,4.27-2.56,8.39-5.45,12.5-8.26.21-.14,1.13-.82,1.34-.41-.14.92-.07,9.17.21,9.61.51.82,4.62.52,5.78.52-1.17.19-.3,1.97-.72,2.27-.3.21-5.35-.16-6.2,0-.18-2.75-.1-5.52-.31-8.26-.03-.38.16-1.52-.31-1.65l-16.83,10.12c-.62.28-4.2,1.8-4.34,2.17l.31,22.62,15.8-.1v-21.69c1.41-.75.35-1.61,1.96-2.17l30.26.21c1.11.87,1.07,9.26.83,10.95-.14.98-.13,1.37-1.14,1.86-9.26-.99-21.45,1.32-30.36,0-.2-.03-.58-.97-1.14-.52l.52,11.26,19.52.62c-39.76.04-79.53-.03-119.29,0l-.1-.62,19.62-.31c2.07-12.67,3.35-25.45,3.51-38.32.45-.12.6,1.32.62,1.55,1.15,12.28,1.82,24.62,1.65,36.97.09.13,3.07.2,3.2.1s.29-2.71.31-3.1l.31,3.1,52.26.21c-.21-7.29-.4-14.61-.72-21.9-.01-.27.18-1.74.1-1.86-12.86-6.88-25.55-14.33-36.87-23.55.39-.8,6.68-6.21,6.4-6.92-1.88-.52-11.6-3.71-11.57-5.78,2.22-7.26,4.59-14.95,9.09-21.17.17-.24.57-.44.83-.62-.32.51-.52,1.32-.83,1.86Z"/>
        <path class="cls-21" d="M99.17,220.92c-9.82-5.85-19.5-12.15-28.09-19.73,1.47-1.73,3.18-3.47,4.54-5.27l-3.3,5.06c8.54,6.86,17.46,13.2,26.54,19.31.38.26.28.6.31.62Z"/>
        <path class="cls-7" d="M154.53,226.29l-.21,10.95c-8.05,1.35-19.95-1.02-28.4,0-.37-.32-.97-.37-1.14-.93-.28-.91-.09-9.76.52-10.02h29.23Z"/>
        <path class="cls-21" d="M154.32,237.24l.21-10.95c.43-.1,1.08.1,1.24.52.16.44.32,8.85.21,9.3-.21.8-.96,1.02-1.65,1.14Z"/>
      </g>
      <g>
        <path class="cls-31" d="M128.92,216.17c.21,2.74.13,5.52.31,8.26.85-.16,5.9.21,6.2,0,.42-.3-.45-2.08.72-2.27.76,0,1.74-.21,2.27-.21l.1,3.1,16.94.21c.17.05.29.4.31.41l-30.26-.21c-1.61.56-.55,1.42-1.96,2.17v21.69l-15.8.1-.31-22.62c.13-.37,3.71-1.89,4.34-2.17,5.83-2.6,11.71-5.02,17.14-8.47Z"/>
        <path class="cls-16" d="M109.81,227.33c2.75-.81,2.86,4.29,1.03,4.75-.07.02-1.39-.36-1.45-.41-1.16-.98-.82-3.97.41-4.34Z"/>
      </g>
    </g>
    <g>
      <path class="cls-17" d="M138.42,221.96c-.53,0-1.51.21-2.27.21-1.17,0-5.27.31-5.78-.52-.27-.43-.35-8.68-.21-9.61,0-.05.5-.59.62-.83l11.26-.21c.1-.88-1.7-.13-1.96-.52-.12-.17.09-1.77,0-2.17.41-.25,2.03-.43,2.27.1.17.38-.26,2.29.31,2.58,1.14.59,9.23-.63,10.95.21.18.09.68.76.72.93.3,1.12.21,9.64-.93,10.02-1.69.57-12.28-.18-14.98-.21Z"/>
      <g>
        <path class="cls-32" d="M139.97,214.73c1.48-.06,8.84-.23,9.5,0,.22.08.64.64.52.93-.26.59-2.93.21-3.61.31-.04,0-.28.58-.62.62-1.1.12-11.45.07-11.98-.21-.24-.13-.54-1.2,0-1.45,2.07.16,4.14-.12,6.2-.21Z"/>
        <path class="cls-32" d="M133.77,219.68c1.77-.79,11.84.6,14.46,0,.13.16.17.99.1,1.14-.31.66-13.9.61-14.56.31-.45-.2-.45-1.25,0-1.45Z"/>
        <path class="cls-32" d="M150.6,212.87h-1.76l.52,1.24c-4.81.56-10.67-.42-15.6,0l-.21-1.24h17.04Z"/>
        <path class="cls-32" d="M133.98,216.79c1.67.61,12.27-.26,12.7.52.08.15-.06.77,0,1.03-2.12-.28-11.63.71-12.91.1-.37-.18-.33-.6-.31-.93l.52-.72Z"/>
        <path class="cls-25" d="M150.6,212.87c.12,1.66-.07,1.1-1.24,1.24l-.52-1.24h1.76Z"/>
      </g>
    </g>
    <g>
      <path class="cls-23" d="M76.66,72.61c.24,1.66,2.07,4.45,1.86,6.3s-4.43,7.63-4.34,10.02l-2.69,1.55c-.18.28-.6-.08-.62-.21-.08-.54,5.09-8.37,6.2-9.09-1.04-.92.38-1.19.1-2.17-1.4,3.08-4.36,4.09-6.51,6.51.06.56.24.31.52.1.75-.57,2.58-2.7,3.41-3,.32-.12.44-.21.41.21-1.46,1.99-5.11,7.1-5.37,9.4-.35-4.13-2.39-9.84-2.27-13.84.15-5.38,4.73-6.76,9.3-5.78Z"/>
      <path class="cls-3" d="M108.05,39.56l1.45.83c-9.36.96-18.56,8.08-15.18,18.38.18-1.69.16-3.42.72-5.06.43-1.27,2.56-4.33,3.51-5.37,3.74-4.1,10.27-6.91,15.8-6.92.52-.54-1.77-.96-2.17-1.03l11.26,2.48c.88-.59-1.71-.78-1.76-1.24l.21-.41c2.34,1.07,6.02,2.39,8.06,3.51,2.39,1.32,4.74,3.97,7.23,5.37l3.1,2.17c-.19.63-8.64-3.03-8.99-4.23-.49,1.62,2.93,2.23,3.92,3.1.39.34.25.56-.1.83-1.2-.38-2.55-1.49-3.92-2.07-.56-.24-1.05-1.06-1.65-.21-1.38-1.15-3.59-2.19-4.23-3.72-2.53-.53-5.11-3.03-7.44-3.72-9.4-2.78-23.46,6.31-22.62,16.73-2.04.58-.4,2.75-.31,4.13-1.34-1.65-1.51-3.78-2.17-5.68-.06-.18-.41-.08-.41-.1-1.92-8.81,7.73-17.18,15.7-17.76Z"/>
      <path class="cls-3" d="M146.47,66.21l-8.47,5.16c-.01-.42-.18-1.32-.41-1.65l-1.65-8.06c2.96-.38,5.39-.72,7.85-2.69.57,2.23,2.1,4.04,2.69,7.23Z"/>
      <path class="cls-16" d="M146.68,80.25c-.17,2.43-.54,4.82-.83,7.23h-.21c.55-2.29-.45-1.73-1.65-3-.03-.03.5-.19-.1-.72-1-.88-4.37-2.73-5.68-3.41-.33-.17-.92-.28-.83.31-.14-.35-.99-1.44-1.03-1.76-.17-1.2.4-2.3.62-3.41.45-.2,2.81-.34,3-.21.22.15-.05,1.28.41,1.65.11.09,2.22.56,2.69.83,1.23.72,2.31,1.85,3.61,2.48Z"/>
      <path class="cls-30" d="M142.34,88.1c.97,1.29,2.01,2.52,3.1,3.72-.14,1.03-.52,2.03-.41,3.1-1.75,1.73-3.09,6.53-3.92,8.88-.23-.43-.13-9.24,0-9.71s1.66-1.91,1.65-2.79c-.03-.13-2.03-1.25-2.27-1.34.33-.27.26-1.28.21-1.65.54-.13,1.1-.14,1.65-.21Z"/>
      <path class="cls-16" d="M140.28,73.44c.2.03.42-.03.62,0,1.78.31,4.66,1.84,5.99,3.1-.05,1.26-.12,2.46-.21,3.72-1.3-.63-2.38-1.76-3.61-2.48-.46-.27-2.58-.74-2.69-.83-.46-.37-.19-1.5-.41-1.65-.19-.13-2.54.01-3,.21.14-.69.5-1.26.62-1.86.91-.13,1.74-.33,2.69-.21Z"/>
      <path class="cls-23" d="M72.73,91.2c.18.97-.73,2.69,1.24,3.1l.52,10.53c-1.13-2.98-2.14-7.4-4.44-9.71.06-.79-.43-1.73-.41-2.48l2.38-2.27c.61.1.62.28.72.83Z"/>
      <path class="cls-16" d="M143.99,51.95c-.8-.02-.24,1.23-.41,1.55-.07.13-1.48.97-1.76,1.14-.45.27.34.17-1.14.62l-9.5-5.37c1.38.58,2.73,1.68,3.92,2.07.99.32.39-.35,1.14-.21,1.44.27,1.84,2.13,4.54,1.45.76-.19,2.09-1.39,2.17-2.17.1-1.04-.82-.6-.41-1.34.94.45,1.28,1.23,1.45,2.27Z"/>
      <path class="cls-30" d="M74.18,88.93c0,.06.34.94.31,1.24l2.38-.41c-1.14.29-2.75,1.37-4.13,1.45-.1-.55-.12-.73-.72-.83l-2.38,2.27c0-.14-.02-.28,0-.41.26-2.3,3.91-7.41,5.37-9.4.02-.42-.09-.32-.41-.21-.83.3-2.65,2.43-3.41,3-.28.21-.46.45-.52-.1,2.14-2.42,5.11-3.43,6.51-6.51.27.98-1.15,1.25-.1,2.17-1.11.72-6.27,8.54-6.2,9.09.02.12.44.48.62.21l2.69-1.55Z"/>
      <path class="cls-30" d="M137.18,50.1c1.48.83,3.59,2.46,4.96.72.11-.55-1.75-2.16.41-1.14-.4.74.51.3.41,1.34-.08.78-1.41,1.98-2.17,2.17-2.71.68-3.11-1.17-4.54-1.45-.75-.14-.14.52-1.14.21.35-.26.5-.48.1-.83-.99-.87-4.42-1.47-3.92-3.1.35,1.21,8.79,4.86,8.99,4.23l-3.1-2.17Z"/>
      <path class="cls-30" d="M82.65,55.88c-2.81-.22-5.25-2.56-8.06-2.07,2.18-1,3.56-1.31,5.99-1.45-.01.46-.04.35-.41.52.95.44,1.67,2.15,2.48,3Z"/>
      <path class="cls-4" d="M76.66,72.2c.01.13-.02.28,0,.41-4.56-.97-9.14.4-9.3,5.78-.19-.57-.33-1.27-.41-1.86.41-.35.4-1.24.62-1.65,1.09-2.04,2.9-3.09,5.16-3.3,1.93-.18,2.08.27,3.92.62Z"/>
      <path class="cls-3" d="M145.44,91.82c-1.09-1.2-2.13-2.43-3.1-3.72,1.06-.13,2.7-.05,3.3-.62h.21c-.17,1.43-.22,2.91-.41,4.34Z"/>
      <path class="cls-1" d="M147.09,74.68c0,.64-.18,1.17-.21,1.86-1.33-1.26-4.21-2.79-5.99-3.1,1.96-.88,4.37.3,6.2,1.24Z"/>
      <path class="cls-30" d="M144.61,72.61c.39.06,1.09.27,1.45.41.25.1.53.6,1.03.41,0,.41,0,.83,0,1.24-1.83-.94-4.23-2.12-6.2-1.24-.2-.03-.42.03-.62,0,.89-1.14,3.15-1.01,4.34-.83Z"/>
      <path class="cls-16" d="M129.54,49.68c1.49,1.24,3.43,2.86,4.85,4.13.49.44,1.09.86.93,1.65-4.69-.88-10.16-6.48-14.77-8.06s-9.57-1.13-14.36.21c-3.1.87-5.9,1.94-8.06,4.34-.95,1.06-2,2.3-2.27,3.82-.04.25.44,5.68-.41,4.75-.03-.53-.16-1.01-.21-1.55-.84-10.42,13.22-19.51,22.62-16.73,2.33.69,4.91,3.19,7.44,3.72.65,1.52,2.85,2.57,4.23,3.72Z"/>
      <path class="cls-23" d="M124.99,56.09c-.07,0-.14,0-.21,0-2.88-1.95-4.87-2.61-8.26-1.65-4.58,1.29-7.62,6.21-9.5,10.33-.28.02-.74.18-1.24.21-.16-.39-.24,0-.21-.41,2.27-.27,2.88-4.33,4.34-6.09,3.1-3.73,8.58-6.95,13.43-4.75,1.65-1.22-4.49-1.4-5.06-1.34-1.08.1-3.37,1.16-4.85,1.65-.85.28-1.64.5-2.48.83-.11.04-.38-.36-.72-.21-2.58,1.12-5.21,8.08-6.71,10.53-.21,0-.41,0-.62,0,1.22-4.17,2.81-8.17,6.3-10.95s10.28-5.01,14.25-1.86c1.38,1.1.62,1.56.72,1.76.05.09,1.47.62,1.86,1.03.02.02-.35.25-.21.41.22.26,1.4.66,1.14,1.34-.66-.25-1.18-.83-1.96-.83Z"/>
      <path class="cls-30" d="M125.82,56.91c2.32,2.19,6.5,3.17,9.3,4.75-4.39.54-8.82.92-13.22,1.45,1.97-1.75,5.17-2.45,7.75-2.69.33-.24.38-.41,0-.62-3-1.68-10.94,1.19-12.91,3.92-1.3.14-2.61.28-3.92.41l9.91-5.68c-1.45-.66-3.68-.27-5.16.1.28-.85,1.7-1.29,2.48-1.45,1.88-.38,3.88-.13,5.78-.21Z"/>
      <path class="cls-23" d="M106.19,47.62c-3.07,2.57-5.77,5.37-6.82,9.4-.41,1.59-1.42,7.41.31,7.95.76.24,2.25-.73,1.76.21-2.32-.13-2.58-.54-4.54-1.03l-.83-1.96.72.93.72-.62c.14.43-.15,1.61.62,1.76-.16-4.65.72-9.2,3.51-13.01-.53-.91-4.09,4.04-4.54,4.23.32-1.25.96-2.3,1.03-3.51,2.15-2.4,4.96-3.47,8.06-4.34Z"/>
      <path class="cls-1" d="M131.19,49.89l9.5,5.37c-1.73.53-3.59.54-5.37.21.16-.79-.44-1.21-.93-1.65-1.43-1.28-3.36-2.89-4.85-4.13.6-.85,1.09-.03,1.65.21Z"/>
      <path class="cls-3" d="M125.82,56.91c-1.91.08-3.9-.18-5.78.21,1.19-.93,3.19-.59,4.65-.62.17,0,.08-.41.1-.41.07,0,.14,0,.21,0,.21.32.55.56.83.83Z"/>
      <g>
        <path class="cls-23" d="M135.32,55.47c1.78.34,3.64.32,5.37-.21,1.48-.45.69-.35,1.14-.62.28-.17,1.69-1,1.76-1.14.17-.32-.39-1.57.41-1.55.34,2.14-.67,5.23-.21,7.02-2.46,1.97-4.89,2.31-7.85,2.69-.27.03-.56-.03-.83,0-2.8-1.58-6.98-2.56-9.3-4.75-.28-.27-.62-.51-.83-.83.78,0,1.3.57,1.96.83.26-.68-.91-1.09-1.14-1.34-.14-.17.22-.4.21-.41-.39-.42-1.81-.94-1.86-1.03-.1-.2.66-.66-.72-1.76-3.97-3.15-10.67-.99-14.25,1.86s-5.08,6.78-6.3,10.95c-.48,0-.97.03-1.45,0,.49-.93-.99.03-1.76-.21-1.73-.55-.72-6.36-.31-7.95,1.04-4.03,3.74-6.83,6.82-9.4,4.79-1.34,9.56-1.85,14.36-.21s10.07,7.17,14.77,8.06Z"/>
        <path class="cls-30" d="M137.28,57.12l4.03.93c-.94.62-3.6.04-4.03-.93Z"/>
      </g>
      <path class="cls-16" d="M102.89,37.7c-1.04.11-2.07.15-2.69,1.24-1.77.43-7.18,4.16-8.37,5.58-.49.58-.18.18.1.62-.14.08-1.32,1.09-1.45,1.24-.04-.77-.3-.36-.62-.1-1.92,1.56-3.46,3.93-4.13,6.3-.47-10.44,4.72-13.04,13.53-16.52,2.34.16,7.03-.66,9.09,0,.54.18,0,.73-.21.83-1.27.58-3.94-.38-5.27.83Z"/>
      <path class="cls-16" d="M116.73,38.73c1.77.75,3.42,1.68,5.16,2.48l-.21.41c-4.38-1.06-9.05-2.4-13.63-2.07-7.97.59-17.62,8.95-15.7,17.76-.66-1.98-1.43-3.95-1.24-6.09-1.63.11-.46,2.8-1.45,3.41-.18-2.62.19-3.34,1.03-5.58.85.45,1.03-1.57,1.24-1.96,1.95-3.59,8.24-6.25,12.08-7.33l-.31-.41,4.75-1.03c2.75-.02,5.52.52,8.26.41Z"/>
      <path class="cls-16" d="M116.73,38.73c-2.74.11-5.52-.44-8.26-.41-2.29.02-4.77.22-7.02.62-.37.07-.9-.08-1.24,0,.62-1.09,1.65-1.13,2.69-1.24,3.54-.38,7.31.24,10.84.41.18,0,.02-.61.21-.62.55-.02,2.19.99,2.79,1.24Z"/>
      <path class="cls-34" d="M89.88,58.77c.14.33.84,1.25,1.03,1.65.27.56.62,1.28.83,1.86-.83-.05-1.91-.91-2.48-1.45-1.29-1.22-2.91-3.83-3.3-5.58.53-.53.1-.46.52,0,.83.93,1.55,2.05,2.38,3,.04.04,1.06,1.36,1.03.52Z"/>
      <path class="cls-16" d="M90.5,46.38c-.15.17-.28.43-.41.62-2.74,1.85-4.93,4.99-3.1,8.37.08.15,1.67,2.53,1.86,1.55.14.41.79,1.29,1.03,1.86.03.84-.99-.47-1.03-.52-.82-.95-1.54-2.07-2.38-3-.42-.46.02-.53-.52,0-.2-.88-.17-1.8-.21-2.69.67-2.37,2.21-4.74,4.13-6.3.32-.26.58-.67.62.1Z"/>
      <g>
        <path class="cls-30" d="M129.95,44.73c-2.03-1.12-5.72-2.44-8.06-3.51-1.74-.8-3.39-1.73-5.16-2.48-.59-.25-2.24-1.26-2.79-1.24-.18,0-.02.63-.21.62-3.53-.17-7.3-.79-10.84-.41,1.32-1.2,4-.24,5.27-.83.21-.1.75-.65.21-.83-2.06-.66-6.75.16-9.09,0-8.81,3.48-14,6.08-13.53,16.52.04.89,0,1.81.21,2.69.4,1.74,2.02,4.36,3.3,5.58-1.91-.21-3.6-2.82-4.85-3.51-.96-.53-5.55-1.78-6.82-2.07-.64-.14-4.73-.12-3.61-1.03.14-.08.15-.2.62-.41,2.8-.49,5.25,1.85,8.06,2.07.11.11.73.93.83.31-2.29-2.4-2.24-5.73-2.07-8.78,2.8-8.63,11.86-11.98,20.14-12.6,11.2-.84,19.96,2.9,28.4,9.91Z"/>
        <path class="cls-4" d="M82.65,55.88c-.81-.85-1.52-2.55-2.48-3,.37-.17.4-.05.41-.52.05-1.79.27-3.25.83-4.96-.17,3.05-.23,6.38,2.07,8.78-.09.62-.72-.2-.83-.31Z"/>
        <polygon class="cls-3" points="114.77 36.88 116.11 36.98 114.77 37.29 114.77 36.88"/>
      </g>
      <path class="cls-23" d="M79.96,63.52c-1.07.46-2.54,1.77-2.89,2.89-1.18-.84-3.19,0-4.34.62,2.24,1.43,4.83-.63,3.41,3.72-1.73.35-2.76-.11-4.13-1.24h-2.48c-.85-.7,1.02-.63,1.14-1.14.02-.07-.66-.39,0-1.24l-3.51-.21c2.82-3.08,4.14-4.46,8.57-4.23,1.36.07,2.84.79,4.23.83Z"/>
      <path class="cls-3" d="M92.35,57.33s.35-.08.41.1c.65,1.9.83,4.03,2.17,5.68-.09-1.38-1.73-3.55.31-4.13.04.54.17,1.02.21,1.55.86.93.37-4.5.41-4.75.27-1.52,1.32-2.76,2.27-3.82-.08,1.21-.72,2.26-1.03,3.51-.95,3.78-.76,3.5.41,7.02l-.72.62-.72-.93.83,1.96c-2.56-.64-2.19-.72-4.96-.83-.28-.27-.19-.98-.21-1.03-.21-.58-.56-1.3-.83-1.86.97-.19-.24-1.16-.41-1.76-.27-.94-.76-3.11-.83-4.03.99-.61-.18-3.3,1.45-3.41-.2,2.15.57,4.12,1.24,6.09Z"/>
      <path class="cls-23" d="M72.73,71.58c-2.27.22-4.08,1.27-5.16,3.3-.65.46-.84-2.22-.83-2.38.06-.48,1.31-2.44,1.76-2.58.67-.21,5.41.17,4.23,1.65Z"/>
      <g>
        <path class="cls-23" d="M73.97,54.23c-1.11.91,2.98.89,3.61,1.03,1.27.28,5.86,1.54,6.82,2.07,1.26.69,2.94,3.3,4.85,3.51.57.54,1.64,1.4,2.48,1.45.02.05-.08.77.21,1.03-2.19-.09-4.41.07-6.61,0-1.75-1.9-5.43-3.61-8.06-3.72-.9-.94-3.3-.05-4.44.21-.42.09-.64-.32-1.03-.21-.43.12-3.93,2.69-1.86,1.65,1.71,1.35,4.6.69,7.02,1.24.25-.91-2.6-1.92-1.76-2.69,3.05.29,5.69,2.01,8.26,3.51-1.17-.03-2.52.23-3.51.21-1.39-.03-2.88-.76-4.23-.83-4.44-.22-5.75,1.16-8.57,4.23l3.51.21c-.66.85.02,1.17,0,1.24-.11.51-1.99.44-1.14,1.14h2.48c1.37,1.13,2.4,1.59,4.13,1.24,1.42-4.35-1.17-2.29-3.41-3.72l4.13.41c-.18.95-.3,3.77-.21,4.75-1.85-.35-2-.8-3.92-.62,1.18-1.48-3.57-1.87-4.23-1.65-.44.14-1.7,2.1-1.76,2.58-.02.15.18,2.84.83,2.38-.22.41-.21,1.3-.62,1.65-1.21-8.45-1.24-17.65,7.02-22.31Z"/>
        <path class="cls-23" d="M77.28,59.6c-.59-.02-1.58-.15-2.07.21-.85.76,2,1.78,1.76,2.69-2.42-.55-5.32.11-7.02-1.24-2.07,1.04,1.43-1.53,1.86-1.65.39-.11.61.3,1.03.21,1.14-.25,3.54-1.15,4.44-.21Z"/>
        <path class="cls-4" d="M77.28,59.6c2.63.11,6.31,1.82,8.06,3.72-.62-.02-1.24.01-1.86,0-2.57-1.5-5.21-3.22-8.26-3.51.48-.36,1.48-.23,2.07-.21Z"/>
        <path class="cls-23" d="M68.91,62.08c.39-.09,2.23.22,2.17.72-.03.26-3.69,2.26-3.82,3.41-1.36-.68,1.09-3.99,1.65-4.13Z"/>
      </g>
      <path class="cls-4" d="M77.07,66.41c-.08.25-.15.75-.21,1.03l-4.13-.41c1.15-.62,3.16-1.46,4.34-.62Z"/>
      <path class="cls-16" d="M112.18,40.39c.4.07,2.69.5,2.17,1.03-5.53.01-12.06,2.82-15.8,6.92-.95,1.04-3.08,4.1-3.51,5.37-.56,1.64-.54,3.37-.72,5.06-3.38-10.31,5.83-17.43,15.18-18.38,1.25-.13,1.34-.24,2.69,0Z"/>
      <path class="cls-30" d="M121.69,41.63c.05.45,2.63.65,1.76,1.24l-11.26-2.48c-1.34-.24-1.43-.13-2.69,0l-1.45-.83c4.58-.34,9.25,1.01,13.63,2.07Z"/>
      <path class="cls-16" d="M145.65,87.48c-.61.57-2.25.49-3.3.62-.48-.63-1.97-3.92-2.69-2.89-.57-1.42-1.63-2.97-2.27-4.54-.09-.59.5-.48.83-.31,1.31.68,4.68,2.53,5.68,3.41.61.53.08.7.1.72,1.2,1.27,2.2.71,1.65,3Z"/>
      <path class="cls-1" d="M142.34,88.1c-.55.07-1.11.07-1.65.21-.12-.78-.72-2.31-1.03-3.1.71-1.02,2.21,2.26,2.69,2.89Z"/>
      <g>
        <path class="cls-3" d="M147.09,73.44c-.5.19-.78-.31-1.03-.41l.31-2.69c-.84.47-2.73,1.21-1.76,2.27-1.19-.19-3.44-.31-4.34.83-.94-.12-1.78.08-2.69.21.09-.48.42-1.96.41-2.27l8.47-5.16c.45,2.44.6,4.75.62,7.23Z"/>
        <path class="cls-3" d="M146.37,67.03c1.12,3.03-3.32,5.13-5.68,5.27l5.68-5.27Z"/>
        <path class="cls-3" d="M146.06,73.02c-.36-.15-1.06-.35-1.45-.41-.97-1.06.92-1.8,1.76-2.27l-.31,2.69Z"/>
      </g>
      <path class="cls-30" d="M116.52,54.43l-4.96,4.03c-.06.5.47.09.62,0,.81-.48,5.95-5.32,6.82-4.13l-6.2,6.71c-1.75.96-3.79,1.19-4.54,3.51-.24.02-.76.18-1.24.21,1.89-4.12,4.92-9.04,9.5-10.33Z"/>
      <path class="cls-23" d="M121.89,63.11c-1.72.21-3.44.44-5.16.62,1.97-2.73,9.91-5.61,12.91-3.92.38.21.33.38,0,.62-2.57.23-5.78.93-7.75,2.69Z"/>
      <path class="cls-4" d="M112.8,64.14s-.44.17-.83.21c.6-1.94,2.04-3.44,3.51-4.75.63-.27,1.53-.9,2.07-1.03,1.48-.37,3.71-.77,5.16-.1l-9.91,5.68Z"/>
      <path class="cls-26" d="M115.49,59.6c-1.48,1.31-2.92,2.81-3.51,4.75-1.26.13-2.49.11-3.72.21.75-2.33,2.8-2.55,4.54-3.51,1.09-.6,1.42-.91,2.69-1.45Z"/>
      <path class="cls-23" d="M110.94,54.85c-2.94,2.81-4.85,6.41-6.4,10.12-.36.01-.55.2-1.03.21,1.51-2.45,4.14-9.41,6.71-10.53.34-.15.61.25.72.21Z"/>
      <path class="cls-30" d="M113.42,54.02c-.5,1-1.88,1.12-2.79,1.86-1.79,1.46-4.88,6.38-5.06,8.68-.03.42.05.02.21.41-.41.02-.83-.01-1.24,0,1.55-3.71,3.47-7.31,6.4-10.12.84-.32,1.63-.55,2.48-.83Z"/>
      <path class="cls-30" d="M124.78,56.09s.07.41-.1.41c-1.46.03-3.46-.31-4.65.62-.78.16-2.19.59-2.48,1.45-.54.13-1.44.77-2.07,1.03-1.27.54-1.59.84-2.69,1.45l6.2-6.71c-.87-1.18-6.01,3.65-6.82,4.13-.15.09-.68.5-.62,0l4.96-4.03c3.39-.95,5.38-.3,8.26,1.65Z"/>
      <path class="cls-23" d="M105.57,64.56c.18-2.3,3.27-7.22,5.06-8.68.91-.74,2.29-.86,2.79-1.86,1.48-.49,3.78-1.55,4.85-1.65.58-.06,6.71.12,5.06,1.34-4.85-2.2-10.33,1.02-13.43,4.75-1.46,1.76-2.07,5.83-4.34,6.09Z"/>
      <path class="cls-4" d="M97.52,62.49c-1.17-3.52-1.37-3.25-.41-7.02.46-.2,4.01-5.14,4.54-4.23-2.79,3.81-3.67,8.36-3.51,13.01-.77-.15-.48-1.33-.62-1.76Z"/>
      <path class="cls-30" d="M92.77,45.14c-.83,1.18-1.56,2.58-2.07,3.92-.84,2.24-1.21,2.96-1.03,5.58.06.92.56,3.08.83,4.03.17.6,1.38,1.56.41,1.76-.2-.41-.89-1.32-1.03-1.65-.24-.56-.89-1.45-1.03-1.86-1.14-3.33-.83-6.99,1.24-9.91.13-.19.27-.45.41-.62.13-.15,1.31-1.16,1.45-1.24.39-.23.41-.28.83,0Z"/>
      <path class="cls-3" d="M101.44,38.94c-1.04.98-2.53,1.01-3.72,1.65-1.97,1.07-3.67,2.7-4.96,4.54-.41-.28-.43-.23-.83,0-.28-.44-.59-.04-.1-.62,1.19-1.42,6.59-5.15,8.37-5.58.34-.08.87.07,1.24,0Z"/>
      <path class="cls-24" d="M103.71,39.35l.31.41c-3.84,1.08-10.13,3.75-12.08,7.33-.21.39-.39,2.41-1.24,1.96.51-1.35,1.24-2.74,2.07-3.92,1.29-1.84,2.98-3.47,4.96-4.54l-2.38,2.69c2.65-1.56,5.29-3.35,8.37-3.92Z"/>
      <path class="cls-3" d="M108.47,38.32l-4.75,1.03c-3.07.58-5.72,2.36-8.37,3.92l2.38-2.69c1.18-.64,2.68-.67,3.72-1.65,2.25-.4,4.73-.6,7.02-.62Z"/>
      <path class="cls-34" d="M90.08,47c-2.07,2.93-2.38,6.59-1.24,9.91-.19.98-1.78-1.4-1.86-1.55-1.83-3.37.36-6.52,3.1-8.37Z"/>
    </g>
    <g>
      <path class="cls-8" d="M126.23,141.81c-.41,2.35-.32,7.61-.21,10.12.29,6.37,3.48,9.69,3.72,14.67-.55,2.32-1.57,4.56-2.27,6.82-11.57,7.33-29.06,7.74-40.28-.41.03-.48-.41-.65-.62-1.03,7.81-11.62,22.92-14.31,33.36-22.72,2.71-2.18,4.49-4.5,6.3-7.44Z"/>
      <path class="cls-2" d="M68.81,94.3c.46.26.86.44,1.24.83,2.31,2.31,3.31,6.72,4.44,9.71l-.52-10.53c.78.16,3.65-.2,4.13.52.72,4.28,1.81,11.87,6.61,13.12-1.28,1.57-7.18,3.96-6.82,6.3.26,1.68,5.69,4.13,6.4,5.58s.52,4.4,1.03,6.2c.64,2.23,3.77,7.66,5.16,9.71,3.51,5.17,8.49,8.91,12.39,13.74-3.79-.59-11.31-6.01-14.67-8.47-2.96-2.17-8.72-6.15-10.12-9.4-1.83-4.24-1.01-10.67-1.86-15.29-3.21,7.43-6.23,2.43-8.68-1.96.73-.36,1.88-.82,1.86-1.86.86,1.09,3.26,3.02,4.75,1.96-1.29-.65-3.16-5.31-2.89-6.4.12-.48,1.15-.51,1.24-.83.14-.49-4.3-8.06-5.58-8.37.24-1.11.68-2.42.62-3.51.44-.36.77-.86,1.24-1.03Z"/>
      <path class="cls-35" d="M102.89,149.45c2.42.37,8.54.41,10.84-.21,3.81-1.03,8.66-6.17,12.5-7.64,0,.07.01.14,0,.21-1.81,2.94-3.59,5.25-6.3,7.44-10.44,8.41-25.55,11.1-33.36,22.72-.28-.52-1.38-1.55-1.65-2.27-.64-7.44,3.02-10.46,3.51-17.76.25-3.67.13-7.3-.21-10.95,3.35,2.46,10.87,7.88,14.67,8.47Z"/>
      <path class="cls-28" d="M141.1,103.8c.84-2.35,2.18-7.16,3.92-8.88.15-.15.6-.26.83-.41.42.1.11.69,0,.93-.55,1.22-3.61,8.52-4.23,8.78-.59.25-.44-.27-.52-.41Z"/>
      <g>
        <path class="cls-28" d="M145.23,117.64c-1.71.95-3.23,1.1-5.16,1.03-.57-.75-.77-1.59-1.24-2.38-1.01,5.22.22,12.16-2.69,16.73-1.54,2.42-9.66,7.62-9.91,8.57-3.84,1.47-8.68,6.61-12.5,7.64-2.3.62-8.42.58-10.84.21-3.9-4.83-8.88-8.57-12.39-13.74-1.39-2.05-4.52-7.48-5.16-9.71-.52-1.79-.31-4.75-1.03-6.2s-6.14-3.89-6.4-5.58c-.37-2.34,5.54-4.73,6.82-6.3,2.87.74,12.9.54,15.39-1.03,3.34-2.11,2.89-10.06,5.47-11.77.56,6.35-.54,13.45-.21,19.73.02.38.37,3.19.72,3.2l1.14-22.83-1.24-.31c2.25-1.05,3.49-.5,5.37.93,1.66,7.04,1,11.55,9.4,12.29,10.05.88,13.24.24,16.22-9.4.98-3.18-.59-4.65,4.13-4.65-.13.47-.23,9.28,0,9.71.08.15-.07.66.52.41.63-.26,3.68-7.56,4.23-8.78.11-.24.42-.83,0-.93,5.9-3.88,5.01,7.44,4.75,10.64-.35,4.2-2.69,9.28-5.37,12.5Z"/>
        <g>
          <path class="cls-29" d="M120.65,126.32c-.05.03-.15-.03-.21,0-.34.17-.39.4-.41.41-2.45,1.23-7.18,3.27-9.81,3.51-3.85.35-8.22-.38-11.67-2.07-.13-.13-.78-.55-.83-.62-.13-.22-.82-1.24-.52-1.45,4.7.56,9.48,1.13,14.25.83,1.79-.12,7.76-1.61,8.68-1.45.53.09.57.37.52.83Z"/>
          <path class="cls-39" d="M120.65,126.32c.05-.45.02-.73-.52-.83-.92-.16-6.88,1.33-8.68,1.45-4.78.31-9.55-.27-14.25-.83-.31.21.39,1.23.52,1.45l-6.92-3.51.41,6.61c-.52-1.87-1.4-4.81-.93-6.71.25-1.02,7.19-7.17,7.95-8.99l-6.61,9.09c10.47,1.54,21.66.93,32.22.21-.83.88-2.13,1.52-3.2,2.07Z"/>
          <path class="cls-2" d="M147.61,98.84c1.58-.36,1.19,2.6,1.14,3.61-.21,4.2-2.42,12.17-7.54,12.29l-.21-.41c1.28-.77,3.1-5.42,2.58-6.51-.22-.47-.87-.25-.93-.31-.44-.43,4.06-8.47,4.96-8.68Z"/>
          <path class="cls-35" d="M101.34,112.68l-1.34,4.23c.14.54,3.33.8,4.23,1.14,1.76.65,2.08,2.15,4.54,1.65.69-.14,2.2-1.57,3.1-1.86,3.75-1.18,5.48,1.12,2.89-4.54l2.38,3.61c-1.03,2.02-3.42,1.78-5.27,2.38-2.25.72-2.49,1.99-5.58,1.24-.44-.11-1.38-.89-1.86-1.03-4.97-1.53-7.02-1.25-3.1-6.82Z"/>
          <path class="cls-27" d="M105.57,95.13c.11-.08.28-.15.41-.21l1.24.31-1.14,22.83c-.35-.01-.7-2.83-.72-3.2-.34-6.28.77-13.38.21-19.73Z"/>
          <path class="cls-2" d="M120.03,126.73c-6.39,4.1-14.94,7.76-21.48,1.45,3.45,1.69,7.82,2.42,11.67,2.07,2.64-.24,7.36-2.28,9.81-3.51Z"/>
          <path class="cls-35" d="M118.79,116.61c.97.68,7.48,6.68,7.64,7.33.43,1.73-.41,4.66-1.14,6.3-.09-1.84,1.09-4.03.72-5.89-.24-1.25-6.07-5.66-7.23-7.75Z"/>
          <path class="cls-2" d="M115.39,131.48l-1.45,1.24c-4.17,1.57-8.93,1.25-12.91-.72,4.83,1.37,9.87,2.38,14.36-.52Z"/>
          <path class="cls-35" d="M111.25,135.41c.17-.02.64-.06.72.1-2.88,1.32-6.2.99-9.3.62,2.93.25,5.77-.48,8.57-.72Z"/>
          <path class="cls-35" d="M125.51,120.53c.58-.05,3.66,3.02,2.89,3.3l-2.89-3.3Z"/>
          <path class="cls-35" d="M90.39,120.53l-2.69,3.3c-.67-.32,2.23-3.21,2.69-3.3Z"/>
          <path class="cls-2" d="M120.03,126.73s.08-.24.41-.41c.12.57-.3.34-.41.41Z"/>
          <path class="cls-35" d="M118.79,116.61s-.55-.19-.31-.41c.43-.1.28.39.31.41Z"/>
        </g>
      </g>
      <g>
        <path class="cls-28" d="M66.95,98.84s-.56-.02-.62.31c-.59,3.03,1.16,10.85,3.1,13.32.03,1.04-1.13,1.5-1.86,1.86-2.99-5.36-3.78-10.56-3.1-16.73,1.1-.4,2.16-1.51,3.1-2.27.06,1.09-.38,2.41-.62,3.51Z"/>
        <path class="cls-18" d="M68.81,94.3c-.47.18-.8.68-1.24,1.03-.93.76-2,1.87-3.1,2.27.33-2.98,1.29-5.05,4.34-3.3Z"/>
        <path class="cls-35" d="M66.95,98.84c1.28.31,5.71,7.88,5.58,8.37-.09.32-1.12.35-1.24.83-.27,1.09,1.6,5.75,2.89,6.4-1.49,1.06-3.9-.87-4.75-1.96-1.93-2.47-3.68-10.29-3.1-13.32.06-.33.61-.28.62-.31Z"/>
      </g>
      <path class="cls-6" d="M135.11,61.66c.27-.03.56.03.83,0l1.65,8.06c-3.55-5.15-24.49-3.31-30.26-2.69-1.64.18-6.55,1.69-7.44,1.65-.49-.02-3.45-1.72-4.34-1.86-1.12-.18-12.04-.08-12.6.21-.08.04-.71.67-.72.72-.14.42.12,7.16.21,8.06.19,1.92,1.76,7.07,1.45,8.47-.26,1.15-3.21,3.31-3.1,4.65-.2.06-.6-.15-.62.21-.88.13-2.48.41-3.3.62l-2.38.41c.03-.3-.31-1.18-.31-1.24-.09-2.39,4.13-8.23,4.34-10.02s-1.62-4.64-1.86-6.3c-.02-.13.01-.28,0-.41-.09-.98.02-3.8.21-4.75.06-.29.13-.79.21-1.03.35-1.12,1.83-2.43,2.89-2.89.99.02,2.34-.23,3.51-.21.62.01,1.24-.02,1.86,0,2.2.07,4.42-.09,6.61,0,2.77.11,2.4.19,4.96.83,1.96.49,2.23.9,4.54,1.03.48.03.97,0,1.45,0,.21,0,.41,0,.62,0,.48,0,.67-.19,1.03-.21.41-.01.83.02,1.24,0,.5-.03.96-.19,1.24-.21.47-.03,1-.19,1.24-.21,1.23-.09,2.46-.08,3.72-.21.39-.04.78-.2.83-.21,1.31-.14,2.62-.28,3.92-.41,1.73-.18,3.44-.41,5.16-.62,4.4-.53,8.83-.91,13.22-1.45Z"/>
      <path class="cls-23" d="M134.91,88.72c-.98.96-2.9-.16-4.03-.21-5.6-.21-11.48.44-17.04.83.95-.76-.09-3.82,0-4.03.29-.68,10.62-.92,11.88-.72,2.22.35,6.33,3.26,9.19,4.13Z"/>
      <path class="cls-23" d="M100.62,88.93c.22,1.2,1.63.17,1.96,1.24-2.11-.75-3.89-1.04-6.09-1.24v-.41l-1.14-.41c-.9-.2-2.01.18-2.79.21h-10.33c2.01-.95,4.89-2.95,6.92-3.51,3.87-1.08,8.12,1.34,12.19.83.46.29-.81,2.83-.72,3.3Z"/>
      <g>
        <path class="cls-28" d="M137.59,69.72c.23.33.4,1.23.41,1.65,0,.31-.32,1.8-.41,2.27-.12.6-.48,1.17-.62,1.86-.22,1.11-.79,2.21-.62,3.41.05.32.89,1.4,1.03,1.76.64,1.58,1.7,3.12,2.27,4.54.32.79.92,2.31,1.03,3.1.05.37.12,1.38-.21,1.65-1.51-.56-3.85-.71-5.58-1.24-2.87-.88-6.98-3.78-9.19-4.13-1.26-.2-11.59.04-11.88.72-.09.2.95,3.27,0,4.03-.81.06-2.03.58-2.79.62-3.44.2-7.16.08-10.43-1.03-.09-.47,1.19-3.01.72-3.3-4.06.51-8.32-1.91-12.19-.83-2.03.57-4.91,2.56-6.92,3.51-.37.17-1.09.52-1.45.62-.11-1.34,2.84-3.5,3.1-4.65.32-1.4-1.26-6.55-1.45-8.47-.09-.9-.35-7.63-.21-8.06.02-.05.65-.68.72-.72.56-.28,11.48-.38,12.6-.21.89.14,3.85,1.84,4.34,1.86.89.04,5.8-1.47,7.44-1.65,5.77-.63,26.71-2.47,30.26,2.69Z"/>
        <path class="cls-28" d="M94.73,76.54l30.26.31c-6.34.85-13.51,1.1-19.93.93-2.4-.06-5.98-.06-8.26-.41-.35-.05-2.11-.26-2.07-.83Z"/>
        <path class="cls-28" d="M99.48,72.2l18.28.52c-5.95.66-12.57,1.35-18.28-.52Z"/>
      </g>
      <path class="cls-33" d="M96.49,88.52h-7.54c1.14-.4,2.43-.17,3.61-.21.78-.02,1.89-.41,2.79-.21l1.14.41Z"/>
      <g>
        <path class="cls-20" d="M134.91,88.72c1.72.53,4.07.68,5.58,1.24.25.09,2.25,1.21,2.27,1.34.01.87-1.52,2.33-1.65,2.79-4.73,0-3.15,1.47-4.13,4.65-2.97,9.64-6.17,10.28-16.22,9.4-8.4-.74-7.74-5.25-9.4-12.29-1.88-1.43-3.13-1.98-5.37-.93-.13.06-.3.13-.41.21-2.58,1.72-2.13,9.66-5.47,11.77-2.49,1.57-12.52,1.77-15.39,1.03-4.8-1.24-5.89-8.84-6.61-13.12-.48-.72-3.36-.35-4.13-.52-1.97-.41-1.06-2.13-1.24-3.1,1.38-.07,2.99-1.15,4.13-1.45.82-.21,2.43-.49,3.3-.62,4.48-.68,11.76-.62,16.32-.21,2.2.2,3.98.49,6.09,1.24-.33-1.07-1.74-.04-1.96-1.24,3.27,1.11,6.99,1.23,10.43,1.03.76-.04,1.98-.56,2.79-.62,5.56-.39,11.44-1.04,17.04-.83,1.13.04,3.05,1.16,4.03.21Z"/>
        <g>
          <path class="cls-5" d="M113.42,99.05c.45.04,1.29,0,1.65-.21.2-.12.44-.27.62-.41,1.32.6,3.12.32,4.34.41,2.15.16,3.1.39,5.37.21,1.51-.13,3.18-.45,4.75-1.03l.31.21.1-.52c-3.68-6.9-11-6.54-15.08-.1-1.18-2.44,1.62-4.77,2.48-7.02,2.94-.43,17.38-.87,18.38,2.38.69,2.25-2.26,11.49-4.23,12.91-2.32,1.66-13.59,1.61-15.91,0-1.32-.92-2.46-5.19-2.79-6.82Z"/>
          <path class="cls-40" d="M117.97,90.58c-.86,2.26-3.66,4.58-2.48,7.02-.04.06-.52,1.09-.41,1.24-.36.21-1.2.24-1.65.21-1.16-5.8-1.86-7.52,4.54-8.47Z"/>
          <path class="cls-2" d="M102.06,99.67c-.61-.7.22-1.66.21-1.76,0-.06-.63-.5-.83-.93-.41-1.74-1.32-3.8-2.69-4.96-.14-.62-.19-.64.21-1.24,5.47,1.16,4.2,4.45,3.1,8.88Z"/>
          <path class="cls-13" d="M92.56,88.31c-1.18.04-2.48-.2-3.61.21h7.54v.41c-4.55-.42-11.84-.48-16.32.21.02-.36.42-.15.62-.21.35-.1,1.08-.44,1.45-.62h10.33Z"/>
          <g>
            <path class="cls-9" d="M98.96,90.79c-.4.6-.35.62-.21,1.24.15.67,2.21,3.92,2.69,4.96.2.43.82.87.83.93.02.1-.82,1.05-.21,1.76-.39,1.57-1.49,5.23-2.79,6.2-2.35,1.76-14.38,1.92-16.42-.31-1.48-1.61-4.5-11.05-3.3-12.81,1.91-2.81,16.13-2.66,19.42-1.96Z"/>
            <path class="cls-15" d="M100.41,98.43c-.92-1.5-2.27-2.53-3.82-3.3.09,1.5.36,2.61-.52,3.92-1.97.17-3.2.15-5.16,0-1.33-1.17-1.17-2.95-.31-4.34-2.3.15-4.58,1.28-5.47,3.51-.18-.04-.41.49-.41-.1,3.1-7.64,13.25-7.02,16.32.41-.26.33-.43-.14-.62-.1Z"/>
            <path class="cls-29" d="M90.91,99.05c-1.78-.13-4.07-.4-5.78-.83.89-2.23,3.17-3.36,5.47-3.51-.86,1.39-1.02,3.17.31,4.34Z"/>
            <path class="cls-29" d="M100.41,98.43c-1.37.25-2.95.5-4.34.62.87-1.31.6-2.43.52-3.92,1.55.77,2.9,1.81,3.82,3.3Z"/>
            <path class="cls-35" d="M101.44,96.99c-.48-1.04-2.53-4.29-2.69-4.96,1.37,1.15,2.28,3.21,2.69,4.96Z"/>
          </g>
          <path class="cls-20" d="M126.02,95.33c.54,1.69.66,2.31-.62,3.72-2.27.19-3.22-.05-5.37-.21-.1-.28-.32-.55-.41-.83.33-.5.57-.34,1.03-.62.78.36,1.03.39,1.86-.31-1.21-.22-1.14-.14-1.86.31-.64-.3-1.15.25-.83-1.55.28-1.55,3.28-1.75,4.44-1.55s.81.92,1.76,1.03Z"/>
          <path class="cls-22" d="M130.15,98.02c-.66-1.88-2.45-2.86-4.23-3.3-.59.02.01.34.1.62-.94-.11-.64-.84-1.76-1.03s-4.16,0-4.44,1.55c-.33,1.8.18,1.25.83,1.55-.46.28-.7.12-1.03.62-.25-.75.05-2.64-.31-2.69-1.8.41-2.57,2.24-3.61,3.1-.18.15-.42.29-.62.41-.1-.15.37-1.18.41-1.24,4.08-6.43,11.4-6.8,15.08.1l-.1.52-.31-.21Z"/>
          <path class="cls-29" d="M130.15,98.02c-1.57.58-3.24.91-4.75,1.03,1.28-1.41,1.16-2.03.62-3.72-.09-.28-.7-.6-.1-.62,1.78.45,3.58,1.43,4.23,3.3Z"/>
          <path class="cls-29" d="M119.62,98.02c.09.28.31.55.41.83-1.22-.09-3.02.19-4.34-.41,1.05-.85,1.81-2.69,3.61-3.1.36.05.06,1.94.31,2.69Z"/>
          <path class="cls-22" d="M120.65,97.4c.72-.45.65-.53,1.86-.31-.83.7-1.08.67-1.86.31Z"/>
        </g>
      </g>
    </g>
  </g>
</svg>