<?xml version="1.0" encoding="UTF-8"?>
<svg id="Layer_1" data-name="Layer 1" xmlns="http://www.w3.org/2000/svg" xmlns:xlink="http://www.w3.org/1999/xlink" viewBox="0 0 216.48 284.55">
  <defs>
    <style>
      .cls-1 {
        fill: #e85727;
      }

      .cls-2 {
        fill: #a0a7bc;
      }

      .cls-3 {
        fill: #91b1ce;
      }

      .cls-4 {
        fill: #6988a6;
      }

      .cls-5 {
        fill: #1b2331;
      }

      .cls-6 {
        fill: #09090b;
      }

      .cls-7 {
        fill: #727575;
      }

      .cls-8 {
        fill: #486b7c;
      }

      .cls-9 {
        fill: #cfc0a9;
      }

      .cls-10 {
        fill: #fcd7cc;
      }

      .cls-11 {
        fill: #e0ec59;
      }

      .cls-12 {
        fill: #484444;
      }

      .cls-13 {
        fill: #343848;
      }

      .cls-14 {
        fill: url(#linear-gradient-8);
      }

      .cls-15 {
        fill: url(#linear-gradient-7);
      }

      .cls-16 {
        fill: url(#linear-gradient-5);
      }

      .cls-17 {
        fill: url(#linear-gradient-6);
      }

      .cls-18 {
        fill: url(#linear-gradient-4);
      }

      .cls-19 {
        fill: url(#linear-gradient-3);
      }

      .cls-20 {
        fill: url(#linear-gradient-2);
      }

      .cls-21 {
        fill: #b1624d;
      }

      .cls-22 {
        fill: #e2d8cd;
      }

      .cls-23 {
        fill: #b35935;
      }

      .cls-24 {
        fill: url(#linear-gradient);
      }

      .cls-25 {
        fill: #889883;
      }

      .cls-26 {
        fill: #e08959;
      }

      .cls-27 {
        fill: #7e8d9b;
      }

      .cls-28 {
        fill: #c69d7c;
      }

      .cls-29 {
        fill: #fefeff;
      }

      .cls-30 {
        fill: #503c32;
      }

      .cls-31 {
        fill: #669abc;
      }

      .cls-32 {
        fill: #8f96ad;
      }

      .cls-33 {
        fill: #233653;
      }

      .cls-34 {
        fill: #90422e;
      }

      .cls-35 {
        fill: #75283c;
      }

      .cls-36 {
        fill: #e6cbba;
      }

      .cls-37 {
        fill: #b5bccf;
      }

      .cls-38 {
        fill: #979287;
      }

      .cls-39 {
        fill: #afc3e3;
      }

      .cls-40 {
        fill: #81869a;
      }

      .cls-41 {
        fill: #40312d;
      }

      .cls-42 {
        fill: #24305c;
      }

      .cls-43 {
        fill: #6c7085;
      }

      .cls-44 {
        fill: #535769;
      }

      .cls-45 {
        fill: #c7855b;
      }

      .cls-46 {
        fill: #dcb89a;
      }

      .cls-47 {
        fill: #27446a;
      }

      .cls-48 {
        fill: #4b2423;
      }

      .cls-49 {
        fill: #d2421f;
      }

      .cls-50 {
        fill: #b0b3b8;
      }

      .cls-51 {
        fill: #d8edfd;
      }

      .cls-52 {
        fill: #c57247;
      }

      .cls-53 {
        fill: #344d63;
      }

      .cls-54 {
        fill: #542e23;
      }

      .cls-55 {
        fill: #dee1e3;
      }
    </style>
    <linearGradient id="linear-gradient" x1="-2501.31" y1="1009.46" x2="-2608.88" y2="1071.16" gradientTransform="translate(644.15 35.3) scale(.19)" gradientUnits="userSpaceOnUse">
      <stop offset="0" stop-color="#2d3548"/>
      <stop offset="1" stop-color="#151c27"/>
    </linearGradient>
    <linearGradient id="linear-gradient-2" x1="-3104.23" y1="650.8" x2="-3094.14" y2="1147.69" gradientTransform="translate(644.15 35.3) scale(.19)" gradientUnits="userSpaceOnUse">
      <stop offset="0" stop-color="#5b7f8b"/>
      <stop offset="1" stop-color="#334e63"/>
    </linearGradient>
    <linearGradient id="linear-gradient-3" x1="-2652.88" y1="649.16" x2="-2643.15" y2="1148.06" gradientTransform="translate(644.15 35.3) scale(.19)" gradientUnits="userSpaceOnUse">
      <stop offset="0" stop-color="#5b7f8b"/>
      <stop offset="1" stop-color="#344f64"/>
    </linearGradient>
    <linearGradient id="linear-gradient-4" x1="-3046.7" y1="46.74" x2="-2873.16" y2="81.58" gradientTransform="translate(644.15 35.3) scale(.19)" gradientUnits="userSpaceOnUse">
      <stop offset="0" stop-color="#646980"/>
      <stop offset=".45" stop-color="#8a90aa"/>
      <stop offset="1" stop-color="#5d6176"/>
    </linearGradient>
    <linearGradient id="linear-gradient-5" x1="-2676.79" y1="649.79" x2="-2902.51" y2="885.01" gradientTransform="translate(644.15 35.3) scale(.19)" gradientUnits="userSpaceOnUse">
      <stop offset="0" stop-color="#8894b3"/>
      <stop offset=".37" stop-color="#54718c"/>
      <stop offset="1" stop-color="#5998ad"/>
    </linearGradient>
    <linearGradient id="linear-gradient-6" x1="-3061.8" y1="646.8" x2="-2838.41" y2="881.48" gradientTransform="translate(644.15 35.3) scale(.19)" gradientUnits="userSpaceOnUse">
      <stop offset="0" stop-color="#8692b0"/>
      <stop offset=".39" stop-color="#54718c"/>
      <stop offset="1" stop-color="#5896ab"/>
    </linearGradient>
    <linearGradient id="linear-gradient-7" x1="-2869.61" y1="559.39" x2="-2870.26" y2="681.39" gradientTransform="translate(644.15 35.3) scale(.19)" gradientUnits="userSpaceOnUse">
      <stop offset="0" stop-color="#a1502e"/>
      <stop offset="1" stop-color="#c46d41"/>
    </linearGradient>
    <linearGradient id="linear-gradient-8" x1="-2714.07" y1="353.54" x2="-2871.06" y2="355.18" gradientTransform="translate(644.15 35.3) scale(.19)" gradientUnits="userSpaceOnUse">
      <stop offset="0" stop-color="#c06c43"/>
      <stop offset="1" stop-color="#e78755"/>
    </linearGradient>
  </defs>
  <g id="Generative_Object" data-name="Generative Object">
    <g>
      <path class="cls-24" d="M175.39,250.46h-12.7c2.32-15.56,4.62-31.14,7.47-46.6l1.21-2.52,4.02,49.12Z"/>
      <path class="cls-5" d="M49.32,250.46h-6.91l3.83-46.13c2.4,15.24,3.27,30.68,3.08,46.13Z"/>
      <path class="cls-5" d="M108.9,218.34c0,10.7.3,21.4.19,32.12h-2.05l.19-32.31c.47.13.15.25.56-.19.16.25.2.57.47.75.15-.31.51-.71.65-.93v.56Z"/>
      <g>
        <path class="cls-20" d="M73.97,153.15c.46-.13.21.9.19,1.03-1.86,8.76-4.35,17.44-4.3,26.52.37.29.69.25,1.12.28l-.56,3.27c.49.66,11.13-2.63,12.33-3.46-1.83,3.13-3.8,6.45-5.98,9.34-.16.21-1.3.59-1.31,1.21.05,1.42,18.21,17.42,20.64,19.14.32.23.74.73,1.03.19.38.33,1.21.89,1.68,1.12,1.61,1.4,6.62,5.85,8.4,6.35l-.19,32.31h-57.71c.19-15.45-.69-30.89-3.08-46.13l-3.83,46.13h-17.74c.67-14.91,1.29-29.83,2.05-44.73.44-8.63-.34-15.4,3.74-23.53,6.27-12.51,31.21-22.45,43.52-29.04Z"/>
        <path class="cls-53" d="M87.04,219.27c-.95,1,.13,3.85-.19,4.58-.38.89-1.25-.83-1.49,1.59l-25.96.19c.04-.16-.09-.46.09-.56l18.77-.65-18.58.09c-2.67-.39-.57-3.41-1.77-4.86.02-.13.56-1.83.65-1.87,3.33.61,26.86-.8,28.02,0,.06.04.32,1.08.47,1.49Z"/>
        <path class="cls-5" d="M57.91,219.64c1.21,1.44-.89,4.46,1.77,4.86l18.58-.09-18.77.65c-.18.1-.05.4-.09.56-.27,1.08-.04,11.23.37,12.05.32.64,4.62,4.62,5.32,4.76,1.4.28,14.59.07,15.5-.37.44-.21,4.65-4.51,4.76-4.95.63-2.53-.31-8.59,0-11.67.24-2.42,1.11-.7,1.49-1.59.31-.73-.76-3.57.19-4.58,0,.02.34.12.37.28.09.4.13,5.18,0,5.42-.15.27-1.58.23-1.68.37-.35.5.35,10.59,0,12.33-.18.9-4.08,4.94-4.95,5.14-.96.22-15.64.22-16.62,0-.48-.11-4.6-4.01-4.76-4.39-.79-1.91.29-12.38-.19-13.07-.17-.25-1.08.14-1.31-.37-.11-.24-.08-4.83,0-5.32Z"/>
        <path class="cls-8" d="M85.36,225.43c-.31,3.09.63,9.14,0,11.67-.11.44-4.33,4.74-4.76,4.95-.92.44-14.1.65-15.5.37-.7-.14-5-4.13-5.32-4.76-.41-.82-.64-10.97-.37-12.05l25.96-.19Z"/>
      </g>
      <g>
        <path class="cls-19" d="M191.82,245.98v4.48h-16.44l-4.02-49.12-1.21,2.52c-2.85,15.46-5.15,31.04-7.47,46.6h-53.6c.12-10.73-.19-21.42-.19-32.12,1.75-.8,3.34-2.02,4.86-3.18,9.81-6.91,19-14.96,26.9-24,.25-.63-1.19-1.06-1.31-1.21-1.97-2.55-4.23-6.51-5.98-9.34l12.23,3.74c.65-.22-.19-2.64-.09-3.18.37-.04.67.13.93-.28-.3-9.47-2.35-18.72-4.3-27.92,11.91,6.79,36.7,16.17,43.33,27.92,8.23,14.58,3.39,41.82,5.79,58.46l.56,6.63Z"/>
        <g>
          <path class="cls-33" d="M138.59,220.95c-.07.33.14.51.09.75-.74.41-7.65-.4-9.15,0-.14.04-.79.52-.84.65.54,5.22-.73,11.96,0,17,.06.42.21,1.61.65,1.77l31.84-.47v-18.3c-.05-.14-.7-.62-.84-.65-2.03-.54-10.92,0-13.73,0v-.75l14.94.47.19,20.92-1.03,1.03h-31.75l-.65-.65-.19-21.11s.61-.64.65-.65c1.87-.61,7.53.46,9.81,0Z"/>
          <path class="cls-35" d="M146.62,220.95v.75c-1.35,0-2.74.01-4.11,0,.63-2.44-.3-6.24,0-8.4.12-.91,1.81-2.23,2.43-2.99.04.63,1.4,1.45,1.49,1.77.34,1.15-.4,8.55.19,8.87Z"/>
          <path class="cls-11" d="M142.51,213.29c-.3,2.17.63,5.96,0,8.4-.33,0-1.76.57-2.05-.09v-6.72l-1.68.84c.24-3.7.47-1.66,3.74-2.43Z"/>
          <path class="cls-27" d="M146.62,209c.02,3.98,0,7.97,0,11.95-.59-.32.15-7.72-.19-8.87-.1-.33-1.45-1.14-1.49-1.77.31-.39,1.18-1.29,1.31-1.49l.37.19Z"/>
          <path class="cls-29" d="M146.81,207.69c.15.48-.19.94-.19,1.31l-.37-.19c.22-.34,0-1.15.56-1.31.02.04-.01.12,0,.19Z"/>
          <g>
            <path class="cls-29" d="M142.51,221.7c1.37.01,2.76,0,4.11,0,2.81,0,11.69-.54,13.73,0,.14.04.79.52.84.65v18.3l-31.84.47c-.45-.17-.59-1.35-.65-1.77-.73-5.03.54-11.78,0-17,.05-.14.7-.62.84-.65,1.5-.4,8.41.41,9.15,0,.05-.23-.16-.42-.09-.75.36-1.77.07-3.47.19-5.23l1.68-.84v6.72c.29.66,1.73.09,2.05.09Z"/>
            <g>
              <polygon class="cls-55" points="139.81 235.33 158.3 235.33 158.58 237.48 139.43 237.76 139.15 235.61 139.81 235.33"/>
              <path class="cls-10" d="M136.72,228.42c.08,2.2.09,4.71,0,6.91h-5.04c-.13-2.3-.31-4.6-.19-6.91h5.23Z"/>
              <path class="cls-55" d="M139.43,227.86h18.86c.37.15.34,1.31.28,1.4-.56.79-17.06-.41-19.33.09l.19-1.49Z"/>
              <path class="cls-55" d="M139.43,232.72h18.86c.33.15.38,1,.28,1.21-.4.87-16.95-.08-19.14.28v-1.49Z"/>
              <polygon class="cls-55" points="139.43 225.81 158.3 225.81 158.58 226.65 139.25 226.93 139.43 225.81"/>
              <path class="cls-55" d="M157.74,230.48c.61.06,1.24.42.56,1.12-2.1-.38-18.8.61-19.14-.28-.04-.12-.03-.58.09-.65l18.49-.19Z"/>
              <path class="cls-39" d="M136.72,228.42h-5.23c.03-.49-.2-2.4.28-2.61h4.86l.09,2.61Z"/>
              <path class="cls-39" d="M136.72,235.33c-.02.39.1,2.29-.09,2.43h-4.86c-.68-.3-.07-2.08-.09-2.43h5.04Z"/>
            </g>
          </g>
          <g>
            <path class="cls-47" d="M147.93,206.94c-.05.76-.43.84-1.12.75-.01-.07.02-.15,0-.19-.16-.29-1.13.14-1.59,0-.87-.27-3.86-1.85-2.89-2.99,1.26,1.55,3.63,2.45,5.6,2.43Z"/>
            <g>
              <path class="cls-42" d="M153.53,197.98c1.55,4.17-1.03,8.91-5.6,8.97-1.97.03-4.34-.88-5.6-2.43s-1.73-3.66-1.31-5.6c1.25-5.84,10.26-6.99,12.51-.93Z"/>
              <path class="cls-4" d="M153.53,197.98c-2.25-6.06-11.26-4.9-12.51.93-1.11.51.48-2.41.56-2.52,2.83-4,9.51-3.82,11.95.37.03.05.71,1.36,0,1.21Z"/>
              <g>
                <path class="cls-3" d="M146.16,195.55c8.33-1.45,8.27,10.88.56,10.09-5.42-.56-5.82-9.17-.56-10.09Z"/>
                <path class="cls-51" d="M146.72,197.04c4.73-.72,5.02,5.79,1.68,6.54-4.9,1.1-5.8-5.91-1.68-6.54Z"/>
              </g>
            </g>
          </g>
        </g>
      </g>
    </g>
    <g>
      <g>
        <path class="cls-37" d="M108.52,35.3c.52.34,1.46.71,2.05.93l-1.12,2.8c-3.06-.91-5.62-.22-8.68-.56l2.8,1.87c-6.36.66-12.56-4.43-17.65,1.59,4.88,1.04,10.09,1.31,15.13,1.4-1.55,1.23-4.05,3.06-5.98,2.99-.97-.03-2.12-.53-3.08-.56-6.08-.21-12.36-.06-17.74,2.99l3.08-6.16c1.15-1.34,2.44-2.55,3.74-3.74l8.59-3.55h18.86Z"/>
        <path class="cls-44" d="M128.13,35.3c.82.9,2.85,5.41,3.64,5.79.42.2,2.32.29,2.99.56,3.28,1.31,5.53,2.77,7.19,5.98l-2.8-.93c-.39-.19-.69-.42-1.12-.56-1.49-2.06-4.59-3.12-7.1-3.08l3.36,1.87c-.71.63-2.93-.64-3.27.28,4.61.72,8.19,3.77,10.93,7.38l-6.91-.84c-.82-1.06-6.38-6.15-7.47-6.35-.31-1.8-3.99-2.08-5.51-2.8-4.17-1.98-6.92-4.61-11.49-6.35-.59-.23-1.54-.59-2.05-.93h19.61Z"/>
        <path class="cls-43" d="M89.66,35.3l-8.59,3.55c1.34-1.22,2.74-2.36,4.11-3.55h4.48Z"/>
        <path class="cls-44" d="M144.38,57.34c.08,1.39-.06,2.81,0,4.2l-1.31-.75c.45,1.96.97,3.89,1.31,5.88-.4,0-.97-.67-1.12-.75.12.04.2-.62.19-.65-1.06-2.67-3.26-5.78-4.95-8.12l3.64,7.19-3.36-1.21c-.53-3.49-1.47-8.12-3.55-11.02,3.56.71,6.37,3.53,8.5,6.35l.65-1.12Z"/>
        <path class="cls-40" d="M138.03,46.13c-.9-.31-2.42-.86-3.36-.65,1.03.16,5.16,4.4,5.51,4.39.97-.04-1.32-2.77-1.03-3.18l2.8.93c1.36,2.62,2.26,6.75,2.43,9.71l-.65,1.12c-2.13-2.82-4.94-5.64-8.5-6.35-.17-.24-.17-.36-.19-.37l6.91.84c-2.73-3.61-6.32-6.66-10.93-7.38.34-.92,2.56.35,3.27-.28l-3.36-1.87c2.51-.04,5.61,1.02,7.1,3.08Z"/>
        <path class="cls-13" d="M142.89,76.02c.45.12.97.56,1.49.56-.17,2.16-.56,4.37-.37,6.54-1.73,1.75-3.05,5.79-3.18,8.22l-.37-.19c.18-1.83.26-3.65.37-5.42,0-.02.37.06.37-.09.07-1.36-.05-2.74,0-4.11-.04-.07-.95-.41-1.12-.47-.32-1.92-.65-3.84-.75-5.79,1.07.45,2.48.47,3.55.75Z"/>
        <path class="cls-32" d="M144.57,68.92c.69,1.93-.02,5.59-.19,7.66-.53,0-1.05-.44-1.49-.56-.34-.65-.79-1.35-1.31-1.87l1.68-6.35c.64.38.98.2,1.31,1.12Z"/>
        <path class="cls-13" d="M143.26,65.93c.15.08.72.74,1.12.75.12.71.43,1.51.19,2.24-.33-.92-.66-.74-1.31-1.12-1.43-.84-2.26-.91-3.92-1.12-.04-.58-.12-1.28-.19-1.87,1.24.23,3,.58,4.11,1.12Z"/>
        <path class="cls-18" d="M109.46,39.03c3.6,1.07,7.51,4.8,11.02,6.35-3.23-.08-6.42-.46-9.62.19-5.97,1.2-12.27,7.06-18.12,7.66-2.94.3-5.83-.94-8.68.19.05-.22-.24-.63-.37-.75-1.28-1.1-10.88,2.2-12.89,2.43,1.19-5.11,3.13-8.55,6.54-12.51l-3.08,6.16c5.39-3.05,11.67-3.19,17.74-2.99.96.03,2.11.53,3.08.56-3.98,3.03-9.72,1.39-14.38,2.52,3.42.76,7.4,1.79,10.93,1.4,1.41-.16,19.38-6.1,20.36-6.72.09-.06.36-.27.19-.37-3.71.05-7.4.25-11.11.19-5.04-.09-10.25-.36-15.13-1.4,5.09-6.01,11.29-.93,17.65-1.59l-2.8-1.87c3.07.34,5.62-.35,8.68.56Z"/>
        <path class="cls-44" d="M84.05,53.42c-6.32,2.5-7.47,14.59-7.66,20.17-1.57.09-3.22,1.41-4.67,1.12.33-.83.95-1.48,1.12-2.24.35-.42,2.74-2.69,2.8-2.89.05-.19-1.44-3.03-.75-3.74l-4.11,2.33c.04-.82.45-1.84.37-2.71l-1.03,1.03c-.01-.74-.23-1.53-.28-2.24,4.97-3.5,7.4-9.82,13.82-11.58.13.11.42.52.37.75Z"/>
        <path class="cls-2" d="M83.68,52.67c-6.42,1.76-8.86,8.08-13.82,11.58-.25-3.29.2-6,.93-9.15,2.01-.23,11.61-3.53,12.89-2.43Z"/>
        <path class="cls-44" d="M75.46,81.24c-.17.35-.49.08-.56.28-.3.86.22,3.27.19,4.2,0,.06-.37,1.06-.37,1.12-.7-1.44-1.99-3.45-3.36-4.3.06-2.31-.74-4.58-.19-6.91.08-.34.48-.73.56-.93,1.45.28,3.1-1.03,4.67-1.12-.06,1.88.25,4.59-.19,6.44-.2.83-.59.89-.75,1.21Z"/>
        <path class="cls-43" d="M72.85,72.47c.28-1.29-.03-3.26.28-4.67-.5,1-1.24,2.17-2.33,2.61.02-.74-.03-1.5,0-2.24l4.11-2.33c-.7.7.8,3.55.75,3.74-.06.2-2.45,2.48-2.8,2.89Z"/>
        <path class="cls-32" d="M72.85,72.47c-.17.76-.79,1.41-1.12,2.24-.08.2-.48.6-.56.93-.63-1.38-.41-3.64-.37-5.23,1.09-.45,1.84-1.62,2.33-2.61-.31,1.41,0,3.38-.28,4.67Z"/>
        <path class="cls-37" d="M95.07,46.32c1.93.07,4.43-1.76,5.98-2.99,3.71.06,7.4-.14,11.11-.19.18.1-.09.31-.19.37-.97.63-18.95,6.57-20.36,6.72-3.53.39-7.51-.64-10.93-1.4,4.66-1.13,10.4.51,14.38-2.52Z"/>
        <path class="cls-40" d="M127.57,45.38c-1.13-.21-5.48.04-7.1,0-3.51-1.55-7.42-5.28-11.02-6.35l1.12-2.8c4.57,1.74,7.32,4.37,11.49,6.35,1.52.72,5.2,1,5.51,2.8Z"/>
        <path class="cls-2" d="M138.03,46.13c.43.14.73.37,1.12.56-.29.41,2,3.13,1.03,3.18-.35.02-4.48-4.23-5.51-4.39.95-.21,2.46.35,3.36.65Z"/>
        <path class="cls-43" d="M143.26,65.93c-1.11-.54-2.87-.89-4.11-1.12-.05-.46-.29-1.14-.37-1.68l3.36,1.21-3.64-7.19c1.69,2.34,3.89,5.45,4.95,8.12.01.03-.07.69-.19.65Z"/>
        <path class="cls-13" d="M141.58,74.15c.52.52.97,1.22,1.31,1.87-1.07-.28-2.48-.3-3.55-.75-.04-.87.04-1.75,0-2.61.77.3,1.66.92,2.24,1.49Z"/>
        <path class="cls-43" d="M143.26,67.8l-1.68,6.35c-.58-.58-1.47-1.19-2.24-1.49-.08-1.96.14-4.04,0-5.98,1.66.21,2.5.28,3.92,1.12Z"/>
      </g>
      <g>
        <path class="cls-16" d="M141.39,152.41c1.36,3.82,2.52,10.37,3.18,14.47.72,4.5,1.1,9.09,1.49,13.63-.53,1.08-11.67-1.92-13.26-2.33-.58-.15-1.48-.92-2.05-.47l8.03,12.33c-5.59,7.57-12.86,13.61-19.42,20.26-1.87,1.62-3.63,3.35-5.6,4.86-1.52,1.16-3.1,2.38-4.86,3.18v-.56c3.05-4.89,6.08-13.34,8.59-18.86.15-.32.14-.64.19-.75,2.13-4.69,5.26-9.39,6.72-14.38,1.85-4.03,3.53-8.16,5.04-12.33.54-1.48,1.01-2.98,1.49-4.48,2.39-7.35,6.23-18.55-.37-24.65,3.28,1.22,9.68,6.84,10.83,10.09Z"/>
        <path class="cls-3" d="M142.14,152.97c1.95,9.2,3.99,18.46,4.3,27.92-.26.41-.57.24-.93.28-3.86.43-9.51-2.62-12.89-2.8l.19-.19c1.59.42,12.73,3.41,13.26,2.33-.4-4.54-.77-9.13-1.49-13.63-.66-4.11-1.82-10.65-3.18-14.47.32-.02.68.52.75.56Z"/>
        <path class="cls-17" d="M86.48,142.69c-7.86,4.46-3.57,17.21-1.31,24.09.5,1.54,1.13,2.98,1.68,4.48,1.35,3.65,2.77,7.26,4.3,10.83,2.17,5.1,4.57,10.59,7.1,15.5.09.18.15.48.37.56.01,1.09,8.04,18.08,9.15,19.8-.41.44-.09.32-.56.19-1.78-.5-6.79-4.95-8.4-6.35-5.64-4.89-11.39-10.47-16.44-15.97-1.73-1.88-3.36-3.87-5.04-5.79l8.22-12.14c-.01-.5-3.1.54-3.55.65-1.49.37-11.22,2.83-11.77,1.77.5-3.77.59-7.63,1.12-11.39.6-4.25,1.99-12.46,3.36-16.34,1.49-4.21,7.92-8.96,12.05-10.46.4.64-.28.53-.28.56Z"/>
        <path class="cls-3" d="M82,178.55l.19.37c-3.3.49-7.87,2.28-11.21,2.05-.43-.03-.75.01-1.12-.28-.06-9.08,2.44-17.76,4.3-26.52.03-.12.27-1.16-.19-1.03.21-.11.49-.48.75-.56-1.38,3.88-2.76,12.1-3.36,16.34-.53,3.76-.62,7.62-1.12,11.39.54,1.05,10.27-1.4,11.77-1.77Z"/>
        <path class="cls-53" d="M97.13,210.68c-.29.55-.71.04-1.03-.19-2.43-1.72-20.59-17.72-20.64-19.14,0-.63,1.15-1.01,1.31-1.21,6.43,7.12,13.06,14.28,20.36,20.55Z"/>
        <path class="cls-53" d="M82.75,180.79c-1.2.82-11.83,4.11-12.33,3.46l.56-3.27c3.34.23,7.91-1.56,11.21-2.05.29-.04,1.94-.24,2.05-.09-.39.81-.72,1.43-1.49,1.96Z"/>
        <path class="cls-31" d="M98.81,211.8c-.47-.23-1.3-.8-1.68-1.12-7.29-6.27-13.93-13.42-20.36-20.55,2.18-2.89,4.15-6.2,5.98-9.34.77-.53,1.1-1.15,1.49-1.96-.12-.15-1.77.05-2.05.09l-.19-.37c.45-.11,3.53-1.16,3.55-.65l-8.22,12.14c1.68,1.92,3.32,3.91,5.04,5.79,5.05,5.5,10.8,11.08,16.44,15.97Z"/>
        <path class="cls-53" d="M113.75,215.16c1.98-1.51,3.73-3.23,5.6-4.86,7.17-6.21,14.11-12.89,19.98-20.36.12.15,1.56.58,1.31,1.21-7.9,9.04-17.09,17.09-26.9,24Z"/>
        <path class="cls-53" d="M132.62,178.37c3.38.18,9.03,3.23,12.89,2.8-.1.54.75,2.95.09,3.18l-12.23-3.74c-.45-.73-1.03-1.42-1.49-2.15.1-.16.56-.1.75-.09Z"/>
        <path class="cls-31" d="M132.8,178.18l-.19.19c-.18,0-.65-.07-.75.09.46.73,1.05,1.42,1.49,2.15,1.75,2.83,4,6.78,5.98,9.34-5.88,7.47-12.82,14.15-19.98,20.36,6.57-6.66,13.83-12.7,19.42-20.26l-8.03-12.33c.57-.45,1.47.31,2.05.47Z"/>
        <g>
          <path class="cls-29" d="M130.56,142.32c6.6,6.11,2.76,17.31.37,24.65l-7.19,8.59c-1.5-2.65-3.4-4.5-5.32-6.72-1.43-1.65-2.74-3.13-4.3-4.67-.87-.86-1.81-1.61-2.61-2.52,3.93-1.7,7.67-3.91,10.83-6.82.9-.12,2.04-1.5,2.61-2.15,2.34-2.67,5.72-6.72,4.67-10.46.66-.61.87.07.93.09Z"/>
          <path class="cls-29" d="M86.48,142.69c-.69,6.33,5.93,11.76,10.46,14.57,2.66,1.65,5.28,3.25,8.22,4.39-.92.86-1.89,1.64-2.8,2.52-1.63,1.57-3,2.96-4.48,4.67-.65.75-1.58,1.51-2.24,2.33-.48.59-2.7,4.43-3.08,4.39l-7.38-8.78c-2.26-6.88-6.55-19.63,1.31-24.09Z"/>
          <path class="cls-29" d="M129.44,171.46c-1.51,4.17-3.2,8.29-5.04,12.33.15-.51.53-1.53.28-2.05-1.23,1.75-2.5,3.52-3.64,5.32-.53.84-4.02,6.34-4.11,6.72-.02.08.17,1.19.19,1.59-.41-2.05-4.34-16.65-3.92-17.46.04-.08.89-.41,1.31-1.12,1.01-1.71,2.38-4.1,3.18-5.88l5.7,6.91,6.07-6.35Z"/>
          <path class="cls-55" d="M124.4,183.78c-1.47,4.99-4.6,9.69-6.72,14.38-.21-.92-.52-1.85-.56-2.8-.02-.4-.2-1.51-.19-1.59.08-.38,3.57-5.88,4.11-6.72,1.14-1.8,2.42-3.57,3.64-5.32.25.53-.13,1.55-.28,2.05Z"/>
          <path class="cls-50" d="M129.44,171.46l-6.07,6.35-5.7-6.91c.25-.56.32-1.5.75-2.05,1.93,2.22,3.83,4.08,5.32,6.72l7.19-8.59c-.49,1.5-.96,3-1.49,4.48Z"/>
          <path class="cls-29" d="M102.73,177.43c.19.12.36.31.56.37-.67,3.05-1.36,6.11-2.05,9.15-.85,3.74-1.68,7.49-2.61,11.21-.23-.08-.28-.38-.37-.56.5-1.11,1.21-2.81.93-4.02-.63-2.76-5.88-8.44-7.1-11.39l-.93-.09c-1.52-3.58-2.95-7.18-4.3-10.83l6.44,6.54,5.51-6.91c.62,1.34,2.85,5.84,3.92,6.54Z"/>
          <path class="cls-50" d="M97.88,168.84c.2-.03.15.09.19.19.23.62.47,1.27.75,1.87l-5.51,6.91-6.44-6.54c-.55-1.5-1.18-2.95-1.68-4.48l7.38,8.78c.39.04,2.6-3.79,3.08-4.39.66-.82,1.59-1.59,2.24-2.33Z"/>
          <path class="cls-55" d="M98.25,197.6c-2.53-4.92-4.93-10.41-7.1-15.5l.93.09c1.22,2.95,6.47,8.64,7.1,11.39.27,1.2-.43,2.91-.93,4.02Z"/>
        </g>
        <g>
          <path class="cls-1" d="M117.49,198.91c-2.51,5.52-5.54,13.97-8.59,18.86-.14.22-.51.62-.65.93-.27-.18-.31-.5-.47-.75-1.11-1.72-9.14-18.71-9.15-19.8.93-3.72,1.76-7.47,2.61-11.21.27.22,1.83.38,1.87.47.15.35-.6,6.37-.56,7.66.2,5.84,2.44,11.6,6.26,15.97.49,0,5.58-7.18,5.7-7.94.31-1.97-1.37-11.69-1.87-14.19-.69-3.51-1.53-6.92-2.99-10.18.6-.03,2.59-.54,2.99-.93l4.86,21.11Z"/>
          <path class="cls-49" d="M114.13,164.17c1.55,1.54,2.87,3.02,4.3,4.67-.43.56-.5,1.5-.75,2.05-.8,1.78-2.16,4.17-3.18,5.88-.42.71-1.27,1.04-1.31,1.12-.42.81,3.52,15.41,3.92,17.46.04.96.35,1.88.56,2.8-.05.11-.04.42-.19.75l-4.86-21.11c.08-.08.41-.77.37-.84-.46.26-.79-.07-.93-.09,2.5-2.75,2.61-4.89.75-8.12-2.66-4.61-6.26-1.13-10.37-.28-1.4.29-2.98.27-4.39.56-.03-.09,0-.21-.19-.19,1.49-1.7,2.86-3.1,4.48-4.67h11.77Z"/>
          <path class="cls-26" d="M109.64,178.74c1.46,3.26,2.29,6.67,2.99,10.18.5,2.5,2.18,12.22,1.87,14.19-.12.76-5.21,7.94-5.7,7.94-3.82-4.37-6.06-10.13-6.26-15.97-.04-1.29.71-7.3.56-7.66-.04-.09-1.6-.25-1.87-.47.69-3.05,1.38-6.1,2.05-9.15.64.21,5.65.97,6.35.93Z"/>
          <path class="cls-49" d="M112.07,176.87c.14.02.48.36.93.09.03.07-.3.76-.37.84-.4.39-2.39.91-2.99.93-.7.03-5.71-.72-6.35-.93-.2-.07-.37-.25-.56-.37-.01-.44,1.73-.55,1.96-.56,1.67-.05,5.98-.18,7.38,0Z"/>
          <path class="cls-26" d="M112.07,176.87c-1.4-.18-5.7-.05-7.38,0-.23,0-1.97.13-1.96.56-1.07-.69-3.3-5.2-3.92-6.54-.28-.6-.52-1.24-.75-1.87,1.41-.3,2.99-.27,4.39-.56,4.1-.85,7.71-4.33,10.37.28,1.86,3.23,1.75,5.37-.75,8.12Z"/>
        </g>
      </g>
      <g>
        <path class="cls-15" d="M122.34,154.83c-3.17,2.9-6.9,5.12-10.83,6.82.81.91,1.75,1.66,2.61,2.52h-11.77c.91-.88,1.88-1.66,2.8-2.52-2.93-1.14-5.56-2.74-8.22-4.39-3.31-2.25-10.51-9.12-9.9-13.35.14-.96.99-1.56,1.12-2.24.29-1.49.18-3.58.37-5.14,15.94,11.15,23.69,10.45,39.41-.37.28,1.77.12,3.77.37,5.51.11.77.86,1.32.93,1.68.69,3.48-4.47,9.25-6.91,11.49Z"/>
        <path class="cls-23" d="M103.11,93.38v12.89c-1.12-.49-3.57-1.62-3.55.56-.15-1.52-1.06-.34-1.21-.37-.79-.16-.96-2.36-.84-2.89.12-.51,3.22-2.75,1.96-3.27-.31-.13-5.1,2.8-5.98,3.18-2.31.98-5.54,1.37-7.66,2.8-3.72,2.52-3.35,7.99-4.2,11.95-4.19-8.45-5.25-18.97-5.98-28.3-.47-.28-.33.11-.37.37-.76,4.21-.34,14.84-.19,19.52-1.28-.06-2.69-.06-3.74-.93.46.23,3.07.69,3.36.28.05-1.9-.07-3.81,0-5.7.05-1.37.53-6.64.19-7.56-.06-.17-.37-.07-.37-.09.47-.34.34-.33.37-.84.17-2.72-.25-5.61-.19-8.12,0-.06.37-1.06.37-1.12.37,0,2.08.13,2.24.28.6.54.65,10.31,2.89,12.42,1.53,1.44,7.85,1.51,10.09,1.49,6.14-.05,9.56-1.06,12.79-6.54Z"/>
        <path class="cls-14" d="M140.83,85.73c-.12,1.76-.19,3.59-.37,5.42-.78,7.76-1.82,17.39-4.67,24.65l-.84,1.12c-.36,0-1.22-6.07-1.59-7-2.01-5.14-7.61-5.15-12.05-7-.5-.21-3.65-2.96-3.83-1.21-.03.33,2.85,3.09.84,4.58.05-1.09.48-1.99-.09-3.08-.88-1.69-1.38-.6-2.15-.28-1.72.71-1.85,1.36-3.18,2.05-1.89,1-4.69,1.16-6.63,2.24.02-6.54.05-13.08.37-19.61,4.51-2.47,5.56,5.13,7.84,7.94,3.99,4.9,14.05,5.41,19.7,3.83,4.72-1.32,3.63-12.78,4.86-13.45.13-.07,1.42,0,1.77-.19Z"/>
        <path class="cls-23" d="M135.79,115.8c-2.25,5.73-6.64,10.16-11.3,14.01l2.15-14.1c.78.19,1.2,3.62,1.4,3.64.7-2.8,1.2-6.78-1.77-8.4-2.03-1.11-3.43-.45-5.51-.93-1.13-.27-.07-.88-1.68-.19l-8.12-.93c1.59-.41,3.79-1.92,5.7-2.05.58-.35.13-1.17-.37-1.31-2.29-.62-5.33,3.83-10.18,2.43.56-.41.18-.22.19-.75,1.94-1.08,4.74-1.24,6.63-2.24,1.33-.7,1.45-1.34,3.18-2.05.77-.32,1.27-1.41,2.15.28.57,1.1.15,1.99.09,3.08,2-1.48-.87-4.25-.84-4.58.18-1.74,3.33,1,3.83,1.21,4.43,1.85,10.04,1.86,12.05,7,.37.94,1.23,7.01,1.59,7l.84-1.12Z"/>
        <path class="cls-23" d="M99.56,106.83l7.56,2.43c1.25.03,2.62-.06,3.83-.37l8.12.93c1.61-.69.55-.08,1.68.19,2.08.49,3.48-.17,5.51.93-8.65-1.29-18.04-1.81-26.8-1.31-1.91.11-7.93.65-9.53,1.12-3.23.95-2.5,6.21-1.96,8.68.52-.26.61-1.77.75-2.33.42-.26.39-.93.56-1.31l2.52,14.01c-4.27-3.38-7.75-6.67-10.18-11.58.85-3.96.49-9.44,4.2-11.95,2.12-1.44,5.34-1.82,7.66-2.8.88-.37,5.66-3.3,5.98-3.18,1.26.52-1.84,2.76-1.96,3.27-.12.53.05,2.74.84,2.89.15.03,1.06-1.14,1.21.37Z"/>
        <g>
          <path class="cls-52" d="M141.21,109.82c.06-2.05-.03-4.11,0-6.16,4.32-2.39,6.2-4.63,5.79-9.81-.03-.43-.83-1.62-.75-2.05.12-.62,1.83-1.02,1.87-1.12.08-.2-.81-2.86-1.12-3.18-1.51-1.49-4.28,3.54-4.67,4.86-.26.88.47,3.07-1.12,3.46,0-1.36-.44-3.11-.37-4.48.12-2.43,1.45-6.47,3.18-8.22,5.73-5.79,6.93,7.27,6.72,10.55-.3,4.95-3.03,16.56-9.53,16.16Z"/>
          <path class="cls-23" d="M141.21,103.66c.04-2.6-.02-5.23,0-7.84,1.59-.39.86-2.57,1.12-3.46.39-1.32,3.16-6.35,4.67-4.86.31.31,1.2,2.98,1.12,3.18-.04.1-1.75.51-1.87,1.12-.09.43.71,1.62.75,2.05.41,5.17-1.47,7.41-5.79,9.81Z"/>
        </g>
        <path class="cls-12" d="M104.23,111.69l-14.01,1.49c.12-.19.07-1.08.65-1.31,3.14-.23,6.41-.06,9.53-.56,1.32-.21,7.28-2.84,3.83.37Z"/>
        <path class="cls-7" d="M104.23,111.69c-1.22,1.13-3.32,1.98-4.95,2.24-3.04.49-8.69-.96-9.99,1.87-.17.37-.14,1.04-.56,1.31.44-1.8.43-2.26,1.49-3.92l14.01-1.49Z"/>
        <g>
          <path class="cls-52" d="M74.72,103.47c-.07,1.89.05,3.8,0,5.7-.29.41-2.9-.05-3.36-.28-3.8-1.9-6.23-12.5-6.35-16.44l2.15.93.37,1.12c-.22-1.07-.06-2.12.09-3.18,3.02.82,1.43,1.09,1.31,2.52-.44,5.22,1.09,7.56,5.79,9.62Z"/>
          <path class="cls-26" d="M71.35,82.55c1.37.85,2.67,2.86,3.36,4.3-.06,2.51.36,5.41.19,8.12-.03.51.09.5-.37.84-.01-.04-.46-.33-.56-.65-.22-.74-.03-2.3-.37-3.36-.48-1.51-2.47-4.22-4.02-4.76-1.64.81-1.73,2.69-1.96,4.3-.15,1.06-.32,2.11-.09,3.18l-.37-1.12-2.15-.93c-.11-3.44.92-13.25,6.35-9.9Z"/>
          <path class="cls-23" d="M74.53,95.81s.31-.07.37.09c.34.92-.14,6.2-.19,7.56-4.7-2.05-6.23-4.4-5.79-9.62.12-1.43,1.71-1.7-1.31-2.52.23-1.61.32-3.49,1.96-4.3,1.54.54,3.53,3.25,4.02,4.76.34,1.07.15,2.62.37,3.36.1.32.55.61.56.65Z"/>
        </g>
        <path class="cls-52" d="M106.65,87.6c-.33,6.53-.35,13.07-.37,19.61,0,.53.38.34-.19.75-1.3-.38-2.01-1.25-2.99-1.68v-12.89c1.1-1.86,1.51-4.67,3.55-5.79Z"/>
        <path class="cls-54" d="M103.11,106.27c.98.43,1.68,1.3,2.99,1.68,4.85,1.4,7.89-3.05,10.18-2.43.5.14.95.96.37,1.31-1.9.14-4.1,1.64-5.7,2.05-1.21.31-2.58.4-3.83.37l-7.56-2.43c-.02-2.18,2.43-1.05,3.55-.56Z"/>
        <path class="cls-54" d="M135.79,80.68c-.06,0-.13,0-.19,0l-2.99-1.31c-5.4-2.29-11.47-.77-17.18-1.12.03-.16-.26-.22-.19-.47.17-.59,1.61-2.69,2.15-2.89.86-.32,6.85-.3,8.03-.19,3.58.33,9.24,2.2,10.37,5.98Z"/>
        <g>
          <path class="cls-52" d="M120.48,45.38c1.62.04,5.97-.21,7.1,0s6.66,5.29,7.47,6.35c.01.02.02.14.19.37,2.08,2.9,3.02,7.53,3.55,11.02.08.54.32,1.22.37,1.68.06.59.14,1.29.19,1.87.14,1.94-.08,4.02,0,5.98.04.87-.04,1.75,0,2.61.1,1.95.43,3.87.75,5.79-1.34-.43-2.94-.2-4.3-.37-1.13-3.78-6.79-5.65-10.37-5.98-1.19-.11-7.17-.13-8.03.19-.54.2-1.98,2.31-2.15,2.89-.07.25.22.31.19.47-.09.47-.66,2.5-.28,2.8.49-.56,1.53-.31,1.87-.37.08-.01,1.04-.55,1.12-.56,5.17-.97,8.86-.78,14.01-.37.44.03.49.47.47-.37l2.99,1.31c-4.08-.5-8.29-1.24-12.42-.93s-9.05,2.45-13.07,2.8c-5.84.52-11.78-2.45-17.56-2.8-5.36-.32-11.73.98-17.09,1.49.16-.32.55-.38.75-1.21.44-1.85.13-4.57.19-6.44.18-5.59,1.34-17.67,7.66-20.17,2.86-1.13,5.74.12,8.68-.19,5.85-.6,12.15-6.46,18.12-7.66,3.2-.64,6.39-.27,9.62-.19Z"/>
          <path class="cls-54" d="M100.68,77.88c-2.34.98-9.04-.1-12.05.19-2.42.23-3.5,1.01-5.51,1.68-.39.13-2.89,1.06-2.99.28,2.57-3.25,6.69-4.91,10.74-5.32,1.5-.15,6.54-.28,7.84,0,1.22.26,1.97,1.96,2.52,2.89-.15.31-.41.22-.56.28Z"/>
          <path class="cls-52" d="M83.12,79.75c2-.67,3.09-1.45,5.51-1.68,3-.28,9.71.79,12.05-.19.8.22.93,2.76.65,2.99l-9.34-1.68-8.87.56Z"/>
        </g>
        <path class="cls-52" d="M132.62,79.38c.02.85-.03.41-.47.37-5.15-.41-8.84-.6-14.01.37-.08.01-1.04.55-1.12.56-.33.06-1.38-.19-1.87.37-.38-.3.19-2.33.28-2.8,5.71.35,11.79-1.16,17.18,1.12Z"/>
        <g>
          <path class="cls-41" d="M81.63,118.23c2.43,4.91,5.91,8.2,10.18,11.58l-2.52-14.01c1.3-2.83,6.95-1.37,9.99-1.87,1.63-.26,3.73-1.11,4.95-2.24,3.46-3.21-2.51-.59-3.83-.37-3.11.5-6.38.33-9.53.56-.58.23-.53,1.12-.65,1.31-1.06,1.67-1.06,2.12-1.49,3.92-.14.56-.23,2.08-.75,2.33-.54-2.47-1.27-7.74,1.96-8.68,1.6-.47,7.62-1.01,9.53-1.12,8.77-.5,18.15.02,26.8,1.31,2.97,1.62,2.48,5.61,1.77,8.4-.2-.03-.63-3.45-1.4-3.64l-2.15,14.1c4.66-3.85,9.05-8.27,11.3-14.01,2.84-7.26,3.89-16.89,4.67-24.65l.37.19c-.07,1.38.38,3.13.37,4.48-.02,2.61.04,5.24,0,7.84-.03,2.05.06,4.12,0,6.16-.47,15.22-.82,17.77-13.26,26.33-15.72,10.82-23.47,11.53-39.41.37-12.28-8.6-12.95-11.66-13.45-26.71-.15-4.67-.58-15.31.19-19.52.05-.27-.1-.65.37-.37.72,9.33,1.79,19.84,5.98,28.3Z"/>
          <g>
            <path class="cls-21" d="M122.72,121.77c-.46-1.46.83-4.5.37-5.79-.04-.1.08-.29-.09-.37-1.18.08-2.31.08-3.27.93-7.63,1.84-15.52,1.63-23.16,0-.06-.1-.37-.36-.37-.56,2.93-.13,6.71-1.42,9.53-.93,1.76.31,2.47,1.72,4.67.19l3.92-.56c3,.23,5.88.08,8.87,0,.78.35-.29,6.12-.47,7.1Z"/>
            <path class="cls-12" d="M126.64,113.37l-15.13-1.68c-2.87-3.34,2.39-.73,3.27-.56.75.15,1.67.28,2.43.37,1.95.24,7.02-.19,8.22.19.34.11,1.02,1.31,1.21,1.68Z"/>
            <path class="cls-7" d="M126.64,113.37c1.88,3.55-.38.75-1.59.56-3.87-.59-10.25,1.59-13.54-2.24l15.13,1.68Z"/>
            <path class="cls-41" d="M94.7,126.44c.47,1.3,1.06,2.8,1.87,3.92-.78.78,1.47,5.39.09,5.04-.06-1.26-3.17-8.59-3.08-9.06.16-.88.72,0,1.12.09Z"/>
            <path class="cls-48" d="M96.2,115.98c0,.2.31.46.37.56,3.76,6.32,15.87,6.7,21.2,2.43.86-.69,1.54-2.06,1.96-2.43.96-.85,2.09-.86,3.27-.93.17.08.06.27.09.37-8.48,9.51-21.59,9.3-30.07-.09.08-.56,2.69.12,3.18.09Z"/>
            <g>
              <path class="cls-52" d="M114.31,114.68l-3.92.56c-.13-.94-3.05-.59-3.83-.56-.34.01-.92-.19-.84.37-2.81-.49-6.59.8-9.53.93-.49.02-3.1-.66-3.18-.09,8.48,9.39,21.59,9.6,30.07.09.46,1.29-.83,4.33-.37,5.79-1.3,7.01-4.16,12.89-12.05,13.63-5.37.51-10.8-.44-14.1-5.04-.81-1.12-1.4-2.62-1.87-3.92-.72-1.99-1.4-4.54-1.68-6.63-.13-.95-.74-4.81.09-5.14s7.25.33,8.97.19,3.69-1.01,5.04-1.12c1.9-.15,4.98.77,7.19.93Z"/>
              <path class="cls-34" d="M102.64,126.26c1.08-.33,1.42.5,2.05.56s.99-.04,1.68,0c2.2.12,4.11-.22,6.26-.09-1.4,1.19-3.3,1.43-5.14,1.4-.85-.02-5.19-.84-5.14-1.59l.28-.28Z"/>
            </g>
            <path class="cls-26" d="M110.39,115.24c-2.2,1.53-2.91.12-4.67-.19-.08-.56.5-.36.84-.37.78-.03,3.7-.38,3.83.56Z"/>
            <path class="cls-29" d="M119.73,116.54c-.42.37-1.1,1.74-1.96,2.43-5.33,4.27-17.44,3.9-21.2-2.43,7.64,1.63,15.53,1.84,23.16,0Z"/>
          </g>
        </g>
        <g>
          <path class="cls-6" d="M135.6,80.68c.06,0,.13,0,.19,0,1.35.17,2.96-.06,4.3.37.17.06,1.08.4,1.12.47-.05,1.36.07,2.75,0,4.11,0,.15-.37.07-.37.09-.36.18-1.64.12-1.77.19-1.23.67-.13,12.12-4.86,13.45-5.66,1.59-15.71,1.07-19.7-3.83-2.28-2.81-3.33-10.41-7.84-7.94-2.04,1.12-2.45,3.93-3.55,5.79-3.23,5.47-6.65,6.48-12.79,6.54-2.24.02-8.56-.05-10.09-1.49-2.24-2.12-2.3-11.88-2.89-12.42-.16-.15-1.87-.27-2.24-.28.03-.93-.48-3.34-.19-4.2.07-.2.39.07.56-.28,5.35-.52,11.73-1.82,17.09-1.49,5.77.35,11.72,3.32,17.56,2.8,4.03-.36,8.82-2.48,13.07-2.8s8.34.43,12.42.93Z"/>
          <g>
            <path class="cls-45" d="M120.29,97.87l.28-.19c-.15-.02-.32.03-.47,0l-.28-.37c.36-.07,1.02.1,1.31,0,.93-.32,10.1-6.39,10.18-7-.13-.16-.33,0-.37-.28-1.28-8.94-13.67-8.64-14.19,0-1.49.74-.31,1.85.19,3.18.47,1.24.87,2.53,1.87,3.46-.14.42-1.23-.23-1.31-.28-2.56-1.56-6.36-10.13-4.2-12.14,1.9-1.78,14-2.45,16.81-2.24,2.1.16,6.43.41,6.82,2.89.28,1.79-.72,10.85-1.96,12.05-1.58,1.53-12.85,2.04-14.66.93Z"/>
            <path class="cls-9" d="M127.01,89.65c-.12.25-.37,1.15-.47,1.49.37.21,3.23-.99,3.83-1.12.16-.03.21.31.56,0,.04.29.24.12.37.28-.08.61-9.25,6.69-10.18,7-.29.1-.95-.07-1.31,0l.28.37c-1.02-.2-1.93-.48-2.61-1.31.08.05,1.16.7,1.31.28-1-.92-1.4-2.22-1.87-3.46,1.29-.21,1.57-1.42,2.43-2.24.55.12,1.13.02,1.68-.09-.42-.37-.61-.87-.75-1.4.34-.94,1.22-.58,2.05-.93.95,1.36,3.23.62,4.67,1.12Z"/>
            <path class="cls-46" d="M120.29,97.87s-.22.03-.19-.19c.15.03.32-.02.47,0l-.28.19Z"/>
            <path class="cls-41" d="M130.93,90.02c-.35.31-.4-.03-.56,0,.15-.38-.34-.5-.37-.56-1.06-1.85-1.15-3.02-3.36-4.11-.37-.18-2.35-.79-3.08-.75-.61.03-2.54.72-2.89,1.12.13-.6-.56-.06-.65,0-1.39.95-2.29,2.47-2.71,4.11-.03,0-.53.17-.56.19.53-8.64,12.91-8.94,14.19,0Z"/>
            <path class="cls-28" d="M119.35,90.96c-.86.82-1.14,2.03-2.43,2.24-.5-1.33-1.67-2.43-.19-3.18.03-.01.53-.19.56-.19.02,0-.07.34.09.37.76.15,1.7.69,1.96.75Z"/>
            <path class="cls-30" d="M126.64,85.35c-.04.5.27.91.37,1.49h-.19c-2.21-2.74-2.17.07-2.61.56-.29.31-1.43.93-1.87,1.12-.83.35-1.71,0-2.05.93-.32-1.19-.56-2.67.37-3.74.35-.4,2.29-1.09,2.89-1.12.74-.04,2.71.57,3.08.75Z"/>
            <path class="cls-22" d="M120.66,85.73c-.94,1.06-.69,2.54-.37,3.74.14.53.32,1.03.75,1.4-.55.11-1.13.21-1.68.09-.26-.06-1.2-.6-1.96-.75-.16-.03-.07-.37-.09-.37.42-1.64,1.32-3.15,2.71-4.11.09-.06.79-.6.65,0Z"/>
            <path class="cls-12" d="M127.2,89.09s-.1.38-.19.56c-1.44-.5-3.72.24-4.67-1.12.44-.19,1.58-.81,1.87-1.12.86,1.06,2.5,1.15,2.61-.56h.19c.14.77.28,1.45.19,2.24Z"/>
            <path class="cls-29" d="M130,89.46c.03.06.52.18.37.56-.6.13-3.46,1.33-3.83,1.12.09-.34.35-1.25.47-1.49.09-.18.17-.54.19-.56.84-1.18,1.78.1,2.8.37Z"/>
            <path class="cls-22" d="M130,89.46c-1.02-.27-1.96-1.55-2.8-.37.1-.79-.05-1.47-.19-2.24-.11-.59-.42-.99-.37-1.49,2.22,1.09,2.3,2.26,3.36,4.11Z"/>
            <g>
              <path class="cls-45" d="M103.29,87.6c-.32,1.91-1.88,5.49-2.99,7.1-3.16,4.57-9.51,4.12-14.47,3.55s-5.33-1.1-6.07-5.88c-.31-2-1.13-8.49.84-9.43,3.21-1.53,19.58-.95,22.23,1.31.99.84.65,2.25.47,3.36Z"/>
              <path class="cls-36" d="M100.3,94.69c1.11-1.61,2.67-5.19,2.99-7.1-.03,2.47-1.33,5.27-2.99,7.1Z"/>
              <path class="cls-28" d="M95.26,93.76c.67.66,1.54-.32,2.61,0-.22.58-.89,3.45-1.21,3.74-.73.64-7.8.75-8.78.37-.17-.07-.06-.35-.09-.37,2.74.16,5.42-2.09,7.47-3.74Z"/>
              <path class="cls-22" d="M88.91,90.02c.13.38.79.97.75,1.03-.18.22-.81,0-.93.09-.7-.57-1.97-.47-2.71-.75-.51-.19-.43-.54-.47-.56.75-1.79,1.67-3.76,3.64-4.48-.79,1.64-.92,2.88-.28,4.67Z"/>
              <path class="cls-9" d="M99,90.21s.39.07.37.47c-.02.48-1.23,2.41-1.49,3.08-1.08-.32-1.94.66-2.61,0,.42-.34,2.57-1.8,2.61-1.96.09-.33-1.04-1.76.75-1.77.02,0-.01.29.37.19Z"/>
              <g>
                <path class="cls-38" d="M98.62,90.02c-1.79.02-.65,1.44-.75,1.77-.04.16-2.19,1.62-2.61,1.96-2.06,1.64-4.73,3.89-7.47,3.74-1.32-1.13-.4-5.43.93-6.35.13-.09.75.13.93-.09.04-.05-.61-.65-.75-1.03.95-1.23,2.76-.3,3.83-.56.48-.12,1.09-1.06,1.31-1.12.68-.18,1.24.39,1.31.37.9-.29-.56-2.76-.19-3.36,1.65,1.16,2.92,2.7,3.46,4.67Z"/>
                <path class="cls-25" d="M90.31,90.96c.13-.01,2.2.52,2.52.65-.45.27-3,.02-2.99-.37.12,0,.44-.28.47-.28Z"/>
              </g>
              <g>
                <path class="cls-41" d="M99,90.21c-.39.1-.35-.19-.37-.19-.54-1.97-1.8-3.51-3.46-4.67-.37.6,1.09,3.07.19,3.36-.06.02-.63-.55-1.31-.37-.22.06-.82,1-1.31,1.12-1.07.26-2.88-.67-3.83.56-.64-1.79-.51-3.03.28-4.67-1.97.73-2.9,2.69-3.64,4.48-.07-.04-.49.41-.75.09,1.11-8.52,13.26-8.98,14.19.28Z"/>
                <path class="cls-29" d="M93.49,85.73c1.49-.17,1.8,2.14.56,2.43-1.64.38-2.17-2.24-.56-2.43Z"/>
              </g>
            </g>
            <path class="cls-29" d="M126.83,86.85c-.12,1.71-1.75,1.62-2.61.56.44-.49.41-3.3,2.61-.56Z"/>
          </g>
        </g>
      </g>
    </g>
  </g>
</svg>