<?xml version="1.0" encoding="UTF-8"?>
<svg id="Layer_1" xmlns="http://www.w3.org/2000/svg" version="1.1" viewBox="0 0 300 300">
  <!-- Generator: Adobe Illustrator 29.6.0, SVG Export Plug-In . SVG Version: 2.1.1 Build 207)  -->
  <defs>
    <style>
      .st0 {
        fill: #b1503f;
      }

      .st1 {
        fill: #eadbea;
      }

      .st2 {
        fill: #3a2f34;
      }

      .st3 {
        fill: #72291e;
      }

      .st4 {
        fill: #211315;
      }

      .st5 {
        fill: #cf655b;
      }

      .st6 {
        fill: #fff;
      }

      .st7 {
        fill: #e5895c;
      }

      .st8 {
        fill: #c65d33;
      }

      .st9 {
        fill: #243753;
      }

      .st10 {
        fill: #625459;
      }

      .st11 {
        fill: #2e4a68;
      }

      .st12 {
        fill: #f7ad7b;
      }

      .st13 {
        fill: #406082;
      }
    </style>
  </defs>
  <g id="Generative_Object">
    <g>
      <path class="st13" d="M228.1,258.6h-22.4c0-.1-2.4-36.6-2.4-36.6l-3.8,36.6h-99.9l-3.8-36.6-2.2,36.5h-22.4c.4-4.7.9-9.6,1.5-14.4,1.2-9.4,5.6-41.2,13.3-46.3s23.8-10.8,26.2-11.1,1-.2,1-.1c-.3,8.4,2.4,16.5,5.4,24.2l10.1-6.2c6,7.7,12.9,14.6,20.5,20.7h.6c7.7-6.1,14.5-13.3,20.7-20.9l9.7,6.4c3.5-7.8,5.3-16.1,6.1-24.5,7.5,3.3,20.5,7.3,26.8,11.5s11.9,35.6,13.1,44.6c.7,5.4,1.1,10.8,1.7,16.2Z"/>
      <path class="st11" d="M116.6,184.9l2.1,21.5c2.5-.8,4.3-2.8,6.3-4.4,2.1-2.3,2.6,2,3.9,2.3s2.5-1.4,3.3-1.7c.3-.6-3.9-4.1-2-5,1.3-.9,2.4-2.2,4.1-2.5,1.4,1.8,2.6,3.8,4.1,5.6-.9-.3-4.9.9-5.5,1.5s-.3.5-.1.9c.2.7,5.4,6.5,6.3,7.5,3.3,3.6,7,6.9,10.8,10.1,6.8-5.1,12.3-11.7,17.7-18.3,0-.5-5.1-2-5.5-2s-.5.5-.7.6c1.1-1.7,2.3-3.9,3.8-5.2.7-1.2,5.2,2.3,5.2,2.6,0,.5-2.8,3-2.2,4.1s2.6,1.7,2.7,1.7c.8,0,2-3,2.7-2.9l2.8,2.1c1.5,1.2,3.1,2.2,4.7,3.1.2,0,0-.4.1-.4.5-.4.5-.9.6-1.8.9-6.3.6-13.2,1.5-19.5,1.1.5,2.4,1,3.6,1.5-.8,8.5-2.6,16.8-6.1,24.5l-9.7-6.4c-6.2,7.6-13,14.8-20.7,20.9h-.6c-7.6-6-14.5-13-20.5-20.7l-10.1,6.2c-3-7.7-5.8-15.8-5.4-24.2,0-.1-.8,0-1,.1,1.2-1,2.8-1.3,4.2-1.9Z"/>
      <polygon class="st11" points="228.1 258.6 71.5 258.6 93.8 258.5 96 222.1 99.8 258.6 199.6 258.6 203.4 222.1 205.8 258.5 228.1 258.6"/>
      <path class="st13" d="M178.4,182.8c.5.4,3.7,1.7,4.6,2.1-.9,6.3-.6,13.3-1.5,19.5s-.1,1.4-.6,1.8c-1-1.9-1.2-4.2-1.5-6.4-.6-5.2-.9-10.9-1.4-16.2s-.4-.9.3-.8Z"/>
      <path class="st13" d="M121.4,182.8c-1.2,4.1-.9,12.9-1.5,17.7s-.7,4-1.3,6l-2.1-21.5c1.6-.7,3.1-1.7,4.8-2.1Z"/>
      <g>
        <path class="st1" d="M139.4,193.7c-.3.4-.2.7,0,1.1,1.5,3.8,2.9,8.1,4.4,11.5s2.5,2.1,2.9,3.7c-3.1-2.7-5.8-6-8.4-9.2s-2.7-3.8-4.1-5.6c-1.7.3-2.8,1.6-4.1,2.5-2.1,1.5-3.4,2.9-5.2,4.4s-3.8,3.5-6.3,4.4c.5-1.9,1-3.9,1.3-6,.6-4.7.3-13.6,1.5-17.7s.7-1.4.9-1.7c1.6-1.8,6.2-3.8,7.8-5.4,2.2,3.8,3.4,8.1,5.4,12s2.9,5.5,3.8,6Z"/>
        <path class="st1" d="M178.4,182.8c-.7,0-.3.5-.3.8.4,5.3.8,11,1.4,16.2.2,2.1.5,4.5,1.5,6.4,0,0,0,.4-.1.4-1.6-.9-3.2-2-4.7-3.1s-8.6-8.3-10.3-8.4-.8.7-.9.8c-1.4,1.4-2.7,3.5-3.8,5.2-1.7,1.1-5.8,6.6-7.9,8.6,0-1.2,2.3-2.4,2.7-3.2s.4-3.2.8-4.2c1.2-3,2.8-5.8,3.8-8.9.6-.4,3.5-5.6,4-6.6,1.8-3.6,2.8-7.6,5-11,1.4,1.3,5.9,3.7,7.8,5.2s.2.9,1.1,1.7Z"/>
        <path class="st1" d="M153.1,209.8c-1.1,1-2.1,2-3.2,2.9-.3,0-2.8-2.3-3.2-2.7-.4-1.5-2.3-2.3-2.9-3.7-1.4-3.4-2.8-7.7-4.4-11.5s-.3-.7,0-1.1c3.8,2.3,17.4,2.3,21.1-.2-.9,3.1-2.6,5.9-3.8,8.9-.4,1-.6,3.8-.8,4.2-.4.8-2.8,2-2.7,3.2Z"/>
      </g>
      <path class="st13" d="M138.3,200.8c2.6,3.2,5.2,6.5,8.4,9.2s2.9,2.8,3.2,2.7c1.1-1,2.2-2,3.2-2.9,2.2-2,6.3-7.5,7.9-8.6s.7-.6.7-.6c.5,0,5.5,1.5,5.5,2-5.3,6.6-10.8,13.2-17.7,18.3-3.7-3.2-7.4-6.5-10.8-10.1s-6-6.8-6.3-7.5-.4-.5.1-.9,4.6-1.8,5.5-1.5Z"/>
      <path class="st9" d="M176.1,203.5l-2.8-2.1c-.7,0-1.9,2.9-2.7,2.9s-2.6-1.5-2.7-1.7c-.6-1.1,2.3-3.6,2.2-4.1s-4.5-3.8-5.2-2.6c.1-.1,0-.9.9-.8,1.8,0,8.6,7,10.3,8.4Z"/>
      <path class="st9" d="M130.2,197.6c-1.9.9,2.3,4.4,2,5-.9.2-2.5,1.9-3.3,1.7s-1.8-4.6-3.9-2.3c1.9-1.5,3.1-2.9,5.2-4.4Z"/>
    </g>
    <g>
      <g>
        <path class="st4" d="M188.9,131.4c-1.4,14.3-10.6,28.1-22.4,36.1-12,8.2-21.7,8.2-33.6,0s-21.5-22.4-22.1-36.1-.1-2.8.2-4.1c.6,7.4,4.3,15,8.8,20.9,4,5.4,16.1,17.8,23.5,15.6s3-7.8,3.6-7.9c2,.7,4.1.5,6.1,0,0,15.5,14.4,5.3,20.3-.2s14.2-17.2,15.4-27.7l.4,3.4Z"/>
        <path class="st7" d="M169.4,175.9c-2.2,3.4-3.2,7.4-5,11s-3.3,6.2-4,6.6c-3.7,2.5-17.3,2.5-21.1.2s-3.1-4.7-3.8-6c-2-3.9-3.3-8.2-5.4-12,.3-.3,1.7-2.7,1.9-3.1,10.9,8.4,24.7,8.5,35.5-.2.3.8,1.3,3,1.9,3.6Z"/>
        <path class="st8" d="M166.5,167.6c.3,1.7.5,3.2,1,4.8-10.8,8.7-24.6,8.6-35.5.2.5-1.5.7-3.4.8-5,12,8.2,21.7,8.2,33.6,0Z"/>
        <path class="st7" d="M191.4,114.9c-.3,1-.3,2-.7,2.9-.2,0-1.9-3.3-2-3.8-.1-1,.2-3.7.9-4.4.5,1.6.5,4.1,1.8,5.2Z"/>
        <path class="st7" d="M110.7,110.3c-.6,1.8-.6,4.8-1.7,6.4s-1.1-1.8-1.3-2.2c.4.1.1.8.6.1s1-5,1.3-5.2c.4,0,.9.6,1,.9Z"/>
        <path class="st7" d="M125.6,73.3c18.4,10,34.4,8.6,53.8,1.7,5.1,6.4,7.5,14.1,8.3,22.1l-8-17.3c-17.5,9.2-39.7,5.6-55.8-5-3.2,4.7-6.3,9.6-8.7,14.7s-1.8,5.5-3.3,7.6c.7-7.5,4.4-19.1,10-24.4s1.1-1.1,1.4-1c.8.6,1.6,1.2,2.4,1.7Z"/>
        <g>
          <path class="st12" d="M102.8,106.8c2.9,0,4.4,5.4,5,7.7s.3,3.7,1.3,2.2,1-4.6,1.7-6.4c.8,1.5,1,5.7,1.7,7.8,2,5.9,5.6,9.4,12,9.9,10.4.8,17.5-3.3,21.4-12.8s.8-6.1,3.2-6.6c4.1-.8,3.7,4,4.7,6.4,2.8,6.9,7.5,11.8,15.1,12.8,11.4,1.6,17.5-2.5,19.7-13.8,0,.4,1.8,3.8,2,3.8.4-.9.5-2,.7-2.9.7-2.4,2.5-8.4,5.6-8.1s4,3.7,4.4,5.3c1.7,7.9-2.5,21.3-12.5,19.3l-.4-3.4c-1.2,10.5-7.8,20.6-15.4,27.7s-20.2,15.8-20.3.2c-1.9.5-4.1.7-6.1,0-.5.2.3,6.7-3.6,7.9-7.4,2.3-19.5-10.2-23.5-15.6-4.4-5.9-8.2-13.4-8.8-20.9-.3,1.3-.3,2.8-.2,4.1-10,2.3-14.7-11.8-12.7-19.5s2.5-5.1,4.8-5.1Z"/>
          <g>
            <path class="st7" d="M101.8,110.5c6.7-1.2,6.9,16.5,5.6,17.1-4.8,2.2-10.1-11.7-2.8-11.2-.6-2.3-2.1-6.1-5-3.8.1-.8,1.5-2.1,2.2-2.2Z"/>
            <path class="st7" d="M196.1,111.1c1.4-.3,3,.6,3.4,2-2.4-3.4-5.8,4.2-5.4,4.8s3-.9,3.6,2.3-4.3,9.7-5.4,6.9.1-15.2,3.9-16Z"/>
            <path class="st7" d="M147.8,114.9c2.4,4.6-5.2,13.1-.6,16.3s6.1,1,8.7-.1c-2.4,4.2-11.8,4.6-12.5-.8s4.6-10.6,4.5-15.4Z"/>
            <g>
              <path class="st0" d="M166.5,138.5c-1.1.9-3,1.5-4.4,1.9-7.4,2.1-17.4,2.3-24.9.2s-3.4-1.5-4.4-2.1h33.6Z"/>
              <path class="st5" d="M138.3,145.6c7.9,5.2,14.8,4.9,22.6,0s.3.3.5.2c.3-.2,1.1-.8,1.4-1-5.9,10.4-20.2,10.4-26.1,0,.4.4,1.3.6,1.7.8Z"/>
              <path class="st3" d="M162.7,144.8c-.3.3-1,.8-1.4,1s-.4-.3-.5-.2c0-1.7-1.8-.5-2.5-1.4,1.9-.3,2.8-2.4,3.8-3.9,1.4-.4,3.3-.9,4.4-1.9l.3-.2c-.6,2-2.4,5-4.1,6.5Z"/>
              <path class="st3" d="M132.9,138.5c1,.6,3.4,1.8,4.4,2.1.8,1.8,2.1,3.3,4,3.9-1.2,0-2.6-.6-2.9,1.1-.3-.2-1.3-.5-1.7-.8-1.9-1.6-3-4.1-4.2-6.2h.4Z"/>
              <path class="st6" d="M162.1,140.4c-.9,1.4-1.9,3.5-3.8,3.9.8.8,2.6-.4,2.5,1.4-7.7,4.9-14.7,5.2-22.6,0,.3-1.8,1.7-1.1,2.9-1.1-1.9-.6-3.2-2.1-4-3.9,7.5,2,17.4,1.9,24.9-.2Z"/>
            </g>
          </g>
        </g>
        <g>
          <path class="st12" d="M187.6,97.1c0,.7.8,4.1.1,4.4-7.7-2.2-16.3-2.7-24.2-1.5-5.6.9-9.6,3.2-15.7,2.7s-7.7-2.1-11.5-2.7c-8.3-1.3-16.8-.5-24.9,1.5,0-1.5.2-2.9.3-4.4,1.6-2.1,2.2-5.2,3.3-7.6,2.4-5.2,5.4-10.1,8.7-14.7,16,10.6,38.3,14.2,55.8,5l8,17.3Z"/>
          <path class="st4" d="M165.4,93c5.9-1.2,15.5,2.2,19.1,7.2-7-2-13.9-3.6-21.2-1.6-.9-1.8,0-5.2,2.1-5.6Z"/>
          <path class="st4" d="M129.4,93c4.7-.3,7.9-.1,6.7,5.6-4.8-1.3-9.8-1.2-14.6-.2s-6.2,2.2-6.6,1.8c3.4-4.3,9.1-6.8,14.5-7.2Z"/>
        </g>
      </g>
      <g>
        <path class="st10" d="M139.6,69.6c0,0-.1,0-.2,0,7.6-15.1,27.4-23.1,42.5-14-15.7-3.8-31.7,2.3-42.3,14Z"/>
        <g>
          <path class="st2" d="M195.1,63.9c-4.5,0-7.2-2.3-12.8-1.7-15.9,1.6-25.1,9.8-42.7,7.3,10.6-11.7,26.6-17.8,42.3-14-15.1-9.1-34.9-1.1-42.5,14-9.4-1.4-21.9-4.8-16.7-17.3,2.7-6.4,17.8-10.1,24.1-10.4,13.5-.8,25.6,4.3,37.2,10.7s10.1,6.9,15.9,9c-.9,1.9-2.8,2.5-4.7,2.5Z"/>
          <path class="st10" d="M148,45.1c1.4,0,3.6,0,5,.2s2.1.3,1.9.8c-10.4,1.3-23.1,5.9-27.7,16.2,1.7-9.8,11-16.7,20.8-17.2Z"/>
        </g>
        <g>
          <path class="st4" d="M122.6,52.2c-5.2,12.5,7.3,15.9,16.7,17.3s.1,0,.2,0c17.6,2.5,26.8-5.7,42.7-7.3s8.4,1.6,12.8,1.7c.8,0,0,.6-.1.6-2.4.6-5.5.7-7.9,1.3-18.5,3.9-29.5,11.7-49.5,9.2s-10.6-2.8-12.1-2.7-.6-.1-.5.3l.6.7c-.8-.5-1.6-1.1-2.4-1.7-.2,0-1.1.8-1.4,1-.9-.4,1-.7.4-1.6s-2.6-2.2-2.8-2.2c-.4,0-4.4,4.5-4.9,5.1-1.4,1.9-3,5.1-3.8,7.3s-1,7.2-1.7,8.8c-1.6,3.7-5.9-3.1-6.7-4.4s-1.7-3.4-2.5-5-.5.3-.6,0c-.2-.8,1.4-7.4,1.9-8.6,1.4-3.8,4.7-7.9,8.5-9.5s7.9-1.4,8.9-2.1.5.1.6-.1c0-2.4.9-5.1,2.1-7.1s.9-1.5,1.5-1.1Z"/>
          <path class="st2" d="M115.4,65c2.3-.2,4.5,0,6.5,1.3.2.6-3.8.7-4.4.8-2.5.8-8.8,4.3-10.9,6.1s-2.5,3.1-4.1,4.1c-.6-6,7.6-11.7,12.8-12.2Z"/>
        </g>
        <g>
          <path class="st4" d="M197,106.8c-3.2-.3-5,5.8-5.6,8.1-1.3-1.2-1.3-3.6-1.8-5.2-.7.7-1.1,3.4-.9,4.4-2.2,11.3-8.3,15.4-19.7,13.8s-12.3-6-15.1-12.8c-1-2.4-.6-7.2-4.7-6.4s-2.5,4.8-3.2,6.6c-3.9,9.6-11,13.6-21.4,12.8s-10-4-12-9.9-.9-6.3-1.7-7.8-.7-.9-1-.9c-.2.2-.6,4.3-1.3,5.2s-.3,0-.6-.1c-.6-2.3-2.1-7.7-5-7.7-5.2-16.4-9.1-45.6,15.7-46.2-1,.7-6.6,1.1-8.9,2.1-3.8,1.6-7,5.7-8.5,9.5s-2.1,7.7-1.9,8.6.3-.7.6,0c.8,1.6,1.6,3.5,2.5,5s5.1,8.1,6.7,4.4.9-6.4,1.7-8.8,2.4-5.4,3.8-7.3,4.5-5.1,4.9-5.1,2.7,2,2.8,2.2c.5.8-1.3,1.2-.4,1.6-5.6,5.3-9.3,16.9-10,24.4s-.3,2.9-.3,4.4c8.1-2,16.6-2.8,24.9-1.5s7.6,2.4,11.5,2.7c6.1.4,10.1-1.8,15.7-2.7,8-1.3,16.5-.7,24.2,1.5.7-.2,0-3.7-.1-4.4-.8-8-3.2-15.8-8.3-22.1-19.4,7-35.3,8.3-53.8-1.7l-.6-.7c0-.4.2-.3.5-.3,1.6,0,9.4,2.4,12.1,2.7,20,2.5,31-5.3,49.5-9.2s5.6-.6,7.9-1.3.9-.7.1-.6c1.9,0,3.8-.6,4.7-2.5-5.7-2.1-10.6-6.1-15.9-9-11.5-6.3-23.6-11.4-37.2-10.7s-21.5,4-24.1,10.4c-.5-.4-1.3.8-1.5,1.1-1.2,2-2.1,4.7-2.1,7.1,0,.2-.5,0-.6.1,1.5-13.4,17.1-18.6,28.7-19.2s24.1,3.7,35.1,9.6c6.1,3.3,12,8.1,18.6,10l-4.5,4.5c7.7,12.5,4.5,28,.6,41.3Z"/>
          <path class="st4" d="M194.3,72.3c-.8-.2-3.6-2.7-4.2-1.6.7,3.6,1.9,6.9,2.3,10.7s.2,4.8.2,7.1-.8,6.6.4,4c2-4.2,2.8-14.9,1.7-19.3.6-.2,3.1,1.8,3.1,2,.4,1.2-.6,9.1-.8,10.9s-2.3,12.1-4.5,12.4-1.4-.2-1.6-.9c-.5-2,.2-7.5,0-10-.4-5-2.7-10-5-14.4,0-.2,3-1.5,3.4-1.8s.4-1.1.8-1.3,1,.2,1,.2c1.1-.3,1.6-1.3,2.6.3s.3,1.4.4,1.8Z"/>
          <path class="st2" d="M194.3,72.3c.1.3.3.3.4.8,1.2,4.5.3,15.1-1.7,19.3s-.4-3.7-.4-4c0-2.3,0-4.9-.2-7.1-.4-3.7-1.6-7-2.3-10.7.6-1.1,3.4,1.3,4.2,1.6Z"/>
          <g>
            <path class="st12" d="M171.2,102.6c3.4,0,13.3.4,14.5,4.3s-.2,8.6-1.3,11.3c-5.8,14.5-31.2,4.8-28.8-10s11.9-5.5,15.6-5.5Z"/>
            <g>
              <path class="st4" d="M169.5,107c7-1.5,5.6,11.3-.6,8.1-2.9-1.5-2.5-7.5.6-8.1Z"/>
              <path class="st6" d="M170.4,108.2c2.2-.4,2.2,3.3-.2,2.7s-1-2.5.2-2.7Z"/>
            </g>
          </g>
          <g>
            <path class="st12" d="M126.3,102.6c3.5,0,16.1.6,17.4,4.5,2,5.7-4,14.8-9.5,16.8-12.6,4.7-22.3-3-20.2-16.2.7-4.4,8.6-5,12.2-5.1Z"/>
            <g>
              <path class="st4" d="M128.8,106.8c4.7-.2,5.1,8,1,8.8s-5.9-8.6-1-8.8Z"/>
              <path class="st6" d="M128.6,108.2c1.9-.3,2.2,2.3.8,2.7-2,.6-2.4-2.5-.8-2.7Z"/>
            </g>
          </g>
        </g>
      </g>
    </g>
  </g>
</svg>