<?xml version="1.0" encoding="UTF-8"?>
<svg id="Layer_1" xmlns="http://www.w3.org/2000/svg" version="1.1" viewBox="0 0 300 300">
  <!-- Generator: Adobe Illustrator 29.6.0, SVG Export Plug-In . SVG Version: 2.1.1 Build 207)  -->
  <defs>
    <style>
      .st0 {
        fill: #1a0f0a;
      }

      .st1 {
        fill: #2c4158;
      }

      .st2 {
        fill: #dbdbdb;
      }

      .st3 {
        fill: #192b40;
      }

      .st4 {
        fill: #311410;
      }

      .st5 {
        fill: #c4c3c2;
      }

      .st6 {
        fill: #fff;
      }

      .st7 {
        fill: #c36946;
      }

      .st8 {
        fill: #4a2825;
      }

      .st9 {
        fill: #a44a2b;
      }

      .st10 {
        fill: #f2aa92;
      }

      .st11 {
        fill: #e3584e;
      }

      .st12 {
        fill: #52301e;
      }

      .st13 {
        fill: #c33d32;
      }

      .st14 {
        fill: #661913;
      }
    </style>
  </defs>
  <g>
    <path class="st4" d="M204.4,130.5c-2.5,1.5-.8.9-.6,3,.5,5.9-4.3,9.8-9.8,10.2.6,6-5.7,9.9-11,7.8-.9,4.5-3.7,7.4-8.5,7.3,3.8-4.7,7.5-11.5,9-17.3,5.8-4.3,12-16.8,11.1-23.9s-2.4-5.2-5.3-3.7-1,2.5-1.4,4c-.5,2.3-.6,5.2-2.5,6.9.2-6.6,0-13.5-.8-20-2.2-19.5-7.2-27.9-27.9-29.2s-40.2,3.2-41.9,31.3c-.3,5.7-.4,12.4-.2,18.2-1.4-2-1.9-4.5-2.5-6.9s.3-3.3-1.4-4.2c-2.7-1.5-4.9.6-5.3,3.2-1.1,7.1,5.2,20.1,11.1,24.3,1.5,6,5,12.5,9,17.3-5.8,1.2-9.4-2.8-10.3-8.1-6,2.3-11.2-.7-11.9-7.1-6.7.4-10.3-5.8-8-11.8-1.3,0-2.4-.5-3.6-1.1,1.3-2.4,3.7-3.2,6.3-3.4-1.6-1.3-5.1-3-5.4-5.2-.6-4.5,5.3-5.5,7.7-7.9-.2-2.2-5.3-3.3-5.6-4.4s.9-2.7,1-3.8c.5-3.1-.3-5.6-1.1-8.5,9.1,1.9,10.7-5.5,6.8-12.2s-3.1-2.1-.1-3.7,7.3,0,5.3-6.2c.3-.6,6.1-.5,6.5-4.4s-.7-2.8-.1-3c2.3-.3,4.5,1.3,6.7.2s0-5.4,4.4-7.5,4.8-.7,7.7-.4,5.2-2.3,6.5-5.4c2.1,6.8,10.7,3.8,13.8-.6,2.2,5.4,9,5.4,12.9,2.1.9,4.5,4,6.1,8.2,6.8-2.2,9.2,4.9,9.3,10.1,4.1,1.8,5.9,4.6,10.2,11.2,11-2.7,7.7-1.5,16,8.6,14.8-1.9,1.4-4.9,3.5-5.8,5.6-2.5,5.8,4.2,10.9,9.5,8,1.7,2.1-2.5,4-3.7,5.5-3.2,4.3.1,6.5,4.4,6.7-4.7,2.1-6.6,7.6-2.9,11.6Z"/>
    <path class="st8" d="M204.4,130.5c-3.7-4-1.8-9.5,2.9-11.6-4.2-.2-7.5-2.4-4.4-6.7s5.4-3.5,3.7-5.5c-5.3,2.9-12-2.3-9.5-8,.9-2.1,4-4.3,5.8-5.6-10,1.2-11.3-7.2-8.6-14.8-6.6-.8-9.4-5-11.2-11-5.2,5.2-12.3,5.1-10.1-4.1-4.3-.7-7.4-2.3-8.2-6.8-4,3.4-10.8,3.3-12.9-2.1-3.1,4.4-11.7,7.4-13.8.6-1.2,3.1-2.6,5.8-6.5,5.4s-4.3-1.3-7.7.4-1.7,6.1-4.4,7.5-4.4-.5-6.7-.2c-.6.2.2,2.2.1,3-.4,3.9-6.2,3.7-6.5,4.4,2,6.2-2.1,4.5-5.3,6.2s-.7,2.3.1,3.7c3.9,6.7,2.3,14.1-6.8,12.2.9,2.8,1.6,5.3,1.1,8.5s-1.3,2.7-1,3.8,5.4,2.2,5.6,4.4c-2.5,2.4-8.4,3.5-7.7,7.9s3.8,4,5.4,5.2c-2.6.3-4.9,1-6.3,3.4-4.9-2.7-4.4-8.4-1.5-12.4-4.5-2.6-7.2-11.1-2.1-14.4-4.6-3.7-4.5-10.7,1.5-12.9-3-3.2-2.9-8.7.7-11.4s3-1.2,3-1.6-.8-1.9-.8-2.3c-.4-5.7,3.1-10.1,9-10.2-1.5-5.2,4.3-10.2,9.1-7.8,0-5.1,3.6-7.7,8.6-6.3.9-4.3,3.8-5.6,7.9-5.4s1.4.6,1.5.6c.2,0,1.4-2.4,2.3-3.1,3.4-2.7,8.8-2.5,11.5,1,2.2-3.7,7.7-4.3,11.1-1.9s1.1,1.6,1.3,1.7,2.9-1.7,4-1.9c2-.3,5.3,0,6.9,1.5s1.7,2.9,1.9,2.9,2.2-1,2.9-1c3.7-.4,7.3,1.4,8.1,5.2,4.5-1.6,8.9,1.8,8.8,6.5,4.6-1.7,9,3,7.6,7.6,5.1-.5,8.5,5,6.1,9.4,3.5,1.4,5.9,4.4,6.7,8.1s0,3.5,0,3.8,2,1,2.4,1.4c4.1,3.6,4.4,10.2-.1,13.7,6,2.9,3.7,12.8-1.5,15.5,5,5.9,1.4,10.3-4,13.7Z"/>
  </g>
  <g>
    <g>
      <path class="st1" d="M160.8,258.9c5.4-13.1,8.8-26.9,10.7-40.9s.2-.2.2-.4c1.3-10.2,2.4-22.9-.4-32.8,0-.2-.4-.4-.1-.6,4.1,2.9,6.9,7.1,9.8,11.1,10,5.7,34.7,11.2,41.9,19.3,8.6,9.7,7.3,31.9,9.4,44.3-23.8.2-47.6,0-71.4.1Z"/>
      <path class="st3" d="M182.6,197.5l8.9,15.1v.5c-.1,0-7.3,3.2-7.3,3.2l8.5,4.9c1.1,1.8-9.6,20.9-11.4,23.7s-8.5,13-9.3,13.3-1.4,0-1.9,0c7.6-11.7,15-23.6,20.6-36.4l-11.3-6.5,10.4-4.2-7.2-13.7Z"/>
      <polygon class="st3" points="207.6 240.1 212 258.3 203.6 258.2 207.6 240.1"/>
    </g>
    <g>
      <path class="st1" d="M128.4,184.8c-3,4.9-1.2,25.6-.4,32s.1,1,.2,1.5c.8,6.1,2.1,12,3.6,18s4,15.3,7.3,22.6c-23.9,0-47.8.5-71.6.1,1.3-9.8,1.4-20.4,3.3-30.1s4.3-14.2,11.4-18.1c11.1-6,25.4-9.6,36.8-15.5,2.5-3.7,5.5-8.1,9.2-10.7s.6-.4.3.2Z"/>
      <path class="st3" d="M117.2,197.1l-7,14.3,10.2,4-11.3,6.5c4.3,9.7,9.4,19,15,28s5.9,8.2,5.3,8.5c-1.8.3-2-.4-3-1.6-5.6-6.2-14-21.4-16.9-28.6s-2.5-5.4-2.5-6.1c0-1.3,7.5-4.5,8.8-5.6-1.1-.9-7.6-2.6-7.5-3.8l8.9-15.6Z"/>
      <polygon class="st3" points="92.2 239.9 96 257.3 95.7 258.3 87.8 258.3 92.2 239.9"/>
    </g>
  </g>
  <g>
    <g>
      <path class="st6" d="M131.1,184.4c-.1.8-.7,1-.6,1.8s3.2,5.8,3.8,6.7c1.5,2.5,14.3,21.8,15.7,22l12-4.8c1.1,0,7.4,6.5,8.7,7.5-3.8,14.4-7,30.7-18.4,41.1-.5,0-1.4.2-2.1.2v-43.8h-.7c0-.1-.1,43.8-.1,43.8-.8,0-1.5,0-2.3,0-5.6-3.9-9.3-10.3-12.1-16.4s-1.6-4.7-2.5-6.5-.2,0-.6.1c-1.4-5.9-2.8-11.9-3.6-18l9.7-8.4,11,4.5-12.2-9.9-8.7,12.3c-.8-6.4-2.6-27,.4-32,0,0,.3,0,.6-.3s-.3-.6-.1-.7,1.8-.4,2.1-.8c.9.2-.3,1.2-.3,1.4s.4,0,.4.1Z"/>
      <path class="st6" d="M171.2,184.8c2.8,9.9,1.7,22.5.4,32.8-2.7-4.6-5.2-9.4-9.1-13.2-2.1,1.7-4.4,3.1-6.5,4.8s-4.5,4.5-6,5.4c3.5-5.1,7.4-10,10.9-15.1s8.3-12.9,8.4-13.8-.9-1.6-1-2.2c1.9-1.3,1.6.9,2.9,1.3Z"/>
      <path class="st2" d="M171.4,218c-1.8,14.1-5.3,27.8-10.7,40.9-2.8,0-5.7-.2-8.6-.2,11.3-10.5,14.6-26.8,18.4-41.1,0,0,.7.2.8.4Z"/>
      <path class="st2" d="M147,258.9c-2.6,0-5.3-.2-7.9-.2-3.3-7.2-5.4-14.8-7.3-22.6.4-.2,0-1.1.6-.1.9,1.8,1.6,4.6,2.5,6.5,2.8,6.1,6.6,12.4,12.1,16.4Z"/>
      <path class="st2" d="M150.1,258.9c-.3,0-.6,0-.8,0v-43.9c.1,0,.8.1.8.1v43.8Z"/>
      <path class="st5" d="M171.6,217.6c0,.2-.2.2-.2.4-.2-.2-.8-.4-.8-.4-1.3-1-7.6-7.4-8.7-7.5l-12,4.8c0-.2.2-.2.2-.2,1.5-.9,4.3-4.1,6-5.4s4.4-3.1,6.5-4.8c3.9,3.7,6.4,8.5,9.1,13.2Z"/>
      <path class="st5" d="M128.2,218.2c0-.5-.2-1-.2-1.5l8.7-12.3,12.2,9.9-11-4.5-9.7,8.4Z"/>
    </g>
    <g>
      <path class="st7" d="M168.3,183.5c.2.6,1,2,1,2.2,0,.9-7.3,12.1-8.4,13.8-3.4,5.2-7.3,10-10.9,15.1,0,0-.2,0-.2.2-1.3-.3-14.2-19.5-15.7-22s-3.7-6.2-3.8-6.7c0-.8.5-1,.6-1.8.7-1.1,1-2.7,1.3-4,11.4,3.9,24.6,1.8,34.5-5,.3,3,.7,5.3,1.5,8.1Z"/>
      <path class="st9" d="M166.6,166.8c0,2.9,0,5.7.2,8.6-9.8,6.8-23,8.9-34.5,5,.6-2.8,1.7-11.1.8-13.6l7.6,5.2c9.6,5.9,18.2,1.2,25.8-5.2Z"/>
      <path class="st9" d="M184.6,104.8c-.7.2-.7-.9-.8-1.4-1.8-9.6-4.5-20-14.7-23.5s-33.8-4-43.2,3.8-8.3,13.5-10.3,22.5,0,.8-.6.7c1.7-28.1,15.8-33,41.9-31.3s25.7,9.7,27.9,29.2Z"/>
      <g>
        <path class="st9" d="M112.1,118.1c-6.1-.4,1.4,9.9,2.7,12.1.3,3.7.8,7.7,1.7,11.3-5.8-4.3-12.2-17.2-11.1-24.3.4-2.6,2.7-4.7,5.3-3.2s1,2.7,1.4,4.2Z"/>
        <path class="st9" d="M112.1,118.1c.6,2.4,1.1,4.9,2.5,6.9,0,1.7,0,3.5.2,5.2-1.4-2.3-8.8-12.5-2.7-12.1Z"/>
      </g>
      <g>
        <path class="st9" d="M183.5,141.5c.8-3.3,1.4-7.7,1.7-11.1,1.4-2.6,8.8-12.2,2.7-12.5.3-1.5-.2-3.1,1.4-4,2.9-1.6,5,1,5.3,3.7.9,7.1-5.3,19.7-11.1,23.9Z"/>
        <path class="st9" d="M185.2,130.5c.1-1.9.2-3.8.2-5.6,1.9-1.7,2-4.6,2.5-6.9,6,.3-1.4,9.9-2.7,12.5Z"/>
      </g>
      <g>
        <path class="st7" d="M184.6,104.8c.7,6.6,1,13.4.8,20s0,3.8-.2,5.6c-.3,3.4-.8,7.8-1.7,11.1-1.5,5.9-5.2,12.6-9,17.3s-5.4,5.8-7.9,7.9c-7.6,6.4-16.2,11.1-25.8,5.2l-7.6-5.2c-.3-.9-6.5-6.5-7.7-7.9-3.9-4.8-7.4-11.3-9-17.3s-1.4-7.6-1.7-11.3-.2-3.5-.2-5.2c-.1-5.7-.1-12.5.2-18.2.7,0,.5-.3.6-.7,2.1-8.9,2.7-16.1,10.3-22.5s32.1-7.5,43.2-3.8,12.9,13.9,14.7,23.5c0,.5.1,1.6.8,1.4Z"/>
        <g>
          <path class="st4" d="M128.7,105.6c3.5-.3,13.5.7,12.6,6-7.3-2-15.4-4.3-22.2.3,1.9-3.1,6-5.9,9.6-6.3Z"/>
          <path class="st4" d="M168,105.6c6-.4,9.4,1.8,13.3,6.2-7.2-4.2-15-2.6-22.5-.1-.8-4.5,5.9-5.8,9.2-6.1Z"/>
          <path class="st9" d="M142.5,140.3h15.2c0,3.2-5.8,4.3-8.4,4.2s-7.6-1.6-6.9-4.2Z"/>
          <path class="st9" d="M175.6,116.5c-6-.8-11.6-2.1-15,4.6-.6.2-.3-.7-.2-.9,1.6-4.6,5.6-7.4,10.5-6.4s4.4,1.5,4.7,2.7Z"/>
          <path class="st9" d="M139.3,120.9c-3.7-6.6-8.5-5.3-14.8-4.4,3.7-3.6,9.8-4.2,13.4.1s2.5,3.5,1.5,4.3Z"/>
          <g>
            <path class="st11" d="M142.4,153.2c4.9,2.2,11.5,2.2,16.3-.2,1.5-.5,4-1.6,5.2-2.5,0,1.1-.6,1.6-1,2.3s-.6.7-.8,1c-5.9,5.7-8,8.2-17.2,5.6l-5.5-4.4c-1.2-1.6-2.9-3.6-3.6-5.4l6.7,3.6Z"/>
            <path class="st13" d="M147.6,148.4c1,0,1.9.7,3.2.6s1.8-.8,2.2-.8c3-.2,8.2.2,11.1.8-.3.4-1,.6-1.5.8-7.2,3.1-16.8,2.5-24.2.6-.6-.4-1.2-1-1.9-1.3,3.5-1,7.5-1.1,11.1-.8Z"/>
            <path class="st9" d="M139.3,155.1l5.5,4.4c9.2,2.5,11.4,0,17.2-5.6-7.8,11.3-14.1,12.7-22.8,1.3Z"/>
            <path class="st14" d="M136.5,149.3c.7.2,1.3.9,1.9,1.3,1.3.8,2.5,2.1,4,2.7l-6.7-3.6s-.7-.3-.3-.6c.5-.1.8,0,1.1.2Z"/>
            <path class="st14" d="M163.9,150.5c-1.2.9-3.7,2-5.2,2.5,1.2-.6,3-2.1,4-3.1.5-.2,1.1-.4,1.5-.8.3,0,.9-.1,1,.1-.3.5-.8,1-1.3,1.4Z"/>
            <path class="st10" d="M153,148.2c-.4,0-1.8.8-2.2.8-1.4.1-2.2-.6-3.2-.6l5.4-.2Z"/>
            <path class="st9" d="M162,153.9c.3-.4.7-.8.8-1,.1.6-.6.8-.8,1Z"/>
            <path class="st6" d="M162.6,149.9c-1,1-2.7,2.5-4,3.1-4.8,2.4-11.4,2.4-16.3.2-1.4-.6-2.7-1.9-4-2.7,7.5,1.9,17,2.5,24.2-.6Z"/>
          </g>
          <g>
            <path class="st0" d="M139.3,120.9c.5,1,1.5,2.4,1,3.6-.7-1.9-2.4-4.2-4-5.4-2.9-2.2-4.2-2-7.5-1.3-5.9,1.4-6.3,5.4-.8,7.5-4-.7-6.3-5.3-8.8-8.2,1.8,0,3.4-.3,5.2-.5,6.3-1,11.1-2.2,14.8,4.4Z"/>
            <path class="st6" d="M128.8,117.7c-2,2.8-1.2,7.5,2.7,7.9-1.5-.1-1.8.3-3.6-.4-5.5-2.1-5.1-6.1.8-7.5Z"/>
            <path class="st6" d="M140.3,124.4c.1.4.6.7.1,1-2.6.4-5.1.3-7.6.2,3.4-.5,4.5-3.7,3.6-6.7,1.6,1.2,3.3,3.6,4,5.4Z"/>
            <g>
              <path class="st12" d="M136.3,119c.9,3-.2,6.2-3.6,6.7-.5,0-.7,0-1.3,0-3.9-.5-4.7-5.2-2.7-7.9,3.3-.8,4.6-.9,7.5,1.3Z"/>
              <path class="st4" d="M134.9,120.4c-1.1.2-1.2,2.1,0,2.5-8.3,4.2-5-9.6,0-2.5Z"/>
              <path class="st6" d="M134.9,123c-1.2-.4-1.1-2.3,0-2.5s2.1,1.7.7,2.5-.6,0-.7,0Z"/>
            </g>
          </g>
          <g>
            <path class="st0" d="M175.6,116.5c1.9.3,3.4.7,5.4.3-2.4,2.9-4.6,7.4-8.6,8.2,5.4-2.5,4.3-6.2-1.3-7.3s-4.7-.8-7.5,1.5-3,3.3-4,5.4c-.2-1.1.3-2.5.8-3.6,3.4-6.7,9.1-5.4,15-4.6Z"/>
            <path class="st6" d="M172.5,125c-1.7.8-1.8.5-3.3.6,3.5-1.3,4.4-5.1,2.1-7.9,5.6,1.1,6.7,4.8,1.3,7.3Z"/>
            <path class="st6" d="M166.8,125.7c-2.4,0-4.8.2-7.2-.2-.4-.3.1-.7.1-.8.9-2.1,2.1-4,4-5.4-.6,2.9.3,5.3,3.1,6.5Z"/>
            <g>
              <path class="st12" d="M171.2,117.7c2.3,2.8,1.4,6.7-2.1,7.9-.7,0-1.6,0-2.3,0-2.8-1.1-3.8-3.6-3.1-6.5,2.8-2.3,4-2.2,7.5-1.5Z"/>
              <path class="st4" d="M165.4,122.5c1.2-.3.9-2.2-.2-2.5,7-6,6.7,7.9.2,2.5Z"/>
              <path class="st6" d="M165.1,120c1.1.3,1.4,2.2.2,2.5s-2.2-1.2-.9-2.3.7-.2.7-.2Z"/>
            </g>
          </g>
        </g>
      </g>
    </g>
  </g>
</svg>