<?xml version="1.0" encoding="UTF-8"?>
<svg id="Layer_1" xmlns="http://www.w3.org/2000/svg" version="1.1" viewBox="0 0 300 300">
  <!-- Generator: Adobe Illustrator 29.6.0, SVG Export Plug-In . SVG Version: 2.1.1 Build 207)  -->
  <defs>
    <style>
      .st0 {
        fill: #cdd0d2;
      }

      .st1 {
        fill: #fdba90;
      }

      .st2 {
        fill: #083c52;
      }

      .st3 {
        fill: #7b3e28;
      }

      .st4 {
        fill: #202d3a;
      }

      .st5 {
        fill: #e14539;
      }

      .st6 {
        fill: #425165;
      }

      .st7 {
        fill: #e6e7e9;
      }

      .st8 {
        fill: #871318;
      }

      .st9 {
        fill: #fff;
      }

      .st10 {
        fill: #905439;
      }

      .st11 {
        fill: #ae7456;
      }

      .st12 {
        fill: #1b1514;
      }

      .st13 {
        fill: #eb996c;
      }
    </style>
  </defs>
  <g id="Generative_Object">
    <g>
      <path class="st4" d="M183.8,160.1c3,1.5,6.4,2.1,9.5,3.4,5.6,2.3,23.5,8.1,27,11,7.1,5.8,10.9,52.5,11.5,63,.5,8.1.5,16.3.8,24.4l-21.9-.2c-1-16,5.4-31.6,2.5-47.5-.5,9.2-2.6,21.1-11,26.5s-17.8,3.1-25.7,2.3-1.2-1.5-2.5-.2c6.7,3.5,14.2,4,21.6,4.5-3.4,4.1-5,9.3-5.1,14.6l-40.7.8c-1,0-2,0-3,0l-44.1-.8,5.9-.9c1-5.3-2-9.2-4-13.8,1.7.6,19.5-1.8,18-4-9.7.6-19.1,2.7-27-4-7.3-6.1-8.3-16.5-9.1-25.3-2.7,16,3,31.5,2.5,47.5.5.9,5-2,3,.4s-22-.3-25,.2c.4-17.3.9-34.8,3-52s4.3-31.4,9.3-35.4,21.4-8.4,27.8-11c3.1-1.3,6.1-2.3,9.1-3.8s1.5-.4,2.3-.8l-9.8,24,11.7,4.2-12.5,5.3c13.4,19.3,25.4,39.9,41.6,56.9.9.2.7-.4.8-.4,2.8-1,13.4-15.4,15.9-18.7,9.1-12.2,16.9-25.4,25.7-37.8l-12.5-5.3,11.7-4.2-10.2-24.4c1,.5,2,1,3,1.5Z"/>
      <path class="st4" d="M232.6,261.9l-25.2.8-1.9-16.6-5.7,16.6c-16.7,0-33.4,0-50.1,0l40.7-.8c.1-5.3,1.7-10.5,5.1-14.6-7.4-.5-14.9-1.1-21.6-4.5,1.3-1.3,2.3.2,2.5.2,7.9.8,18,2.6,25.7-2.3s10.5-17.3,11-26.5c2.9,15.9-3.4,31.5-2.5,47.5l21.9.2Z"/>
      <path class="st4" d="M146.8,262.6c-15.7,0-31.4,0-47.1,0l-5.7-16.3-1.9,16.3-25.2-.8c3-.5,24.2.8,25-.2,1.9-2.4-2.5.5-3-.4.6-16-5.2-31.5-2.5-47.5.8,8.9,1.8,19.2,9.1,25.3,7.9,6.7,17.4,4.6,27,4,1.5,2.2-16.2,4.5-18,4,2,4.6,5,8.5,4,13.8l-5.9.9,44.1.8Z"/>
      <path class="st6" d="M179.7,157.4c0,0,.5.8,1.1,1.1l10.2,24.4-11.7,4.2,12.5,5.3c-8.8,12.4-16.7,25.6-25.7,37.8-2.5,3.3-13,17.7-15.9,18.7,6.3-21.2,14.5-41.8,20.1-63.2.4-1.7.7-3.6,1.1-5.3,2-8.1,3.9-16.3,5.3-24.6.6.4,2.1,1,3,1.5Z"/>
      <path class="st6" d="M122.9,155.9l6.1,27.6c0,.4,0,.8,0,1.1,1.2,13.8,14.1,44.6,18.9,59.4.6,1.7,1.5,3.4,1.5,5.3-16.2-17-28.2-37.7-41.6-56.9l12.5-5.3-11.7-4.2,9.8-24c.7-.4,1.3-1.6,1.9-1.9s2.1-.8,2.6-1.1Z"/>
    </g>
    <g>
      <path class="st11" d="M193.3,163.5c-3-1.3-6.4-2-9.5-3.4,6.1-16.8,7.7-35.7,5.7-53.3,2.1-3.8,2.7-10.2-3-10.6-.6-1.4-.3-3.8-.8-5.1s-3.1-3.9-2.6-1.3c0-.1-.3-.6-.4-.8l-19.1-31c-10.9,10.4-23.2,19.7-37.1,25.7s-12,3.7-12.5,4.2-.1,1.4.2,1.9c-.5.1-.9.2-1.5.4s-1.4-.2-1.7,0c-2,1.1-1.5,6-1.7,7.6s-.6,3.1-.8,5.3c-1.7,19.2.7,38.8,7.6,56.7-3,1.5-6,2.5-9.1,3.8-4.8-14.8-5.6-31.5-4.9-47.1,1.3-29.3,10.7-79.7,50.1-75.1s6.4,2.5,8.7,3,4.4-.4,6.1,0c18.2,4,23.6,23.9,26.7,39.9,5,25.8,6.1,53.7-.4,79.3Z"/>
      <path class="st10" d="M111.6,109c-.9,16.4,3,32.9,8.7,48-.5.3-1.1,1.5-1.9,1.9s-1.7.5-2.3.8c-6.9-18-9.2-37.5-7.6-56.7.5,1.9,1.7,4.6,3,6.1Z"/>
      <path class="st10" d="M183.8,160.1c-1-.5-2-1-3-1.5s-1.1-1.1-1.1-1.1c6.5-14.7,8.2-31.7,7.2-47.7.5-.4,2.4-2.5,2.6-3,2,17.7.4,36.6-5.7,53.3Z"/>
      <path class="st13" d="M182.7,89c-.3-.5-3.1-3-3.8-4-5.6-7.9-11.4-15.8-15.3-24.8-12.6,13.5-29.1,23.6-46.7,29.1s-1.6,0-2.6.4c-.3-.5-.7-1.4-.2-1.9s10.6-3.3,12.5-4.2c13.9-6,26.2-15.4,37.1-25.7l19.1,31Z"/>
      <path class="st3" d="M116.9,89.3c-1.5,2.2-1.1,4.8-1.1,7.4-1.4,0-2.2-.8-3.8-.6l.8-6.1c.6-.2,1-.2,1.5-.4,1.1-.3,2.1-.2,2.6-.4Z"/>
      <path class="st10" d="M112.7,90.1l-.8,6.1c-1.6.2-1.5.7-2.6,1.5.2-1.6-.3-6.5,1.7-7.6s1.3.1,1.7,0Z"/>
      <path class="st10" d="M186.5,96.1c-.5,0-2.5.8-2.6.6,0-2.5.3-4.7-.8-7-.5-2.6,2.6,1.2,2.6,1.3.5,1.3.1,3.7.8,5.1Z"/>
      <path class="st3" d="M179.7,157.4c-.9-.5-2.4-1.1-3-1.5-1.3-.8-7.5-4.3-7.9-4.9-1.1-1.3-1.6-4.8-1.9-6.4-.6-3-1-6-.8-9.1,3.7-3.4,7.2-6.8,9.8-11.2s4.2-10.1,4.9-11,4.5-2.2,6.1-3.6c1,16-.7,33-7.2,47.7Z"/>
      <path class="st3" d="M133.5,135.9c.2.7-.2,7-.4,7.9-.2,1.6-1.5,6.4-2.6,7.6s-6.4,3.8-7.6,4.5-1.9.7-2.6,1.1c-5.7-15.2-9.6-31.7-8.7-48,1.7,1.8,6.9,3.7,7.6,4.7,1,1.4,2.9,7.9,4.5,10.6s9.7,10.8,9.8,11.5Z"/>
    </g>
    <g>
      <path class="st7" d="M170.2,185.8c-5.5,21.4-13.8,42-20.1,63.2,0,0,0,.5-.8.4,0-1.9-.9-3.6-1.5-5.3l1.3,1.5.6-52.6c.5-.2.9-.7,1.1-1.1l14.9-9.1,4.4,3Z"/>
      <path class="st9" d="M176.7,155.9c-1.4,8.3-3.3,16.4-5.3,24.6-1.5-.4-5.3-.7-6.6-.4s-12.1,9.5-13.1,10.6l17-39.7c.5.6,6.7,4.1,7.9,4.9Z"/>
      <path class="st0" d="M171.4,180.5c-.4,1.7-.7,3.6-1.1,5.3l-4.4-3-14.9,9.1c.2-.3.2-.5.8-1.1,1-1.1,12.2-10.4,13.1-10.6,1.3-.4,5.1,0,6.6.4Z"/>
      <path class="st9" d="M130.5,151.4l10.6,26.3,8.7,15.3-.6,52.6-1.3-1.5c-4.9-14.8-17.7-45.6-18.9-59.4,1.4-1.8,0,1.2,1.7.8s2.5-2.9,3.8-2.3l13.8,8.5c-1.9-2.1-11.3-11-13.4-11.5s-4.3.3-6.1,0c.6,1.1.1,2.4.2,3.4l-6.1-27.6c1.2-.7,7.3-4.2,7.6-4.5Z"/>
      <path class="st7" d="M129,184.7c0-.4,0-.8,0-1.1,0-1,.4-2.3-.2-3.4,1.7.3,4.5-.4,6.1,0s11.5,9.4,13.4,11.5l-13.8-8.5c-1.3-.6-3.1,2.1-3.8,2.3-1.7.4-.3-2.6-1.7-.8Z"/>
    </g>
    <g>
      <path class="st1" d="M166.8,144.6c.3,1.7.8,5.2,1.9,6.4l-17,39.7c-.6.7-.5.8-.8,1.1s-.6,1-1.1,1.1l-8.7-15.3-10.6-26.3c1.2-1.1,2.4-5.9,2.6-7.6.6,1.6,2.1,2,3.6,2.6,9.8,4,20.8,3.2,30.1-1.9Z"/>
      <path class="st13" d="M166.8,144.6c-9.2,5.1-20.3,5.9-30.1,1.9s-3-1.1-3.6-2.6c.1-1,.5-7.2.4-7.9,4,1.8,6.9,6.9,11.2,8.3,9.6,3.1,15-2.7,21.4-8.7-.2,3.1.2,6,.8,9.1Z"/>
      <g>
        <path class="st1" d="M182.7,89c0,.1.3.6.4.8,1,2.3.8,4.5.8,7,.1.3,2.1-.6,2.6-.6,5.7.4,5.1,6.8,3,10.6s-2.2,2.6-2.6,3c-1.5,1.3-5.5,2.9-6.1,3.6s-3.6,8.7-4.9,11c-2.6,4.3-6.2,7.7-9.8,11.2-6.3,6-11.8,11.8-21.4,8.7s-7.1-6.6-11.2-8.3c-.2-.7-8.3-9-9.8-11.5s-3.5-9.2-4.5-10.6-5.9-2.9-7.6-4.7-2.6-4.2-3-6.1c.2-2.1.4-3.3.8-5.3,1.2-.8,1-1.3,2.6-1.5s2.4.5,3.8.6c0-2.6-.3-5.1,1.1-7.4,17.6-5.5,34.1-15.6,46.7-29.1,3.9,9,9.7,16.9,15.3,24.8s3.5,3.4,3.8,4Z"/>
        <g>
          <path class="st10" d="M129.6,86.7c2.4-.3,15.2,1,14.2,4.4-2.8,2-7.6-2.1-11.2-2.5s-7.5.4-10.6,2.6c1.2-2.1,5.3-4.2,7.6-4.5Z"/>
          <path class="st10" d="M164.7,86.7c4.8-.4,8.5.8,12.3,3.6-1.6.5-3.3-1.4-5.1-1.7s-4.1-.1-5.3,0c-2.2.3-10,4.9-10.8,2.5-.3-2.4,7.1-4.2,8.9-4.4Z"/>
          <path class="st12" d="M140.3,99.6c-1.1-.8-1.9-1.8-3-2.6-2.3-1.7-2.8-2.5-6.1-1.5s-3.6,2.7-4.5,4.2c-.7-.8-3.2-1.5-1.7-3s6.9-3.1,8.3-3c2.1.1,7.5,3.7,7,6.1Z"/>
          <path class="st12" d="M172.9,99.6c-1-1.8-2.2-3-4.2-3.8-3.9-1.5-4-.8-6.8,1.5s-2,1.6-2.6,2.6c-.8-2.3,4.6-6.3,6.6-6.4s7.2,2.1,9.3,4c0,.3-2,1.7-2.3,2.1Z"/>
          <path class="st13" d="M114,99.6c3.1-.9,2.5,6.2,3,8.7-3.2-.5-6.4-7.7-3-8.7Z"/>
          <path class="st13" d="M184,99.2c4.2-1.6,2.9,8.7-1.5,9.1,0-1.2,1-8.9,1.5-9.1Z"/>
          <path class="st9" d="M172.9,99.6c-2.4,3-2.5,3.8-6.4,3.8,3.6-1.2,2.5-4.8,2.3-7.6,1.9.7,3.2,1.9,4.2,3.8Z"/>
          <path class="st9" d="M133.5,103.3c-4.1,0-4.3-.9-6.8-3.8,1-1.5,2.8-3.6,4.5-4.2-1.5,3-1.6,6.8,2.3,7.9Z"/>
          <path class="st13" d="M145.8,115.4l8.5.6c-2.7,3.1-6.1,3.4-8.9.2l.4-.8Z"/>
          <path class="st9" d="M140.3,99.6c-.4,2.1-3.1,3.4-4.9,3.8,2.3-2,1.8-3.6,1.9-6.4,1.1.8,1.9,1.9,3,2.6Z"/>
          <path class="st9" d="M164.2,103.3c-1.5-.3-4.4-1.9-4.9-3.4.7-1.1,1.7-1.9,2.6-2.6-.4,2.9.3,4.1,2.3,6.1Z"/>
          <g>
            <path class="st5" d="M138.4,124.5c.3.2,3.9,1.8,4.5,2.3,6.4,3.4,13.1,2,17.6-3.8-7.4,2.2-14.7,1.8-22.1,0-.5-.4-.8-.9-1.5-.8l26.1-.2c-3.3,3.6-5,9.6-10.4,10.4s-10.9-1.9-14.2-7.9Z"/>
            <path class="st8" d="M138.4,123c1.2.9,3.4,3.2,4.5,3.8-.7-.4-4.2-2-4.5-2.3s-1.5-2-1.5-2.3c.7-.1,1.1.4,1.5.8Z"/>
            <path class="st9" d="M143,126.8c-1.1-.6-3.3-2.9-4.5-3.8,7.4,1.8,14.7,2.2,22.1,0-4.5,5.8-11.2,7.2-17.6,3.8Z"/>
          </g>
          <g>
            <path class="st2" d="M168.7,95.8c.3,2.8,1.3,6.3-2.3,7.6-.7,0-1.7.1-2.3,0-1.9-1.9-2.7-3.2-2.3-6.1,2.8-2.3,2.9-3,6.8-1.5Z"/>
            <path class="st9" d="M167.4,98c1.6-.3,1.6,1.4,0,1.1s-.6-1,0-1.1Z"/>
          </g>
          <g>
            <path class="st2" d="M137.3,96.9c0,2.8.4,4.4-1.9,6.4-.5.1-1.3,0-1.9,0-3.9-1.2-3.8-4.9-2.3-7.9,3.2-1,3.7-.2,6.1,1.5Z"/>
            <path class="st9" d="M135.6,98c.4-.3,1.4.3,1.3.9-1,.8-2.2-.4-1.3-.9Z"/>
          </g>
        </g>
      </g>
    </g>
  </g>
</svg>