<?xml version="1.0" encoding="UTF-8"?>
<svg id="Layer_1" xmlns="http://www.w3.org/2000/svg" version="1.1" viewBox="0 0 300 300">
  <!-- Generator: Adobe Illustrator 29.6.0, SVG Export Plug-In . SVG Version: 2.1.1 Build 207)  -->
  <defs>
    <style>
      .st0 {
        fill: #1c1a16;
      }

      .st1 {
        fill: #d6926d;
      }

      .st2 {
        fill: #f7671d;
      }

      .st3 {
        fill: #95603c;
      }

      .st4 {
        fill: #f9bd94;
      }

      .st5 {
        fill: #eba47b;
      }

      .st6 {
        fill: #122030;
      }

      .st7 {
        fill: #73492d;
      }

      .st8 {
        fill: #4e321f;
      }

      .st9 {
        fill: #fff;
      }

      .st10 {
        fill: #bfc0c2;
      }

      .st11 {
        fill: #cb491e;
      }

      .st12 {
        fill: #21324b;
      }
    </style>
  </defs>
  <g id="Generative_Object">
    <path class="st2" d="M156.2,191.1c-1.5,2.7-3.3,3.8-2.6,7.3l2.6,36.3c-2.2,5.2-4.1,10.4-6.6,15.5l-6.6-15.8v-.3l3.2-38.9c-.4-.7-3.2-3.7-3.2-4s0-.2,0-.3c.1-.5,6.2-6.8,6.6-8.4,2.4,2.7,4.2,6,6.6,8.7Z"/>
    <g>
      <path class="st9" d="M124.3,157.3c1.9,1.2,5.9,5.6,8.2,7.4,5.6,4.3,11.7,8.1,17.4,12.3,5.8-4.4,12-8.2,17.7-12.6,2.4-1.9,5.8-5.7,7.9-7.1s.8-.7,1.1-.6c1.6,1.7,7.3,6.4,7.3,8.7s-3,8.3-3.9,10.6l-18.9,16.1c-.5,0-2.6-2.7-3.1-3.2-2.8-3.5-5.2-7.9-8.2-11.3-.9,0-7.5,10.3-8.5,11.6s-2.7,2.9-3.1,2.9l-19.2-16.5c-.8-2.1-3.6-8.2-3.5-10,0-3.4,5.3-6.5,7.3-9,.4,0,1.1.4,1.5.6Z"/>
      <path class="st9" d="M143,191.1c0,.4,2.8,3.3,3.2,4l-3.2,38.9c-7.6-17.9-15-36-21.9-54.2l18.2,16.1,3.7-4.8Z"/>
      <path class="st9" d="M178.5,179.5c-7,18.3-14.4,36.5-21.9,54.5s-.2.4-.3.6l-2.6-36.3c-.7-3.5,1.1-4.6,2.6-7.3,0,0,.3,0,.3,0,.6.7,3.3,4.6,4,4.5l17.9-16.1Z"/>
      <path class="st10" d="M141.4,189.2l1.6,1.6c0,0,0,.2,0,.3l-3.7,4.8-18.2-16.1c-.5-1.3-1.4-2.9-1.9-4.2l19.2,16.5c.4,0,2.7-2.5,3.1-2.9Z"/>
      <path class="st10" d="M180.1,176c-.4,1.1-1.2,2.5-1.6,3.5l-17.9,16.1c-.7,0-3.4-3.8-4-4.5l1.6-2.3c.4.5,2.6,3.3,3.1,3.2l18.9-16.1Z"/>
    </g>
    <g>
      <path class="st12" d="M143,234.4l6.6,15.8c2.5-5,4.4-10.3,6.6-15.5s.2-.4.3-.6l27.7-67.9c3.3,1.1,7,3.3,7.7,6.9l-.6,24-11.6,1.3,8.1,8.1c-9.5,12.9-17.5,27.7-27.4,40.2s-2.8,4-3.4,4.2-14.1.2-14.8,0l-2.4-3.2-28.1-41.4,8.4-7.7-11.9-1-.6-25.3c1.1-3.3,4.2-4.1,6.6-6.1,6.9,14.8,12.3,30.4,18.5,45.6s5.7,15.4,8.7,21.6.9,1.4,1.6,1.1Z"/>
      <path class="st6" d="M139.8,247.6c-.6,1.1-1.2,0-1.6-.5-4-4.4-8-9.8-11.6-14.5-6.4-8.3-12.4-16.9-18.4-25.5l10-7.4h-12.3c1.5-7.7-.7-20.5,1.6-27.6l.6,25.3,11.9,1-8.4,7.7,28.1,41.4Z"/>
      <path class="st6" d="M160.4,246.6c9.9-12.4,18-27.3,27.4-40.2l-8.1-8.1,11.6-1.3.6-24c.4,1.8.8,5,1,6.3.7,6.8,0,13.9,1,20.6l-11.9-.3,9.4,7.7c-9.3,12.1-18,26.6-28.4,37.7s-1.6,2-2.6,1.5Z"/>
      <g>
        <path class="st12" d="M115.6,165.7c0,1.8,2.8,7.9,3.5,10s1.4,2.9,1.9,4.2c6.9,18.2,14.3,36.2,21.9,54.2v.3c-.7.3-1.4-.7-1.6-1.1-3-6.2-6.1-15.3-8.7-21.6-6.2-15.2-11.7-30.9-18.5-45.6-2.4,2.1-5.5,2.8-6.6,6.1-2.3,7.1-.1,19.9-1.6,27.6h12.3l-10,7.4c6,8.6,12,17.2,18.4,25.5,3.6,4.7,7.6,10.1,11.6,14.5s1,1.6,1.6.5l2.4,3.2c.7.2,14,.2,14.8,0s2.8-3.5,3.4-4.2c1,.6,2-.8,2.6-1.5,10.4-11.1,19.1-25.6,28.4-37.7l-9.4-7.7,11.9.3c-1-6.8-.3-13.9-1-20.6-.1-1.3-.6-4.5-1-6.3-.8-3.7-4.4-5.8-7.7-6.9l-27.7,67.9c7.6-18.1,15-36.2,21.9-54.5s1.2-2.4,1.6-3.5c.9-2.3,3.8-8.6,3.9-10.6,1.1-.5,3.3,1.2,4.4,1.9,1.8,1.2,3.7,3.6,5.2,4.5,7.9,4.7,23.8,7.8,33.2,12.3,2.2,1.1,8.8,4.4,9.8,6.3s1.9,14,2.3,17.4c1.3,14.6,1.9,29.4,2.7,44H58c.9-14.9,1.4-29.8,2.7-44.7s.8-14.1,1.9-16.5,8.4-5.8,10.8-6.9c8.3-3.9,27.5-8.2,33.5-12.3,1.9-1.2,4.1-4.7,7.4-6.1s.4-.3,1.1.3Z"/>
        <path class="st6" d="M214.1,230.2c-.3,5.4,1,11.6.5,16.9s-.2,4.9-1.8,3.7,1.1-18.3,1.3-20.6Z"/>
      </g>
    </g>
    <g>
      <path class="st8" d="M185.3,107.6c-1,3.6-2.7,7.1-3.9,10.6.5-8.6-.6-21.8-1.6-30.5-1.8-15.7-13.1-8.8-22.7-7.3s-15.2,1.8-24-.6c.3,0,.8,0,1-.2,0-1.5,0-2.9,0-4.4,0-4-.7-7,1-11-.2,4.8,1.4,9.2,4,13.2-.4-5.7-.6-12.7,4.4-16.5-1.1,3.4-1,8.7,1.5,11.6.6-4.3.5-9.7,3.4-13.2l-.8,13.9c2.7-7.1,5.8-13.8,12.7-17.7,5.1,0,9.3,1.2,14,2.9-.2-.9-3-1.9-3.1-2.1-.3-.5.5-1,.3-1.3-1.1-2.4-12.5-3.7-15.2-3.4,1.5-1.9,5.9.5,7.3-1-1.8-.2-3.7-1.1-5.5-1.3s-5.6.3-6.9.3c-5.7.2-11-.4-14.8,4.8,0-.2.8-1.5.5-1.6-6.6,3.5-11.4,8.6-9.5,16.6s5,10.1,5.8,10.2c-4.7-1.3-6.7-4.2-10.3.5s-5,31.2-4.5,38.2c-1.6-3.4-2.5-7.1-3.5-10.6-3.2-11-9.6-30.9,2.1-38.7s6.4-2.5,6.6-2.7,1.6-5.8,2.6-7.4c4.1-6.7,13.7-10,21.1-10.5,17.7-1.2,36.8,7.4,43.7,24.4l-5.5-4.2c7.2,11.3,3.5,26.8,0,38.9Z"/>
      <path class="st7" d="M156.2,51.8c-4.9.6-11.3,4.4-12.9,9.4-5,3.8-4.8,10.8-4.4,16.5-2.6-4-4.2-8.4-4-13.2,2.6-6.3,9.9-12.1,16.1-14.5,1.4,0,4.8-.5,6.9-.3s3.7,1.1,5.5,1.3c-1.3,1.5-5.8-.9-7.3,1Z"/>
      <path class="st3" d="M160.1,55.7c-4.3,0-9.1.4-11.9,3.9-2.9,3.5-2.7,8.9-3.4,13.2-2.4-2.9-2.6-8.2-1.5-11.6,1.6-5,8-8.7,12.9-9.4s14.1,1,15.2,3.4-.6.8-.3,1.3,2.9,1.2,3.1,2.1c-4.7-1.7-9-2.9-14-2.9Z"/>
      <path class="st3" d="M151.1,49.9c-6.2,2.4-13.5,8.3-16.1,14.5s-1,6.9-1,11c-4.2-3.1-3.7-9.7-1.9-14s3.2-4.5,4.2-6.6c3.9-5.2,9.2-4.7,14.8-4.8Z"/>
      <path class="st7" d="M136.2,54.7c-1,2.1-3.4,4.6-4.2,6.6-1.7,4.3-2.2,10.9,1.9,14,0,1.4,0,2.9,0,4.4-.1.3-.7.2-1,.2-.8,0-5.5-8.9-5.8-10.2-1.8-8,2.9-13.1,9.5-16.6.3.1-.4,1.4-.5,1.6Z"/>
      <path class="st7" d="M160.1,55.7c-6.9,3.9-10,10.6-12.7,17.7l.8-13.9c2.8-3.4,7.7-3.9,11.9-3.9Z"/>
    </g>
    <path class="st11" d="M158.2,188.9l-1.6,2.3c0,0-.3,0-.3,0-2.4-2.7-4.2-6-6.6-8.7-.4,1.6-6.5,7.9-6.6,8.4l-1.6-1.6c1.1-1.3,7.7-11.7,8.5-11.6,3,3.4,5.4,7.8,8.2,11.3Z"/>
    <g>
      <path class="st4" d="M174.3,153.1c.2,1.3.9,2.9,1.3,4.2-2.1,1.4-5.5,5.2-7.9,7.1-5.8,4.4-11.9,8.2-17.7,12.6-5.8-4.1-11.8-8-17.4-12.3s-6.3-6.3-8.2-7.4c.1-1.1.8-2.5,1-3.5,6.4,3.5,13.4,8.7,20.8,9.7,10.7,1.5,20-4.3,28.2-10.3Z"/>
      <path class="st1" d="M173.7,147.6c.6,1.7.3,3.7.6,5.5-8.3,6-17.5,11.8-28.2,10.3s-14.4-6.2-20.8-9.7c.3-1.9,0-4.2.6-6.1,13.7,14.6,34.1,14.6,47.7,0Z"/>
      <path class="st5" d="M181.1,126.6c-.4-2.8.2-5.6.3-8.4,1.2-3.5,2.8-7.1,3.9-10.6,7.4,1.4,3.4,11.4.3,15.3s-3.6,2.7-4.5,3.7Z"/>
      <path class="st5" d="M114.6,107.9c1.1,3.6,1.9,7.3,3.5,10.6l.3,7.7c0,0-2-.8-2.4-1.3-3.9-4.2-10.5-15.2-1.5-17.1Z"/>
      <g>
        <path class="st4" d="M181.4,118.2c-.1,2.8-.7,5.6-.3,8.4-2.9,3.3-1.2,14.3-7.4,21-13.7,14.6-34,14.6-47.7,0-6.1-6.4-4.4-18.1-7.4-21.3l-.3-7.7c-.5-7,.7-33.3,4.5-38.2s5.6-1.8,10.3-.5c8.8,2.5,15,2.1,24,.6s20.9-8.5,22.7,7.3c1,8.7,2.1,21.9,1.6,30.5Z"/>
        <g>
          <path class="st8" d="M161.9,100.8c5.1-.6,12.4-.5,15,4.7-6.6-2.4-13.1-.3-19.8.2-1.3-4.2,1.5-4.5,4.8-4.8Z"/>
          <path class="st8" d="M129,100.8c1.4-.3,12,0,12.9.6s.7,2.7.8,4c-6.5,0-13.3-2.8-19.5.2.4-1.9,4.1-4.5,5.8-4.8Z"/>
          <g>
            <path class="st9" d="M137.2,134c8.4,1.8,17.5,1.6,25.8,0l.3.3c-7.3,9.1-19.6,9.6-26.8,0,0-.5.4-.3.6-.3Z"/>
            <path class="st1" d="M136.6,134.4c7.2,9.6,19.5,9.1,26.8,0-3.8,11.3-22.8,10.8-27.4.2l.6-.2Z"/>
            <path class="st1" d="M163,134c-8.3,1.6-17.4,1.8-25.8,0,7.4-1.2,18,.8,25.8,0Z"/>
          </g>
          <path class="st1" d="M144.8,125.7l10.2.5c-2.2,3.1-8.8,3.5-10.2-.5Z"/>
          <g>
            <path class="st0" d="M165.8,107.6c2.2-.2,4.7,1.3,6.3,2.7l-3.1-1.5c3.4,7.5-7.9,8.5-5.8.6l-2.4,1.5,1.5-1.8c1-.5,2.4-1.5,3.5-1.6Z"/>
            <path class="st9" d="M165.1,109.5c1,0,.9,1.2.3,1.3s-1.2-1.2-.3-1.3Z"/>
          </g>
          <g>
            <path class="st0" d="M132.2,107.6c2.6-.3,5.9,1.6,6.9,4l-2.4-2.1c-.6,1.6.5,4.2-1.6,5.2-3.5,1.7-6.3-2-4.7-5.3l-2.9,1c-.1-.4,4.1-2.7,4.7-2.7Z"/>
            <path class="st9" d="M134.2,109.5c.2,0,1.2,1.2.3,1.3s-.9-1.2-.3-1.3Z"/>
          </g>
        </g>
      </g>
    </g>
  </g>
</svg>