<?xml version="1.0" encoding="UTF-8"?>
<svg id="Layer_1" xmlns="http://www.w3.org/2000/svg" version="1.1" viewBox="0 0 300 300">
  <!-- Generator: Adobe Illustrator 29.6.0, SVG Export Plug-In . SVG Version: 2.1.1 Build 207)  -->
  <defs>
    <style>
      .st0 {
        fill: #854927;
      }

      .st1 {
        fill: #202327;
      }

      .st2 {
        fill: #283345;
      }

      .st3 {
        fill: #3d4b58;
      }

      .st4 {
        fill: #d9a682;
      }

      .st5 {
        fill: #d25328;
      }

      .st6 {
        fill: #d7dfe2;
      }

      .st7 {
        fill: #c3cacd;
      }

      .st8 {
        fill: #c73411;
      }

      .st9 {
        fill: #fefeff;
      }

      .st10 {
        fill: #080b0f;
      }

      .st11 {
        fill: #a96e49;
      }

      .st12 {
        fill: #eb652d;
      }

      .st13 {
        fill: #302117;
      }

      .st14 {
        fill: #965e3b;
      }
    </style>
  </defs>
  <path class="st13" d="M189.9,100.9c-.8,3.7-1.6,7.5-2.9,11.1,0-4.3-.2-19.1-1.3-22.5s-1.5-1.6-1.7-2.1c-3.2-7.4,3.3-25.3-10-23.4s-16.5,7.1-30.8,5-16.8-5.8-21.2-5.2c-7.3,1-4.7,16.2-5.3,20.6s-2.3,4-2.7,5.2c-.7,2.1-.3,6.2-.8,8.5-.5.8-.5,2-.2,2.9l-.5,10.5c-.5,0-2.2-9.5-2.4-10.5-1.7-9.4-5-27.3-1.9-35.9,10.7-29.3,83.9-28.1,85.3,8.8.3,8.5-1.7,18.7-3.6,26.9Z"/>
  <g>
    <path class="st2" d="M146.9,261c.7.5,1.5,1.6,2.1.8.2.3.4.7.8.6,0,0,0,.1,0,.2v.2c-27.5,0-55.1.7-82.6-.1.4-9,.1-18,.4-27s.4-39.6,11-46.2c4.3-2.7,24.7-11.3,29.7-12.6s1.5-.7,2.1-.3c-3.8,9.7-6.5,20.2-6.9,30.6l11.9,4.4-7.8,7.8c10.2,16.3,23.3,30.7,38.7,42.2l.5-.6Z"/>
    <path class="st2" d="M231.2,219.5l.7,43c-2.5-.5-20.3.6-21.2,0s0-1.3-.2-1.3c.8,1.9-5.1,1.8-4.6.2l-.2,1h-53.9c16-11.6,29.5-26.5,40.1-43.1l-7.8-7.8,11.9-4.6c-.2-9.5-3.2-18.6-5.7-27.7h-1c-.4-1.1-.7-2.8-1.3-3.9l30.7,13c10.4,5.1,11.4,20.7,12.3,31Z"/>
    <path class="st3" d="M123.4,180.1c0,1.9,0,3.8,0,5.7.9,21.7,7.7,40.9,17.2,60.1,2.4,5,5.3,11.4,8.4,15.9-.6.8-1.4-.3-2.1-.8-2.8-2.1-5.9-5.3-8.5-7.8-10.6-10.3-20.1-21.7-28.2-34.1l8.8-9-13.6-4.6c.5-10.3,3.2-20.2,5.9-30.1.5-.4,1-1.5,1.8-2.1,3.6-2.7,7.4-5.1,11-7.8-.4,4.8-.6,9.6-.6,14.5Z"/>
    <path class="st3" d="M188.2,175.5c.6,1.1.9,2.8,1.3,4,2.7,8.2,4.2,17.5,4.8,26.1l-13.6,4.6,8.8,9c-8.9,13.4-19.5,26-31.3,37s-5,4.8-6.9,6.1-.8.5-1.4.4c0,0,0-.1,0-.2.2-.7.9-1.8,1.3-2.5,2.6-4.9,5.6-9.5,7.8-14.7,11.2-19.9,17.5-42.2,17.8-65.2,0-4.2.3-10-.6-14,3,2.6,10.4,6.1,12.2,9.4Z"/>
    <path class="st2" d="M231.2,219.5c1.1,14.5,1,29.1.9,43.6-27.4.2-54.8-.2-82.3-.2v-.2c.5.1,1-.2,1.4-.4,2-1.3,5.1-4.4,6.9-6.1,11.8-11,22.4-23.6,31.3-37l-8.8-9,13.6-4.6c-.6-8.6-2.1-17.9-4.8-26.1h1c2.4,9,5.5,18.1,5.7,27.6l-11.9,4.6,7.8,7.8c-10.7,16.6-24.1,31.5-40.1,43.1h53.9l.2-1c-.5,1.6,5.4,1.7,4.6-.2.2,0,0,1.1.2,1.3.9.6,18.6-.5,21.2,0l-.7-43Z"/>
    <path class="st2" d="M111.3,175.5c-2.7,9.8-5.4,19.8-5.9,30.1l13.6,4.6-8.8,9c8.1,12.3,17.6,23.8,28.2,34.1,2.5,2.5,5.7,5.6,8.5,7.8l-.5.6c-15.3-11.6-28.5-25.9-38.7-42.2l7.8-7.8-11.9-4.4c.5-10.4,3.1-20.9,6.9-30.6-.6-.4-1.4.1-2.1.3.6-.9,2.2-1,2.9-1.5Z"/>
  </g>
  <g>
    <g>
      <g>
        <path class="st9" d="M128.5,162.9c0,1-.1,2.1.2,3,1.9,5.5,16.7,13.4,21.2,17.3,0,.2-.1.3-.2.4-3,2-5.8,4.4-8.6,6.7s-7,6-7.4,5.9l-10.2-16.1c0-4.9.2-9.6.6-14.5.6-.4.4.3.5.2.8-.6,2.1-3.4,3.9-2.9Z"/>
        <path class="st9" d="M176,166c.9,4,.7,9.9.6,14-.3,0-.3.2-.4.4-3.1,5.3-6.5,10.6-10,15.7-.5.1-6.5-5.3-7.4-6.1-2.7-2.2-5.4-4.6-8.4-6.5,0,0-.1-.1-.2-.2,5.4-4.2,11.7-7.5,16.7-12.4.9-.8,4.5-4.7,4.7-5.6s0-1.8,0-2.4c1.7-.4,2.8,2.3,4.3,2.3-.7.8,0,.6.1.6Z"/>
      </g>
      <g>
        <path class="st6" d="M144.2,196.4c.3.4.4,1.3,1,1.5-.3.8-.1,1.5-.2,2.3-1.2,15.2-3.1,30.5-4.4,45.7-9.5-19.2-16.3-38.4-17.2-60.1,2.4,1.1,8.3,13.7,9.5,14s5.2-4.7,6.7-5.4c.7.6,4.1,5.2,4.6,5.2,1.5,0-.5-2.5-.1-3.1Z"/>
        <path class="st6" d="M141,190.3c.1.7,1,1.6,1.3,2.1.7,1.3,1,2.7,1.9,4-.3.6,1.6,3.2.1,3.1s-3.9-4.7-4.6-5.2c-1.5.8-5.1,5.9-6.7,5.4s-7.1-13-9.5-14c0-1.9,0-3.8,0-5.7l10.2,16.1c.5.1,6.5-5.1,7.4-5.9Z"/>
        <path class="st6" d="M158.9,245.2c-1.2-14.8-2.8-29.6-4-44.4l5.3-6.5c1.6.8,5,5.9,6.7,5.4s7.6-12.7,9.1-14.1l.2-5.1c.1-.2.2-.4.4-.4-.3,22.9-6.6,45.3-17.8,65.2Z"/>
        <path class="st7" d="M154.9,200.8c0-.8.1-1.5-.2-2.3,0,0,0-.4.2-.6,1-1.9,2-3.7,2.9-5.7s.9-1.3,1-2.1c.9.7,7,6.2,7.4,6.1,3.5-5.1,6.8-10.4,10-15.7l-.2,5.1c-1.5,1.4-8.3,13.9-9.1,14.1-1.7.5-5.1-4.7-6.7-5.4l-5.3,6.5Z"/>
      </g>
      <g>
        <path class="st12" d="M149.9,201.2v59.2l1.3-.5c-.4.7-1.1,1.8-1.3,2.5-.4,0-.7-.4-.8-.6-3-4.5-5.9-11-8.4-15.9,1.3-15.2,3.2-30.4,4.4-45.7.9.9,3.5,1,4.8,1Z"/>
        <path class="st5" d="M154.9,200.8c1.2,14.8,2.8,29.6,4,44.4-2.1,5.1-5.1,9.8-7.8,14.7l-1.3.5v-59.2c1.4,0,2.7-.3,4.1-.4.4-.8.3-1.5.7-2.3.3.8.1,1.5.2,2.3Z"/>
        <path class="st5" d="M150.3,183.4c0,0,.1.1.2.2,1,1,2.5,3.4,3.6,4.7s2.4,2.7,3.8,3.9c-1,1.9-2,3.8-2.9,5.7-1.7,0-3.4,0-5,0l-.4-13.6s.1-.4.2-.6.2-.3.2-.4c0,0,.4.2.4.2Z"/>
        <path class="st8" d="M149.6,183.6c0,.2-.2.6-.2.6-.4.7-1.8,2.6-2.7,3.7-1.3,1.6-2.9,3.1-4.4,4.5-.3-.5-1.1-1.4-1.3-2.1,2.8-2.3,5.6-4.7,8.6-6.7Z"/>
        <path class="st8" d="M158.9,190.1c-.1.8-.7,1.4-1,2.1-1.3-1.2-2.6-2.5-3.8-3.9s-2.5-3.7-3.6-4.7c3,1.9,5.6,4.3,8.4,6.5Z"/>
        <path class="st8" d="M149.9,197.9c1.7,0,3.4,0,5,0-.1.2-.2.5-.2.6-.4.8-.3,1.6-.7,2.3-1.4.1-2.7.4-4.1.4s-3.9-.2-4.8-1c0-.8-.1-1.5.2-2.3,1.5,0,3.1,0,4.6,0Z"/>
        <path class="st12" d="M149.4,184.3l.4,13.6c-1.5,0-3.1,0-4.6,0-.6-.2-.7-1-1-1.5-.9-1.2-1.2-2.7-1.9-4,1.5-1.4,3.1-2.9,4.4-4.5s2.3-2.9,2.7-3.7Z"/>
      </g>
    </g>
    <g>
      <path class="st14" d="M171.2,158.9c0,1.3.4,2.9.4,4.2s.1,2,0,2.4c-.2.9-3.8,4.7-4.7,5.6-5,4.8-11.2,8.1-16.7,12.4,0,0-.4-.2-.4-.2-4.5-3.9-19.2-11.8-21.2-17.3s-.2-2-.2-3c0-2.1.5-4.9.6-7.1,5.9,3.6,9.6,10.2,16.7,11.9s14.1.8,20.1-4.4,4.5-5.4,4.8-5.2-.2,1.9.5.8Z"/>
      <path class="st0" d="M170.6,151.8c.2,2.4.5,4.8.6,7.1-.8,1-.2-.7-.5-.8s-4,4.5-4.8,5.2c-6.1,5.2-12.3,6.3-20.1,4.4s-10.7-8.4-16.7-11.9c0-1.3.2-2.7.2-4,15.1,14.1,26.1,14.2,41.3,0Z"/>
      <path class="st14" d="M192.4,124.1c-.2.2-2.2,1.2-2.3,1.3-1.4.3-2.8.3-4.2.1.6-4.5,1-9,1-13.5,1.3-3.6,2.1-7.4,2.9-11.1,10.5-4.2,9.6,11,7.1,17.1-.9,2.3-2.6,4.7-4.6,6.2Z"/>
      <g>
        <path class="st11" d="M186.9,112c0,4.5-.4,9-1,13.5,1.4.2,2.8.2,4.2-.1-1.7.7-2.5.9-4.4.9-.7,9.6-6.6,16.6-13,23.2-1.9-3.1-2.6-12.4-4.4-14.8s-13.7-4.6-16.7-4.7-1.4.6-1.5.6c-1.9,0-3-.7-5.7-.4s-10.7,2.8-11.9,3.6c-2.2,1.4-3,8.5-3.9,11.2s-1.2,2.9-1.7,4.3c-6.4-6.5-12.4-13.3-13-22.9-3-.2-5.1-.4-7.4-2.4-4.7-4.1-6.7-14.3-4.5-20s4.7-5.3,8-2.8c.2,1,1.9,10.5,2.4,10.5l.5-10.5c.6,1.9,2.3,1.6,2.9,2.8,1.2,2.3,1.5,7.8,3.1,10.7,3.9,6.7,20.2,5.8,24.3-.8s2.5-13.6,7.9-10.8,3.1,8.9,4.7,11.2c4.1,5.8,18.8,6.9,23.3,1.7,2.6-3.1,2.4-9.1,4-11.9s2.6-1.4,2.9-2.9,0-3-1.6-3.7c-4.3-1.9-15.6-2.4-20.3-1.7s-8.9,3.2-13,3.6c-6.6.5-12.7-3.5-19.5-4s-14.2.8-17.4,2.1-1.1.7-1.2.8c.5-2.3.2-6.4.8-8.5s2.4-2.9,2.7-5.2c.6-4.5-1.9-19.6,5.3-20.6s15.7,4.5,21.2,5.2c14.3,2.1,18.9-3.3,30.8-5s6.7,16,10,23.4,1.6,1.9,1.7,2.1c1.1,3.4,1.3,18.2,1.3,22.5Z"/>
        <path class="st0" d="M142.4,123.7c.4,0,2.4,1.6,3.1,1.9,2.1.8,5.8.9,8,.4s4-2.3,4.2-2.3c2-.1.4,1.9-.4,2.5-3.2,2.6-11.3,2.7-14.5,0s-1.9-2.2-.4-2.5Z"/>
      </g>
      <g>
        <path class="st13" d="M172.7,149.5c-.7.7-1.4,1.6-2.1,2.3-15.1,14.2-26.1,14.1-41.3,0s-1.5-1.7-2.3-2.5c.5-1.4,1.2-2.9,1.7-4.3.9-2.7,1.7-9.8,3.9-11.2s10.3-3.4,11.9-3.6c2.6-.3,3.7.4,5.7.4s1.2-.6,1.5-.6c3,.1,15,2.5,16.7,4.7s2.5,11.7,4.4,14.8Z"/>
        <path class="st11" d="M137.1,137.3c7,6.8,18.5,6.5,25.6,0,0,0,.7-.5,1.2-.4,2.6.7,1.9,9.8-.2,11.5s-7.1,1.9-9.6,2.1l1-4.4h-10.3l1.2,4.1c-2.5.6-9.3-.4-10.7-2.9s-1.5-9.2.3-10.2,1.2.2,1.6.2Z"/>
        <path class="st4" d="M141.3,137.3c5.2,1.8,11.7,1.8,17,0,1.4,0,3,0,4.4,0-7.1,6.5-18.6,6.8-25.6,0,1.4,0,2.8,0,4.2,0Z"/>
        <path class="st11" d="M158.2,137.3c-5.2,1.8-11.8,1.8-17,0,3.5-.2,6.7-1.8,10.2-1.5s4.5,1.3,6.8,1.5Z"/>
      </g>
      <g>
        <path class="st10" d="M113,101.1c-.3-.9-.3-2.1.2-2.9s1-.8,1.2-.8c3.2-1.3,13.8-2.3,17.4-2.1,6.8.5,12.9,4.5,19.5,4s8.7-2.9,13-3.6,16-.2,20.3,1.7,1.9,2,1.6,3.7-2.4,2.1-2.9,2.9c-1.6,2.8-1.4,8.9-4,11.9-4.4,5.2-19.2,4.1-23.3-1.7-1.6-2.3-3.3-10.5-4.7-11.2-5.4-2.9-5.9,7.6-7.9,10.8-4.1,6.6-20.4,7.5-24.3.8-1.6-2.8-1.9-8.4-3.1-10.7s-2.4-.9-2.9-2.8Z"/>
        <g>
          <path class="st11" d="M165.7,98.3c2.4-.2,11.2-.2,13,.8,3.2,1.9.8,12.6-1.2,15.2-3.9,5-15.3,4.6-19.1-.6s-3.8-10.4-2.9-12.4,8-2.9,10.2-3Z"/>
          <g>
            <path class="st1" d="M166.5,99.4c7.1-.6,6.9,10.3-.2,9.4s-5.4-8.9.2-9.4Z"/>
            <path class="st9" d="M164,101.5c1.9-.3,2.7,2.8.8,3.1s-2.5-2.9-.8-3.1Z"/>
          </g>
        </g>
        <g>
          <path class="st11" d="M127.1,98.1c2.8-.1,15.1.4,16.2,3s-1.4,10.8-2.9,12.8c-4,5.3-16.1,5.5-19.5-.6s-2.7-10.3-1.9-12.6,6-2.5,8.1-2.6Z"/>
          <g>
            <path class="st1" d="M130.9,99.8c6.1-.5,6.9,8.5,1.7,9.4s-8-8.9-1.7-9.4Z"/>
            <path class="st9" d="M128.2,102.5c1.9-.1,2,2.8.6,3.1-2.2.6-2.7-3-.6-3.1Z"/>
          </g>
        </g>
      </g>
    </g>
  </g>
</svg>