<?xml version="1.0" encoding="UTF-8"?>
<svg id="Layer_1" data-name="Layer 1" xmlns="http://www.w3.org/2000/svg" xmlns:xlink="http://www.w3.org/1999/xlink" viewBox="0 0 216.48 284.55">
  <defs>
    <style>
      .cls-1 {
        fill: #dc533e;
      }

      .cls-2 {
        fill: #ec6861;
      }

      .cls-3 {
        fill: #7197a9;
      }

      .cls-4 {
        fill: #c3cac4;
      }

      .cls-5 {
        fill: url(#linear-gradient-2);
      }

      .cls-6 {
        fill: #53160f;
      }

      .cls-7 {
        fill: #8d3e39;
      }

      .cls-8 {
        fill: #b2635f;
      }

      .cls-9 {
        fill: #f38275;
      }

      .cls-10 {
        fill: url(#linear-gradient);
      }

      .cls-11 {
        fill: #595c5b;
      }

      .cls-12 {
        fill: #558296;
      }

      .cls-13 {
        fill: #31586c;
      }

      .cls-14 {
        fill: #f0ba92;
      }

      .cls-15 {
        fill: #bebfbf;
      }

      .cls-16 {
        fill: #27373c;
      }

      .cls-17 {
        fill: #fffeff;
      }

      .cls-18 {
        fill: #e65e36;
      }

      .cls-19 {
        fill: #2f1408;
      }

      .cls-20 {
        fill: #fdd7b5;
      }

      .cls-21 {
        fill: #b4431c;
      }

      .cls-22 {
        fill: #7a2d28;
      }

      .cls-23 {
        fill: #efa278;
      }

      .cls-24 {
        fill: #8d9391;
      }

      .cls-25 {
        fill: #431b0a;
      }

      .cls-26 {
        fill: #0d2b38;
      }

      .cls-27 {
        fill: #9e504d;
      }

      .cls-28 {
        fill: #456f83;
      }

      .cls-29 {
        fill: #f9998f;
      }

      .cls-30 {
        fill: #ac121a;
      }

      .cls-31 {
        fill: #f3906a;
      }

      .cls-32 {
        fill: #ce262c;
      }
    </style>
    <linearGradient id="linear-gradient" x1="139.4" y1="102.96" x2="138.95" y2="122.13" gradientUnits="userSpaceOnUse">
      <stop offset="0" stop-color="#390a03"/>
      <stop offset="1" stop-color="#68241d"/>
    </linearGradient>
    <linearGradient id="linear-gradient-2" x1="107.39" y1="123.79" x2="109.46" y2="166.99" gradientUnits="userSpaceOnUse">
      <stop offset="0" stop-color="#e77850"/>
      <stop offset="1" stop-color="#f9d59f"/>
    </linearGradient>
  </defs>
  <g id="Generative_Object" data-name="Generative Object">
    <g>
      <path class="cls-13" d="M74.21,166.08c.07.15-.34.3-.22.56,9.5,19.85,20.31,38.34,32.33,56.74,0,.19.18.22.22.45.1.55-.13,2.26-.89,2.12.36.59.66.43,1.11.56-.86.52-.22.83-.22.89-.21,1.75-.36,1.66-.22,3.34.05.57-.13,1.7,0,2.12.55,1.74,2.3,3.12,4.12,2.56,2.32-.71,2.63-4.31.11-5.35-1.25-.52-.75.34-2.01-.22.05-.04.53.02.67-.33-.29-.51-.86-.06-1.34.11-.08-.54.38-.58.67-.89.73-.79.57-.84.89-2.01.26-.94.13-2.17.22-2.45.11-.33,1.05-1.74,1.34-2.23,5.51-9.3,12.18-18.08,17.61-27.76,5.15-9.16,9.14-18.91,14.05-27.98.32-.59.52-1.31,1.11-1.11,0,.04.64-.18.45.56-.69,2.66-4.01,8.94-5.35,11.82-4.83,10.33-10.79,20.1-15.83,30.32,6.41.69,13.59.58,19.95-.56,4.41-.79,9.73-2.29,12.82-5.57-1.43,7.86-5.18,13.97-6.69,22.18-1.92,10.44-2.61,22.51-.22,32.33.17.72,1,1.48.78,2.34h-82.05c.1-.93.43-1.72.56-2.68.51-1.73,1.33-3.8.89-5.57.89-9.84-.76-25.68-3.79-35.12-1.97-6.14-4.62-8.92-5.13-16.16-.12-1.68-.05-3.76,0-5.46.01-.41-.22-1.1.45-1,0,3.12-.83,8.21,1.67,10.48,5.27,4.76,24.49,5.55,31.55,4.79-5.8-10.99-12.1-21.74-17.39-33-.53-1.13-3.98-8.43-4.01-8.92-.04-.66.2-.52.67-.78.09.19,1.08.83,1.11.89Z"/>
      <path class="cls-28" d="M80.23,151.59c-2.4,1.4-6.32-1.03-8.36.45.55.05,1.13-.07,1.67,0l-1.45,1.78.22.45,7.25-.45c-.98,2.62-2.07,5.28-2.68,8.03-.52.26-.72.89-1.34.89.17-.47.91-.87,1.11-1.45.6-1.89-4.58,1.04-4.68,1.34.11.11.22.16.22.33.03.79.54,1.54.89,2.23-.47.26-.71.12-.67.78.03.49,3.48,7.78,4.01,8.92,5.29,11.26,11.59,22.01,17.39,33-7.05.75-26.28-.03-31.55-4.79-2.51-2.27-1.68-7.36-1.67-10.48.02-11.09.6-21.55-3.34-32.22-.11-.23-.44.18-.45.22-.04.27,1.02,4.5,1.11,5.35,2.61,22.44-5.97,56.98-12.49,78.93-1.27,4.29-3.24,4.27-.89,8.92.22.43,1.39,1.16,1.56,1.56.02.05-.67.46-.45.89.11.21,4.14,1.35,2.9,3.01-7.45.55-15.55-.41-23.08,0-1.55-5.72-.61-11.28.11-17.06,1.85-14.88,5.26-31.31,8.7-45.93,1.9-8.07,10.86-43.64,16.83-47.38,7.83-3.06,18.52-3.82,26.09-6.91.51-.21,1.64-1.3,2.23-1.56,2.7-1.21,5.3-2.63,8.03-3.79-3.16,4.47-5.29,9.82-7.25,14.94Z"/>
      <path class="cls-13" d="M167.19,259.28c-.97-.04-2.31.28-3.12-.33-.28-.8,1.63-5.19,1.78-6.24.7-4.67-2.96-21.78-4.01-27.42-1.51-8.09-3.34-16.18-5.24-24.19-.28,5.63-3.72,10.19-5.24,15.27-1.33,4.46-2.42,11.6-2.9,16.28-.92,8.96-.97,18.03,1.9,26.64h-83.16c-.48-.28.89-2.96,1-3.34-.13.95-.46,1.74-.56,2.68h82.05c.22-.86-.61-1.62-.78-2.34-2.38-9.82-1.7-21.89.22-32.33,1.51-8.21,5.26-14.33,6.69-22.18,2.37-13-2.14-26.88,3.34-40.91.14-.36.2-1.25.67-.89-3.28,15.59-.98,30.79,2.01,46.15,2.59,13.35,6.01,27.24,9.59,40.35.19.7,1.32,2.53,1.34,2.68.02.2-1.14,3.45-1.34,3.79-.28.49-1.75,1.45-1.78,1.56-.07.27.45.84.45.89-.09.55-5.11,1.76-4.01,3.34.23.33,1.23-.25,1.11.56Z"/>
      <path class="cls-13" d="M60.61,192.61c-.67-.1-.43.6-.45,1-.05,1.71-.12,3.78,0,5.46-.71-.04-.7.7-.89,1.23-2.08,5.79-2.54,12.93-3.79,18.95-1.84,8.83-4.82,19.03-6.02,27.87-.08.57.48,2.08.45,2.45-.1,1.16-1.03,3.25-.67,5.13.02.09.65.73.67.78.41,1.25,1.33,2.17.67,3.68-.27.24-1.53.08-2.01.11,1.24-1.66-2.79-2.8-2.9-3.01-.22-.43.47-.85.45-.89-.17-.4-1.34-1.13-1.56-1.56-2.35-4.65-.38-4.63.89-8.92,6.51-21.95,15.1-56.49,12.49-78.93-.1-.85-1.15-5.08-1.11-5.35,0-.04.33-.45.45-.22,3.95,10.66,3.37,21.13,3.34,32.22Z"/>
      <path class="cls-13" d="M60.17,199.08c-3.96,15.72-6.41,31.79-10.03,47.6l-.22,8.81s-.65-.69-.67-.78c-.36-1.88.57-3.97.67-5.13.03-.37-.52-1.88-.45-2.45,1.2-8.84,4.18-19.04,6.02-27.87,1.25-6.02,1.71-13.16,3.79-18.95.19-.52.18-1.27.89-1.23Z"/>
      <path class="cls-13" d="M139.54,161.62c.04.14,0,.25.22.22.47.97,3.35,2.14,4.24,1.11.01.03.67-.09.67.11-.48.66-.75,1.3-.89,2.12-.6-.19-.8.53-1.11,1.11-2.37-1.81-5.43-3.09-8.25-4.01-1.77-1.97-5.16-2.44-6.47-4.46v-.22c3.82,1.33,7.51,3.45,11.59,4.01Z"/>
      <path class="cls-13" d="M88.48,157.83c.02.14-.04.36,0,.45-1.2-.3-.79.62-1.45,1.11-1.73,1.29-4.56,2.03-5.91,3.79-2.41.8-4.52,2.07-6.91,2.9-.03-.06-1.02-.71-1.11-.89-.35-.69-.86-1.44-.89-2.23.93.8,2.33.48,3.34,0-.01.06.28,1.12.33,1.11,2.81-2.56,6.08-3.44,9.48-4.9,1.07-.46,2.02-.9,3.12-1.34Z"/>
      <path class="cls-13" d="M79.79,153.37c-.06.17-.16.27-.22.45l-7.25.45-.22-.45,1.45-1.78c2.09.27,4.23.69,6.24,1.34Z"/>
      <path class="cls-28" d="M136.64,153.82c-.02-.06.02-.16,0-.22,1.91-.87,4.14-1.11,6.24-1.56-.15.87.7,1.54.11,2.23l-6.35-.45Z"/>
      <path class="cls-26" d="M80.23,151.59c-.15.38-.21,1.15-.45,1.78-2.01-.65-4.15-1.06-6.24-1.34-.54-.07-1.13.05-1.67,0,2.04-1.48,5.96.96,8.36-.45Z"/>
      <path class="cls-28" d="M134.41,162.29c2.82.92,5.87,2.2,8.25,4.01-4.91,9.07-8.9,18.82-14.05,27.98-5.44,9.68-12.11,18.45-17.61,27.76-.33.18-.69.44-1,0-.21-.3,1.61-5.98,1.9-6.91,5.74-18.65,11.93-35.13,15.38-54.62,2.33.7,4.82,1.03,7.13,1.78Z"/>
      <path class="cls-12" d="M89.37,161.18c4.09,21.77,10.24,38.43,17.17,59.08.4,1.18,1.42,2.48-.22,3.12-12.02-18.4-22.83-36.9-32.33-56.74-.12-.25.3-.41.22-.56,2.39-.83,4.5-2.1,6.91-2.9,2.61-.87,5.5-1.09,8.03-2.23.06.31.22.21.22.22Z"/>
      <path class="cls-11" d="M110.56,230.07c.95,1.16,1.39,4.15-.78,4.46-1.64.23-3.26-1.1-3.23-2.9.65-.7,1.25-1.2,2.01-1.78,1.26.56.76-.29,2.01.22Z"/>
      <g>
        <path class="cls-16" d="M85.36,159.17c-3.4,1.46-6.66,2.34-9.48,4.9-.06,0-.35-1.06-.33-1.11.02-.07-.02-.16,0-.22.62,0,.82-.63,1.34-.89,2.24-1.13,6.01-1.72,8.47-2.68Z"/>
        <path class="cls-4" d="M96.29,134.87c-.72,1.85-.4,2.27-2.9,2.68.24-1.75.5-3.46,2.9-2.68Z"/>
        <path class="cls-4" d="M122.82,137.1c-1.73.37-1.57-.96-2.01-2.23,1.83-.84,1.79,1.15,2.01,2.23Z"/>
        <g>
          <path class="cls-17" d="M127.95,157.61v.22c-.42.78-.51,1.8-.67,2.68-3.46,19.5-9.65,35.97-15.38,54.62l-3.68,6.47-1.67-1.34c-6.92-20.65-13.08-37.31-17.17-59.08,3.25-1.66,7.28.52,10.14,2.23,1.46.87,2.61,2.32,4.12,2.9.72,1.09.14,2,1.56,1.34,1.06,1.92,2.16,3.76,3.01,5.8,1.1-2.39,2.19-4.83,3.46-7.13h.89c-.1.25-.4.42-.11.67,1.18-1.19,2.38-2.43,3.79-3.34,1.89-1.23,6.87-3.71,8.92-3.79.09,0,1.55.31,1.78.45.29-1.51.81-2.1-.56-3.12.5.16,1.05.27,1.56.45Z"/>
          <path class="cls-15" d="M103.64,166.3c-1.52-.58-2.66-2.02-4.12-2.9-2.87-1.71-6.9-3.89-10.14-2.23,0-.02-.17.08-.22-.22-.22-1.14-.18-1.52-.67-2.68-.04-.09.02-.31,0-.45,1.05-.41,3.83-1.95,4.79-2.01,2.93-.18,8.75,8.03,10.37,10.48Z"/>
          <path class="cls-15" d="M126.38,157.16c1.36,1.02.84,1.61.56,3.12-.23-.14-1.69-.45-1.78-.45-2.05.08-7.03,2.56-8.92,3.79-1.41.92-2.61,2.15-3.79,3.34-.29-.25.01-.41.11-.67.59-1.49,7.21-9.42,8.58-10.03,1.99-.89,3.37.3,5.24.89Z"/>
          <path class="cls-15" d="M111.89,215.13c-.29.93-2.1,6.62-1.9,6.91.31.44.68.18,1,0-.29.49-1.23,1.9-1.34,2.23l-3.12-.45c-.04-.22-.23-.25-.22-.45,1.64-.64.62-1.94.22-3.12l1.67,1.34,3.68-6.47Z"/>
        </g>
      </g>
      <path class="cls-26" d="M107.21,230.07c-.38.55-.66.83-.67,1.56-.02,1.8,1.59,3.13,3.23,2.9,2.17-.31,1.73-3.3.78-4.46,2.52,1.05,2.21,4.64-.11,5.35-1.82.55-3.58-.82-4.12-2.56-.13-.41.05-1.54,0-2.12.28-.6.61-.49.89-.67Z"/>
      <path class="cls-16" d="M109.66,224.27c-.1.28.04,1.51-.22,2.45-.82-.29-1.83,0-2.68-.22-.46-.12-.76.04-1.11-.56.76.15.99-1.57.89-2.12l3.12.45Z"/>
      <path class="cls-13" d="M108.55,228.73c-.29.32-.75.35-.67.89-.25.09-.44.3-.67.45-.28.18-.61.07-.89.67-.14-1.69.02-1.59.22-3.34l2.01,1.34Z"/>
      <path class="cls-13" d="M109.44,226.72c-.32,1.17-.16,1.21-.89,2.01l-2.01-1.34c0-.06-.64-.38.22-.89.84.23,1.85-.07,2.68.22Z"/>
      <path class="cls-24" d="M108.55,229.85c-.76.59-1.36,1.08-2.01,1.78,0-.73.29-1.02.67-1.56.23-.15.42-.35.67-.45.48-.18,1.05-.62,1.34-.11-.14.35-.62.3-.67.33Z"/>
      <path class="cls-12" d="M75.55,162.74c-.02.06.02.15,0,.22-1.02.48-2.42.8-3.34,0,0-.18-.11-.22-.22-.33.1-.29,5.28-3.23,4.68-1.34-.2.58-.94.98-1.11,1.45Z"/>
      <g>
        <path class="cls-28" d="M167.19,259.28c.12-.81-.89-.23-1.11-.56-1.1-1.59,3.93-2.79,4.01-3.34,0-.05-.51-.62-.45-.89.03-.11,1.5-1.08,1.78-1.56.2-.34,1.36-3.59,1.34-3.79-.02-.15-1.15-1.97-1.34-2.68-3.58-13.11-6.99-27-9.59-40.35-2.98-15.36-5.29-30.56-2.01-46.15-.47-.36-.53.54-.67.89-5.49,14.03-.98,27.91-3.34,40.91-3.09,3.29-8.41,4.79-12.82,5.57-6.37,1.14-13.55,1.24-19.95.56,5.04-10.22,11-19.99,15.83-30.32,1.34-2.87,4.66-9.15,5.35-11.82.19-.74-.45-.52-.45-.56.15-.81.41-1.45.89-2.12,0-.2-.66-.08-.67-.11-.07-.16.57-.36-.11-.89-.32-.25-4.22-1.87-4.35-1.67.15.31.15,1.31.22,1.45-.22.03-.19-.09-.22-.22-.7-2.57-1.94-5.29-2.9-7.8l6.35.45c.59-.69-.26-1.36-.11-2.23.41-.09,1,.06,1.45,0,.1-.56-.56-.44-.89-.45-2.34,0-4.9.6-7.25.67-2.05-5.33-4.03-10.88-7.25-15.61l10.03,5.35,23.86,5.57c12.12,20.06,17.93,45.39,22.63,68.34,1.12,5.44,7.26,36.66,6.24,39.69-.11.33-.87.61-.89.67-.2.48-.69,2.86-1,3.01-7.53-.21-15.11.28-22.63,0Z"/>
        <path class="cls-26" d="M142.88,152.04c-2.1.46-4.33.69-6.24,1.56-.17-.46-.3-.97-.45-1.34,2.35-.07,4.91-.68,7.25-.67.33,0,.99-.12.89.45-.45.06-1.04-.09-1.45,0Z"/>
        <path class="cls-3" d="M140.77,143.56l18.39,4.79c-.02,1.82-16.43-2.74-17.72-2.79l-.67-2.01Z"/>
      </g>
      <path class="cls-12" d="M144,162.96c-.89,1.03-3.76-.14-4.24-1.11-.07-.14-.08-1.13-.22-1.45.12-.2,4.03,1.42,4.35,1.67.68.54.04.73.11.89Z"/>
      <path class="cls-28" d="M134.41,162.29c-2.32-.75-4.8-1.08-7.13-1.78.15-.87.25-1.9.67-2.68,1.31,2.02,4.69,2.49,6.47,4.46Z"/>
      <path class="cls-13" d="M88.48,158.28c.49,1.15.45,1.53.67,2.68-2.53,1.14-5.41,1.36-8.03,2.23,1.35-1.76,4.18-2.5,5.91-3.79.66-.49.25-1.42,1.45-1.11Z"/>
    </g>
    <g>
      <path class="cls-25" d="M97.85,119.93c-.2,3.15.14,6.54-.22,9.7-.12,1.05-.76,2.17-.89,2.79-4.81-.99-15.1-4.53-18.28-8.25-1.32-1.54-2.29-4.7-2.45-6.69-.4-4.78.34-9.54.67-14.27.05-.78.56-5.42.45-5.69-.05-.12-1.98-.92-2.34-1.23-1.03-.87-1.77-2.02-2.79-2.9.06-.48.22-.63.22-.67.93,1.14,2.37,3.13,3.68,3.79,1.13.57,3.57.63,3.9,1,.36.4,2.24,5.72,2.9,6.91,3.42,6.19,9.34,11.59,15.16,15.5Z"/>
      <path class="cls-25" d="M134.19,129.29c-4.11,2.09-9.27,4.41-13.82,3.12-.79-4.19-.86-7.99-1.11-12.26,7-4.55,13.01-10.52,16.72-18.06-.47,1.57.16,2.44.22,4.12.3,7.76-.33,15.51-2.01,23.08Z"/>
      <path class="cls-10" d="M142.44,115.69c-.61,2.26-2.88,9.88-4.24,11.37-.77.85-2.95,1.69-4.01,2.23,1.67-7.57,2.31-15.32,2.01-23.08-.07-1.68-.69-2.55-.22-4.12.37-.76,1.4-4.39,1.56-4.57.26-.3,6.26-1.48,6.69-3.9-1.13,2.07-2.34,2.91-4.68,3.9l2.9,18.17Z"/>
      <path class="cls-27" d="M72.21,92.73s-.16.19-.22.67c-.09.74-.67,1.48-.67,3.34-1.9,4.31-.77,9.34-.45,13.93l5.35,13.04c-3.65-5.45-6.27-10.47-8.03-16.94-.24-3.54-.24-7.34.67-10.81.48-1.82,1.9-5.41,3.57-6.13-.16.84-.11,2.05-.22,2.9Z"/>
      <path class="cls-27" d="M71.98,103.21c.45,3.37,1.25,7.57,2.23,10.81.24.8.92,3.13,1.78,3.46.17,1.99,1.14,5.15,2.45,6.69l3.01,6.69c-1.91-2.22-3.61-4.71-5.24-7.13l-5.35-13.04c-.33-4.59-1.45-9.63.45-13.93,0,2.03.4,4.44.67,6.47Z"/>
      <path class="cls-27" d="M88.04,34.32c-.75.4-6.38,5.48-6.47,5.91-.13.61,1.08.72.22,1.45-2.52,2.55-4.3,5.6-6.24,8.58l-6.47,13.49c2.69-11.89,8.25-23.39,18.51-30.32l.45.89Z"/>
      <path class="cls-6" d="M142.44,115.69l-2.9-18.17c2.34-1,3.55-1.83,4.68-3.9.38-.7.92-1.7,1.11-2.45.35,8.23-.77,16.58-2.9,24.52Z"/>
      <path class="cls-22" d="M103.42,59.96c-.09.46.61.9.33,1.34-.2.33-5.75,3.18-6.69,3.79-.41.27-1.56,1.49-1.67,1.56-1.77,1.15-3.76,2.19-5.57,3.34-1.67,1.06-4.15,2.16-5.13,3.79-1.2.76-5.45,4.25-5.8,5.35l-3.57,3.34c-.42.27-.81.47-1.11.89-.94-.53,1.13-3.32,1.56-3.9,7.15-9.65,17.86-13.68,27.65-19.51Z"/>
      <path class="cls-25" d="M138.87,66.2c1.53,2.17,2.07,5.05,3.12,7.47l.45-.78c.38,2.42.49,4.93.67,7.36-3.86-1.79-3.05.51-3.34,2.68-.2,1.46-.78,3.4-.89,4.68-.56-10.22-.8-20.78-6.02-29.88,1,1.62,2.05,3.06,2.9,4.79.23.46,2.85,8.13,3.34,7.13.18-1.16-.16-2.34-.22-3.46Z"/>
      <path class="cls-22" d="M125.05,46.8c0,.19-.16.23-.22.45-8.44,8.41-19.15,13.58-29.43,19.4.11-.07,1.26-1.29,1.67-1.56.93-.61,6.48-3.46,6.69-3.79.28-.44-.42-.88-.33-1.34,7.14-4.26,14.35-8.47,21.07-13.38l.56.22Z"/>
      <path class="cls-6" d="M139.09,61.96c1.84,3.16,2.79,7.34,3.34,10.92l-.45.78c-1.05-2.42-1.59-5.29-3.12-7.47-.12-1.92-.33-3.26-.67-5.13.52-.05.7.57.89.89Z"/>
      <g>
        <path class="cls-27" d="M138.2,127.06c1.36-1.49,3.63-9.11,4.24-11.37,2.13-7.95,3.25-16.29,2.9-24.52.82-3.12,1.25-5.99-.45-8.92-.4-.69-1.05-1.67-1.78-2.01-.18-2.43-.29-4.94-.67-7.36-.56-3.59-1.5-7.77-3.34-10.92-.19-7.15-4.12-12.95-9.14-17.61-.61-.57-1.88-1.19-2.45-1.9-.07-.08.16-2.27-.89-.67.11,1.83.85,1.26,1.67,2.12,2.3,2.39,4.13,4.13,5.91,7.02.38.62,1.51,3.76,1.67,3.9.41.37.27-.07.78,0,.72,2.04,1.18,4.12,1.56,6.24.33,1.87.55,3.2.67,5.13.07,1.12.41,2.29.22,3.46-.5.99-3.12-6.67-3.34-7.13-.85-1.73-1.9-3.17-2.9-4.79-1.83-2.98-4.81-7.5-7.13-10.03-.08-.09,0-.63-.67-.89l-.56-.22c-6.72,4.9-13.92,9.12-21.07,13.38-9.79,5.83-20.49,9.86-27.65,19.51-.43.58-2.5,3.37-1.56,3.9-.15.21-.32.44-.45.67-3.03,2.37-2.77,5.81-4.46,9.03-.86-18.56,11.07-45.84,27.76-54.96,4.79-2.62,9.79-3.21,15.05-4.35-13.88-.55-24.91,8.36-32.33,19.17-9.57,13.95-12.16,30.26-12.6,46.93-.22-1.94-.66-3.96-.78-5.91-.58-9.76.57-20.47,2.68-29.99.02-.07-.02-.15,0-.22l6.47-13.49c1.94-2.98,3.73-6.04,6.24-8.58.06-.06.49.06.56,0,5.19-5.15,10.59-9.69,17.72-11.93-.93-.57-1.15.1-1.23.11-2.49.52-5.23,1.93-7.58,3.12-.09.05-1.27,1.31-1.56,1.34s.52-1.15-1.67,0l-.45-.89c9.48-6.41,22.93-9.35,33.33-3.12,1.51.91,4.16,4.36,4.46,4.46.61.21,3.05,0,4.01.22,17.35,4.17,20.6,29.27,21.52,44.03,1.21,19.68-1.08,43.16-16.61,56.96l3.9-8.92Z"/>
        <g>
          <path class="cls-22" d="M73.77,84.03c-.35.62-.48,1.33-.67,2.01-.38,1.39-.41,2.46-.67,3.79-1.67.73-3.09,4.31-3.57,6.13-.91,3.47-.91,7.28-.67,10.81-3.74-13.77-2.5-29.11.89-42.81-2.11,9.51-3.26,20.23-2.68,29.99.12,1.95.56,3.96.78,5.91.44-16.67,3.03-32.98,12.6-46.93,7.42-10.82,18.45-19.72,32.33-19.17-5.26,1.14-10.26,1.73-15.05,4.35-16.69,9.12-28.62,36.4-27.76,54.96,1.69-3.22,1.43-6.66,4.46-9.03Z"/>
          <path class="cls-22" d="M113.79,39.22c.22-.02,1.51-.21,1.11.45-15.67,4.27-27.05,16.47-35.78,29.54-.9,1.35-2.49,4.89-3.34,5.8-.4.42-.68.8-1.34.45,3.51-9.09,10.81-18.48,18.17-24.86,4.53-3.93,15.3-10.77,21.18-11.37Z"/>
          <path class="cls-8" d="M81.79,41.67c.86-.73-.35-.84-.22-1.45.09-.43,5.71-5.51,6.47-5.91,2.2-1.15,1.4.02,1.67,0s1.47-1.29,1.56-1.34c2.35-1.19,5.09-2.6,7.58-3.12.08-.02.29-.69,1.23-.11-7.14,2.23-12.54,6.78-17.72,11.93-.07.06-.5-.06-.56,0Z"/>
          <path class="cls-22" d="M113.12,49.03l-28.43,18.39c8.54-7.46,18.72-12.66,28.43-18.39Z"/>
          <path class="cls-8" d="M129.95,44.35c3.1,3.01,5.26,6.39,6.69,10.48-.51-.07-.37.37-.78,0-.16-.14-1.29-3.28-1.67-3.9-1.77-2.89-3.61-4.63-5.91-7.02-.82-.86-1.56-.29-1.67-2.12,1.05-1.6.83.59.89.67.57.7,1.84,1.33,2.45,1.9Z"/>
          <path class="cls-7" d="M139.09,61.96c-.19-.32-.37-.95-.89-.89-.38-2.13-.84-4.2-1.56-6.24-1.43-4.09-3.58-7.47-6.69-10.48,5.02,4.67,8.95,10.47,9.14,17.61Z"/>
          <path class="cls-8" d="M97.96,41l.56.33c-2.41,1.44-4.57,3.33-6.91,4.9l6.35-5.24Z"/>
        </g>
      </g>
      <path class="cls-6" d="M76.67,103.21h-4.68c-.27-2.03-.67-4.44-.67-6.47,0-1.86.57-2.6.67-3.34,1.01.88,1.76,2.02,2.79,2.9.36.3,2.29,1.1,2.34,1.23.11.26-.39,4.91-.45,5.69Z"/>
      <path class="cls-22" d="M76.67,103.21c-.33,4.73-1.06,9.49-.67,14.27-.86-.33-1.54-2.66-1.78-3.46-.98-3.25-1.78-7.44-2.23-10.81h4.68Z"/>
      <path class="cls-25" d="M78.9,79.13c-.5,1.58-.38,3.8-.45,5.46-.22.38-1.33-.42-1.56-.56-.66-.37-1.32-.77-1.56-1.56l3.57-3.34Z"/>
    </g>
    <g>
      <path class="cls-5" d="M119.25,120.15c.25,4.27.33,8.07,1.11,12.26.16.84.15,1.6.45,2.45.43,1.27.27,2.6,2.01,2.23,2.02,9.95-6.56,20.87-11.15,29.21-1.27,2.3-2.36,4.74-3.46,7.13-.85-2.04-1.95-3.88-3.01-5.8-4.83-8.79-13.27-19.62-11.82-30.1,2.5-.4,2.18-.82,2.9-2.68.4-1.03.28-1.66.45-2.45.13-.62.77-1.73.89-2.79.36-3.16.02-6.54.22-9.7,9.76,6.55,11.53,6.64,21.4.22Z"/>
      <path class="cls-31" d="M76.89,84.03c1.38,2.05.88,4.99,1.11,7.47.05.53,1.03,1.63.11,2.34-2.57-.62-4.57-2.88-5.02-5.46-.1-.6.72-2.07,0-2.34.19-.68.32-1.38.67-2.01.13-.23.29-.46.45-.67.31-.42.69-.62,1.11-.89.25.79.9,1.19,1.56,1.56Z"/>
      <path class="cls-23" d="M125.72,47.69c-.55.61-.92,1.86-1.34,2.45-2.45,3.45-7.53,5.99-11.15,8.03-.55-1.36,2.64-2.36,3.68-3.12,1.89-1.38,7.36-5.78,7.91-7.8.06-.21.22-.26.22-.45.66.26.59.8.67.89Z"/>
      <path class="cls-20" d="M135.3,74.89c-1.79-2.09-3.93-4.29-6.8-4.68-2.11-.29-10.37.05-11.71,1.67-.32.39-.6,1.6-.89,2.12-.4.72.31.39.22.56-.32.6-1.57,1.08-2.01,1.78-3.19,5.16-3.32,7.75-3.12,13.82.08,2.56,2.26,6.57-1.45,7.02-5.82.7-3.09-4.5-3.01-8.14.15-7.3-1.05-9.28-4.9-15.05-.43-.65-.7-2.15-1.45-2.68-.69-.48-4.47-1.04-5.46-1.11,9.63-5.44,21.55-9.63,28.98-18.17.34-.39.81-1.51,1.11-1.9.19-.24.76-1.12,1.11-1l6.02,9.14c-.45.44-.6-.65-.78-.56-.37.2,2.29,5.57,2.56,6.35.41,1.17,2.86,9.55,2.68,10.03-.02.06-1.05.77-1.11.78Z"/>
      <path class="cls-14" d="M124.82,50.15c-.31.38-.77,1.5-1.11,1.9-7.44,8.54-19.36,12.73-28.98,18.17-.73-.06-1.5,0-2.23,0,0-.57-.39-.41.11-.89,3.72-3.57,15.49-8.26,20.62-11.15,3.62-2.03,8.7-4.57,11.15-8.03h.45Z"/>
      <g>
        <path class="cls-20" d="M143.11,80.24c.73.34,1.38,1.31,1.78,2.01l.67,3.46-.89.56c-.28-2.66-2.14-5.38-4.9-3.34.29-2.16-.52-4.47,3.34-2.68Z"/>
        <path class="cls-31" d="M144.67,86.26c.25,2.37-.41.85-.67,1.45-.1.23-.12,1.36-.22,1.56-.92,1.9-2.71,4.69-5.13,4.24.32-1.95.05-3.97.22-5.91.11-1.28.69-3.22.89-4.68,2.76-2.04,4.62.68,4.9,3.34Z"/>
      </g>
      <path class="cls-21" d="M135.3,74.89c-.5.09-1.97-1.34-2.56-1.56-5.43-1.99-11.36-.43-16.83.67.29-.52.57-1.73.89-2.12,1.34-1.62,9.59-1.96,11.71-1.67,2.87.39,5.01,2.59,6.8,4.68Z"/>
      <path class="cls-21" d="M92.5,70.21c.73,0,1.5-.06,2.23,0,.99.08,4.78.63,5.46,1.11.75.53,1.02,2.03,1.45,2.68-3.52-.54-7.22-1.76-10.81-1.78-2.57-.01-4.08.27-6.13,1.56.98-1.63,3.46-2.73,5.13-3.79.71.41,1.86.22,2.68.22Z"/>
      <path class="cls-31" d="M113.23,58.17c-5.13,2.88-16.9,7.58-20.62,11.15-.5.48-.11.32-.11.89-.82,0-1.96.18-2.68-.22,1.81-1.15,3.8-2.19,5.57-3.34,10.28-5.81,20.99-10.99,29.43-19.4-.55,2.02-6.03,6.42-7.91,7.8-1.03.76-4.23,1.76-3.68,3.12Z"/>
      <g>
        <path class="cls-14" d="M132.85,57.73c5.22,9.1,5.46,19.65,6.02,29.88-.17,1.94.1,3.96-.22,5.91,2.42.45,4.21-2.33,5.13-4.24.1-.2.12-1.33.22-1.56.26-.6.92.92.67-1.45l.89-.56-.67-3.46c1.69,2.93,1.26,5.8.45,8.92-.2.75-.73,1.75-1.11,2.45-.43,2.42-6.42,3.6-6.69,3.9-.16.18-1.19,3.81-1.56,4.57-3.72,7.54-9.72,13.51-16.72,18.06-9.87,6.41-11.64,6.33-21.4-.22-5.82-3.91-11.74-9.3-15.16-15.5-.66-1.2-2.54-6.51-2.9-6.91-.33-.37-2.78-.43-3.9-1-1.31-.66-2.75-2.65-3.68-3.79.11-.85.06-2.06.22-2.9.26-1.33.28-2.4.67-3.79.72.27-.1,1.75,0,2.34.44,2.58,2.45,4.84,5.02,5.46.92-.71-.06-1.81-.11-2.34-.23-2.48.27-5.42-1.11-7.47.23.13,1.34.94,1.56.56.06-1.67-.06-3.88.45-5.46.35-1.1,4.6-4.59,5.8-5.35,2.05-1.29,3.56-1.57,6.13-1.56,3.59.02,7.29,1.24,10.81,1.78,3.85,5.76,5.06,7.75,4.9,15.05-.08,3.64-2.81,8.84,3.01,8.14,3.71-.45,1.53-4.46,1.45-7.02-.2-6.07-.07-8.67,3.12-13.82.44-.7,1.69-1.19,2.01-1.78.09-.17-.63.17-.22-.56,5.48-1.09,11.4-2.66,16.83-.67.59.22,2.07,1.65,2.56,1.56.07-.01,1.09-.72,1.11-.78.19-.49-2.26-8.86-2.68-10.03-.28-.78-2.93-6.16-2.56-6.35.18-.1.34.99.78.56l-6.02-9.14c-.36-.12-.92.76-1.11,1h-.45c.42-.59.78-1.84,1.34-2.45,2.32,2.53,5.3,7.06,7.13,10.03Z"/>
        <g>
          <path class="cls-31" d="M107.43,100.09c-.09-1.37-1.23-1.31-2.01-2.01,2.98-.25,5.92-.5,8.81.45.55-.41-.73-2.37-1-2.79,4.77,4.94-2.35,4.57-5.8,4.35Z"/>
          <path class="cls-18" d="M105.43,98.08c.77.7,1.92.64,2.01,2.01-.81-.05-1.59.37-2.79,0-2.62-.82-2.37-3.43-.22-4.68l-1,3.01c.78.08,1.11-.26,2.01-.33Z"/>
          <g>
            <path class="cls-18" d="M131.96,79.58c-.56-.18-2.25-2-3.46-2.45-3.94-1.47-8.55-.29-10.81,3.34,1.66-5.94,11.76-6.49,14.27-.89Z"/>
            <g>
              <path class="cls-19" d="M131.96,79.58c.7.22,2.11-.82,2.45-.33l-1.78,2.01c-.05.6,1.93,1.09,1,1.67-4.28,1.74-6.37,3.89-11.59,3.79-.07,0-1.8-.2-1.23-.67,3.69.4,7.34-.3,9.59-3.46.17-1.31-3.18-4.23-3.79-3.34,3.68,6.81-7.6,9.26-7.91,1.45l-2.12,4.01c-.48-.94.54-3.32,1.11-4.24,2.27-3.63,6.87-4.81,10.81-3.34,1.21.45,2.89,2.28,3.46,2.45Z"/>
              <path class="cls-17" d="M120.81,86.04c-1.05-.11-3.82-.52-4.24-1.34l2.12-4.01c.31,7.81,11.59,5.36,7.91-1.45.61-.89,3.96,2.03,3.79,3.34-2.25,3.16-5.89,3.86-9.59,3.46Z"/>
              <path class="cls-17" d="M122.04,80.02c1.16-.1,1.36,1.73.45,2.01-1.42.43-1.87-1.88-.45-2.01Z"/>
            </g>
          </g>
          <g>
            <path class="cls-18" d="M99.63,79.58c-3.26-2.38-5.66-3.99-9.92-2.68-1.27.39-2.59,1.74-3.68,2.23,2.72-5.18,10.88-4.27,13.6.45Z"/>
            <path class="cls-21" d="M100.97,84.93c-.2-.24-.16-.5-.22-.67l.45-.22c.06.42.16.81.22,1.23-.54.42-.42-.34-.45-.33Z"/>
            <g>
              <path class="cls-19" d="M99.63,79.58c.43.74,1.43,3.59,1.56,4.46l-.45.22c-.5-1.29-1.06-2.61-2.12-3.57-.07,1.5-.28,2.99-1.56,4.01-4.1,3.26-9.82-2.55-5.46-5.91-8.09,2.05-3.28,7.19,2.68,7.47-.47.63-2.86.15-3.46,0-3.03-.77-4.11-2.87-6.91-3.34l-.33-.56c2.43-1.26-.21-1.89-.45-3.57,1.51.58,1.34,1.04,2.9.33,1.09-.49,2.41-1.84,3.68-2.23,4.26-1.31,6.66.3,9.92,2.68Z"/>
              <path class="cls-17" d="M100.75,84.26c.06.17.02.43.22.67-2.38.59-4.03,1.46-6.69,1.34-5.96-.28-10.76-5.42-2.68-7.47-4.35,3.35,1.36,9.16,5.46,5.91,1.28-1.02,1.49-2.51,1.56-4.01,1.06.96,1.62,2.28,2.12,3.57Z"/>
              <path class="cls-17" d="M93.5,80.02c.85-.02,1.6,1.84.22,2.01-1.44.18-1.4-1.98-.22-2.01Z"/>
            </g>
          </g>
          <g>
            <path class="cls-2" d="M119.25,106.11c-1.15,1.85-2.4,3.54-4.01,5.02.25,1.21,1.31.04,2.01.11-4.19,4.99-8.91,5.75-14.49,2.23.84-.27,1.71.79,1.56-.89.21.15,1.76.26,1.78-.11,0-.14-1.9-1.03-2.23-1.23-2.71-1.59-2.68-1.38-4.68-3.79l3.68,2.68c4.95,2.42,8.47,2,12.82-1.11,1.3-.93,2.22-2.08,3.57-2.9Z"/>
            <path class="cls-2" d="M120.14,106.55c.19-.56.35-1.48.33-2.01l-.33.22-3.34,1.56c-5.11.9-10.78,1.36-15.83-.22-.09-.03-.68-.18-.78-.22-.88-.34-2.23-1.46-3.23-1.78-.07-.13-.8-.19-.11-.67l4.68,1.11c6.46.19,13.12.62,19.4-1.11.85.33-.36,2.66-.78,3.12Z"/>
            <path class="cls-32" d="M100.97,106.11c.43,5.32,11.18,4.74,14.27,2.68l.45.22c-4.35,3.11-7.87,3.53-12.82,1.11l-3.68-2.68c-.58-.7-1.57-1.93-2.01-2.68-.16-.27-.17-.56-.22-.67,1.01.32,2.35,1.44,3.23,1.78.1.04.69.2.78.22Z"/>
            <path class="cls-2" d="M99.18,107.44c2,2.41,1.97,2.2,4.68,3.79-.02.66-.16.91.45,1.34.15,1.68-.72.62-1.56.89-2.61-1.65-6.01-5.56-5.57-8.7.44.74,1.43,1.98,2.01,2.68Z"/>
            <path class="cls-9" d="M120.14,106.55c-.67,2-1.6,3.14-2.9,4.68-.7-.07-1.76,1.09-2.01-.11,1.62-1.47,2.86-3.17,4.01-5.02.28-.45.61-.88.89-1.34l.33-.22c.01.52-.15,1.45-.33,2.01Z"/>
            <path class="cls-18" d="M96.17,102.32c1.16-.15-.62,1.35-.89,2.01-.44-.72.11-1.9.89-2.01Z"/>
            <path class="cls-1" d="M120.92,102.32c1.4-.07,1.73.78,1.34,2.01l-1.34-2.01Z"/>
            <path class="cls-30" d="M120.14,104.77c-.28.45-.61.89-.89,1.34-1.35.82-2.27,1.97-3.57,2.9l-.45-.22c.75-.5,1.35-1.58,1.56-2.45l3.34-1.56Z"/>
            <path class="cls-29" d="M104.31,112.57c-.6-.42-.46-.67-.45-1.34.33.2,2.24,1.09,2.23,1.23-.02.37-1.57.26-1.78.11Z"/>
            <path class="cls-17" d="M116.8,106.33c-.22.87-.81,1.95-1.56,2.45-3.09,2.07-13.84,2.64-14.27-2.68,5.05,1.58,10.72,1.12,15.83.22Z"/>
          </g>
        </g>
      </g>
    </g>
  </g>
</svg>